<?xml version="1.0" encoding="iso-8859-1"?>
<!-- Generator: Adobe Illustrator 19.0.0, SVG Export Plug-In . SVG Version: 6.00 Build 0)  -->
<svg version="1.1" id="Layer_1" xmlns="http://www.w3.org/2000/svg" xmlns:xlink="http://www.w3.org/1999/xlink" x="0px" y="0px"
	 viewBox="0 0 460 460" style="enable-background:new 0 0 460 460;" xml:space="preserve">
<ellipse style="fill:#EDEEF0;" cx="230" cy="230" rx="209.756" ry="209.341"/>
<path style="fill:#59595A;" d="M323.99,157.37l-13.518-14.74l-72.13,66.147c-2.586-1.018-5.4-1.584-8.347-1.584
	c-2.43,0-4.77,0.384-6.966,1.088l-100.831-105.2L107.76,116.92l100.828,105.197c-0.905,2.456-1.4,5.11-1.4,7.88
	c0,12.591,10.212,22.81,22.807,22.81s22.807-10.22,22.807-22.81c0-2.252-0.332-4.426-0.94-6.481L323.99,157.37z"/>
<path style="fill:#59595A;" d="M392.627,67.666C349.187,24.312,291.432,0.435,230,0.435S110.813,24.312,67.373,67.666
	C23.927,111.026,0,168.677,0,230s23.927,118.974,67.373,162.334c43.44,43.354,101.196,67.231,162.627,67.231
	s119.187-23.876,162.627-67.231C436.073,348.974,460,291.323,460,230S436.073,111.026,392.627,67.666z M239.995,439.322v-61.656h-20
	v61.655C112.15,434.248,25.336,347.619,20.244,240h62.084v-20H20.244c5.092-107.619,91.906-194.248,199.75-199.322v61.655h20V20.678
	C347.844,25.747,434.663,112.377,439.756,220h-62.094v20h62.094C434.663,347.623,347.844,434.253,239.995,439.322z"/>
<path style="fill:#C8523B;" d="M317.412,311.773l-72.763-80.475c0.038-0.43,0.066-0.863,0.066-1.303
	c0-8.133-6.583-14.716-14.72-14.716c-8.138,0-14.721,6.583-14.721,14.716c0,8.081,6.487,14.618,14.54,14.716l72.762,80.475
	L317.412,311.773z"/>
<g>
</g>
<g>
</g>
<g>
</g>
<g>
</g>
<g>
</g>
<g>
</g>
<g>
</g>
<g>
</g>
<g>
</g>
<g>
</g>
<g>
</g>
<g>
</g>
<g>
</g>
<g>
</g>
<g>
</g>
</svg>
