<?xml version="1.0" encoding="UTF-8"?>
<svg width="1310px" height="1490px" viewBox="0 0 1310 1490" version="1.1" xmlns="http://www.w3.org/2000/svg" xmlns:xlink="http://www.w3.org/1999/xlink">
    <!-- Generator: Sketch 51.3 (57544) - http://www.bohemiancoding.com/sketch -->
    <title>Group 22</title>
    <desc>Created with Sketch.</desc>
    <defs></defs>
    <g id="Page-1" stroke="none" stroke-width="1" fill="none" fill-rule="evenodd">
        <g id="Artboard" transform="translate(-50.000000, -43.000000)">
            <g id="Group-22" transform="translate(50.000000, 43.000000)">
                <g id="Group-21" transform="translate(0.000000, 254.000000)">
                    <g id="Group-13">
                        <g id="Group-11" fill-rule="nonzero">
                            <g id="appointment" transform="translate(49.046512, 46.465116)">
                                <path d="M94.0557243,95.3152383 L94.0557243,100.780709 C94.0557243,104.048498 96.6931599,106.697674 99.9464668,106.697674 C103.199774,106.697674 105.837209,104.048498 105.837209,100.780709 L105.837209,20.4975083 C105.837209,15.8302341 102.070256,12.0465116 97.4236658,12.0465116 L81.0172559,12.0465116 L24.1572667,12.0465116 L17.8786598,12.0465116 C13.2320701,12.0465116 9.46511628,15.8302341 9.46511628,20.4975083 L9.46511628,95.3152383 L94.0557243,95.3152383 Z" id="Shape" fill="#FFFFFF"></path>
                                <path d="M94.7562039,100.436842 L94.7562039,94.6563056 L94.753667,94.6511628 L2.58139535,94.6511628 L2.58139535,100.436842 C2.58139535,103.89461 5.23163251,106.697674 8.50087847,106.697674 L100.674419,106.697674 C97.4058069,106.697004 94.7562039,103.894163 94.7562039,100.436842 Z" id="Shape" fill="#FCFCFA"></path>
                                <path d="M105.837209,29.255814 L9.46511628,29.255814 L9.46511628,20.3401513 C9.46511628,15.7597815 13.2417636,12.0465116 17.9003104,12.0465116 L97.4020152,12.0465116 C102.060562,12.0465116 105.837209,15.7597815 105.837209,20.3401513 L105.837209,29.255814 Z" id="Shape" fill="#7FC24D"></path>
                                <g id="Group" transform="translate(41.302326, 67.116279)" fill="#FCF9F0">
                                    <path d="M5.99494651,12.0465116 C2.71274248,12.0465116 0.0520007752,9.34981395 0.0520007752,6.02325581 C0.0520007752,2.69669767 2.71274248,0 5.99494651,0 C9.27715054,0 11.9378922,2.69669767 11.9378922,6.02325581 C11.9378922,9.34981395 9.27715054,12.0465116 5.99494651,12.0465116 Z" id="Shape"></path>
                                    <path d="M25.8046949,12.0465116 C22.5224909,12.0465116 19.8617491,9.34981395 19.8617491,6.02325581 C19.8617491,2.69669767 22.5224909,0 25.8046949,0 C29.0868989,0 31.7476406,2.69669767 31.7476406,6.02325581 C31.7476406,9.34981395 29.0868989,12.0465116 25.8046949,12.0465116 Z" id="Shape"></path>
                                </g>
                                <path d="M87.7674419,79.1627907 C84.4408837,79.1627907 81.744186,76.466093 81.744186,73.1395349 C81.744186,69.8129767 84.4408837,67.1162791 87.7674419,67.1162791 C91.094,67.1162791 93.7906977,69.8129767 93.7906977,73.1395349 C93.7906977,76.466093 91.094,79.1627907 87.7674419,79.1627907 Z" id="Shape" fill="#FFF6D8"></path>
                                <g id="Group" transform="translate(21.511628, 43.883721)" fill="#FCF9F0">
                                    <path d="M6.21944186,12.0465116 C2.89288372,12.0465116 0.196186047,9.34981395 0.196186047,6.02325581 C0.196186047,2.69669767 2.89288372,0 6.21944186,0 C9.546,0 12.2426977,2.69669767 12.2426977,6.02325581 C12.2426977,9.34981395 9.546,12.0465116 6.21944186,12.0465116 Z" id="Shape"></path>
                                    <path d="M46.3743372,12.0465116 C43.0477791,12.0465116 40.3510814,9.34981395 40.3510814,6.02325581 C40.3510814,2.69669767 43.0477791,0 46.3743372,0 C49.7008953,0 52.397593,2.69669767 52.397593,6.02325581 C52.397593,9.34981395 49.7008953,12.0465116 46.3743372,12.0465116 Z" id="Shape"></path>
                                    <path d="M26.2968895,12.0465116 C22.9703314,12.0465116 20.2736337,9.34981395 20.2736337,6.02325581 C20.2736337,2.69669767 22.9703314,0 26.2968895,0 C29.6234477,0 32.3201453,2.69669767 32.3201453,6.02325581 C32.3201453,9.34981395 29.6234477,12.0465116 26.2968895,12.0465116 Z" id="Shape"></path>
                                </g>
                                <g id="Group" transform="translate(4.302326, 43.883721)" fill="#FFF6D8">
                                    <path d="M83.5461749,11.9452804 C80.2746662,11.9452804 77.6225948,9.27124409 77.6225948,5.97264022 C77.6225948,2.67403635 80.2746662,0 83.5461749,0 C86.8176837,0 89.4697551,2.67403635 89.4697551,5.97264022 C89.4697551,9.27124409 86.8176837,11.9452804 83.5461749,11.9452804 Z" id="Shape"></path>
                                    <ellipse id="Oval" cx="15.3336104" cy="35.4092242" rx="15.2320633" ry="15.3582177"></ellipse>
                                </g>
                                <g id="Group" transform="translate(29.255814, 2.581395)" fill="#FFFFFF">
                                    <path d="M4.35769923,18.8214381 C1.99035817,18.8214381 0.0713674246,16.8731473 0.0713674246,14.4696605 L0.0713674246,4.3517776 C0.0713674246,1.94829083 1.99035817,0 4.35769923,0 C6.72504029,0 8.64403104,1.94829083 8.64403104,4.3517776 L8.64403104,14.4696605 C8.64403104,16.8731473 6.72504029,18.8214381 4.35769923,18.8214381 Z" id="Shape"></path>
                                    <path d="M53.2218818,18.8214381 C50.8545408,18.8214381 48.93555,16.8731473 48.93555,14.4696605 L48.93555,4.3517776 C48.93555,1.94829083 50.8545408,0 53.2218818,0 C55.5892229,0 57.5082136,1.94829083 57.5082136,4.3517776 L57.5082136,14.4696605 C57.5082136,16.8731473 55.5892229,18.8214381 53.2218818,18.8214381 Z" id="Shape"></path>
                                </g>
                                <path d="M97.8308503,9.31722384 L87.7371205,9.31722384 L87.7371205,6.35265262 C87.7371205,2.84979996 84.8873206,0 81.3844679,0 C77.8816153,0 75.0318153,2.84979996 75.0318153,6.35265262 L75.0318153,9.31722384 L39.4569607,9.31722384 L39.4569607,6.35265262 C39.4569607,2.84979996 36.6071607,0 33.104308,0 C29.6014554,0 26.7516554,2.84979996 26.7516554,6.35265262 L26.7516554,9.39557322 C26.5716636,9.34581077 26.3829898,9.31722384 26.1871164,9.31722384 L17.7499467,9.31722384 C11.9118589,9.31722384 7.16219231,14.0668904 7.16219231,19.9049782 L7.16219231,55.9738575 C7.16219231,57.1433808 8.1104316,58.0914083 9.27974319,58.0914083 C10.4490548,58.0914083 11.3972941,57.1433808 11.3972941,55.9738575 L11.3972941,31.1279978 L87.7371205,31.1279978 C88.9064321,31.1279978 89.8546714,30.1799703 89.8546714,29.0104469 C89.8546714,27.8409236 88.9064321,26.8928961 87.7371205,26.8928961 L11.3972941,26.8928961 L11.3972941,19.9049782 C11.3972941,16.4021255 14.247094,13.5523256 17.7499467,13.5523256 L26.1871164,13.5523256 C26.3829898,13.5523256 26.5716636,13.5235269 26.7516554,13.4739762 L26.7516554,16.1992642 C26.7516554,19.7021168 29.6014554,22.5519168 33.104308,22.5519168 C36.6071607,22.5519168 39.4569607,19.7021168 39.4569607,16.1992642 L39.4569607,13.5523256 L75.0318153,13.5523256 L75.0318153,16.1992642 C75.0318153,19.7021168 77.8816153,22.5519168 81.3844679,22.5519168 C84.8873206,22.5519168 87.7371205,19.7021168 87.7371205,16.1992642 L87.7371205,13.5523256 L97.8308503,13.5523256 C101.333703,13.5523256 104.183503,16.4021255 104.183503,19.9049782 L104.183503,100.370641 C104.183503,102.472945 102.473157,104.183503 100.370641,104.183503 C98.2681245,104.183503 96.5577787,102.472945 96.5577787,100.370641 L96.5577787,94.8927485 C96.5577787,93.7232251 95.6095394,92.7751976 94.4402278,92.7751976 L69.8086643,92.7751976 C68.6393527,92.7751976 67.6911135,93.7232251 67.6911135,94.8927485 C67.6911135,96.0622718 68.6393527,97.0102993 69.8086643,97.0102993 L92.322677,97.0102993 L92.322677,100.370641 C92.322677,101.749378 92.6716493,103.04786 93.2851038,104.183503 L8.04669331,104.183503 C5.94502407,104.183503 4.23510174,102.473581 4.23510174,100.371911 L4.23510174,97.0102993 L51.6311841,97.0102993 C52.8004957,97.0102993 53.748735,96.0622718 53.748735,94.8927485 C53.748735,93.7232251 52.8004957,92.7751976 51.6311841,92.7751976 L30.4734628,92.7751976 C34.1736712,89.5884953 36.5233057,84.874827 36.5233057,79.6199128 C36.5233057,70.0454065 28.7338948,62.2559956 19.1593885,62.2559956 C9.58488227,62.2559956 1.79547138,70.0454065 1.79547138,79.6199128 C1.79547138,84.874827 4.14510583,89.5884953 7.84531423,92.7751976 L2.11755087,92.7751976 C0.948239281,92.7751976 0,93.7232251 0,94.8927485 L0,100.371911 C0,104.808816 3.60978897,108.418605 8.04669331,108.418605 L100.370641,108.418605 C104.80818,108.418605 108.418605,104.808392 108.418605,100.370641 L108.418605,19.9049782 C108.418605,14.0668904 103.668938,9.31722384 97.8308503,9.31722384 Z M35.2218589,16.1992642 C35.2218589,17.3668817 34.2719256,18.316815 33.104308,18.316815 C31.9366905,18.316815 30.9867572,17.3668817 30.9867572,16.1992642 L30.9867572,6.35265262 C30.9867572,5.18503507 31.9366905,4.23510174 33.104308,4.23510174 C34.2719256,4.23510174 35.2218589,5.18503507 35.2218589,6.35265262 L35.2218589,16.1992642 Z M83.5020188,16.1992642 C83.5020188,17.3668817 82.5520855,18.316815 81.3844679,18.316815 C80.2168504,18.316815 79.2669171,17.3668817 79.2669171,16.1992642 L79.2669171,6.35265262 C79.2669171,5.18503507 80.2168504,4.23510174 81.3844679,4.23510174 C82.5520855,4.23510174 83.5020188,5.18503507 83.5020188,6.35265262 L83.5020188,16.1992642 Z M6.03057313,79.6199128 C6.03057313,72.3806416 11.9201174,66.4910974 19.1593885,66.4910974 C26.3986597,66.4910974 32.2882039,72.3806416 32.2882039,79.6199128 C32.2882039,86.859184 26.3986597,92.7487282 19.1593885,92.7487282 C11.9201174,92.7487282 6.03057313,86.859184 6.03057313,79.6199128 Z" id="Shape" fill="#000000"></path>
                                <path d="M96.8023256,30.9767442 C97.3680814,30.9767442 97.9230814,30.7465698 98.3229826,30.3464535 C98.7230988,29.9463372 98.9534884,29.3913372 98.9534884,28.8255814 C98.9534884,28.2598256 98.723314,27.7048256 98.3229826,27.3047093 C97.9230814,26.904593 97.3680814,26.6744186 96.8023256,26.6744186 C96.2363547,26.6744186 95.6815698,26.904593 95.2814535,27.3047093 C94.8813372,27.7048256 94.6511628,28.2598256 94.6511628,28.8255814 C94.6511628,29.3913372 94.8811221,29.9463372 95.2814535,30.3464535 C95.6817849,30.7465698 96.2363547,30.9767442 96.8023256,30.9767442 Z" id="Shape" fill="#000000"></path>
                                <path d="M60.8628488,92.6982212 C60.4627326,93.1006899 60.2325581,93.6538153 60.2325581,94.2198541 C60.2325581,94.7880452 60.4625174,95.3411706 60.8628488,95.7436393 C61.2629651,96.1439557 61.8179651,96.372093 62.3837209,96.372093 C62.9494767,96.372093 63.5044767,96.1439557 63.9043779,95.7436393 C64.3044942,95.3411706 64.5348837,94.7858929 64.5348837,94.2198541 C64.5348837,93.6538153 64.3047093,93.1006899 63.9043779,92.6982212 C63.5044767,92.2979048 62.9494767,92.0697674 62.3837209,92.0697674 C61.8179651,92.0697674 61.2629651,92.2979048 60.8628488,92.6982212 Z" id="Shape" fill="#000000"></path>
                                <path d="M48.6162791,80.8837209 C53.1236105,80.8837209 56.7906977,77.2166337 56.7906977,72.7093023 C56.7906977,68.2019709 53.1236105,64.5348837 48.6162791,64.5348837 C44.1089477,64.5348837 40.4418605,68.2019709 40.4418605,72.7093023 C40.4418605,77.2166337 44.1089477,80.8837209 48.6162791,80.8837209 Z M48.6162791,68.8372093 C50.7513081,68.8372093 52.4883721,70.5742733 52.4883721,72.7093023 C52.4883721,74.8443314 50.7513081,76.5813953 48.6162791,76.5813953 C46.48125,76.5813953 44.744186,74.8443314 44.744186,72.7093023 C44.744186,70.5742733 46.48125,68.8372093 48.6162791,68.8372093 Z" id="Shape" fill="#000000"></path>
                                <path d="M68.4069767,80.8837209 C72.9143081,80.8837209 76.5813953,77.2166337 76.5813953,72.7093023 C76.5813953,68.2019709 72.9143081,64.5348837 68.4069767,64.5348837 C63.8996453,64.5348837 60.2325581,68.2019709 60.2325581,72.7093023 C60.2325581,77.2166337 63.8996453,80.8837209 68.4069767,80.8837209 Z M68.4069767,68.8372093 C70.5420058,68.8372093 72.2790698,70.5742733 72.2790698,72.7093023 C72.2790698,74.8443314 70.5420058,76.5813953 68.4069767,76.5813953 C66.2719477,76.5813953 64.5348837,74.8443314 64.5348837,72.7093023 C64.5348837,70.5742733 66.2719477,68.8372093 68.4069767,68.8372093 Z" id="Shape" fill="#000000"></path>
                                <path d="M87.3372093,80.8837209 C91.8445407,80.8837209 95.5116279,77.2166337 95.5116279,72.7093023 C95.5116279,68.2019709 91.8445407,64.5348837 87.3372093,64.5348837 C82.8298779,64.5348837 79.1627907,68.2019709 79.1627907,72.7093023 C79.1627907,77.2166337 82.8298779,80.8837209 87.3372093,80.8837209 Z M87.3372093,68.8372093 C89.4722384,68.8372093 91.2093023,70.5742733 91.2093023,72.7093023 C91.2093023,74.8443314 89.4722384,76.5813953 87.3372093,76.5813953 C85.2021802,76.5813953 83.4651163,74.8443314 83.4651163,72.7093023 C83.4651163,70.5742733 85.2021802,68.8372093 87.3372093,68.8372093 Z" id="Shape" fill="#000000"></path>
                                <path d="M36.1395349,51.1976744 C36.1395349,46.690343 32.4724477,43.0232558 27.9651163,43.0232558 C23.4577849,43.0232558 19.7906977,46.690343 19.7906977,51.1976744 C19.7906977,55.7050058 23.4577849,59.372093 27.9651163,59.372093 C32.4724477,59.372093 36.1395349,55.7050058 36.1395349,51.1976744 Z M24.0930233,51.1976744 C24.0930233,49.0626453 25.8300872,47.3255814 27.9651163,47.3255814 C30.1001453,47.3255814 31.8372093,49.0626453 31.8372093,51.1976744 C31.8372093,53.3327035 30.1001453,55.0697674 27.9651163,55.0697674 C25.8300872,55.0697674 24.0930233,53.3327035 24.0930233,51.1976744 Z" id="Shape" fill="#000000"></path>
                                <path d="M68.4069767,59.372093 C72.9143081,59.372093 76.5813953,55.7050058 76.5813953,51.1976744 C76.5813953,46.690343 72.9143081,43.0232558 68.4069767,43.0232558 C63.8996453,43.0232558 60.2325581,46.690343 60.2325581,51.1976744 C60.2325581,55.7050058 63.8996453,59.372093 68.4069767,59.372093 Z M68.4069767,47.3255814 C70.5420058,47.3255814 72.2790698,49.0626453 72.2790698,51.1976744 C72.2790698,53.3327035 70.5420058,55.0697674 68.4069767,55.0697674 C66.2719477,55.0697674 64.5348837,53.3327035 64.5348837,51.1976744 C64.5348837,49.0626453 66.2719477,47.3255814 68.4069767,47.3255814 Z" id="Shape" fill="#000000"></path>
                                <path d="M87.3372093,59.372093 C91.8445407,59.372093 95.5116279,55.7050058 95.5116279,51.1976744 C95.5116279,46.690343 91.8445407,43.0232558 87.3372093,43.0232558 C82.8298779,43.0232558 79.1627907,46.690343 79.1627907,51.1976744 C79.1627907,55.7050058 82.8298779,59.372093 87.3372093,59.372093 Z M87.3372093,47.3255814 C89.4722384,47.3255814 91.2093023,49.0626453 91.2093023,51.1976744 C91.2093023,53.3327035 89.4722384,55.0697674 87.3372093,55.0697674 C85.2021802,55.0697674 83.4651163,53.3327035 83.4651163,51.1976744 C83.4651163,49.0626453 85.2021802,47.3255814 87.3372093,47.3255814 Z" id="Shape" fill="#000000"></path>
                                <path d="M48.6162791,59.372093 C53.1236105,59.372093 56.7906977,55.7050058 56.7906977,51.1976744 C56.7906977,46.690343 53.1236105,43.0232558 48.6162791,43.0232558 C44.1089477,43.0232558 40.4418605,46.690343 40.4418605,51.1976744 C40.4418605,55.7050058 44.1089477,59.372093 48.6162791,59.372093 Z M48.6162791,47.3255814 C50.7513081,47.3255814 52.4883721,49.0626453 52.4883721,51.1976744 C52.4883721,53.3327035 50.7513081,55.0697674 48.6162791,55.0697674 C46.48125,55.0697674 44.744186,53.3327035 44.744186,51.1976744 C44.744186,49.0626453 46.48125,47.3255814 48.6162791,47.3255814 Z" id="Shape" fill="#000000"></path>
                                <path d="M14.763576,85.454869 C15.1576023,85.8336092 15.6917222,86.0465116 16.248736,86.0465116 C16.8057498,86.0465116 17.3398697,85.8336092 17.733896,85.454869 L26.0592776,77.4482017 C26.8794656,76.6594122 26.8794656,75.3803815 26.0592776,74.5915921 C25.2388794,73.8028026 23.9093556,73.8028026 23.0887475,74.5915921 L16.248736,81.1699547 L13.9112525,78.9219553 C13.0908544,78.1331658 11.7613306,78.1331658 10.9407224,78.9219553 C10.1205344,79.7107447 10.1205344,80.9897754 10.9407224,81.7787668 L14.763576,85.454869 Z" id="Shape" fill="#000000"></path>
                            </g>
                            <g id="spinner-circle-(1)" fill="#FC9494">
                                <path d="M222,111.141929 C221.714298,96.1626592 218.468036,81.2307033 212.47302,67.5770931 C206.497767,53.9114393 197.825316,41.5323037 187.178298,31.3029568 C176.537725,21.0658677 163.918719,12.9729755 150.260875,7.63420445 C136.610335,2.27478716 121.932556,-0.285345394 107.432644,0.0252083199 C92.9305825,0.312535025 78.4929654,3.46925761 65.2900966,9.28977404 C52.0773463,15.0913648 40.1075071,23.5090049 30.2187812,33.8377117 C20.3231814,44.161257 12.5056876,56.3988799 7.3531704,69.6369847 C2.18131998,82.8677773 -0.283450405,97.0839973 0.0258810706,111.141929 C0.313731194,125.202012 3.37396467,139.17865 9.00637529,151.960817 C14.620312,164.752017 22.7626038,176.341004 32.7501438,185.911392 C42.7320987,195.489523 54.5605906,203.050344 67.3471509,208.027376 C80.128126,213.023764 93.8508436,215.39808 107.432644,215.089677 C121.017451,214.80106 134.499577,211.829293 146.832451,206.371806 C159.173059,200.932385 170.353243,193.046815 179.583351,183.376637 C188.821621,173.712051 196.107237,162.265867 200.897579,149.900926 C203.814746,142.405054 205.793608,134.577982 206.836743,126.647248 C207.115571,126.663163 207.396117,126.674347 207.678812,126.674347 C215.587816,126.674347 221.99957,120.25552 221.99957,112.33683 C221.99957,111.934229 221.978519,111.536358 221.946297,111.14236 L222,111.141929 Z M199.244803,149.214438 C193.992183,161.133335 186.381769,171.930453 177.052418,180.842743 C167.728222,189.760194 156.689814,196.790235 144.775827,201.405958 C132.864846,206.038456 120.09676,208.227386 107.433073,207.920704 C94.7672381,207.629506 82.2380244,204.843555 70.7760044,199.749528 C59.3083992,194.671416 48.917869,187.318347 40.3455204,178.307988 C31.7667275,169.30193 25.0117014,158.646325 20.5822465,147.154977 C16.1360362,135.66535 14.0420339,123.359766 14.3474988,111.141069 C14.6387859,98.9197912 17.3295401,86.8537901 22.235881,75.8140787 C27.1267554,64.7696359 34.2065795,54.762236 42.8773126,46.5093356 C51.5437495,38.2499832 61.7920731,31.7528726 72.8334883,27.4997492 C83.8736146,23.2294205 95.6874992,21.2254458 107.433073,21.530838 C119.180366,21.8233262 130.755807,24.4247512 141.347403,29.1553188 C151.942865,33.8708317 161.543311,40.6931205 169.457471,49.0449508 C177.378075,57.3916195 183.601653,67.2570765 187.669791,77.8744005 C191.752967,88.4917244 193.662229,99.8419895 193.358483,111.141499 L193.412186,111.141499 C193.379535,111.535498 193.358483,111.933368 193.358483,112.33597 C193.358483,119.731191 198.951368,125.816238 206.132155,126.589181 C204.739304,134.390875 202.433495,142.006753 199.244803,149.214438 Z" id="Shape"></path>
                            </g>
                        </g>
                        <text id="Create-and-reserve-f" font-family="Raleway-Medium, Raleway" font-size="20" font-weight="400" line-spacing="39" letter-spacing="1.99679995" fill="#000000">
                            <tspan x="252" y="104"> Create and reserve for events</tspan>
                        </text>
                    </g>
                    <text id="Events" font-family="Raleway-Bold, Raleway" font-size="24" font-weight="bold" letter-spacing="2.42307711" fill="#000000">
                        <tspan x="61" y="182">Events</tspan>
                    </text>
                </g>
                <g id="Group-20" transform="translate(0.000000, 509.000000)">
                    <g id="Group-14">
                        <g id="Group-3" fill-rule="nonzero">
                            <g id="spinner-circle-(1)" fill="#FC9494">
                                <path d="M222,111.141929 C221.714298,96.1626592 218.468036,81.2307033 212.47302,67.5770931 C206.497767,53.9114393 197.825316,41.5323037 187.178298,31.3029568 C176.537725,21.0658677 163.918719,12.9729755 150.260875,7.63420445 C136.610335,2.27478716 121.932556,-0.285345394 107.432644,0.0252083199 C92.9305825,0.312535025 78.4929654,3.46925761 65.2900966,9.28977404 C52.0773463,15.0913648 40.1075071,23.5090049 30.2187812,33.8377117 C20.3231814,44.161257 12.5056876,56.3988799 7.3531704,69.6369847 C2.18131998,82.8677773 -0.283450405,97.0839973 0.0258810706,111.141929 C0.313731194,125.202012 3.37396467,139.17865 9.00637529,151.960817 C14.620312,164.752017 22.7626038,176.341004 32.7501438,185.911392 C42.7320987,195.489523 54.5605906,203.050344 67.3471509,208.027376 C80.128126,213.023764 93.8508436,215.39808 107.432644,215.089677 C121.017451,214.80106 134.499577,211.829293 146.832451,206.371806 C159.173059,200.932385 170.353243,193.046815 179.583351,183.376637 C188.821621,173.712051 196.107237,162.265867 200.897579,149.900926 C203.814746,142.405054 205.793608,134.577982 206.836743,126.647248 C207.115571,126.663163 207.396117,126.674347 207.678812,126.674347 C215.587816,126.674347 221.99957,120.25552 221.99957,112.33683 C221.99957,111.934229 221.978519,111.536358 221.946297,111.14236 L222,111.141929 Z M199.244803,149.214438 C193.992183,161.133335 186.381769,171.930453 177.052418,180.842743 C167.728222,189.760194 156.689814,196.790235 144.775827,201.405958 C132.864846,206.038456 120.09676,208.227386 107.433073,207.920704 C94.7672381,207.629506 82.2380244,204.843555 70.7760044,199.749528 C59.3083992,194.671416 48.917869,187.318347 40.3455204,178.307988 C31.7667275,169.30193 25.0117014,158.646325 20.5822465,147.154977 C16.1360362,135.66535 14.0420339,123.359766 14.3474988,111.141069 C14.6387859,98.9197912 17.3295401,86.8537901 22.235881,75.8140787 C27.1267554,64.7696359 34.2065795,54.762236 42.8773126,46.5093356 C51.5437495,38.2499832 61.7920731,31.7528726 72.8334883,27.4997492 C83.8736146,23.2294205 95.6874992,21.2254458 107.433073,21.530838 C119.180366,21.8233262 130.755807,24.4247512 141.347403,29.1553188 C151.942865,33.8708317 161.543311,40.6931205 169.457471,49.0449508 C177.378075,57.3916195 183.601653,67.2570765 187.669791,77.8744005 C191.752967,88.4917244 193.662229,99.8419895 193.358483,111.141499 L193.412186,111.141499 C193.379535,111.535498 193.358483,111.933368 193.358483,112.33597 C193.358483,119.731191 198.951368,125.816238 206.132155,126.589181 C204.739304,134.390875 202.433495,142.006753 199.244803,149.214438 Z" id="Shape"></path>
                            </g>
                            <g id="sprout-(2)" transform="translate(51.627907, 58.511628)">
                                <rect id="Rectangle-path" fill="#30995B" x="2.11755087" y="46.7449355" width="11.4347747" height="38.1159157"></rect>
                                <path d="M104.621201,59.6293855 C102.550236,57.5584208 99.2955602,57.2619637 96.8845168,58.9246646 L78.2056006,74.7624628 C79.9087467,73.0252241 79.9955663,69.5179246 77.9972336,67.5195918 C77.203152,66.7252985 76.1257421,66.2791305 75.0025931,66.2791305 L55.2403378,66.2791305 C53.5554026,66.2791305 51.9397113,65.6097727 50.7483772,64.4184386 L39.4863946,53.103729 C37.5007672,51.1181016 34.807666,50.0025758 31.9997935,50.0025758 L13.5523256,50.0025758 L13.5523256,80.1137257 L22.3308445,85.4304724 C26.8041707,88.1398787 31.9343612,89.5724019 37.1642883,89.5724019 L70.6482733,89.5724019 C76.1894804,89.5724019 81.562554,87.6693589 85.8683819,84.1817526 L104.283028,68.0525794 C106.833194,65.881878 106.989046,61.9974427 104.621201,59.6293855 Z" id="Shape" fill="#F9BD95"></path>
                                <path d="M41.0961568,54.4451975 C46.5520266,51.0660098 52.9851462,49.1151102 59.8737509,49.1151102 C72.1932384,49.1151102 83.0547921,55.3538386 89.4779591,64.8444898 L80.2520017,73.7119459 C80.2520017,73.7119459 80.2549663,65.8573144 70.5142323,65.8573144 C60.7734983,65.8573144 52.9334779,65.8573144 52.9334779,65.8573144 L41.0961568,54.4451975 Z" id="Shape" fill="#30995B"></path>
                                <g id="Group" transform="translate(34.304324, 2.329306)" fill="#ACD670">
                                    <path d="M14.9556265,7.69306232 C26.4272466,11.5224413 25.6005548,27.8635814 25.6005548,28.0789363 L25.6026723,28.0812656 L25.6037311,28.0825362 L25.6020371,28.0804186 C25.5446514,28.0819009 12.0575464,28.5064698 5.2093869,20.8496176 C-1.63453752,13.1934007 0.512023801,0.0601384448 0.525576126,0.00402334666 L0.52197629,0 C0.52197629,0 4.20312673,4.10381359 14.9556265,7.69306232 Z" id="Shape"></path>
                                    <path d="M50.6912033,0 L50.6878152,0.00381159157 C50.7015793,0.0601384448 52.8479289,13.193189 46.0040045,20.8494059 C39.1558449,28.5062581 25.6687399,28.0819009 25.6113543,28.0802068 L25.6096602,28.0823244 L25.610719,28.0810539 L25.6128366,28.0787246 C25.6128366,27.8633696 24.7861447,11.5222296 36.2577648,7.69285056 C47.0100529,4.10381359 50.6912033,0 50.6912033,0 Z" id="Shape"></path>
                                </g>
                                <path d="M13.5523256,63.7126589 C12.383014,63.7126589 11.4347747,64.6606864 11.4347747,65.8302098 L11.4347747,65.8575262 C11.4347747,67.0270495 12.383014,67.975077 13.5523256,67.975077 C14.7216372,67.975077 15.6698765,67.0270495 15.6698765,65.8575262 L15.6698765,65.8302098 C15.6698765,64.6606864 14.7216372,63.7126589 13.5523256,63.7126589 Z" id="Shape" fill="#000000"></path>
                                <path d="M106.118521,58.1322771 C103.324624,55.3377452 98.9353648,54.9385868 95.6823832,57.1814967 C95.6247858,57.2213067 95.5688824,57.264293 95.5153084,57.3096086 L90.0179346,61.9707615 C83.3063571,53.1312572 73.0912917,47.6902102 62.0311117,47.0612976 L62.0311117,32.4836539 C66.3739968,32.2574995 76.1399297,31.0159794 81.8871745,24.5900595 C88.7114057,16.9560769 87.442781,4.63658939 87.1111725,2.2371925 C87.0874559,1.68768805 86.8507138,1.14792433 86.4087809,0.751942315 C85.5384675,-0.0279516715 84.2001753,0.0448920785 83.4194343,0.915205487 C83.3864005,0.952050872 79.8344207,4.69482204 69.8916723,8.01365952 C65.3607487,9.52601435 61.9500095,12.943318 59.9112316,17.9672074 C57.8724536,12.943318 54.4617144,9.52622611 49.9307908,8.01365952 C39.9895247,4.69524555 36.4261101,0.939557322 36.4030288,0.915205487 C35.6222878,0.0448920785 34.2859014,-0.0260458757 33.415588,0.75384811 C32.9829724,1.14135992 32.7475007,1.66735956 32.7155257,2.20521748 C32.3911169,4.5247827 31.0801412,16.921349 37.9352886,24.5902713 C43.6852862,31.0193675 53.458207,32.2585582 57.7962217,32.4838656 L57.7962217,47.0596036 C51.9757097,47.3776597 46.3233311,49.025326 41.2645021,51.8880431 L40.9841384,51.6064088 C38.584318,49.2068001 35.3938041,47.8852366 32.0000053,47.8852366 L15.6698765,47.8852366 L15.6698765,46.7449355 C15.6698765,45.5754122 14.7216372,44.6273846 13.5523256,44.6273846 L2.11755087,44.6273846 C0.948239281,44.6273846 0,45.5754122 0,46.7449355 L0,84.8608512 C0,86.0303745 0.948239281,86.9784021 2.11755087,86.9784021 L13.5523256,86.9784021 C14.7216372,86.9784021 15.6698765,86.0303745 15.6698765,84.8608512 L15.6698765,83.8721667 L21.2337414,87.2418254 C26.0382525,90.1517638 31.5470611,91.6899528 37.1642883,91.6899528 L70.6482733,91.6899528 C76.6549181,91.6899528 82.5336628,89.607765 87.2011684,85.8270897 C87.2223439,85.8099375 87.2430959,85.7923618 87.2636362,85.7745744 L105.668541,69.6540831 C107.325101,68.2378651 108.324797,66.1781234 108.412252,64.0000105 C108.499919,61.8161803 107.66391,59.6774539 106.118521,58.1322771 Z M71.2322938,12.031077 C76.9498929,10.1225284 80.7924007,8.04182295 83.2025971,6.44180151 C83.2974634,10.5930482 82.730595,17.2917087 78.7299062,21.7671524 C74.1415969,26.8975547 65.9051711,28.003975 62.0582164,28.2358468 C62.2687009,23.9262073 63.6175809,14.5727733 71.2322938,12.031077 Z M41.0921334,21.7675759 C37.0914446,17.2919204 36.5243645,10.5930482 36.6192307,6.44180151 C39.0294271,8.04182295 42.871935,10.1225284 48.5895341,12.031077 C56.204247,14.5729851 57.5531269,23.9264191 57.7636115,28.2360586 C53.9204684,28.0043985 45.6815015,26.8988252 41.0921334,21.7675759 Z M59.8737509,51.2326611 C70.50068,51.2326611 80.4398285,56.244904 86.7816816,64.7144722 L81.3499519,69.3201453 C81.0240608,68.076296 80.3955717,66.9235013 79.494342,66.0222716 C78.2943259,64.8224673 76.6991749,64.1615797 75.0023814,64.1615797 L55.2401261,64.1615797 C54.1089304,64.1615797 53.0454964,63.7211291 52.2490855,62.9247182 L44.3773019,55.0158775 C49.1422148,52.5358019 54.4502796,51.2326611 59.8737509,51.2326611 Z M102.910643,66.4398527 C102.90302,66.4462053 102.895397,66.4527697 102.887985,66.4593341 L84.5046791,82.5609792 C80.5937744,85.7171888 75.674492,87.454851 70.6482733,87.454851 L37.1642883,87.454851 C32.3206025,87.454851 27.5705124,86.1286289 23.4279476,83.6193311 L15.6698765,78.9206975 L15.6698765,72.9724971 C15.6698765,71.8029737 14.7216372,70.8549462 13.5523256,70.8549462 C12.383014,70.8549462 11.4347747,71.8029737 11.4347747,72.9724971 L11.4347747,82.7430886 L4.23510174,82.7430886 L4.23510174,48.8622746 L11.4347747,48.8622746 L11.4347747,58.2631417 C11.4347747,59.4326651 12.383014,60.3806926 13.5523256,60.3806926 C14.7216372,60.3806926 15.6698765,59.4326651 15.6698765,58.2631417 L15.6698765,52.1201266 L31.9995818,52.1201266 C34.2621849,52.1201266 36.389053,53.0012396 37.9854746,54.5974494 L49.2508452,65.9157588 C50.8506549,67.5155685 52.9777347,68.3964697 55.2401261,68.3964697 L75.0023814,68.3964697 C75.5679792,68.3964697 76.0996962,68.6166949 76.4994898,69.0167003 C77.4703869,69.9873856 77.5487363,71.5867718 77.129673,72.5987494 C77.0225249,72.8577258 76.8988599,73.0531758 76.7699011,73.2030984 C76.7699011,73.2030984 76.3358031,73.6814531 75.7092198,73.6814531 L47.5919559,73.6814531 C46.1287282,73.6814531 44.7070045,73.259637 43.4803073,72.4619556 L36.6581937,68.0248395 C35.6784029,67.3863979 34.3665801,67.6635853 33.7281385,68.6435878 C33.0899087,69.6235904 33.3670961,70.9354132 34.3470987,71.573643 L41.1713299,76.0120296 C43.0868664,77.2579965 45.3071185,77.9165549 47.5919559,77.9165549 L75.7092198,77.9165549 C77.2497381,77.9165549 78.6261462,77.3348636 79.6671342,76.2989578 L98.1649998,60.6148937 C99.7264818,59.5912696 101.797447,59.8000601 103.123669,61.126494 C103.846177,61.8487906 104.221619,62.8088882 104.180327,63.8297594 C104.139458,64.8510542 103.688631,65.7776945 102.910643,66.4398527 Z" id="Shape" fill="#000000"></path>
                            </g>
                        </g>
                        <text id="A-planting-simulatio" font-family="Raleway-Medium, Raleway" font-size="20" font-weight="400" line-spacing="39" letter-spacing="2.49599981" fill="#000000">
                            <tspan x="260" y="63">A planting simulation game aims to motivate users check the app frequently. When users </tspan>
                            <tspan x="260" y="102">harvest something on the app, they can gain real stuff from the farm. We add weather </tspan>
                            <tspan x="260" y="141">condition in the game in order to create empathy and connection with farmers</tspan>
                        </text>
                    </g>
                    <text id="Game" font-family="Raleway-Bold, Raleway" font-size="24" font-weight="bold" letter-spacing="2.42307687" fill="#000000">
                        <tspan x="68" y="182">Game</tspan>
                    </text>
                </g>
                <g id="Group-12">
                    <text id="Buy-and-sell-product" font-family="Raleway-Medium, Raleway" font-size="20" font-weight="400" line-spacing="39" letter-spacing="2.51999998" fill="#000000">
                        <tspan x="252" y="90">Buy and sell products of farm with pre-order. Pre-order not only allows the farm to share </tspan>
                        <tspan x="252" y="129">the risk with consumers in other form but also meets the core value of users.</tspan>
                        <tspan x="1157.04" y="129" letter-spacing="3.11999989"> </tspan>
                    </text>
                    <g id="Group-10">
                        <g id="Group-5" fill-rule="nonzero">
                            <g id="shop" transform="translate(42.000000, 58.000000)">
                                <rect id="Rectangle-path" fill="#FFEDB1" x="9.48275862" y="32.5254237" width="106.034483" height="65.9067797"></rect>
                                <path d="M9.48275862,48.2975863 C11.7794743,49.1535063 14.2537837,49.6440678 16.8461623,49.6440678 C22.6545797,49.6440678 28.1396541,47.2271372 32.0641082,43.1745134 C35.9888073,47.2271372 41.4736367,49.6440678 47.2820541,49.6440678 C53.0904715,49.6440678 58.5755459,47.2271372 62.5,43.1745134 C66.4246991,47.2271372 71.9095285,49.6440678 77.7179459,49.6440678 C83.5263633,49.6440678 89.0114377,47.2271372 92.9358918,43.1745134 C96.8605909,47.2271372 102.34542,49.6440678 108.153838,49.6440678 C110.746461,49.6440678 113.220526,49.1535063 115.517241,48.2975863 L115.517241,32.5254237 L9.48275862,32.5254237 L9.48275862,48.2975863 Z" id="Shape" fill="#7FC24D"></path>
                                <path d="M123.275862,28.7081795 C123.275862,36.9617977 116.473327,43.6525424 108.081805,43.6525424 C102.006872,43.6525424 96.7647085,40.1459995 94.3334148,35.0785073 C93.740816,33.843267 92.0349238,33.843267 91.442325,35.0785073 C89.0110313,40.1459995 83.768623,43.6525424 77.6939349,43.6525424 C71.6192469,43.6525424 66.3768386,40.1459995 63.9455449,35.0785073 C63.3529461,33.843267 61.6470539,33.843267 61.0544551,35.0785073 C58.6231614,40.1459995 53.3807531,43.6525424 47.3060651,43.6525424 C41.231377,43.6525424 35.9889687,40.1459995 33.557675,35.0785073 C32.9650762,33.843267 31.259184,33.843267 30.6665852,35.0785073 C28.2352915,40.1459995 22.9928832,43.6525424 16.9181952,43.6525424 C8.52667327,43.6525424 1.72413793,36.9617977 1.72413793,28.7081795 L16.2786385,3.65505255 C16.976648,2.45348969 18.2760608,1.71186441 19.6830856,1.71186441 L105.316181,1.71186441 C106.723205,1.71186441 108.022374,2.45348969 108.720628,3.65505255 L123.275862,28.7081795 Z" id="Shape" fill="#7FC24D"></path>
                                <path d="M105.316289,1.71186441 L19.6837109,1.71186441 C18.2766947,1.71186441 16.9775342,2.46430009 16.2792843,3.6833777 L1.72413793,29.1016949 L123.275862,29.1016949 L108.720716,3.6833777 C108.022466,2.46430009 106.723305,1.71186441 105.316289,1.71186441 Z" id="Shape" fill="#7FC24D"></path>
                                <g id="Group" transform="translate(18.965517, 52.211864)" fill="#7FC24D">
                                    <rect id="Rectangle-path" x="62.6241964" y="0.00487837007" width="23.4244107" height="46.9274809"></rect>
                                    <rect id="Rectangle-path" x="0.155854276" y="0.00487837007" width="52.707968" height="37.1512273"></rect>
                                </g>
                                <g id="Group" transform="translate(25.000000, 58.203390)" fill="#FFF6D8">
                                    <polygon id="Shape" points="22.1193627 0.0158958838 0.170098039 0.0158958838 0.170098039 21.9160218"></polygon>
                                    <polygon id="Shape" points="3.50710784 25.5001768 9.99362745 25.5001768 35.5352941 0.0158958838 29.0487745 0.0158958838"></polygon>
                                    <polygon id="Shape" points="41.4294118 5.89663923 21.7821078 25.5001768 41.4294118 25.5001768"></polygon>
                                    <polygon id="Shape" points="74.829902 3.46065617 74.829902 0.0158958838 63.0416667 0.0158958838 63.0416667 15.222632"></polygon>
                                    <polygon id="Shape" points="63.0416667 23.540092 63.0416667 25.5001768 74.829902 25.5001768 74.829902 11.7778717"></polygon>
                                </g>
                                <path d="M119.254883,97.3562398 L117.171875,97.3562398 L117.171875,43.3102473 C121.875488,40.2990017 125,35.0482075 125,29.0815835 C125,28.7645975 124.916748,28.4529553 124.758789,28.1777483 L110.229248,2.88007898 C109.20874,1.10374284 107.297363,0 105.240967,0 L19.7590332,0 C17.7026367,0 15.7912598,1.10349994 14.770752,2.88007898 L0.241210938,28.1777483 C0.0832519531,28.4527124 0,28.7645975 0,29.0815835 C0,35.0482075 3.12451172,40.2990017 7.828125,43.3102473 L7.828125,97.3564827 L5.74511719,97.3564827 C4.73388672,97.3564827 3.9140625,98.1721448 3.9140625,99.1782413 C3.9140625,100.184338 4.73388672,101 5.74511719,101 L119.254883,101 C120.266357,101 121.085938,100.184338 121.085938,99.1782413 C121.085938,98.1721448 120.266113,97.3562398 119.254883,97.3562398 Z M3.78833008,30.9033422 L9.65844727,30.9033422 C10.6696777,30.9033422 11.489502,30.0876801 11.489502,29.0815835 C11.489502,28.0754869 10.6696777,27.2598249 9.65844727,27.2598249 L4.98632813,27.2598249 L17.9504395,4.68774936 C18.3205566,4.0435755 19.0134277,3.6435173 19.7590332,3.6435173 L105.240967,3.6435173 C105.986572,3.6435173 106.679688,4.0435755 107.049561,4.68774936 L120.013428,27.2598249 L115.340332,27.2598249 C114.328857,27.2598249 113.509277,28.0754869 113.509277,29.0815835 C113.509277,30.0876801 114.328857,30.9033422 115.340332,30.9033422 L121.211426,30.9033422 C120.316162,37.3606264 114.733887,42.350059 108.001465,42.350059 C101.269287,42.350059 95.6896973,37.3601406 94.7941895,30.9033422 L107.512939,30.9033422 C108.524414,30.9033422 109.343994,30.0876801 109.343994,29.0815835 C109.343994,28.0754869 108.524414,27.2598249 107.512939,27.2598249 L17.4880371,27.2598249 C16.4768066,27.2598249 15.6569824,28.0754869 15.6569824,29.0815835 C15.6569824,30.0876801 16.4768066,30.9033422 17.4880371,30.9033422 L30.2055664,30.9033422 C29.3100586,37.3601406 23.7302246,42.350059 16.998291,42.350059 C10.2658691,42.350059 4.68359375,37.3603835 3.78833008,30.9033422 Z M90.8745117,30.9033422 C89.9790039,37.3601406 84.3991699,42.350059 77.6672363,42.350059 C70.9350586,42.350059 65.3554688,37.3601406 64.4599609,30.9033422 L90.8745117,30.9033422 Z M60.5400391,30.9033422 C59.6445313,37.3601406 54.0646973,42.350059 47.3327637,42.350059 C40.6008301,42.350059 35.0209961,37.3601406 34.1254883,30.9033422 L60.5400391,30.9033422 Z M11.4902344,45.0768674 C13.2189941,45.6678459 15.0705566,45.9933334 16.998291,45.9933334 C23.6132813,45.9933334 29.357666,42.2147631 32.1655273,36.7128091 C34.9733887,42.2145202 40.7177734,45.9933334 47.3327637,45.9933334 C53.9477539,45.9933334 59.6921387,42.2147631 62.5,36.7128091 C65.3078613,42.2145202 71.0522461,45.9933334 77.6672363,45.9933334 C84.2822266,45.9933334 90.0266113,42.2147631 92.8344727,36.7128091 C95.642334,42.2145202 101.386719,45.9933334 108.001709,45.9933334 C109.929443,45.9933334 111.781006,45.6678459 113.509766,45.0771103 L113.509766,97.3562398 L107.386475,97.3562398 L107.386475,52.4469742 C107.386475,51.4408776 106.566895,50.6252155 105.55542,50.6252155 L82.0708008,50.6252155 C81.0593262,50.6252155 80.2397461,51.4408776 80.2397461,52.4469742 L80.2397461,97.3562398 L11.4902344,97.3562398 L11.4902344,45.0768674 Z M103.724121,87.6207616 L83.9016113,87.6207616 L83.9016113,54.2687328 L103.724121,54.2687328 L103.724121,87.6207616 Z M83.9016113,91.2642789 L103.724121,91.2642789 L103.724121,97.3564827 L83.9016113,97.3564827 L83.9016113,91.2642789 Z" id="Shape" fill="#000000"></path>
                                <path d="M72.2941205,50.5 L19.0851899,50.5 C18.0669148,50.5 17.2413793,51.307428 17.2413793,52.3033681 L17.2413793,88.9254455 C17.2413793,89.9213856 18.0669148,90.7288136 19.0851899,90.7288136 L72.2941205,90.7288136 C73.3126414,90.7288136 74.137931,89.9213856 74.137931,88.9254455 L74.137931,52.3033681 C74.137931,51.307428 73.3126414,50.5 72.2941205,50.5 Z M70.4503099,87.1220774 L20.9290004,87.1220774 L20.9290004,54.1067361 L70.4503099,54.1067361 L70.4503099,87.1220774 Z" id="Shape" fill="#000000"></path>
                            </g>
                            <g id="spinner-circle-(1)" fill="#FC9494">
                                <path d="M222,111.081853 C221.714298,96.1106794 218.468036,81.1867948 212.47302,67.540565 C206.497767,53.882298 197.825316,41.5098538 187.178298,31.2860363 C176.537725,21.0544807 163.918719,12.9659631 150.260875,7.63007785 C136.610335,2.27355755 121.932556,-0.285191154 107.432644,0.0251946938 C92.9305825,0.312366087 78.4929654,3.46738234 65.2900966,9.28475254 C52.0773463,15.0832073 40.1075071,23.4962973 30.2187812,33.8194211 C20.3231814,44.1373861 12.5056876,56.368394 7.3531704,69.5993431 C2.18131998,82.8229839 -0.283450405,97.0315194 0.0258810706,111.081853 C0.313731194,125.134336 3.37396467,139.103418 9.00637529,151.878676 C14.620312,164.662962 22.7626038,176.245685 32.7501438,185.8109 C42.7320987,195.383853 54.5605906,202.940587 67.3471509,207.914929 C80.128126,212.908616 93.8508436,215.281649 107.432644,214.973413 C121.017451,214.684951 134.499577,211.714791 146.832451,206.260254 C159.173059,200.823773 170.353243,192.942466 179.583351,183.277515 C188.821621,173.618153 196.107237,162.178156 200.897579,149.819898 C203.814746,142.328078 205.793608,134.505237 206.836743,126.57879 C207.115571,126.594697 207.396117,126.605874 207.678812,126.605874 C215.587816,126.605874 221.99957,120.190517 221.99957,112.276107 C221.99957,111.873724 221.978519,111.476069 221.946297,111.082283 L222,111.081853 Z M199.244803,149.133782 C193.992183,161.046236 186.381769,171.837518 177.052418,180.74499 C167.728222,189.657621 156.689814,196.683862 144.775827,201.29709 C132.864846,205.927084 120.09676,208.114831 107.433073,207.808314 C94.7672381,207.517274 82.2380244,204.732829 70.7760044,199.641555 C59.3083992,194.566188 48.917869,187.217094 40.3455204,178.211605 C31.7667275,169.210416 25.0117014,158.56057 20.5822465,147.075434 C16.1360362,135.592017 14.0420339,123.293085 14.3474988,111.080993 C14.6387859,98.8663211 17.3295401,86.8068421 22.235881,75.7730982 C27.1267554,64.7346253 34.2065795,54.7326348 42.8773126,46.4841954 C51.5437495,38.2293075 61.7920731,31.7357089 72.8334883,27.4848844 C83.8736146,23.2168641 95.6874992,21.2139726 107.433073,21.5191997 C119.180366,21.8115298 130.755807,24.4115487 141.347403,29.1395591 C151.942865,33.8525232 161.543311,40.6711242 169.457471,49.01844 C177.378075,57.360597 183.601653,67.2207214 187.669791,77.8323062 C191.752967,88.443891 193.662229,99.7880209 193.358483,111.081423 L193.412186,111.081423 C193.379535,111.475209 193.358483,111.872864 193.358483,112.275248 C193.358483,119.666472 198.951368,125.748229 206.132155,126.520754 C204.739304,134.318231 202.433495,141.929993 199.244803,149.133782 Z" id="Shape"></path>
                            </g>
                        </g>
                        <text id="Items" font-family="Raleway-Bold, Raleway" font-size="24" font-weight="bold" letter-spacing="1.93846166" fill="#000000">
                            <tspan x="73" y="182">Items</tspan>
                        </text>
                    </g>
                </g>
                <g id="Group-4" transform="translate(0.000000, 764.000000)">
                    <g id="Group-15">
                        <g id="Group-2" fill-rule="nonzero">
                            <g id="recipe-book" transform="translate(49.046512, 65.395349)">
                                <rect id="Rectangle-path" fill="#7FC24D" x="54.1036312" y="8.39409384" width="52.5153937" height="67.7618392"></rect>
                                <g id="Group" transform="translate(1.479396, 8.242350)" fill="#7FC24D">
                                    <rect id="Rectangle-path" x="52.624235" y="0.151743778" width="6.77626846" height="67.7618392"></rect>
                                    <rect id="Rectangle-path" x="0.108841289" y="0.151743778" width="52.5153937" height="67.7618392"></rect>
                                </g>
                                <path d="M47.3273627,1.61803672 L8.36429457,1.61803672 L8.36429457,69.379876 L47.3273627,69.379876 C51.0698123,69.379876 54.1036312,72.4136948 54.1036312,76.1561444 L54.1036312,8.39409384 C54.1036312,4.65185557 51.0698123,1.61803672 47.3273627,1.61803672 Z" id="Shape" fill="#FFEDB1"></path>
                                <polygon id="Shape" fill="#FFEDB1" points="93.0666993 25.3346593 87.9845508 21.9464194 82.9024023 25.3346593 82.9024023 8.39409384 93.0666993 8.39409384"></polygon>
                                <path d="M106.619025,20.3583933 C107.496095,20.3583933 108.207262,19.6472264 108.207262,18.7701559 L108.207262,8.39409384 C108.207262,7.51702326 107.496095,6.80585639 106.619025,6.80585639 L55.5386455,6.80585639 C54.7942978,2.95076132 51.3965475,0.0295879233 47.3273627,0.0295879233 L8.36429457,0.0295879233 C7.48722399,0.0295879233 6.77605712,0.740754794 6.77605712,1.61782538 L6.77605712,6.80585639 L1.58823745,6.80585639 C0.711166871,6.80585639 0,7.51702326 0,8.39409384 L0,76.1559331 C0,77.0330037 0.711166871,77.7441705 1.58823745,77.7441705 L106.619236,77.7441705 C107.496307,77.7441705 108.207474,77.0330037 108.207474,76.1559331 L108.207474,26.111131 C108.207474,25.2340604 107.496307,24.5228935 106.619236,24.5228935 C105.742166,24.5228935 105.030999,25.2340604 105.030999,26.111131 L105.030999,74.567907 L55.6918686,74.567907 L55.6918686,9.98233129 L81.3143762,9.98233129 L81.3143762,25.3346593 C81.3143762,26.5775634 82.7468543,27.3476948 83.7834884,26.6559714 L87.9847621,23.8550518 L92.1860359,26.6559714 C93.2237266,27.3479062 94.6551481,26.576084 94.6551481,25.3346593 L94.6551481,9.98233129 L105.03121,9.98233129 L105.03121,18.7701559 C105.030999,19.6472264 105.741954,20.3583933 106.619025,20.3583933 Z M9.95253203,3.20606283 L47.3273627,3.20606283 C50.1878809,3.20606283 52.5153937,5.53357568 52.5153937,8.39409384 L52.5153937,69.5994606 C51.0886218,68.4681452 49.2854492,67.7916385 47.3273627,67.7916385 L9.95253203,67.7916385 L9.95253203,3.20606283 Z M3.17626357,9.98233129 L6.77605712,9.98233129 L6.77605712,69.379876 C6.77605712,70.2569466 7.48722399,70.9681134 8.36429457,70.9681134 L47.3273627,70.9681134 C49.634164,70.9681134 51.5930959,72.4819584 52.2657984,74.567907 L3.17626357,74.567907 L3.17626357,9.98233129 Z M91.4784619,22.3669906 L88.8654255,20.624896 C88.5987115,20.4469457 88.2916312,20.358182 87.9845508,20.358182 C87.6774704,20.358182 87.37039,20.4471571 87.1036761,20.624896 L84.4906397,22.3669906 L84.4906397,9.98233129 L91.4786732,9.98233129 L91.4786732,22.3669906 L91.4784619,22.3669906 Z" id="Shape" fill="#000000"></path>
                                <path d="M40.5646202,42.2889621 C40.9069947,42.2889621 41.2557095,42.264235 41.6084398,42.2137242 C43.5301754,41.9391905 45.4261273,40.9501085 46.9473692,39.4288666 C48.4686112,37.9076246 49.4574818,36.0114614 49.7322268,34.0899372 C50.0266267,32.029561 49.4481828,30.1006397 48.1452574,28.7979257 C46.8425435,27.4950004 44.9131995,26.9167678 42.853246,27.2109563 C40.9315104,27.48549 39.0353472,28.474572 37.5143166,29.995814 C34.7383354,32.7717952 33.9375594,36.6393594 35.36412,39.3331285 L31.6806348,43.0166136 L27.5351554,38.8711342 C29.0900008,36.3056499 28.7619976,32.9108584 26.5483982,30.6970477 L21.7570567,25.9057062 C21.136767,25.2854166 20.1312003,25.2854166 19.511122,25.9057062 C18.8908323,26.5259959 18.8908323,27.5315626 19.511122,28.151641 L23.1796018,31.8201208 L21.8320832,33.1676393 L18.1636034,29.4991595 C17.5433137,28.8788698 16.537747,28.8788698 15.9176687,29.4991595 C15.297379,30.1194492 15.297379,31.1250159 15.9176687,31.7450942 L19.5861485,35.4135741 L18.2386299,36.7610926 L14.5699388,33.0928242 C13.9496491,32.4725345 12.9440824,32.4725345 12.3240041,33.0928242 C11.7037144,33.7131138 11.7037144,34.7186805 12.3240041,35.3387589 L17.1153456,40.1301004 C18.4157348,41.4304896 20.1238033,42.0805785 21.8320832,42.0805785 C23.0318735,42.0805785 24.2310298,41.7584929 25.2894321,41.1168576 L29.4349115,45.262337 L20.7443044,53.9529441 C20.1660718,54.5309653 20.1276075,55.4862326 20.6597674,56.1077903 C21.2536393,56.8012044 22.3441656,56.8449523 22.9902391,56.1988788 L31.6808462,47.5082717 L41.0728984,56.9003239 C41.7189718,57.5463974 42.8092868,57.5028609 43.4033701,56.8092354 C43.9357413,56.1876777 43.897277,55.2324104 43.3188331,54.6543892 L33.9267809,45.262337 L37.6098433,41.5792746 C38.4818417,42.0440163 39.4916353,42.2889621 40.5646202,42.2889621 Z M20.7567736,38.7348184 L22.9536769,36.5379151 C22.9540996,36.5374925 22.9543109,36.5372811 22.9547336,36.5368584 C22.9551563,36.5364357 22.9553676,36.5362244 22.9557903,36.5358017 L25.1524823,34.3391098 C25.5415634,35.5475651 25.2600555,36.926785 24.3022521,37.8845883 C23.3444488,38.8423917 21.9652289,39.1236883 20.7567736,38.7348184 Z M39.76004,32.24196 C40.6028731,31.3991269 41.6669816,30.7314965 42.8316891,30.4470298 C43.8670551,30.1942644 45.1031962,30.2479453 45.8991114,31.0442831 C46.6385981,31.7837699 46.7383517,32.9121265 46.5447621,33.8914867 C46.2981257,35.1413652 45.5947785,36.2895879 44.7010118,37.1831432 C43.8074565,38.0766985 42.6590224,38.7800457 41.4093554,39.0268935 C40.4299951,39.2202717 39.3016385,39.1205182 38.5621518,38.3812428 C37.2230869,37.0417552 37.7715202,34.2302685 39.76004,32.24196 Z" id="Shape" fill="#000000"></path>
                                <path d="M64.2679282,37.0869825 L77.9094402,37.0869825 C78.7865108,37.0869825 79.4976777,36.3758156 79.4976777,35.498745 C79.4976777,34.6216744 78.7865108,33.9105075 77.9094402,33.9105075 L64.2679282,33.9105075 C63.3908576,33.9105075 62.6796907,34.6216744 62.6796907,35.498745 C62.6796907,36.3758156 63.3908576,37.0869825 64.2679282,37.0869825 Z" id="Shape" fill="#000000"></path>
                                <path d="M93.0666993,33.9107189 L83.9724284,33.9107189 C83.0953578,33.9107189 82.3841909,34.6218858 82.3841909,35.4989563 C82.3841909,36.3760269 83.0953578,37.0871938 83.9724284,37.0871938 L93.0666993,37.0871938 C93.9437699,37.0871938 94.6549368,36.3760269 94.6549368,35.4989563 C94.6549368,34.6218858 93.9437699,33.9107189 93.0666993,33.9107189 Z" id="Shape" fill="#000000"></path>
                                <path d="M64.2679282,45.5573709 L89.6786707,45.5573709 C90.5557413,45.5573709 91.2669082,44.846204 91.2669082,43.9691334 C91.2669082,43.0920628 90.5557413,42.380896 89.6786707,42.380896 L64.2679282,42.380896 C63.3908576,42.380896 62.6796907,43.0920628 62.6796907,43.9691334 C62.6796907,44.846204 63.3908576,45.5573709 64.2679282,45.5573709 Z" id="Shape" fill="#000000"></path>
                                <path d="M64.2679282,54.0275479 L71.8466634,54.0275479 C72.723734,54.0275479 73.4349009,53.3163811 73.4349009,52.4393105 C73.4349009,51.5622399 72.723734,50.851073 71.8466634,50.851073 L64.2679282,50.851073 C63.3908576,50.851073 62.6796907,51.5622399 62.6796907,52.4393105 C62.6796907,53.3163811 63.3908576,54.0275479 64.2679282,54.0275479 Z" id="Shape" fill="#000000"></path>
                                <path d="M93.0666993,50.8512844 L77.9094402,50.8512844 C77.0323696,50.8512844 76.3212028,51.5624512 76.3212028,52.4395218 C76.3212028,53.3165924 77.0323696,54.0277593 77.9094402,54.0277593 L93.0666993,54.0277593 C93.9437699,54.0277593 94.6549368,53.3165924 94.6549368,52.4395218 C94.6549368,51.5624512 93.9437699,50.8512844 93.0666993,50.8512844 Z" id="Shape" fill="#000000"></path>
                                <path d="M64.2679282,62.497725 L80.9409343,62.497725 C81.8180049,62.497725 82.5291718,61.7865581 82.5291718,60.9094876 C82.5291718,60.032417 81.8180049,59.3212501 80.9409343,59.3212501 L64.2679282,59.3212501 C63.3908576,59.3212501 62.6796907,60.032417 62.6796907,60.9094876 C62.6796907,61.7865581 63.3908576,62.497725 64.2679282,62.497725 Z" id="Shape" fill="#000000"></path>
                                <path d="M93.0666993,59.3214614 L87.0039225,59.3214614 C86.1268519,59.3214614 85.415685,60.0326283 85.415685,60.9096989 C85.415685,61.7867695 86.1268519,62.4979364 87.0039225,62.4979364 L93.0666993,62.4979364 C93.9437699,62.4979364 94.6549368,61.7867695 94.6549368,60.9096989 C94.6549368,60.0326283 93.9437699,59.3214614 93.0666993,59.3214614 Z" id="Shape" fill="#000000"></path>
                                <path d="M18.5285916,13.3703599 L42.2452142,13.3703599 C43.1222848,13.3703599 43.8334517,12.659193 43.8334517,11.7821224 C43.8334517,10.9050518 43.1222848,10.1938849 42.2452142,10.1938849 L18.5285916,10.1938849 C17.651521,10.1938849 16.9403541,10.9050518 16.9403541,11.7821224 C16.9405655,12.6594043 17.651521,13.3703599 18.5285916,13.3703599 Z" id="Shape" fill="#000000"></path>
                                <path d="M18.5285916,20.1466283 L26.9987687,20.1466283 C27.8758392,20.1466283 28.5870061,19.4354614 28.5870061,18.5583909 C28.5870061,17.6813203 27.8758392,16.9701534 26.9987687,16.9701534 L18.5285916,16.9701534 C17.651521,16.9701534 16.9403541,17.6813203 16.9403541,18.5583909 C16.9403541,19.4354614 17.651521,20.1466283 18.5285916,20.1466283 Z" id="Shape" fill="#000000"></path>
                                <path d="M42.2452142,16.9701534 L33.7750371,16.9701534 C32.8979665,16.9701534 32.1867997,17.6813203 32.1867997,18.5583909 C32.1867997,19.4354614 32.8979665,20.1466283 33.7750371,20.1466283 L42.2452142,20.1466283 C43.1222848,20.1466283 43.8334517,19.4354614 43.8334517,18.5583909 C43.8334517,17.6813203 43.1224961,16.9701534 42.2452142,16.9701534 Z" id="Shape" fill="#000000"></path>
                            </g>
                            <g id="spinner-circle-(1)" fill="#FC9494">
                                <path d="M222,111.141929 C221.714298,96.1626592 218.468036,81.2307033 212.47302,67.5770931 C206.497767,53.9114393 197.825316,41.5323037 187.178298,31.3029568 C176.537725,21.0658677 163.918719,12.9729755 150.260875,7.63420445 C136.610335,2.27478716 121.932556,-0.285345394 107.432644,0.0252083199 C92.9305825,0.312535025 78.4929654,3.46925761 65.2900966,9.28977404 C52.0773463,15.0913648 40.1075071,23.5090049 30.2187812,33.8377117 C20.3231814,44.161257 12.5056876,56.3988799 7.3531704,69.6369847 C2.18131998,82.8677773 -0.283450405,97.0839973 0.0258810706,111.141929 C0.313731194,125.202012 3.37396467,139.17865 9.00637529,151.960817 C14.620312,164.752017 22.7626038,176.341004 32.7501438,185.911392 C42.7320987,195.489523 54.5605906,203.050344 67.3471509,208.027376 C80.128126,213.023764 93.8508436,215.39808 107.432644,215.089677 C121.017451,214.80106 134.499577,211.829293 146.832451,206.371806 C159.173059,200.932385 170.353243,193.046815 179.583351,183.376637 C188.821621,173.712051 196.107237,162.265867 200.897579,149.900926 C203.814746,142.405054 205.793608,134.577982 206.836743,126.647248 C207.115571,126.663163 207.396117,126.674347 207.678812,126.674347 C215.587816,126.674347 221.99957,120.25552 221.99957,112.33683 C221.99957,111.934229 221.978519,111.536358 221.946297,111.14236 L222,111.141929 Z M199.244803,149.214438 C193.992183,161.133335 186.381769,171.930453 177.052418,180.842743 C167.728222,189.760194 156.689814,196.790235 144.775827,201.405958 C132.864846,206.038456 120.09676,208.227386 107.433073,207.920704 C94.7672381,207.629506 82.2380244,204.843555 70.7760044,199.749528 C59.3083992,194.671416 48.917869,187.318347 40.3455204,178.307988 C31.7667275,169.30193 25.0117014,158.646325 20.5822465,147.154977 C16.1360362,135.66535 14.0420339,123.359766 14.3474988,111.141069 C14.6387859,98.9197912 17.3295401,86.8537901 22.235881,75.8140787 C27.1267554,64.7696359 34.2065795,54.762236 42.8773126,46.5093356 C51.5437495,38.2499832 61.7920731,31.7528726 72.8334883,27.4997492 C83.8736146,23.2294205 95.6874992,21.2254458 107.433073,21.530838 C119.180366,21.8233262 130.755807,24.4247512 141.347403,29.1553188 C151.942865,33.8708317 161.543311,40.6931205 169.457471,49.0449508 C177.378075,57.3916195 183.601653,67.2570765 187.669791,77.8744005 C191.752967,88.4917244 193.662229,99.8419895 193.358483,111.141499 L193.412186,111.141499 C193.379535,111.535498 193.358483,111.933368 193.358483,112.33597 C193.358483,119.731191 198.951368,125.816238 206.132155,126.589181 C204.739304,134.390875 202.433495,142.006753 199.244803,149.214438 Z" id="Shape"></path>
                            </g>
                        </g>
                        <text id="Users-have-to-cook-a" font-family="Raleway-Medium, Raleway" font-size="20" font-weight="400" line-spacing="39" letter-spacing="3.11999989" fill="#000000">
                            <tspan x="258" y="77">Users have to cook almost everything that buy from the farm so recipe is a useful </tspan>
                            <tspan x="258" y="116">tool to attract users to come back after purchasing. We also mark out the ingredients </tspan>
                            <tspan x="258" y="155">that users could buy directly from the Farm</tspan>
                        </text>
                    </g>
                    <text id="Recipes" font-family="Raleway-Bold, Raleway" font-size="24" font-weight="bold" letter-spacing="3.028846" fill="#000000">
                        <tspan x="53" y="177">Recipes</tspan>
                    </text>
                </g>
                <g id="Group-19" transform="translate(0.000000, 1019.000000)">
                    <g id="Group-16">
                        <g id="Group-6" fill-rule="nonzero">
                            <g id="email" transform="translate(49.906977, 61.093023)">
                                <path d="M104.54663,1.65929973 L14.0345648,1.65929973 C12.8178001,1.65929973 11.8218895,2.65521017 11.8218895,3.8719748 L11.8218895,12.011311 L94.3840399,12.011311 C95.6008045,12.011311 96.5967152,13.0063945 96.5967152,14.2239862 L96.5967152,67.3075126 L104.54663,67.3075126 C105.763394,67.3075126 106.759305,66.3116019 106.759305,65.0948373 L106.759305,3.8719748 C106.759305,2.65521017 105.763394,1.65929973 104.54663,1.65929973 Z" id="Shape" fill="#FFEDB1"></path>
                                <path d="M96.5967152,75.4460214 C96.5967152,76.662786 95.6008045,77.6586967 94.3840399,77.6586967 L3.8719748,77.6586967 C2.65521017,77.6586967 1.65929973,76.662786 1.65929973,75.4460214 L1.65929973,14.2239862 C1.65929973,13.0063945 2.65521017,12.011311 3.8719748,12.011311 L94.3840399,12.011311 C95.6008045,12.011311 96.5967152,13.0063945 96.5967152,14.2239862 L96.5967152,75.4460214 Z" id="Shape" fill="#7FC24D"></path>
                                <path d="M47.5638322,57.9150164 C48.4240873,58.7752714 49.8319276,58.7752714 50.6930098,57.9150164 L95.0317127,13.5754863 C95.6611878,12.9460113 95.6719411,12.4017344 95.1574423,12.1535839 C94.9159092,12.0625955 94.6561782,12.011311 94.3840399,12.011311 L3.8719748,12.011311 C3.26400604,12.011311 2.7106305,12.2602888 2.30945392,12.6614654 L47.5638322,57.9150164 Z" id="Shape" fill="#7FC24D"></path>
                                <path d="M9.51409,75.4460214 L9.51409,19.8661012 L2.31193548,12.6631196 C1.90993157,13.0634691 1.65929973,13.6151904 1.65929973,14.2239862 L1.65929973,75.4460214 C1.65929973,76.662786 2.65521017,77.6586967 3.8719748,77.6586967 L11.7267651,77.6586967 C10.5100004,77.6586967 9.51409,76.662786 9.51409,75.4460214 Z" id="Shape" fill="#83D461"></path>
                                <path d="M47.5638322,57.9150164 C48.4240873,58.7752714 49.8319276,58.7752714 50.6930098,57.9150164 L53.7378165,54.8702099 L12.4430929,13.5754863 C11.5820106,12.7152313 11.8740011,12.011311 13.0907656,12.011311 L3.8719748,12.011311 C3.26400604,12.011311 2.7106305,12.2602888 2.30945392,12.6614654 L47.5638322,57.9150164 Z" id="Shape" fill="#83D461"></path>
                                <path d="M88.9478898,62.6704069 C88.9478898,65.9699812 86.2728276,68.6442165 82.9732532,68.6442165 C79.6736787,68.6442165 76.9994436,65.9699812 76.9994436,62.6704069 C76.9994436,59.3708326 79.6736787,56.6965975 82.9732532,56.6965975 C86.2728276,56.6965975 88.9478898,59.3708326 88.9478898,62.6704069 Z" id="Shape" fill="#FFEDB1"></path>
                                <path d="M104.54663,-2.24032679e-14 L35.6236576,-2.24032679e-14 C34.7071551,-2.24032679e-14 33.9635308,0.742797036 33.9635308,1.65929973 C33.9635308,2.57580201 34.7071551,3.31859926 35.6236576,3.31859926 L104.54663,3.31859926 C104.846065,3.31859926 105.100005,3.57171287 105.100005,3.8719748 L105.100005,65.0948373 C105.100005,65.3942721 104.846065,65.6473857 104.54663,65.6473857 L98.2560147,65.6473857 L98.2560147,14.2239862 C98.2560147,12.0890649 96.5189615,10.3511841 94.3840399,10.3511841 L13.4820163,10.3511841 L13.4820163,3.8719748 C13.4820163,3.57171287 13.7351297,3.31859926 14.0345648,3.31859926 L28.3214158,3.31859926 C29.2379183,3.31859926 29.9807153,2.57580201 29.9807153,1.65929973 C29.9807153,0.742797036 29.2379183,-2.24032679e-14 28.3214158,-2.24032679e-14 L14.0345648,-2.24032679e-14 C11.8996432,-2.24032679e-14 10.16259,1.73705345 10.16259,3.8719748 L10.16259,10.3511841 L3.8719748,10.3511841 C1.73705345,10.3511841 0,12.0890649 0,14.2239862 L0,75.4460214 C0,77.580943 1.73705345,79.3179964 3.8719748,79.3179964 L70.361418,79.3179964 C71.2779204,79.3179964 72.0207175,78.5751992 72.0207175,77.6586967 C72.0207175,76.7421942 71.2779204,75.9993972 70.361418,75.9993972 L3.8719748,75.9993972 C3.57253998,75.9993972 3.31859926,75.7462835 3.31859926,75.4460214 L3.31859926,16.0172871 L46.3900803,59.0879409 C47.1196427,59.8175035 48.0915655,60.2195072 49.1280073,60.2195072 C50.1644494,60.2195072 51.136372,59.8175035 51.8659346,59.0887682 L71.7560236,39.198679 C72.4036965,38.550179 72.4036965,37.4996754 71.7560236,36.8511754 C71.1075237,36.2035026 70.05702,36.2035026 69.4093472,36.8511754 L49.5192579,56.7420918 C49.3802936,56.8802287 49.21486,56.9009081 49.1280073,56.9009081 C49.0411547,56.9009081 48.8757211,56.8802287 48.7367568,56.7412645 L5.66610281,13.6706107 L92.5899119,13.6706107 L73.9703531,32.2901692 C73.3218532,32.9386692 73.3218532,33.9891731 73.9703531,34.6368457 C74.293776,34.9610957 74.7189406,35.1232209 75.1432779,35.1232209 C75.5684425,35.1232209 75.9927798,34.9610957 76.3170298,34.6368457 L94.9365883,16.0172871 L94.9365883,75.4460214 C94.9365883,75.7462835 94.6834749,75.9993972 94.3832128,75.9993972 L77.2202976,75.9993972 C76.3037951,75.9993972 75.5609978,76.7421942 75.5609978,77.6586967 C75.5609978,78.5751992 76.3037951,79.3179964 77.2202976,79.3179964 L94.3840399,79.3179964 C96.5189615,79.3179964 98.2560147,77.580943 98.2560147,75.4460214 L98.2560147,68.9668121 L104.54663,68.9668121 C106.681551,68.9668121 108.418605,67.2297586 108.418605,65.0948373 L108.418605,3.8719748 C108.418605,1.73705345 106.681551,-2.84217094e-14 104.54663,-2.24032679e-14 Z" id="Shape" fill="#141313"></path>
                                <g id="Group" transform="translate(9.105469, 54.421057)" fill="#000000">
                                    <path d="M17.0032718,12.5638594 L1.73622633,12.5638594 C0.819723848,12.5638594 0.0769265998,13.3066566 0.0769265998,14.2231591 C0.0769265998,15.1404887 0.819723848,15.8832858 1.73622633,15.8832858 L17.0032718,15.8832858 C17.9197743,15.8832858 18.6625713,15.1404887 18.6625713,14.2231591 C18.6625713,13.3066566 17.9197743,12.5638594 17.0032718,12.5638594 Z" id="Shape"></path>
                                    <path d="M17.0032718,6.36836887 L1.73622633,6.36836887 C0.819723848,6.36836887 0.0769265998,7.1111659 0.0769265998,8.02766839 C0.0769265998,8.9449982 0.819723848,9.68779524 1.73622633,9.68779524 L17.0032718,9.68779524 C17.9197743,9.68779524 18.6625713,8.9449982 18.6625713,8.02766839 C18.6625713,7.1111659 17.9197743,6.36836887 17.0032718,6.36836887 Z" id="Shape"></path>
                                    <path d="M1.73622633,3.49230471 L10.3652461,3.49230471 C11.2817486,3.49230471 12.0253728,2.74950746 12.0253728,1.83300497 C12.0253728,0.915675371 11.2817486,0.172878124 10.3652461,0.172878124 L1.73622633,0.172878124 C0.819723848,0.172878124 0.0769265998,0.915675371 0.0769265998,1.83300497 C0.0769265998,2.74950746 0.819723848,3.49230471 1.73622633,3.49230471 Z" id="Shape"></path>
                                </g>
                            </g>
                            <g id="spinner-circle-(1)" fill="#FC9494">
                                <path d="M222,111.141929 C221.714298,96.1626592 218.468036,81.2307033 212.47302,67.5770931 C206.497767,53.9114393 197.825316,41.5323037 187.178298,31.3029568 C176.537725,21.0658677 163.918719,12.9729755 150.260875,7.63420445 C136.610335,2.27478716 121.932556,-0.285345394 107.432644,0.0252083199 C92.9305825,0.312535025 78.4929654,3.46925761 65.2900966,9.28977404 C52.0773463,15.0913648 40.1075071,23.5090049 30.2187812,33.8377117 C20.3231814,44.161257 12.5056876,56.3988799 7.3531704,69.6369847 C2.18131998,82.8677773 -0.283450405,97.0839973 0.0258810706,111.141929 C0.313731194,125.202012 3.37396467,139.17865 9.00637529,151.960817 C14.620312,164.752017 22.7626038,176.341004 32.7501438,185.911392 C42.7320987,195.489523 54.5605906,203.050344 67.3471509,208.027376 C80.128126,213.023764 93.8508436,215.39808 107.432644,215.089677 C121.017451,214.80106 134.499577,211.829293 146.832451,206.371806 C159.173059,200.932385 170.353243,193.046815 179.583351,183.376637 C188.821621,173.712051 196.107237,162.265867 200.897579,149.900926 C203.814746,142.405054 205.793608,134.577982 206.836743,126.647248 C207.115571,126.663163 207.396117,126.674347 207.678812,126.674347 C215.587816,126.674347 221.99957,120.25552 221.99957,112.33683 C221.99957,111.934229 221.978519,111.536358 221.946297,111.14236 L222,111.141929 Z M199.244803,149.214438 C193.992183,161.133335 186.381769,171.930453 177.052418,180.842743 C167.728222,189.760194 156.689814,196.790235 144.775827,201.405958 C132.864846,206.038456 120.09676,208.227386 107.433073,207.920704 C94.7672381,207.629506 82.2380244,204.843555 70.7760044,199.749528 C59.3083992,194.671416 48.917869,187.318347 40.3455204,178.307988 C31.7667275,169.30193 25.0117014,158.646325 20.5822465,147.154977 C16.1360362,135.66535 14.0420339,123.359766 14.3474988,111.141069 C14.6387859,98.9197912 17.3295401,86.8537901 22.235881,75.8140787 C27.1267554,64.7696359 34.2065795,54.762236 42.8773126,46.5093356 C51.5437495,38.2499832 61.7920731,31.7528726 72.8334883,27.4997492 C83.8736146,23.2294205 95.6874992,21.2254458 107.433073,21.530838 C119.180366,21.8233262 130.755807,24.4247512 141.347403,29.1553188 C151.942865,33.8708317 161.543311,40.6931205 169.457471,49.0449508 C177.378075,57.3916195 183.601653,67.2570765 187.669791,77.8744005 C191.752967,88.4917244 193.662229,99.8419895 193.358483,111.141499 L193.412186,111.141499 C193.379535,111.535498 193.358483,111.933368 193.358483,112.33597 C193.358483,119.731191 198.951368,125.816238 206.132155,126.589181 C204.739304,134.390875 202.433495,142.006753 199.244803,149.214438 Z" id="Shape"></path>
                            </g>
                        </g>
                        <text id="User-and-can-send-me" font-family="Raleway-Medium, Raleway" font-size="20" font-weight="400" line-spacing="39" letter-spacing="3.11999989" fill="#000000">
                            <tspan x="256" y="89">User and can send message directly to QJ Farm, vice versa. It helps both side to </tspan>
                            <tspan x="256" y="128">communicate efficiently and easily. </tspan>
                        </text>
                    </g>
                    <text id="Messages" font-family="Raleway-Bold, Raleway" font-size="24" font-weight="bold" letter-spacing="3.028846" fill="#000000">
                        <tspan x="39" y="171">Messages</tspan>
                    </text>
                </g>
                <g id="Group-18" transform="translate(0.000000, 1274.000000)">
                    <g id="Group-17">
                        <g id="Group-9" fill-rule="nonzero">
                            <g id="Group-8" transform="translate(113.581395, 71.418605)" stroke="#000000">
                                <g id="Group-7">
                                    <path d="M53.0620155,8.6631862 C52.2699792,8.6631862 51.627907,8.01674611 51.627907,7.21932184 L51.627907,0 L18.6434109,0 C17.0593383,0 15.7751938,1.29288019 15.7751938,2.88772873 L15.7751938,60.6423034 C15.7751938,62.237152 17.0593383,63.5300322 18.6434109,63.5300322 L57.3643411,63.5300322 C58.9484136,63.5300322 60.2325581,62.237152 60.2325581,60.6423034 L60.2325581,8.6631862 L53.0620155,8.6631862 Z" id="Shape" stroke-width="3" fill="#7FC24D"></path>
                                    <path d="M51.627907,7.21932184 C51.627907,8.01674611 52.2699792,8.6631862 53.0620155,8.6631862 L60.2325581,8.6631862 L51.627907,0 L51.627907,7.21932184 Z" id="Shape" stroke-width="2" fill="#898890"></path>
                                    <path d="M15.7751938,25.9895586 L15.7751938,33.2088805 L18.6434109,36.0966092 L27.248062,36.0966092 C27.248062,36.0966092 28.6821705,36.0966092 28.6821705,38.9843379 C28.4739833,42.0830665 26.0235277,44.5501919 22.9457364,44.7597954 L15.7751938,44.7597954 L15.8067442,60.6769562 C13.155255,62.3182374 9.8089539,62.3048103 7.17054264,60.6423034 L5.73643411,62.0861678 L0,56.3107103 L0,38.9843379 L12.9069767,25.9895586 L15.7751938,25.9895586 Z" id="Shape" stroke-width="3" fill="#FFDAAA"></path>
                                    <rect id="Rectangle-path" fill="#FFEDB1" x="20.0775194" y="7.21932184" width="2.86821705" height="2.88772873"></rect>
                                    <rect id="Rectangle-path" fill="#FFEDB1" x="25.8139535" y="7.21932184" width="2.86821705" height="2.88772873"></rect>
                                    <rect id="Rectangle-path" fill="#FFEDB1" x="20.0775194" y="15.882508" width="32.9844961" height="2.88772873"></rect>
                                    <rect id="Rectangle-path" fill="#FFEDB1" x="20.0775194" y="24.5456942" width="32.9844961" height="2.88772873"></rect>
                                    <rect id="Rectangle-path" fill="#FFEDB1" x="31.5503876" y="7.21932184" width="14.3410853" height="2.88772873"></rect>
                                    <rect id="Rectangle-path" fill="#FFEDB1" x="35.8527132" y="33.2088805" width="11.4728682" height="2.88772873"></rect>
                                    <rect id="Rectangle-path" fill="#FFEDB1" x="50.1937984" y="33.2088805" width="2.86821705" height="2.88772873"></rect>
                                    <rect id="Rectangle-path" fill="#FFEDB1" x="35.8527132" y="41.8720667" width="11.4728682" height="2.88772873"></rect>
                                    <rect id="Rectangle-path" fill="#FFEDB1" x="50.1937984" y="41.8720667" width="2.86821705" height="2.88772873"></rect>
                                    <rect id="Rectangle-path" fill="#FFEDB1" x="20.0775194" y="49.0913885" width="32.9844961" height="2.88772873"></rect>
                                </g>
                            </g>
                            <g id="shopping-cart" transform="translate(26.674419, 72.279070)">
                                <path d="M60.6988531,48.7261435 C62.2356843,48.7261435 63.4832041,49.9736634 63.4832041,51.5104946 C63.4832041,53.0473258 62.2356843,54.2948456 60.6988531,54.2948456 C59.0396626,54.2948456 25.4517965,54.2948456 23.666984,54.2948456 C22.3748711,54.2948456 21.2529733,53.4051585 20.9565923,52.1483937 L10.3243954,6.96087765 L4.17652659,6.96087765 C2.63969539,6.96087765 1.39217553,5.71335779 1.39217553,4.17652659 C1.39217553,2.63969539 2.63969539,1.39217553 4.17652659,1.39217553 L12.5295798,1.39217553 C13.8216927,1.39217553 14.9435904,2.2818627 15.2399715,3.53917123 C16.1454294,7.38668762 24.9183105,44.6725199 25.8721683,48.7261435 L60.6988531,48.7261435 Z" id="Shape" fill="#7FC24D"></path>
                                <path d="M32.0200372,54.2948456 C35.0953312,54.2948456 37.5887393,56.7882537 37.5887393,59.8635478 C37.5887393,62.9388418 35.0953312,65.4322499 32.0200372,65.4322499 C28.9447431,65.4322499 26.4513351,62.9388418 26.4513351,59.8635478 C26.4513351,56.7882537 28.9447431,54.2948456 32.0200372,54.2948456 Z" id="Shape" fill="#FFEDB1"></path>
                                <path d="M55.130151,54.2948456 C58.205445,54.2948456 60.6988531,56.7882537 60.6988531,59.8635478 C60.6988531,62.9388418 58.205445,65.4322499 55.130151,65.4322499 C52.0548569,65.4322499 49.5614488,62.9388418 49.5614488,59.8635478 C49.5614488,56.7882537 52.0548569,54.2948456 55.130151,54.2948456 Z" id="Shape" fill="#FFEDB1"></path>
                                <path d="M55.130151,61.2557233 C55.8985666,61.2557233 56.5223265,60.6319634 56.5223265,59.8635478 C56.5223265,59.0951322 55.8985666,58.4713722 55.130151,58.4713722 C54.3617354,58.4713722 53.7379754,59.0951322 53.7379754,59.8635478 C53.7379754,60.6319634 54.3617354,61.2557233 55.130151,61.2557233 Z" id="Shape" fill="#000000"></path>
                                <path d="M32.0200372,61.2557233 C32.7884528,61.2557233 33.4122127,60.6319634 33.4122127,59.8635478 C33.4122127,59.0951322 32.7884528,58.4713722 32.0200372,58.4713722 C31.2516216,58.4713722 30.6278616,59.0951322 30.6278616,59.8635478 C30.6278616,60.6319634 31.2516216,61.2557233 32.0200372,61.2557233 Z" id="Shape" fill="#000000"></path>
                                <path d="M70.9846374,17.2417676 C70.7208854,16.9035125 70.3157406,16.7061064 69.8872116,16.7061064 L19.7683487,16.7061064 L16.5951674,3.21940591 C16.1481486,1.32365432 14.4759064,0 12.5295798,0 L4.17652659,0 C1.87345493,0 0,1.87345493 0,4.17652659 C0,6.47959825 1.87345493,8.35305318 4.17652659,8.35305318 L9.22153139,8.35305318 L19.6013964,52.4676153 C20.0484152,54.3633669 21.7206573,55.6870212 23.666984,55.6870212 L26.4551418,55.6870212 C25.5790501,56.8513367 25.0591595,58.2978941 25.0591595,59.8635478 C25.0591595,63.7018191 28.1817658,66.8244254 32.0200372,66.8244254 C35.8583085,66.8244254 38.9809148,63.7018191 38.9809148,59.8635478 C38.9809148,58.2978941 38.4610243,56.8513367 37.5849325,55.6870212 L49.5652556,55.6870212 C48.6891639,56.8513367 48.1692733,58.2978941 48.1692733,59.8635478 C48.1692733,63.7018191 51.2918796,66.8244254 55.130151,66.8244254 C58.9684223,66.8244254 62.0910286,63.7018191 62.0910286,59.8635478 C62.0910286,58.2978941 61.5711381,56.8513367 60.6950463,55.6870212 L60.6988531,55.6870212 C63.0019247,55.6870212 64.8753797,53.8135662 64.8753797,51.5104946 C64.8753797,49.2074229 63.0019247,47.333968 60.6988531,47.333968 L26.9750324,47.333968 L25.6644296,41.7652659 L33.8255148,41.7652659 L33.8282339,41.7652659 L33.8304091,41.7652659 L54.1550843,41.7652659 L54.1578034,41.7652659 L54.1605224,41.7652659 L62.1443228,41.7652659 C64.0634586,41.7652659 65.7302624,40.4644519 66.1968588,38.6013295 L71.2380569,18.4359932 C71.3419263,18.019972 71.2483895,17.579479 70.9846374,17.2417676 Z M66.0157672,27.8435106 L57.1248775,27.8435106 L58.1690091,19.4904574 L68.1040305,19.4904574 L66.0157672,27.8435106 Z M49.5614488,30.6278616 L53.9707298,30.6278616 L52.9265981,38.9809148 L45.3849223,38.9809148 L45.3849223,34.8043882 C45.3849223,34.0354287 44.7617062,33.4122127 43.9927467,33.4122127 C43.2237872,33.4122127 42.6005712,34.0354287 42.6005712,34.8043882 L42.6005712,38.9809148 L35.0588953,38.9809148 L34.0147637,30.6278616 L38.4240446,30.6278616 C39.1930041,30.6278616 39.8162201,30.0046456 39.8162201,29.2356861 C39.8162201,28.4667266 39.1930041,27.8435106 38.4240446,27.8435106 L33.6667198,27.8435106 L32.6225881,19.4904574 L42.6005712,19.4904574 L42.6005712,23.666984 C42.6005712,24.4359435 43.2237872,25.0591595 43.9927467,25.0591595 C44.7617062,25.0591595 45.3849223,24.4359435 45.3849223,23.666984 L45.3849223,19.4904574 L55.3629053,19.4904574 L54.3187737,27.8435106 L49.5614488,27.8435106 C48.7924893,27.8435106 48.1692733,28.4667266 48.1692733,29.2356861 C48.1692733,30.0046456 48.7924893,30.6278616 49.5614488,30.6278616 Z M29.8164843,19.4904574 L30.860616,27.8435106 L22.3890103,27.8435106 L20.4236501,19.4904574 L29.8164843,19.4904574 Z M36.1965638,59.8635478 C36.1965638,62.1666194 34.3231088,64.0400743 32.0200372,64.0400743 C29.7169655,64.0400743 27.8435106,62.1666194 27.8435106,59.8635478 C27.8435106,57.5604761 29.7169655,55.6870212 32.0200372,55.6870212 C34.3231088,55.6870212 36.1965638,57.5604761 36.1965638,59.8635478 Z M59.3066775,59.8635478 C59.3066775,62.1666194 57.4332226,64.0400743 55.130151,64.0400743 C52.8270793,64.0400743 50.9536244,62.1666194 50.9536244,59.8635478 C50.9536244,57.5604761 52.8270793,55.6870212 55.130151,55.6870212 C57.4332226,55.6870212 59.3066775,57.5604761 59.3066775,59.8635478 Z M60.6988531,50.1183191 C61.4667249,50.1183191 62.0910286,50.7426228 62.0910286,51.5104946 C62.0910286,52.2783664 61.4667249,52.9026701 60.6988531,52.9026701 L23.666984,52.9026701 C23.0182085,52.9026701 22.4607945,52.4610894 22.3117881,51.8291722 L11.4272595,5.56870212 L4.17652659,5.56870212 C3.40865477,5.56870212 2.78435106,4.9443984 2.78435106,4.17652659 C2.78435106,3.40865477 3.40865477,2.78435106 4.17652659,2.78435106 L12.5295798,2.78435106 C13.1783553,2.78435106 13.7357693,3.22593173 13.8847756,3.85784898 L22.5423672,40.6531569 C22.542911,40.6542445 22.542911,40.6553322 22.5434549,40.6564198 L24.769848,50.1183191 L60.6988531,50.1183191 Z M23.043768,30.6278616 L31.2086599,30.6278616 L32.2527915,38.9809148 L25.0091282,38.9809148 L23.043768,30.6278616 Z M63.495712,37.925363 C63.3401798,38.5469475 62.7843973,38.9809148 62.143779,38.9809148 L55.7327019,38.9809148 L56.7768336,30.6278616 L65.3202232,30.6278616 L63.495712,37.925363 Z" id="Shape" fill="#000000"></path>
                                <path d="M43.9927467,27.8435106 C43.2243311,27.8435106 42.6005712,28.4672705 42.6005712,29.2356861 C42.6005712,30.0041017 43.2243311,30.6278616 43.9927467,30.6278616 C44.7611623,30.6278616 45.3849223,30.0041017 45.3849223,29.2356861 C45.3849223,28.4672705 44.7611623,27.8435106 43.9927467,27.8435106 Z" id="Shape" fill="#000000"></path>
                            </g>
                            <g id="spinner-circle-(1)" fill="#FC9494">
                                <path d="M222,111.141929 C221.714298,96.1626592 218.468036,81.2307033 212.47302,67.5770931 C206.497767,53.9114393 197.825316,41.5323037 187.178298,31.3029568 C176.537725,21.0658677 163.918719,12.9729755 150.260875,7.63420445 C136.610335,2.27478716 121.932556,-0.285345394 107.432644,0.0252083199 C92.9305825,0.312535025 78.4929654,3.46925761 65.2900966,9.28977404 C52.0773463,15.0913648 40.1075071,23.5090049 30.2187812,33.8377117 C20.3231814,44.161257 12.5056876,56.3988799 7.3531704,69.6369847 C2.18131998,82.8677773 -0.283450405,97.0839973 0.0258810706,111.141929 C0.313731194,125.202012 3.37396467,139.17865 9.00637529,151.960817 C14.620312,164.752017 22.7626038,176.341004 32.7501438,185.911392 C42.7320987,195.489523 54.5605906,203.050344 67.3471509,208.027376 C80.128126,213.023764 93.8508436,215.39808 107.432644,215.089677 C121.017451,214.80106 134.499577,211.829293 146.832451,206.371806 C159.173059,200.932385 170.353243,193.046815 179.583351,183.376637 C188.821621,173.712051 196.107237,162.265867 200.897579,149.900926 C203.814746,142.405054 205.793608,134.577982 206.836743,126.647248 C207.115571,126.663163 207.396117,126.674347 207.678812,126.674347 C215.587816,126.674347 221.99957,120.25552 221.99957,112.33683 C221.99957,111.934229 221.978519,111.536358 221.946297,111.14236 L222,111.141929 Z M199.244803,149.214438 C193.992183,161.133335 186.381769,171.930453 177.052418,180.842743 C167.728222,189.760194 156.689814,196.790235 144.775827,201.405958 C132.864846,206.038456 120.09676,208.227386 107.433073,207.920704 C94.7672381,207.629506 82.2380244,204.843555 70.7760044,199.749528 C59.3083992,194.671416 48.917869,187.318347 40.3455204,178.307988 C31.7667275,169.30193 25.0117014,158.646325 20.5822465,147.154977 C16.1360362,135.66535 14.0420339,123.359766 14.3474988,111.141069 C14.6387859,98.9197912 17.3295401,86.8537901 22.235881,75.8140787 C27.1267554,64.7696359 34.2065795,54.762236 42.8773126,46.5093356 C51.5437495,38.2499832 61.7920731,31.7528726 72.8334883,27.4997492 C83.8736146,23.2294205 95.6874992,21.2254458 107.433073,21.530838 C119.180366,21.8233262 130.755807,24.4247512 141.347403,29.1553188 C151.942865,33.8708317 161.543311,40.6931205 169.457471,49.0449508 C177.378075,57.3916195 183.601653,67.2570765 187.669791,77.8744005 C191.752967,88.4917244 193.662229,99.8419895 193.358483,111.141499 L193.412186,111.141499 C193.379535,111.535498 193.358483,111.933368 193.358483,112.33597 C193.358483,119.731191 198.951368,125.816238 206.132155,126.589181 C204.739304,134.390875 202.433495,142.006753 199.244803,149.214438 Z" id="Shape"></path>
                            </g>
                        </g>
                        <text id="For-users,-there-is" font-family="Raleway-Medium, Raleway" font-size="20" font-weight="400" line-spacing="39" letter-spacing="2.49599981" fill="#000000">
                            <tspan x="256" y="95">For users, there is a traditional shopping cart where they select items for eventual </tspan>
                            <tspan x="256" y="134">purchase. For QJ Farm, theres order for they can check, accept and reject orders </tspan>
                        </text>
                    </g>
                    <text id="Cart/Order" font-family="Raleway-Bold, Raleway" font-size="23" font-weight="bold" letter-spacing="3.028846" fill="#000000">
                        <tspan x="34" y="167">Cart/Order</tspan>
                    </text>
                </g>
            </g>
        </g>
    </g>
</svg>