<?xml version="1.0" encoding="UTF-8"?>
<svg width="685px" height="63px" viewBox="0 0 685 63" version="1.1" xmlns="http://www.w3.org/2000/svg" xmlns:xlink="http://www.w3.org/1999/xlink">
    <!-- Generator: Sketch 51.3 (57544) - http://www.bohemiancoding.com/sketch -->
    <title>Group 4</title>
    <desc>Created with Sketch.</desc>
    <defs></defs>
    <g id="Page-1" stroke="none" stroke-width="1" fill="none" fill-rule="evenodd">
        <g id="Artboard" transform="translate(-68.000000, -66.000000)">
            <g id="Group-4" transform="translate(68.000000, 66.000000)">
                <g id="Group-13" transform="translate(126.000000, 0.000000)" fill-rule="nonzero">
                    <g id="Group-11">
                        <g id="appointment" transform="translate(0.093023, 0.930233)">
                            <path d="M42.3674434,42.934792 L42.3674434,45.3967158 C42.3674434,46.8686929 43.5554774,48.0620155 45.020931,48.0620155 C46.4863846,48.0620155 47.6744186,46.8686929 47.6744186,45.3967158 L47.6744186,9.23311185 C47.6744186,7.13073609 45.9775926,5.42635659 43.8845341,5.42635659 L36.4942594,5.42635659 L10.8816517,5.42635659 L8.05345036,5.42635659 C5.96039192,5.42635659 4.26356589,7.13073609 4.26356589,9.23311185 L4.26356589,42.934792 L42.3674434,42.934792 Z" id="Shape" fill="#FFFFFF"></path>
                            <path d="M42.6829747,45.2418209 L42.6829747,42.6379755 L42.681832,42.6356589 L1.1627907,42.6356589 L1.1627907,45.2418209 C1.1627907,46.7993741 2.35659122,48.0620155 3.82922454,48.0620155 L45.3488372,48.0620155 C43.8764896,48.0617133 42.6829747,46.7991726 42.6829747,45.2418209 Z" id="Shape" fill="#FCFCFA"></path>
                            <path d="M47.6744186,13.1782946 L4.26356589,13.1782946 L4.26356589,9.16223032 C4.26356589,7.09900065 5.96475837,5.42635659 8.06320289,5.42635659 L43.8747816,5.42635659 C45.9732261,5.42635659 47.6744186,7.09900065 47.6744186,9.16223032 L47.6744186,13.1782946 Z" id="Shape" fill="#7FC24D"></path>
                            <g id="Group" transform="translate(18.604651, 30.232558)" fill="#FCF9F0">
                                <path d="M2.70042636,5.42635659 C1.22195607,5.42635659 0.0234237726,4.21162791 0.0234237726,2.71317829 C0.0234237726,1.21472868 1.22195607,0 2.70042636,0 C4.17889664,0 5.37742894,1.21472868 5.37742894,2.71317829 C5.37742894,4.21162791 4.17889664,5.42635659 2.70042636,5.42635659 Z" id="Shape"></path>
                                <path d="M11.6237364,5.42635659 C10.1452661,5.42635659 8.94673385,4.21162791 8.94673385,2.71317829 C8.94673385,1.21472868 10.1452661,0 11.6237364,0 C13.1022067,0 14.300739,1.21472868 14.300739,2.71317829 C14.300739,4.21162791 13.1022067,5.42635659 11.6237364,5.42635659 Z" id="Shape"></path>
                            </g>
                            <path d="M39.5348837,35.6589147 C38.0364341,35.6589147 36.8217054,34.444186 36.8217054,32.9457364 C36.8217054,31.4472868 38.0364341,30.2325581 39.5348837,30.2325581 C41.0333333,30.2325581 42.248062,31.4472868 42.248062,32.9457364 C42.248062,34.444186 41.0333333,35.6589147 39.5348837,35.6589147 Z" id="Shape" fill="#FFF6D8"></path>
                            <g id="Group" transform="translate(9.689922, 19.767442)" fill="#FCF9F0">
                                <path d="M2.80155039,5.42635659 C1.30310078,5.42635659 0.088372093,4.21162791 0.088372093,2.71317829 C0.088372093,1.21472868 1.30310078,0 2.80155039,0 C4.3,0 5.51472868,1.21472868 5.51472868,2.71317829 C5.51472868,4.21162791 4.3,5.42635659 2.80155039,5.42635659 Z" id="Shape"></path>
                                <path d="M20.8893411,5.42635659 C19.3908915,5.42635659 18.1761628,4.21162791 18.1761628,2.71317829 C18.1761628,1.21472868 19.3908915,0 20.8893411,0 C22.3877907,0 23.6025194,1.21472868 23.6025194,2.71317829 C23.6025194,4.21162791 22.3877907,5.42635659 20.8893411,5.42635659 Z" id="Shape"></path>
                                <path d="M11.8454457,5.42635659 C10.3469961,5.42635659 9.13226744,4.21162791 9.13226744,2.71317829 C9.13226744,1.21472868 10.3469961,0 11.8454457,0 C13.3438953,0 14.558624,1.21472868 14.558624,2.71317829 C14.558624,4.21162791 13.3438953,5.42635659 11.8454457,5.42635659 Z" id="Shape"></path>
                            </g>
                            <g id="Group" transform="translate(1.937984, 19.767442)" fill="#FFF6D8">
                                <path d="M37.6334121,5.38075695 C36.1597596,5.38075695 34.9651328,4.17623608 34.9651328,2.69037848 C34.9651328,1.20452088 36.1597596,0 37.6334121,0 C39.1070647,0 40.3016915,1.20452088 40.3016915,2.69037848 C40.3016915,4.17623608 39.1070647,5.38075695 37.6334121,5.38075695 Z" id="Shape"></path>
                                <ellipse id="Oval" cx="6.90703172" cy="15.950101" rx="6.86128979" ry="6.91811608"></ellipse>
                            </g>
                            <g id="Group" transform="translate(13.178295, 1.162791)" fill="#FFFFFF">
                                <path d="M1.96292758,8.47812528 C0.896557736,8.47812528 0.0321474885,7.6005168 0.0321474885,6.5178651 L0.0321474885,1.96026018 C0.0321474885,0.877608483 0.896557736,0 1.96292758,0 C3.02929743,0 3.89370767,0.877608483 3.89370767,1.96026018 L3.89370767,6.5178651 C3.89370767,7.6005168 3.02929743,8.47812528 1.96292758,8.47812528 Z" id="Shape"></path>
                                <path d="M23.9738206,8.47812528 C22.9074508,8.47812528 22.0430405,7.6005168 22.0430405,6.5178651 L22.0430405,1.96026018 C22.0430405,0.877608483 22.9074508,0 23.9738206,0 C25.0401905,0 25.9046007,0.877608483 25.9046007,1.96026018 L25.9046007,6.5178651 C25.9046007,7.6005168 25.0401905,8.47812528 23.9738206,8.47812528 Z" id="Shape"></path>
                            </g>
                            <path d="M44.0679506,4.19694767 L39.5212255,4.19694767 L39.5212255,2.86155523 C39.5212255,1.28369368 38.2375318,0 36.6596702,0 C35.0818087,0 33.798115,1.28369368 33.798115,2.86155523 L33.798115,4.19694767 L17.7734057,4.19694767 L17.7734057,2.86155523 C17.7734057,1.28369368 16.489712,0 14.9118505,0 C13.3339889,0 12.0502952,1.28369368 12.0502952,2.86155523 L12.0502952,4.23224019 C11.9692178,4.20982467 11.8842297,4.19694767 11.7959984,4.19694767 L7.99547148,4.19694767 C5.36570222,4.19694767 3.22621275,6.33643714 3.22621275,8.9662064 L3.22621275,25.2134493 C3.22621275,25.7402616 3.65334757,26.1673011 4.1800645,26.1673011 C4.70678143,26.1673011 5.13391624,25.7402616 5.13391624,25.2134493 L5.13391624,14.0216206 L39.5212255,14.0216206 C40.0479424,14.0216206 40.4750772,13.5945812 40.4750772,13.0677689 C40.4750772,12.5409566 40.0479424,12.1139172 39.5212255,12.1139172 L5.13391624,12.1139172 L5.13391624,8.9662064 C5.13391624,7.38834484 6.41760992,6.10465116 7.99547148,6.10465116 L11.7959984,6.10465116 C11.8842297,6.10465116 11.9692178,6.09167878 12.0502952,6.06935865 L12.0502952,7.29696584 C12.0502952,8.8748274 13.3339889,10.1585211 14.9118505,10.1585211 C16.489712,10.1585211 17.7734057,8.8748274 17.7734057,7.29696584 L17.7734057,6.10465116 L33.798115,6.10465116 L33.798115,7.29696584 C33.798115,8.8748274 35.0818087,10.1585211 36.6596702,10.1585211 C38.2375318,10.1585211 39.5212255,8.8748274 39.5212255,7.29696584 L39.5212255,6.10465116 L44.0679506,6.10465116 C45.6458121,6.10465116 46.9295058,7.38834484 46.9295058,8.9662064 L46.9295058,45.2120004 C46.9295058,46.1589844 46.1590798,46.9295058 45.2120004,46.9295058 C44.264921,46.9295058 43.4944949,46.1589844 43.4944949,45.2120004 L43.4944949,42.7444813 C43.4944949,42.217669 43.0673601,41.7906295 42.5406432,41.7906295 L31.4453443,41.7906295 C30.9186274,41.7906295 30.4914926,42.217669 30.4914926,42.7444813 C30.4914926,43.2712936 30.9186274,43.698333 31.4453443,43.698333 L41.5867914,43.698333 L41.5867914,45.2120004 C41.5867914,45.8330532 41.7439862,46.4179551 42.020317,46.9295058 L3.62463663,46.9295058 C2.67793877,46.9295058 1.90770349,46.1592705 1.90770349,45.2125727 L1.90770349,43.698333 L23.2572902,43.698333 C23.7840071,43.698333 24.2111419,43.2712936 24.2111419,42.7444813 C24.2111419,42.217669 23.7840071,41.7906295 23.2572902,41.7906295 L13.7267851,41.7906295 C15.3935456,40.3551781 16.4519395,38.2319041 16.4519395,35.8648256 C16.4519395,31.5519849 12.9431959,28.0432413 8.6303552,28.0432413 C4.31751453,28.0432413 0.808770894,31.5519849 0.808770894,35.8648256 C0.808770894,38.2319041 1.86716479,40.3551781 3.53392533,41.7906295 L0.953851744,41.7906295 C0.427134811,41.7906295 0,42.217669 0,42.7444813 L0,45.2125727 C0,47.2111782 1.62603107,48.8372093 3.62463663,48.8372093 L45.2120004,48.8372093 C47.2108921,48.8372093 48.8372093,47.2109875 48.8372093,45.2120004 L48.8372093,8.9662064 C48.8372093,6.33643714 46.6977198,4.19694767 44.0679506,4.19694767 Z M15.8657022,7.29696584 C15.8657022,7.82291969 15.4378043,8.25081759 14.9118505,8.25081759 C14.3858966,8.25081759 13.9579987,7.82291969 13.9579987,7.29696584 L13.9579987,2.86155523 C13.9579987,2.33560138 14.3858966,1.90770349 14.9118505,1.90770349 C15.4378043,1.90770349 15.8657022,2.33560138 15.8657022,2.86155523 L15.8657022,7.29696584 Z M37.613522,7.29696584 C37.613522,7.82291969 37.1856241,8.25081759 36.6596702,8.25081759 C36.1337164,8.25081759 35.7058185,7.82291969 35.7058185,7.29696584 L35.7058185,2.86155523 C35.7058185,2.33560138 36.1337164,1.90770349 36.6596702,1.90770349 C37.1856241,1.90770349 37.613522,2.33560138 37.613522,2.86155523 L37.613522,7.29696584 Z M2.71647438,35.8648256 C2.71647438,32.6038926 5.36942224,29.9509448 8.6303552,29.9509448 C11.8912882,29.9509448 14.544236,32.6038926 14.544236,35.8648256 C14.544236,39.1257585 11.8912882,41.7787064 8.6303552,41.7787064 C5.36942224,41.7787064 2.71647438,39.1257585 2.71647438,35.8648256 Z" id="Shape" fill="#000000"></path>
                            <path d="M43.6046512,13.9534884 C43.8594961,13.9534884 44.1094961,13.8498062 44.2896318,13.6695736 C44.4698643,13.4893411 44.5736434,13.2393411 44.5736434,12.9844961 C44.5736434,12.7296512 44.4699612,12.4796512 44.2896318,12.2994186 C44.1094961,12.119186 43.8594961,12.0155039 43.6046512,12.0155039 C43.3497093,12.0155039 43.0998062,12.119186 42.9195736,12.2994186 C42.7393411,12.4796512 42.6356589,12.7296512 42.6356589,12.9844961 C42.6356589,13.2393411 42.7392442,13.4893411 42.9195736,13.6695736 C43.0999031,13.8498062 43.3497093,13.9534884 43.6046512,13.9534884 Z" id="Shape" fill="#000000"></path>
                            <path d="M27.4156977,41.7559555 C27.2354651,41.9372477 27.1317829,42.1864033 27.1317829,42.4413757 C27.1317829,42.6973177 27.2353682,42.9464732 27.4156977,43.1277654 C27.5959302,43.3080882 27.8459302,43.4108527 28.1007752,43.4108527 C28.3556202,43.4108527 28.6056202,43.3080882 28.7857558,43.1277654 C28.9659884,42.9464732 29.0697674,42.6963482 29.0697674,42.4413757 C29.0697674,42.1864033 28.9660853,41.9372477 28.7857558,41.7559555 C28.6056202,41.5756328 28.3556202,41.4728682 28.1007752,41.4728682 C27.8459302,41.4728682 27.5959302,41.5756328 27.4156977,41.7559555 Z" id="Shape" fill="#000000"></path>
                            <path d="M21.8992248,36.4341085 C23.9295543,36.4341085 25.5813953,34.7822674 25.5813953,32.751938 C25.5813953,30.7216085 23.9295543,29.0697674 21.8992248,29.0697674 C19.8688953,29.0697674 18.2170543,30.7216085 18.2170543,32.751938 C18.2170543,34.7822674 19.8688953,36.4341085 21.8992248,36.4341085 Z M21.8992248,31.0077519 C22.8609496,31.0077519 23.6434109,31.7902132 23.6434109,32.751938 C23.6434109,33.7136628 22.8609496,34.496124 21.8992248,34.496124 C20.9375,34.496124 20.1550388,33.7136628 20.1550388,32.751938 C20.1550388,31.7902132 20.9375,31.0077519 21.8992248,31.0077519 Z" id="Shape" fill="#000000"></path>
                            <path d="M30.8139535,36.4341085 C32.8442829,36.4341085 34.496124,34.7822674 34.496124,32.751938 C34.496124,30.7216085 32.8442829,29.0697674 30.8139535,29.0697674 C28.783624,29.0697674 27.1317829,30.7216085 27.1317829,32.751938 C27.1317829,34.7822674 28.783624,36.4341085 30.8139535,36.4341085 Z M30.8139535,31.0077519 C31.7756783,31.0077519 32.5581395,31.7902132 32.5581395,32.751938 C32.5581395,33.7136628 31.7756783,34.496124 30.8139535,34.496124 C29.8522287,34.496124 29.0697674,33.7136628 29.0697674,32.751938 C29.0697674,31.7902132 29.8522287,31.0077519 30.8139535,31.0077519 Z" id="Shape" fill="#000000"></path>
                            <path d="M39.3410853,36.4341085 C41.3714147,36.4341085 43.0232558,34.7822674 43.0232558,32.751938 C43.0232558,30.7216085 41.3714147,29.0697674 39.3410853,29.0697674 C37.3107558,29.0697674 35.6589147,30.7216085 35.6589147,32.751938 C35.6589147,34.7822674 37.3107558,36.4341085 39.3410853,36.4341085 Z M39.3410853,31.0077519 C40.3028101,31.0077519 41.0852713,31.7902132 41.0852713,32.751938 C41.0852713,33.7136628 40.3028101,34.496124 39.3410853,34.496124 C38.3793605,34.496124 37.5968992,33.7136628 37.5968992,32.751938 C37.5968992,31.7902132 38.3793605,31.0077519 39.3410853,31.0077519 Z" id="Shape" fill="#000000"></path>
                            <path d="M16.2790698,23.0620155 C16.2790698,21.031686 14.6272287,19.379845 12.5968992,19.379845 C10.5665698,19.379845 8.91472868,21.031686 8.91472868,23.0620155 C8.91472868,25.092345 10.5665698,26.744186 12.5968992,26.744186 C14.6272287,26.744186 16.2790698,25.092345 16.2790698,23.0620155 Z M10.8527132,23.0620155 C10.8527132,22.1002907 11.6351744,21.3178295 12.5968992,21.3178295 C13.558624,21.3178295 14.3410853,22.1002907 14.3410853,23.0620155 C14.3410853,24.0237403 13.558624,24.8062016 12.5968992,24.8062016 C11.6351744,24.8062016 10.8527132,24.0237403 10.8527132,23.0620155 Z" id="Shape" fill="#000000"></path>
                            <path d="M30.8139535,26.744186 C32.8442829,26.744186 34.496124,25.092345 34.496124,23.0620155 C34.496124,21.031686 32.8442829,19.379845 30.8139535,19.379845 C28.783624,19.379845 27.1317829,21.031686 27.1317829,23.0620155 C27.1317829,25.092345 28.783624,26.744186 30.8139535,26.744186 Z M30.8139535,21.3178295 C31.7756783,21.3178295 32.5581395,22.1002907 32.5581395,23.0620155 C32.5581395,24.0237403 31.7756783,24.8062016 30.8139535,24.8062016 C29.8522287,24.8062016 29.0697674,24.0237403 29.0697674,23.0620155 C29.0697674,22.1002907 29.8522287,21.3178295 30.8139535,21.3178295 Z" id="Shape" fill="#000000"></path>
                            <path d="M39.3410853,26.744186 C41.3714147,26.744186 43.0232558,25.092345 43.0232558,23.0620155 C43.0232558,21.031686 41.3714147,19.379845 39.3410853,19.379845 C37.3107558,19.379845 35.6589147,21.031686 35.6589147,23.0620155 C35.6589147,25.092345 37.3107558,26.744186 39.3410853,26.744186 Z M39.3410853,21.3178295 C40.3028101,21.3178295 41.0852713,22.1002907 41.0852713,23.0620155 C41.0852713,24.0237403 40.3028101,24.8062016 39.3410853,24.8062016 C38.3793605,24.8062016 37.5968992,24.0237403 37.5968992,23.0620155 C37.5968992,22.1002907 38.3793605,21.3178295 39.3410853,21.3178295 Z" id="Shape" fill="#000000"></path>
                            <path d="M21.8992248,26.744186 C23.9295543,26.744186 25.5813953,25.092345 25.5813953,23.0620155 C25.5813953,21.031686 23.9295543,19.379845 21.8992248,19.379845 C19.8688953,19.379845 18.2170543,21.031686 18.2170543,23.0620155 C18.2170543,25.092345 19.8688953,26.744186 21.8992248,26.744186 Z M21.8992248,21.3178295 C22.8609496,21.3178295 23.6434109,22.1002907 23.6434109,23.0620155 C23.6434109,24.0237403 22.8609496,24.8062016 21.8992248,24.8062016 C20.9375,24.8062016 20.1550388,24.0237403 20.1550388,23.0620155 C20.1550388,22.1002907 20.9375,21.3178295 21.8992248,21.3178295 Z" id="Shape" fill="#000000"></path>
                            <path d="M6.65025946,38.4931843 C6.8277488,38.6637879 7.06834335,38.7596899 7.31925046,38.7596899 C7.57015756,38.7596899 7.81075212,38.6637879 7.98824146,38.4931843 L11.7384133,34.8865773 C12.1078674,34.5312668 12.1078674,33.9551268 11.7384133,33.5998163 C11.3688646,33.2445057 10.76998,33.2445057 10.4003367,33.5998163 L7.31925046,36.5630427 L6.26632996,35.5504303 C5.89678127,35.1951197 5.29789666,35.1951197 4.92825336,35.5504303 C4.55879927,35.9057409 4.55879927,36.4818808 4.92825336,36.8372824 L6.65025946,38.4931843 Z" id="Shape" fill="#000000"></path>
                        </g>
                    </g>
                </g>
                <text id="Events" font-family="Raleway-Bold, Raleway" font-size="10" font-weight="bold" letter-spacing="1" fill="#000000">
                    <tspan x="134" y="60">Event</tspan>
                    <tspan x="166.19" y="60">s</tspan>
                </text>
                <g id="Group-14" transform="translate(249.000000, 3.000000)" fill-rule="nonzero">
                    <g id="Group-3">
                        <g id="sprout-(2)" transform="translate(0.255814, 0.356589)">
                            <rect id="Rectangle-path" fill="#30995B" x="0.953851744" y="21.0562773" width="5.15079942" height="17.1693314"></rect>
                            <path d="M47.126667,26.8600836 C46.1938,25.9272166 44.7277298,25.7936773 43.6416742,26.5426417 L35.227748,33.6767851 C35.994931,32.8942451 36.0340389,31.3143805 35.133889,30.4142306 C34.7761946,30.0564408 34.2908748,29.8554642 33.7849519,29.8554642 L24.8830351,29.8554642 C24.1240552,29.8554642 23.3962664,29.5539517 22.8596294,29.0173147 L17.7866642,23.9205987 C16.8922375,23.0261719 15.6791288,22.5236828 14.4143214,22.5236828 L6.10465116,22.5236828 L6.10465116,36.0872638 L10.058939,38.4821948 C12.0739508,39.7026481 14.3848474,40.3479288 16.7406704,40.3479288 L31.8235465,40.3479288 C34.3195858,40.3479288 36.7398892,39.4907022 38.6794513,37.9197084 L46.9743368,30.654315 C48.1230605,29.6765216 48.193264,27.926776 47.126667,26.8600836 Z" id="Shape" fill="#F9BD95"></path>
                            <path d="M18.5117823,24.5248637 C20.9693814,23.0027071 23.867183,22.1239235 26.9701581,22.1239235 C32.5194767,22.1239235 37.4120685,24.9341615 40.305387,29.2092297 L36.1495503,33.2035792 C36.1495503,33.2035792 36.1508857,29.6654569 31.7631677,29.6654569 C27.3754497,29.6654569 23.843909,29.6654569 23.843909,29.6654569 L18.5117823,24.5248637 Z" id="Shape" fill="#30995B"></path>
                            <g id="Group" transform="translate(15.452398, 1.049237)" fill="#ACD670">
                                <path d="M6.73676871,3.46534339 C11.9041652,5.19028888 11.5317814,12.5511628 11.5317814,12.6481695 L11.5327353,12.6492188 L11.5332122,12.6497911 L11.5324491,12.6488372 C11.5065997,12.6495049 5.43132722,12.8407522 2.34657068,9.39171966 C-0.736278161,5.94297329 0.230641352,0.0270893895 0.236746003,0.00181231831 L0.235124455,0 C0.235124455,0 1.89330033,1.84856468 6.73676871,3.46534339 Z" id="Shape"></path>
                                <path d="M22.8338754,0 L22.8323492,0.00171693314 C22.8385492,0.0270893895 23.8053734,5.94287791 20.7225245,9.39162427 C17.637768,12.8406568 11.5624955,12.6495049 11.5366461,12.6487418 L11.535883,12.6496957 L11.5363599,12.6491234 L11.5373138,12.6480741 C11.5373138,12.5510674 11.1649301,5.1901935 16.3323265,3.465248 C21.1756995,1.84856468 22.8338754,0 22.8338754,0 Z" id="Shape"></path>
                            </g>
                            <path d="M6.10465116,28.6993959 C5.57793423,28.6993959 5.15079942,29.1264353 5.15079942,29.6532476 L5.15079942,29.6655523 C5.15079942,30.1923646 5.57793423,30.6194041 6.10465116,30.6194041 C6.6313681,30.6194041 7.05850291,30.1923646 7.05850291,29.6655523 L7.05850291,29.6532476 C7.05850291,29.1264353 6.6313681,28.6993959 6.10465116,28.6993959 Z" id="Shape" fill="#000000"></path>
                            <path d="M47.8011355,26.1857104 C46.5426235,24.9269122 44.5654797,24.7471112 43.1001726,25.757431 C43.0742278,25.7753634 43.0490461,25.7947266 43.0249137,25.815139 L40.5486192,27.9147574 C37.5253861,23.9329987 32.9240053,21.4820767 27.9419422,21.1987827 L27.9419422,14.6322765 C29.8981968,14.5304052 34.2972656,13.9711619 36.8861146,11.0766034 C39.9600927,7.63787246 39.3886401,2.08855378 39.2392669,1.00774437 C39.2285838,0.76021984 39.1219431,0.517083031 38.9228743,0.338712754 C38.5308412,-0.012590843 37.9280069,0.020221657 37.5763218,0.412254724 C37.5614417,0.428851744 35.9614508,2.1147847 31.4827353,3.60975654 C29.4417787,4.29099746 27.9054097,5.8303234 26.9870412,8.09333666 C26.0686728,5.8303234 24.5323038,4.29109284 22.4913472,3.60975654 C18.0132994,2.11497547 16.4081577,0.423224019 16.3977607,0.412254724 C16.0460756,0.020221657 15.4440997,-0.0117323765 15.0520667,0.339571221 C14.8571948,0.51412609 14.7511265,0.751062863 14.7367233,0.993341206 C14.5905932,2.03819041 14.0000636,7.62222929 17.0879678,11.0766988 C19.6780569,13.972688 24.0802734,14.5308821 26.0343341,14.6323719 L26.0343341,21.1980196 C23.4124818,21.3412882 20.8663654,22.0834802 18.5876136,23.3729924 L18.4613236,23.2461301 C17.3803234,22.1652253 15.943155,21.5699264 14.4144168,21.5699264 L7.05850291,21.5699264 L7.05850291,21.0562773 C7.05850291,20.5294649 6.6313681,20.1024255 6.10465116,20.1024255 L0.953851744,20.1024255 C0.427134811,20.1024255 0,20.5294649 0,21.0562773 L0,38.2256086 C0,38.752421 0.427134811,39.1794604 0.953851744,39.1794604 L6.10465116,39.1794604 C6.6313681,39.1794604 7.05850291,38.752421 7.05850291,38.2256086 L7.05850291,37.7802553 L9.56474836,39.2981195 C11.7289426,40.6089026 14.2103879,41.3017805 16.7406704,41.3017805 L31.8235465,41.3017805 C34.5292424,41.3017805 37.1773256,40.3638581 39.2798056,38.6608512 C39.2893441,38.653125 39.2986919,38.645208 39.3079442,38.6371957 L47.598442,31.3757131 C48.3446403,30.7377771 48.7949537,29.8099655 48.8343477,28.8288336 C48.8738372,27.8451263 48.4972565,26.881736 47.8011355,26.1857104 Z M32.0866188,5.41940407 C34.6621139,4.55969749 36.3929733,3.62244277 37.4786473,2.90171239 C37.5213799,4.77164335 37.2660338,7.78905796 35.4639217,9.80502362 C33.3971157,12.1160156 29.687014,12.6144032 27.9541515,12.7188499 C28.0489644,10.7775709 28.656568,6.56431232 32.0866188,5.41940407 Z M18.50997,9.80521439 C16.7078579,7.78915334 16.4524164,4.77164335 16.495149,2.90171239 C17.580823,3.62244277 19.3116824,4.55969749 21.8871775,5.41940407 C25.3172284,6.5644077 25.9248319,10.7776662 26.0196448,12.7189453 C24.2884993,12.6145939 20.5772529,12.1165879 18.50997,9.80521439 Z M26.9701581,23.0777753 C31.757063,23.0777753 36.234157,25.3355423 39.0908476,29.1506632 L36.6441225,31.2252907 C36.4973247,30.6649982 36.2142215,30.1457213 35.8082622,29.739762 C35.2677144,29.1993096 34.5491779,28.9016125 33.7848565,28.9016125 L24.8829397,28.9016125 C24.3733921,28.9016125 23.8943677,28.7032113 23.5356241,28.3444677 L19.9897756,24.7819268 C22.1361328,23.6647756 24.527153,23.0777753 26.9701581,23.0777753 Z M46.3561455,29.9278616 C46.3527117,29.9307231 46.3492778,29.9336801 46.3459393,29.936637 L38.0651708,37.1896303 C36.303502,38.6113463 34.087609,39.394077 31.8235465,39.394077 L16.7406704,39.394077 C14.5588299,39.394077 12.4191497,38.7966797 10.5531295,37.6663654 L7.05850291,35.5498637 L7.05850291,32.8704942 C7.05850291,32.3436819 6.6313681,31.9166424 6.10465116,31.9166424 C5.57793423,31.9166424 5.15079942,32.3436819 5.15079942,32.8704942 L5.15079942,37.2716615 L1.90770349,37.2716615 L1.90770349,22.0100336 L5.15079942,22.0100336 L5.15079942,26.2446584 C5.15079942,26.7714707 5.57793423,27.1985102 6.10465116,27.1985102 C6.6313681,27.1985102 7.05850291,26.7714707 7.05850291,26.2446584 L7.05850291,23.4775345 L14.414226,23.4775345 C15.4334166,23.4775345 16.3914653,23.8744322 17.1105741,24.5934457 L22.1850654,29.6917832 C22.9057004,30.4124182 23.8638445,30.8092206 24.8829397,30.8092206 L33.7848565,30.8092206 C34.0396303,30.8092206 34.2791424,30.9084211 34.4592297,31.0886037 C34.8965707,31.5258494 34.9318632,32.2462936 34.7430959,32.7021394 C34.694831,32.8187954 34.6391261,32.9068359 34.5810365,32.9743686 C34.5810365,32.9743686 34.3854969,33.1898438 34.1032522,33.1898438 L21.437818,33.1898438 C20.7787064,33.1898438 20.1382903,32.9998365 19.585724,32.6405205 L16.5126999,30.6418196 C16.0713527,30.3542333 15.4804415,30.4790925 15.1928552,30.9205351 C14.9053643,31.3619777 15.0302235,31.9528888 15.4716661,32.2403797 L18.5456441,34.239653 C19.4084984,34.8008993 20.4086119,35.0975472 21.437818,35.0975472 L34.1032522,35.0975472 C34.7971793,35.0975472 35.417183,34.8355242 35.8860965,34.3688999 L44.2184684,27.3040062 C44.9218387,26.8429142 45.8547057,26.936964 46.452103,27.5344568 C46.7775572,27.8598156 46.9466751,28.292292 46.928075,28.7521439 C46.9096657,29.2121866 46.7065907,29.6295921 46.3561455,29.9278616 Z" id="Shape" fill="#000000"></path>
                        </g>
                    </g>
                </g>
                <text id="Game" font-family="Raleway-Bold, Raleway" font-size="10" font-weight="bold" letter-spacing="1" fill="#000000">
                    <tspan x="257" y="60">Gam</tspan>
                    <tspan x="282.16" y="60">e</tspan>
                </text>
                <g id="Group-10" transform="translate(0.000000, 3.000000)">
                    <g id="Group-5" fill-rule="nonzero">
                        <g id="shop" transform="translate(0.918919, 0.126126)">
                            <rect id="Rectangle-path" fill="#FFEDB1" x="4.27151289" y="14.6510918" width="47.7632805" height="29.6877386"></rect>
                            <path d="M4.27151289,21.7556695 C5.3060695,22.141219 6.42062328,22.3621927 7.5883614,22.3621927 C10.2047656,22.3621927 12.6755199,21.2734852 14.443292,19.447979 C16.2111744,21.2734852 18.6818183,22.3621927 21.2982226,22.3621927 C23.9146268,22.3621927 26.385381,21.2734852 28.1531532,19.447979 C29.9210356,21.2734852 32.3916795,22.3621927 35.0080837,22.3621927 C37.624488,22.3621927 40.0952422,21.2734852 41.8630143,19.447979 C43.6308968,21.2734852 46.1015407,22.3621927 48.7179449,22.3621927 C49.8857934,22.3621927 51.0002368,22.141219 52.0347934,21.7556695 L52.0347934,14.6510918 L4.27151289,14.6510918 L4.27151289,21.7556695 Z" id="Shape" fill="#7FC24D"></path>
                            <path d="M55.5296676,12.9316124 C55.5296676,16.6494584 52.4654625,19.6633074 48.6854977,19.6633074 C45.9490415,19.6633074 43.5877065,18.0837835 42.4925292,15.8011294 C42.2255928,15.2447149 41.4571729,15.2447149 41.1902365,15.8011294 C40.0950591,18.0837835 37.733614,19.6633074 34.997268,19.6633074 C32.260922,19.6633074 29.8994768,18.0837835 28.8042995,15.8011294 C28.5373631,15.2447149 27.7689432,15.2447149 27.5020068,15.8011294 C26.4068295,18.0837835 24.0453843,19.6633074 21.3090383,19.6633074 C18.5726924,19.6633074 16.2112472,18.0837835 15.1160698,15.8011294 C14.8491334,15.2447149 14.0807135,15.2447149 13.8137771,15.8011294 C12.7185998,18.0837835 10.3571546,19.6633074 7.62080863,19.6633074 C3.84084381,19.6633074 0.776638708,16.6494584 0.776638708,12.9316124 L7.33272003,1.64642007 C7.64713872,1.10517554 8.23245984,0.771110093 8.86625476,0.771110093 L47.439721,0.771110093 C48.073516,0.771110093 48.6587269,1.10517554 48.9732558,1.64642007 L55.5296676,12.9316124 Z" id="Shape" fill="#7FC24D"></path>
                            <path d="M47.4397699,0.771110093 L8.86653644,0.771110093 C8.23274534,0.771110093 7.64753791,1.11004509 7.33301096,1.65917914 L0.776638708,13.1088716 L55.5296676,13.1088716 L48.9732953,1.65917914 C48.6587684,1.11004509 48.073561,0.771110093 47.4397699,0.771110093 Z" id="Shape" fill="#7FC24D"></path>
                            <g id="Group" transform="translate(8.543026, 23.518858)" fill="#7FC24D">
                                <rect id="Rectangle-path" x="28.2090975" y="0.002197464" width="10.5515363" height="21.1385049"></rect>
                                <rect id="Rectangle-path" x="0.0702046289" y="0.002197464" width="23.742328" height="16.7347871"></rect>
                            </g>
                            <g id="Group" transform="translate(11.261261, 26.217743)" fill="#FFF6D8">
                                <polygon id="Shape" points="9.96367691 0.00716030801 0.0766207384 0.00716030801 0.0766207384 9.87208189"></polygon>
                                <polygon id="Shape" points="1.57977831 11.4865661 4.50163399 11.4865661 16.0068892 0.00716030801 13.0850336 0.00716030801"></polygon>
                                <polygon id="Shape" points="18.6618972 2.6561438 9.81176029 11.4865661 18.6618972 11.4865661"></polygon>
                                <polygon id="Shape" points="33.707163 1.55885413 33.707163 0.00716030801 28.3971471 0.00716030801 28.3971471 6.85704142"></polygon>
                                <polygon id="Shape" points="28.3971471 10.603645 28.3971471 11.4865661 33.707163 11.4865661 33.707163 5.3053476"></polygon>
                            </g>
                            <path d="M53.7184157,43.8541621 L52.7801239,43.8541621 L52.7801239,19.5091204 C54.8988686,18.1527035 56.3063063,15.7874808 56.3063063,13.0998124 C56.3063063,12.9570259 56.2688054,12.8166465 56.1976527,12.6926794 L49.6528144,1.29733287 C49.1931262,0.49718146 48.3321456,0 47.4058409,0 L8.90046541,0 C7.97416068,0 7.11318007,0.497072046 6.65349187,1.29733287 L0.108653575,12.6926794 C0.0375008798,12.8165371 0,12.9570259 0,13.0998124 C0,15.7874808 1.40743771,18.1527035 3.52618243,19.5091204 L3.52618243,43.8542715 L2.58789063,43.8542715 C2.1323814,43.8542715 1.76309122,44.2216868 1.76309122,44.6748835 C1.76309122,45.1280801 2.1323814,45.4954955 2.58789063,45.4954955 L53.7184157,45.4954955 C54.1740349,45.4954955 54.5432151,45.1280801 54.5432151,44.6748835 C54.5432151,44.2216868 54.1739249,43.8541621 53.7184157,43.8541621 Z M1.70645499,13.9204244 L4.35065192,13.9204244 C4.80616114,13.9204244 5.17545133,13.5530091 5.17545133,13.0998124 C5.17545133,12.6466157 4.80616114,12.2792004 4.35065192,12.2792004 L2.24609375,12.2792004 L8.08578354,2.11159881 C8.25250299,1.82143041 8.56460709,1.64122401 8.90046541,1.64122401 L47.4058409,1.64122401 C47.7416992,1.64122401 48.0539133,1.82143041 48.2205228,2.11159881 L54.0601026,12.2792004 L51.9551045,12.2792004 C51.4994853,12.2792004 51.1303051,12.6466157 51.1303051,13.0998124 C51.1303051,13.5530091 51.4994853,13.9204244 51.9551045,13.9204244 L54.5997413,13.9204244 C54.1964694,16.829111 51.681931,19.0766032 48.6493085,19.0766032 C45.616796,19.0766032 43.1034672,16.8288922 42.7000853,13.9204244 L48.429252,13.9204244 C48.8848712,13.9204244 49.2540514,13.5530091 49.2540514,13.0998124 C49.2540514,12.6466157 48.8848712,12.2792004 48.429252,12.2792004 L7.87749419,12.2792004 C7.42198497,12.2792004 7.05269478,12.6466157 7.05269478,13.0998124 C7.05269478,13.5530091 7.42198497,13.9204244 7.87749419,13.9204244 L13.606111,13.9204244 C13.2027291,16.8288922 10.6892904,19.0766032 7.65688784,19.0766032 C4.62426538,19.0766032 2.10972691,16.8290016 1.70645499,13.9204244 Z M40.9344647,13.9204244 C40.5310828,16.8288922 38.0176441,19.0766032 34.9852416,19.0766032 C31.9527291,19.0766032 29.4394003,16.8288922 29.0360184,13.9204244 L40.9344647,13.9204244 Z M27.2702879,13.9204244 C26.866906,16.8288922 24.3534672,19.0766032 21.3210647,19.0766032 C18.2886622,19.0766032 15.7752235,16.8288922 15.3718416,13.9204244 L27.2702879,13.9204244 Z M5.17578125,20.3048952 C5.95450187,20.5711018 6.78853903,20.7177178 7.65688784,20.7177178 C10.6366132,20.7177178 13.2241739,19.0156591 14.4889763,16.5373014 C15.7537787,19.0155496 18.3413394,20.7177178 21.3210647,20.7177178 C24.30079,20.7177178 26.8883508,19.0156591 28.1531532,16.5373014 C29.4179556,19.0155496 32.0055163,20.7177178 34.9852416,20.7177178 C37.9649669,20.7177178 40.5525276,19.0156591 41.81733,16.5373014 C43.0821324,19.0155496 45.6696931,20.7177178 48.6494185,20.7177178 C49.5177673,20.7177178 50.3518044,20.5711018 51.1305251,20.3050046 L51.1305251,43.8541621 L48.3722859,43.8541621 L48.3722859,23.6247632 C48.3722859,23.1715665 48.0031056,22.8041511 47.5474865,22.8041511 L36.9688292,22.8041511 C36.51321,22.8041511 36.1440298,23.1715665 36.1440298,23.6247632 L36.1440298,43.8541621 L5.17578125,43.8541621 L5.17578125,20.3048952 Z M46.7225771,39.4688115 L37.7935186,39.4688115 L37.7935186,24.4453752 L46.7225771,24.4453752 L46.7225771,39.4688115 Z M37.7935186,41.1100355 L46.7225771,41.1100355 L46.7225771,43.8542715 L37.7935186,43.8542715 L37.7935186,41.1100355 Z" id="Shape" fill="#000000"></path>
                            <path d="M32.5649191,22.7477477 L8.59693237,22.7477477 C8.13824989,22.7477477 7.76638708,23.1114541 7.76638708,23.5600757 L7.76638708,40.056507 C7.76638708,40.5051286 8.13824989,40.8688349 8.59693237,40.8688349 L32.5649191,40.8688349 C33.0237124,40.8688349 33.3954644,40.5051286 33.3954644,40.056507 L33.3954644,23.5600757 C33.3954644,23.1114541 33.0237124,22.7477477 32.5649191,22.7477477 Z M31.7343738,39.244179 L9.42747766,39.244179 L9.42747766,24.3724037 L31.7343738,24.3724037 L31.7343738,39.244179 Z" id="Shape" fill="#000000"></path>
                        </g>
                    </g>
                    <text id="Items" font-family="Raleway-Bold, Raleway" font-size="10" font-weight="bold" letter-spacing="1" fill="#000000">
                        <tspan x="13.8828829" y="56.6531532">Item</tspan>
                        <tspan x="39.7728829" y="56.6531532">s</tspan>
                    </text>
                </g>
                <g id="Group-15" transform="translate(370.000000, 6.000000)" fill-rule="nonzero">
                    <g id="Group-2">
                        <g id="recipe-book" transform="translate(0.093023, 0.457364)">
                            <rect id="Rectangle-path" fill="#7FC24D" x="24.371005" y="3.78112335" width="23.6555828" height="30.523351"></rect>
                            <g id="Group" transform="translate(0.666395, 3.712770)" fill="#7FC24D">
                                <rect id="Rectangle-path" x="23.7046104" y="0.0683530532" width="3.05237318" height="30.523351"></rect>
                                <rect id="Rectangle-path" x="0.0490276078" y="0.0683530532" width="23.6555828" height="30.523351"></rect>
                            </g>
                            <path d="M21.3186319,0.728845369 L3.76770026,0.728845369 L3.76770026,31.2521964 L21.3186319,31.2521964 C23.00442,31.2521964 24.371005,32.6187814 24.371005,34.3045696 L24.371005,3.78112335 C24.371005,2.09543044 23.00442,0.728845369 21.3186319,0.728845369 Z" id="Shape" fill="#FFEDB1"></path>
                            <polygon id="Shape" fill="#FFEDB1" points="41.9219366 11.4120087 39.6326805 9.88577451 37.3434245 11.4120087 37.3434245 3.78112335 41.9219366 3.78112335"></polygon>
                            <path d="M48.0265878,9.17044744 C48.4216646,9.17044744 48.7420101,8.850102 48.7420101,8.45502516 L48.7420101,3.78112335 C48.7420101,3.38604651 48.4216646,3.06570107 48.0265878,3.06570107 L25.0174079,3.06570107 C24.6821161,1.32917177 23.151598,0.0133278934 21.3186319,0.0133278934 L3.76770026,0.0133278934 C3.37262342,0.0133278934 3.05227798,0.333673331 3.05227798,0.72875017 L3.05227798,3.06570107 L0.715422277,3.06570107 C0.320345437,3.06570107 0,3.38604651 0,3.78112335 L0,34.3044744 C0,34.6995512 0.320345437,35.0198966 0.715422277,35.0198966 L48.026683,35.0198966 C48.4217598,35.0198966 48.7421053,34.6995512 48.7421053,34.3044744 L48.7421053,11.7617707 C48.7421053,11.3666939 48.4217598,11.0463484 48.026683,11.0463484 C47.6316061,11.0463484 47.3112607,11.3666939 47.3112607,11.7617707 L47.3112607,33.5891473 L25.0864273,33.5891473 L25.0864273,4.49654563 L36.6280974,4.49654563 L36.6280974,11.4120087 C36.6280974,11.9718754 37.2733578,12.3187814 37.7403101,12.0071943 L39.6327757,10.7455188 L41.5252414,12.0071943 C41.9926697,12.3188766 42.6374541,11.971209 42.6374541,11.4120087 L42.6374541,4.49654563 L47.3113559,4.49654563 L47.3113559,8.45502516 C47.3112607,8.850102 47.6315109,9.17044744 48.0265878,9.17044744 Z M4.48312254,1.44417245 L21.3186319,1.44417245 C22.6071535,1.44417245 23.6555828,2.49260166 23.6555828,3.78112335 L23.6555828,31.3511084 C23.0128927,30.8415069 22.2006528,30.5367741 21.3186319,30.5367741 L4.48312254,30.5367741 L4.48312254,1.44417245 Z M1.43074935,4.49654563 L3.05227798,4.49654563 L3.05227798,31.2521964 C3.05227798,31.6472732 3.37262342,31.9676187 3.76770026,31.9676187 L21.3186319,31.9676187 C22.3577315,31.9676187 23.2401333,32.6495308 23.5431525,33.5891473 L1.43074935,33.5891473 L1.43074935,4.49654563 Z M41.2065143,10.075221 L40.029471,9.29049368 C39.9093295,9.21033592 39.771005,9.17035224 39.6326805,9.17035224 C39.494356,9.17035224 39.3560316,9.21043112 39.2358901,9.29049368 L38.0588467,10.075221 L38.0588467,4.49654563 L41.2066095,4.49654563 L41.2066095,10.075221 L41.2065143,10.075221 Z" id="Shape" fill="#000000"></path>
                            <path d="M18.2723514,19.049082 C18.4265742,19.049082 18.5836529,19.0379437 18.7425405,19.0151911 C19.6081871,18.8915273 20.4622195,18.4459948 21.1474636,17.7607507 C21.8327077,17.0755066 22.278145,16.221379 22.401904,15.3558276 C22.5345165,14.4277302 22.2739562,13.5588467 21.6870529,12.9720386 C21.1002448,12.3851353 20.231171,12.1246702 19.303264,12.2571875 C18.4376173,12.3808514 17.5834897,12.8263838 16.8983408,13.5116279 C15.6478988,14.7620699 15.2871889,16.504216 15.9297838,17.7176255 L14.2705562,19.376853 L12.4032232,17.5095199 C13.103604,16.3538964 12.9558548,14.824711 11.9587379,13.827499 L9.800476,11.669237 C9.52106623,11.3898273 9.06810826,11.3898273 8.78879369,11.669237 C8.50938392,11.9486468 8.50938392,12.4016048 8.78879369,12.6809194 L10.4412621,14.3333877 L9.83427173,14.9403781 L8.18180335,13.2879097 C7.90239358,13.0084999 7.4494356,13.0084999 7.17012104,13.2879097 C6.89071127,13.5673195 6.89071127,14.0202774 7.17012104,14.299592 L8.82258942,15.9520604 L8.21559908,16.5590507 L6.5630355,14.9066775 C6.28362573,14.6272678 5.83066775,14.6272678 5.55135319,14.9066775 C5.27194342,15.1860873 5.27194342,15.6390453 5.55135319,15.9183599 L7.70961512,18.0766218 C8.29537604,18.6623827 9.06477628,18.9552156 9.83427173,18.9552156 C10.3747178,18.9552156 10.9148783,18.8101319 11.3916361,18.521107 L13.2589691,20.3884401 L9.34428125,24.303128 C9.08381613,24.5634979 9.06648987,24.9937984 9.30620155,25.2737794 C9.57371141,25.5861281 10.0649395,25.6058344 10.3559636,25.3148103 L14.2706514,21.4001224 L18.5013056,25.6307766 C18.7923297,25.9218006 19.2834625,25.9021896 19.5510676,25.5897457 C19.7908745,25.3097647 19.7735482,24.8794642 19.5129879,24.6190942 L15.2823337,20.3884401 L16.9413709,18.729403 C17.3341629,18.9387461 17.7890249,19.049082 18.2723514,19.049082 Z M9.349898,17.4481164 L10.3394941,16.4585203 C10.3396845,16.4583299 10.3397797,16.4582347 10.3399701,16.4580443 C10.3401605,16.4578539 10.3402557,16.4577587 10.3404461,16.4575683 L11.329947,15.4680675 C11.5052088,16.0124167 11.3784034,16.6336869 10.9469604,17.0651299 C10.5155175,17.4965728 9.89424725,17.623283 9.349898,17.4481164 Z M17.9099279,14.5234054 C18.2895825,14.1437508 18.7689106,13.8430165 19.2935537,13.7148783 C19.7599347,13.60102 20.3167551,13.6252006 20.6752754,13.9839113 C21.0083775,14.3170135 21.0533116,14.8252822 20.9661091,15.2664355 C20.8550116,15.8294438 20.5381885,16.3466612 20.1355909,16.7491636 C19.7330885,17.151666 19.2157759,17.4684891 18.6528628,17.5796818 C18.2117095,17.6667891 17.7034408,17.621855 17.3703386,17.2888481 C16.7671563,16.6854753 17.0141983,15.4190398 17.9099279,14.5234054 Z" id="Shape" fill="#000000"></path>
                            <path d="M28.9495172,16.705848 L35.0943424,16.705848 C35.4894193,16.705848 35.8097647,16.3855025 35.8097647,15.9904257 C35.8097647,15.5953488 35.4894193,15.2750034 35.0943424,15.2750034 L28.9495172,15.2750034 C28.5544404,15.2750034 28.2340949,15.5953488 28.2340949,15.9904257 C28.2340949,16.3855025 28.5544404,16.705848 28.9495172,16.705848 Z" id="Shape" fill="#000000"></path>
                            <path d="M41.9219366,15.2750986 L37.8254182,15.2750986 C37.4303414,15.2750986 37.1099959,15.595444 37.1099959,15.9905209 C37.1099959,16.3855977 37.4303414,16.7059432 37.8254182,16.7059432 L41.9219366,16.7059432 C42.3170135,16.7059432 42.6373589,16.3855977 42.6373589,15.9905209 C42.6373589,15.595444 42.3170135,15.2750986 41.9219366,15.2750986 Z" id="Shape" fill="#000000"></path>
                            <path d="M28.9495172,20.5213382 L40.3957976,20.5213382 C40.7908745,20.5213382 41.1112199,20.2009928 41.1112199,19.805916 C41.1112199,19.4108391 40.7908745,19.0904937 40.3957976,19.0904937 L28.9495172,19.0904937 C28.5544404,19.0904937 28.2340949,19.4108391 28.2340949,19.805916 C28.2340949,20.2009928 28.5544404,20.5213382 28.9495172,20.5213382 Z" id="Shape" fill="#000000"></path>
                            <path d="M28.9495172,24.3367333 L32.3633619,24.3367333 C32.7584387,24.3367333 33.0787842,24.0163879 33.0787842,23.621311 C33.0787842,23.2262342 32.7584387,22.9058888 32.3633619,22.9058888 L28.9495172,22.9058888 C28.5544404,22.9058888 28.2340949,23.2262342 28.2340949,23.621311 C28.2340949,24.0163879 28.5544404,24.3367333 28.9495172,24.3367333 Z" id="Shape" fill="#000000"></path>
                            <path d="M41.9219366,22.905984 L35.0943424,22.905984 C34.6992656,22.905984 34.3789202,23.2263294 34.3789202,23.6214062 C34.3789202,24.0164831 34.6992656,24.3368285 35.0943424,24.3368285 L41.9219366,24.3368285 C42.3170135,24.3368285 42.6373589,24.0164831 42.6373589,23.6214062 C42.6373589,23.2263294 42.3170135,22.905984 41.9219366,22.905984 Z" id="Shape" fill="#000000"></path>
                            <path d="M28.9495172,28.1521284 L36.4598803,28.1521284 C36.8549572,28.1521284 37.1753026,27.8317829 37.1753026,27.4367061 C37.1753026,27.0416293 36.8549572,26.7212838 36.4598803,26.7212838 L28.9495172,26.7212838 C28.5544404,26.7212838 28.2340949,27.0416293 28.2340949,27.4367061 C28.2340949,27.8317829 28.5544404,28.1521284 28.9495172,28.1521284 Z" id="Shape" fill="#000000"></path>
                            <path d="M41.9219366,26.721379 L39.1909561,26.721379 C38.7958792,26.721379 38.4755338,27.0417245 38.4755338,27.4368013 C38.4755338,27.8318781 38.7958792,28.1522236 39.1909561,28.1522236 L41.9219366,28.1522236 C42.3170135,28.1522236 42.6373589,27.8318781 42.6373589,27.4368013 C42.6373589,27.0417245 42.3170135,26.721379 41.9219366,26.721379 Z" id="Shape" fill="#000000"></path>
                            <path d="M8.34621243,6.02268462 L19.0293758,6.02268462 C19.4244526,6.02268462 19.744798,5.70233918 19.744798,5.30726234 C19.744798,4.9121855 19.4244526,4.59184007 19.0293758,4.59184007 L8.34621243,4.59184007 C7.95113559,4.59184007 7.63079015,4.9121855 7.63079015,5.30726234 C7.63088535,5.70243438 7.95113559,6.02268462 8.34621243,6.02268462 Z" id="Shape" fill="#000000"></path>
                            <path d="M8.34621243,9.0750578 L12.1616075,9.0750578 C12.5566843,9.0750578 12.8770298,8.75471236 12.8770298,8.35963552 C12.8770298,7.96455868 12.5566843,7.64421325 12.1616075,7.64421325 L8.34621243,7.64421325 C7.95113559,7.64421325 7.63079015,7.96455868 7.63079015,8.35963552 C7.63079015,8.75471236 7.95113559,9.0750578 8.34621243,9.0750578 Z" id="Shape" fill="#000000"></path>
                            <path d="M19.0293758,7.64421325 L15.2139807,7.64421325 C14.8189038,7.64421325 14.4985584,7.96455868 14.4985584,8.35963552 C14.4985584,8.75471236 14.8189038,9.0750578 15.2139807,9.0750578 L19.0293758,9.0750578 C19.4244526,9.0750578 19.744798,8.75471236 19.744798,8.35963552 C19.744798,7.96455868 19.4245478,7.64421325 19.0293758,7.64421325 Z" id="Shape" fill="#000000"></path>
                        </g>
                    </g>
                </g>
                <text id="Recipes" font-family="Raleway-Bold, Raleway" font-size="10" font-weight="bold" letter-spacing="1" fill="#000000">
                    <tspan x="374" y="60">Recipe</tspan>
                    <tspan x="413.23" y="60">s</tspan>
                </text>
                <g id="Group-16" transform="translate(493.000000, 4.000000)" fill-rule="nonzero">
                    <g id="Group-6">
                        <g id="email" transform="translate(0.480620, 0.519380)">
                            <path d="M47.0930765,0.747432313 L6.32187602,0.747432313 C5.77378384,0.747432313 5.32517544,1.19604062 5.32517544,1.74413279 L5.32517544,5.41050044 L42.5153333,5.41050044 C43.0634255,5.41050044 43.5120339,5.85873626 43.5120339,6.40720101 L43.5120339,30.3186994 L47.0930765,30.3186994 C47.6411687,30.3186994 48.089777,29.870091 48.089777,29.3219988 L48.089777,1.74413279 C48.089777,1.19604062 47.6411687,0.747432313 47.0930765,0.747432313 Z" id="Shape" fill="#FFEDB1"></path>
                            <path d="M43.5120339,33.9846943 C43.5120339,34.5327865 43.0634255,34.9813949 42.5153333,34.9813949 L1.74413279,34.9813949 C1.19604062,34.9813949 0.747432313,34.5327865 0.747432313,33.9846943 L0.747432313,6.40720101 C0.747432313,5.85873626 1.19604062,5.41050044 1.74413279,5.41050044 L42.5153333,5.41050044 C43.0634255,5.41050044 43.5120339,5.85873626 43.5120339,6.40720101 L43.5120339,33.9846943 Z" id="Shape" fill="#7FC24D"></path>
                            <path d="M21.4251497,26.0878452 C21.8126519,26.4753475 22.4468142,26.4753475 22.8346891,26.0878452 L42.8070778,6.11508392 C43.0906251,5.83153661 43.095469,5.58636685 42.8637128,5.47458735 C42.754914,5.43360158 42.6379181,5.41050044 42.5153333,5.41050044 L1.74413279,5.41050044 C1.47027299,5.41050044 1.22100473,5.52265261 1.04029456,5.70336278 L21.4251497,26.0878452 Z" id="Shape" fill="#7FC24D"></path>
                            <path d="M4.28562613,33.9846943 L4.28562613,8.94869425 L1.04141238,5.70410793 C0.860329538,5.88444552 0.747432313,6.13296864 0.747432313,6.40720101 L0.747432313,33.9846943 C0.747432313,34.5327865 1.19604062,34.9813949 1.74413279,34.9813949 L5.28232661,34.9813949 C4.73423443,34.9813949 4.28562613,34.5327865 4.28562613,33.9846943 Z" id="Shape" fill="#83D461"></path>
                            <path d="M21.4251497,26.0878452 C21.8126519,26.4753475 22.4468142,26.4753475 22.8346891,26.0878452 L24.2062236,24.7163107 L5.60499682,6.11508392 C5.21712188,5.72758165 5.34864916,5.41050044 5.89674124,5.41050044 L1.74413279,5.41050044 C1.47027299,5.41050044 1.22100473,5.52265261 1.04029456,5.70336278 L21.4251497,26.0878452 Z" id="Shape" fill="#83D461"></path>
                            <path d="M40.066617,28.229913 C40.066617,29.7162078 38.861634,30.9208183 37.3753393,30.9208183 C35.8890444,30.9208183 34.684434,29.7162078 34.684434,28.229913 C34.684434,26.7436183 35.8890444,25.5390079 37.3753393,25.5390079 C38.861634,25.5390079 40.066617,26.7436183 40.066617,28.229913 Z" id="Shape" fill="#FFEDB1"></path>
                            <path d="M47.0930765,-2.57106997e-14 L16.0466926,-2.57106997e-14 C15.6338537,-2.57106997e-14 15.2988877,0.334593259 15.2988877,0.747432313 C15.2988877,1.16027118 15.6338537,1.49486453 16.0466926,1.49486453 L47.0930765,1.49486453 C47.2279571,1.49486453 47.3423448,1.60887967 47.3423448,1.74413279 L47.3423448,29.3219988 C47.3423448,29.4568793 47.2279571,29.5708945 47.0930765,29.5708945 L44.2594661,29.5708945 L44.2594661,6.40720101 C44.2594661,5.44552473 43.4770097,4.66269555 42.5153333,4.66269555 L6.07298033,4.66269555 L6.07298033,1.74413279 C6.07298033,1.60887967 6.18699537,1.49486453 6.32187602,1.49486453 L12.7573945,1.49486453 C13.1702335,1.49486453 13.5048267,1.16027118 13.5048267,0.747432313 C13.5048267,0.334593259 13.1702335,-2.57106997e-14 12.7573945,-2.57106997e-14 L6.32187602,-2.57106997e-14 C5.36019964,-2.57106997e-14 4.57774322,0.782456509 4.57774322,1.74413279 L4.57774322,4.66269555 L1.74413279,4.66269555 C0.782456509,4.66269555 0,5.44552473 0,6.40720101 L0,33.9846943 C0,34.9463707 0.782456509,35.7288272 1.74413279,35.7288272 L31.6943324,35.7288272 C32.1071714,35.7288272 32.4417646,35.3942339 32.4417646,34.9813949 C32.4417646,34.5685559 32.1071714,34.2339627 31.6943324,34.2339627 L1.74413279,34.2339627 C1.60925224,34.2339627 1.49486453,34.1199475 1.49486453,33.9846943 L1.49486453,7.21499421 L20.8964326,26.6161896 C21.2250643,26.9448214 21.6628673,27.1259041 22.129733,27.1259041 C22.5965988,27.1259041 23.0344018,26.9448214 23.3630336,26.6165623 L32.3225332,17.6570626 C32.6142777,17.3649455 32.6142777,16.8917457 32.3225332,16.5996286 C32.0304161,16.307884 31.5572162,16.307884 31.2654717,16.5996286 L22.305972,25.5595008 C22.2433755,25.6217247 22.1688558,25.6310397 22.129733,25.6310397 C22.0906102,25.6310397 22.0160906,25.6217247 21.953494,25.5591281 L2.55229856,6.15793275 L41.7071675,6.15793275 L33.3199789,14.5451213 C33.0278618,14.8372384 33.0278618,15.3104383 33.3199789,15.6021827 C33.4656649,15.7482413 33.6571805,15.8212707 33.8483234,15.8212707 C34.039839,15.8212707 34.2309819,15.7482413 34.3770404,15.6021827 L42.764229,7.21499421 L42.764229,33.9846943 C42.764229,34.1199475 42.6502139,34.2339627 42.5149607,34.2339627 L34.7839178,34.2339627 C34.3710789,34.2339627 34.0364855,34.5685559 34.0364855,34.9813949 C34.0364855,35.3942339 34.3710789,35.7288272 34.7839178,35.7288272 L42.5153333,35.7288272 C43.4770097,35.7288272 44.2594661,34.9463707 44.2594661,33.9846943 L44.2594661,31.0661316 L47.0930765,31.0661316 C48.0547528,31.0661316 48.8372093,30.2836751 48.8372093,29.3219988 L48.8372093,1.74413279 C48.8372093,0.782456509 48.0547528,-2.84217094e-14 47.0930765,-2.57106997e-14 Z" id="Shape" fill="#141313"></path>
                            <g id="Group" transform="translate(4.101563, 24.513990)" fill="#000000">
                                <path d="M7.65913143,5.65939613 L0.782083934,5.65939613 C0.369244976,5.65939613 0.0346516215,5.99398948 0.0346516215,6.40682844 C0.0346516215,6.82003997 0.369244976,7.15463323 0.782083934,7.15463323 L7.65913143,7.15463323 C8.07197039,7.15463323 8.40656364,6.82003997 8.40656364,6.40682844 C8.40656364,5.99398948 8.07197039,5.65939613 7.65913143,5.65939613 Z" id="Shape"></path>
                                <path d="M7.65913143,2.86863462 L0.782083934,2.86863462 C0.369244976,2.86863462 0.0346516215,3.20322788 0.0346516215,3.61606684 C0.0346516215,4.02927847 0.369244976,4.36387173 0.782083934,4.36387173 L7.65913143,4.36387173 C8.07197039,4.36387173 8.40656364,4.02927847 8.40656364,3.61606684 C8.40656364,3.20322788 8.07197039,2.86863462 7.65913143,2.86863462 Z" id="Shape"></path>
                                <path d="M0.782083934,1.57311023 L4.66902979,1.57311023 C5.08186875,1.57311023 5.41683458,1.23851687 5.41683458,0.825677916 C5.41683458,0.412466384 5.08186875,0.0778730287 4.66902979,0.0778730287 L0.782083934,0.0778730287 C0.369244976,0.0778730287 0.0346516215,0.412466384 0.0346516215,0.825677916 C0.0346516215,1.23851687 0.369244976,1.57311023 0.782083934,1.57311023 Z" id="Shape"></path>
                            </g>
                        </g>
                    </g>
                </g>
                <text id="Messages" font-family="Raleway-Bold, Raleway" font-size="10" font-weight="bold" letter-spacing="1" fill="#000000">
                    <tspan x="490" y="60">Message</tspan>
                    <tspan x="539.92" y="60">s</tspan>
                </text>
                <g id="Group-17" transform="translate(605.000000, 9.000000)" fill-rule="nonzero">
                    <g id="Group-9">
                        <g id="Group-8" transform="translate(39.162791, 0.170543)" stroke="#000000">
                            <g id="Group-7">
                                <path d="M23.9018088,3.90233613 C23.5450357,3.90233613 23.255814,3.6111469 23.255814,3.25194677 L23.255814,0 L8.39793282,0 C7.68438663,0 7.10594315,0.582378465 7.10594315,1.30077871 L7.10594315,27.3163529 C7.10594315,28.0347531 7.68438663,28.6171316 8.39793282,28.6171316 L25.8397933,28.6171316 C26.5533395,28.6171316 27.1317829,28.0347531 27.1317829,27.3163529 L27.1317829,3.90233613 L23.9018088,3.90233613 Z" id="Shape" fill="#7FC24D"></path>
                                <path d="M23.255814,3.25194677 C23.255814,3.6111469 23.5450357,3.90233613 23.9018088,3.90233613 L27.1317829,3.90233613 L23.255814,0 L23.255814,3.25194677 Z" id="Shape" fill="#898890"></path>
                                <path d="M7.10594315,11.7070084 L7.10594315,14.9589552 L8.39793282,16.2597339 L12.2739018,16.2597339 C12.2739018,16.2597339 12.9198966,16.2597339 12.9198966,17.5605126 C12.8261186,18.9563363 11.7223098,20.067654 10.3359173,20.16207 L7.10594315,20.16207 L7.12015504,27.3319622 C5.92579055,28.0712781 4.4184477,28.0652299 3.22997416,27.3163529 L2.58397933,27.9667423 L0,25.3651848 L0,17.5605126 L5.81395349,11.7070084 L7.10594315,11.7070084 Z" id="Shape" fill="#FFDAAA"></path>
                                <rect id="Rectangle-path" stroke-width="0.8" fill="#FFEDB1" x="9.04392765" y="3.25194677" width="1.29198966" height="1.30077871" rx="0.645994832"></rect>
                                <rect id="Rectangle-path" stroke-width="0.8" fill="#FFEDB1" x="11.627907" y="3.25194677" width="1.29198966" height="1.30077871" rx="0.645994832"></rect>
                                <rect id="Rectangle-path" stroke-width="0.8" fill="#FFEDB1" x="9.04392765" y="7.1542829" width="14.8578811" height="1.30077871" rx="0.645994832"></rect>
                                <rect id="Rectangle-path" stroke-width="0.8" fill="#FFEDB1" x="9.04392765" y="11.056619" width="14.8578811" height="1.30077871" rx="0.645994832"></rect>
                                <rect id="Rectangle-path" stroke-width="0.8" fill="#FFEDB1" x="14.2118863" y="3.25194677" width="6.45994832" height="1.30077871" rx="0.645994832"></rect>
                                <rect id="Rectangle-path" stroke-width="0.8" fill="#FFEDB1" x="16.1498708" y="14.9589552" width="5.16795866" height="1.30077871" rx="0.645994832"></rect>
                                <rect id="Rectangle-path" stroke-width="0.8" fill="#FFEDB1" x="22.6098191" y="14.9589552" width="1.29198966" height="1.30077871" rx="0.645994832"></rect>
                                <rect id="Rectangle-path" stroke-width="0.8" fill="#FFEDB1" x="16.1498708" y="18.8612913" width="5.16795866" height="1.30077871" rx="0.645994832"></rect>
                                <rect id="Rectangle-path" stroke-width="0.8" fill="#FFEDB1" x="22.6098191" y="18.8612913" width="1.29198966" height="1.30077871" rx="0.645994832"></rect>
                                <rect id="Rectangle-path" stroke-width="0.8" fill="#FFEDB1" x="9.04392765" y="22.1132381" width="14.8578811" height="1.30077871" rx="0.645994832"></rect>
                            </g>
                        </g>
                        <g id="shopping-cart" transform="translate(0.015504, 0.558140)">
                            <path d="M27.3418257,21.9487133 C28.034092,21.9487133 28.5960379,22.5106592 28.5960379,23.2029255 C28.5960379,23.8951918 28.034092,24.4571377 27.3418257,24.4571377 C26.5944426,24.4571377 11.4647732,24.4571377 10.6608036,24.4571377 C10.0787708,24.4571377 9.57341142,24.0563777 9.43990643,23.4902674 L4.65062858,3.13553047 L1.88131828,3.13553047 C1.18905198,3.13553047 0.627106094,2.57358459 0.627106094,1.88131828 C0.627106094,1.18905198 1.18905198,0.627106094 1.88131828,0.627106094 L5.64395485,0.627106094 C6.22598769,0.627106094 6.73134703,1.02786608 6.86485203,1.59422127 C7.27271593,3.32733677 11.2244642,20.1227567 11.6541299,21.9487133 L27.3418257,21.9487133 Z" id="Shape" fill="#7FC24D"></path>
                            <path d="M14.4234402,24.4571377 C15.8087077,24.4571377 16.9318645,25.5802945 16.9318645,26.9655621 C16.9318645,28.3508296 15.8087077,29.4739864 14.4234402,29.4739864 C13.0381726,29.4739864 11.9150158,28.3508296 11.9150158,26.9655621 C11.9150158,25.5802945 13.0381726,24.4571377 14.4234402,24.4571377 Z" id="Shape" fill="#FFEDB1"></path>
                            <path d="M24.8334013,24.4571377 C26.2186689,24.4571377 27.3418257,25.5802945 27.3418257,26.9655621 C27.3418257,28.3508296 26.2186689,29.4739864 24.8334013,29.4739864 C23.4481338,29.4739864 22.324977,28.3508296 22.324977,26.9655621 C22.324977,25.5802945 23.4481338,24.4571377 24.8334013,24.4571377 Z" id="Shape" fill="#FFEDB1"></path>
                            <path d="M24.8334013,27.5926681 C25.1795345,27.5926681 25.4605074,27.3116952 25.4605074,26.9655621 C25.4605074,26.6194289 25.1795345,26.338456 24.8334013,26.338456 C24.4872682,26.338456 24.2062952,26.6194289 24.2062952,26.9655621 C24.2062952,27.3116952 24.4872682,27.5926681 24.8334013,27.5926681 Z" id="Shape" fill="#000000"></path>
                            <path d="M14.4234402,27.5926681 C14.7695733,27.5926681 15.0505463,27.3116952 15.0505463,26.9655621 C15.0505463,26.6194289 14.7695733,26.338456 14.4234402,26.338456 C14.077307,26.338456 13.7963341,26.6194289 13.7963341,26.9655621 C13.7963341,27.3116952 14.077307,27.5926681 14.4234402,27.5926681 Z" id="Shape" fill="#000000"></path>
                            <path d="M31.9750619,7.76656198 C31.8562547,7.61419483 31.673757,7.52527313 31.4807259,7.52527313 L8.90466159,7.52527313 L7.47530061,1.45018284 C7.2739408,0.596240685 6.52067858,0 5.64395485,0 L1.88131828,0 C0.843898615,0 0,0.843898615 0,1.88131828 C0,2.91873795 0.843898615,3.76263657 1.88131828,3.76263657 L4.15384297,3.76263657 L8.82945784,23.6340609 C9.03081765,24.4880031 9.78407987,25.0842438 10.6608036,25.0842438 L11.9167305,25.0842438 C11.5220946,25.6087102 11.2879097,26.2603126 11.2879097,26.9655621 C11.2879097,28.6945131 12.6944891,30.1010925 14.4234402,30.1010925 C16.1523912,30.1010925 17.5589706,28.6945131 17.5589706,26.9655621 C17.5589706,26.2603126 17.3247857,25.6087102 16.9301498,25.0842438 L22.3266917,25.0842438 C21.9320558,25.6087102 21.6978709,26.2603126 21.6978709,26.9655621 C21.6978709,28.6945131 23.1044503,30.1010925 24.8334013,30.1010925 C26.5623524,30.1010925 27.9689318,28.6945131 27.9689318,26.9655621 C27.9689318,26.2603126 27.7347469,25.6087102 27.340111,25.0842438 L27.3418257,25.0842438 C28.3792454,25.0842438 29.223144,24.2403452 29.223144,23.2029255 C29.223144,22.1655058 28.3792454,21.3216072 27.3418257,21.3216072 L12.1509155,21.3216072 L11.5605539,18.8131828 L15.2367184,18.8131828 L15.2379432,18.8131828 L15.238923,18.8131828 L24.3941821,18.8131828 L24.3954069,18.8131828 L24.3966317,18.8131828 L27.9929382,18.8131828 C28.8574138,18.8131828 29.6082263,18.2272306 29.8184049,17.3879863 L32.0892148,8.30450143 C32.1360028,8.11710451 32.0938691,7.91868425 31.9750619,7.76656198 Z M29.7368321,12.5421219 L25.7319268,12.5421219 L26.2022564,8.77948532 L30.6774912,8.77948532 L29.7368321,12.5421219 Z M22.324977,13.7963341 L24.3111395,13.7963341 L23.84081,17.5589706 L20.4436587,17.5589706 L20.4436587,15.6776524 C20.4436587,15.3312742 20.1629307,15.0505463 19.8165526,15.0505463 C19.4701744,15.0505463 19.1894465,15.3312742 19.1894465,15.6776524 L19.1894465,17.5589706 L15.7922952,17.5589706 L15.3219656,13.7963341 L17.3081282,13.7963341 C17.6545064,13.7963341 17.9352343,13.5156061 17.9352343,13.169228 C17.9352343,12.8228498 17.6545064,12.5421219 17.3081282,12.5421219 L15.1651891,12.5421219 L14.6948595,8.77948532 L19.1894465,8.77948532 L19.1894465,10.6608036 C19.1894465,11.0071818 19.4701744,11.2879097 19.8165526,11.2879097 C20.1629307,11.2879097 20.4436587,11.0071818 20.4436587,10.6608036 L20.4436587,8.77948532 L24.9382456,8.77948532 L24.4679161,12.5421219 L22.324977,12.5421219 C21.9785988,12.5421219 21.6978709,12.8228498 21.6978709,13.169228 C21.6978709,13.5156061 21.9785988,13.7963341 22.324977,13.7963341 Z M13.4308488,8.77948532 L13.9011784,12.5421219 L10.0851398,12.5421219 L9.19984237,8.77948532 L13.4308488,8.77948532 Z M16.3047585,26.9655621 C16.3047585,28.0029817 15.4608598,28.8468803 14.4234402,28.8468803 C13.3860205,28.8468803 12.5421219,28.0029817 12.5421219,26.9655621 C12.5421219,25.9281424 13.3860205,25.0842438 14.4234402,25.0842438 C15.4608598,25.0842438 16.3047585,25.9281424 16.3047585,26.9655621 Z M26.7147196,26.9655621 C26.7147196,28.0029817 25.870821,28.8468803 24.8334013,28.8468803 C23.7959817,28.8468803 22.9520831,28.0029817 22.9520831,26.9655621 C22.9520831,25.9281424 23.7959817,25.0842438 24.8334013,25.0842438 C25.870821,25.0842438 26.7147196,25.9281424 26.7147196,26.9655621 Z M27.3418257,22.5758194 C27.6877139,22.5758194 27.9689318,22.8570373 27.9689318,23.2029255 C27.9689318,23.5488137 27.6877139,23.8300316 27.3418257,23.8300316 L10.6608036,23.8300316 C10.3685624,23.8300316 10.117475,23.6311214 10.050355,23.346474 L5.14741419,2.50842438 L1.88131828,2.50842438 C1.53543008,2.50842438 1.25421219,2.22720649 1.25421219,1.88131828 C1.25421219,1.53543008 1.53543008,1.25421219 1.88131828,1.25421219 L5.64395485,1.25421219 C5.93619607,1.25421219 6.18728346,1.4531224 6.25440344,1.73776981 L10.1542195,18.3122329 C10.1544644,18.3127228 10.1544644,18.3132127 10.1547094,18.3137026 L11.1575892,22.5758194 L27.3418257,22.5758194 Z M10.3800757,13.7963341 L14.0579549,13.7963341 L14.5282845,17.5589706 L11.2653731,17.5589706 L10.3800757,13.7963341 Z M28.6016721,17.0834969 C28.5316125,17.3634899 28.2812601,17.5589706 27.9926932,17.5589706 L25.1048207,17.5589706 L25.5751503,13.7963341 L29.423524,13.7963341 L28.6016721,17.0834969 Z" id="Shape" fill="#000000"></path>
                            <path d="M19.8165526,12.5421219 C19.4704194,12.5421219 19.1894465,12.8230948 19.1894465,13.169228 C19.1894465,13.5153611 19.4704194,13.7963341 19.8165526,13.7963341 C20.1626857,13.7963341 20.4436587,13.5153611 20.4436587,13.169228 C20.4436587,12.8230948 20.1626857,12.5421219 19.8165526,12.5421219 Z" id="Shape" fill="#000000"></path>
                        </g>
                    </g>
                </g>
                <text id="Cart/Order" font-family="Raleway-Bold, Raleway" font-size="10" font-weight="bold" letter-spacing="3.028846" fill="#000000">
                    <tspan x="607" y="60">Cart</tspan>
                    <tspan x="639.285384" y="60" letter-spacing="1">/O</tspan>
                    <tspan x="655.455384" y="60">rder</tspan>
                </text>
            </g>
        </g>
    </g>
</svg>