<?xml version="1.0" encoding="iso-8859-1"?>
<!-- Generator: Adobe Illustrator 19.0.0, SVG Export Plug-In . SVG Version: 6.00 Build 0)  -->
<svg version="1.1" id="Capa_1" xmlns="http://www.w3.org/2000/svg" xmlns:xlink="http://www.w3.org/1999/xlink" x="0px" y="0px"
	 viewBox="0 0 496.485 496.485" style="enable-background:new 0 0 496.485 496.485;" xml:space="preserve">
<path style="fill:#E1E6E9;" d="M409.6,362.279v86.885c0,21.721,17.842,39.564,39.564,39.564c21.721,0,39.564-17.842,39.564-39.564
	v-86.885H409.6z"/>
<path style="fill:#193651;" d="M449.164,496.485c-26.376,0-47.321-20.945-47.321-47.321v-86.885c0-4.655,3.103-7.758,7.758-7.758
	h79.127c4.655,0,7.758,3.103,7.758,7.758v86.885C496.485,475.539,475.539,496.485,449.164,496.485z M417.358,370.036v79.127
	c0,17.842,13.964,31.806,31.806,31.806s31.806-13.964,31.806-31.806v-79.127H417.358z"/>
<path style="fill:#FDBF5E;" d="M409.6,449.164V7.758l0,0H125.673v441.406c0,21.721,17.842,39.564,39.564,39.564h283.927
	C427.442,488.727,409.6,470.885,409.6,449.164z"/>
<path style="fill:#193651;" d="M449.164,496.485H165.236c-26.376,0-47.321-20.945-47.321-47.321V7.758
	c0-4.655,3.103-7.758,7.758-7.758H409.6c3.103,0,6.206,2.327,7.758,5.43c0,0.776,0.776,1.552,0.776,2.327v441.406
	c0,17.842,13.964,31.806,31.806,31.806c4.655,0,7.758,3.103,7.758,7.758C456.921,493.382,453.818,496.485,449.164,496.485z
	 M133.43,15.515v433.648c0,17.842,13.964,31.806,31.806,31.806h249.018c-7.758-8.533-12.412-19.394-12.412-31.806V15.515H133.43z"/>
<path style="fill:#FFFFFF;" d="M378.57,449.164V38.788H155.927l0.776,410.376c0,4.655,3.879,8.533,8.533,8.533h214.109
	C378.57,454.594,378.57,452.267,378.57,449.164z"/>
<g>
	<rect x="300.218" y="72.145" style="fill:#193651;" width="15.515" height="15.515"/>
	<rect x="340.558" y="72.145" style="fill:#193651;" width="15.515" height="15.515"/>
	<rect x="179.2" y="72.145" style="fill:#193651;" width="15.515" height="15.515"/>
	<rect x="219.539" y="72.145" style="fill:#193651;" width="15.515" height="15.515"/>
	<rect x="259.879" y="72.145" style="fill:#193651;" width="15.515" height="15.515"/>
</g>
<g>
	<path style="fill:#E1E6E9;" d="M348.315,138.861H186.958c-4.655,0-7.758-3.103-7.758-7.758c0-4.655,3.103-7.758,7.758-7.758
		h161.358c4.655,0,7.758,3.103,7.758,7.758C356.073,135.758,352.97,138.861,348.315,138.861z"/>
	<path style="fill:#E1E6E9;" d="M277.721,181.527h-90.764c-4.655,0-7.758-3.103-7.758-7.758c0-4.655,3.103-7.758,7.758-7.758h90.764
		c4.655,0,7.758,3.103,7.758,7.758C285.479,178.424,282.376,181.527,277.721,181.527z"/>
</g>
<path style="fill:#193651;" d="M348.315,181.527h-37.236c-4.655,0-7.758-3.103-7.758-7.758c0-4.655,3.103-7.758,7.758-7.758h37.236
	c4.655,0,7.758,3.103,7.758,7.758C356.073,178.424,352.97,181.527,348.315,181.527z"/>
<g>
	<path style="fill:#E1E6E9;" d="M348.315,224.194H186.958c-4.655,0-7.758-3.103-7.758-7.758c0-4.655,3.103-7.758,7.758-7.758
		h161.358c4.655,0,7.758,3.103,7.758,7.758C356.073,220.315,352.97,224.194,348.315,224.194z"/>
	<path style="fill:#E1E6E9;" d="M277.721,266.861h-90.764c-4.655,0-7.758-3.103-7.758-7.758c0-4.655,3.103-7.758,7.758-7.758h90.764
		c4.655,0,7.758,3.103,7.758,7.758C285.479,262.982,282.376,266.861,277.721,266.861z"/>
</g>
<path style="fill:#193651;" d="M348.315,266.861h-37.236c-4.655,0-7.758-3.103-7.758-7.758c0-4.655,3.103-7.758,7.758-7.758h37.236
	c4.655,0,7.758,3.103,7.758,7.758C356.073,262.982,352.97,266.861,348.315,266.861z"/>
<g>
	<path style="fill:#E1E6E9;" d="M348.315,308.752H186.958c-4.655,0-7.758-3.103-7.758-7.758c0-4.655,3.103-7.758,7.758-7.758
		h161.358c4.655,0,7.758,3.103,7.758,7.758S352.97,308.752,348.315,308.752z"/>
	<path style="fill:#E1E6E9;" d="M277.721,351.418h-90.764c-4.655,0-7.758-3.103-7.758-7.758s3.103-7.758,7.758-7.758h90.764
		c4.655,0,7.758,3.103,7.758,7.758C285.479,348.315,282.376,351.418,277.721,351.418z"/>
</g>
<path style="fill:#193651;" d="M348.315,351.418h-37.236c-4.655,0-7.758-3.103-7.758-7.758s3.103-7.758,7.758-7.758h37.236
	c4.655,0,7.758,3.103,7.758,7.758C356.073,348.315,352.97,351.418,348.315,351.418z"/>
<path style="fill:#F16051;" d="M86.109,72.145H7.758v252.897c0,51.976,13.188,102.4,38.788,148.17l0,0
	c25.6-45.77,38.788-96.97,38.788-148.17L86.109,72.145z"/>
<path style="fill:#193651;" d="M46.545,481.745c-3.103,0-5.43-1.552-6.982-3.879C13.964,430.545,0,377.794,0,325.042V72.145
	c0-4.655,3.103-7.758,7.758-7.758h78.352c4.655,0,7.758,3.103,7.758,7.758v252.897c0,52.751-13.964,105.503-40.339,152.048
	C51.976,480.194,49.648,481.745,46.545,481.745z M15.515,79.903v245.139c0,45.77,10.861,90.764,31.03,131.879
	c20.17-41.115,31.03-86.885,31.03-131.879V79.903H15.515z"/>
<path style="fill:#FFFFFF;" d="M46.545,412.703c-9.309-27.927-13.964-57.406-13.964-86.885v-230.4h27.927v229.624
	C60.509,354.521,55.855,384,46.545,412.703z"/>
<rect x="20.945" y="7.758" style="fill:#E1E6E9;" width="51.976" height="64.388"/>
<g>
	<path style="fill:#193651;" d="M72.145,79.903h-51.2c-4.655,0-7.758-3.103-7.758-7.758V7.758C13.188,3.103,16.291,0,20.945,0
		h51.976c4.655,0,7.758,3.103,7.758,7.758v64.388C79.903,76.8,76.8,79.903,72.145,79.903z M28.703,64.388h36.461V15.515H28.703
		V64.388z"/>
	<path style="fill:#193651;" d="M224.194,422.012l-4.655,10.861h-8.533L232.727,384h8.533l21.721,48.873h-8.533l-4.655-10.861
		H224.194z M245.915,414.255l-8.533-20.17l-8.533,20.17H245.915z"/>
	<path style="fill:#193651;" d="M279.273,422.788V409.6h-13.188v-6.206h13.188v-13.188h6.206v13.188h13.188v6.206h-13.188v13.188
		H279.273z"/>
	<path style="fill:#193651;" d="M46.545,496.485c-4.655,0-7.758-3.103-7.758-7.758v-14.739c0-4.655,3.103-7.758,7.758-7.758
		s7.758,3.103,7.758,7.758v14.739C54.303,493.382,51.2,496.485,46.545,496.485z"/>
</g>
<g>
</g>
<g>
</g>
<g>
</g>
<g>
</g>
<g>
</g>
<g>
</g>
<g>
</g>
<g>
</g>
<g>
</g>
<g>
</g>
<g>
</g>
<g>
</g>
<g>
</g>
<g>
</g>
<g>
</g>
</svg>
