<?xml version="1.0" encoding="iso-8859-1"?>
<!-- Generator: Adobe Illustrator 19.0.0, SVG Export Plug-In . SVG Version: 6.00 Build 0)  -->
<svg version="1.1" id="Layer_1" xmlns="http://www.w3.org/2000/svg" xmlns:xlink="http://www.w3.org/1999/xlink" x="0px" y="0px"
	 viewBox="0 0 512 512" style="enable-background:new 0 0 512 512;" xml:space="preserve">
<path style="fill:#DCE0E0;" d="M330.311,257.815c77.955-35.78,133.303-126.189,133.303-232.085H48.385
	c0,105.897,55.948,196.305,133.904,232.085c-77.955,35.78-133.904,126.19-133.904,232.087h415.229
	C463.614,384.005,408.266,293.595,330.311,257.815z"/>
<path style="opacity:0.1;enable-background:new    ;" d="M59.023,489.902c-2.837,0-5.552-1.154-7.52-3.195
	c-1.97-2.042-3.024-4.796-2.922-7.631c1.704-47.231,14.68-92.708,37.523-131.511c24.065-40.877,57.325-71.913,96.185-89.75
	c-38.86-17.836-72.12-48.871-96.185-89.749C63.261,129.261,50.285,83.786,48.581,36.555c-0.102-2.835,0.953-5.589,2.922-7.631
	c1.969-2.042,4.683-3.195,7.52-3.195h33.643c5.634,0,10.254,4.466,10.443,10.098c1.598,47.499,14.583,93.227,37.549,132.239
	c20.258,34.413,47.545,62.331,78.908,80.738c3.196,1.876,5.16,5.305,5.16,9.011c0,3.706-1.963,7.136-5.16,9.011
	c-31.364,18.407-58.649,46.326-78.908,80.739c-22.967,39.012-35.952,84.74-37.549,132.239c-0.189,5.632-4.809,10.098-10.443,10.098
	H59.023z"/>
<g>
	<path style="fill:#FFFFFF;" d="M429.318,465.651c-4.028,0-7.514-3.008-8.014-7.108c-4.01-32.927-14.103-63.398-29.998-90.569
		c-2.255-3.854-0.957-8.805,2.895-11.06c3.855-2.254,8.805-0.957,11.06,2.896c17.015,29.088,27.812,61.648,32.093,96.777
		c0.54,4.432-2.616,8.464-7.048,9.002C429.975,465.631,429.645,465.651,429.318,465.651z"/>
	<path style="opacity:0.2;fill:#FFFFFF;enable-background:new    ;" d="M330.311,257.815
		c77.955,35.78,133.303,126.19,133.303,232.086h-44.852C418.762,347.621,330.311,257.815,330.311,257.815"/>
</g>
<path style="fill:#48587C;" d="M154.912,475.615c4.629-26.33,14.847-50.346,29.874-69.625c19.48-24.993,44.772-38.753,71.215-38.753
	c26.445,0,51.737,13.76,71.214,38.751c15.027,19.28,25.245,43.295,29.875,69.627H154.912z"/>
<path style="fill:#FCB63E;" d="M488.345,489.58c0,12.384-10.402,22.42-23.233,22.42H46.888c-12.831,0-23.233-10.036-23.233-22.42
	v-24.457c0-12.383,10.403-22.42,23.233-22.42h418.224c12.831,0,23.233,10.037,23.233,22.42V489.58z"/>
<path style="opacity:0.1;enable-background:new    ;" d="M80.185,489.58v-24.457c0-12.383,10.402-22.42,23.233-22.42h-56.53
	c-12.831,0-23.233,10.037-23.233,22.42v24.457c0,12.384,10.403,22.42,23.233,22.42h56.531C90.587,512,80.185,501.964,80.185,489.58z
	"/>
<g>
	<path style="fill:#48587C;" d="M255.999,242.912c-7.658,0-14.07-5.734-14.914-13.339c-37.895-4.29-72.757-24.312-100.817-57.9
		c-2.6-3.113-5.168-6.387-7.635-9.734c-2.338-3.173-2.692-7.393-0.914-10.911s5.384-5.736,9.326-5.736h229.908
		c3.941,0,7.548,2.218,9.326,5.736c1.778,3.517,1.424,7.736-0.913,10.91c-2.46,3.336-5.027,6.611-7.633,9.731
		c-28.063,33.591-62.925,53.614-100.819,57.903C270.071,237.174,263.66,242.912,255.999,242.912z"/>
	<circle style="fill:#48587C;" cx="255.999" cy="275.477" r="15.012"/>
	<circle style="fill:#48587C;" cx="255.999" cy="323.062" r="15.012"/>
</g>
<path style="fill:#FCB63E;" d="M488.345,46.876c0,12.384-10.402,22.418-23.233,22.418H46.888c-12.831,0-23.233-10.034-23.233-22.418
	V22.418C23.654,10.037,34.057,0,46.888,0h418.224c12.831,0,23.233,10.037,23.233,22.418V46.876z"/>
<path style="opacity:0.1;enable-background:new    ;" d="M80.185,46.876V22.418C80.185,10.037,90.587,0,103.418,0h-56.53
	C34.057,0,23.655,10.037,23.655,22.418v24.458c0,12.384,10.403,22.418,23.233,22.418h56.531
	C90.587,69.294,80.185,59.26,80.185,46.876z"/>
<g>
</g>
<g>
</g>
<g>
</g>
<g>
</g>
<g>
</g>
<g>
</g>
<g>
</g>
<g>
</g>
<g>
</g>
<g>
</g>
<g>
</g>
<g>
</g>
<g>
</g>
<g>
</g>
<g>
</g>
</svg>
