<?xml version="1.0" encoding="UTF-8"?>
<svg width="222px" height="216px" viewBox="0 0 222 216" version="1.1" xmlns="http://www.w3.org/2000/svg" xmlns:xlink="http://www.w3.org/1999/xlink">
    <!-- Generator: Sketch 54.1 (76490) - https://sketchapp.com -->
    <title>Group 9</title>
    <desc>Created with Sketch.</desc>
    <g id="Page-1" stroke="none" stroke-width="1" fill="none" fill-rule="evenodd">
        <g id="Artboard" transform="translate(-50.000000, -1317.000000)">
            <g id="Group-22" transform="translate(50.000000, 43.000000)">
                <g id="Group-18" transform="translate(0.000000, 1274.000000)">
                    <g id="Group-17">
                        <g id="Group-9">
                            <g id="Group-8" transform="translate(113.581395, 71.418605)" fill-rule="nonzero" stroke="#000000">
                                <g id="Group-7">
                                    <path d="M53.0620155,8.6631862 C52.2699792,8.6631862 51.627907,8.01674611 51.627907,7.21932184 L51.627907,0 L18.6434109,0 C17.0593383,0 15.7751938,1.29288019 15.7751938,2.88772873 L15.7751938,60.6423034 C15.7751938,62.237152 17.0593383,63.5300322 18.6434109,63.5300322 L57.3643411,63.5300322 C58.9484136,63.5300322 60.2325581,62.237152 60.2325581,60.6423034 L60.2325581,8.6631862 L53.0620155,8.6631862 Z" id="Shape" stroke-width="3" fill="#7FC24D"></path>
                                    <path d="M51.627907,7.21932184 C51.627907,8.01674611 52.2699792,8.6631862 53.0620155,8.6631862 L60.2325581,8.6631862 L51.627907,0 L51.627907,7.21932184 Z" id="Shape" stroke-width="2" fill="#898890"></path>
                                    <path d="M15.7751938,25.9895586 L15.7751938,33.2088805 L18.6434109,36.0966092 L27.248062,36.0966092 C27.248062,36.0966092 28.6821705,36.0966092 28.6821705,38.9843379 C28.4739833,42.0830665 26.0235277,44.5501919 22.9457364,44.7597954 L15.7751938,44.7597954 L15.8067442,60.6769562 C13.155255,62.3182374 9.8089539,62.3048103 7.17054264,60.6423034 L5.73643411,62.0861678 L0,56.3107103 L0,38.9843379 L12.9069767,25.9895586 L15.7751938,25.9895586 Z" id="Shape" stroke-width="3" fill="#FFDAAA"></path>
                                    <path d="M21.5116279,7.21932184 L21.5116279,7.21932184 C22.3036642,7.21932184 22.9457364,7.8613941 22.9457364,8.65343036 L22.9457364,8.67294205 C22.9457364,9.46497831 22.3036642,10.1070506 21.5116279,10.1070506 L21.5116279,10.1070506 C20.7195916,10.1070506 20.0775194,9.46497831 20.0775194,8.67294205 L20.0775194,8.65343036 C20.0775194,7.8613941 20.7195916,7.21932184 21.5116279,7.21932184 Z" id="Rectangle-path" fill="#FFEDB1"></path>
                                    <rect id="Rectangle-path" fill="#FFEDB1" x="25.8139535" y="7.21932184" width="2.86821705" height="2.88772873" rx="1.43410853"></rect>
                                    <path d="M21.5213837,15.882508 L51.6181511,15.882508 C52.4155754,15.882508 53.0620155,16.5289481 53.0620155,17.3263724 L53.0620155,17.3263724 C53.0620155,18.1237967 52.4155754,18.7702368 51.6181511,18.7702368 L21.5213837,18.7702368 C20.7239595,18.7702368 20.0775194,18.1237967 20.0775194,17.3263724 L20.0775194,17.3263724 C20.0775194,16.5289481 20.7239595,15.882508 21.5213837,15.882508 Z" id="Rectangle-path" fill="#FFEDB1"></path>
                                    <path d="M21.5213837,24.5456942 L51.6181511,24.5456942 C52.4155754,24.5456942 53.0620155,25.1921343 53.0620155,25.9895586 L53.0620155,25.9895586 C53.0620155,26.7869829 52.4155754,27.433423 51.6181511,27.433423 L21.5213837,27.433423 C20.7239595,27.433423 20.0775194,26.7869829 20.0775194,25.9895586 L20.0775194,25.9895586 C20.0775194,25.1921343 20.7239595,24.5456942 21.5213837,24.5456942 Z" id="Rectangle-path" fill="#FFEDB1"></path>
                                    <path d="M32.994252,7.21932184 L44.4476085,7.21932184 C45.2450328,7.21932184 45.8914729,7.86576193 45.8914729,8.6631862 L45.8914729,8.6631862 C45.8914729,9.46061048 45.2450328,10.1070506 44.4476085,10.1070506 L32.994252,10.1070506 C32.1968277,10.1070506 31.5503876,9.46061048 31.5503876,8.6631862 L31.5503876,8.6631862 C31.5503876,7.86576193 32.1968277,7.21932184 32.994252,7.21932184 Z" id="Rectangle-path" fill="#FFEDB1"></path>
                                    <path d="M37.2965775,33.2088805 L45.881717,33.2088805 C46.6791413,33.2088805 47.3255814,33.8553205 47.3255814,34.6527448 L47.3255814,34.6527448 C47.3255814,35.4501691 46.6791413,36.0966092 45.881717,36.0966092 L37.2965775,36.0966092 C36.4991533,36.0966092 35.8527132,35.4501691 35.8527132,34.6527448 L35.8527132,34.6527448 C35.8527132,33.8553205 36.4991533,33.2088805 37.2965775,33.2088805 Z" id="Rectangle-path" fill="#FFEDB1"></path>
                                    <path d="M51.627907,33.2088805 L51.627907,33.2088805 C52.4199432,33.2088805 53.0620155,33.8509527 53.0620155,34.642989 L53.0620155,34.6625007 C53.0620155,35.4545369 52.4199432,36.0966092 51.627907,36.0966092 L51.627907,36.0966092 C50.8358707,36.0966092 50.1937984,35.4545369 50.1937984,34.6625007 L50.1937984,34.642989 C50.1937984,33.8509527 50.8358707,33.2088805 51.627907,33.2088805 Z" id="Rectangle-path" fill="#FFEDB1"></path>
                                    <path d="M37.2965775,41.8720667 L45.881717,41.8720667 C46.6791413,41.8720667 47.3255814,42.5185068 47.3255814,43.315931 L47.3255814,43.315931 C47.3255814,44.1133553 46.6791413,44.7597954 45.881717,44.7597954 L37.2965775,44.7597954 C36.4991533,44.7597954 35.8527132,44.1133553 35.8527132,43.315931 L35.8527132,43.315931 C35.8527132,42.5185068 36.4991533,41.8720667 37.2965775,41.8720667 Z" id="Rectangle-path" fill="#FFEDB1"></path>
                                    <path d="M51.627907,41.8720667 L51.627907,41.8720667 C52.4199432,41.8720667 53.0620155,42.5141389 53.0620155,43.3061752 L53.0620155,43.3256869 C53.0620155,44.1177231 52.4199432,44.7597954 51.627907,44.7597954 L51.627907,44.7597954 C50.8358707,44.7597954 50.1937984,44.1177231 50.1937984,43.3256869 L50.1937984,43.3061752 C50.1937984,42.5141389 50.8358707,41.8720667 51.627907,41.8720667 Z" id="Rectangle-path" fill="#FFEDB1"></path>
                                    <path d="M21.5213837,49.0913885 L51.6181511,49.0913885 C52.4155754,49.0913885 53.0620155,49.7378286 53.0620155,50.5352529 L53.0620155,50.5352529 C53.0620155,51.3326771 52.4155754,51.9791172 51.6181511,51.9791172 L21.5213837,51.9791172 C20.7239595,51.9791172 20.0775194,51.3326771 20.0775194,50.5352529 L20.0775194,50.5352529 C20.0775194,49.7378286 20.7239595,49.0913885 21.5213837,49.0913885 Z" id="Rectangle-path" fill="#FFEDB1"></path>
                                </g>
                            </g>
                            <g id="shopping-cart" transform="translate(26.674419, 72.279070)" fill-rule="nonzero">
                                <path d="M60.6988531,48.7261435 C62.2356843,48.7261435 63.4832041,49.9736634 63.4832041,51.5104946 C63.4832041,53.0473258 62.2356843,54.2948456 60.6988531,54.2948456 C59.0396626,54.2948456 25.4517965,54.2948456 23.666984,54.2948456 C22.3748711,54.2948456 21.2529733,53.4051585 20.9565923,52.1483937 L10.3243954,6.96087765 L4.17652659,6.96087765 C2.63969539,6.96087765 1.39217553,5.71335779 1.39217553,4.17652659 C1.39217553,2.63969539 2.63969539,1.39217553 4.17652659,1.39217553 L12.5295798,1.39217553 C13.8216927,1.39217553 14.9435904,2.2818627 15.2399715,3.53917123 C16.1454294,7.38668762 24.9183105,44.6725199 25.8721683,48.7261435 L60.6988531,48.7261435 Z" id="Shape" fill="#7FC24D"></path>
                                <path d="M32.0200372,54.2948456 C35.0953312,54.2948456 37.5887393,56.7882537 37.5887393,59.8635478 C37.5887393,62.9388418 35.0953312,65.4322499 32.0200372,65.4322499 C28.9447431,65.4322499 26.4513351,62.9388418 26.4513351,59.8635478 C26.4513351,56.7882537 28.9447431,54.2948456 32.0200372,54.2948456 Z" id="Shape" fill="#FFEDB1"></path>
                                <path d="M55.130151,54.2948456 C58.205445,54.2948456 60.6988531,56.7882537 60.6988531,59.8635478 C60.6988531,62.9388418 58.205445,65.4322499 55.130151,65.4322499 C52.0548569,65.4322499 49.5614488,62.9388418 49.5614488,59.8635478 C49.5614488,56.7882537 52.0548569,54.2948456 55.130151,54.2948456 Z" id="Shape" fill="#FFEDB1"></path>
                                <path d="M55.130151,61.2557233 C55.8985666,61.2557233 56.5223265,60.6319634 56.5223265,59.8635478 C56.5223265,59.0951322 55.8985666,58.4713722 55.130151,58.4713722 C54.3617354,58.4713722 53.7379754,59.0951322 53.7379754,59.8635478 C53.7379754,60.6319634 54.3617354,61.2557233 55.130151,61.2557233 Z" id="Shape" fill="#000000"></path>
                                <path d="M32.0200372,61.2557233 C32.7884528,61.2557233 33.4122127,60.6319634 33.4122127,59.8635478 C33.4122127,59.0951322 32.7884528,58.4713722 32.0200372,58.4713722 C31.2516216,58.4713722 30.6278616,59.0951322 30.6278616,59.8635478 C30.6278616,60.6319634 31.2516216,61.2557233 32.0200372,61.2557233 Z" id="Shape" fill="#000000"></path>
                                <path d="M70.9846374,17.2417676 C70.7208854,16.9035125 70.3157406,16.7061064 69.8872116,16.7061064 L19.7683487,16.7061064 L16.5951674,3.21940591 C16.1481486,1.32365432 14.4759064,0 12.5295798,0 L4.17652659,0 C1.87345493,0 0,1.87345493 0,4.17652659 C0,6.47959825 1.87345493,8.35305318 4.17652659,8.35305318 L9.22153139,8.35305318 L19.6013964,52.4676153 C20.0484152,54.3633669 21.7206573,55.6870212 23.666984,55.6870212 L26.4551418,55.6870212 C25.5790501,56.8513367 25.0591595,58.2978941 25.0591595,59.8635478 C25.0591595,63.7018191 28.1817658,66.8244254 32.0200372,66.8244254 C35.8583085,66.8244254 38.9809148,63.7018191 38.9809148,59.8635478 C38.9809148,58.2978941 38.4610243,56.8513367 37.5849325,55.6870212 L49.5652556,55.6870212 C48.6891639,56.8513367 48.1692733,58.2978941 48.1692733,59.8635478 C48.1692733,63.7018191 51.2918796,66.8244254 55.130151,66.8244254 C58.9684223,66.8244254 62.0910286,63.7018191 62.0910286,59.8635478 C62.0910286,58.2978941 61.5711381,56.8513367 60.6950463,55.6870212 L60.6988531,55.6870212 C63.0019247,55.6870212 64.8753797,53.8135662 64.8753797,51.5104946 C64.8753797,49.2074229 63.0019247,47.333968 60.6988531,47.333968 L26.9750324,47.333968 L25.6644296,41.7652659 L33.8255148,41.7652659 L33.8282339,41.7652659 L33.8304091,41.7652659 L54.1550843,41.7652659 L54.1578034,41.7652659 L54.1605224,41.7652659 L62.1443228,41.7652659 C64.0634586,41.7652659 65.7302624,40.4644519 66.1968588,38.6013295 L71.2380569,18.4359932 C71.3419263,18.019972 71.2483895,17.579479 70.9846374,17.2417676 L70.9846374,17.2417676 Z M66.0157672,27.8435106 L57.1248775,27.8435106 L58.1690091,19.4904574 L68.1040305,19.4904574 L66.0157672,27.8435106 Z M49.5614488,30.6278616 L53.9707298,30.6278616 L52.9265981,38.9809148 L45.3849223,38.9809148 L45.3849223,34.8043882 C45.3849223,34.0354287 44.7617062,33.4122127 43.9927467,33.4122127 C43.2237872,33.4122127 42.6005712,34.0354287 42.6005712,34.8043882 L42.6005712,38.9809148 L35.0588953,38.9809148 L34.0147637,30.6278616 L38.4240446,30.6278616 C39.1930041,30.6278616 39.8162201,30.0046456 39.8162201,29.2356861 C39.8162201,28.4667266 39.1930041,27.8435106 38.4240446,27.8435106 L33.6667198,27.8435106 L32.6225881,19.4904574 L42.6005712,19.4904574 L42.6005712,23.666984 C42.6005712,24.4359435 43.2237872,25.0591595 43.9927467,25.0591595 C44.7617062,25.0591595 45.3849223,24.4359435 45.3849223,23.666984 L45.3849223,19.4904574 L55.3629053,19.4904574 L54.3187737,27.8435106 L49.5614488,27.8435106 C48.7924893,27.8435106 48.1692733,28.4667266 48.1692733,29.2356861 C48.1692733,30.0046456 48.7924893,30.6278616 49.5614488,30.6278616 Z M29.8164843,19.4904574 L30.860616,27.8435106 L22.3890103,27.8435106 L20.4236501,19.4904574 L29.8164843,19.4904574 Z M36.1965638,59.8635478 C36.1965638,62.1666194 34.3231088,64.0400743 32.0200372,64.0400743 C29.7169655,64.0400743 27.8435106,62.1666194 27.8435106,59.8635478 C27.8435106,57.5604761 29.7169655,55.6870212 32.0200372,55.6870212 C34.3231088,55.6870212 36.1965638,57.5604761 36.1965638,59.8635478 Z M59.3066775,59.8635478 C59.3066775,62.1666194 57.4332226,64.0400743 55.130151,64.0400743 C52.8270793,64.0400743 50.9536244,62.1666194 50.9536244,59.8635478 C50.9536244,57.5604761 52.8270793,55.6870212 55.130151,55.6870212 C57.4332226,55.6870212 59.3066775,57.5604761 59.3066775,59.8635478 Z M60.6988531,50.1183191 C61.4667249,50.1183191 62.0910286,50.7426228 62.0910286,51.5104946 C62.0910286,52.2783664 61.4667249,52.9026701 60.6988531,52.9026701 L23.666984,52.9026701 C23.0182085,52.9026701 22.4607945,52.4610894 22.3117881,51.8291722 L11.4272595,5.56870212 L4.17652659,5.56870212 C3.40865477,5.56870212 2.78435106,4.9443984 2.78435106,4.17652659 C2.78435106,3.40865477 3.40865477,2.78435106 4.17652659,2.78435106 L12.5295798,2.78435106 C13.1783553,2.78435106 13.7357693,3.22593173 13.8847756,3.85784898 L22.5423672,40.6531569 C22.542911,40.6542445 22.542911,40.6553322 22.5434549,40.6564198 L24.769848,50.1183191 L60.6988531,50.1183191 Z M23.043768,30.6278616 L31.2086599,30.6278616 L32.2527915,38.9809148 L25.0091282,38.9809148 L23.043768,30.6278616 Z M63.495712,37.925363 C63.3401798,38.5469475 62.7843973,38.9809148 62.143779,38.9809148 L55.7327019,38.9809148 L56.7768336,30.6278616 L65.3202232,30.6278616 L63.495712,37.925363 Z" id="Shape" fill="#000000"></path>
                                <path d="M43.9927467,27.8435106 C43.2243311,27.8435106 42.6005712,28.4672705 42.6005712,29.2356861 C42.6005712,30.0041017 43.2243311,30.6278616 43.9927467,30.6278616 C44.7611623,30.6278616 45.3849223,30.0041017 45.3849223,29.2356861 C45.3849223,28.4672705 44.7611623,27.8435106 43.9927467,27.8435106 Z" id="Shape" fill="#000000"></path>
                            </g>
                            <g id="spinner-circle-(1)" fill="#FC9494" fill-rule="nonzero">
                                <path d="M222,111.141929 C221.714298,96.1626592 218.468036,81.2307033 212.47302,67.5770931 C206.497767,53.9114393 197.825316,41.5323037 187.178298,31.3029568 C176.537725,21.0658677 163.918719,12.9729755 150.260875,7.63420445 C136.610335,2.27478716 121.932556,-0.285345394 107.432644,0.0252083199 C92.9305825,0.312535025 78.4929654,3.46925761 65.2900966,9.28977404 C52.0773463,15.0913648 40.1075071,23.5090049 30.2187812,33.8377117 C20.3231814,44.161257 12.5056876,56.3988799 7.3531704,69.6369847 C2.18131998,82.8677773 -0.283450405,97.0839973 0.0258810706,111.141929 C0.313731194,125.202012 3.37396467,139.17865 9.00637529,151.960817 C14.620312,164.752017 22.7626038,176.341004 32.7501438,185.911392 C42.7320987,195.489523 54.5605906,203.050344 67.3471509,208.027376 C80.128126,213.023764 93.8508436,215.39808 107.432644,215.089677 C121.017451,214.80106 134.499577,211.829293 146.832451,206.371806 C159.173059,200.932385 170.353243,193.046815 179.583351,183.376637 C188.821621,173.712051 196.107237,162.265867 200.897579,149.900926 C203.814746,142.405054 205.793608,134.577982 206.836743,126.647248 C207.115571,126.663163 207.396117,126.674347 207.678812,126.674347 C215.587816,126.674347 221.99957,120.25552 221.99957,112.33683 C221.99957,111.934229 221.978519,111.536358 221.946297,111.14236 L222,111.141929 L222,111.141929 Z M199.244803,149.214438 C193.992183,161.133335 186.381769,171.930453 177.052418,180.842743 C167.728222,189.760194 156.689814,196.790235 144.775827,201.405958 C132.864846,206.038456 120.09676,208.227386 107.433073,207.920704 C94.7672381,207.629506 82.2380244,204.843555 70.7760044,199.749528 C59.3083992,194.671416 48.917869,187.318347 40.3455204,178.307988 C31.7667275,169.30193 25.0117014,158.646325 20.5822465,147.154977 C16.1360362,135.66535 14.0420339,123.359766 14.3474988,111.141069 C14.6387859,98.9197912 17.3295401,86.8537901 22.235881,75.8140787 C27.1267554,64.7696359 34.2065795,54.762236 42.8773126,46.5093356 C51.5437495,38.2499832 61.7920731,31.7528726 72.8334883,27.4997492 C83.8736146,23.2294205 95.6874992,21.2254458 107.433073,21.530838 C119.180366,21.8233262 130.755807,24.4247512 141.347403,29.1553188 C151.942865,33.8708317 161.543311,40.6931205 169.457471,49.0449508 C177.378075,57.3916195 183.601653,67.2570765 187.669791,77.8744005 C191.752967,88.4917244 193.662229,99.8419895 193.358483,111.141499 L193.412186,111.141499 C193.379535,111.535498 193.358483,111.933368 193.358483,112.33597 C193.358483,119.731191 198.951368,125.816238 206.132155,126.589181 C204.739304,134.390875 202.433495,142.006753 199.244803,149.214438 Z" id="Shape"></path>
                            </g>
                            <text id="Cart/Order" font-family="Raleway-Bold, Raleway" font-size="23" font-weight="bold" letter-spacing="3.028846" fill="#000000">
                                <tspan x="34" y="167">Cart/Order</tspan>
                            </text>
                        </g>
                    </g>
                </g>
            </g>
        </g>
    </g>
</svg>