<svg height="379pt" viewBox="-8 0 379 379.7" width="379pt" xmlns="http://www.w3.org/2000/svg"><path d="m336.648438 283.398438-.199219.101562-58.898438 29.800781c.6875 3.21875 1.023438 6.507813 1 9.800781v7h-95v-14h80.199219c-3.320312-15.027343-16.613281-25.742187-32-25.800781h-53.5c-10.628906 0-21.121094-2.390625-30.699219-7l-5.5-2.699219c-26.4375-12.878906-57.757812-10.546874-82 6.097657v76.800781l7.300781-4.199219c9.121094-5.210937 19.914063-6.679687 30.097657-4.101562l91.402343 23c17.460938 3.058593 35.445313.539062 51.398438-7.199219l122.898438-84.398438c-7.253907-6.59375-17.882813-7.878906-26.5-3.203124zm0 0"/><path d="m.351562 379.699219h45.699219v-7.097657l-.5-.800781.5-.199219v-106.703124h-45.699219zm0 0"/><path d="m235.351562 45.898438c6.535157-4.285157 12.601563-9.246094 18.097657-14.796876-13.847657-13.65625-30.851563-23.683593-49.5-29.203124 13.503906 12.246093 24.210937 27.253906 31.402343 44zm0 0"/><path d="m100.949219 170.699219c-5.074219-15.722657-7.902344-32.085938-8.398438-48.597657h-39.601562c1.441406 24.1875 10.308593 47.339844 25.402343 66.296876 6.824219-6.753907 14.40625-12.691407 22.597657-17.699219zm0 0"/><path d="m204.050781 228.300781c18.648438-5.519531 35.648438-15.546875 49.5-29.199219-5.519531-5.53125-11.585937-10.492187-18.101562-14.800781-7.257813 16.707031-17.957031 31.699219-31.398438 44zm0 0"/><path d="m177.75 0v64.898438c15.800781-.894532 31.25-5.011719 45.398438-12.097657-9.796876-22.800781-25.296876-41.101562-45.398438-52.800781zm0 0"/><path d="m248.949219 108.101562h39.601562c-1.425781-24.316406-10.371093-47.589843-25.601562-66.601562-6.773438 6.726562-14.289063 12.664062-22.398438 17.699219 5.082031 15.824219 7.910157 32.285156 8.398438 48.902343zm0 0"/><path d="m288.550781 122.101562h-39.601562c-.46875 16.621094-3.332031 33.089844-8.5 48.898438 8.089843 5.066406 15.601562 11.003906 22.402343 17.699219 15.257813-19 24.238282-42.273438 25.699219-66.597657zm0 0"/><path d="m227.949219 66.101562c-15.707031 7.59375-32.773438 11.976563-50.199219 12.898438v29.101562h57.199219c-.449219-14.25-2.800781-28.375-7-42zm0 0"/><path d="m234.949219 122.101562h-57.199219v29.097657c17.425781.910156 34.496094 5.296875 50.199219 12.902343 4.199219-13.625 6.550781-27.75 7-42zm0 0"/><path d="m163.75 79c-17.4375-.886719-34.53125-5.203125-50.300781-12.699219-4.105469 13.574219-6.425781 27.625-6.898438 41.800781h57.199219zm0 0"/><path d="m137.449219 1.898438c-18.785157 5.558593-35.898438 15.695312-49.800781 29.5 5.589843 5.535156 11.722656 10.492187 18.300781 14.800781 7.257812-16.824219 17.992187-31.921875 31.5-44.300781zm0 0"/><path d="m163.75 122.101562h-57.199219c.472657 14.171876 2.792969 28.222657 6.898438 41.796876 15.769531-7.496094 32.863281-11.8125 50.300781-12.699219zm0 0"/><path d="m100.949219 59.5c-8.171875-5.03125-15.753907-10.96875-22.597657-17.699219-15.082031 18.960938-23.953124 42.113281-25.402343 66.300781h39.601562c.484375-16.515624 3.3125-32.878906 8.398438-48.601562zm0 0"/><path d="m223.148438 177.300781c-14.164063-7.042969-29.605469-11.160156-45.398438-12.101562v64.902343c20.101562-11.601562 35.601562-29.902343 45.398438-52.800781zm0 0"/><path d="m163.75 65v-65c-20.199219 11.601562-35.699219 30-45.5 53 14.230469 6.953125 29.691406 11.03125 45.5 12zm0 0"/><path d="m163.75 230.199219v-64.898438c-15.808594.886719-31.28125 4.933594-45.5 11.898438 9.800781 22.902343 25.300781 41.300781 45.5 53zm0 0"/><path d="m87.648438 198.800781c13.902343 13.804688 31.015624 23.941407 49.800781 29.5-13.570313-12.324219-24.3125-27.4375-31.5-44.300781-6.554688 4.339844-12.683594 9.296875-18.300781 14.800781zm0 0"/></svg>