<?xml version="1.0" encoding="utf-8"?>
<svg version="1.1" xmlns:xlink="http://www.w3.org/1999/xlink" width="24px" height="24px" xmlns="http://www.w3.org/2000/svg">
  <g transform="matrix(1 0 0 1 -947 -29 )">
    <path d="M 15.375 15.09375  L 15.7003663091054 15.4290360136511  C 17.1117178329732 13.7976616640146  17.9681893491143 11.6448042023053  17.9681893491143 9.28125  C 17.9681893491143 4.21875  13.965230769234 0.09375  9.00665680473321 0.09375  C 4.09393491124138 0.09375  0.090976331361162 4.21875  0.090976331361162 9.28125  C 0.090976331361162 14.391  4.09393491124138 18.516  9.00665680473321 18.516  C 11.3002833679166 18.516  13.3894468218823 17.6334165473911  14.9725557259262 16.1790360834239  L 14.6471893491143 15.84375  L 15.375 15.09375  Z M 9.00665680473321 17.391  C 4.68491715976415 17.391  1.18269230769147 13.78125  1.18269230769147 9.28125  C 1.18269230769147 4.82775000000004  4.6856449704137 1.21875  9.00665680473321 1.21875  C 13.3735207100581 1.21875  16.8764733727803 4.82849999999996  16.8764733727803 9.28125  C 16.8764733727803 13.78125  13.3735207100581 17.391  9.00665680473321 17.391  Z M 23.1989644970417 23.15625  L 15.7003663083306 15.4290360145444  C 15.4718791437481 15.6931432147145  15.2288490361971 15.943582776741  14.9725557356142 16.1790360934066  L 22.4711538461561 23.90625  L 23.1989644970417 23.15625  Z " fill-rule="nonzero" fill="#c6c6c6" stroke="none" transform="matrix(1 0 0 1 947 29 )" />
  </g>
</svg>