<?xml version="1.0" encoding="utf-8"?>
<svg version="1.1" xmlns:xlink="http://www.w3.org/1999/xlink" width="24px" height="24px" xmlns="http://www.w3.org/2000/svg">
  <g transform="matrix(1 0 0 1 -1227 -28 )">
    <path d="M 12 23.90625  C 18.6097499999996 23.90625  23.90625 18.609  23.90625 12  C 23.90625 5.4375  18.6090000000004 0.09375  12 0.09375  C 5.4375 0.09375  0.09375 5.4375  0.09375 12  C 0.09375 18.60975  5.4375 23.90625  12 23.90625  Z M 12 22.03125  C 6.46875 22.03125  1.96875 17.53125  1.96875 12  C 1.96875 6.46875  6.46875 1.96875  12 1.96875  C 17.53125 1.96875  22.03125 6.46875  22.03125 12  C 22.03125 17.53125  17.53125 22.03125  12 22.03125  Z " fill-rule="nonzero" fill="#000000" stroke="none" transform="matrix(1 0 0 1 1227 28 )" />
  </g>
</svg>