<?xml version="1.0" encoding="utf-8"?>
<svg version="1.1" xmlns:xlink="http://www.w3.org/1999/xlink" width="24px" height="24px" xmlns="http://www.w3.org/2000/svg">
  <g transform="matrix(1 0 0 1 -333 -268 )">
    <path d="M 15.84375 15.09375  L 16.1790360195773 15.4290360070006  C 17.6334165497901 13.7976616581639  18.5159999999996 11.6448041990934  18.5159999999996 9.28125  C 18.5159999999996 4.21875  14.3909999999996 0.09375  9.28125 0.09375  C 4.21875 0.09375  0.09375 4.21875  0.09375 9.28125  C 0.09375 14.3910000000001  4.21875 18.5160000000001  9.28125 18.5160000000001  C 11.6448042023039 18.5160000000001  13.7976616640117 17.6334165473909  15.4290360834239 16.1790360834234  L 15.09375 15.84375  L 15.84375 15.09375  Z M 9.28125 17.3910000000001  C 4.82775000000038 17.3910000000001  1.21875 13.78125  1.21875 9.28125  C 1.21875 4.82775000000004  4.82849999999962 1.21875  9.28125 1.21875  C 13.78125 1.21875  17.3909999999996 4.82849999999996  17.3909999999996 9.28125  C 17.3909999999996 13.78125  13.78125 17.3910000000001  9.28125 17.3910000000001  Z M 23.90625 23.15625  L 16.1790360190353 15.4290360076043  C 15.9435827806556 15.6931432102219  15.6931432166384 15.9435827744792  15.4290360934101 16.1790360934099  L 23.15625 23.90625  L 23.90625 23.15625  Z " fill-rule="nonzero" fill="#000000" stroke="none" transform="matrix(1 0 0 1 333 268 )" />
  </g>
</svg>