<?xml version="1.0" encoding="utf-8"?>
<svg version="1.1" xmlns:xlink="http://www.w3.org/1999/xlink" width="24px" height="24px" xmlns="http://www.w3.org/2000/svg">
  <defs>
    <mask fill="white" id="clip426">
      <path d="M 9.04413321401626 13.0858684989774  C 10.2802750944 10.7070923543907  7.9705725275403 9.62713080925887  7.9705725275403 6.33267539924632  C 7.9705725275403 3.03821998923379  8.44176220733718 0  12.4653986573549 0  C 16.4890351073726 0  16.8083040324349 3.83256936854655  16.8083040324349 6.03807317749554  C 16.8083040324349 8.24357698644451  14.0393036945457 10.0765910314046  15.68798165096 13.0858684989774  C 17.3366596073742 16.0951459665503  21.2030716502384 15.0980668243691  22.8564662488504 17.2914865504136  C 24.5098608474624 19.4849062764582  23.772671262642 24.0000000000003  23.772671262642 24.0000000000003  L 0.173858979992933 24.0000000000003  C 0.173858979992933 24.0000000000003  -0.476178770059547 19.0360038256347  1.30419620007341 16.7682495147055  C 3.08457117020636 14.5004952037765  7.80799133363248 15.4646446435642  9.04413321401626 13.0858684989774  Z " fill-rule="evenodd" />
    </mask>
  </defs>
  <g transform="matrix(1 0 0 1 -1283 -28 )">
    <path d="M 9.04413321401626 13.0858684989774  C 10.2802750944 10.7070923543907  7.9705725275403 9.62713080925887  7.9705725275403 6.33267539924632  C 7.9705725275403 3.03821998923379  8.44176220733718 0  12.4653986573549 0  C 16.4890351073726 0  16.8083040324349 3.83256936854655  16.8083040324349 6.03807317749554  C 16.8083040324349 8.24357698644451  14.0393036945457 10.0765910314046  15.68798165096 13.0858684989774  C 17.3366596073742 16.0951459665503  21.2030716502384 15.0980668243691  22.8564662488504 17.2914865504136  C 24.5098608474624 19.4849062764582  23.772671262642 24.0000000000003  23.772671262642 24.0000000000003  L 0.173858979992933 24.0000000000003  C 0.173858979992933 24.0000000000003  -0.476178770059547 19.0360038256347  1.30419620007341 16.7682495147055  C 3.08457117020636 14.5004952037765  7.80799133363248 15.4646446435642  9.04413321401626 13.0858684989774  Z " fill-rule="nonzero" fill="#ffffff" stroke="none" fill-opacity="0" transform="matrix(1 0 0 1 1283 28 )" />
    <path d="M 9.04413321401626 13.0858684989774  C 10.2802750944 10.7070923543907  7.9705725275403 9.62713080925887  7.9705725275403 6.33267539924632  C 7.9705725275403 3.03821998923379  8.44176220733718 0  12.4653986573549 0  C 16.4890351073726 0  16.8083040324349 3.83256936854655  16.8083040324349 6.03807317749554  C 16.8083040324349 8.24357698644451  14.0393036945457 10.0765910314046  15.68798165096 13.0858684989774  C 17.3366596073742 16.0951459665503  21.2030716502384 15.0980668243691  22.8564662488504 17.2914865504136  C 24.5098608474624 19.4849062764582  23.772671262642 24.0000000000003  23.772671262642 24.0000000000003  L 0.173858979992933 24.0000000000003  C 0.173858979992933 24.0000000000003  -0.476178770059547 19.0360038256347  1.30419620007341 16.7682495147055  C 3.08457117020636 14.5004952037765  7.80799133363248 15.4646446435642  9.04413321401626 13.0858684989774  Z " stroke-width="3" stroke="#c6c6c6" fill="none" transform="matrix(1 0 0 1 1283 28 )" mask="url(#clip426)" />
  </g>
</svg>