<?xml version="1.0" encoding="utf-8"?>
<svg version="1.1" xmlns:xlink="http://www.w3.org/1999/xlink" width="59px" height="27px" xmlns="http://www.w3.org/2000/svg">
  <g transform="matrix(1 0 0 1 -53 -26 )">
    <path d="M 46.1682511951694 18.4983558935669  C 46.1682511951694 18.4983558935669  48.7692970484932 18.4983558935669  48.7692970484932 18.4983558935669  C 55.0606139065349 18.4983558935669  58.7806451612887 15.3055617195538  58.7806451612887 9.95787859837412  C 58.7806451612887 4.00524500211816  55.1657667900035 1.27110609025442  47.4697661301652 1.27110609025442  C 47.4697661301652 1.27110609025442  39.4146584532027 1.27110609025442  39 1.27110609025442  L 39 20.3527465655322  L 32.3793353442124 1.26517520324387  L 25.4035327352976 1.26517520324387  C 25.4035327352976 1.26517520324387  19.3979142776188 17.2232151862985  19.3979142776188 17.2232151862985  C 18.7550928767996 13.2000968308083  14.5886578714744 11.8102923080027  11.2951902005989 10.7684331564826  C 9.12467596448914 10.0745193762482  6.82123261154629 9.05242984809672  6.8509928615822 7.92160739141843  C 6.86884901160738 6.99638901777246  8.08703524649536 6.14234128825319  10.4976154995784 6.26491295313792  C 12.1185571183159 6.34992233362254  13.5470491201413 6.48040184785464  16.3921290237777 7.8464828226181  C 16.3921290237777 7.8464828226181  19.1895925273529 2.99304028565086  19.1895925273529 2.99304028565086  C 16.5845786406899 1.67836033164554  13.0014445361121 0.846059187831656  10.0591478156857 0.842105263157919  C 6.63076701130558 0.842105263157919  3.75592685762604 1.94920417179401  1.98618398869803 3.77394040870672  C 0.760695393462811 5.02750564436246  0.0702212515971041 6.70539363676937  0.0597038029045507 8.4553872223679  C 0.0140714195113105 10.9167053317464  0.920767037336191 12.6663169998589  2.82542303977243 14.050190635654  C 4.43247654182414 15.2245062637429  6.48791781111868 15.9856367634303  8.30130904677208 16.5451171047589  C 10.5372958329608 17.2350769603196  12.3625911686286 17.836073510722  12.3407669852677 19.1151681426641  C 12.3281588020072 19.5867032554412  12.1392331245297 20.0365385053918  11.8110345345885 20.3764701135744  C 11.253525850545 20.9497891912611  10.396430649449 21.1672550483146  9.21395671460414 21.187024671683  C 6.93432156169001 21.2344717677674  5.24592337619833 20.8786185471345  2.54567668941309 19.2911177906437  C 2.54567668941309 19.2911177906437  0.0597038029045507 24.2157309717376  0.0597038029045507 24.2157309717376  C 2.84271940594772 25.7897344406443  5.98613687363468 26.6218210161684  9.18618048123608 26.6315789473684  C 9.18618048123608 26.6315789473684  9.60480799843572 26.6315789473684  9.60480799843572 26.6315789473684  C 12.4300477353827 26.5821548889472  14.7116669049647 25.779508180186  16.5329942072931 24.3165560509169  C 16.6381470907581 24.235500595106  16.7313958742125 24.1504912146215  16.8286126910025 24.0635048718001  C 16.8286126910025 24.0635048718001  16.0111978232926 26.2085090072825  16.0111978232926 26.2085090072825  L 23.3183312159636 26.2085090072825  C 23.3183312159636 26.2085090072825  24.5464375342017 22.4878658893305  24.5464375342017 22.4878658893305  C 25.9334545149723 22.946369099448  27.3864664241337 23.1754332338204  28.8477856730315 23.1659639708701  C 30.2723657677961 23.1729191745133  31.6891433880228 22.9560876293715  33.045964945064 22.5234512113938  C 33.045964945064 22.5234512113938  34.236374946584 26.2085090072825  34.236374946584 26  L 46.1682511951694 26  L 46.1682511951694 18.4983558935669  Z M 28.8299295230099 9.13348530390749  C 28.8299295230099 9.13348530390749  31.3833589762762 17.1816989772245  31.3833589762762 17.1816989772245  C 30.5709737669167 17.4649195939938  29.7163940284408 17.6092939280121  28.8557217397101 17.6087228419841  C 27.9757930998639 17.614019893412  27.1021023107278 17.4613327989377  26.2765000697473 17.1579754291823  C 26.2765000697473 17.1579754291823  28.8299295230099 9.13348530390749  28.8299295230099 9.13348530390749  Z M 52.1956938362055 9.71075830626773  C 52.1956938362055 12.2017308506989  50.3088939837944 12.9865848984284  47.9419620974368 12.9865848984284  L 46.1682511951694 12.9964697101127  L 46.1682511951694 6.51994109459156  C 46.1682511951694 6.51994109459156  47.9419620974368 6.51994109459156  47.9419620974368 6.51994109459156  C 50.3088939837944 6.51994109459156  52.1956938362055 7.31072602933159  52.1956938362055 9.71075830626773  Z " fill-rule="nonzero" fill="#ffffff" stroke="none" transform="matrix(1 0 0 1 53 26 )" />
  </g>
</svg>