<?xml version="1.0" encoding="utf-8"?>
<svg version="1.1" xmlns:xlink="http://www.w3.org/1999/xlink" width="21px" height="22px" xmlns="http://www.w3.org/2000/svg">
  <g transform="matrix(1 0 0 1 -7 -6 )">
    <path d="M 0.511910179029655 1.66336285152781  C 0.783812378519845 1.15363809072556  1.2218670076727 0.898775070668989  1.82608695652137 0.898775070668989  C 1.82608695652137 0.898775070668989  19.2276214833801 0.898775070668989  19.2276214833801 0.898775070668989  C 19.8319058823563 0.898775070668989  20.2548276214845 1.15363809072556  20.4965156010239 1.66336285152781  C 20.7683662404112 2.17308377439764  20.7382035805634 2.66781885045093  20.4058987212296 3.14756040382284  C 20.0433023017928 3.50736656885178  19.695916112533 3.89715977924351  19.3636112531991 4.31694003499796  C 19.0313063938653 4.6767334069188  18.6837913043504 5.08152013999192  18.3213237851687 5.53127464800104  C 17.9587273657319 5.98104194911833  17.5659682864474 6.43079645712746  17.143046547315 6.88055096513664  C 16.1762946291571 7.95996946022341  15.0735529411801 9.18931038901599  13.834950383635 10.5685609584062  C 13.5630997442477 10.838418780455  13.4271099744286 11.1832314228025  13.4271099744286 11.603011678557  C 13.4271099744286 11.603011678557  13.4271099744286 16.7302463319424  13.4271099744286 16.7302463319424  C 13.4271099744286 16.7302463319424  8.85014547314555 20.8230174720689  8.85014547314555 20.8230174720689  C 8.72930148337582 20.9729526988828  8.56313616368425 21.0479203122897  8.3516624040955 21.0479203122897  C 8.17040286445323 21.0479203122897  8.00423754475742 20.987920635348  7.8531793350412 20.8680492125454  C 7.70212112532075 20.748049858662  7.62659846547285 20.5681787589178  7.62659846547285 20.3283079822318  C 7.62659846547285 20.3283079822318  7.62659846547285 11.603011678557  7.62659846547285 11.603011678557  C 7.62659846547285 11.2132184681653  7.47554025575664 10.8684058258178  7.17343672634464 10.5685609584062  C 7.17343672634464 10.5685609584062  3.91064900255757 6.88055096513664  3.91064900255757 6.88055096513664  C 3.48768859335117 6.43079645712746  3.07984818414479 5.98104194911833  2.68710199488487 5.53127464800104  C 2.29435580562919 5.08152013999192  1.94693094629535 4.69172692960019  1.64482741688334 4.36190780993403  C 1.34271099744243 4.00210164490508  1.10102301790297 3.71726309328309  0.919763478260696 3.50736656885178  C 0.738491048593763 3.2674957921658  0.64786127877475 3.14756040382284  0.64786127877475 3.14756040382284  C 0.315537084399693 2.66781885045093  0.270220910489419 2.17308377439764  0.511910179029655 1.66336285152781  Z M 11.9769820971875 16.1005695517567  C 11.9769820971875 16.1005695517567  11.9769820971875 11.6030116785571  11.9769820971875 11.6030116785571  C 11.9769820971875 10.793451005519  12.2488327365706 10.1188064503972  12.7926629156003 9.57910359940779  C 14.0011028132976 8.22982728227225  15.0735529411759 7.03047339884245  16.0101421994902 5.9810419491184  C 16.4029012787705 5.53127464800117  16.7805790281333 5.09651366267337  17.143046547315 4.67673340691893  C 17.5358056265995 4.22697889890974  17.8831918158551 3.83718568851801  18.1853340153454 3.50736656885185  C 18.4874762148356 3.1475604038229  18.7291641943751 2.86272185220092  18.9103979539638 2.65282532776961  C 19.1219232736554 2.4429415964464  19.2276214833758 2.33799973078484  19.2276214833758 2.33799973078484  C 19.2276214833758 2.33799973078484  1.82608695652137 2.33799973078484  1.82608695652137 2.33799973078484  C 1.82608695652137 2.33799973078484  1.91671672634038 2.4579351191278  2.09798915601156 2.69780589581378  C 2.27924869565383 2.90768962713698  2.5209366751933 3.17754744918569  2.82305309462996 3.50736656885185  C 3.12515662404197 3.83718568851801  3.45747437340045 4.22697889890974  3.82001923273431 4.67673340691893  C 4.21275253196958 5.09651366267337  4.62060583120062 5.53127464800117  5.04355335038235 5.9810419491184  C 5.98010393861841 7.03047339884245  7.05259273657066 8.22982728227225  8.26103263427225 9.57910359940779  C 8.80482414322372 10.1787805411227  9.07672634270966 10.8534123031364  9.07672634270966 11.6030116785571  C 9.07672634270966 11.6030116785571  9.07672634270966 18.7092122223719  9.07672634270966 18.7092122223719  L 11.9769820971875 16.1005695517567  Z " fill-rule="nonzero" fill="#ffffff" stroke="none" transform="matrix(1 0 0 1 7 6 )" />
  </g>
</svg>