<svg width="800" height="617" viewBox="0 0 800 617" fill="none" xmlns="http://www.w3.org/2000/svg">
<circle cx="200" cy="310" r="199.5" stroke="#C7C7C7" stroke-dasharray="2 5"/>
<circle cx="600" cy="310" r="199.5" stroke="#C7C7C7" stroke-dasharray="2 5"/>
<path d="M599.961 304.013C599.983 305.672 599.995 307.335 599.999 309L599.499 309.001C599.5 309.334 599.5 309.667 599.5 310C599.5 310.145 599.5 310.29 599.5 310.436C599.5 310.623 599.499 310.811 599.499 310.999L599.999 311C599.995 312.665 599.983 314.328 599.961 315.987L599.461 315.98C599.452 316.643 599.442 317.306 599.431 317.967L599.931 317.976C599.902 319.632 599.864 321.286 599.817 322.935L599.318 322.921C599.299 323.58 599.279 324.239 599.257 324.897L599.757 324.913C599.703 326.578 599.639 328.239 599.567 329.896L599.068 329.874C599.039 330.538 599.008 331.2 598.976 331.862L599.476 331.886C599.396 333.543 599.308 335.196 599.21 336.845L598.711 336.815C598.672 337.474 598.632 338.132 598.59 338.79L599.089 338.822C598.984 340.48 598.869 342.135 598.746 343.786L598.247 343.749C598.198 344.411 598.147 345.073 598.094 345.735L598.593 345.774C598.462 347.429 598.322 349.08 598.173 350.727L597.675 350.682C597.615 351.34 597.554 351.997 597.492 352.654L597.989 352.701C597.833 354.352 597.667 356 597.492 357.643L596.995 357.59C596.924 358.251 596.853 358.912 596.779 359.572L597.276 359.627C597.093 361.279 596.901 362.926 596.699 364.569L596.203 364.508C596.123 365.164 596.041 365.819 595.958 366.474L596.454 366.537C596.245 368.18 596.027 369.819 595.8 371.452L595.305 371.383C595.258 371.723 595.21 372.062 595.163 372.401C595.117 372.721 595.072 373.04 595.026 373.359L595.521 373.431C595.285 375.077 595.039 376.719 594.785 378.355L594.291 378.278C594.24 378.606 594.189 378.933 594.137 379.26C594.086 379.586 594.034 379.912 593.982 380.237L594.476 380.316C594.214 381.95 593.944 383.578 593.665 385.2L593.172 385.116C593.059 385.772 592.944 386.428 592.829 387.083L593.321 387.17C593.031 388.81 592.732 390.443 592.424 392.072L591.932 391.979C591.809 392.629 591.685 393.279 591.559 393.927L592.05 394.023C591.735 395.646 591.41 397.264 591.078 398.876L590.588 398.775C590.453 399.427 590.317 400.077 590.18 400.727L590.669 400.83C590.324 402.46 589.971 404.084 589.608 405.702L589.12 405.592C589.097 405.695 589.074 405.798 589.051 405.9C588.929 406.443 588.805 406.986 588.681 407.528L589.168 407.64C588.798 409.253 588.42 410.859 588.032 412.459L587.546 412.341C587.39 412.987 587.232 413.631 587.073 414.274L587.558 414.394C587.158 416.012 586.748 417.623 586.33 419.228L585.846 419.102C585.789 419.32 585.732 419.539 585.675 419.757C585.564 420.179 585.453 420.601 585.341 421.022L585.824 421.15C585.398 422.75 584.964 424.342 584.52 425.928L584.039 425.793C583.969 426.044 583.898 426.295 583.828 426.545C583.719 426.933 583.609 427.319 583.499 427.706L583.98 427.843C583.523 429.446 583.057 431.043 582.582 432.632L582.103 432.489C581.913 433.123 581.722 433.757 581.529 434.389L582.007 434.535C581.525 436.118 581.034 437.694 580.534 439.262L580.058 439.11C579.856 439.742 579.653 440.373 579.449 441.003L579.924 441.157C579.41 442.743 578.886 444.322 578.353 445.892L577.879 445.731C577.666 446.359 577.452 446.985 577.236 447.609L577.709 447.773C577.169 449.337 576.62 450.892 576.062 452.44L575.592 452.271C575.367 452.896 575.14 453.52 574.912 454.142L575.381 454.314C574.808 455.88 574.225 457.437 573.633 458.985L573.166 458.807C572.93 459.426 572.692 460.043 572.453 460.658L572.919 460.839C572.32 462.381 571.712 463.914 571.095 465.438L570.632 465.25C570.382 465.868 570.13 466.485 569.877 467.1L570.34 467.29C569.706 468.831 569.063 470.364 568.411 471.887L567.951 471.69C567.691 472.298 567.429 472.905 567.166 473.51L567.624 473.709C566.964 475.228 566.294 476.736 565.616 478.235L565.161 478.029C564.886 478.637 564.61 479.243 564.332 479.847L564.786 480.056C564.091 481.569 563.386 483.073 562.673 484.566L562.222 484.35C561.937 484.947 561.65 485.541 561.363 486.135L561.812 486.353C561.088 487.845 560.355 489.327 559.613 490.799L559.167 490.574C558.867 491.169 558.565 491.762 558.263 492.353L558.708 492.581C557.949 494.062 557.182 495.532 556.406 496.991L555.965 496.756C555.655 497.338 555.343 497.919 555.03 498.498L555.47 498.736C554.68 500.199 553.88 501.651 553.072 503.091L552.636 502.846C552.31 503.427 551.983 504.005 551.655 504.581L552.089 504.829C551.267 506.272 550.436 507.703 549.595 509.122L549.165 508.868C548.83 509.434 548.493 509.999 548.154 510.562L548.583 510.82C547.723 512.25 546.855 513.667 545.978 515.072L545.553 514.807C545.202 515.37 544.849 515.931 544.494 516.49L544.916 516.758C544.028 518.157 543.132 519.544 542.226 520.918L541.809 520.643C541.445 521.194 541.08 521.743 540.714 522.29L541.13 522.568C540.2 523.957 539.262 525.332 538.314 526.693L537.904 526.407C537.526 526.951 537.146 527.492 536.765 528.031L537.173 528.32C536.217 529.672 535.253 531.009 534.279 532.333L533.876 532.036C533.481 532.574 533.084 533.109 532.686 533.642L533.086 533.942C532.089 535.276 531.082 536.597 530.067 537.902L529.672 537.595C529.267 538.116 528.86 538.634 528.452 539.15L528.844 539.46C527.813 540.765 526.772 542.054 525.723 543.328L525.337 543.01C524.914 543.523 524.49 544.034 524.064 544.542L524.448 544.863C523.381 546.136 522.306 547.394 521.221 548.635L520.845 548.306C520.412 548.801 519.978 549.294 519.543 549.784L519.916 550.116C518.806 551.365 517.688 552.598 516.56 553.813L516.193 553.473C516.025 553.654 515.857 553.835 515.688 554.016C515.405 554.319 515.121 554.62 514.837 554.921L515.201 555.265C514.064 556.468 512.919 557.654 511.765 558.822L511.409 558.471C510.94 558.946 510.47 559.418 509.998 559.887L510.351 560.241C509.169 561.416 507.979 562.573 506.779 563.711L506.435 563.348C505.957 563.802 505.477 564.253 504.995 564.702L505.336 565.067C504.118 566.202 502.891 567.317 501.656 568.412L501.324 568.038C500.827 568.479 500.329 568.917 499.83 569.351L500.158 569.728C498.906 570.817 497.645 571.886 496.376 572.935L496.058 572.549C495.549 572.97 495.038 573.387 494.527 573.801L494.841 574.19C493.544 575.24 492.238 576.27 490.923 577.278L490.619 576.881C490.094 577.283 489.569 577.682 489.042 578.077L489.342 578.477C488.013 579.474 486.677 580.449 485.332 581.402L485.043 580.994C484.5 581.378 483.957 581.759 483.412 582.136L483.697 582.547C482.331 583.492 480.957 584.415 479.575 585.315L479.302 584.896C478.751 585.255 478.198 585.611 477.644 585.962L477.912 586.384C476.504 587.279 475.087 588.15 473.663 588.997L473.407 588.567C472.839 588.905 472.269 589.239 471.698 589.569L471.949 590.002C470.513 590.833 469.069 591.639 467.617 592.422L467.38 591.981C466.795 592.296 466.21 592.607 465.623 592.914L465.855 593.357C464.383 594.126 462.904 594.871 461.417 595.59L461.199 595.139C460.606 595.426 460.012 595.709 459.417 595.987L459.629 596.44C458.121 597.146 456.606 597.825 455.083 598.478L454.886 598.018C454.279 598.279 453.67 598.535 453.06 598.787L453.251 599.249C451.719 599.883 450.179 600.489 448.632 601.069L448.456 600.601C447.836 600.833 447.215 601.061 446.593 601.285L446.762 601.755C445.201 602.316 443.633 602.85 442.058 603.355L441.905 602.879C441.277 603.081 440.648 603.278 440.018 603.471L440.164 603.949C438.577 604.434 436.983 604.891 435.383 605.32L435.253 604.837C434.615 605.008 433.976 605.174 433.336 605.336L433.459 605.82C431.853 606.226 430.24 606.603 428.621 606.951L428.516 606.462C427.87 606.601 427.224 606.735 426.576 606.865L426.674 607.355C425.05 607.68 423.419 607.975 421.782 608.241L421.702 607.748C421.05 607.854 420.398 607.955 419.744 608.051L419.817 608.546C418.181 608.787 416.539 608.999 414.892 609.181L414.837 608.684C414.181 608.756 413.523 608.824 412.865 608.887L412.913 609.385C411.267 609.542 409.615 609.67 407.959 609.767L407.929 609.268C407.272 609.306 406.613 609.34 405.954 609.369L405.976 609.869C404.322 609.941 402.663 609.984 400.999 609.996L400.995 609.496C400.664 609.499 400.332 609.5 400 609.5C399.86 609.5 399.72 609.5 399.579 609.499C399.388 609.499 399.196 609.498 399.005 609.496L399.001 609.996C397.337 609.984 395.678 609.941 394.024 609.869L394.046 609.369C393.386 609.34 392.728 609.306 392.07 609.268L392.041 609.767C390.385 609.67 388.733 609.542 387.087 609.385L387.135 608.887C386.477 608.824 385.819 608.756 385.163 608.684L385.108 609.181C383.46 608.999 381.819 608.787 380.182 608.546L380.255 608.051C379.602 607.955 378.949 607.854 378.298 607.748L378.218 608.241C376.581 607.975 374.95 607.68 373.326 607.355L373.424 606.865C372.776 606.735 372.13 606.601 371.484 606.462L371.379 606.951C369.76 606.603 368.147 606.226 366.541 605.82L366.664 605.336C366.024 605.174 365.385 605.008 364.747 604.837L364.617 605.32C363.017 604.891 361.423 604.434 359.836 603.949L359.982 603.471C359.352 603.278 358.723 603.081 358.095 602.879L357.942 603.355C356.367 602.85 354.799 602.316 353.238 601.755L353.407 601.285C352.785 601.061 352.163 600.833 351.543 600.601L351.368 601.069C349.821 600.489 348.281 599.883 346.748 599.249L346.939 598.787C346.33 598.535 345.721 598.279 345.114 598.018L344.917 598.478C343.394 597.825 341.879 597.146 340.371 596.44L340.583 595.987C339.988 595.709 339.394 595.426 338.801 595.139L338.583 595.59C337.096 594.871 335.617 594.126 334.145 593.357L334.377 592.914C333.79 592.607 333.205 592.296 332.62 591.981L332.383 592.422C330.931 591.639 329.487 590.833 328.051 590.002L328.302 589.569C327.731 589.239 327.161 588.905 326.593 588.567L326.337 588.997C324.913 588.15 323.496 587.279 322.088 586.384L322.356 585.962C321.802 585.611 321.249 585.255 320.698 584.896L320.425 585.315C319.043 584.415 317.669 583.492 316.303 582.547L316.588 582.136C316.043 581.759 315.5 581.378 314.957 580.994L314.668 581.402C313.323 580.449 311.987 579.474 310.658 578.477L310.958 578.077C310.431 577.682 309.906 577.283 309.381 576.881L309.077 577.278C307.762 576.27 306.456 575.24 305.159 574.19L305.473 573.801C304.962 573.387 304.451 572.97 303.942 572.549L303.624 572.935C302.355 571.886 301.094 570.817 299.842 569.728L300.17 569.351C299.671 568.917 299.173 568.479 298.676 568.038L298.344 568.412C297.109 567.317 295.882 566.202 294.664 565.068L295.005 564.702C294.523 564.253 294.044 563.802 293.565 563.348L293.221 563.711C292.022 562.573 290.831 561.416 289.649 560.241L290.002 559.887C289.53 559.418 289.06 558.946 288.591 558.471L288.235 558.823C287.081 557.654 285.936 556.468 284.799 555.265L285.163 554.921C284.709 554.441 284.257 553.958 283.807 553.473L283.44 553.813C282.313 552.598 281.194 551.365 280.084 550.116L280.458 549.784C280.022 549.294 279.588 548.801 279.155 548.306L278.779 548.635C277.694 547.394 276.619 546.137 275.552 544.863L275.936 544.542C275.51 544.034 275.086 543.523 274.663 543.01L274.277 543.328C273.228 542.054 272.187 540.765 271.156 539.461L271.548 539.15C271.14 538.634 270.733 538.116 270.328 537.595L269.933 537.902C268.918 536.597 267.911 535.277 266.914 533.942L267.314 533.642C266.916 533.109 266.519 532.574 266.124 532.037L265.721 532.333C264.748 531.009 263.783 529.672 262.827 528.32L263.235 528.031C262.854 527.492 262.475 526.951 262.096 526.408L261.686 526.693C260.738 525.332 259.8 523.957 258.87 522.569L259.286 522.29C258.92 521.743 258.555 521.194 258.192 520.643L257.774 520.918C256.868 519.544 255.972 518.157 255.084 516.758L255.506 516.49C255.151 515.931 254.798 515.37 254.447 514.807L254.023 515.072C253.145 513.667 252.277 512.25 251.417 510.82L251.846 510.562C251.507 509.999 251.17 509.435 250.835 508.868L250.405 509.123C249.564 507.703 248.733 506.272 247.911 504.829L248.345 504.581C248.017 504.005 247.69 503.427 247.364 502.847L246.928 503.091C246.12 501.651 245.32 500.199 244.53 498.736L244.97 498.498C244.657 497.919 244.345 497.338 244.036 496.756L243.594 496.991C242.818 495.532 242.051 494.062 241.292 492.581L241.737 492.353C241.435 491.762 241.133 491.169 240.833 490.574L240.387 490.799C239.645 489.327 238.912 487.845 238.188 486.353L238.637 486.135C238.35 485.542 238.063 484.947 237.778 484.35L237.327 484.566C236.614 483.073 235.909 481.57 235.214 480.056L235.668 479.847C235.39 479.243 235.114 478.637 234.839 478.029L234.384 478.235C233.706 476.736 233.036 475.228 232.376 473.71L232.835 473.51C232.571 472.905 232.309 472.298 232.049 471.69L231.589 471.887C230.937 470.364 230.294 468.832 229.66 467.29L230.123 467.1C229.87 466.485 229.618 465.868 229.368 465.25L228.905 465.438C228.288 463.914 227.68 462.381 227.081 460.84L227.547 460.659C227.308 460.043 227.07 459.426 226.834 458.807L226.367 458.986C225.775 457.437 225.192 455.88 224.619 454.314L225.088 454.142C224.86 453.52 224.633 452.896 224.408 452.271L223.938 452.44C223.38 450.893 222.831 449.337 222.291 447.773L222.764 447.61C222.548 446.985 222.334 446.359 222.121 445.731L221.647 445.892C221.114 444.322 220.591 442.743 220.076 441.157L220.551 441.003C220.347 440.373 220.144 439.742 219.942 439.11L219.466 439.262C218.966 437.694 218.475 436.118 217.993 434.535L218.471 434.389C218.278 433.757 218.087 433.123 217.897 432.489L217.418 432.632C216.943 431.043 216.477 429.446 216.02 427.843L216.501 427.706C216.32 427.069 216.14 426.432 215.961 425.793L215.48 425.928C215.036 424.342 214.602 422.75 214.176 421.15L214.659 421.022C214.489 420.383 214.321 419.743 214.154 419.102L213.67 419.228C213.252 417.623 212.842 416.012 212.442 414.394L212.927 414.274C212.768 413.631 212.61 412.987 212.454 412.342L211.968 412.459C211.58 410.859 211.202 409.253 210.832 407.64L211.319 407.528C211.171 406.884 211.025 406.239 210.88 405.592L210.392 405.702C210.029 404.084 209.676 402.46 209.331 400.83L209.82 400.727C209.683 400.077 209.547 399.427 209.412 398.775L208.922 398.876C208.589 397.264 208.265 395.646 207.95 394.023L208.441 393.927C208.315 393.279 208.191 392.629 208.068 391.979L207.576 392.072C207.268 390.443 206.969 388.81 206.679 387.17L207.171 387.083C207.056 386.428 206.941 385.772 206.828 385.116L206.335 385.2C206.056 383.578 205.786 381.95 205.524 380.316L206.018 380.237C205.913 379.585 205.81 378.932 205.709 378.278L205.215 378.355C204.961 376.719 204.715 375.077 204.479 373.43L204.974 373.359C204.879 372.702 204.787 372.043 204.695 371.383L204.2 371.452C203.973 369.819 203.755 368.18 203.546 366.537L204.042 366.474C203.959 365.819 203.877 365.164 203.797 364.508L203.301 364.568C203.099 362.926 202.907 361.279 202.724 359.627L203.221 359.572C203.147 358.912 203.076 358.251 203.005 357.59L202.508 357.642C202.333 356 202.167 354.352 202.011 352.701L202.508 352.654C202.446 351.997 202.385 351.34 202.325 350.682L201.827 350.727C201.678 349.08 201.538 347.429 201.407 345.774L201.906 345.734C201.853 345.073 201.802 344.411 201.753 343.749L201.254 343.786C201.131 342.135 201.016 340.48 200.911 338.822L201.41 338.79C201.368 338.132 201.328 337.474 201.289 336.815L200.79 336.844C200.692 335.195 200.604 333.543 200.524 331.886L201.024 331.862C200.992 331.2 200.961 330.537 200.932 329.874L200.433 329.896C200.361 328.239 200.297 326.578 200.243 324.913L200.743 324.897C200.721 324.239 200.701 323.58 200.682 322.921L200.183 322.935C200.136 321.285 200.098 319.632 200.069 317.976L200.569 317.967C200.558 317.305 200.548 316.643 200.539 315.98L200.039 315.987C200.017 314.328 200.005 312.665 200.001 311L200.501 310.999C200.5 310.666 200.5 310.333 200.5 310C200.5 309.667 200.5 309.334 200.501 309.001L200.001 309C200.005 307.335 200.017 305.672 200.039 304.013L200.539 304.02C200.548 303.357 200.558 302.694 200.569 302.033L200.069 302.024C200.098 300.368 200.136 298.714 200.183 297.065L200.682 297.079C200.701 296.42 200.721 295.761 200.743 295.103L200.243 295.087C200.297 293.422 200.361 291.761 200.433 290.104L200.932 290.126C200.961 289.462 200.992 288.8 201.024 288.138L200.524 288.114C200.604 286.457 200.692 284.804 200.79 283.155L201.289 283.185C201.328 282.526 201.368 281.868 201.41 281.21L200.911 281.178C201.016 279.52 201.131 277.865 201.254 276.214L201.753 276.251C201.802 275.589 201.853 274.927 201.906 274.265L201.407 274.226C201.538 272.571 201.678 270.92 201.827 269.273L202.325 269.318C202.385 268.66 202.446 268.003 202.508 267.346L202.011 267.299C202.167 265.648 202.333 264 202.508 262.357L203.005 262.41C203.076 261.749 203.147 261.088 203.221 260.428L202.724 260.373C202.907 258.721 203.099 257.074 203.301 255.432L203.797 255.492C203.877 254.836 203.959 254.181 204.042 253.526L203.546 253.463C203.755 251.82 203.973 250.181 204.2 248.548L204.695 248.617C204.787 247.957 204.879 247.298 204.974 246.641L204.479 246.57C204.715 244.923 204.961 243.281 205.215 241.645L205.709 241.722C205.81 241.068 205.913 240.415 206.018 239.763L205.524 239.684C205.786 238.05 206.056 236.422 206.335 234.8L206.828 234.884C206.941 234.228 207.056 233.572 207.171 232.917L206.679 232.83C206.969 231.19 207.268 229.557 207.576 227.929L208.068 228.021C208.191 227.371 208.315 226.721 208.441 226.073L207.95 225.977C208.265 224.354 208.589 222.736 208.922 221.124L209.412 221.225C209.547 220.573 209.683 219.923 209.82 219.273L209.331 219.17C209.676 217.54 210.029 215.916 210.392 214.298L210.88 214.408C211.025 213.762 211.171 213.116 211.319 212.472L210.832 212.36C211.202 210.747 211.58 209.141 211.968 207.541L212.454 207.659C212.61 207.013 212.768 206.369 212.927 205.726L212.442 205.606C212.842 203.988 213.252 202.377 213.67 200.772L214.154 200.898C214.321 200.257 214.489 199.617 214.659 198.978L214.176 198.85C214.602 197.25 215.036 195.658 215.48 194.072L215.961 194.207C216.14 193.568 216.32 192.931 216.501 192.294L216.02 192.157C216.477 190.554 216.943 188.957 217.418 187.368L217.897 187.511C218.087 186.877 218.278 186.243 218.471 185.611L217.993 185.465C218.475 183.882 218.966 182.306 219.466 180.738L219.942 180.89C220.144 180.258 220.347 179.627 220.551 178.997L220.076 178.843C220.59 177.257 221.114 175.678 221.647 174.108L222.121 174.269C222.334 173.641 222.548 173.015 222.764 172.391L222.291 172.227C222.831 170.663 223.38 169.107 223.938 167.56L224.408 167.729C224.633 167.104 224.86 166.48 225.088 165.858L224.619 165.686C225.192 164.12 225.775 162.563 226.367 161.015L226.834 161.193C227.07 160.574 227.308 159.957 227.547 159.342L227.081 159.161C227.68 157.619 228.288 156.086 228.905 154.562L229.368 154.75C229.618 154.132 229.87 153.515 230.123 152.9L229.66 152.71C230.294 151.169 230.937 149.636 231.589 148.113L232.049 148.31C232.309 147.702 232.571 147.095 232.834 146.49L232.376 146.291C233.036 144.772 233.706 143.264 234.384 141.765L234.839 141.971C235.114 141.363 235.39 140.757 235.668 140.153L235.214 139.944C235.909 138.431 236.614 136.927 237.327 135.434L237.778 135.65C238.063 135.053 238.35 134.459 238.637 133.865L238.187 133.647C238.912 132.155 239.645 130.673 240.387 129.201L240.833 129.426C241.133 128.831 241.435 128.238 241.737 127.647L241.292 127.419C242.051 125.938 242.818 124.468 243.594 123.009L244.035 123.244C244.345 122.662 244.657 122.081 244.97 121.502L244.53 121.264C245.32 119.801 246.12 118.349 246.928 116.909L247.364 117.154C247.69 116.573 248.017 115.995 248.345 115.419L247.911 115.171C248.733 113.728 249.564 112.297 250.405 110.878L250.835 111.132C251.17 110.566 251.507 110.001 251.846 109.438L251.417 109.18C252.277 107.75 253.145 106.333 254.023 104.928L254.447 105.193C254.798 104.63 255.151 104.069 255.506 103.51L255.084 103.242C255.972 101.843 256.868 100.456 257.774 99.0818L258.191 99.357C258.555 98.8058 258.92 98.2567 259.286 97.7097L258.87 97.4315C259.8 96.0429 260.738 94.668 261.686 93.3069L262.096 93.5925C262.474 93.0491 262.854 92.5079 263.235 91.9688L262.827 91.6802C263.783 90.3285 264.747 88.9908 265.721 87.6673L266.124 87.9635C266.519 87.4259 266.916 86.8906 267.314 86.3577L266.914 86.0584C267.911 84.7235 268.918 83.4035 269.933 82.0984L270.328 82.4054C270.733 81.8844 271.14 81.3658 271.548 80.8496L271.156 80.5395C272.187 79.235 273.228 77.9459 274.277 76.6724L274.663 76.9903C275.086 76.4769 275.51 75.9661 275.936 75.4579L275.552 75.1368C276.619 73.8635 277.694 72.6062 278.779 71.3652L279.155 71.6942C279.588 71.1988 280.022 70.706 280.457 70.2159L280.084 69.8838C281.194 68.6346 282.312 67.4024 283.44 66.1873L283.807 66.5274C284.257 66.0418 284.709 65.5589 285.163 65.0787L284.799 64.7354C285.936 63.532 287.081 62.346 288.235 61.1776L288.591 61.5289C289.06 61.0542 289.53 60.5823 290.002 60.1134L289.649 59.7588C290.831 58.5839 292.021 57.4273 293.221 56.2892L293.565 56.6519C294.043 56.1978 294.523 55.7466 295.005 55.2985L294.664 54.9325C295.882 53.7984 297.109 52.6833 298.344 51.5876L298.676 51.9616C299.173 51.521 299.671 51.0834 300.17 50.6491L299.842 50.2718C301.094 49.1831 302.355 48.1143 303.624 47.0655L303.942 47.4509C304.451 47.0302 304.962 46.6128 305.473 46.1986L305.159 45.8099C306.456 44.7597 307.762 43.7304 309.077 42.7222L309.381 43.119C309.906 42.7168 310.431 42.318 310.958 41.9226L310.658 41.5226C311.987 40.5261 313.323 39.5512 314.668 38.598L314.957 39.006C315.5 38.6218 316.043 38.2411 316.588 37.8641L316.303 37.453C317.669 36.5077 319.043 35.5849 320.425 34.6848L320.698 35.1038C321.249 34.7448 321.802 34.3894 322.356 34.0377L322.088 33.6156C323.496 32.7212 324.913 31.8503 326.337 31.0033L326.593 31.4331C327.161 31.0952 327.731 30.7611 328.302 30.4309L328.051 29.9981C329.487 29.1673 330.931 28.3606 332.383 27.5784L332.62 28.0186C333.205 27.7038 333.79 27.393 334.377 27.0862L334.145 26.6431C335.617 25.8737 337.096 25.1293 338.583 24.4104L338.801 24.8605C339.394 24.5739 339.988 24.2913 340.583 24.0127L340.371 23.5599C341.879 22.8544 343.394 22.175 344.917 21.522L345.114 21.9815C345.721 21.7211 346.33 21.4649 346.94 21.2129L346.749 20.7508C348.281 20.1174 349.821 19.5106 351.368 18.9309L351.544 19.3991C352.164 19.1668 352.785 18.9388 353.407 18.7152L353.238 18.2447C354.799 17.6838 356.367 17.1504 357.942 16.6448L358.095 17.1208C358.723 16.9192 359.352 16.7221 359.982 16.5294L359.836 16.0512C361.423 15.5659 363.017 15.1087 364.617 14.6801L364.747 15.1631C365.385 14.9923 366.024 14.826 366.664 14.6643L366.541 14.1796C368.147 13.7738 369.76 13.3967 371.379 13.0487L371.484 13.5376C372.13 13.3988 372.776 13.2647 373.424 13.1353L373.326 12.645C374.95 12.3202 376.581 12.0246 378.218 11.7587L378.298 12.2523C378.95 12.1464 379.602 12.0452 380.256 11.9488L380.183 11.4542C381.819 11.2128 383.461 11.001 385.108 10.8191L385.163 11.3161C385.819 11.2436 386.477 11.1759 387.135 11.1129L387.087 10.6152C388.733 10.4579 390.385 10.3304 392.041 10.2332L392.071 10.7323C392.728 10.6937 393.387 10.6599 394.046 10.6309L394.024 10.1314C395.678 10.0586 397.337 10.0159 399.001 10.0037L399.005 10.5036C399.336 10.5012 399.668 10.5 400 10.5C400.332 10.5 400.664 10.5012 400.995 10.5037L400.999 10.0037C402.663 10.0159 404.322 10.0586 405.976 10.1314L405.954 10.6309C406.614 10.6599 407.272 10.6937 407.93 10.7323L407.959 10.2332C409.615 10.3304 411.267 10.4579 412.913 10.6152L412.865 11.113C413.523 11.1759 414.181 11.2436 414.837 11.3161L414.892 10.8191C416.54 11.001 418.181 11.2128 419.818 11.4542L419.745 11.9489C420.398 12.0453 421.051 12.1464 421.702 12.2523L421.782 11.7588C423.419 12.0247 425.05 12.3202 426.674 12.645L426.576 13.1353C427.224 13.2647 427.87 13.3988 428.516 13.5376L428.621 13.0487C430.24 13.3967 431.853 13.7738 433.459 14.1796L433.336 14.6644C433.976 14.8261 434.615 14.9923 435.253 15.1631L435.383 14.6802C436.983 15.1088 438.577 15.5659 440.164 16.0513L440.018 16.5294C440.648 16.7221 441.277 16.9193 441.905 17.1209L442.058 16.6448C443.633 17.1504 445.201 17.6838 446.762 18.2447L446.593 18.7153C447.215 18.9388 447.837 19.1668 448.457 19.3991L448.632 18.9309C450.179 19.5107 451.719 20.1174 453.252 20.7508L453.061 21.2129C453.67 21.4649 454.279 21.7211 454.886 21.9815L455.083 21.522C456.606 22.175 458.121 22.8544 459.629 23.5599L459.417 24.0128C460.012 24.2913 460.606 24.5739 461.199 24.8605L461.417 24.4104C462.904 25.1294 464.383 25.8737 465.855 26.6431L465.623 27.0862C466.21 27.393 466.795 27.7038 467.38 28.0186L467.617 27.5784C469.069 28.3606 470.513 29.1673 471.949 29.9981L471.698 30.4309C472.269 30.7611 472.839 31.0952 473.407 31.4331L473.663 31.0033C475.087 31.8503 476.504 32.7212 477.912 33.6156L477.644 34.0377C478.198 34.3894 478.751 34.7448 479.302 35.1038L479.575 34.6848C480.957 35.5849 482.331 36.5077 483.697 37.453L483.412 37.8641C483.957 38.2411 484.5 38.6218 485.043 39.006L485.332 38.598C486.677 39.5512 488.013 40.5261 489.342 41.5226L489.042 41.9226C489.569 42.318 490.094 42.7168 490.619 43.119L490.923 42.7222C492.238 43.7304 493.544 44.7597 494.841 45.8099L494.527 46.1986C495.038 46.6127 495.549 47.0302 496.058 47.4509L496.376 47.0654C497.645 48.1142 498.906 49.1831 500.158 50.2717L499.83 50.649C500.329 51.0834 500.827 51.5209 501.324 51.9616L501.656 51.5875C502.891 52.6833 504.118 53.7983 505.336 54.9325L504.995 55.2984C505.477 55.7466 505.956 56.1977 506.435 56.6519L506.779 56.2892C507.978 57.4272 509.169 58.5838 510.351 59.7588L509.998 60.1134C510.47 60.5822 510.94 61.0541 511.409 61.5288L511.765 61.1775C512.919 62.3459 514.064 63.532 515.201 64.7353L514.837 65.0786C515.291 65.5588 515.743 66.0417 516.193 66.5273L516.56 66.1872C517.688 67.4023 518.806 68.6345 519.916 69.8837L519.542 70.2158C519.978 70.7059 520.412 71.1987 520.845 71.694L521.221 71.3651C522.306 72.6061 523.381 73.8634 524.448 75.1367L524.064 75.4577C524.49 75.966 524.914 76.4768 525.337 76.9902L525.723 76.6723C526.772 77.9458 527.813 79.2349 528.844 80.5394L528.452 80.8495C528.86 81.3657 529.267 81.8843 529.672 82.4053L530.067 82.0983C531.082 83.4034 532.089 84.7234 533.086 86.0583L532.686 86.3576C533.084 86.8905 533.481 87.4258 533.876 87.9634L534.279 87.6671C535.252 88.9907 536.217 90.3284 537.173 91.6801L536.765 91.9687C537.146 92.5077 537.525 93.049 537.904 93.5924L538.314 93.3067C539.262 94.6679 540.2 96.0428 541.13 97.4314L540.714 97.7095C541.08 98.2565 541.445 98.8057 541.809 99.3569L542.226 99.0817C543.132 100.456 544.028 101.843 544.916 103.242L544.494 103.51C544.849 104.069 545.202 104.63 545.553 105.193L545.977 104.928C546.855 106.333 547.723 107.75 548.583 109.18L548.154 109.438C548.493 110.001 548.829 110.565 549.165 111.132L549.595 110.877C550.436 112.297 551.267 113.728 552.089 115.171L551.655 115.419C551.983 115.995 552.31 116.573 552.636 117.153L553.072 116.909C553.88 118.349 554.68 119.801 555.47 121.264L555.03 121.502C555.343 122.081 555.655 122.662 555.964 123.244L556.406 123.009C557.182 124.468 557.949 125.938 558.708 127.419L558.263 127.647C558.565 128.238 558.867 128.831 559.167 129.426L559.613 129.201C560.355 130.673 561.088 132.155 561.812 133.647L561.363 133.865C561.65 134.458 561.937 135.053 562.222 135.649L562.673 135.434C563.386 136.927 564.091 138.43 564.786 139.944L564.332 140.153C564.61 140.757 564.886 141.363 565.161 141.971L565.616 141.765C566.294 143.264 566.964 144.772 567.624 146.29L567.165 146.49C567.429 147.095 567.691 147.702 567.951 148.31L568.411 148.113C569.063 149.636 569.706 151.168 570.34 152.71L569.877 152.9C570.13 153.515 570.382 154.132 570.632 154.75L571.095 154.562C571.712 156.086 572.32 157.619 572.919 159.16L572.453 159.341C572.692 159.957 572.93 160.574 573.166 161.193L573.633 161.014C574.225 162.563 574.808 164.12 575.381 165.686L574.912 165.858C575.14 166.48 575.367 167.104 575.592 167.729L576.062 167.56C576.62 169.107 577.169 170.663 577.709 172.227L577.236 172.39C577.452 173.015 577.666 173.641 577.879 174.269L578.353 174.108C578.886 175.678 579.409 177.257 579.924 178.843L579.449 178.997C579.653 179.627 579.856 180.258 580.057 180.89L580.534 180.738C581.034 182.306 581.525 183.882 582.007 185.465L581.529 185.611C581.721 186.243 581.913 186.877 582.103 187.511L582.582 187.368C583.057 188.957 583.523 190.554 583.98 192.157L583.499 192.294C583.68 192.931 583.86 193.568 584.039 194.207L584.52 194.072C584.964 195.658 585.398 197.25 585.824 198.85L585.341 198.978C585.51 199.617 585.679 200.257 585.846 200.898L586.33 200.772C586.748 202.377 587.158 203.988 587.558 205.606L587.073 205.726C587.133 205.97 587.194 206.215 587.254 206.459C587.352 206.858 587.449 207.258 587.546 207.658L588.032 207.541C588.42 209.141 588.798 210.747 589.168 212.36L588.681 212.472C588.829 213.116 588.975 213.761 589.12 214.408L589.608 214.298C589.971 215.916 590.324 217.54 590.669 219.17L590.18 219.273C590.317 219.923 590.453 220.573 590.588 221.225L591.078 221.124C591.41 222.736 591.735 224.354 592.05 225.977L591.559 226.073C591.685 226.721 591.809 227.371 591.932 228.021L592.424 227.928C592.732 229.557 593.031 231.19 593.321 232.83L592.829 232.917C592.944 233.572 593.059 234.228 593.172 234.884L593.665 234.8C593.944 236.422 594.214 238.05 594.476 239.684L593.982 239.763C594.087 240.415 594.19 241.068 594.291 241.722L594.785 241.645C595.039 243.281 595.285 244.923 595.521 246.57L595.026 246.641C595.121 247.298 595.213 247.957 595.305 248.617L595.8 248.548C596.027 250.181 596.245 251.82 596.454 253.463L595.958 253.526C596.041 254.181 596.123 254.836 596.203 255.492L596.699 255.432C596.901 257.074 597.093 258.721 597.276 260.373L596.779 260.428C596.853 261.088 596.924 261.749 596.995 262.41L597.492 262.358C597.667 264 597.833 265.648 597.989 267.299L597.492 267.346C597.554 268.003 597.615 268.66 597.675 269.318L598.173 269.273C598.322 270.92 598.462 272.571 598.593 274.226L598.094 274.266C598.147 274.927 598.198 275.589 598.247 276.251L598.746 276.214C598.869 277.865 598.984 279.52 599.089 281.178L598.59 281.21C598.632 281.868 598.672 282.526 598.711 283.185L599.21 283.156C599.308 284.805 599.396 286.457 599.476 288.114L598.976 288.138C599.008 288.8 599.039 289.463 599.068 290.126L599.567 290.104C599.639 291.761 599.703 293.422 599.757 295.087L599.257 295.103C599.269 295.469 599.281 295.834 599.292 296.199C599.301 296.492 599.309 296.786 599.318 297.079L599.817 297.065C599.864 298.715 599.902 300.368 599.931 302.024L599.431 302.033C599.442 302.695 599.452 303.357 599.461 304.02L599.961 304.013Z" stroke="#C7C7C7" stroke-dasharray="2 5"/>
<mask id="mask0" mask-type="alpha" maskUnits="userSpaceOnUse" x="0" y="210" width="800" height="200">
<circle cx="100" cy="310" r="100" fill="#B6B6B6"/>
<circle cx="300" cy="310" r="100" fill="#B6B6B6"/>
<circle cx="500" cy="310" r="100" fill="#B6B6B6"/>
<circle cx="700" cy="310" r="100" fill="#B6B6B6"/>
</mask>
<g mask="url(#mask0)">
<rect x="-25" y="172" width="850" height="275.957" fill="url(#paint0_linear)" fill-opacity="0.8"/>
</g>
<path d="M81.16 310.324C81.16 311.596 80.948 312.764 80.524 313.828C80.1 314.892 79.504 315.808 78.736 316.576C77.968 317.344 77.044 317.94 75.964 318.364C74.884 318.788 73.688 319 72.376 319H65.752V301.648H72.376C73.688 301.648 74.884 301.864 75.964 302.296C77.044 302.72 77.968 303.316 78.736 304.084C79.504 304.844 80.1 305.756 80.524 306.82C80.948 307.884 81.16 309.052 81.16 310.324ZM77.86 310.324C77.86 309.372 77.732 308.52 77.476 307.768C77.22 307.008 76.856 306.368 76.384 305.848C75.912 305.32 75.336 304.916 74.656 304.636C73.984 304.356 73.224 304.216 72.376 304.216H69.004V316.432H72.376C73.224 316.432 73.984 316.292 74.656 316.012C75.336 315.732 75.912 315.332 76.384 314.812C76.856 314.284 77.22 313.644 77.476 312.892C77.732 312.132 77.86 311.276 77.86 310.324ZM88.6017 306.496C89.3777 306.496 90.0897 306.62 90.7377 306.868C91.3937 307.116 91.9577 307.48 92.4297 307.96C92.9017 308.432 93.2697 309.016 93.5337 309.712C93.7977 310.4 93.9297 311.188 93.9297 312.076C93.9297 312.3 93.9177 312.488 93.8937 312.64C93.8777 312.784 93.8417 312.9 93.7857 312.988C93.7377 313.068 93.6697 313.128 93.5817 313.168C93.4937 313.2 93.3817 313.216 93.2457 313.216H85.6377C85.7257 314.48 86.0657 315.408 86.6577 316C87.2497 316.592 88.0337 316.888 89.0097 316.888C89.4897 316.888 89.9017 316.832 90.2457 316.72C90.5977 316.608 90.9017 316.484 91.1577 316.348C91.4217 316.212 91.6497 316.088 91.8417 315.976C92.0417 315.864 92.2337 315.808 92.4177 315.808C92.5377 315.808 92.6417 315.832 92.7297 315.88C92.8177 315.928 92.8937 315.996 92.9577 316.084L93.8217 317.164C93.4937 317.548 93.1257 317.872 92.7177 318.136C92.3097 318.392 91.8817 318.6 91.4337 318.76C90.9937 318.912 90.5417 319.02 90.0777 319.084C89.6217 319.148 89.1777 319.18 88.7457 319.18C87.8897 319.18 87.0937 319.04 86.3577 318.76C85.6217 318.472 84.9817 318.052 84.4377 317.5C83.8937 316.94 83.4657 316.252 83.1537 315.436C82.8417 314.612 82.6857 313.66 82.6857 312.58C82.6857 311.74 82.8217 310.952 83.0937 310.216C83.3657 309.472 83.7537 308.828 84.2577 308.284C84.7697 307.732 85.3897 307.296 86.1177 306.976C86.8537 306.656 87.6817 306.496 88.6017 306.496ZM88.6617 308.62C87.7977 308.62 87.1217 308.864 86.6337 309.352C86.1457 309.84 85.8337 310.532 85.6977 311.428H91.2657C91.2657 311.044 91.2137 310.684 91.1097 310.348C91.0057 310.004 90.8457 309.704 90.6297 309.448C90.4137 309.192 90.1417 308.992 89.8137 308.848C89.4857 308.696 89.1017 308.62 88.6617 308.62ZM96.862 319V308.92L95.794 308.752C95.562 308.712 95.374 308.632 95.23 308.512C95.094 308.392 95.026 308.224 95.026 308.008V306.796H96.862V306.4C96.862 305.648 96.986 304.952 97.234 304.312C97.482 303.664 97.858 303.104 98.362 302.632C98.866 302.16 99.502 301.792 100.27 301.528C101.038 301.256 101.946 301.12 102.994 301.12C103.33 301.12 103.674 301.14 104.026 301.18C104.378 301.212 104.682 301.268 104.938 301.348L104.842 302.884C104.826 303.068 104.726 303.18 104.542 303.22C104.358 303.252 104.13 303.268 103.858 303.268C103.082 303.268 102.43 303.336 101.902 303.472C101.382 303.608 100.958 303.812 100.63 304.084C100.31 304.348 100.078 304.684 99.934 305.092C99.798 305.492 99.73 305.96 99.73 306.496V306.796H107.362V319H104.398V308.908H99.826V319H96.862ZM110.748 319V306.688H112.56C112.944 306.688 113.196 306.868 113.316 307.228L113.52 308.2C113.768 307.944 114.028 307.712 114.3 307.504C114.58 307.296 114.872 307.116 115.176 306.964C115.488 306.812 115.82 306.696 116.172 306.616C116.524 306.536 116.908 306.496 117.324 306.496C117.996 306.496 118.592 306.612 119.112 306.844C119.632 307.068 120.064 307.388 120.408 307.804C120.76 308.212 121.024 308.704 121.2 309.28C121.384 309.848 121.476 310.476 121.476 311.164V319H118.512V311.164C118.512 310.412 118.336 309.832 117.984 309.424C117.64 309.008 117.12 308.8 116.424 308.8C115.912 308.8 115.432 308.916 114.984 309.148C114.536 309.38 114.112 309.696 113.712 310.096V319H110.748ZM129.477 306.496C130.253 306.496 130.965 306.62 131.613 306.868C132.269 307.116 132.833 307.48 133.305 307.96C133.777 308.432 134.145 309.016 134.409 309.712C134.673 310.4 134.805 311.188 134.805 312.076C134.805 312.3 134.793 312.488 134.769 312.64C134.753 312.784 134.717 312.9 134.661 312.988C134.613 313.068 134.545 313.128 134.457 313.168C134.369 313.2 134.257 313.216 134.121 313.216H126.513C126.601 314.48 126.941 315.408 127.533 316C128.125 316.592 128.909 316.888 129.885 316.888C130.365 316.888 130.777 316.832 131.121 316.72C131.473 316.608 131.777 316.484 132.033 316.348C132.297 316.212 132.525 316.088 132.717 315.976C132.917 315.864 133.109 315.808 133.293 315.808C133.413 315.808 133.517 315.832 133.605 315.88C133.693 315.928 133.769 315.996 133.833 316.084L134.697 317.164C134.369 317.548 134.001 317.872 133.593 318.136C133.185 318.392 132.757 318.6 132.309 318.76C131.869 318.912 131.417 319.02 130.953 319.084C130.497 319.148 130.053 319.18 129.621 319.18C128.765 319.18 127.969 319.04 127.233 318.76C126.497 318.472 125.857 318.052 125.313 317.5C124.769 316.94 124.341 316.252 124.029 315.436C123.717 314.612 123.561 313.66 123.561 312.58C123.561 311.74 123.697 310.952 123.969 310.216C124.241 309.472 124.629 308.828 125.133 308.284C125.645 307.732 126.265 307.296 126.993 306.976C127.729 306.656 128.557 306.496 129.477 306.496ZM129.537 308.62C128.673 308.62 127.997 308.864 127.509 309.352C127.021 309.84 126.709 310.532 126.573 311.428H132.141C132.141 311.044 132.089 310.684 131.985 310.348C131.881 310.004 131.721 309.704 131.505 309.448C131.289 309.192 131.017 308.992 130.689 308.848C130.361 308.696 129.977 308.62 129.537 308.62Z" fill="#212121"/>
<path d="M255.088 312.22V319H251.86V301.648H257.152C258.336 301.648 259.348 301.772 260.188 302.02C261.036 302.26 261.728 302.6 262.264 303.04C262.808 303.48 263.204 304.008 263.452 304.624C263.708 305.232 263.836 305.904 263.836 306.64C263.836 307.224 263.748 307.776 263.572 308.296C263.404 308.816 263.156 309.288 262.828 309.712C262.508 310.136 262.108 310.508 261.628 310.828C261.156 311.148 260.616 311.404 260.008 311.596C260.416 311.828 260.768 312.16 261.064 312.592L265.408 319H262.504C262.224 319 261.984 318.944 261.784 318.832C261.592 318.72 261.428 318.56 261.292 318.352L257.644 312.796C257.508 312.588 257.356 312.44 257.188 312.352C257.028 312.264 256.788 312.22 256.468 312.22H255.088ZM255.088 309.904H257.104C257.712 309.904 258.24 309.828 258.688 309.676C259.144 309.524 259.516 309.316 259.804 309.052C260.1 308.78 260.32 308.46 260.464 308.092C260.608 307.724 260.68 307.32 260.68 306.88C260.68 306 260.388 305.324 259.804 304.852C259.228 304.38 258.344 304.144 257.152 304.144H255.088V309.904ZM272.399 306.496C273.175 306.496 273.887 306.62 274.535 306.868C275.191 307.116 275.755 307.48 276.227 307.96C276.699 308.432 277.067 309.016 277.331 309.712C277.595 310.4 277.727 311.188 277.727 312.076C277.727 312.3 277.715 312.488 277.691 312.64C277.675 312.784 277.639 312.9 277.583 312.988C277.535 313.068 277.467 313.128 277.379 313.168C277.291 313.2 277.179 313.216 277.043 313.216H269.435C269.523 314.48 269.863 315.408 270.455 316C271.047 316.592 271.831 316.888 272.807 316.888C273.287 316.888 273.699 316.832 274.043 316.72C274.395 316.608 274.699 316.484 274.955 316.348C275.219 316.212 275.447 316.088 275.639 315.976C275.839 315.864 276.031 315.808 276.215 315.808C276.335 315.808 276.439 315.832 276.527 315.88C276.615 315.928 276.691 315.996 276.755 316.084L277.619 317.164C277.291 317.548 276.923 317.872 276.515 318.136C276.107 318.392 275.679 318.6 275.231 318.76C274.791 318.912 274.339 319.02 273.875 319.084C273.419 319.148 272.975 319.18 272.543 319.18C271.687 319.18 270.891 319.04 270.155 318.76C269.419 318.472 268.779 318.052 268.235 317.5C267.691 316.94 267.263 316.252 266.951 315.436C266.639 314.612 266.483 313.66 266.483 312.58C266.483 311.74 266.619 310.952 266.891 310.216C267.163 309.472 267.551 308.828 268.055 308.284C268.567 307.732 269.187 307.296 269.915 306.976C270.651 306.656 271.479 306.496 272.399 306.496ZM272.459 308.62C271.595 308.62 270.919 308.864 270.431 309.352C269.943 309.84 269.631 310.532 269.495 311.428H275.063C275.063 311.044 275.011 310.684 274.907 310.348C274.803 310.004 274.643 309.704 274.427 309.448C274.211 309.192 273.939 308.992 273.611 308.848C273.283 308.696 272.899 308.62 272.459 308.62ZM287.439 309.088C287.359 309.216 287.275 309.308 287.187 309.364C287.099 309.412 286.987 309.436 286.851 309.436C286.707 309.436 286.551 309.396 286.383 309.316C286.223 309.236 286.035 309.148 285.819 309.052C285.603 308.948 285.355 308.856 285.075 308.776C284.803 308.696 284.479 308.656 284.103 308.656C283.519 308.656 283.059 308.78 282.723 309.028C282.387 309.276 282.219 309.6 282.219 310C282.219 310.264 282.303 310.488 282.471 310.672C282.647 310.848 282.875 311.004 283.155 311.14C283.443 311.276 283.767 311.4 284.127 311.512C284.487 311.616 284.855 311.732 285.231 311.86C285.607 311.988 285.975 312.136 286.335 312.304C286.695 312.464 287.015 312.672 287.295 312.928C287.583 313.176 287.811 313.476 287.979 313.828C288.155 314.18 288.243 314.604 288.243 315.1C288.243 315.692 288.135 316.24 287.919 316.744C287.703 317.24 287.387 317.672 286.971 318.04C286.555 318.4 286.039 318.684 285.423 318.892C284.815 319.092 284.115 319.192 283.323 319.192C282.899 319.192 282.483 319.152 282.075 319.072C281.675 319 281.287 318.896 280.911 318.76C280.543 318.624 280.199 318.464 279.879 318.28C279.567 318.096 279.291 317.896 279.051 317.68L279.735 316.552C279.823 316.416 279.927 316.312 280.047 316.24C280.167 316.168 280.319 316.132 280.503 316.132C280.687 316.132 280.859 316.184 281.019 316.288C281.187 316.392 281.379 316.504 281.595 316.624C281.811 316.744 282.063 316.856 282.351 316.96C282.647 317.064 283.019 317.116 283.467 317.116C283.819 317.116 284.119 317.076 284.367 316.996C284.623 316.908 284.831 316.796 284.991 316.66C285.159 316.524 285.279 316.368 285.351 316.192C285.431 316.008 285.471 315.82 285.471 315.628C285.471 315.34 285.383 315.104 285.207 314.92C285.039 314.736 284.811 314.576 284.523 314.44C284.243 314.304 283.919 314.184 283.551 314.08C283.191 313.968 282.819 313.848 282.435 313.72C282.059 313.592 281.687 313.444 281.319 313.276C280.959 313.1 280.635 312.88 280.347 312.616C280.067 312.352 279.839 312.028 279.663 311.644C279.495 311.26 279.411 310.796 279.411 310.252C279.411 309.748 279.511 309.268 279.711 308.812C279.911 308.356 280.203 307.96 280.587 307.624C280.979 307.28 281.463 307.008 282.039 306.808C282.623 306.6 283.295 306.496 284.055 306.496C284.903 306.496 285.675 306.636 286.371 306.916C287.067 307.196 287.647 307.564 288.111 308.02L287.439 309.088ZM295.695 306.496C296.471 306.496 297.183 306.62 297.831 306.868C298.487 307.116 299.051 307.48 299.523 307.96C299.995 308.432 300.363 309.016 300.627 309.712C300.891 310.4 301.023 311.188 301.023 312.076C301.023 312.3 301.011 312.488 300.987 312.64C300.971 312.784 300.935 312.9 300.879 312.988C300.831 313.068 300.763 313.128 300.675 313.168C300.587 313.2 300.475 313.216 300.339 313.216H292.731C292.819 314.48 293.159 315.408 293.751 316C294.343 316.592 295.127 316.888 296.103 316.888C296.583 316.888 296.995 316.832 297.339 316.72C297.691 316.608 297.995 316.484 298.251 316.348C298.515 316.212 298.743 316.088 298.935 315.976C299.135 315.864 299.327 315.808 299.511 315.808C299.631 315.808 299.735 315.832 299.823 315.88C299.911 315.928 299.987 315.996 300.051 316.084L300.915 317.164C300.587 317.548 300.219 317.872 299.811 318.136C299.403 318.392 298.975 318.6 298.527 318.76C298.087 318.912 297.635 319.02 297.171 319.084C296.715 319.148 296.271 319.18 295.839 319.18C294.983 319.18 294.187 319.04 293.451 318.76C292.715 318.472 292.075 318.052 291.531 317.5C290.987 316.94 290.559 316.252 290.247 315.436C289.935 314.612 289.779 313.66 289.779 312.58C289.779 311.74 289.915 310.952 290.187 310.216C290.459 309.472 290.847 308.828 291.351 308.284C291.863 307.732 292.483 307.296 293.211 306.976C293.947 306.656 294.775 306.496 295.695 306.496ZM295.755 308.62C294.891 308.62 294.215 308.864 293.727 309.352C293.239 309.84 292.927 310.532 292.791 311.428H298.359C298.359 311.044 298.307 310.684 298.203 310.348C298.099 310.004 297.939 309.704 297.723 309.448C297.507 309.192 297.235 308.992 296.907 308.848C296.579 308.696 296.195 308.62 295.755 308.62ZM313.076 319H311.744C311.464 319 311.244 318.96 311.084 318.88C310.924 318.792 310.804 318.62 310.724 318.364L310.46 317.488C310.148 317.768 309.84 318.016 309.536 318.232C309.24 318.44 308.932 318.616 308.612 318.76C308.292 318.904 307.952 319.012 307.592 319.084C307.232 319.156 306.832 319.192 306.392 319.192C305.872 319.192 305.392 319.124 304.952 318.988C304.512 318.844 304.132 318.632 303.812 318.352C303.5 318.072 303.256 317.724 303.08 317.308C302.904 316.892 302.816 316.408 302.816 315.856C302.816 315.392 302.936 314.936 303.176 314.488C303.424 314.032 303.832 313.624 304.4 313.264C304.968 312.896 305.724 312.592 306.668 312.352C307.612 312.112 308.784 311.976 310.184 311.944V311.224C310.184 310.4 310.008 309.792 309.656 309.4C309.312 309 308.808 308.8 308.144 308.8C307.664 308.8 307.264 308.856 306.944 308.968C306.624 309.08 306.344 309.208 306.104 309.352C305.872 309.488 305.656 309.612 305.456 309.724C305.256 309.836 305.036 309.892 304.796 309.892C304.596 309.892 304.424 309.84 304.28 309.736C304.136 309.632 304.02 309.504 303.932 309.352L303.392 308.404C304.808 307.108 306.516 306.46 308.516 306.46C309.236 306.46 309.876 306.58 310.436 306.82C311.004 307.052 311.484 307.38 311.876 307.804C312.268 308.22 312.564 308.72 312.764 309.304C312.972 309.888 313.076 310.528 313.076 311.224V319ZM307.316 317.152C307.62 317.152 307.9 317.124 308.156 317.068C308.412 317.012 308.652 316.928 308.876 316.816C309.108 316.704 309.328 316.568 309.536 316.408C309.752 316.24 309.968 316.044 310.184 315.82V313.744C309.32 313.784 308.596 313.86 308.012 313.972C307.436 314.076 306.972 314.212 306.62 314.38C306.268 314.548 306.016 314.744 305.864 314.968C305.72 315.192 305.648 315.436 305.648 315.7C305.648 316.22 305.8 316.592 306.104 316.816C306.416 317.04 306.82 317.152 307.316 317.152ZM315.99 319V306.688H317.73C318.034 306.688 318.246 306.744 318.366 306.856C318.486 306.968 318.566 307.16 318.606 307.432L318.786 308.92C319.226 308.16 319.742 307.56 320.334 307.12C320.926 306.68 321.59 306.46 322.326 306.46C322.934 306.46 323.438 306.6 323.838 306.88L323.454 309.1C323.43 309.244 323.378 309.348 323.298 309.412C323.218 309.468 323.11 309.496 322.974 309.496C322.854 309.496 322.69 309.468 322.482 309.412C322.274 309.356 321.998 309.328 321.654 309.328C321.038 309.328 320.51 309.5 320.07 309.844C319.63 310.18 319.258 310.676 318.954 311.332V319H315.99ZM334.439 309.292C334.351 309.404 334.263 309.492 334.175 309.556C334.095 309.62 333.975 309.652 333.815 309.652C333.663 309.652 333.515 309.608 333.371 309.52C333.227 309.424 333.055 309.32 332.855 309.208C332.655 309.088 332.415 308.984 332.135 308.896C331.863 308.8 331.523 308.752 331.115 308.752C330.595 308.752 330.139 308.848 329.747 309.04C329.355 309.224 329.027 309.492 328.763 309.844C328.507 310.196 328.315 310.624 328.187 311.128C328.059 311.624 327.995 312.188 327.995 312.82C327.995 313.476 328.063 314.06 328.199 314.572C328.343 315.084 328.547 315.516 328.811 315.868C329.075 316.212 329.395 316.476 329.771 316.66C330.147 316.836 330.571 316.924 331.043 316.924C331.515 316.924 331.895 316.868 332.183 316.756C332.479 316.636 332.727 316.508 332.927 316.372C333.127 316.228 333.299 316.1 333.443 315.988C333.595 315.868 333.763 315.808 333.947 315.808C334.187 315.808 334.367 315.9 334.487 316.084L335.339 317.164C335.011 317.548 334.655 317.872 334.271 318.136C333.887 318.392 333.487 318.6 333.071 318.76C332.663 318.912 332.239 319.02 331.799 319.084C331.359 319.148 330.923 319.18 330.491 319.18C329.731 319.18 329.015 319.04 328.343 318.76C327.671 318.472 327.083 318.056 326.579 317.512C326.083 316.968 325.687 316.304 325.391 315.52C325.103 314.728 324.959 313.828 324.959 312.82C324.959 311.916 325.087 311.08 325.343 310.312C325.607 309.536 325.991 308.868 326.495 308.308C326.999 307.74 327.623 307.296 328.367 306.976C329.111 306.656 329.967 306.496 330.935 306.496C331.855 306.496 332.659 306.644 333.347 306.94C334.043 307.236 334.667 307.66 335.219 308.212L334.439 309.292ZM337.225 319V301.168H340.189V308.02C340.669 307.564 341.197 307.196 341.773 306.916C342.349 306.636 343.025 306.496 343.801 306.496C344.473 306.496 345.069 306.612 345.589 306.844C346.109 307.068 346.541 307.388 346.885 307.804C347.237 308.212 347.501 308.704 347.677 309.28C347.861 309.848 347.953 310.476 347.953 311.164V319H344.989V311.164C344.989 310.412 344.813 309.832 344.461 309.424C344.117 309.008 343.597 308.8 342.901 308.8C342.389 308.8 341.909 308.916 341.461 309.148C341.013 309.38 340.589 309.696 340.189 310.096V319H337.225Z" fill="#212121"/>
<path d="M480.16 310.324C480.16 311.596 479.948 312.764 479.524 313.828C479.1 314.892 478.504 315.808 477.736 316.576C476.968 317.344 476.044 317.94 474.964 318.364C473.884 318.788 472.688 319 471.376 319H464.752V301.648H471.376C472.688 301.648 473.884 301.864 474.964 302.296C476.044 302.72 476.968 303.316 477.736 304.084C478.504 304.844 479.1 305.756 479.524 306.82C479.948 307.884 480.16 309.052 480.16 310.324ZM476.86 310.324C476.86 309.372 476.732 308.52 476.476 307.768C476.22 307.008 475.856 306.368 475.384 305.848C474.912 305.32 474.336 304.916 473.656 304.636C472.984 304.356 472.224 304.216 471.376 304.216H468.004V316.432H471.376C472.224 316.432 472.984 316.292 473.656 316.012C474.336 315.732 474.912 315.332 475.384 314.812C475.856 314.284 476.22 313.644 476.476 312.892C476.732 312.132 476.86 311.276 476.86 310.324ZM487.602 306.496C488.378 306.496 489.09 306.62 489.738 306.868C490.394 307.116 490.958 307.48 491.43 307.96C491.902 308.432 492.27 309.016 492.534 309.712C492.798 310.4 492.93 311.188 492.93 312.076C492.93 312.3 492.918 312.488 492.894 312.64C492.878 312.784 492.842 312.9 492.786 312.988C492.738 313.068 492.67 313.128 492.582 313.168C492.494 313.2 492.382 313.216 492.246 313.216H484.638C484.726 314.48 485.066 315.408 485.658 316C486.25 316.592 487.034 316.888 488.01 316.888C488.49 316.888 488.902 316.832 489.246 316.72C489.598 316.608 489.902 316.484 490.158 316.348C490.422 316.212 490.65 316.088 490.842 315.976C491.042 315.864 491.234 315.808 491.418 315.808C491.538 315.808 491.642 315.832 491.73 315.88C491.818 315.928 491.894 315.996 491.958 316.084L492.822 317.164C492.494 317.548 492.126 317.872 491.718 318.136C491.31 318.392 490.882 318.6 490.434 318.76C489.994 318.912 489.542 319.02 489.078 319.084C488.622 319.148 488.178 319.18 487.746 319.18C486.89 319.18 486.094 319.04 485.358 318.76C484.622 318.472 483.982 318.052 483.438 317.5C482.894 316.94 482.466 316.252 482.154 315.436C481.842 314.612 481.686 313.66 481.686 312.58C481.686 311.74 481.822 310.952 482.094 310.216C482.366 309.472 482.754 308.828 483.258 308.284C483.77 307.732 484.39 307.296 485.118 306.976C485.854 306.656 486.682 306.496 487.602 306.496ZM487.662 308.62C486.798 308.62 486.122 308.864 485.634 309.352C485.146 309.84 484.834 310.532 484.698 311.428H490.266C490.266 311.044 490.214 310.684 490.11 310.348C490.006 310.004 489.846 309.704 489.63 309.448C489.414 309.192 489.142 308.992 488.814 308.848C488.486 308.696 488.102 308.62 487.662 308.62ZM502.642 309.088C502.562 309.216 502.478 309.308 502.39 309.364C502.302 309.412 502.19 309.436 502.054 309.436C501.91 309.436 501.754 309.396 501.586 309.316C501.426 309.236 501.238 309.148 501.022 309.052C500.806 308.948 500.558 308.856 500.278 308.776C500.006 308.696 499.682 308.656 499.306 308.656C498.722 308.656 498.262 308.78 497.926 309.028C497.59 309.276 497.422 309.6 497.422 310C497.422 310.264 497.506 310.488 497.674 310.672C497.85 310.848 498.078 311.004 498.358 311.14C498.646 311.276 498.97 311.4 499.33 311.512C499.69 311.616 500.058 311.732 500.434 311.86C500.81 311.988 501.178 312.136 501.538 312.304C501.898 312.464 502.218 312.672 502.498 312.928C502.786 313.176 503.014 313.476 503.182 313.828C503.358 314.18 503.446 314.604 503.446 315.1C503.446 315.692 503.338 316.24 503.122 316.744C502.906 317.24 502.59 317.672 502.174 318.04C501.758 318.4 501.242 318.684 500.626 318.892C500.018 319.092 499.318 319.192 498.526 319.192C498.102 319.192 497.686 319.152 497.278 319.072C496.878 319 496.49 318.896 496.114 318.76C495.746 318.624 495.402 318.464 495.082 318.28C494.77 318.096 494.494 317.896 494.254 317.68L494.938 316.552C495.026 316.416 495.13 316.312 495.25 316.24C495.37 316.168 495.522 316.132 495.706 316.132C495.89 316.132 496.062 316.184 496.222 316.288C496.39 316.392 496.582 316.504 496.798 316.624C497.014 316.744 497.266 316.856 497.554 316.96C497.85 317.064 498.222 317.116 498.67 317.116C499.022 317.116 499.322 317.076 499.57 316.996C499.826 316.908 500.034 316.796 500.194 316.66C500.362 316.524 500.482 316.368 500.554 316.192C500.634 316.008 500.674 315.82 500.674 315.628C500.674 315.34 500.586 315.104 500.41 314.92C500.242 314.736 500.014 314.576 499.726 314.44C499.446 314.304 499.122 314.184 498.754 314.08C498.394 313.968 498.022 313.848 497.638 313.72C497.262 313.592 496.89 313.444 496.522 313.276C496.162 313.1 495.838 312.88 495.55 312.616C495.27 312.352 495.042 312.028 494.866 311.644C494.698 311.26 494.614 310.796 494.614 310.252C494.614 309.748 494.714 309.268 494.914 308.812C495.114 308.356 495.406 307.96 495.79 307.624C496.182 307.28 496.666 307.008 497.242 306.808C497.826 306.6 498.498 306.496 499.258 306.496C500.106 306.496 500.878 306.636 501.574 306.916C502.27 307.196 502.85 307.564 503.314 308.02L502.642 309.088ZM508.967 306.688V319H506.003V306.688H508.967ZM509.411 303.1C509.411 303.356 509.359 303.596 509.255 303.82C509.151 304.044 509.011 304.24 508.835 304.408C508.667 304.576 508.467 304.712 508.235 304.816C508.003 304.912 507.755 304.96 507.491 304.96C507.235 304.96 506.991 304.912 506.759 304.816C506.535 304.712 506.339 304.576 506.171 304.408C506.003 304.24 505.867 304.044 505.763 303.82C505.667 303.596 505.619 303.356 505.619 303.1C505.619 302.836 505.667 302.588 505.763 302.356C505.867 302.124 506.003 301.924 506.171 301.756C506.339 301.588 506.535 301.456 506.759 301.36C506.991 301.256 507.235 301.204 507.491 301.204C507.755 301.204 508.003 301.256 508.235 301.36C508.467 301.456 508.667 301.588 508.835 301.756C509.011 301.924 509.151 302.124 509.255 302.356C509.359 302.588 509.411 302.836 509.411 303.1ZM516.586 306.472C517.114 306.472 517.61 306.528 518.074 306.64C518.538 306.744 518.962 306.9 519.346 307.108H522.886V308.212C522.886 308.396 522.838 308.54 522.742 308.644C522.646 308.748 522.482 308.82 522.25 308.86L521.146 309.064C521.226 309.272 521.286 309.492 521.326 309.724C521.374 309.956 521.398 310.2 521.398 310.456C521.398 311.064 521.274 311.616 521.026 312.112C520.786 312.6 520.45 313.016 520.018 313.36C519.594 313.704 519.086 313.972 518.494 314.164C517.91 314.348 517.274 314.44 516.586 314.44C516.122 314.44 515.67 314.396 515.23 314.308C514.846 314.54 514.654 314.8 514.654 315.088C514.654 315.336 514.766 315.52 514.99 315.64C515.222 315.752 515.522 315.832 515.89 315.88C516.266 315.928 516.69 315.96 517.162 315.976C517.634 315.984 518.118 316.008 518.614 316.048C519.11 316.088 519.594 316.16 520.066 316.264C520.538 316.36 520.958 316.516 521.326 316.732C521.702 316.948 522.002 317.244 522.226 317.62C522.458 317.988 522.574 318.464 522.574 319.048C522.574 319.592 522.438 320.12 522.166 320.632C521.902 321.144 521.514 321.6 521.002 322C520.498 322.4 519.878 322.72 519.142 322.96C518.406 323.208 517.566 323.332 516.622 323.332C515.686 323.332 514.874 323.24 514.186 323.056C513.498 322.88 512.926 322.64 512.47 322.336C512.022 322.04 511.686 321.696 511.462 321.304C511.238 320.912 511.126 320.504 511.126 320.08C511.126 319.504 511.302 319.02 511.654 318.628C512.006 318.236 512.494 317.924 513.118 317.692C512.814 317.524 512.57 317.3 512.386 317.02C512.202 316.74 512.11 316.376 512.11 315.928C512.11 315.744 512.142 315.556 512.206 315.364C512.27 315.164 512.366 314.968 512.494 314.776C512.63 314.584 512.798 314.404 512.998 314.236C513.198 314.06 513.434 313.904 513.706 313.768C513.082 313.432 512.59 312.984 512.23 312.424C511.878 311.864 511.702 311.208 511.702 310.456C511.702 309.848 511.822 309.3 512.062 308.812C512.31 308.316 512.65 307.896 513.082 307.552C513.522 307.2 514.038 306.932 514.63 306.748C515.23 306.564 515.882 306.472 516.586 306.472ZM519.838 319.552C519.838 319.312 519.766 319.116 519.622 318.964C519.478 318.812 519.282 318.696 519.034 318.616C518.786 318.528 518.494 318.464 518.158 318.424C517.83 318.384 517.478 318.356 517.102 318.34C516.734 318.316 516.35 318.296 515.95 318.28C515.558 318.256 515.178 318.22 514.81 318.172C514.474 318.356 514.202 318.576 513.994 318.832C513.794 319.08 513.694 319.368 513.694 319.696C513.694 319.912 513.746 320.112 513.85 320.296C513.962 320.488 514.134 320.652 514.366 320.788C514.606 320.924 514.914 321.028 515.29 321.1C515.666 321.18 516.126 321.22 516.67 321.22C517.222 321.22 517.698 321.176 518.098 321.088C518.498 321.008 518.826 320.892 519.082 320.74C519.346 320.596 519.538 320.42 519.658 320.212C519.778 320.012 519.838 319.792 519.838 319.552ZM516.586 312.544C516.954 312.544 517.274 312.496 517.546 312.4C517.818 312.296 518.042 312.156 518.218 311.98C518.402 311.804 518.538 311.592 518.626 311.344C518.722 311.096 518.77 310.824 518.77 310.528C518.77 309.92 518.586 309.44 518.218 309.088C517.858 308.728 517.314 308.548 516.586 308.548C515.858 308.548 515.31 308.728 514.942 309.088C514.582 309.44 514.402 309.92 514.402 310.528C514.402 310.816 514.446 311.084 514.534 311.332C514.63 311.58 514.766 311.796 514.942 311.98C515.126 312.156 515.354 312.296 515.626 312.4C515.906 312.496 516.226 312.544 516.586 312.544ZM524.748 319V306.688H526.56C526.944 306.688 527.196 306.868 527.316 307.228L527.52 308.2C527.768 307.944 528.028 307.712 528.3 307.504C528.58 307.296 528.872 307.116 529.176 306.964C529.488 306.812 529.82 306.696 530.172 306.616C530.524 306.536 530.908 306.496 531.324 306.496C531.996 306.496 532.592 306.612 533.112 306.844C533.632 307.068 534.064 307.388 534.408 307.804C534.76 308.212 535.024 308.704 535.2 309.28C535.384 309.848 535.476 310.476 535.476 311.164V319H532.512V311.164C532.512 310.412 532.336 309.832 531.984 309.424C531.64 309.008 531.12 308.8 530.424 308.8C529.912 308.8 529.432 308.916 528.984 309.148C528.536 309.38 528.112 309.696 527.712 310.096V319H524.748Z" fill="#212121"/>
<path d="M668.388 319H665.148V301.648H668.388V319ZM676.175 319.192C675.111 319.192 674.291 318.892 673.715 318.292C673.139 317.684 672.851 316.848 672.851 315.784V308.908H671.603C671.443 308.908 671.303 308.856 671.183 308.752C671.071 308.648 671.015 308.492 671.015 308.284V307.108L672.995 306.784L673.619 303.424C673.651 303.264 673.723 303.14 673.835 303.052C673.955 302.964 674.103 302.92 674.279 302.92H675.815V306.796H679.055V308.908H675.815V315.58C675.815 315.964 675.911 316.264 676.103 316.48C676.295 316.696 676.551 316.804 676.871 316.804C677.055 316.804 677.207 316.784 677.327 316.744C677.455 316.696 677.563 316.648 677.651 316.6C677.747 316.552 677.831 316.508 677.903 316.468C677.975 316.42 678.047 316.396 678.119 316.396C678.207 316.396 678.279 316.42 678.335 316.468C678.391 316.508 678.451 316.572 678.515 316.66L679.403 318.1C678.971 318.46 678.475 318.732 677.915 318.916C677.355 319.1 676.775 319.192 676.175 319.192ZM686.5 306.496C687.276 306.496 687.988 306.62 688.636 306.868C689.292 307.116 689.856 307.48 690.328 307.96C690.8 308.432 691.168 309.016 691.432 309.712C691.696 310.4 691.828 311.188 691.828 312.076C691.828 312.3 691.816 312.488 691.792 312.64C691.776 312.784 691.74 312.9 691.684 312.988C691.636 313.068 691.568 313.128 691.48 313.168C691.392 313.2 691.28 313.216 691.144 313.216H683.536C683.624 314.48 683.964 315.408 684.556 316C685.148 316.592 685.932 316.888 686.908 316.888C687.388 316.888 687.8 316.832 688.144 316.72C688.496 316.608 688.8 316.484 689.056 316.348C689.32 316.212 689.548 316.088 689.74 315.976C689.94 315.864 690.132 315.808 690.316 315.808C690.436 315.808 690.54 315.832 690.628 315.88C690.716 315.928 690.792 315.996 690.856 316.084L691.72 317.164C691.392 317.548 691.024 317.872 690.616 318.136C690.208 318.392 689.78 318.6 689.332 318.76C688.892 318.912 688.44 319.02 687.976 319.084C687.52 319.148 687.076 319.18 686.644 319.18C685.788 319.18 684.992 319.04 684.256 318.76C683.52 318.472 682.88 318.052 682.336 317.5C681.792 316.94 681.364 316.252 681.052 315.436C680.74 314.612 680.584 313.66 680.584 312.58C680.584 311.74 680.72 310.952 680.992 310.216C681.264 309.472 681.652 308.828 682.156 308.284C682.668 307.732 683.288 307.296 684.016 306.976C684.752 306.656 685.58 306.496 686.5 306.496ZM686.56 308.62C685.696 308.62 685.02 308.864 684.532 309.352C684.044 309.84 683.732 310.532 683.596 311.428H689.164C689.164 311.044 689.112 310.684 689.008 310.348C688.904 310.004 688.744 309.704 688.528 309.448C688.312 309.192 688.04 308.992 687.712 308.848C687.384 308.696 687 308.62 686.56 308.62ZM694.232 319V306.688H695.972C696.276 306.688 696.488 306.744 696.608 306.856C696.728 306.968 696.808 307.16 696.848 307.432L697.028 308.92C697.468 308.16 697.984 307.56 698.576 307.12C699.168 306.68 699.832 306.46 700.568 306.46C701.176 306.46 701.68 306.6 702.08 306.88L701.696 309.1C701.672 309.244 701.62 309.348 701.54 309.412C701.46 309.468 701.352 309.496 701.216 309.496C701.096 309.496 700.932 309.468 700.724 309.412C700.516 309.356 700.24 309.328 699.896 309.328C699.28 309.328 698.752 309.5 698.312 309.844C697.872 310.18 697.5 310.676 697.196 311.332V319H694.232ZM713.326 319H711.994C711.714 319 711.494 318.96 711.334 318.88C711.174 318.792 711.054 318.62 710.974 318.364L710.71 317.488C710.398 317.768 710.09 318.016 709.786 318.232C709.49 318.44 709.182 318.616 708.862 318.76C708.542 318.904 708.202 319.012 707.842 319.084C707.482 319.156 707.082 319.192 706.642 319.192C706.122 319.192 705.642 319.124 705.202 318.988C704.762 318.844 704.382 318.632 704.062 318.352C703.75 318.072 703.506 317.724 703.33 317.308C703.154 316.892 703.066 316.408 703.066 315.856C703.066 315.392 703.186 314.936 703.426 314.488C703.674 314.032 704.082 313.624 704.65 313.264C705.218 312.896 705.974 312.592 706.918 312.352C707.862 312.112 709.034 311.976 710.434 311.944V311.224C710.434 310.4 710.258 309.792 709.906 309.4C709.562 309 709.058 308.8 708.394 308.8C707.914 308.8 707.514 308.856 707.194 308.968C706.874 309.08 706.594 309.208 706.354 309.352C706.122 309.488 705.906 309.612 705.706 309.724C705.506 309.836 705.286 309.892 705.046 309.892C704.846 309.892 704.674 309.84 704.53 309.736C704.386 309.632 704.27 309.504 704.182 309.352L703.642 308.404C705.058 307.108 706.766 306.46 708.766 306.46C709.486 306.46 710.126 306.58 710.686 306.82C711.254 307.052 711.734 307.38 712.126 307.804C712.518 308.22 712.814 308.72 713.014 309.304C713.222 309.888 713.326 310.528 713.326 311.224V319ZM707.566 317.152C707.87 317.152 708.15 317.124 708.406 317.068C708.662 317.012 708.902 316.928 709.126 316.816C709.358 316.704 709.578 316.568 709.786 316.408C710.002 316.24 710.218 316.044 710.434 315.82V313.744C709.57 313.784 708.846 313.86 708.262 313.972C707.686 314.076 707.222 314.212 706.87 314.38C706.518 314.548 706.266 314.744 706.114 314.968C705.97 315.192 705.898 315.436 705.898 315.7C705.898 316.22 706.05 316.592 706.354 316.816C706.666 317.04 707.07 317.152 707.566 317.152ZM720.284 319.192C719.22 319.192 718.4 318.892 717.824 318.292C717.248 317.684 716.96 316.848 716.96 315.784V308.908H715.712C715.552 308.908 715.412 308.856 715.292 308.752C715.18 308.648 715.124 308.492 715.124 308.284V307.108L717.104 306.784L717.728 303.424C717.76 303.264 717.832 303.14 717.944 303.052C718.064 302.964 718.212 302.92 718.388 302.92H719.924V306.796H723.164V308.908H719.924V315.58C719.924 315.964 720.02 316.264 720.212 316.48C720.404 316.696 720.66 316.804 720.98 316.804C721.164 316.804 721.316 316.784 721.436 316.744C721.564 316.696 721.672 316.648 721.76 316.6C721.856 316.552 721.94 316.508 722.012 316.468C722.084 316.42 722.156 316.396 722.228 316.396C722.316 316.396 722.388 316.42 722.444 316.468C722.5 316.508 722.56 316.572 722.624 316.66L723.512 318.1C723.08 318.46 722.584 318.732 722.024 318.916C721.464 319.1 720.884 319.192 720.284 319.192ZM730.61 306.496C731.386 306.496 732.098 306.62 732.746 306.868C733.402 307.116 733.966 307.48 734.438 307.96C734.91 308.432 735.278 309.016 735.542 309.712C735.806 310.4 735.938 311.188 735.938 312.076C735.938 312.3 735.926 312.488 735.902 312.64C735.886 312.784 735.85 312.9 735.794 312.988C735.746 313.068 735.678 313.128 735.59 313.168C735.502 313.2 735.39 313.216 735.254 313.216H727.646C727.734 314.48 728.074 315.408 728.666 316C729.258 316.592 730.042 316.888 731.018 316.888C731.498 316.888 731.91 316.832 732.254 316.72C732.606 316.608 732.91 316.484 733.166 316.348C733.43 316.212 733.658 316.088 733.85 315.976C734.05 315.864 734.242 315.808 734.426 315.808C734.546 315.808 734.65 315.832 734.738 315.88C734.826 315.928 734.902 315.996 734.966 316.084L735.83 317.164C735.502 317.548 735.134 317.872 734.726 318.136C734.318 318.392 733.89 318.6 733.442 318.76C733.002 318.912 732.55 319.02 732.086 319.084C731.63 319.148 731.186 319.18 730.754 319.18C729.898 319.18 729.102 319.04 728.366 318.76C727.63 318.472 726.99 318.052 726.446 317.5C725.902 316.94 725.474 316.252 725.162 315.436C724.85 314.612 724.694 313.66 724.694 312.58C724.694 311.74 724.83 310.952 725.102 310.216C725.374 309.472 725.762 308.828 726.266 308.284C726.778 307.732 727.398 307.296 728.126 306.976C728.862 306.656 729.69 306.496 730.61 306.496ZM730.67 308.62C729.806 308.62 729.13 308.864 728.642 309.352C728.154 309.84 727.842 310.532 727.706 311.428H733.274C733.274 311.044 733.222 310.684 733.118 310.348C733.014 310.004 732.854 309.704 732.638 309.448C732.422 309.192 732.15 308.992 731.822 308.848C731.494 308.696 731.11 308.62 730.67 308.62Z" fill="#212121"/>
<path d="M73.7151 155.115L70.7929 167.772L61.2924 158.913L73.7151 155.115Z" fill="#C7C7C7"/>
<path d="M329.533 452.391L338.877 461.415L326.39 464.995L329.533 452.391Z" fill="#C7C7C7"/>
<path d="M473.936 458.041L464.282 466.733L461.582 454.027L473.936 458.041Z" fill="#C7C7C7"/>
<path d="M738.32 166.429L726.193 161.773L736.288 153.598L738.32 166.429Z" fill="#C7C7C7"/>
<path d="M398.495 3.75L409.745 10.2452L398.495 16.7404L398.495 3.75Z" fill="#C7C7C7"/>
<path d="M394.745 609.245L405.995 602.75V615.74L394.745 609.245Z" fill="#C7C7C7"/>
<defs>
<linearGradient id="paint0_linear" x1="-25" y1="172" x2="825" y2="172" gradientUnits="userSpaceOnUse">
<stop stop-color="#F06161"/>
<stop offset="0.296875" stop-color="#E1D592"/>
<stop offset="0.723958" stop-color="#8ED9E3"/>
<stop offset="1" stop-color="#A799F9"/>
</linearGradient>
</defs>
</svg>
