<svg width="409" height="846" viewBox="0 0 409 846" fill="none" xmlns="http://www.w3.org/2000/svg">
<rect x="1.5" y="1.5" width="406" height="843" rx="47.5" fill="white" stroke="#AAAAAA" stroke-width="3"/>
<path fill-rule="evenodd" clip-rule="evenodd" d="M57 17C34.9086 17 17 34.9086 17 57V789C17 811.091 34.9086 829 57 829H352C374.091 829 392 811.091 392 789V57C392 34.9086 374.091 17 352 17H309V25C309 37.1503 299.15 47 287 47H122C109.85 47 100 37.1503 100 25V17H57Z" fill="#F2F2F2"/>
<path d="M32.4044 102.313C32.263 101.983 32.1923 101.676 32.1923 101.393C32.1923 100.993 32.3101 100.674 32.5459 100.439C32.8052 100.179 33.1234 100.05 33.5006 100.05C33.8777 100.05 34.2431 100.179 34.5967 100.439C34.9974 100.91 35.4571 101.311 35.9757 101.641C36.5179 101.947 37.0836 102.195 37.6729 102.383C38.2858 102.548 38.8987 102.666 39.5116 102.737C40.1481 102.808 40.761 102.843 41.3503 102.843C41.751 102.702 42.0221 102.619 42.1635 102.596C42.3285 102.548 42.4582 102.501 42.5525 102.454C42.6468 102.407 42.7529 102.336 42.8707 102.242C42.9886 102.148 43.2125 101.983 43.5425 101.747C43.6604 101.582 43.7665 101.429 43.8608 101.287C43.9551 101.146 44.0611 100.993 44.179 100.828L44.4972 99.8729C44.4972 99.7079 44.4972 99.5547 44.4972 99.4133C44.4972 99.2483 44.4855 99.0715 44.4619 98.8829C44.4147 98.7179 44.3558 98.5646 44.2851 98.4232C44.2144 98.2582 44.1436 98.0932 44.0729 97.9282C43.9315 97.7632 43.7901 97.6099 43.6486 97.4685C43.5308 97.3271 43.4011 97.1738 43.2597 97.0088C43.0475 96.891 42.8354 96.7613 42.6232 96.6199C42.411 96.4785 42.1753 96.3724 41.916 96.3017C40.9495 95.9716 40.0538 95.7477 39.2287 95.6298C38.4273 95.4884 37.6611 95.3234 36.9304 95.1348C36.2232 94.9227 35.5514 94.6044 34.9149 94.1801C34.2785 93.7558 33.6538 93.0722 33.0409 92.1293C32.923 91.9407 32.8523 91.7993 32.8287 91.705C32.8052 91.6107 32.7816 91.4457 32.758 91.2099C32.7344 91.0214 32.7109 90.8446 32.6873 90.6796C32.6873 90.491 32.6873 90.3142 32.6873 90.1492C32.6873 89.7249 32.7227 89.3477 32.7934 89.0177C32.8877 88.6877 33.0173 88.3694 33.1823 88.063C33.3473 87.7565 33.5595 87.4501 33.8188 87.1436C34.0781 86.8136 34.3845 86.46 34.7381 86.0829C35.1389 85.6586 35.5985 85.3168 36.1171 85.0575C36.6357 84.7746 37.1779 84.5624 37.7436 84.421C38.3094 84.256 38.8869 84.1499 39.4762 84.1028C40.0891 84.032 40.6785 83.9967 41.2442 83.9967C41.4328 83.9967 41.5978 83.9967 41.7392 83.9967C41.9042 83.9967 42.0692 84.0085 42.2343 84.032C42.7764 84.0792 43.2832 84.2088 43.7547 84.421C44.2497 84.6332 44.7565 84.8099 45.2751 84.9514C45.8173 85.3285 46.0884 85.7882 46.0884 86.3304C46.0884 86.684 45.947 87.0022 45.6641 87.2851C45.4048 87.5444 45.0276 87.674 44.5326 87.674C44.4855 87.674 44.4265 87.674 44.3558 87.674C44.3087 87.6505 44.2615 87.6387 44.2144 87.6387C43.46 87.4029 42.7882 87.2262 42.1989 87.1083C41.6331 86.9669 41.0792 86.8961 40.537 86.8961C39.9713 86.8961 39.3937 86.9904 38.8044 87.179C38.2151 87.3676 37.5315 87.6858 36.7536 88.1337C36.6122 88.3223 36.4707 88.4991 36.3293 88.6641C36.1878 88.8055 36.0464 88.9587 35.905 89.1238C35.8343 89.2652 35.7635 89.4066 35.6928 89.5481C35.6457 89.6895 35.5985 89.8309 35.5514 89.9724C35.5514 90.1138 35.5514 90.2552 35.5514 90.3967C35.575 90.5381 35.5985 90.6678 35.6221 90.7856C35.7164 90.9035 35.7989 91.0214 35.8696 91.1392C35.9403 91.2571 36.0228 91.375 36.1171 91.4928L37.6022 92.3414C38.3094 92.5064 38.9694 92.6479 39.5823 92.7657C40.1952 92.8836 40.7845 93.025 41.3503 93.1901C41.916 93.3315 42.47 93.5083 43.0122 93.7204C43.5779 93.9326 44.179 94.2155 44.8155 94.5691C45.1455 94.7576 45.4284 95.0052 45.6641 95.3116C45.8998 95.5945 46.1238 95.8656 46.3359 96.1249C46.7131 96.5727 46.9842 97.0796 47.1492 97.6453C47.3378 98.2111 47.432 98.8004 47.432 99.4133C47.432 100.262 47.267 101.087 46.937 101.888C46.607 102.69 46.1355 103.35 45.5227 103.869C45.3105 104.057 45.0866 104.234 44.8508 104.399C44.6387 104.54 44.4265 104.682 44.2144 104.823C43.7193 105.153 43.1654 105.401 42.5525 105.566C41.9396 105.731 41.2913 105.813 40.6077 105.813C39.8298 105.813 39.0401 105.719 38.2387 105.53C37.4608 105.365 36.7064 105.13 35.9757 104.823C35.2449 104.493 34.5731 104.116 33.9602 103.692C33.3473 103.267 32.8287 102.808 32.4044 102.313ZM52.9142 92.5536C52.3956 92.4829 52.0066 92.3061 51.7473 92.0232C51.5116 91.7403 51.3937 91.4339 51.3937 91.1039C51.3937 90.7738 51.5234 90.4556 51.7827 90.1492C52.0655 89.8192 52.4781 89.6541 53.0202 89.6541H55.0003V84.0674C55.1182 83.5959 55.3068 83.2424 55.5661 83.0066C55.8254 82.7709 56.1201 82.653 56.4501 82.653C56.7565 82.653 57.0394 82.7591 57.2987 82.9713C57.5816 83.1834 57.7819 83.5134 57.8998 83.9613V89.6541H61.2943C61.7421 89.772 62.0722 89.9724 62.2843 90.2552C62.4965 90.5145 62.6026 90.7974 62.6026 91.1039C62.6026 91.4339 62.4847 91.7285 62.249 91.9878C62.0132 92.2471 61.6596 92.4357 61.1882 92.5536H57.8998C57.8762 94.3687 57.8762 96.2427 57.8998 98.1757C57.9234 100.085 57.9352 101.947 57.9352 103.762C57.9352 104.305 57.7701 104.717 57.4401 105C57.1337 105.259 56.8154 105.389 56.4854 105.389C56.1554 105.389 55.849 105.259 55.5661 105C55.2832 104.764 55.1064 104.387 55.0357 103.869C55.0357 102.03 55.0239 100.144 55.0003 98.2111C55.0003 96.2781 55.0003 94.3923 55.0003 92.5536H52.9142ZM75.7399 100.863C76.2349 100.674 76.6592 100.651 77.0128 100.792C77.3664 100.934 77.6139 101.158 77.7554 101.464C77.9204 101.771 77.9439 102.112 77.8261 102.49C77.7318 102.867 77.4607 103.185 77.0128 103.444C76.2349 103.892 75.3981 104.305 74.5023 104.682C73.6065 105.059 72.699 105.318 71.7797 105.46C70.8603 105.601 69.9528 105.589 69.057 105.424C68.1612 105.283 67.3008 104.929 66.4758 104.364C65.4857 103.68 64.7314 102.761 64.2128 101.606C63.6942 100.427 63.4231 99.2129 63.3996 97.9635C63.376 96.6906 63.5999 95.4766 64.0714 94.3215C64.5664 93.1429 65.3325 92.2 66.3697 91.4928C67.4541 90.7621 68.6327 90.2199 69.9056 89.8663C71.1786 89.4891 72.4633 89.442 73.7598 89.7249C74.3962 89.8663 74.9738 90.1727 75.4924 90.6442C76.011 91.0921 76.4235 91.6225 76.7299 92.2354C77.06 92.8247 77.2368 93.4611 77.2603 94.1448C77.2839 94.8048 77.1189 95.4295 76.7653 96.0188C76.3646 96.6788 75.787 97.2446 75.0327 97.716C74.2784 98.1639 73.4533 98.5529 72.5576 98.8829C71.6854 99.1893 70.8014 99.4486 69.9056 99.6608C69.0334 99.8729 68.2673 100.073 67.6073 100.262C67.3244 100.333 67.0533 100.344 66.794 100.297C67.1476 101.052 67.6662 101.676 68.3498 102.171C69.057 102.643 69.9292 102.843 70.9664 102.772C71.7914 102.725 72.6165 102.501 73.4415 102.101C74.2902 101.676 75.0563 101.264 75.7399 100.863ZM68.8449 93.3315C67.9727 93.7794 67.3244 94.4158 66.9001 95.2409C66.4758 96.0424 66.2636 96.891 66.2636 97.7867C66.4286 97.6689 66.6054 97.5746 66.794 97.5039C67.2183 97.386 67.6426 97.2681 68.067 97.1503C68.5148 97.0088 68.9627 96.8792 69.4106 96.7613C69.6935 96.6906 70.0706 96.5845 70.5421 96.4431C71.0371 96.3017 71.5439 96.1366 72.0625 95.9481C72.5811 95.7595 73.0526 95.5473 73.4769 95.3116C73.9012 95.0523 74.1841 94.7694 74.3255 94.463C74.3727 93.6851 74.1841 93.1547 73.7598 92.8718C73.3355 92.589 72.8286 92.4475 72.2393 92.4475C71.65 92.4475 71.0371 92.5536 70.4007 92.7657C69.7642 92.9543 69.2456 93.1429 68.8449 93.3315ZM81.411 90.7149C81.5289 90.2435 81.7175 89.8899 81.9768 89.6541C82.2361 89.4184 82.5307 89.3006 82.8607 89.3006C83.1672 89.3006 83.4501 89.4066 83.7094 89.6188C83.9922 89.8309 84.1926 90.161 84.3105 90.6088V90.9271C84.8526 90.4556 85.4655 90.1138 86.1491 89.9017C86.8563 89.6659 87.5399 89.5481 88.2 89.5481C89.1193 89.5481 89.9679 89.7484 90.7458 90.1492C91.5473 90.5499 92.2427 91.0921 92.832 91.7757C93.4213 92.4593 93.881 93.2608 94.211 94.1801C94.541 95.0759 94.706 96.0424 94.706 97.0796C94.706 98.2111 94.5175 99.2483 94.1403 100.191C93.7867 101.134 93.2563 101.947 92.5491 102.631C91.842 103.315 90.958 103.857 89.8972 104.257C88.86 104.635 87.646 104.823 86.2552 104.823C85.9252 104.823 85.5952 104.811 85.2652 104.788C84.9587 104.764 84.6405 104.729 84.3105 104.682V112.143C84.2869 112.685 84.1219 113.085 83.8154 113.345C83.5326 113.628 83.2143 113.769 82.8607 113.769C82.5307 113.769 82.2243 113.639 81.9414 113.38C81.6585 113.144 81.4817 112.767 81.411 112.249V90.7149ZM84.6641 94.7105C84.6169 94.7812 84.558 94.8519 84.4873 94.9227C84.4165 94.9698 84.3576 95.0169 84.3105 95.0641V101.747C84.6405 101.818 84.9587 101.877 85.2652 101.924C85.5952 101.971 85.9252 101.994 86.2552 101.994C87.0567 101.994 87.7992 101.888 88.4828 101.676C89.1664 101.464 89.7558 101.158 90.2508 100.757C90.7694 100.356 91.1701 99.8611 91.453 99.2718C91.7359 98.6825 91.8773 98.0107 91.8773 97.2564C91.8773 96.6906 91.783 96.1249 91.5944 95.5591C91.4294 94.9698 91.1819 94.4394 90.8519 93.968C90.5455 93.4965 90.1801 93.1193 89.7558 92.8365C89.3315 92.53 88.86 92.3768 88.3414 92.3768C87.9407 92.3768 87.5635 92.4475 87.2099 92.589C86.8563 92.7304 86.5263 92.919 86.2199 93.1547C85.9134 93.3669 85.6305 93.6144 85.3712 93.8972C85.1119 94.1565 84.8762 94.4276 84.6641 94.7105ZM117.184 102.313C117.631 102.431 117.961 102.631 118.174 102.914C118.386 103.173 118.492 103.456 118.492 103.762C118.492 104.092 118.374 104.387 118.138 104.646C117.902 104.906 117.549 105.094 117.077 105.212H111.632C111.114 105.165 110.725 105 110.465 104.717C110.23 104.411 110.112 104.092 110.112 103.762C110.112 103.432 110.241 103.114 110.501 102.808C110.784 102.478 111.196 102.313 111.738 102.313H112.764V87.7094C112.434 87.9451 112.08 88.063 111.703 88.063C111.302 88.063 110.972 87.9333 110.713 87.674C110.477 87.3912 110.359 87.0729 110.359 86.7193C110.359 86.5072 110.406 86.2832 110.501 86.0475C110.619 85.8118 110.795 85.5996 111.031 85.4111L113.471 83.8199C113.777 83.702 114.037 83.6431 114.249 83.6431C114.979 83.6431 115.451 84.0556 115.663 84.8807V102.313H117.184ZM131.827 80.8851C132.204 80.2722 132.664 79.9657 133.206 79.9657C133.56 79.9657 133.878 80.0954 134.161 80.3547C134.444 80.614 134.585 80.9558 134.585 81.3801C134.585 81.5923 134.526 81.8516 134.408 82.158C132.64 86.2832 130.861 90.3849 129.069 94.463C127.301 98.5411 125.521 102.643 123.73 106.768C123.541 107.027 123.329 107.204 123.093 107.298C122.858 107.416 122.634 107.475 122.422 107.475C122.068 107.475 121.762 107.345 121.502 107.086C121.243 106.827 121.113 106.462 121.113 105.99C121.113 105.919 121.113 105.837 121.113 105.743C121.113 105.672 121.125 105.589 121.149 105.495C122.917 101.37 124.685 97.2681 126.453 93.1901C128.244 89.112 130.036 85.0103 131.827 80.8851ZM135.746 102.843C135.487 102.49 135.357 102.124 135.357 101.747C135.357 101.346 135.487 101.028 135.746 100.792C136.006 100.533 136.336 100.403 136.736 100.403C137.043 100.403 137.361 100.521 137.691 100.757C138.021 100.969 138.363 101.205 138.717 101.464C139.07 101.723 139.436 101.971 139.813 102.207C140.213 102.419 140.638 102.525 141.086 102.525C141.722 102.525 142.288 102.395 142.783 102.136C143.302 101.853 143.726 101.488 144.056 101.04C144.409 100.592 144.669 100.085 144.834 99.5193C145.022 98.9536 145.117 98.3761 145.117 97.7867C145.117 97.1738 144.904 96.667 144.48 96.2663C144.079 95.8656 143.573 95.5473 142.96 95.3116C142.37 95.0759 141.757 94.9109 141.121 94.8166C140.485 94.7223 139.931 94.6751 139.459 94.6751C139.011 94.5573 138.681 94.3687 138.469 94.1094C138.257 93.8265 138.151 93.5319 138.151 93.2254C138.151 92.919 138.269 92.6361 138.504 92.3768C138.74 92.0939 139.094 91.8936 139.565 91.7757C139.99 91.7285 140.437 91.6578 140.909 91.5635C141.38 91.4457 141.84 91.3042 142.288 91.1392C142.736 90.9506 143.136 90.7267 143.49 90.4674C143.867 90.1845 144.15 89.8427 144.339 89.442L144.374 88.558L144.233 87.8155C144.185 87.5562 144.068 87.344 143.879 87.179C143.69 87.014 143.455 86.8843 143.172 86.7901C142.913 86.6958 142.63 86.6368 142.323 86.6133C142.017 86.5661 141.722 86.5425 141.439 86.5425C140.897 86.5425 140.308 86.6015 139.671 86.7193C139.035 86.8136 138.563 86.9433 138.257 87.1083C137.998 87.2969 137.762 87.4619 137.55 87.6033C137.338 87.7212 137.102 87.7801 136.843 87.7801C136.465 87.7801 136.135 87.6387 135.853 87.3558C135.593 87.0494 135.464 86.6133 135.464 86.0475C135.534 85.6468 135.735 85.305 136.065 85.0221C136.395 84.7392 136.784 84.5153 137.232 84.3503C137.703 84.1853 138.186 84.0556 138.681 83.9613C139.2 83.867 139.66 83.7963 140.06 83.7492C140.461 83.702 140.767 83.6785 140.98 83.6785C141.215 83.6785 141.286 83.6785 141.192 83.6785C142.04 83.6785 142.83 83.7845 143.561 83.9967C144.292 84.1853 144.928 84.4917 145.47 84.916C146.036 85.3168 146.472 85.8354 146.778 86.4718C147.109 87.1083 147.274 87.8626 147.274 88.7348C147.274 88.8998 147.262 89.1473 147.238 89.4773C147.215 89.8074 147.132 90.1727 146.991 90.5735C146.849 90.9506 146.602 91.3632 146.248 91.8111C145.918 92.2354 145.435 92.6597 144.798 93.084C145.223 93.3197 145.635 93.6144 146.036 93.968C146.46 94.298 146.826 94.6869 147.132 95.1348C147.462 95.5591 147.721 96.0306 147.91 96.5492C148.099 97.0678 148.193 97.6217 148.193 98.2111C148.193 99.1068 147.981 99.9908 147.556 100.863C147.156 101.735 146.625 102.513 145.965 103.197C145.329 103.857 144.598 104.399 143.773 104.823C142.948 105.224 142.123 105.424 141.298 105.424C140.237 105.424 139.247 105.165 138.328 104.646C137.408 104.128 136.548 103.527 135.746 102.843ZM165.76 99.3072C165.241 99.2365 164.852 99.0597 164.593 98.7768C164.357 98.4939 164.239 98.1875 164.239 97.8575C164.239 97.5274 164.369 97.2092 164.628 96.9028C164.911 96.5727 165.324 96.4077 165.866 96.4077C166.149 96.4077 166.738 96.4077 167.634 96.4077C168.553 96.4077 169.531 96.4077 170.568 96.4077C171.629 96.3842 172.608 96.3724 173.503 96.3724C174.423 96.3724 175.024 96.3724 175.307 96.3724C175.754 96.4902 176.084 96.6906 176.297 96.9735C176.509 97.2328 176.615 97.5157 176.615 97.8221C176.615 98.1521 176.497 98.4468 176.261 98.7061C176.026 98.9654 175.672 99.154 175.201 99.2718C173.621 99.2718 172.042 99.2836 170.462 99.3072C168.907 99.3072 167.339 99.3072 165.76 99.3072ZM195.491 103.869C195.468 104.411 195.303 104.811 194.996 105.071C194.713 105.354 194.395 105.495 194.042 105.495C193.712 105.495 193.405 105.365 193.122 105.106C192.839 104.87 192.663 104.493 192.592 103.975C192.568 101.759 192.545 99.4958 192.521 97.1856C192.521 94.8755 192.509 92.6125 192.486 90.3967C192.604 89.9252 192.792 89.5716 193.052 89.3359C193.311 89.1002 193.606 88.9823 193.936 88.9823C194.242 88.9823 194.525 89.0884 194.784 89.3006C195.067 89.5127 195.267 89.8427 195.385 90.2906C195.409 92.5064 195.421 94.7694 195.421 97.0796C195.444 99.3897 195.468 101.653 195.491 103.869ZM192.238 84.6332C192.238 84.1145 192.403 83.6785 192.733 83.3249C193.063 82.9477 193.464 82.7591 193.936 82.7591C194.407 82.7591 194.808 82.9477 195.138 83.3249C195.491 83.6785 195.668 84.1145 195.668 84.6332C195.668 85.1282 195.491 85.5643 195.138 85.9414C194.808 86.295 194.407 86.4718 193.936 86.4718C193.464 86.4718 193.063 86.295 192.733 85.9414C192.403 85.5643 192.238 85.1282 192.238 84.6332ZM212.826 103.939C212.803 104.481 212.638 104.882 212.331 105.141C212.048 105.424 211.73 105.566 211.376 105.566C211.046 105.566 210.74 105.436 210.457 105.177C210.174 104.941 209.997 104.564 209.927 104.045C209.927 102.961 209.915 101.888 209.891 100.828C209.891 99.7433 209.891 98.6589 209.891 97.5746C209.891 96.7967 209.891 96.0188 209.891 95.2409C209.915 94.463 209.868 93.6851 209.75 92.9072C209.561 92.5536 209.349 92.3414 209.113 92.2707C208.901 92.1764 208.642 92.1293 208.336 92.1293C207.534 92.1293 206.744 92.3297 205.967 92.7304C205.189 93.1076 204.576 93.6379 204.128 94.3215C203.869 94.7223 203.656 95.0641 203.491 95.347C203.35 95.6063 203.256 95.9952 203.208 96.5138C203.208 97.716 203.208 98.9182 203.208 100.12C203.208 101.323 203.22 102.525 203.244 103.727C203.22 104.269 203.055 104.682 202.749 104.965C202.466 105.224 202.148 105.354 201.794 105.354C201.464 105.354 201.158 105.236 200.875 105C200.592 104.741 200.415 104.352 200.344 103.833C200.344 102.702 200.344 101.606 200.344 100.545C200.344 99.484 200.333 98.435 200.309 97.3978C200.309 96.3606 200.309 95.3116 200.309 94.2508C200.309 93.1665 200.309 92.0586 200.309 90.9271C200.427 90.4556 200.615 90.102 200.875 89.8663C201.134 89.6306 201.429 89.5127 201.759 89.5127C202.065 89.5127 202.348 89.6188 202.607 89.8309C202.89 90.0431 203.091 90.3731 203.208 90.821V91.1039C203.892 90.5145 204.658 90.0549 205.507 89.7249C206.379 89.3713 207.251 89.1945 208.123 89.1945C208.996 89.1945 209.809 89.3948 210.563 89.7956C211.341 90.1963 211.966 90.8446 212.437 91.7403C212.602 92.0468 212.708 92.4357 212.755 92.9072C212.826 93.3551 212.862 93.8383 212.862 94.3569C212.885 94.8519 212.885 95.3705 212.862 95.9127C212.838 96.4313 212.826 96.9263 212.826 97.3978V101.57V103.939ZM221.992 103.939C221.968 104.481 221.803 104.882 221.497 105.141C221.214 105.424 220.896 105.566 220.542 105.566C220.212 105.566 219.906 105.436 219.623 105.177C219.34 104.941 219.163 104.564 219.093 104.045V94.0033H218.35C217.831 93.9326 217.442 93.7558 217.183 93.4729C216.947 93.1901 216.83 92.8836 216.83 92.5536C216.83 92.2236 216.959 91.9053 217.219 91.5989C217.501 91.2689 217.914 91.1039 218.456 91.1039H219.093V87.1436C219.093 86.3186 219.222 85.5525 219.482 84.8453C219.741 84.1381 220.094 83.537 220.542 83.042C221.014 82.5234 221.568 82.1227 222.204 81.8398C222.841 81.5569 223.548 81.4155 224.326 81.4155C224.656 81.4155 225.08 81.4744 225.599 81.5923C226.141 81.6866 226.659 81.8398 227.154 82.0519C227.649 82.2641 228.074 82.5352 228.427 82.8652C228.805 83.1716 228.993 83.537 228.993 83.9613C228.993 84.3385 228.863 84.6567 228.604 84.916C228.345 85.1753 228.015 85.305 227.614 85.305C227.378 85.305 227.131 85.2578 226.872 85.1635C226.612 85.0457 226.341 84.9278 226.058 84.8099C225.775 84.6921 225.481 84.586 225.174 84.4917C224.868 84.3739 224.573 84.3149 224.29 84.3149C223.677 84.3149 223.171 84.5271 222.77 84.9514C222.393 85.3521 222.133 86.0004 221.992 86.8961V91.0331C222.652 91.0096 223.359 90.9978 224.114 90.9978C224.891 90.9742 225.622 90.9506 226.306 90.9271C226.754 91.0449 227.084 91.2453 227.296 91.5282C227.508 91.7875 227.614 92.0704 227.614 92.3768C227.614 92.8483 227.414 93.1901 227.013 93.4022C226.612 93.6144 226.117 93.7558 225.528 93.8265C224.939 93.8972 224.326 93.9326 223.689 93.9326C223.053 93.909 222.487 93.909 221.992 93.9326V103.939ZM228.758 96.337C229.017 95.5827 229.336 94.8519 229.713 94.1448C230.09 93.414 230.538 92.754 231.056 92.1646C231.575 91.5753 232.164 91.0685 232.824 90.6442C233.508 90.2199 234.262 89.9134 235.087 89.7249C236.455 89.4184 237.645 89.5245 238.659 90.0431C239.696 90.5617 240.521 91.3042 241.134 92.2707C241.747 93.2372 242.147 94.3451 242.336 95.5945C242.548 96.8203 242.501 97.9989 242.195 99.1304C241.841 100.521 241.216 101.818 240.321 103.02C239.425 104.222 238.293 105.094 236.926 105.636C235.912 106.037 234.934 106.179 233.991 106.061C233.072 105.966 232.235 105.672 231.481 105.177C230.75 104.682 230.125 104.034 229.607 103.232C229.088 102.431 228.735 101.523 228.546 100.509C228.428 99.8729 228.381 99.2483 228.405 98.6354C228.452 98.0225 228.534 97.4096 228.652 96.7967L228.758 96.337ZM231.516 97.1503C231.422 97.6453 231.351 98.105 231.304 98.5293C231.28 98.93 231.304 99.3897 231.375 99.9083C231.445 100.545 231.646 101.122 231.976 101.641C232.306 102.136 232.707 102.525 233.178 102.808C233.649 103.067 234.168 103.197 234.734 103.197C235.323 103.173 235.912 102.985 236.502 102.631C237.28 102.159 237.893 101.547 238.34 100.792C238.812 100.038 239.165 99.2247 239.401 98.3525C239.59 97.6453 239.625 96.891 239.507 96.0895C239.413 95.288 239.177 94.5808 238.8 93.968C238.423 93.3551 237.916 92.919 237.28 92.6597C236.643 92.3768 235.889 92.4122 235.017 92.7657C234.074 93.1665 233.331 93.7676 232.789 94.5691C232.247 95.3705 231.823 96.2309 231.516 97.1503Z" fill="#111111"/>
<path d="M33 767C33 764.791 34.7909 763 37 763H204.5V803H37C34.7909 803 33 801.209 33 799V767Z" fill="white"/>
<path d="M102.087 787.091C102.287 786.926 102.482 786.849 102.67 786.861C102.871 786.873 103.03 786.937 103.148 787.055C103.265 787.173 103.33 787.332 103.342 787.533C103.354 787.721 103.277 787.916 103.112 788.116C102.723 788.54 102.264 788.841 101.733 789.018C101.215 789.194 100.696 789.242 100.177 789.159C99.6705 789.088 99.1991 788.888 98.763 788.558C98.3269 788.228 98.0028 787.78 97.7906 787.214C97.661 786.896 97.5667 786.56 97.5077 786.207C97.4488 785.853 97.4311 785.505 97.4547 785.164C97.4901 784.598 97.6197 784.032 97.8436 783.466C98.0794 782.889 98.3917 782.388 98.7807 781.964C99.1814 781.539 99.647 781.233 100.177 781.044C100.72 780.844 101.309 780.844 101.945 781.044C102.264 781.15 102.552 781.28 102.812 781.433C103.071 781.586 103.318 781.781 103.554 782.017C103.684 782.205 103.749 782.388 103.749 782.565C103.749 782.741 103.696 782.889 103.59 783.007C103.495 783.113 103.36 783.183 103.183 783.219C103.018 783.254 102.829 783.219 102.617 783.113C102.228 782.724 101.851 782.494 101.486 782.423C101.12 782.341 100.778 782.37 100.46 782.512C100.154 782.653 99.8768 782.883 99.6293 783.201C99.3936 783.508 99.2109 783.861 99.0812 784.262C98.9516 784.651 98.8867 785.063 98.8867 785.499C98.8867 785.924 98.9692 786.319 99.1343 786.684C99.2757 787.014 99.4643 787.267 99.7 787.444C99.9475 787.621 100.207 787.727 100.478 787.762C100.749 787.786 101.026 787.745 101.309 787.639C101.603 787.521 101.863 787.338 102.087 787.091ZM111.77 788.24C111.77 788.252 111.764 788.257 111.753 788.257C111.823 788.422 111.841 788.576 111.806 788.717C111.77 788.859 111.7 788.971 111.594 789.053C111.499 789.147 111.37 789.206 111.205 789.23C111.051 789.253 110.88 789.218 110.692 789.124C110.586 789.018 110.486 788.906 110.391 788.788C110.297 788.658 110.215 788.529 110.144 788.399C109.908 788.599 109.655 788.788 109.384 788.965C109.113 789.13 108.841 789.218 108.57 789.23C108.099 789.253 107.633 789.259 107.174 789.248C106.714 789.236 106.278 789.083 105.865 788.788C105.524 788.54 105.258 788.246 105.07 787.904C104.893 787.562 104.775 787.203 104.716 786.825C104.669 786.436 104.675 786.042 104.734 785.641C104.793 785.24 104.893 784.857 105.034 784.492C105.093 784.327 105.17 784.168 105.264 784.014C105.359 783.861 105.453 783.702 105.547 783.537C105.677 783.301 105.824 783.083 105.989 782.883C106.154 782.671 106.343 782.488 106.555 782.335C106.708 782.229 106.855 782.123 106.997 782.017C107.15 781.91 107.303 781.81 107.457 781.716C107.563 781.645 107.722 781.575 107.934 781.504C108.158 781.421 108.394 781.357 108.641 781.309C108.9 781.25 109.154 781.221 109.401 781.221C109.661 781.221 109.879 781.256 110.055 781.327C110.22 781.303 110.38 781.345 110.533 781.451C110.698 781.557 110.822 781.728 110.904 781.964C110.904 782.765 110.898 783.572 110.886 784.386C110.875 785.199 110.928 786.006 111.045 786.808C111.057 786.914 111.099 787.043 111.169 787.197C111.252 787.338 111.334 787.48 111.417 787.621C111.511 787.762 111.594 787.892 111.664 788.01C111.735 788.128 111.77 788.204 111.77 788.24ZM109.525 787.02C109.549 787.008 109.566 786.996 109.578 786.985C109.59 786.973 109.608 786.961 109.631 786.949C109.478 786.242 109.401 785.511 109.401 784.757C109.413 783.991 109.425 783.29 109.437 782.653C109.331 782.653 109.213 782.665 109.083 782.688C108.953 782.712 108.824 782.747 108.694 782.794C108.576 782.83 108.464 782.865 108.358 782.901C108.264 782.936 108.193 782.965 108.146 782.989C107.792 783.154 107.492 783.372 107.244 783.643C106.997 783.902 106.791 784.197 106.626 784.527C106.472 784.845 106.355 785.187 106.272 785.552C106.19 785.906 106.148 786.266 106.148 786.631C106.172 786.725 106.201 786.82 106.237 786.914C106.272 787.008 106.301 787.102 106.325 787.197C106.384 787.256 106.443 787.32 106.502 787.391C106.573 787.462 106.643 787.527 106.714 787.586C106.82 787.633 106.926 787.674 107.032 787.709C107.138 787.745 107.244 787.78 107.35 787.815C107.551 787.815 107.745 787.821 107.934 787.833C108.122 787.845 108.311 787.821 108.5 787.762C108.676 787.645 108.847 787.527 109.012 787.409C109.189 787.291 109.36 787.161 109.525 787.02ZM119.694 788.47C119.683 788.741 119.6 788.941 119.447 789.071C119.305 789.212 119.146 789.283 118.969 789.283C118.804 789.283 118.651 789.218 118.51 789.088C118.368 788.971 118.28 788.782 118.245 788.523C118.245 787.98 118.239 787.444 118.227 786.914C118.227 786.372 118.227 785.829 118.227 785.287C118.227 784.898 118.227 784.509 118.227 784.12C118.239 783.731 118.215 783.343 118.156 782.954C118.062 782.777 117.956 782.671 117.838 782.635C117.732 782.588 117.602 782.565 117.449 782.565C117.048 782.565 116.653 782.665 116.265 782.865C115.876 783.054 115.569 783.319 115.345 783.661C115.216 783.861 115.109 784.032 115.027 784.173C114.956 784.303 114.909 784.498 114.885 784.757C114.885 785.358 114.885 785.959 114.885 786.56C114.885 787.161 114.891 787.762 114.903 788.364C114.891 788.635 114.809 788.841 114.656 788.982C114.514 789.112 114.355 789.177 114.178 789.177C114.013 789.177 113.86 789.118 113.719 789C113.577 788.87 113.489 788.676 113.453 788.417C113.453 787.851 113.453 787.303 113.453 786.772C113.453 786.242 113.448 785.717 113.436 785.199C113.436 784.68 113.436 784.156 113.436 783.625C113.436 783.083 113.436 782.529 113.436 781.964C113.495 781.728 113.589 781.551 113.719 781.433C113.848 781.315 113.996 781.256 114.161 781.256C114.314 781.256 114.455 781.309 114.585 781.415C114.726 781.522 114.827 781.687 114.885 781.91V782.052C115.227 781.757 115.61 781.527 116.035 781.362C116.471 781.186 116.907 781.097 117.343 781.097C117.779 781.097 118.186 781.197 118.563 781.398C118.952 781.598 119.264 781.922 119.5 782.37C119.582 782.523 119.635 782.718 119.659 782.954C119.694 783.178 119.712 783.419 119.712 783.678C119.724 783.926 119.724 784.185 119.712 784.456C119.7 784.716 119.694 784.963 119.694 785.199V787.285V788.47ZM126.134 787.091C126.334 786.926 126.528 786.849 126.717 786.861C126.917 786.873 127.077 786.937 127.194 787.055C127.312 787.173 127.377 787.332 127.389 787.533C127.401 787.721 127.324 787.916 127.159 788.116C126.77 788.54 126.31 788.841 125.78 789.018C125.261 789.194 124.743 789.242 124.224 789.159C123.717 789.088 123.246 788.888 122.81 788.558C122.374 788.228 122.05 787.78 121.837 787.214C121.708 786.896 121.614 786.56 121.555 786.207C121.496 785.853 121.478 785.505 121.502 785.164C121.537 784.598 121.667 784.032 121.891 783.466C122.126 782.889 122.439 782.388 122.828 781.964C123.228 781.539 123.694 781.233 124.224 781.044C124.766 780.844 125.356 780.844 125.992 781.044C126.31 781.15 126.599 781.28 126.858 781.433C127.118 781.586 127.365 781.781 127.601 782.017C127.731 782.205 127.795 782.388 127.795 782.565C127.795 782.741 127.742 782.889 127.636 783.007C127.542 783.113 127.407 783.183 127.23 783.219C127.065 783.254 126.876 783.219 126.664 783.113C126.275 782.724 125.898 782.494 125.533 782.423C125.167 782.341 124.825 782.37 124.507 782.512C124.201 782.653 123.924 782.883 123.676 783.201C123.44 783.508 123.258 783.861 123.128 784.262C122.998 784.651 122.934 785.063 122.934 785.499C122.934 785.924 123.016 786.319 123.181 786.684C123.323 787.014 123.511 787.267 123.747 787.444C123.994 787.621 124.254 787.727 124.525 787.762C124.796 787.786 125.073 787.745 125.356 787.639C125.65 787.521 125.91 787.338 126.134 787.091ZM135.011 786.931C135.258 786.837 135.47 786.825 135.647 786.896C135.824 786.967 135.948 787.079 136.018 787.232C136.101 787.385 136.113 787.556 136.054 787.745C136.007 787.933 135.871 788.092 135.647 788.222C135.258 788.446 134.84 788.652 134.392 788.841C133.944 789.029 133.49 789.159 133.03 789.23C132.571 789.301 132.117 789.295 131.669 789.212C131.221 789.141 130.791 788.965 130.379 788.682C129.883 788.34 129.506 787.88 129.247 787.303C128.988 786.713 128.852 786.106 128.84 785.482C128.829 784.845 128.941 784.238 129.176 783.661C129.424 783.071 129.807 782.6 130.325 782.246C130.868 781.881 131.457 781.61 132.093 781.433C132.73 781.245 133.372 781.221 134.021 781.362C134.339 781.433 134.628 781.586 134.887 781.822C135.146 782.046 135.352 782.311 135.506 782.618C135.671 782.912 135.759 783.231 135.771 783.572C135.783 783.902 135.7 784.215 135.523 784.509C135.323 784.839 135.034 785.122 134.657 785.358C134.28 785.582 133.867 785.776 133.419 785.941C132.983 786.095 132.541 786.224 132.093 786.33C131.657 786.436 131.274 786.537 130.944 786.631C130.803 786.666 130.667 786.672 130.538 786.649C130.714 787.026 130.974 787.338 131.316 787.586C131.669 787.821 132.105 787.922 132.624 787.886C133.036 787.863 133.449 787.751 133.861 787.55C134.286 787.338 134.669 787.132 135.011 786.931ZM131.563 783.166C131.127 783.39 130.803 783.708 130.591 784.12C130.379 784.521 130.272 784.945 130.272 785.393C130.355 785.334 130.443 785.287 130.538 785.252C130.75 785.193 130.962 785.134 131.174 785.075C131.398 785.004 131.622 784.94 131.846 784.881C131.987 784.845 132.176 784.792 132.412 784.722C132.659 784.651 132.913 784.568 133.172 784.474C133.431 784.38 133.667 784.274 133.879 784.156C134.091 784.026 134.233 783.885 134.303 783.731C134.327 783.343 134.233 783.077 134.021 782.936C133.808 782.794 133.555 782.724 133.26 782.724C132.966 782.724 132.659 782.777 132.341 782.883C132.023 782.977 131.763 783.071 131.563 783.166ZM139.472 788.151C139.684 788.305 139.808 788.481 139.843 788.682C139.879 788.87 139.849 789.035 139.755 789.177C139.673 789.318 139.537 789.418 139.348 789.477C139.172 789.536 138.965 789.507 138.73 789.389C138.624 789.318 138.518 789.248 138.411 789.177C138.305 789.106 138.193 789.035 138.076 788.965C137.969 788.87 137.899 788.782 137.863 788.699C137.828 788.617 137.799 788.499 137.775 788.346V778.534C137.822 778.31 137.911 778.139 138.04 778.021C138.182 777.903 138.323 777.844 138.464 777.844C138.618 777.832 138.765 777.88 138.906 777.986C139.048 778.092 139.154 778.257 139.225 778.481V787.992C139.26 788.016 139.295 788.045 139.331 788.081C139.378 788.104 139.425 788.128 139.472 788.151Z" fill="#AAAAAA"/>
<path d="M204.5 763H206.5V761H204.5V763ZM204.5 803V805H206.5V803H204.5ZM37 765H204.5V761H37V765ZM202.5 763V803H206.5V763H202.5ZM204.5 801H37V805H204.5V801ZM35 799V767H31V799H35ZM37 801C35.8954 801 35 800.105 35 799H31C31 802.314 33.6863 805 37 805V801ZM37 761C33.6863 761 31 763.686 31 767H35C35 765.895 35.8954 765 37 765V761Z" fill="#AAAAAA"/>
<path d="M202.785 763H372C374.209 763 376 764.791 376 767V799C376 801.209 374.209 803 372 803H202.785V763Z" fill="white"/>
<path d="M280.104 788.47C280.093 788.741 280.01 788.941 279.857 789.071C279.715 789.212 279.556 789.283 279.379 789.283C279.214 789.283 279.061 789.218 278.92 789.088C278.778 788.971 278.69 788.782 278.655 788.523C278.655 787.98 278.649 787.444 278.637 786.914C278.637 786.372 278.637 785.829 278.637 785.287C278.637 784.898 278.637 784.509 278.637 784.12C278.649 783.731 278.625 783.343 278.566 782.954C278.472 782.777 278.366 782.671 278.248 782.635C278.142 782.588 278.012 782.565 277.859 782.565C277.458 782.565 277.063 782.665 276.675 782.865C276.286 783.054 275.979 783.319 275.755 783.661C275.626 783.861 275.519 784.032 275.437 784.173C275.366 784.303 275.319 784.498 275.296 784.757C275.296 785.358 275.296 785.959 275.296 786.56C275.296 787.161 275.301 787.762 275.313 788.364C275.301 788.635 275.219 788.841 275.066 788.982C274.924 789.112 274.765 789.177 274.588 789.177C274.423 789.177 274.27 789.118 274.129 789C273.987 788.87 273.899 788.676 273.863 788.417C273.863 787.851 273.863 787.303 273.863 786.772C273.863 786.242 273.858 785.717 273.846 785.199C273.846 784.68 273.846 784.156 273.846 783.625C273.846 783.083 273.846 782.529 273.846 781.964C273.905 781.728 273.999 781.551 274.129 781.433C274.258 781.315 274.406 781.256 274.571 781.256C274.724 781.256 274.865 781.309 274.995 781.415C275.136 781.522 275.237 781.687 275.296 781.91V782.052C275.637 781.757 276.02 781.527 276.445 781.362C276.881 781.186 277.317 781.097 277.753 781.097C278.189 781.097 278.596 781.197 278.973 781.398C279.362 781.598 279.674 781.922 279.91 782.37C279.992 782.523 280.045 782.718 280.069 782.954C280.104 783.178 280.122 783.419 280.122 783.678C280.134 783.926 280.134 784.185 280.122 784.456C280.11 784.716 280.104 784.963 280.104 785.199V787.285V788.47ZM288.155 786.931C288.402 786.837 288.615 786.825 288.791 786.896C288.968 786.967 289.092 787.079 289.163 787.232C289.245 787.385 289.257 787.556 289.198 787.745C289.151 787.933 289.015 788.092 288.791 788.222C288.402 788.446 287.984 788.652 287.536 788.841C287.088 789.029 286.635 789.159 286.175 789.23C285.715 789.301 285.261 789.295 284.814 789.212C284.366 789.141 283.935 788.965 283.523 788.682C283.028 788.34 282.651 787.88 282.391 787.303C282.132 786.713 281.997 786.106 281.985 785.482C281.973 784.845 282.085 784.238 282.321 783.661C282.568 783.071 282.951 782.6 283.47 782.246C284.012 781.881 284.601 781.61 285.238 781.433C285.874 781.245 286.517 781.221 287.165 781.362C287.483 781.433 287.772 781.586 288.031 781.822C288.29 782.046 288.497 782.311 288.65 782.618C288.815 782.912 288.903 783.231 288.915 783.572C288.927 783.902 288.844 784.215 288.668 784.509C288.467 784.839 288.179 785.122 287.801 785.358C287.424 785.582 287.012 785.776 286.564 785.941C286.128 786.095 285.686 786.224 285.238 786.33C284.802 786.436 284.419 786.537 284.089 786.631C283.947 786.666 283.812 786.672 283.682 786.649C283.859 787.026 284.118 787.338 284.46 787.586C284.814 787.821 285.25 787.922 285.768 787.886C286.181 787.863 286.593 787.751 287.006 787.55C287.43 787.338 287.813 787.132 288.155 786.931ZM284.707 783.166C284.271 783.39 283.947 783.708 283.735 784.12C283.523 784.521 283.417 784.945 283.417 785.393C283.499 785.334 283.588 785.287 283.682 785.252C283.894 785.193 284.106 785.134 284.318 785.075C284.542 785.004 284.766 784.94 284.99 784.881C285.132 784.845 285.32 784.792 285.556 784.722C285.804 784.651 286.057 784.568 286.316 784.474C286.576 784.38 286.811 784.274 287.023 784.156C287.236 784.026 287.377 783.885 287.448 783.731C287.471 783.343 287.377 783.077 287.165 782.936C286.953 782.794 286.699 782.724 286.405 782.724C286.11 782.724 285.804 782.777 285.485 782.883C285.167 782.977 284.908 783.071 284.707 783.166ZM296.041 781.221C296.242 781.056 296.436 780.979 296.625 780.991C296.825 781.003 296.984 781.068 297.102 781.186C297.22 781.303 297.285 781.463 297.297 781.663C297.308 781.852 297.232 782.046 297.067 782.246C296.631 782.671 296.201 783.101 295.776 783.537C295.364 783.973 294.957 784.415 294.556 784.863C295.051 785.429 295.517 786.012 295.953 786.613C296.401 787.203 296.819 787.815 297.208 788.452C297.279 788.676 297.279 788.87 297.208 789.035C297.149 789.2 297.055 789.318 296.925 789.389C296.796 789.471 296.643 789.501 296.466 789.477C296.301 789.454 296.136 789.359 295.971 789.194C295.629 788.629 295.258 788.081 294.857 787.55C294.456 787.008 294.038 786.484 293.602 785.977C292.824 786.931 292.081 787.951 291.374 789.035C291.209 789.236 291.026 789.348 290.826 789.371C290.637 789.395 290.472 789.354 290.331 789.248C290.19 789.153 290.095 789.012 290.048 788.823C290.013 788.623 290.066 788.411 290.207 788.187C290.573 787.609 290.956 787.043 291.356 786.49C291.769 785.936 292.193 785.393 292.629 784.863C292.252 784.45 291.863 784.044 291.462 783.643C291.074 783.231 290.679 782.818 290.278 782.406C290.089 782.217 289.989 782.028 289.977 781.84C289.977 781.639 290.03 781.48 290.136 781.362C290.254 781.233 290.408 781.156 290.596 781.133C290.797 781.097 291.003 781.156 291.215 781.309C291.616 781.722 292.016 782.134 292.417 782.547C292.818 782.948 293.207 783.354 293.584 783.767C293.973 783.331 294.374 782.901 294.786 782.476C295.199 782.052 295.617 781.634 296.041 781.221ZM300.086 782.777C299.827 782.741 299.632 782.653 299.502 782.512C299.385 782.37 299.326 782.217 299.326 782.052C299.326 781.887 299.39 781.728 299.52 781.575C299.662 781.41 299.868 781.327 300.139 781.327H301.129V778.534C301.188 778.298 301.282 778.121 301.412 778.003C301.541 777.885 301.689 777.827 301.854 777.827C302.007 777.827 302.148 777.88 302.278 777.986C302.42 778.092 302.52 778.257 302.579 778.481V781.327H304.276C304.5 781.386 304.665 781.486 304.771 781.628C304.877 781.757 304.93 781.899 304.93 782.052C304.93 782.217 304.871 782.364 304.753 782.494C304.635 782.624 304.459 782.718 304.223 782.777H302.579C302.567 783.684 302.567 784.621 302.579 785.588C302.59 786.543 302.596 787.474 302.596 788.381C302.596 788.652 302.514 788.859 302.349 789C302.196 789.13 302.036 789.194 301.871 789.194C301.706 789.194 301.553 789.13 301.412 789C301.27 788.882 301.182 788.694 301.147 788.434C301.147 787.515 301.141 786.572 301.129 785.606C301.129 784.639 301.129 783.696 301.129 782.777H300.086Z" fill="#AAAAAA"/>
<path d="M202.785 763V761H200.785V763H202.785ZM202.785 803H200.785V805H202.785V803ZM202.785 765H372V761H202.785V765ZM374 767V799H378V767H374ZM372 801H202.785V805H372V801ZM204.785 803V763H200.785V803H204.785ZM374 799C374 800.105 373.105 801 372 801V805C375.314 805 378 802.314 378 799H374ZM372 765C373.105 765 374 765.895 374 767H378C378 763.686 375.314 761 372 761V765Z" fill="#AAAAAA"/>
<path d="M53.1149 199.64C53.1738 199.404 53.2681 199.227 53.3978 199.109C53.5274 198.992 53.6748 198.933 53.8398 198.933C53.993 198.933 54.1344 198.986 54.2641 199.092C54.4055 199.198 54.5057 199.363 54.5646 199.587C54.5646 201.272 54.5529 202.905 54.5293 204.484C54.5057 206.063 54.4468 207.696 54.3525 209.381C54.3525 209.381 54.3584 209.387 54.3702 209.399H54.3525C54.3407 209.458 54.3348 209.511 54.3348 209.558C54.3348 209.593 54.3348 209.635 54.3348 209.682C54.2641 209.87 54.1639 210.012 54.0343 210.106C53.9164 210.2 53.7867 210.248 53.6453 210.248C53.4331 210.248 53.2328 210.153 53.0442 209.965C53.0206 209.917 52.9971 209.876 52.9735 209.841C52.9499 209.806 52.9263 209.77 52.9028 209.735H52.8851V209.699C52.4608 208.98 52.0247 208.297 51.5768 207.649C51.1289 206.989 50.6692 206.346 50.1978 205.722C49.7263 205.085 49.2431 204.46 48.7481 203.848C48.2648 203.223 47.7639 202.586 47.2453 201.938C47.2453 202.563 47.2453 203.17 47.2453 203.759C47.2453 204.337 47.2453 204.926 47.2453 205.527C47.2453 206.116 47.2453 206.735 47.2453 207.383C47.2571 208.032 47.263 208.733 47.263 209.487C47.2512 209.758 47.1687 209.959 47.0155 210.088C46.874 210.23 46.7149 210.301 46.5381 210.301C46.3731 210.301 46.2199 210.236 46.0785 210.106C45.937 209.988 45.8486 209.8 45.8133 209.54C45.8133 207.949 45.8074 206.34 45.7956 204.714C45.7956 203.076 45.7956 201.461 45.7956 199.87C45.8427 199.657 45.9311 199.492 46.0608 199.375C46.1904 199.257 46.3378 199.198 46.5028 199.198C46.6678 199.198 46.8446 199.263 47.0331 199.392C47.5753 200.041 48.1057 200.677 48.6243 201.302C49.1429 201.915 49.6497 202.533 50.1448 203.158C50.6516 203.783 51.1407 204.425 51.6122 205.085C52.0836 205.733 52.5433 206.411 52.9912 207.118C53.0383 205.822 53.0678 204.578 53.0796 203.388C53.1031 202.197 53.1149 200.948 53.1149 199.64ZM63.286 209.24C63.286 209.252 63.2801 209.257 63.2683 209.257C63.339 209.422 63.3567 209.576 63.3213 209.717C63.286 209.859 63.2153 209.971 63.1092 210.053C63.0149 210.147 62.8852 210.206 62.7202 210.23C62.567 210.253 62.3961 210.218 62.2075 210.124C62.1014 210.018 62.0013 209.906 61.907 209.788C61.8127 209.658 61.7302 209.529 61.6595 209.399C61.4237 209.599 61.1703 209.788 60.8992 209.965C60.6282 210.13 60.3571 210.218 60.086 210.23C59.6145 210.253 59.149 210.259 58.6893 210.248C58.2296 210.236 57.7935 210.083 57.381 209.788C57.0392 209.54 56.774 209.246 56.5854 208.904C56.4086 208.562 56.2908 208.203 56.2318 207.825C56.1847 207.436 56.1906 207.042 56.2495 206.641C56.3084 206.24 56.4086 205.857 56.5501 205.492C56.609 205.327 56.6856 205.168 56.7799 205.014C56.8742 204.861 56.9685 204.702 57.0628 204.537C57.1924 204.301 57.3398 204.083 57.5048 203.883C57.6698 203.671 57.8584 203.488 58.0705 203.335C58.2237 203.229 58.3711 203.123 58.5125 203.017C58.6657 202.91 58.8189 202.81 58.9722 202.716C59.0782 202.645 59.2374 202.575 59.4495 202.504C59.6735 202.421 59.9092 202.357 60.1567 202.309C60.416 202.25 60.6694 202.221 60.9169 202.221C61.1762 202.221 61.3943 202.256 61.5711 202.327C61.7361 202.303 61.8952 202.345 62.0484 202.451C62.2134 202.557 62.3372 202.728 62.4197 202.964C62.4197 203.765 62.4138 204.572 62.402 205.386C62.3902 206.199 62.4433 207.006 62.5611 207.808C62.5729 207.914 62.6142 208.043 62.6849 208.197C62.7674 208.338 62.8499 208.48 62.9324 208.621C63.0267 208.762 63.1092 208.892 63.1799 209.01C63.2506 209.128 63.286 209.204 63.286 209.24ZM61.0407 208.02C61.0642 208.008 61.0819 207.996 61.0937 207.985C61.1055 207.973 61.1232 207.961 61.1468 207.949C60.9935 207.242 60.9169 206.511 60.9169 205.757C60.9287 204.991 60.9405 204.29 60.9523 203.653C60.8462 203.653 60.7283 203.665 60.5987 203.688C60.469 203.712 60.3394 203.747 60.2097 203.794C60.0919 203.83 59.9799 203.865 59.8738 203.901C59.7795 203.936 59.7088 203.965 59.6617 203.989C59.3081 204.154 59.0075 204.372 58.76 204.643C58.5125 204.902 58.3062 205.197 58.1412 205.527C57.988 205.845 57.8701 206.187 57.7876 206.552C57.7051 206.906 57.6639 207.266 57.6639 207.631C57.6875 207.725 57.7169 207.82 57.7523 207.914C57.7876 208.008 57.8171 208.102 57.8407 208.197C57.8996 208.256 57.9585 208.32 58.0175 208.391C58.0882 208.462 58.1589 208.527 58.2296 208.586C58.3357 208.633 58.4418 208.674 58.5479 208.709C58.6539 208.745 58.76 208.78 58.8661 208.815C59.0665 208.815 59.2609 208.821 59.4495 208.833C59.6381 208.845 59.8267 208.821 60.0153 208.762C60.1921 208.645 60.363 208.527 60.528 208.409C60.7048 208.291 60.8757 208.161 61.0407 208.02ZM69.1591 205.032C69.1591 204.997 69.165 204.973 69.1768 204.961C69.165 204.926 69.1591 204.879 69.1591 204.82V204.625C69.0177 204.26 68.7938 203.995 68.4873 203.83C68.1809 203.665 67.845 203.576 67.4796 203.565C67.2203 203.647 66.9728 203.771 66.737 203.936L66.3658 204.413C66.3304 204.46 66.295 204.502 66.2597 204.537C66.2243 204.561 66.189 204.584 66.1536 204.608V209.47C66.1418 209.741 66.0593 209.941 65.9061 210.071C65.7647 210.212 65.6055 210.283 65.4287 210.283C65.2637 210.283 65.1105 210.218 64.9691 210.088C64.8276 209.971 64.7392 209.782 64.7039 209.523V202.681C64.7628 202.445 64.8571 202.274 64.9868 202.168C65.1164 202.05 65.2637 201.991 65.4287 201.991C65.5702 201.991 65.7057 202.044 65.8354 202.15C65.9768 202.245 66.077 202.398 66.1359 202.61C66.3245 202.48 66.5485 202.362 66.8078 202.256C67.0788 202.138 67.3617 202.08 67.6564 202.08C68.0807 202.08 68.5109 202.192 68.947 202.415C69.3949 202.628 69.7543 202.899 70.0254 203.229C70.1551 203.099 70.2906 202.969 70.4321 202.84C70.5853 202.698 70.7444 202.575 70.9094 202.469C71.0744 202.351 71.2453 202.256 71.4221 202.186C71.5989 202.103 71.7757 202.062 71.9525 202.062C72.3179 202.062 72.6774 202.127 73.031 202.256C73.3845 202.374 73.6969 202.545 73.968 202.769C74.2508 202.981 74.4748 203.235 74.6398 203.529C74.8166 203.812 74.905 204.113 74.905 204.431C74.905 204.455 74.8991 204.472 74.8873 204.484C74.8873 204.496 74.8873 204.513 74.8873 204.537C74.8991 204.549 74.905 204.561 74.905 204.572C74.905 204.584 74.9109 204.596 74.9227 204.608V209.399C74.9109 209.67 74.8284 209.87 74.6752 210C74.5337 210.141 74.3746 210.212 74.1978 210.212C74.0328 210.212 73.8796 210.147 73.7381 210.018C73.5967 209.9 73.5083 209.711 73.4729 209.452V204.608C73.3433 204.195 73.1429 203.918 72.8718 203.777C72.6008 203.624 72.3297 203.547 72.0586 203.547C71.7521 203.547 71.4752 203.624 71.2276 203.777C70.9801 203.93 70.7739 204.213 70.6089 204.625V209.381C70.5971 209.652 70.5146 209.859 70.3613 210C70.2199 210.13 70.0608 210.194 69.884 210.194C69.719 210.194 69.5658 210.13 69.4243 210C69.2829 209.882 69.1945 209.694 69.1591 209.434V205.032ZM83.0262 207.931C83.2737 207.837 83.4859 207.825 83.6627 207.896C83.8395 207.967 83.9632 208.079 84.0339 208.232C84.1164 208.385 84.1282 208.556 84.0693 208.745C84.0221 208.933 83.8866 209.092 83.6627 209.222C83.2737 209.446 82.8553 209.652 82.4074 209.841C81.9595 210.029 81.5057 210.159 81.0461 210.23C80.5864 210.301 80.1326 210.295 79.6848 210.212C79.2369 210.141 78.8067 209.965 78.3941 209.682C77.8991 209.34 77.522 208.88 77.2627 208.303C77.0034 207.713 76.8678 207.106 76.856 206.482C76.8442 205.845 76.9562 205.238 77.1919 204.661C77.4395 204.071 77.8225 203.6 78.3411 203.246C78.8833 202.881 79.4726 202.61 80.1091 202.433C80.7455 202.245 81.3879 202.221 82.0361 202.362C82.3544 202.433 82.6431 202.586 82.9024 202.822C83.1617 203.046 83.368 203.311 83.5212 203.618C83.6862 203.912 83.7746 204.231 83.7864 204.572C83.7982 204.902 83.7157 205.215 83.5389 205.509C83.3385 205.839 83.0498 206.122 82.6726 206.358C82.2954 206.582 81.8829 206.776 81.435 206.941C80.9989 207.095 80.5569 207.224 80.1091 207.33C79.673 207.436 79.2899 207.537 78.9599 207.631C78.8185 207.666 78.6829 207.672 78.5533 207.649C78.7301 208.026 78.9894 208.338 79.3312 208.586C79.6848 208.821 80.1209 208.922 80.6395 208.886C81.052 208.863 81.4645 208.751 81.877 208.55C82.3013 208.338 82.6844 208.132 83.0262 207.931ZM79.5787 204.166C79.1426 204.39 78.8185 204.708 78.6063 205.12C78.3941 205.521 78.2881 205.945 78.2881 206.393C78.3706 206.334 78.459 206.287 78.5533 206.252C78.7654 206.193 78.9776 206.134 79.1897 206.075C79.4137 206.004 79.6376 205.94 79.8616 205.881C80.003 205.845 80.1916 205.792 80.4273 205.722C80.6748 205.651 80.9282 205.568 81.1875 205.474C81.4468 205.38 81.6825 205.274 81.8947 205.156C82.1069 205.026 82.2483 204.885 82.319 204.731C82.3426 204.343 82.2483 204.077 82.0361 203.936C81.824 203.794 81.5706 203.724 81.2759 203.724C80.9813 203.724 80.6748 203.777 80.3566 203.883C80.0383 203.977 79.779 204.071 79.5787 204.166Z" fill="#111111"/>
<rect x="46" y="219" width="318" height="38" rx="3" fill="white" stroke="#AAAAAA" stroke-width="2"/>
<path d="M52.0365 288.161C52.2604 288.15 52.4431 288.197 52.5845 288.303C52.7378 288.397 52.832 288.521 52.8674 288.674C52.9145 288.815 52.9028 288.969 52.832 289.134C52.7731 289.287 52.6435 289.422 52.4431 289.54C52.0188 289.658 51.565 289.752 51.0818 289.823C50.5985 289.894 50.1094 289.941 49.6144 289.965C49.1193 289.976 48.6302 289.965 48.147 289.929C47.6637 289.894 47.2041 289.823 46.768 289.717C46.5794 289.623 46.4438 289.511 46.3613 289.381C46.2788 289.24 46.2435 289.104 46.2552 288.975V288.957V281.196C46.102 281.148 45.9842 281.066 45.9017 280.948C45.8192 280.83 45.7779 280.701 45.7779 280.559C45.7779 280.418 45.825 280.282 45.9193 280.152C46.0136 280.011 46.161 279.905 46.3613 279.834C46.821 279.693 47.2866 279.599 47.758 279.551C48.2413 279.492 48.7245 279.457 49.2077 279.445C49.691 279.422 50.1742 279.41 50.6575 279.41C51.1407 279.41 51.618 279.398 52.0895 279.375C52.3488 279.363 52.5492 279.422 52.6906 279.551C52.8438 279.681 52.9322 279.828 52.9558 279.993C52.9794 280.158 52.9322 280.323 52.8144 280.488C52.7083 280.642 52.5256 280.748 52.2663 280.807C51.5591 280.842 50.8048 280.854 50.0033 280.842C49.2136 280.83 48.4475 280.883 47.705 281.001V284.113C48.3179 284.136 48.9308 284.136 49.5436 284.113C50.1683 284.077 50.793 284.03 51.4177 283.971C51.677 283.959 51.8773 284.018 52.0188 284.148C52.172 284.278 52.2604 284.425 52.284 284.59C52.3076 284.755 52.2604 284.92 52.1425 285.085C52.0365 285.238 51.8538 285.344 51.5945 285.403C50.9462 285.462 50.2921 285.509 49.632 285.545C48.9838 285.58 48.3414 285.586 47.705 285.562V288.427C48.4122 288.533 49.1429 288.562 49.8972 288.515C50.6634 288.456 51.3764 288.338 52.0365 288.161ZM59.0185 285.032C59.0185 284.997 59.0244 284.973 59.0362 284.961C59.0244 284.926 59.0185 284.879 59.0185 284.82V284.625C58.8771 284.26 58.6531 283.995 58.3467 283.83C58.0402 283.665 57.7043 283.576 57.339 283.565C57.0796 283.647 56.8321 283.771 56.5964 283.936L56.2251 284.413C56.1898 284.46 56.1544 284.502 56.1191 284.537C56.0837 284.561 56.0483 284.584 56.013 284.608V289.47C56.0012 289.741 55.9187 289.941 55.7655 290.071C55.624 290.212 55.4649 290.283 55.2881 290.283C55.1231 290.283 54.9699 290.218 54.8285 290.088C54.687 289.971 54.5986 289.782 54.5633 289.523V282.681C54.6222 282.445 54.7165 282.274 54.8461 282.168C54.9758 282.05 55.1231 281.991 55.2881 281.991C55.4296 281.991 55.5651 282.044 55.6948 282.15C55.8362 282.245 55.9364 282.398 55.9953 282.61C56.1839 282.48 56.4078 282.362 56.6671 282.256C56.9382 282.138 57.2211 282.08 57.5157 282.08C57.9401 282.08 58.3703 282.192 58.8064 282.415C59.2542 282.628 59.6137 282.899 59.8848 283.229C60.0145 283.099 60.15 282.969 60.2914 282.84C60.4447 282.698 60.6038 282.575 60.7688 282.469C60.9338 282.351 61.1047 282.256 61.2815 282.186C61.4583 282.103 61.6351 282.062 61.8119 282.062C62.1773 282.062 62.5367 282.127 62.8903 282.256C63.2439 282.374 63.5563 282.545 63.8273 282.769C64.1102 282.981 64.3342 283.235 64.4992 283.529C64.676 283.812 64.7644 284.113 64.7644 284.431C64.7644 284.455 64.7585 284.472 64.7467 284.484C64.7467 284.496 64.7467 284.513 64.7467 284.537C64.7585 284.549 64.7644 284.561 64.7644 284.572C64.7644 284.584 64.7703 284.596 64.782 284.608V289.399C64.7703 289.67 64.6878 289.87 64.5345 290C64.3931 290.141 64.234 290.212 64.0572 290.212C63.8922 290.212 63.7389 290.147 63.5975 290.018C63.4561 289.9 63.3677 289.711 63.3323 289.452V284.608C63.2027 284.195 63.0023 283.918 62.7312 283.777C62.4601 283.624 62.189 283.547 61.918 283.547C61.6115 283.547 61.3345 283.624 61.087 283.777C60.8395 283.93 60.6332 284.213 60.4682 284.625V289.381C60.4564 289.652 60.3739 289.859 60.2207 290C60.0793 290.13 59.9202 290.194 59.7434 290.194C59.5784 290.194 59.4251 290.13 59.2837 290C59.1423 289.882 59.0539 289.694 59.0185 289.434V285.032ZM73.5204 289.24C73.5204 289.252 73.5145 289.257 73.5027 289.257C73.5734 289.422 73.5911 289.576 73.5557 289.717C73.5204 289.859 73.4496 289.971 73.3436 290.053C73.2493 290.147 73.1196 290.206 72.9546 290.23C72.8014 290.253 72.6305 290.218 72.4419 290.124C72.3358 290.018 72.2356 289.906 72.1413 289.788C72.0471 289.658 71.9646 289.529 71.8938 289.399C71.6581 289.599 71.4047 289.788 71.1336 289.965C70.8625 290.13 70.5914 290.218 70.3204 290.23C69.8489 290.253 69.3833 290.259 68.9237 290.248C68.464 290.236 68.0279 290.083 67.6154 289.788C67.2736 289.54 67.0084 289.246 66.8198 288.904C66.643 288.562 66.5251 288.203 66.4662 287.825C66.4191 287.436 66.425 287.042 66.4839 286.641C66.5428 286.24 66.643 285.857 66.7844 285.492C66.8434 285.327 66.92 285.168 67.0143 285.014C67.1086 284.861 67.2029 284.702 67.2972 284.537C67.4268 284.301 67.5741 284.083 67.7391 283.883C67.9041 283.671 68.0927 283.488 68.3049 283.335C68.4581 283.229 68.6054 283.123 68.7469 283.017C68.9001 282.91 69.0533 282.81 69.2065 282.716C69.3126 282.645 69.4717 282.575 69.6839 282.504C69.9078 282.421 70.1436 282.357 70.3911 282.309C70.6504 282.25 70.9038 282.221 71.1513 282.221C71.4106 282.221 71.6286 282.256 71.8054 282.327C71.9704 282.303 72.1296 282.345 72.2828 282.451C72.4478 282.557 72.5716 282.728 72.6541 282.964C72.6541 283.765 72.6482 284.572 72.6364 285.386C72.6246 286.199 72.6776 287.006 72.7955 287.808C72.8073 287.914 72.8485 288.043 72.9193 288.197C73.0018 288.338 73.0843 288.48 73.1668 288.621C73.2611 288.762 73.3436 288.892 73.4143 289.01C73.485 289.128 73.5204 289.204 73.5204 289.24ZM71.2751 288.02C71.2986 288.008 71.3163 287.996 71.3281 287.985C71.3399 287.973 71.3576 287.961 71.3811 287.949C71.2279 287.242 71.1513 286.511 71.1513 285.757C71.1631 284.991 71.1749 284.29 71.1867 283.653C71.0806 283.653 70.9627 283.665 70.8331 283.688C70.7034 283.712 70.5738 283.747 70.4441 283.794C70.3262 283.83 70.2143 283.865 70.1082 283.901C70.0139 283.936 69.9432 283.965 69.896 283.989C69.5425 284.154 69.2419 284.372 68.9944 284.643C68.7469 284.902 68.5406 285.197 68.3756 285.527C68.2224 285.845 68.1045 286.187 68.022 286.552C67.9395 286.906 67.8983 287.266 67.8983 287.631C67.9218 287.725 67.9513 287.82 67.9867 287.914C68.022 288.008 68.0515 288.102 68.0751 288.197C68.134 288.256 68.1929 288.32 68.2518 288.391C68.3226 288.462 68.3933 288.527 68.464 288.586C68.5701 288.633 68.6762 288.674 68.7822 288.709C68.8883 288.745 68.9944 288.78 69.1005 288.815C69.3008 288.815 69.4953 288.821 69.6839 288.833C69.8725 288.845 70.0611 288.821 70.2496 288.762C70.4264 288.645 70.5973 288.527 70.7623 288.409C70.9391 288.291 71.11 288.161 71.2751 288.02ZM76.7769 289.434C76.7651 289.705 76.6826 289.906 76.5294 290.035C76.388 290.177 76.2289 290.248 76.0521 290.248C75.8871 290.248 75.7338 290.183 75.5924 290.053C75.451 289.935 75.3626 289.747 75.3272 289.487C75.3154 288.379 75.3036 287.248 75.2919 286.093C75.2919 284.938 75.286 283.806 75.2742 282.698C75.3331 282.463 75.4274 282.286 75.557 282.168C75.6867 282.05 75.834 281.991 75.999 281.991C76.1523 281.991 76.2937 282.044 76.4233 282.15C76.5648 282.256 76.665 282.421 76.7239 282.645C76.7357 283.753 76.7416 284.885 76.7416 286.04C76.7534 287.195 76.7651 288.326 76.7769 289.434ZM75.1504 279.817C75.1504 279.557 75.2329 279.339 75.3979 279.162C75.5629 278.974 75.7633 278.88 75.999 278.88C76.2348 278.88 76.4351 278.974 76.6001 279.162C76.7769 279.339 76.8653 279.557 76.8653 279.817C76.8653 280.064 76.7769 280.282 76.6001 280.471C76.4351 280.648 76.2348 280.736 75.999 280.736C75.7633 280.736 75.5629 280.648 75.3979 280.471C75.2329 280.282 75.1504 280.064 75.1504 279.817ZM81.1128 289.151C81.325 289.305 81.4488 289.481 81.4841 289.682C81.5195 289.87 81.49 290.035 81.3957 290.177C81.3132 290.318 81.1777 290.418 80.9891 290.477C80.8123 290.536 80.606 290.507 80.3703 290.389C80.2642 290.318 80.1581 290.248 80.0521 290.177C79.946 290.106 79.834 290.035 79.7162 289.965C79.6101 289.87 79.5394 289.782 79.504 289.699C79.4686 289.617 79.4392 289.499 79.4156 289.346V279.534C79.4628 279.31 79.5512 279.139 79.6808 279.021C79.8222 278.903 79.9637 278.844 80.1051 278.844C80.2583 278.832 80.4057 278.88 80.5471 278.986C80.6885 279.092 80.7946 279.257 80.8653 279.481V288.992C80.9007 289.016 80.936 289.045 80.9714 289.081C81.0186 289.104 81.0657 289.128 81.1128 289.151Z" fill="#111111"/>
<rect x="46" y="299" width="318" height="38" rx="3" fill="white" stroke="#AAAAAA" stroke-width="2"/>
<path d="M46.0608 360.17C46.1197 359.934 46.214 359.764 46.3436 359.657C46.4733 359.54 46.6206 359.481 46.7856 359.481C46.8799 359.481 46.9506 359.492 46.9978 359.516C47.4457 359.316 47.9171 359.151 48.4122 359.021C48.9072 358.891 49.4022 358.827 49.8972 358.827C50.2273 358.827 50.5455 358.862 50.8519 358.933C51.1702 358.992 51.4766 359.103 51.7713 359.269C52.0895 359.434 52.3783 359.646 52.6376 359.905C52.8969 360.164 53.1149 360.453 53.2917 360.771C53.4685 361.078 53.6041 361.408 53.6983 361.761C53.8044 362.115 53.8575 362.469 53.8575 362.822C53.8575 363.506 53.6748 364.136 53.3094 364.714C52.9204 365.315 52.4431 365.798 51.8773 366.164C51.3116 366.517 50.6634 366.723 49.9326 366.782C49.7912 366.794 49.6438 366.806 49.4906 366.818C49.3492 366.818 49.2136 366.818 49.084 366.818C48.8129 366.818 48.5477 366.806 48.2884 366.782C48.0291 366.759 47.7698 366.729 47.5105 366.694C47.5105 367.142 47.5105 367.649 47.5105 368.214C47.5105 368.78 47.5164 369.287 47.5282 369.735C47.5164 370.006 47.4339 370.206 47.2807 370.336C47.1392 370.477 46.9801 370.548 46.8033 370.548C46.6383 370.548 46.4851 370.483 46.3436 370.354C46.2022 370.236 46.1138 370.047 46.0785 369.788V366.34C46.0431 366.34 46.0018 366.329 45.9547 366.305C45.7779 366.211 45.6483 366.099 45.5657 365.969C45.4832 365.839 45.442 365.71 45.442 365.58C45.442 365.427 45.495 365.291 45.6011 365.173C45.7072 365.044 45.8604 364.955 46.0608 364.908V360.17ZM51.0818 360.541C50.7164 360.353 50.3157 360.259 49.8796 360.259C49.467 360.259 49.0545 360.323 48.642 360.453C48.2295 360.571 47.8523 360.712 47.5105 360.877V365.227C47.758 365.285 48.0055 365.333 48.253 365.368C48.5006 365.392 48.754 365.403 49.0133 365.403C49.2608 365.403 49.5083 365.386 49.7558 365.35C50.0976 365.291 50.4335 365.209 50.7635 365.103C51.1053 364.985 51.4059 364.79 51.6652 364.519C51.9009 364.26 52.0777 363.977 52.1956 363.671C52.3134 363.364 52.3724 363.058 52.3724 362.751C52.3724 362.303 52.2604 361.885 52.0365 361.496C51.8243 361.095 51.5061 360.777 51.0818 360.541ZM56.8468 369.452C56.8351 369.711 56.7584 369.906 56.617 370.035C56.4756 370.177 56.3165 370.248 56.1397 370.248C55.9746 370.259 55.8155 370.2 55.6623 370.071C55.5209 369.953 55.4325 369.764 55.3971 369.505V359.675C55.4443 359.451 55.5327 359.28 55.6623 359.162C55.8037 359.045 55.9452 358.986 56.0866 358.986C56.2398 358.974 56.3872 359.021 56.5286 359.127C56.67 359.233 56.7761 359.398 56.8468 359.622V363.777C57.0236 363.6 57.1886 363.459 57.3419 363.352C57.5776 363.187 57.7956 363.058 57.996 362.964C58.2082 362.857 58.4498 362.775 58.7209 362.716C58.933 362.657 59.1452 362.645 59.3573 362.681C59.5813 362.716 59.7993 362.763 60.0115 362.822C60.3651 362.928 60.6656 363.099 60.9131 363.335C61.1724 363.571 61.3846 363.848 61.5496 364.166C61.7264 364.472 61.856 364.802 61.9386 365.156C62.0211 365.509 62.0682 365.851 62.08 366.181C62.0918 366.747 62.0918 367.307 62.08 367.861C62.08 368.403 62.0859 368.957 62.0977 369.523C62.0859 369.782 62.0093 369.976 61.8678 370.106C61.7264 370.248 61.5673 370.318 61.3905 370.318C61.2255 370.33 61.0664 370.271 60.9131 370.141C60.7717 370.024 60.6833 369.835 60.6479 369.576C60.6479 369.01 60.6479 368.456 60.6479 367.914C60.6479 367.36 60.6421 366.8 60.6303 366.234C60.6185 365.81 60.536 365.427 60.3828 365.085C60.2413 364.743 59.9879 364.455 59.6225 364.219C59.3161 364.136 59.0391 364.136 58.7916 364.219C58.5441 364.301 58.3142 364.431 58.1021 364.608C57.9017 364.773 57.7131 364.967 57.5363 365.191C57.3595 365.415 57.1886 365.633 57.0236 365.845C57.0001 365.881 56.9706 365.916 56.9352 365.951C56.8999 365.975 56.8704 365.999 56.8468 366.022V369.452ZM63.6759 365.669C63.8056 365.291 63.9647 364.926 64.1533 364.572C64.3419 364.207 64.5658 363.877 64.8251 363.582C65.0844 363.288 65.3791 363.034 65.7091 362.822C66.0509 362.61 66.428 362.457 66.8406 362.362C67.5242 362.209 68.1194 362.262 68.6262 362.522C69.1448 362.781 69.5573 363.152 69.8638 363.635C70.1702 364.119 70.3706 364.673 70.4649 365.297C70.571 365.91 70.5474 366.499 70.3942 367.065C70.2174 367.761 69.905 368.409 69.4571 369.01C69.0093 369.611 68.4435 370.047 67.7599 370.318C67.2531 370.519 66.764 370.589 66.2925 370.53C65.8328 370.483 65.4144 370.336 65.0373 370.088C64.6719 369.841 64.3595 369.517 64.1002 369.116C63.8409 368.715 63.6641 368.262 63.5699 367.755C63.5109 367.436 63.4874 367.124 63.4991 366.818C63.5227 366.511 63.564 366.205 63.6229 365.898L63.6759 365.669ZM65.0549 366.075C65.0078 366.323 64.9724 366.552 64.9489 366.765C64.9371 366.965 64.9489 367.195 64.9842 367.454C65.0196 367.772 65.1198 368.061 65.2848 368.32C65.4498 368.568 65.6501 368.762 65.8859 368.904C66.1216 369.034 66.3809 369.098 66.6638 369.098C66.9584 369.087 67.2531 368.992 67.5478 368.815C67.9367 368.58 68.2432 368.273 68.4671 367.896C68.7028 367.519 68.8796 367.112 68.9975 366.676C69.0918 366.323 69.1094 365.945 69.0505 365.545C69.0034 365.144 68.8855 364.79 68.6969 364.484C68.5083 364.178 68.2549 363.959 67.9367 363.83C67.6185 363.688 67.2413 363.706 66.8052 363.883C66.3338 364.083 65.9625 364.384 65.6914 364.785C65.4203 365.185 65.2082 365.615 65.0549 366.075ZM78.4912 369.47C78.4794 369.741 78.3969 369.941 78.2437 370.071C78.1023 370.212 77.9431 370.283 77.7663 370.283C77.6013 370.283 77.4481 370.218 77.3067 370.088C77.1652 369.971 77.0768 369.782 77.0415 369.523C77.0415 368.98 77.0356 368.444 77.0238 367.914C77.0238 367.372 77.0238 366.829 77.0238 366.287C77.0238 365.898 77.0238 365.509 77.0238 365.12C77.0356 364.731 77.012 364.343 76.9531 363.954C76.8588 363.777 76.7527 363.671 76.6349 363.635C76.5288 363.588 76.3991 363.565 76.2459 363.565C75.8452 363.565 75.4503 363.665 75.0614 363.865C74.6724 364.054 74.366 364.319 74.142 364.661C74.0124 364.861 73.9063 365.032 73.8238 365.173C73.7531 365.303 73.7059 365.498 73.6824 365.757C73.6824 366.358 73.6824 366.959 73.6824 367.56C73.6824 368.161 73.6883 368.762 73.7001 369.364C73.6883 369.635 73.6058 369.841 73.4525 369.982C73.3111 370.112 73.152 370.177 72.9752 370.177C72.8102 370.177 72.657 370.118 72.5155 370C72.3741 369.87 72.2857 369.676 72.2503 369.417C72.2503 368.851 72.2503 368.303 72.2503 367.772C72.2503 367.242 72.2444 366.717 72.2326 366.199C72.2326 365.68 72.2326 365.156 72.2326 364.625C72.2326 364.083 72.2326 363.529 72.2326 362.964C72.2916 362.728 72.3859 362.551 72.5155 362.433C72.6452 362.315 72.7925 362.256 72.9575 362.256C73.1107 362.256 73.2522 362.309 73.3818 362.415C73.5233 362.522 73.6234 362.687 73.6824 362.91V363.052C74.0242 362.757 74.4072 362.527 74.8315 362.362C75.2676 362.186 75.7037 362.097 76.1398 362.097C76.5759 362.097 76.9826 362.197 77.3597 362.398C77.7487 362.598 78.061 362.922 78.2967 363.37C78.3792 363.523 78.4323 363.718 78.4559 363.954C78.4912 364.178 78.5089 364.419 78.5089 364.678C78.5207 364.926 78.5207 365.185 78.5089 365.456C78.4971 365.716 78.4912 365.963 78.4912 366.199V368.285V369.47ZM86.5418 367.931C86.7893 367.837 87.0015 367.825 87.1783 367.896C87.3551 367.967 87.4788 368.079 87.5496 368.232C87.6321 368.385 87.6438 368.556 87.5849 368.745C87.5378 368.933 87.4022 369.092 87.1783 369.222C86.7893 369.446 86.3709 369.652 85.923 369.841C85.4751 370.029 85.0214 370.159 84.5617 370.23C84.102 370.301 83.6483 370.295 83.2004 370.212C82.7525 370.141 82.3223 369.965 81.9098 369.682C81.4147 369.34 81.0376 368.88 80.7783 368.303C80.519 367.713 80.3834 367.106 80.3717 366.482C80.3599 365.845 80.4718 365.238 80.7076 364.661C80.9551 364.071 81.3381 363.6 81.8567 363.246C82.3989 362.881 82.9882 362.61 83.6247 362.433C84.2612 362.245 84.9035 362.221 85.5518 362.362C85.87 362.433 86.1588 362.586 86.4181 362.822C86.6774 363.046 86.8836 363.311 87.0368 363.618C87.2019 363.912 87.2903 364.231 87.302 364.572C87.3138 364.902 87.2313 365.215 87.0545 365.509C86.8542 365.839 86.5654 366.122 86.1882 366.358C85.8111 366.582 85.3985 366.776 84.9507 366.941C84.5146 367.095 84.0726 367.224 83.6247 367.33C83.1886 367.436 82.8055 367.537 82.4755 367.631C82.3341 367.666 82.1985 367.672 82.0689 367.649C82.2457 368.026 82.505 368.338 82.8468 368.586C83.2004 368.821 83.6365 368.922 84.1551 368.886C84.5676 368.863 84.9801 368.751 85.3926 368.55C85.817 368.338 86.2 368.132 86.5418 367.931ZM83.0943 364.166C82.6582 364.39 82.3341 364.708 82.1219 365.12C81.9098 365.521 81.8037 365.945 81.8037 366.393C81.8862 366.334 81.9746 366.287 82.0689 366.252C82.281 366.193 82.4932 366.134 82.7054 366.075C82.9293 366.004 83.1532 365.94 83.3772 365.881C83.5186 365.845 83.7072 365.792 83.9429 365.722C84.1904 365.651 84.4438 365.568 84.7031 365.474C84.9624 365.38 85.1982 365.274 85.4103 365.156C85.6225 365.026 85.7639 364.885 85.8346 364.731C85.8582 364.343 85.7639 364.077 85.5518 363.936C85.3396 363.794 85.0862 363.724 84.7915 363.724C84.4969 363.724 84.1904 363.777 83.8722 363.883C83.554 363.977 83.2947 364.071 83.0943 364.166Z" fill="#111111"/>
<rect x="46" y="379" width="318" height="38" rx="3" fill="white" stroke="#AAAAAA" stroke-width="2"/>
<path d="M54.6707 449.417C54.6589 449.641 54.6 449.823 54.4939 449.965C54.3878 450.106 54.2582 450.189 54.105 450.212C53.9517 450.248 53.7985 450.224 53.6453 450.141C53.4921 450.059 53.3624 449.917 53.2564 449.717C53.1856 449.163 53.0855 448.621 52.9558 448.091C52.8262 447.548 52.6729 447.012 52.4961 446.482L47.811 446.517C47.7875 446.517 47.758 446.517 47.7227 446.517C47.6991 446.505 47.6755 446.499 47.6519 446.499C47.3573 447.501 47.0921 448.538 46.8564 449.611C46.7621 449.859 46.6265 450.024 46.4497 450.106C46.2729 450.189 46.102 450.206 45.937 450.159C45.7838 450.112 45.6541 450.006 45.5481 449.841C45.4538 449.676 45.4302 449.464 45.4773 449.204C45.8663 447.495 46.3319 445.828 46.874 444.201C47.428 442.563 48.1175 440.966 48.9425 439.41C49.0133 439.186 49.1783 439.045 49.4376 438.986C49.5672 438.938 49.691 438.933 49.8088 438.968C49.9267 438.992 50.0269 439.045 50.1094 439.127C50.1212 439.127 50.1271 439.133 50.1271 439.145C50.1271 439.145 50.133 439.145 50.1448 439.145C50.7576 439.734 51.2703 440.4 51.6829 441.143C52.0954 441.885 52.4726 442.639 52.8144 443.406C52.944 443.677 53.0619 443.948 53.168 444.219C53.2858 444.49 53.3978 444.761 53.5039 445.032L54.4409 445.014C54.6648 445.085 54.8298 445.191 54.9359 445.333C55.042 445.474 55.0891 445.621 55.0773 445.775C55.0773 445.916 55.0184 446.057 54.9006 446.199C54.7827 446.329 54.6118 446.417 54.3878 446.464H54.0166C54.1698 446.947 54.2994 447.436 54.4055 447.931C54.5234 448.415 54.6118 448.91 54.6707 449.417ZM49.7912 440.913C49.4611 441.585 49.1547 442.268 48.8718 442.964C48.6007 443.659 48.3473 444.36 48.1116 445.067L51.9657 445.032C51.8125 444.678 51.6534 444.331 51.4884 443.989C51.3352 443.647 51.1761 443.305 51.011 442.964C50.8225 442.622 50.6339 442.274 50.4453 441.92C50.2567 441.567 50.0387 441.231 49.7912 440.913ZM62.5591 448.745C62.7123 448.957 62.7712 449.163 62.7359 449.364C62.7123 449.552 62.6357 449.705 62.506 449.823C62.3882 449.929 62.229 449.982 62.0287 449.982C61.8401 449.971 61.6515 449.87 61.4629 449.682C61.404 449.623 61.351 449.564 61.3038 449.505C61.2567 449.434 61.2213 449.369 61.1977 449.31C60.8441 449.617 60.4316 449.853 59.9602 450.018C59.5005 450.194 59.029 450.283 58.5458 450.283C58.0743 450.283 57.6206 450.189 57.1845 450C56.7484 449.8 56.383 449.493 56.0883 449.081C55.8644 448.762 55.6994 448.409 55.5933 448.02C55.499 447.619 55.4519 447.218 55.4519 446.818C55.4519 446.405 55.499 446.004 55.5933 445.615C55.6994 445.215 55.829 444.843 55.9823 444.502C56.1237 444.195 56.3241 443.918 56.5834 443.671C56.8545 443.423 57.1373 443.223 57.432 443.07C57.7031 442.916 58.0036 442.793 58.3336 442.698C58.6755 442.592 58.9996 442.533 59.306 442.522C59.5889 442.522 59.8718 442.527 60.1546 442.539C60.4375 442.551 60.7145 442.598 60.9856 442.681C60.9738 441.832 60.962 441.119 60.9502 440.541C60.9502 439.952 60.9502 439.557 60.9502 439.357C60.9974 439.133 61.0858 438.962 61.2154 438.844C61.3569 438.726 61.4983 438.667 61.6397 438.667C61.7929 438.656 61.9403 438.703 62.0817 438.809C62.2232 438.915 62.3292 439.08 62.3999 439.304V448.55C62.4235 448.586 62.4471 448.621 62.4707 448.656C62.506 448.68 62.5355 448.709 62.5591 448.745ZM61.0033 447.472V447.224C61.0033 446.788 61.0033 446.311 61.0033 445.792C61.0033 445.262 60.9974 444.761 60.9856 444.29L60.8795 444.236C60.8441 444.213 60.8088 444.189 60.7734 444.166C60.7499 444.142 60.7204 444.119 60.685 444.095C60.3314 443.989 59.9602 443.942 59.5712 443.954C59.1823 443.965 58.8169 444.042 58.4751 444.183C58.1333 444.313 57.8268 444.508 57.5557 444.767C57.2964 445.026 57.1138 445.356 57.0077 445.757C56.9134 446.122 56.878 446.441 56.9016 446.712C56.9252 446.983 56.9605 447.301 57.0077 447.666C57.0548 447.761 57.0961 447.855 57.1314 447.949C57.1786 448.043 57.2257 448.138 57.2729 448.232L57.6265 448.586C57.7679 448.633 57.9034 448.692 58.0331 448.762C58.5046 448.81 58.9348 448.786 59.3237 448.692C59.7244 448.597 60.1075 448.391 60.4729 448.073C60.4847 448.049 60.5082 448.02 60.5436 447.985C60.5907 447.937 60.6379 447.89 60.685 447.843C60.7322 447.796 60.7734 447.755 60.8088 447.719C60.8559 447.672 60.8854 447.643 60.8972 447.631L61.0033 447.472ZM71.1528 448.745C71.306 448.957 71.365 449.163 71.3296 449.364C71.306 449.552 71.2294 449.705 71.0998 449.823C70.9819 449.929 70.8228 449.982 70.6224 449.982C70.4338 449.971 70.2453 449.87 70.0567 449.682C69.9977 449.623 69.9447 449.564 69.8976 449.505C69.8504 449.434 69.8151 449.369 69.7915 449.31C69.4379 449.617 69.0254 449.853 68.5539 450.018C68.0943 450.194 67.6228 450.283 67.1396 450.283C66.6681 450.283 66.2143 450.189 65.7782 450C65.3421 449.8 64.9768 449.493 64.6821 449.081C64.4582 448.762 64.2931 448.409 64.1871 448.02C64.0928 447.619 64.0456 447.218 64.0456 446.818C64.0456 446.405 64.0928 446.004 64.1871 445.615C64.2931 445.215 64.4228 444.843 64.576 444.502C64.7175 444.195 64.9178 443.918 65.1771 443.671C65.4482 443.423 65.7311 443.223 66.0257 443.07C66.2968 442.916 66.5974 442.793 66.9274 442.698C67.2692 442.592 67.5933 442.533 67.8998 442.522C68.1826 442.522 68.4655 442.527 68.7484 442.539C69.0313 442.551 69.3082 442.598 69.5793 442.681C69.5675 441.832 69.5558 441.119 69.544 440.541C69.544 439.952 69.544 439.557 69.544 439.357C69.5911 439.133 69.6795 438.962 69.8092 438.844C69.9506 438.726 70.092 438.667 70.2335 438.667C70.3867 438.656 70.534 438.703 70.6755 438.809C70.8169 438.915 70.923 439.08 70.9937 439.304V448.55C71.0173 448.586 71.0408 448.621 71.0644 448.656C71.0998 448.68 71.1292 448.709 71.1528 448.745ZM69.597 447.472V447.224C69.597 446.788 69.597 446.311 69.597 445.792C69.597 445.262 69.5911 444.761 69.5793 444.29L69.4733 444.236C69.4379 444.213 69.4025 444.189 69.3672 444.166C69.3436 444.142 69.3141 444.119 69.2788 444.095C68.9252 443.989 68.5539 443.942 68.165 443.954C67.776 443.965 67.4106 444.042 67.0688 444.183C66.727 444.313 66.4206 444.508 66.1495 444.767C65.8902 445.026 65.7075 445.356 65.6014 445.757C65.5071 446.122 65.4718 446.441 65.4954 446.712C65.5189 446.983 65.5543 447.301 65.6014 447.666C65.6486 447.761 65.6898 447.855 65.7252 447.949C65.7723 448.043 65.8195 448.138 65.8666 448.232L66.2202 448.586C66.3617 448.633 66.4972 448.692 66.6268 448.762C67.0983 448.81 67.5285 448.786 67.9175 448.692C68.3182 448.597 68.7012 448.391 69.0666 448.073C69.0784 448.049 69.102 448.02 69.1373 447.985C69.1845 447.937 69.2316 447.89 69.2788 447.843C69.3259 447.796 69.3672 447.755 69.4025 447.719C69.4497 447.672 69.4791 447.643 69.4909 447.631L69.597 447.472ZM73.4666 443.848C73.2898 443.753 73.1601 443.641 73.0776 443.512C72.9951 443.382 72.9539 443.252 72.9539 443.123C72.9539 442.946 73.0187 442.793 73.1484 442.663C73.278 442.522 73.4548 442.451 73.6787 442.451C73.8438 442.451 74.05 442.51 74.2975 442.628C74.545 442.745 74.7395 442.875 74.881 443.017C75.2463 442.71 75.6235 442.457 76.0124 442.256C76.4014 442.056 76.7962 441.956 77.197 441.956C77.3148 441.956 77.4857 441.985 77.7097 442.044C77.9336 442.103 78.1517 442.192 78.3638 442.309C78.5878 442.427 78.7822 442.58 78.9473 442.769C79.1123 442.958 79.1948 443.176 79.1948 443.423C79.1948 443.624 79.1299 443.789 79.0003 443.918C78.8706 444.036 78.7115 444.095 78.5229 444.095C78.3933 444.095 78.2754 444.06 78.1694 443.989C78.0751 443.906 77.9749 443.824 77.8688 443.741C77.7745 443.647 77.6684 443.565 77.5506 443.494C77.4445 443.423 77.3207 443.388 77.1793 443.388C77.0143 443.388 76.8316 443.441 76.6312 443.547C76.4427 443.641 76.2482 443.759 76.0478 443.901C75.8592 444.042 75.6765 444.195 75.4997 444.36C75.3229 444.525 75.1697 444.673 75.0401 444.802V449.505C75.0283 449.776 74.9458 449.976 74.7926 450.106C74.6511 450.248 74.492 450.318 74.3152 450.318C74.1502 450.318 73.997 450.253 73.8555 450.124C73.7141 450.006 73.6257 449.817 73.5903 449.558V444.731C73.5903 444.708 73.5845 444.684 73.5727 444.661C73.5727 444.625 73.5727 444.596 73.5727 444.572C73.5727 444.549 73.5727 444.525 73.5727 444.502C73.5845 444.466 73.5903 444.437 73.5903 444.413V443.901C73.5432 443.877 73.502 443.859 73.4666 443.848ZM85.7293 447.931C85.9768 447.837 86.189 447.825 86.3658 447.896C86.5426 447.967 86.6663 448.079 86.7371 448.232C86.8196 448.385 86.8313 448.556 86.7724 448.745C86.7253 448.933 86.5897 449.092 86.3658 449.222C85.9768 449.446 85.5584 449.652 85.1105 449.841C84.6626 450.029 84.2089 450.159 83.7492 450.23C83.2895 450.301 82.8358 450.295 82.3879 450.212C81.94 450.141 81.5098 449.965 81.0973 449.682C80.6022 449.34 80.2251 448.88 79.9658 448.303C79.7065 447.713 79.5709 447.106 79.5592 446.482C79.5474 445.845 79.6593 445.238 79.8951 444.661C80.1426 444.071 80.5256 443.6 81.0442 443.246C81.5864 442.881 82.1757 442.61 82.8122 442.433C83.4487 442.245 84.091 442.221 84.7393 442.362C85.0575 442.433 85.3463 442.586 85.6056 442.822C85.8649 443.046 86.0711 443.311 86.2243 443.618C86.3894 443.912 86.4778 444.231 86.4895 444.572C86.5013 444.902 86.4188 445.215 86.242 445.509C86.0417 445.839 85.7529 446.122 85.3757 446.358C84.9986 446.582 84.586 446.776 84.1382 446.941C83.7021 447.095 83.2601 447.224 82.8122 447.33C82.3761 447.436 81.993 447.537 81.663 447.631C81.5216 447.666 81.386 447.672 81.2564 447.649C81.4332 448.026 81.6925 448.338 82.0343 448.586C82.3879 448.821 82.824 448.922 83.3426 448.886C83.7551 448.863 84.1676 448.751 84.5801 448.55C85.0045 448.338 85.3875 448.132 85.7293 447.931ZM82.2818 444.166C81.8457 444.39 81.5216 444.708 81.3094 445.12C81.0973 445.521 80.9912 445.945 80.9912 446.393C81.0737 446.334 81.1621 446.287 81.2564 446.252C81.4685 446.193 81.6807 446.134 81.8929 446.075C82.1168 446.004 82.3407 445.94 82.5647 445.881C82.7061 445.845 82.8947 445.792 83.1304 445.722C83.3779 445.651 83.6313 445.568 83.8906 445.474C84.1499 445.38 84.3857 445.274 84.5978 445.156C84.81 445.026 84.9514 444.885 85.0221 444.731C85.0457 444.343 84.9514 444.077 84.7393 443.936C84.5271 443.794 84.2737 443.724 83.979 443.724C83.6844 443.724 83.3779 443.777 83.0597 443.883C82.7415 443.977 82.4822 444.071 82.2818 444.166ZM88.1085 448.709C88.0024 448.497 87.9671 448.309 88.0024 448.144C88.0378 447.967 88.1085 447.831 88.2146 447.737C88.3325 447.631 88.4798 447.578 88.6566 447.578C88.8334 447.578 89.0161 447.643 89.2046 447.772C89.4757 448.114 89.794 448.379 90.1593 448.568C90.5365 448.757 90.9372 448.869 91.3616 448.904L91.7328 448.798C91.8271 448.727 91.8919 448.68 91.9273 448.656C91.9627 448.633 91.9862 448.615 91.998 448.603C92.0216 448.58 92.0452 448.55 92.0687 448.515C92.1041 448.48 92.1571 448.415 92.2278 448.32C92.2514 448.273 92.2691 448.226 92.2809 448.179C92.2927 448.132 92.3104 448.079 92.3339 448.02C92.3339 447.961 92.3339 447.908 92.3339 447.861C92.3457 447.814 92.3516 447.761 92.3516 447.702L92.2455 447.383C92.2102 447.336 92.1689 447.289 92.1218 447.242C92.0864 447.195 92.0511 447.148 92.0157 447.101C91.721 446.912 91.4264 446.776 91.1317 446.694C90.8371 446.611 90.5483 446.529 90.2654 446.446C89.9943 446.352 89.7232 446.234 89.4522 446.093C89.1929 445.951 88.9453 445.722 88.7096 445.403C88.4857 445.12 88.3619 444.796 88.3383 444.431C88.3266 444.054 88.3855 443.694 88.5151 443.352C88.6566 443.011 88.8569 442.71 89.1162 442.451C89.3873 442.18 89.6938 442.009 90.0356 441.938C90.5306 441.82 91.0315 441.808 91.5383 441.903C92.0569 441.997 92.5402 442.162 92.9881 442.398C93.2002 442.551 93.324 442.728 93.3593 442.928C93.3947 443.117 93.3652 443.282 93.2709 443.423C93.1884 443.565 93.0529 443.665 92.8643 443.724C92.6875 443.783 92.4813 443.753 92.2455 443.635C91.9627 443.482 91.6621 443.382 91.3439 443.335C91.0374 443.288 90.7251 443.288 90.4069 443.335C90.3715 443.358 90.3302 443.376 90.2831 443.388C90.2477 443.4 90.2124 443.417 90.177 443.441C90.0474 443.582 89.9531 443.724 89.8941 443.865C89.8352 443.995 89.8116 444.16 89.8234 444.36C89.8352 444.407 89.8647 444.478 89.9118 444.572C89.9472 444.62 89.9825 444.661 90.0179 444.696C90.0533 444.731 90.0886 444.773 90.124 444.82C90.4069 444.973 90.7133 445.097 91.0433 445.191C91.3851 445.274 91.7151 445.374 92.0334 445.492C92.3516 445.598 92.6463 445.745 92.9174 445.934C93.1884 446.11 93.4006 446.376 93.5538 446.729C93.8367 447.401 93.8779 448.02 93.6776 448.586C93.489 449.151 93.1 449.629 92.5107 450.018C92.3575 450.112 92.1866 450.189 91.998 450.248C91.8094 450.318 91.6326 450.354 91.4676 450.354C90.8312 450.354 90.2065 450.212 89.5936 449.929C88.9807 449.635 88.4857 449.228 88.1085 448.709ZM94.9991 448.709C94.8931 448.497 94.8577 448.309 94.8931 448.144C94.9284 447.967 94.9991 447.831 95.1052 447.737C95.2231 447.631 95.3704 447.578 95.5472 447.578C95.724 447.578 95.9067 447.643 96.0953 447.772C96.3664 448.114 96.6846 448.379 97.05 448.568C97.4271 448.757 97.8279 448.869 98.2522 448.904L98.6234 448.798C98.7177 448.727 98.7826 448.68 98.8179 448.656C98.8533 448.633 98.8769 448.615 98.8886 448.603C98.9122 448.58 98.9358 448.55 98.9594 448.515C98.9947 448.48 99.0478 448.415 99.1185 448.32C99.142 448.273 99.1597 448.226 99.1715 448.179C99.1833 448.132 99.201 448.079 99.2246 448.02C99.2246 447.961 99.2246 447.908 99.2246 447.861C99.2363 447.814 99.2422 447.761 99.2422 447.702L99.1362 447.383C99.1008 447.336 99.0595 447.289 99.0124 447.242C98.977 447.195 98.9417 447.148 98.9063 447.101C98.6117 446.912 98.317 446.776 98.0223 446.694C97.7277 446.611 97.4389 446.529 97.156 446.446C96.885 446.352 96.6139 446.234 96.3428 446.093C96.0835 445.951 95.836 445.722 95.6002 445.403C95.3763 445.12 95.2525 444.796 95.229 444.431C95.2172 444.054 95.2761 443.694 95.4058 443.352C95.5472 443.011 95.7476 442.71 96.0069 442.451C96.278 442.18 96.5844 442.009 96.9262 441.938C97.4212 441.82 97.9222 441.808 98.429 441.903C98.9476 441.997 99.4308 442.162 99.8787 442.398C100.091 442.551 100.215 442.728 100.25 442.928C100.285 443.117 100.256 443.282 100.162 443.423C100.079 443.565 99.9435 443.665 99.7549 443.724C99.5781 443.783 99.3719 443.753 99.1362 443.635C98.8533 443.482 98.5527 443.382 98.2345 443.335C97.9281 443.288 97.6157 443.288 97.2975 443.335C97.2621 443.358 97.2209 443.376 97.1737 443.388C97.1384 443.4 97.103 443.417 97.0676 443.441C96.938 443.582 96.8437 443.724 96.7848 443.865C96.7258 443.995 96.7023 444.16 96.7141 444.36C96.7258 444.407 96.7553 444.478 96.8025 444.572C96.8378 444.62 96.8732 444.661 96.9085 444.696C96.9439 444.731 96.9792 444.773 97.0146 444.82C97.2975 444.973 97.6039 445.097 97.9339 445.191C98.2757 445.274 98.6058 445.374 98.924 445.492C99.2422 445.598 99.5369 445.745 99.808 445.934C100.079 446.11 100.291 446.376 100.444 446.729C100.727 447.401 100.769 448.02 100.568 448.586C100.38 449.151 99.9907 449.629 99.4013 450.018C99.2481 450.112 99.0772 450.189 98.8886 450.248C98.7001 450.318 98.5233 450.354 98.3583 450.354C97.7218 450.354 97.0971 450.212 96.4842 449.929C95.8713 449.635 95.3763 449.228 94.9991 448.709Z" fill="#111111"/>
<rect x="46" y="459" width="318" height="83" rx="3" fill="white" stroke="#AAAAAA" stroke-width="2"/>
</svg>
