<svg width="409" height="846" viewBox="0 0 409 846" fill="none" xmlns="http://www.w3.org/2000/svg">
<rect x="1.5" y="1.5" width="406" height="843" rx="47.5" fill="white" stroke="#AAAAAA" stroke-width="3"/>
<path fill-rule="evenodd" clip-rule="evenodd" d="M57 17C34.9086 17 17 34.9086 17 57V789C17 811.091 34.9086 829 57 829H352C374.091 829 392 811.091 392 789V57C392 34.9086 374.091 17 352 17H309V25C309 37.1503 299.15 47 287 47H122C109.85 47 100 37.1503 100 25V17H57Z" fill="#F2F2F2"/>
<path d="M49.3414 103.833C49.3179 104.281 49.2 104.646 48.9878 104.929C48.7757 105.212 48.5164 105.377 48.2099 105.424C47.9035 105.495 47.5971 105.448 47.2906 105.283C46.9842 105.118 46.7249 104.835 46.5127 104.434C46.3713 103.326 46.1709 102.242 45.9116 101.181C45.6523 100.097 45.3459 99.0243 44.9923 97.9635L35.6221 98.0343C35.575 98.0343 35.516 98.0343 35.4453 98.0343C35.3982 98.0107 35.351 97.9989 35.3039 97.9989C34.7145 100.003 34.1842 102.077 33.7127 104.222C33.5241 104.717 33.253 105.047 32.8994 105.212C32.5459 105.377 32.2041 105.413 31.874 105.318C31.5676 105.224 31.3083 105.012 31.0961 104.682C30.9076 104.352 30.8604 103.927 30.9547 103.409C31.7326 99.9908 32.6637 96.6552 33.7481 93.4022C34.856 90.1256 36.235 86.9315 37.8851 83.8199C38.0265 83.372 38.3565 83.0891 38.8751 82.9713C39.1344 82.877 39.382 82.8652 39.6177 82.9359C39.8534 82.9831 40.0538 83.0891 40.2188 83.2541C40.2424 83.2541 40.2541 83.2659 40.2541 83.2895C40.2541 83.2895 40.2659 83.2895 40.2895 83.2895C41.5153 84.4681 42.5407 85.8 43.3657 87.2851C44.1908 88.7702 44.9451 90.2788 45.6287 91.8111C45.888 92.3532 46.1238 92.8954 46.3359 93.4376C46.5716 93.9797 46.7956 94.5219 47.0077 95.0641L48.8818 95.0287C49.3296 95.1702 49.6597 95.3823 49.8718 95.6652C50.084 95.9481 50.1783 96.2427 50.1547 96.5492C50.1547 96.832 50.0368 97.1149 49.8011 97.3978C49.5654 97.6571 49.2236 97.8339 48.7757 97.9282H48.0331C48.3396 98.8947 48.5989 99.8729 48.811 100.863C49.0468 101.829 49.2236 102.82 49.3414 103.833ZM39.5823 86.8254C38.9223 88.1691 38.3094 89.5363 37.7436 90.9271C37.2015 92.3179 36.6947 93.7204 36.2232 95.1348L43.9315 95.0641C43.625 94.3569 43.3068 93.6615 42.9768 92.9779C42.6703 92.2943 42.3521 91.6107 42.0221 90.9271C41.6449 90.2435 41.2678 89.5481 40.8906 88.8409C40.5134 88.1337 40.0773 87.4619 39.5823 86.8254ZM52.8798 90.7149C52.9976 90.2435 53.1862 89.8899 53.4455 89.6541C53.7048 89.4184 53.9995 89.3006 54.3295 89.3006C54.6359 89.3006 54.9188 89.4066 55.1781 89.6188C55.461 89.8309 55.6613 90.161 55.7792 90.6088V90.9271C56.3214 90.4556 56.9343 90.1138 57.6179 89.9017C58.3251 89.6659 59.0087 89.5481 59.6687 89.5481C60.5881 89.5481 61.4367 89.7484 62.2146 90.1492C63.016 90.5499 63.7114 91.0921 64.3008 91.7757C64.8901 92.4593 65.3497 93.2608 65.6798 94.1801C66.0098 95.0759 66.1748 96.0424 66.1748 97.0796C66.1748 98.2111 65.9862 99.2483 65.609 100.191C65.2555 101.134 64.7251 101.947 64.0179 102.631C63.3107 103.315 62.4267 103.857 61.366 104.257C60.3288 104.635 59.1148 104.823 57.724 104.823C57.3939 104.823 57.0639 104.811 56.7339 104.788C56.4275 104.764 56.1092 104.729 55.7792 104.682V112.143C55.7556 112.685 55.5906 113.085 55.2842 113.345C55.0013 113.628 54.6831 113.769 54.3295 113.769C53.9995 113.769 53.693 113.639 53.4102 113.38C53.1273 113.144 52.9505 112.767 52.8798 112.249V90.7149ZM56.1328 94.7105C56.0857 94.7812 56.0267 94.8519 55.956 94.9227C55.8853 94.9698 55.8264 95.0169 55.7792 95.0641V101.747C56.1092 101.818 56.4275 101.877 56.7339 101.924C57.0639 101.971 57.3939 101.994 57.724 101.994C58.5254 101.994 59.268 101.888 59.9516 101.676C60.6352 101.464 61.2245 101.158 61.7195 100.757C62.2381 100.356 62.6389 99.8611 62.9218 99.2718C63.2046 98.6825 63.3461 98.0107 63.3461 97.2564C63.3461 96.6906 63.2518 96.1249 63.0632 95.5591C62.8982 94.9698 62.6507 94.4394 62.3206 93.968C62.0142 93.4965 61.6488 93.1193 61.2245 92.8365C60.8002 92.53 60.3288 92.3768 59.8102 92.3768C59.4094 92.3768 59.0323 92.4475 58.6787 92.589C58.3251 92.7304 57.9951 92.919 57.6886 93.1547C57.3822 93.3669 57.0993 93.6144 56.84 93.8972C56.5807 94.1565 56.345 94.4276 56.1328 94.7105ZM69.786 90.7149C69.9039 90.2435 70.0925 89.8899 70.3518 89.6541C70.6111 89.4184 70.9057 89.3006 71.2357 89.3006C71.5422 89.3006 71.8251 89.4066 72.0844 89.6188C72.3672 89.8309 72.5676 90.161 72.6855 90.6088V90.9271C73.2276 90.4556 73.8405 90.1138 74.5241 89.9017C75.2313 89.6659 75.9149 89.5481 76.575 89.5481C77.4943 89.5481 78.3429 89.7484 79.1208 90.1492C79.9223 90.5499 80.6177 91.0921 81.207 91.7757C81.7963 92.4593 82.256 93.2608 82.586 94.1801C82.916 95.0759 83.081 96.0424 83.081 97.0796C83.081 98.2111 82.8925 99.2483 82.5153 100.191C82.1617 101.134 81.6313 101.947 80.9241 102.631C80.217 103.315 79.333 103.857 78.2722 104.257C77.235 104.635 76.021 104.823 74.6302 104.823C74.3002 104.823 73.9702 104.811 73.6402 104.788C73.3337 104.764 73.0155 104.729 72.6855 104.682V112.143C72.6619 112.685 72.4969 113.085 72.1904 113.345C71.9076 113.628 71.5893 113.769 71.2357 113.769C70.9057 113.769 70.5993 113.639 70.3164 113.38C70.0335 113.144 69.8567 112.767 69.786 112.249V90.7149ZM73.0391 94.7105C72.9919 94.7812 72.933 94.8519 72.8623 94.9227C72.7915 94.9698 72.7326 95.0169 72.6855 95.0641V101.747C73.0155 101.818 73.3337 101.877 73.6402 101.924C73.9702 101.971 74.3002 101.994 74.6302 101.994C75.4317 101.994 76.1742 101.888 76.8578 101.676C77.5414 101.464 78.1308 101.158 78.6258 100.757C79.1444 100.356 79.5451 99.8611 79.828 99.2718C80.1109 98.6825 80.2523 98.0107 80.2523 97.2564C80.2523 96.6906 80.158 96.1249 79.9694 95.5591C79.8044 94.9698 79.5569 94.4394 79.2269 93.968C78.9205 93.4965 78.5551 93.1193 78.1308 92.8365C77.7065 92.53 77.235 92.3768 76.7164 92.3768C76.3157 92.3768 75.9385 92.4475 75.5849 92.589C75.2313 92.7304 74.9013 92.919 74.5949 93.1547C74.2884 93.3669 74.0055 93.6144 73.7462 93.8972C73.4869 94.1565 73.2512 94.4276 73.0391 94.7105ZM90.4757 103.303C90.9 103.609 91.1475 103.963 91.2182 104.364C91.2889 104.741 91.23 105.071 91.0414 105.354C90.8764 105.636 90.6053 105.837 90.2282 105.955C89.8746 106.073 89.4621 106.014 88.9906 105.778C88.7785 105.636 88.5663 105.495 88.3541 105.354C88.142 105.212 87.918 105.071 87.6823 104.929C87.4702 104.741 87.3287 104.564 87.258 104.399C87.1873 104.234 87.1284 103.998 87.0812 103.692V84.0674C87.1755 83.6195 87.3523 83.2777 87.6116 83.042C87.8945 82.8063 88.1773 82.6884 88.4602 82.6884C88.7667 82.6648 89.0613 82.7591 89.3442 82.9713C89.6271 83.1834 89.8392 83.5134 89.9807 83.9613V102.985C90.0514 103.032 90.1221 103.091 90.1928 103.161C90.2871 103.208 90.3814 103.256 90.4757 103.303ZM98.0226 103.869C97.999 104.411 97.834 104.811 97.5276 105.071C97.2447 105.354 96.9265 105.495 96.5729 105.495C96.2429 105.495 95.9364 105.365 95.6536 105.106C95.3707 104.87 95.1939 104.493 95.1232 103.975C95.0996 101.759 95.076 99.4958 95.0525 97.1856C95.0525 94.8755 95.0407 92.6125 95.0171 90.3967C95.135 89.9252 95.3235 89.5716 95.5828 89.3359C95.8421 89.1002 96.1368 88.9823 96.4668 88.9823C96.7733 88.9823 97.0561 89.0884 97.3154 89.3006C97.5983 89.5127 97.7987 89.8427 97.9165 90.2906C97.9401 92.5064 97.9519 94.7694 97.9519 97.0796C97.9755 99.3897 97.999 101.653 98.0226 103.869ZM94.7696 84.6332C94.7696 84.1145 94.9346 83.6785 95.2646 83.3249C95.5946 82.9477 95.9954 82.7591 96.4668 82.7591C96.9383 82.7591 97.339 82.9477 97.669 83.3249C98.0226 83.6785 98.1994 84.1145 98.1994 84.6332C98.1994 85.1282 98.0226 85.5643 97.669 85.9414C97.339 86.295 96.9383 86.4718 96.4668 86.4718C95.9954 86.4718 95.5946 86.295 95.2646 85.9414C94.9346 85.5643 94.7696 85.1282 94.7696 84.6332ZM111.142 101.181C111.543 100.851 111.932 100.698 112.309 100.722C112.71 100.745 113.028 100.875 113.264 101.11C113.5 101.346 113.629 101.664 113.653 102.065C113.676 102.442 113.523 102.831 113.193 103.232C112.415 104.081 111.496 104.682 110.435 105.035C109.398 105.389 108.361 105.483 107.323 105.318C106.31 105.177 105.367 104.776 104.495 104.116C103.623 103.456 102.974 102.56 102.55 101.429C102.291 100.792 102.102 100.12 101.984 99.4133C101.866 98.7061 101.831 98.0107 101.878 97.3271C101.949 96.1956 102.208 95.0641 102.656 93.9326C103.127 92.7775 103.752 91.7757 104.53 90.9271C105.332 90.0785 106.263 89.4656 107.323 89.0884C108.408 88.6877 109.586 88.6877 110.859 89.0884C111.496 89.3006 112.073 89.5599 112.592 89.8663C113.111 90.1727 113.606 90.5617 114.077 91.0331C114.336 91.4103 114.466 91.7757 114.466 92.1293C114.466 92.4829 114.36 92.7775 114.148 93.0133C113.959 93.2254 113.688 93.3669 113.334 93.4376C113.004 93.5083 112.627 93.4376 112.203 93.2254C111.425 92.4475 110.671 91.9878 109.94 91.8464C109.209 91.6814 108.526 91.7403 107.889 92.0232C107.276 92.3061 106.722 92.7657 106.227 93.4022C105.756 94.0151 105.39 94.7223 105.131 95.5238C104.872 96.3017 104.742 97.1267 104.742 97.9989C104.742 98.8475 104.907 99.6372 105.237 100.368C105.52 101.028 105.897 101.535 106.369 101.888C106.864 102.242 107.382 102.454 107.925 102.525C108.467 102.572 109.021 102.49 109.586 102.277C110.176 102.042 110.694 101.676 111.142 101.181ZM130.509 103.48C130.509 103.503 130.498 103.515 130.474 103.515C130.616 103.845 130.651 104.151 130.58 104.434C130.509 104.717 130.368 104.941 130.156 105.106C129.967 105.295 129.708 105.413 129.378 105.46C129.072 105.507 128.73 105.436 128.353 105.248C128.14 105.035 127.94 104.811 127.751 104.576C127.563 104.316 127.398 104.057 127.256 103.798C126.785 104.199 126.278 104.576 125.736 104.929C125.194 105.259 124.652 105.436 124.109 105.46C123.167 105.507 122.235 105.519 121.316 105.495C120.397 105.471 119.525 105.165 118.7 104.576C118.016 104.081 117.486 103.491 117.108 102.808C116.755 102.124 116.519 101.405 116.401 100.651C116.307 99.8729 116.319 99.0832 116.437 98.2818C116.554 97.4803 116.755 96.7142 117.038 95.9834C117.156 95.6534 117.309 95.3352 117.497 95.0287C117.686 94.7223 117.874 94.4041 118.063 94.074C118.322 93.6026 118.617 93.1665 118.947 92.7657C119.277 92.3414 119.654 91.9761 120.079 91.6696C120.385 91.4575 120.68 91.2453 120.962 91.0331C121.269 90.821 121.575 90.6206 121.882 90.432C122.094 90.2906 122.412 90.1492 122.837 90.0077C123.284 89.8427 123.756 89.7131 124.251 89.6188C124.769 89.5009 125.276 89.442 125.771 89.442C126.29 89.442 126.726 89.5127 127.08 89.6541C127.41 89.607 127.728 89.6895 128.034 89.9017C128.364 90.1138 128.612 90.4556 128.777 90.9271C128.777 92.53 128.765 94.1448 128.742 95.7713C128.718 97.3978 128.824 99.0125 129.06 100.615C129.083 100.828 129.166 101.087 129.307 101.393C129.472 101.676 129.637 101.959 129.802 102.242C129.991 102.525 130.156 102.784 130.297 103.02C130.439 103.256 130.509 103.409 130.509 103.48ZM126.019 101.04C126.066 101.016 126.101 100.993 126.125 100.969C126.149 100.945 126.184 100.922 126.231 100.898C125.925 99.484 125.771 98.0225 125.771 96.5138C125.795 94.9816 125.818 93.579 125.842 92.3061C125.63 92.3061 125.394 92.3297 125.135 92.3768C124.876 92.4239 124.616 92.4947 124.357 92.589C124.121 92.6597 123.897 92.7304 123.685 92.8011C123.497 92.8718 123.355 92.9308 123.261 92.9779C122.554 93.3079 121.953 93.744 121.458 94.2862C120.962 94.8048 120.55 95.3941 120.22 96.0541C119.914 96.6906 119.678 97.3742 119.513 98.105C119.348 98.8122 119.265 99.5311 119.265 100.262C119.312 100.45 119.371 100.639 119.442 100.828C119.513 101.016 119.572 101.205 119.619 101.393C119.737 101.511 119.855 101.641 119.972 101.782C120.114 101.924 120.255 102.053 120.397 102.171C120.609 102.266 120.821 102.348 121.033 102.419C121.245 102.49 121.458 102.56 121.67 102.631C122.07 102.631 122.459 102.643 122.837 102.666C123.214 102.69 123.591 102.643 123.968 102.525C124.322 102.289 124.663 102.053 124.993 101.818C125.347 101.582 125.689 101.323 126.019 101.04ZM133.633 92.5536C133.114 92.4829 132.725 92.3061 132.466 92.0232C132.23 91.7403 132.112 91.4339 132.112 91.1039C132.112 90.7738 132.242 90.4556 132.501 90.1492C132.784 89.8192 133.197 89.6541 133.739 89.6541H135.719V84.0674C135.837 83.5959 136.026 83.2424 136.285 83.0066C136.544 82.7709 136.839 82.653 137.169 82.653C137.475 82.653 137.758 82.7591 138.017 82.9713C138.3 83.1834 138.501 83.5134 138.619 83.9613V89.6541H142.013C142.461 89.772 142.791 89.9724 143.003 90.2552C143.215 90.5145 143.321 90.7974 143.321 91.1039C143.321 91.4339 143.203 91.7285 142.968 91.9878C142.732 92.2471 142.378 92.4357 141.907 92.5536H138.619C138.595 94.3687 138.595 96.2427 138.619 98.1757C138.642 100.085 138.654 101.947 138.654 103.762C138.654 104.305 138.489 104.717 138.159 105C137.852 105.259 137.534 105.389 137.204 105.389C136.874 105.389 136.568 105.259 136.285 105C136.002 104.764 135.825 104.387 135.754 103.869C135.754 102.03 135.743 100.144 135.719 98.2111C135.719 96.2781 135.719 94.3923 135.719 92.5536H133.633ZM149.648 103.869C149.624 104.411 149.459 104.811 149.153 105.071C148.87 105.354 148.551 105.495 148.198 105.495C147.868 105.495 147.561 105.365 147.279 105.106C146.996 104.87 146.819 104.493 146.748 103.975C146.725 101.759 146.701 99.4958 146.677 97.1856C146.677 94.8755 146.666 92.6125 146.642 90.3967C146.76 89.9252 146.949 89.5716 147.208 89.3359C147.467 89.1002 147.762 88.9823 148.092 88.9823C148.398 88.9823 148.681 89.0884 148.94 89.3006C149.223 89.5127 149.424 89.8427 149.542 90.2906C149.565 92.5064 149.577 94.7694 149.577 97.0796C149.6 99.3897 149.624 101.653 149.648 103.869ZM146.395 84.6332C146.395 84.1145 146.56 83.6785 146.89 83.3249C147.22 82.9477 147.62 82.7591 148.092 82.7591C148.563 82.7591 148.964 82.9477 149.294 83.3249C149.648 83.6785 149.824 84.1145 149.824 84.6332C149.824 85.1282 149.648 85.5643 149.294 85.9414C148.964 86.295 148.563 86.4718 148.092 86.4718C147.62 86.4718 147.22 86.295 146.89 85.9414C146.56 85.5643 146.395 85.1282 146.395 84.6332ZM153.758 96.337C154.017 95.5827 154.336 94.8519 154.713 94.1448C155.09 93.414 155.538 92.754 156.056 92.1646C156.575 91.5753 157.164 91.0685 157.824 90.6442C158.508 90.2199 159.262 89.9134 160.087 89.7249C161.455 89.4184 162.645 89.5245 163.659 90.0431C164.696 90.5617 165.521 91.3042 166.134 92.2707C166.747 93.2372 167.147 94.3451 167.336 95.5945C167.548 96.8203 167.501 97.9989 167.195 99.1304C166.841 100.521 166.216 101.818 165.321 103.02C164.425 104.222 163.293 105.094 161.926 105.636C160.912 106.037 159.934 106.179 158.991 106.061C158.072 105.966 157.235 105.672 156.481 105.177C155.75 104.682 155.125 104.034 154.607 103.232C154.088 102.431 153.735 101.523 153.546 100.509C153.428 99.8729 153.381 99.2483 153.405 98.6354C153.452 98.0225 153.534 97.4096 153.652 96.7967L153.758 96.337ZM156.516 97.1503C156.422 97.6453 156.351 98.105 156.304 98.5293C156.28 98.93 156.304 99.3897 156.375 99.9083C156.445 100.545 156.646 101.122 156.976 101.641C157.306 102.136 157.707 102.525 158.178 102.808C158.649 103.067 159.168 103.197 159.734 103.197C160.323 103.173 160.912 102.985 161.502 102.631C162.28 102.159 162.893 101.547 163.34 100.792C163.812 100.038 164.165 99.2247 164.401 98.3525C164.59 97.6453 164.625 96.891 164.507 96.0895C164.413 95.288 164.177 94.5808 163.8 93.968C163.423 93.3551 162.916 92.919 162.28 92.6597C161.643 92.3768 160.889 92.4122 160.017 92.7657C159.074 93.1665 158.331 93.7676 157.789 94.5691C157.247 95.3705 156.823 96.2309 156.516 97.1503ZM183.389 103.939C183.365 104.481 183.2 104.882 182.894 105.141C182.611 105.424 182.293 105.566 181.939 105.566C181.609 105.566 181.302 105.436 181.02 105.177C180.737 104.941 180.56 104.564 180.489 104.045C180.489 102.961 180.477 101.888 180.454 100.828C180.454 99.7433 180.454 98.6589 180.454 97.5746C180.454 96.7967 180.454 96.0188 180.454 95.2409C180.477 94.463 180.43 93.6851 180.312 92.9072C180.124 92.5536 179.912 92.3414 179.676 92.2707C179.464 92.1764 179.205 92.1293 178.898 92.1293C178.097 92.1293 177.307 92.3297 176.529 92.7304C175.751 93.1076 175.138 93.6379 174.69 94.3215C174.431 94.7223 174.219 95.0641 174.054 95.347C173.912 95.6063 173.818 95.9952 173.771 96.5138C173.771 97.716 173.771 98.9182 173.771 100.12C173.771 101.323 173.783 102.525 173.806 103.727C173.783 104.269 173.618 104.682 173.311 104.965C173.028 105.224 172.71 105.354 172.357 105.354C172.027 105.354 171.72 105.236 171.437 105C171.154 104.741 170.978 104.352 170.907 103.833C170.907 102.702 170.907 101.606 170.907 100.545C170.907 99.484 170.895 98.435 170.872 97.3978C170.872 96.3606 170.872 95.3116 170.872 94.2508C170.872 93.1665 170.872 92.0586 170.872 90.9271C170.989 90.4556 171.178 90.102 171.437 89.8663C171.697 89.6306 171.991 89.5127 172.321 89.5127C172.628 89.5127 172.911 89.6188 173.17 89.8309C173.453 90.0431 173.653 90.3731 173.771 90.821V91.1039C174.455 90.5145 175.221 90.0549 176.069 89.7249C176.942 89.3713 177.814 89.1945 178.686 89.1945C179.558 89.1945 180.371 89.3948 181.126 89.7956C181.904 90.1963 182.528 90.8446 183 91.7403C183.165 92.0468 183.271 92.4357 183.318 92.9072C183.389 93.3551 183.424 93.8383 183.424 94.3569C183.448 94.8519 183.448 95.3705 183.424 95.9127C183.4 96.4313 183.389 96.9263 183.389 97.3978V101.57V103.939Z" fill="#111111"/>
<path d="M25 190C25 187.791 26.7909 186 29 186H375C377.209 186 379 187.791 379 190V266C379 268.209 377.209 270 375 270H29C26.7909 270 25 268.209 25 266V190Z" fill="white"/>
<path d="M29 188H375V184H29V188ZM377 190V266H381V190H377ZM375 268H29V272H375V268ZM27 266V190H23V266H27ZM29 268C27.8954 268 27 267.105 27 266H23C23 269.314 25.6863 272 29 272V268ZM377 266C377 267.105 376.105 268 375 268V272C378.314 272 381 269.314 381 266H377ZM375 188C376.105 188 377 188.895 377 190H381C381 186.686 378.314 184 375 184V188ZM29 184C25.6863 184 23 186.686 23 190H27C27 188.895 27.8954 188 29 188V184Z" fill="#AAAAAA"/>
<circle cx="65" cy="228" r="25" fill="#C4C4C4"/>
<path d="M37.6707 149.417C37.6589 149.641 37.6 149.823 37.4939 149.965C37.3878 150.106 37.2582 150.189 37.105 150.212C36.9517 150.248 36.7985 150.224 36.6453 150.141C36.4921 150.059 36.3624 149.917 36.2564 149.717C36.1856 149.163 36.0855 148.621 35.9558 148.091C35.8262 147.548 35.6729 147.012 35.4961 146.482L30.811 146.517C30.7875 146.517 30.758 146.517 30.7227 146.517C30.6991 146.505 30.6755 146.499 30.6519 146.499C30.3573 147.501 30.0921 148.538 29.8564 149.611C29.7621 149.859 29.6265 150.024 29.4497 150.106C29.2729 150.189 29.102 150.206 28.937 150.159C28.7838 150.112 28.6541 150.006 28.5481 149.841C28.4538 149.676 28.4302 149.464 28.4773 149.204C28.8663 147.495 29.3319 145.828 29.874 144.201C30.428 142.563 31.1175 140.966 31.9425 139.41C32.0133 139.186 32.1783 139.045 32.4376 138.986C32.5672 138.938 32.691 138.933 32.8088 138.968C32.9267 138.992 33.0269 139.045 33.1094 139.127C33.1212 139.127 33.1271 139.133 33.1271 139.145C33.1271 139.145 33.133 139.145 33.1448 139.145C33.7576 139.734 34.2703 140.4 34.6829 141.143C35.0954 141.885 35.4726 142.639 35.8144 143.406C35.944 143.677 36.0619 143.948 36.168 144.219C36.2858 144.49 36.3978 144.761 36.5039 145.032L37.4409 145.014C37.6648 145.085 37.8298 145.191 37.9359 145.333C38.042 145.474 38.0891 145.621 38.0773 145.775C38.0773 145.916 38.0184 146.057 37.9006 146.199C37.7827 146.329 37.6118 146.417 37.3878 146.464H37.0166C37.1698 146.947 37.2994 147.436 37.4055 147.931C37.5234 148.415 37.6118 148.91 37.6707 149.417ZM32.7912 140.913C32.4611 141.585 32.1547 142.268 31.8718 142.964C31.6007 143.659 31.3473 144.36 31.1116 145.067L34.9657 145.032C34.8125 144.678 34.6534 144.331 34.4884 143.989C34.3352 143.647 34.1761 143.305 34.011 142.964C33.8225 142.622 33.6339 142.274 33.4453 141.92C33.2567 141.567 33.0387 141.231 32.7912 140.913ZM43.6649 148.091C43.8652 147.926 44.0597 147.849 44.2483 147.861C44.4487 147.873 44.6078 147.937 44.7256 148.055C44.8435 148.173 44.9083 148.332 44.9201 148.533C44.9319 148.721 44.8553 148.916 44.6903 149.116C44.3013 149.54 43.8417 149.841 43.3113 150.018C42.7927 150.194 42.2741 150.242 41.7555 150.159C41.2487 150.088 40.7772 149.888 40.3411 149.558C39.905 149.228 39.5809 148.78 39.3687 148.214C39.2391 147.896 39.1448 147.56 39.0859 147.207C39.0269 146.853 39.0092 146.505 39.0328 146.164C39.0682 145.598 39.1978 145.032 39.4218 144.466C39.6575 143.889 39.9698 143.388 40.3588 142.964C40.7595 142.539 41.2251 142.233 41.7555 142.044C42.2976 141.844 42.887 141.844 43.5234 142.044C43.8417 142.15 44.1304 142.28 44.3897 142.433C44.649 142.586 44.8965 142.781 45.1323 143.017C45.2619 143.205 45.3267 143.388 45.3267 143.565C45.3267 143.741 45.2737 143.889 45.1676 144.007C45.0733 144.113 44.9378 144.183 44.761 144.219C44.596 144.254 44.4074 144.219 44.1953 144.113C43.8063 143.724 43.4291 143.494 43.0638 143.423C42.6984 143.341 42.3566 143.37 42.0383 143.512C41.7319 143.653 41.4549 143.883 41.2074 144.201C40.9717 144.508 40.789 144.861 40.6593 145.262C40.5297 145.651 40.4649 146.063 40.4649 146.499C40.4649 146.924 40.5474 147.319 40.7124 147.684C40.8538 148.014 41.0424 148.267 41.2781 148.444C41.5256 148.621 41.7849 148.727 42.056 148.762C42.3271 148.786 42.6041 148.745 42.887 148.639C43.1816 148.521 43.4409 148.338 43.6649 148.091ZM47.4571 143.777C47.1978 143.741 47.0033 143.653 46.8737 143.512C46.7558 143.37 46.6969 143.217 46.6969 143.052C46.6969 142.887 46.7617 142.728 46.8913 142.575C47.0328 142.41 47.239 142.327 47.5101 142.327H48.5002V139.534C48.5591 139.298 48.6534 139.121 48.783 139.003C48.9127 138.885 49.06 138.827 49.225 138.827C49.3783 138.827 49.5197 138.88 49.6493 138.986C49.7908 139.092 49.891 139.257 49.9499 139.481V142.327H51.6471C51.8711 142.386 52.0361 142.486 52.1422 142.628C52.2482 142.757 52.3013 142.899 52.3013 143.052C52.3013 143.217 52.2423 143.364 52.1245 143.494C52.0066 143.624 51.8298 143.718 51.5941 143.777H49.9499C49.9381 144.684 49.9381 145.621 49.9499 146.588C49.9617 147.543 49.9676 148.474 49.9676 149.381C49.9676 149.652 49.8851 149.859 49.7201 150C49.5668 150.13 49.4077 150.194 49.2427 150.194C49.0777 150.194 48.9245 150.13 48.783 150C48.6416 149.882 48.5532 149.694 48.5179 149.434C48.5179 148.515 48.512 147.572 48.5002 146.606C48.5002 145.639 48.5002 144.696 48.5002 143.777H47.4571ZM55.4644 149.434C55.4526 149.705 55.3701 149.906 55.2169 150.035C55.0755 150.177 54.9164 150.248 54.7396 150.248C54.5746 150.248 54.4213 150.183 54.2799 150.053C54.1385 149.935 54.0501 149.747 54.0147 149.487C54.0029 148.379 53.9911 147.248 53.9794 146.093C53.9794 144.938 53.9735 143.806 53.9617 142.698C54.0206 142.463 54.1149 142.286 54.2445 142.168C54.3742 142.05 54.5215 141.991 54.6865 141.991C54.8398 141.991 54.9812 142.044 55.1108 142.15C55.2523 142.256 55.3525 142.421 55.4114 142.645C55.4232 143.753 55.4291 144.885 55.4291 146.04C55.4409 147.195 55.4526 148.326 55.4644 149.434ZM53.8379 139.817C53.8379 139.557 53.9204 139.339 54.0854 139.162C54.2504 138.974 54.4508 138.88 54.6865 138.88C54.9223 138.88 55.1226 138.974 55.2876 139.162C55.4644 139.339 55.5528 139.557 55.5528 139.817C55.5528 140.064 55.4644 140.282 55.2876 140.471C55.1226 140.648 54.9223 140.736 54.6865 140.736C54.4508 140.736 54.2504 140.648 54.0854 140.471C53.9204 140.282 53.8379 140.064 53.8379 139.817ZM62.3795 142.592C62.4974 142.392 62.6329 142.262 62.7861 142.203C62.9511 142.133 63.1044 142.121 63.2458 142.168C63.399 142.203 63.5228 142.298 63.6171 142.451C63.7232 142.592 63.7703 142.775 63.7585 142.999C63.5935 143.635 63.399 144.26 63.1751 144.873C62.9629 145.474 62.7508 146.081 62.5386 146.694C62.3383 147.26 62.1379 147.82 61.9375 148.373C61.7489 148.916 61.5368 149.458 61.3011 150C61.0889 150.259 60.8532 150.371 60.5939 150.336C60.3346 150.301 60.1342 150.136 59.9928 149.841C59.5685 148.721 59.1324 147.613 58.6845 146.517C58.2484 145.421 57.7592 144.343 57.2171 143.282C57.0992 143.046 57.0697 142.84 57.1287 142.663C57.1876 142.474 57.2878 142.339 57.4292 142.256C57.5707 142.162 57.7357 142.133 57.9243 142.168C58.1246 142.203 58.3014 142.327 58.4546 142.539C58.8672 143.364 59.2561 144.201 59.6215 145.05C59.9869 145.898 60.3405 146.759 60.6823 147.631C60.7648 147.407 60.8414 147.183 60.9121 146.959C60.9946 146.735 61.0771 146.511 61.1596 146.287C61.3718 145.674 61.5839 145.067 61.7961 144.466C62.0082 143.853 62.2027 143.229 62.3795 142.592ZM71.0887 147.931C71.3362 147.837 71.5484 147.825 71.7252 147.896C71.902 147.967 72.0257 148.079 72.0964 148.232C72.1789 148.385 72.1907 148.556 72.1318 148.745C72.0846 148.933 71.9491 149.092 71.7252 149.222C71.3362 149.446 70.9178 149.652 70.4699 149.841C70.022 150.029 69.5682 150.159 69.1086 150.23C68.6489 150.301 68.1951 150.295 67.7473 150.212C67.2994 150.141 66.8692 149.965 66.4566 149.682C65.9616 149.34 65.5845 148.88 65.3252 148.303C65.0659 147.713 64.9303 147.106 64.9185 146.482C64.9067 145.845 65.0187 145.238 65.2544 144.661C65.502 144.071 65.885 143.6 66.4036 143.246C66.9458 142.881 67.5351 142.61 68.1716 142.433C68.808 142.245 69.4504 142.221 70.0986 142.362C70.4169 142.433 70.7056 142.586 70.9649 142.822C71.2242 143.046 71.4305 143.311 71.5837 143.618C71.7487 143.912 71.8371 144.231 71.8489 144.572C71.8607 144.902 71.7782 145.215 71.6014 145.509C71.401 145.839 71.1123 146.122 70.7351 146.358C70.3579 146.582 69.9454 146.776 69.4975 146.941C69.0614 147.095 68.6194 147.224 68.1716 147.33C67.7355 147.436 67.3524 147.537 67.0224 147.631C66.881 147.666 66.7454 147.672 66.6158 147.649C66.7926 148.026 67.0519 148.338 67.3937 148.586C67.7473 148.821 68.1834 148.922 68.702 148.886C69.1145 148.863 69.527 148.751 69.9395 148.55C70.3638 148.338 70.7469 148.132 71.0887 147.931ZM67.6412 144.166C67.2051 144.39 66.881 144.708 66.6688 145.12C66.4566 145.521 66.3506 145.945 66.3506 146.393C66.4331 146.334 66.5215 146.287 66.6158 146.252C66.8279 146.193 67.0401 146.134 67.2522 146.075C67.4762 146.004 67.7001 145.94 67.9241 145.881C68.0655 145.845 68.2541 145.792 68.4898 145.722C68.7373 145.651 68.9907 145.568 69.25 145.474C69.5093 145.38 69.745 145.274 69.9572 145.156C70.1694 145.026 70.3108 144.885 70.3815 144.731C70.4051 144.343 70.3108 144.077 70.0986 143.936C69.8865 143.794 69.6331 143.724 69.3384 143.724C69.0438 143.724 68.7373 143.777 68.4191 143.883C68.1008 143.977 67.8415 144.071 67.6412 144.166ZM99.4676 149.417C99.4558 149.641 99.3969 149.823 99.2908 149.965C99.1847 150.106 99.0551 150.189 98.9018 150.212C98.7486 150.248 98.5954 150.224 98.4422 150.141C98.289 150.059 98.1593 149.917 98.0532 149.717C97.9825 149.163 97.8823 148.621 97.7527 148.091C97.623 147.548 97.4698 147.012 97.293 146.482L92.6079 146.517C92.5844 146.517 92.5549 146.517 92.5195 146.517C92.496 146.505 92.4724 146.499 92.4488 146.499C92.1541 147.501 91.889 148.538 91.6532 149.611C91.5589 149.859 91.4234 150.024 91.2466 150.106C91.0698 150.189 90.8989 150.206 90.7339 150.159C90.5807 150.112 90.451 150.006 90.3449 149.841C90.2507 149.676 90.2271 149.464 90.2742 149.204C90.6632 147.495 91.1287 145.828 91.6709 144.201C92.2249 142.563 92.9144 140.966 93.7394 139.41C93.8101 139.186 93.9751 139.045 94.2344 138.986C94.3641 138.938 94.4879 138.933 94.6057 138.968C94.7236 138.992 94.8238 139.045 94.9063 139.127C94.9181 139.127 94.9239 139.133 94.9239 139.145C94.9239 139.145 94.9298 139.145 94.9416 139.145C95.5545 139.734 96.0672 140.4 96.4797 141.143C96.8923 141.885 97.2694 142.639 97.6112 143.406C97.7409 143.677 97.8588 143.948 97.9648 144.219C98.0827 144.49 98.1947 144.761 98.3007 145.032L99.2378 145.014C99.4617 145.085 99.6267 145.191 99.7328 145.333C99.8389 145.474 99.886 145.621 99.8742 145.775C99.8742 145.916 99.8153 146.057 99.6974 146.199C99.5796 146.329 99.4087 146.417 99.1847 146.464H98.8134C98.9667 146.947 99.0963 147.436 99.2024 147.931C99.3203 148.415 99.4087 148.91 99.4676 149.417ZM94.588 140.913C94.258 141.585 93.9516 142.268 93.6687 142.964C93.3976 143.659 93.1442 144.36 92.9085 145.067L96.7626 145.032C96.6094 144.678 96.4503 144.331 96.2853 143.989C96.132 143.647 95.9729 143.305 95.8079 142.964C95.6193 142.622 95.4308 142.274 95.2422 141.92C95.0536 141.567 94.8355 141.231 94.588 140.913ZM101.451 143.848C101.274 143.753 101.145 143.641 101.062 143.512C100.98 143.382 100.938 143.252 100.938 143.123C100.938 142.946 101.003 142.793 101.133 142.663C101.262 142.522 101.439 142.451 101.663 142.451C101.828 142.451 102.034 142.51 102.282 142.628C102.529 142.745 102.724 142.875 102.865 143.017C103.231 142.71 103.608 142.457 103.997 142.256C104.386 142.056 104.781 141.956 105.181 141.956C105.299 141.956 105.47 141.985 105.694 142.044C105.918 142.103 106.136 142.192 106.348 142.309C106.572 142.427 106.767 142.58 106.932 142.769C107.097 142.958 107.179 143.176 107.179 143.423C107.179 143.624 107.114 143.789 106.985 143.918C106.855 144.036 106.696 144.095 106.507 144.095C106.378 144.095 106.26 144.06 106.154 143.989C106.059 143.906 105.959 143.824 105.853 143.741C105.759 143.647 105.653 143.565 105.535 143.494C105.429 143.423 105.305 143.388 105.164 143.388C104.999 143.388 104.816 143.441 104.616 143.547C104.427 143.641 104.233 143.759 104.032 143.901C103.844 144.042 103.661 144.195 103.484 144.36C103.307 144.525 103.154 144.673 103.024 144.802V149.505C103.013 149.776 102.93 149.976 102.777 150.106C102.635 150.248 102.476 150.318 102.3 150.318C102.135 150.318 101.981 150.253 101.84 150.124C101.698 150.006 101.61 149.817 101.575 149.558V144.731C101.575 144.708 101.569 144.684 101.557 144.661C101.557 144.625 101.557 144.596 101.557 144.572C101.557 144.549 101.557 144.525 101.557 144.502C101.569 144.466 101.575 144.437 101.575 144.413V143.901C101.528 143.877 101.486 143.859 101.451 143.848ZM112.524 148.091C112.725 147.926 112.919 147.849 113.108 147.861C113.308 147.873 113.467 147.937 113.585 148.055C113.703 148.173 113.768 148.332 113.779 148.533C113.791 148.721 113.715 148.916 113.55 149.116C113.161 149.54 112.701 149.841 112.171 150.018C111.652 150.194 111.133 150.242 110.615 150.159C110.108 150.088 109.637 149.888 109.2 149.558C108.764 149.228 108.44 148.78 108.228 148.214C108.098 147.896 108.004 147.56 107.945 147.207C107.886 146.853 107.869 146.505 107.892 146.164C107.928 145.598 108.057 145.032 108.281 144.466C108.517 143.889 108.829 143.388 109.218 142.964C109.619 142.539 110.084 142.233 110.615 142.044C111.157 141.844 111.746 141.844 112.383 142.044C112.701 142.15 112.99 142.28 113.249 142.433C113.508 142.586 113.756 142.781 113.992 143.017C114.121 143.205 114.186 143.388 114.186 143.565C114.186 143.741 114.133 143.889 114.027 144.007C113.933 144.113 113.797 144.183 113.62 144.219C113.455 144.254 113.267 144.219 113.055 144.113C112.666 143.724 112.289 143.494 111.923 143.423C111.558 143.341 111.216 143.37 110.898 143.512C110.591 143.653 110.314 143.883 110.067 144.201C109.831 144.508 109.648 144.861 109.519 145.262C109.389 145.651 109.324 146.063 109.324 146.499C109.324 146.924 109.407 147.319 109.572 147.684C109.713 148.014 109.902 148.267 110.137 148.444C110.385 148.621 110.644 148.727 110.915 148.762C111.186 148.786 111.463 148.745 111.746 148.639C112.041 148.521 112.3 148.338 112.524 148.091ZM117.425 149.452C117.413 149.711 117.337 149.906 117.195 150.035C117.054 150.177 116.895 150.248 116.718 150.248C116.553 150.259 116.394 150.2 116.24 150.071C116.099 149.953 116.011 149.764 115.975 149.505V139.675C116.022 139.451 116.111 139.28 116.24 139.162C116.382 139.045 116.523 138.986 116.665 138.986C116.818 138.974 116.965 139.021 117.107 139.127C117.248 139.233 117.354 139.398 117.425 139.622V143.777C117.602 143.6 117.767 143.459 117.92 143.352C118.156 143.187 118.374 143.058 118.574 142.964C118.786 142.857 119.028 142.775 119.299 142.716C119.511 142.657 119.723 142.645 119.935 142.681C120.159 142.716 120.377 142.763 120.59 142.822C120.943 142.928 121.244 143.099 121.491 143.335C121.751 143.571 121.963 143.848 122.128 144.166C122.305 144.472 122.434 144.802 122.517 145.156C122.599 145.509 122.646 145.851 122.658 146.181C122.67 146.747 122.67 147.307 122.658 147.861C122.658 148.403 122.664 148.957 122.676 149.523C122.664 149.782 122.587 149.976 122.446 150.106C122.305 150.248 122.145 150.318 121.969 150.318C121.804 150.33 121.644 150.271 121.491 150.141C121.35 150.024 121.261 149.835 121.226 149.576C121.226 149.01 121.226 148.456 121.226 147.914C121.226 147.36 121.22 146.8 121.208 146.234C121.197 145.81 121.114 145.427 120.961 145.085C120.819 144.743 120.566 144.455 120.201 144.219C119.894 144.136 119.617 144.136 119.37 144.219C119.122 144.301 118.892 144.431 118.68 144.608C118.48 144.773 118.291 144.967 118.114 145.191C117.938 145.415 117.767 145.633 117.602 145.845C117.578 145.881 117.549 145.916 117.513 145.951C117.478 145.975 117.449 145.999 117.425 146.022V149.452ZM126.464 149.434C126.453 149.705 126.37 149.906 126.217 150.035C126.075 150.177 125.916 150.248 125.74 150.248C125.575 150.248 125.421 150.183 125.28 150.053C125.138 149.935 125.05 149.747 125.015 149.487C125.003 148.379 124.991 147.248 124.979 146.093C124.979 144.938 124.973 143.806 124.962 142.698C125.021 142.463 125.115 142.286 125.245 142.168C125.374 142.05 125.522 141.991 125.687 141.991C125.84 141.991 125.981 142.044 126.111 142.15C126.252 142.256 126.352 142.421 126.411 142.645C126.423 143.753 126.429 144.885 126.429 146.04C126.441 147.195 126.453 148.326 126.464 149.434ZM124.838 139.817C124.838 139.557 124.92 139.339 125.085 139.162C125.25 138.974 125.451 138.88 125.687 138.88C125.922 138.88 126.123 138.974 126.288 139.162C126.464 139.339 126.553 139.557 126.553 139.817C126.553 140.064 126.464 140.282 126.288 140.471C126.123 140.648 125.922 140.736 125.687 140.736C125.451 140.736 125.25 140.648 125.085 140.471C124.92 140.282 124.838 140.064 124.838 139.817ZM133.38 142.592C133.497 142.392 133.633 142.262 133.786 142.203C133.951 142.133 134.104 142.121 134.246 142.168C134.399 142.203 134.523 142.298 134.617 142.451C134.723 142.592 134.77 142.775 134.759 142.999C134.594 143.635 134.399 144.26 134.175 144.873C133.963 145.474 133.751 146.081 133.539 146.694C133.338 147.26 133.138 147.82 132.938 148.373C132.749 148.916 132.537 149.458 132.301 150C132.089 150.259 131.853 150.371 131.594 150.336C131.335 150.301 131.134 150.136 130.993 149.841C130.568 148.721 130.132 147.613 129.684 146.517C129.248 145.421 128.759 144.343 128.217 143.282C128.099 143.046 128.07 142.84 128.129 142.663C128.188 142.474 128.288 142.339 128.429 142.256C128.571 142.162 128.736 142.133 128.924 142.168C129.125 142.203 129.301 142.327 129.455 142.539C129.867 143.364 130.256 144.201 130.621 145.05C130.987 145.898 131.34 146.759 131.682 147.631C131.765 147.407 131.841 147.183 131.912 146.959C131.995 146.735 132.077 146.511 132.16 146.287C132.372 145.674 132.584 145.067 132.796 144.466C133.008 143.853 133.203 143.229 133.38 142.592ZM142.089 147.931C142.336 147.837 142.548 147.825 142.725 147.896C142.902 147.967 143.026 148.079 143.096 148.232C143.179 148.385 143.191 148.556 143.132 148.745C143.085 148.933 142.949 149.092 142.725 149.222C142.336 149.446 141.918 149.652 141.47 149.841C141.022 150.029 140.568 150.159 140.109 150.23C139.649 150.301 139.195 150.295 138.747 150.212C138.299 150.141 137.869 149.965 137.457 149.682C136.962 149.34 136.584 148.88 136.325 148.303C136.066 147.713 135.93 147.106 135.919 146.482C135.907 145.845 136.019 145.238 136.254 144.661C136.502 144.071 136.885 143.6 137.404 143.246C137.946 142.881 138.535 142.61 139.172 142.433C139.808 142.245 140.45 142.221 141.099 142.362C141.417 142.433 141.706 142.586 141.965 142.822C142.224 143.046 142.43 143.311 142.584 143.618C142.749 143.912 142.837 144.231 142.849 144.572C142.861 144.902 142.778 145.215 142.601 145.509C142.401 145.839 142.112 146.122 141.735 146.358C141.358 146.582 140.945 146.776 140.498 146.941C140.061 147.095 139.619 147.224 139.172 147.33C138.735 147.436 138.352 147.537 138.022 147.631C137.881 147.666 137.745 147.672 137.616 147.649C137.793 148.026 138.052 148.338 138.394 148.586C138.747 148.821 139.183 148.922 139.702 148.886C140.114 148.863 140.527 148.751 140.94 148.55C141.364 148.338 141.747 148.132 142.089 147.931ZM138.641 144.166C138.205 144.39 137.881 144.708 137.669 145.12C137.457 145.521 137.351 145.945 137.351 146.393C137.433 146.334 137.521 146.287 137.616 146.252C137.828 146.193 138.04 146.134 138.252 146.075C138.476 146.004 138.7 145.94 138.924 145.881C139.065 145.845 139.254 145.792 139.49 145.722C139.737 145.651 139.991 145.568 140.25 145.474C140.509 145.38 140.745 145.274 140.957 145.156C141.169 145.026 141.311 144.885 141.382 144.731C141.405 144.343 141.311 144.077 141.099 143.936C140.886 143.794 140.633 143.724 140.338 143.724C140.044 143.724 139.737 143.777 139.419 143.883C139.101 143.977 138.842 144.071 138.641 144.166Z" fill="#111111"/>
<line x1="73" y1="154.5" x2="27" y2="154.5" stroke="black"/>
<path d="M358 236L364 230L358 224" stroke="#111111" stroke-width="2" stroke-linecap="round" stroke-linejoin="round"/>
<g clip-path="url(#clip0)">
<path d="M117.987 214.035C118.358 214.053 118.641 214.177 118.835 214.407C119.048 214.619 119.145 214.857 119.127 215.123C119.127 215.37 119.039 215.591 118.862 215.786C118.685 215.98 118.42 216.113 118.066 216.183C117.748 216.201 117.386 216.21 116.979 216.21C116.572 216.21 116.219 216.21 115.918 216.21L115.945 225.757C115.945 226.747 115.706 227.622 115.229 228.382C114.999 228.754 114.716 229.09 114.38 229.39C114.044 229.691 113.673 229.938 113.266 230.133C112.877 230.345 112.462 230.504 112.02 230.61C111.596 230.734 111.162 230.796 110.72 230.796C110.119 230.796 109.536 230.681 108.97 230.451C108.422 230.239 107.945 229.894 107.538 229.417C107.485 229.364 107.388 229.24 107.246 229.045C107.105 228.851 106.955 228.648 106.796 228.435C106.636 228.206 106.495 227.993 106.371 227.799C106.248 227.604 106.186 227.49 106.186 227.454C106.009 227.224 105.92 226.977 105.92 226.712C105.92 226.429 106.009 226.19 106.186 225.996C106.38 225.801 106.628 225.704 106.928 225.704C107.211 225.704 107.485 225.801 107.75 225.996C107.909 226.155 108.042 226.323 108.148 226.499C108.254 226.659 108.351 226.827 108.44 227.003C108.528 227.162 108.625 227.33 108.731 227.507C108.838 227.666 108.979 227.825 109.156 227.985C109.386 228.197 109.642 228.356 109.925 228.462C110.225 228.55 110.526 228.594 110.827 228.594C111.215 228.594 111.596 228.524 111.967 228.382C112.338 228.241 112.656 228.038 112.922 227.772C113.045 227.666 113.143 227.569 113.213 227.481C113.284 227.392 113.337 227.313 113.372 227.242C113.425 227.154 113.47 227.065 113.505 226.977C113.558 226.871 113.611 226.747 113.664 226.606C113.752 225.916 113.806 225.227 113.823 224.537C113.859 223.848 113.876 223.158 113.876 222.469C113.876 221.991 113.867 221.496 113.85 220.983C113.85 220.453 113.841 219.914 113.823 219.366C113.823 218.818 113.814 218.278 113.797 217.748C113.779 217.218 113.761 216.714 113.744 216.236C112.701 216.272 111.666 216.29 110.641 216.29C109.615 216.29 108.581 216.298 107.538 216.316C107.185 216.263 106.91 216.13 106.716 215.918C106.522 215.688 106.433 215.45 106.451 215.202C106.451 214.743 106.751 214.389 107.352 214.141C109.067 214.124 110.818 214.115 112.603 214.115C114.389 214.097 116.148 214.071 117.881 214.035H117.987ZM119.53 223.503C119.724 222.937 119.963 222.389 120.246 221.859C120.528 221.31 120.864 220.815 121.253 220.373C121.642 219.931 122.084 219.551 122.579 219.233C123.092 218.915 123.658 218.685 124.276 218.544C125.302 218.314 126.195 218.393 126.955 218.782C127.733 219.171 128.352 219.728 128.811 220.453C129.271 221.178 129.572 222.009 129.713 222.946C129.872 223.865 129.837 224.749 129.607 225.598C129.342 226.641 128.873 227.613 128.201 228.515C127.53 229.417 126.681 230.071 125.655 230.477C124.895 230.778 124.162 230.884 123.454 230.796C122.765 230.725 122.137 230.504 121.572 230.133C121.023 229.761 120.555 229.275 120.166 228.674C119.777 228.073 119.512 227.392 119.37 226.632C119.282 226.155 119.247 225.686 119.264 225.227C119.3 224.767 119.362 224.307 119.45 223.848L119.53 223.503ZM121.598 224.113C121.527 224.484 121.474 224.829 121.439 225.147C121.421 225.448 121.439 225.792 121.492 226.181C121.545 226.659 121.695 227.092 121.943 227.481C122.19 227.852 122.491 228.144 122.844 228.356C123.198 228.55 123.587 228.648 124.011 228.648C124.453 228.63 124.895 228.488 125.337 228.223C125.921 227.87 126.38 227.41 126.716 226.844C127.07 226.278 127.335 225.669 127.512 225.014C127.653 224.484 127.68 223.918 127.591 223.317C127.521 222.716 127.344 222.186 127.061 221.726C126.778 221.266 126.398 220.939 125.921 220.745C125.443 220.533 124.878 220.559 124.223 220.824C123.516 221.125 122.959 221.576 122.553 222.177C122.146 222.778 121.828 223.423 121.598 224.113ZM134.036 229.178C134.018 229.567 133.903 229.859 133.691 230.053C133.479 230.265 133.24 230.371 132.975 230.371C132.728 230.389 132.489 230.301 132.259 230.106C132.047 229.929 131.914 229.646 131.861 229.257V214.513C131.932 214.177 132.065 213.92 132.259 213.744C132.471 213.567 132.683 213.478 132.896 213.478C133.125 213.461 133.346 213.531 133.559 213.691C133.771 213.85 133.93 214.097 134.036 214.433V220.665C134.301 220.4 134.549 220.188 134.778 220.029C135.132 219.781 135.459 219.587 135.76 219.445C136.078 219.286 136.44 219.162 136.847 219.074C137.165 218.986 137.483 218.968 137.802 219.021C138.138 219.074 138.465 219.145 138.783 219.233C139.313 219.392 139.764 219.649 140.135 220.002C140.524 220.356 140.843 220.771 141.09 221.249C141.355 221.708 141.55 222.203 141.673 222.734C141.797 223.264 141.868 223.777 141.886 224.272C141.903 225.12 141.903 225.96 141.886 226.791C141.886 227.604 141.894 228.435 141.912 229.284C141.894 229.673 141.78 229.965 141.567 230.159C141.355 230.371 141.117 230.477 140.851 230.477C140.604 230.495 140.365 230.407 140.135 230.212C139.923 230.035 139.791 229.752 139.738 229.364C139.738 228.515 139.738 227.684 139.738 226.871C139.738 226.04 139.729 225.2 139.711 224.351C139.693 223.715 139.57 223.14 139.34 222.628C139.128 222.115 138.747 221.682 138.199 221.328C137.74 221.204 137.324 221.204 136.953 221.328C136.582 221.452 136.237 221.646 135.919 221.912C135.618 222.159 135.335 222.451 135.07 222.787C134.805 223.123 134.549 223.45 134.301 223.768C134.266 223.821 134.222 223.874 134.168 223.927C134.115 223.962 134.071 223.998 134.036 224.033V229.178ZM154.198 229.204C154.18 229.611 154.056 229.912 153.826 230.106C153.614 230.318 153.376 230.424 153.11 230.424C152.863 230.424 152.633 230.327 152.421 230.133C152.209 229.956 152.076 229.673 152.023 229.284C152.023 228.471 152.014 227.666 151.997 226.871C151.997 226.057 151.997 225.244 151.997 224.431C151.997 223.848 151.997 223.264 151.997 222.681C152.014 222.097 151.979 221.514 151.891 220.93C151.749 220.665 151.59 220.506 151.413 220.453C151.254 220.382 151.06 220.347 150.83 220.347C150.229 220.347 149.636 220.497 149.053 220.798C148.47 221.081 148.01 221.478 147.674 221.991C147.48 222.292 147.32 222.548 147.197 222.76C147.091 222.955 147.02 223.246 146.984 223.635C146.984 224.537 146.984 225.439 146.984 226.34C146.984 227.242 146.993 228.144 147.011 229.045C146.993 229.452 146.87 229.761 146.64 229.973C146.428 230.168 146.189 230.265 145.924 230.265C145.676 230.265 145.446 230.177 145.234 230C145.022 229.806 144.889 229.514 144.836 229.125C144.836 228.276 144.836 227.454 144.836 226.659C144.836 225.863 144.828 225.076 144.81 224.298C144.81 223.52 144.81 222.734 144.81 221.938C144.81 221.125 144.81 220.294 144.81 219.445C144.898 219.092 145.04 218.827 145.234 218.65C145.429 218.473 145.65 218.385 145.897 218.385C146.127 218.385 146.339 218.464 146.534 218.623C146.746 218.782 146.896 219.03 146.984 219.366V219.578C147.497 219.136 148.072 218.791 148.708 218.544C149.362 218.278 150.017 218.146 150.671 218.146C151.325 218.146 151.935 218.296 152.501 218.597C153.084 218.897 153.552 219.383 153.906 220.055C154.03 220.285 154.109 220.577 154.145 220.93C154.198 221.266 154.224 221.629 154.224 222.018C154.242 222.389 154.242 222.778 154.224 223.185C154.207 223.573 154.198 223.945 154.198 224.298V227.428V229.204Z" fill="#111111"/>
</g>
<path d="M108.614 248.257C108.8 248.392 108.908 248.546 108.939 248.722C108.97 248.887 108.944 249.031 108.862 249.155C108.79 249.278 108.671 249.366 108.506 249.418C108.351 249.469 108.171 249.443 107.965 249.34C107.872 249.278 107.779 249.217 107.686 249.155C107.593 249.093 107.495 249.031 107.392 248.969C107.299 248.887 107.238 248.809 107.207 248.737C107.176 248.665 107.15 248.562 107.129 248.428V239.842C107.171 239.646 107.248 239.497 107.361 239.393C107.485 239.29 107.609 239.239 107.733 239.239C107.867 239.228 107.996 239.27 108.119 239.362C108.243 239.455 108.336 239.6 108.398 239.796V248.118C108.429 248.139 108.46 248.165 108.491 248.196C108.532 248.216 108.573 248.237 108.614 248.257ZM116.258 248.335C116.258 248.345 116.253 248.35 116.243 248.35C116.304 248.495 116.32 248.629 116.289 248.752C116.258 248.876 116.196 248.974 116.103 249.046C116.021 249.129 115.907 249.18 115.763 249.201C115.629 249.222 115.479 249.191 115.314 249.108C115.222 249.015 115.134 248.917 115.051 248.814C114.969 248.701 114.897 248.587 114.835 248.474C114.629 248.649 114.407 248.814 114.17 248.969C113.932 249.113 113.695 249.191 113.458 249.201C113.046 249.222 112.638 249.227 112.236 249.217C111.834 249.206 111.452 249.072 111.091 248.814C110.792 248.598 110.56 248.34 110.395 248.041C110.24 247.742 110.137 247.427 110.086 247.097C110.044 246.757 110.05 246.411 110.101 246.061C110.153 245.71 110.24 245.375 110.364 245.055C110.416 244.911 110.483 244.772 110.565 244.638C110.648 244.503 110.73 244.364 110.813 244.22C110.926 244.014 111.055 243.823 111.199 243.648C111.344 243.462 111.509 243.302 111.695 243.168C111.829 243.075 111.957 242.982 112.081 242.89C112.215 242.797 112.349 242.709 112.483 242.627C112.576 242.565 112.716 242.503 112.901 242.441C113.097 242.369 113.303 242.312 113.52 242.271C113.747 242.219 113.969 242.193 114.185 242.193C114.412 242.193 114.603 242.224 114.757 242.286C114.902 242.266 115.041 242.302 115.175 242.394C115.32 242.487 115.428 242.637 115.5 242.843C115.5 243.544 115.495 244.251 115.485 244.962C115.474 245.674 115.521 246.38 115.624 247.082C115.634 247.175 115.67 247.288 115.732 247.422C115.804 247.546 115.876 247.67 115.949 247.793C116.031 247.917 116.103 248.031 116.165 248.134C116.227 248.237 116.258 248.304 116.258 248.335ZM114.293 247.267C114.314 247.257 114.33 247.247 114.34 247.236C114.35 247.226 114.366 247.216 114.386 247.206C114.252 246.587 114.185 245.947 114.185 245.287C114.195 244.617 114.206 244.003 114.216 243.446C114.123 243.446 114.02 243.457 113.907 243.477C113.793 243.498 113.68 243.529 113.566 243.57C113.463 243.601 113.365 243.632 113.272 243.663C113.19 243.694 113.128 243.72 113.087 243.74C112.777 243.885 112.514 244.076 112.298 244.313C112.081 244.54 111.901 244.797 111.756 245.086C111.622 245.365 111.519 245.664 111.447 245.983C111.375 246.293 111.339 246.607 111.339 246.927C111.359 247.01 111.385 247.092 111.416 247.175C111.447 247.257 111.473 247.34 111.493 247.422C111.545 247.474 111.597 247.53 111.648 247.592C111.71 247.654 111.772 247.711 111.834 247.762C111.927 247.804 112.019 247.84 112.112 247.871C112.205 247.902 112.298 247.933 112.391 247.964C112.566 247.964 112.736 247.969 112.901 247.979C113.066 247.989 113.231 247.969 113.396 247.917C113.551 247.814 113.7 247.711 113.845 247.608C113.999 247.505 114.149 247.391 114.293 247.267ZM117.415 247.871C117.322 247.685 117.292 247.52 117.322 247.376C117.353 247.221 117.415 247.102 117.508 247.02C117.611 246.927 117.74 246.881 117.895 246.881C118.05 246.881 118.209 246.937 118.374 247.051C118.612 247.35 118.89 247.582 119.21 247.747C119.54 247.912 119.89 248.01 120.262 248.041L120.587 247.948C120.669 247.886 120.726 247.845 120.757 247.824C120.788 247.804 120.808 247.788 120.819 247.778C120.839 247.757 120.86 247.731 120.88 247.701C120.911 247.67 120.958 247.613 121.02 247.53C121.04 247.489 121.056 247.448 121.066 247.407C121.076 247.365 121.092 247.319 121.112 247.267C121.112 247.216 121.112 247.169 121.112 247.128C121.123 247.087 121.128 247.041 121.128 246.989L121.035 246.71C121.004 246.669 120.968 246.628 120.927 246.587C120.896 246.545 120.865 246.504 120.834 246.463C120.576 246.298 120.318 246.179 120.061 246.107C119.803 246.035 119.55 245.963 119.303 245.891C119.065 245.808 118.828 245.705 118.591 245.581C118.364 245.457 118.147 245.256 117.941 244.978C117.745 244.73 117.637 244.447 117.616 244.127C117.606 243.797 117.658 243.483 117.771 243.183C117.895 242.884 118.07 242.621 118.297 242.394C118.534 242.157 118.802 242.008 119.101 241.946C119.535 241.843 119.973 241.832 120.416 241.915C120.87 241.997 121.293 242.142 121.685 242.348C121.871 242.482 121.979 242.637 122.01 242.812C122.041 242.977 122.015 243.122 121.932 243.245C121.86 243.369 121.742 243.457 121.577 243.508C121.422 243.56 121.241 243.534 121.035 243.431C120.788 243.297 120.525 243.209 120.246 243.168C119.978 243.127 119.705 243.127 119.426 243.168C119.395 243.189 119.359 243.204 119.318 243.214C119.287 243.225 119.256 243.24 119.225 243.261C119.112 243.385 119.029 243.508 118.978 243.632C118.926 243.745 118.905 243.89 118.916 244.065C118.926 244.106 118.952 244.168 118.993 244.251C119.024 244.292 119.055 244.328 119.086 244.359C119.117 244.39 119.148 244.426 119.179 244.467C119.426 244.601 119.694 244.71 119.983 244.792C120.282 244.864 120.571 244.952 120.85 245.055C121.128 245.148 121.386 245.277 121.623 245.442C121.86 245.597 122.046 245.829 122.18 246.138C122.427 246.726 122.464 247.267 122.288 247.762C122.123 248.257 121.783 248.675 121.267 249.015C121.133 249.098 120.984 249.165 120.819 249.217C120.654 249.278 120.499 249.309 120.354 249.309C119.798 249.309 119.251 249.186 118.715 248.938C118.178 248.68 117.745 248.324 117.415 247.871ZM124.105 243.555C123.878 243.524 123.708 243.446 123.595 243.323C123.491 243.199 123.44 243.065 123.44 242.92C123.44 242.776 123.497 242.637 123.61 242.503C123.734 242.358 123.914 242.286 124.151 242.286H125.018V239.842C125.069 239.636 125.152 239.481 125.265 239.378C125.379 239.275 125.508 239.223 125.652 239.223C125.786 239.223 125.91 239.27 126.023 239.362C126.147 239.455 126.235 239.6 126.286 239.796V242.286H127.771C127.967 242.338 128.112 242.425 128.204 242.549C128.297 242.663 128.344 242.786 128.344 242.92C128.344 243.065 128.292 243.194 128.189 243.307C128.086 243.421 127.931 243.503 127.725 243.555H126.286C126.276 244.349 126.276 245.169 126.286 246.014C126.297 246.85 126.302 247.664 126.302 248.459C126.302 248.696 126.23 248.876 126.085 249C125.951 249.113 125.812 249.17 125.667 249.17C125.523 249.17 125.389 249.113 125.265 249C125.141 248.897 125.064 248.732 125.033 248.505C125.033 247.701 125.028 246.876 125.018 246.03C125.018 245.184 125.018 244.359 125.018 243.555H124.105ZM140.985 247.933C141.099 248.077 141.155 248.237 141.155 248.412C141.155 248.587 141.099 248.732 140.985 248.845C140.872 248.948 140.732 249 140.567 249C140.341 249 140.145 248.897 139.98 248.691C139.815 248.474 139.675 248.232 139.562 247.964C139.294 248.252 138.979 248.5 138.618 248.706C138.257 248.902 137.886 249 137.504 249C137.226 249 136.958 248.954 136.7 248.861C136.442 248.758 136.2 248.624 135.973 248.459C135.756 248.283 135.56 248.082 135.385 247.855C135.22 247.628 135.096 247.391 135.014 247.144C134.931 246.876 134.875 246.582 134.844 246.262C134.813 245.932 134.797 245.592 134.797 245.241C134.797 244.818 134.808 244.406 134.828 244.003C134.849 243.601 134.859 243.245 134.859 242.936C134.911 242.73 134.993 242.575 135.107 242.472C135.22 242.369 135.349 242.317 135.493 242.317C135.627 242.317 135.751 242.364 135.865 242.456C135.988 242.549 136.076 242.694 136.128 242.89C136.128 243.374 136.117 243.843 136.097 244.297C136.086 244.741 136.081 245.215 136.081 245.72C136.081 246.298 136.205 246.772 136.452 247.144C136.7 247.515 137.035 247.701 137.458 247.701C137.613 247.701 137.767 247.67 137.922 247.608C138.077 247.546 138.221 247.463 138.355 247.36C138.489 247.257 138.613 247.138 138.727 247.004C138.84 246.87 138.943 246.736 139.036 246.602C139.057 246.582 139.082 246.566 139.113 246.556C139.144 246.535 139.17 246.515 139.191 246.494C139.129 245.978 139.098 245.457 139.098 244.931C139.098 244.632 139.098 244.333 139.098 244.034C139.108 243.725 139.134 243.446 139.175 243.199C139.227 242.941 139.304 242.735 139.407 242.58C139.521 242.415 139.675 242.333 139.871 242.333C140.026 242.333 140.165 242.394 140.289 242.518C140.413 242.632 140.475 242.802 140.475 243.029C140.475 243.266 140.454 243.555 140.413 243.895C140.382 244.235 140.366 244.591 140.366 244.962C140.366 245.251 140.377 245.54 140.397 245.829C140.418 246.117 140.449 246.396 140.49 246.664C140.542 246.922 140.603 247.159 140.676 247.376C140.758 247.592 140.861 247.778 140.985 247.933ZM142.629 242.75C142.681 242.544 142.763 242.389 142.877 242.286C142.99 242.183 143.119 242.131 143.263 242.131C143.397 242.131 143.521 242.178 143.635 242.271C143.758 242.364 143.846 242.508 143.898 242.704V242.843C144.135 242.637 144.403 242.487 144.702 242.394C145.011 242.291 145.31 242.24 145.599 242.24C146.001 242.24 146.373 242.327 146.713 242.503C147.064 242.678 147.368 242.915 147.626 243.214C147.884 243.513 148.085 243.864 148.229 244.266C148.373 244.658 148.446 245.081 148.446 245.535C148.446 246.03 148.363 246.484 148.198 246.896C148.043 247.309 147.811 247.664 147.502 247.964C147.193 248.263 146.806 248.5 146.342 248.675C145.888 248.84 145.357 248.923 144.748 248.923C144.604 248.923 144.46 248.917 144.315 248.907C144.181 248.897 144.042 248.881 143.898 248.861V252.125C143.887 252.362 143.815 252.537 143.681 252.651C143.557 252.775 143.418 252.836 143.263 252.836C143.119 252.836 142.985 252.78 142.861 252.666C142.737 252.563 142.66 252.398 142.629 252.171V242.75ZM144.052 244.498C144.032 244.529 144.006 244.56 143.975 244.591C143.944 244.612 143.918 244.632 143.898 244.653V247.577C144.042 247.608 144.181 247.634 144.315 247.654C144.46 247.675 144.604 247.685 144.748 247.685C145.099 247.685 145.424 247.639 145.723 247.546C146.022 247.453 146.28 247.319 146.496 247.144C146.723 246.968 146.899 246.752 147.022 246.494C147.146 246.236 147.208 245.942 147.208 245.612C147.208 245.365 147.167 245.117 147.084 244.87C147.012 244.612 146.904 244.38 146.759 244.173C146.625 243.967 146.466 243.802 146.28 243.678C146.094 243.544 145.888 243.477 145.661 243.477C145.486 243.477 145.321 243.508 145.166 243.57C145.011 243.632 144.867 243.715 144.733 243.818C144.599 243.91 144.475 244.019 144.362 244.143C144.248 244.256 144.145 244.375 144.052 244.498ZM155.393 247.902C155.528 248.087 155.579 248.268 155.548 248.443C155.528 248.608 155.461 248.742 155.347 248.845C155.244 248.938 155.105 248.985 154.929 248.985C154.764 248.974 154.599 248.887 154.434 248.722C154.383 248.67 154.336 248.618 154.295 248.567C154.254 248.505 154.223 248.448 154.202 248.397C153.893 248.665 153.532 248.871 153.119 249.015C152.717 249.17 152.305 249.248 151.882 249.248C151.469 249.248 151.072 249.165 150.691 249C150.309 248.825 149.989 248.557 149.732 248.196C149.536 247.917 149.391 247.608 149.298 247.267C149.216 246.917 149.175 246.566 149.175 246.215C149.175 245.855 149.216 245.504 149.298 245.164C149.391 244.813 149.505 244.488 149.639 244.189C149.763 243.921 149.938 243.678 150.165 243.462C150.402 243.245 150.649 243.07 150.907 242.936C151.144 242.802 151.407 242.694 151.696 242.611C151.995 242.518 152.279 242.467 152.547 242.456C152.795 242.456 153.042 242.462 153.29 242.472C153.537 242.482 153.779 242.523 154.017 242.596C154.006 241.853 153.996 241.229 153.986 240.724C153.986 240.208 153.986 239.863 153.986 239.687C154.027 239.491 154.104 239.342 154.218 239.239C154.342 239.136 154.465 239.084 154.589 239.084C154.723 239.074 154.852 239.115 154.976 239.208C155.1 239.301 155.192 239.445 155.254 239.641V247.731C155.275 247.762 155.296 247.793 155.316 247.824C155.347 247.845 155.373 247.871 155.393 247.902ZM154.032 246.788V246.571C154.032 246.19 154.032 245.772 154.032 245.318C154.032 244.854 154.027 244.416 154.017 244.003L153.924 243.957C153.893 243.936 153.862 243.916 153.831 243.895C153.81 243.874 153.785 243.854 153.754 243.833C153.444 243.74 153.119 243.699 152.779 243.709C152.439 243.72 152.119 243.787 151.82 243.91C151.521 244.024 151.253 244.194 151.016 244.421C150.789 244.648 150.629 244.937 150.536 245.287C150.454 245.607 150.423 245.885 150.443 246.123C150.464 246.36 150.495 246.638 150.536 246.958C150.577 247.041 150.613 247.123 150.644 247.206C150.686 247.288 150.727 247.371 150.768 247.453L151.077 247.762C151.201 247.804 151.32 247.855 151.433 247.917C151.846 247.958 152.222 247.938 152.563 247.855C152.913 247.773 153.248 247.592 153.568 247.314C153.578 247.293 153.599 247.267 153.63 247.236C153.671 247.195 153.712 247.154 153.754 247.113C153.795 247.071 153.831 247.035 153.862 247.004C153.903 246.963 153.929 246.937 153.939 246.927L154.032 246.788ZM163.235 248.335C163.235 248.345 163.229 248.35 163.219 248.35C163.281 248.495 163.296 248.629 163.266 248.752C163.235 248.876 163.173 248.974 163.08 249.046C162.997 249.129 162.884 249.18 162.74 249.201C162.606 249.222 162.456 249.191 162.291 249.108C162.198 249.015 162.11 248.917 162.028 248.814C161.945 248.701 161.873 248.587 161.811 248.474C161.605 248.649 161.383 248.814 161.146 248.969C160.909 249.113 160.672 249.191 160.435 249.201C160.022 249.222 159.615 249.227 159.213 249.217C158.81 249.206 158.429 249.072 158.068 248.814C157.769 248.598 157.537 248.34 157.372 248.041C157.217 247.742 157.114 247.427 157.062 247.097C157.021 246.757 157.026 246.411 157.078 246.061C157.129 245.71 157.217 245.375 157.341 245.055C157.392 244.911 157.459 244.772 157.542 244.638C157.624 244.503 157.707 244.364 157.789 244.22C157.903 244.014 158.032 243.823 158.176 243.648C158.32 243.462 158.485 243.302 158.671 243.168C158.805 243.075 158.934 242.982 159.058 242.89C159.192 242.797 159.326 242.709 159.46 242.627C159.553 242.565 159.692 242.503 159.878 242.441C160.074 242.369 160.28 242.312 160.496 242.271C160.723 242.219 160.945 242.193 161.162 242.193C161.389 242.193 161.579 242.224 161.734 242.286C161.878 242.266 162.018 242.302 162.152 242.394C162.296 242.487 162.404 242.637 162.477 242.843C162.477 243.544 162.471 244.251 162.461 244.962C162.451 245.674 162.497 246.38 162.6 247.082C162.611 247.175 162.647 247.288 162.709 247.422C162.781 247.546 162.853 247.67 162.925 247.793C163.008 247.917 163.08 248.031 163.142 248.134C163.204 248.237 163.235 248.304 163.235 248.335ZM161.27 247.267C161.291 247.257 161.306 247.247 161.316 247.236C161.327 247.226 161.342 247.216 161.363 247.206C161.229 246.587 161.162 245.947 161.162 245.287C161.172 244.617 161.182 244.003 161.193 243.446C161.1 243.446 160.997 243.457 160.883 243.477C160.77 243.498 160.656 243.529 160.543 243.57C160.44 243.601 160.342 243.632 160.249 243.663C160.166 243.694 160.105 243.72 160.063 243.74C159.754 243.885 159.491 244.076 159.274 244.313C159.058 244.54 158.877 244.797 158.733 245.086C158.599 245.365 158.496 245.664 158.424 245.983C158.351 246.293 158.315 246.607 158.315 246.927C158.336 247.01 158.362 247.092 158.393 247.175C158.424 247.257 158.449 247.34 158.47 247.422C158.522 247.474 158.573 247.53 158.625 247.592C158.687 247.654 158.748 247.711 158.81 247.762C158.903 247.804 158.996 247.84 159.089 247.871C159.182 247.902 159.274 247.933 159.367 247.964C159.543 247.964 159.713 247.969 159.878 247.979C160.043 247.989 160.208 247.969 160.373 247.917C160.527 247.814 160.677 247.711 160.821 247.608C160.976 247.505 161.126 247.391 161.27 247.267ZM164.601 243.555C164.374 243.524 164.204 243.446 164.091 243.323C163.987 243.199 163.936 243.065 163.936 242.92C163.936 242.776 163.993 242.637 164.106 242.503C164.23 242.358 164.41 242.286 164.648 242.286H165.514V239.842C165.565 239.636 165.648 239.481 165.761 239.378C165.875 239.275 166.004 239.223 166.148 239.223C166.282 239.223 166.406 239.27 166.519 239.362C166.643 239.455 166.731 239.6 166.782 239.796V242.286H168.267C168.463 242.338 168.608 242.425 168.701 242.549C168.793 242.663 168.84 242.786 168.84 242.92C168.84 243.065 168.788 243.194 168.685 243.307C168.582 243.421 168.427 243.503 168.221 243.555H166.782C166.772 244.349 166.772 245.169 166.782 246.014C166.793 246.85 166.798 247.664 166.798 248.459C166.798 248.696 166.726 248.876 166.581 249C166.447 249.113 166.308 249.17 166.164 249.17C166.019 249.17 165.885 249.113 165.761 249C165.638 248.897 165.56 248.732 165.529 248.505C165.529 247.701 165.524 246.876 165.514 246.03C165.514 245.184 165.514 244.359 165.514 243.555H164.601ZM174.587 247.19C174.804 247.108 174.99 247.097 175.144 247.159C175.299 247.221 175.407 247.319 175.469 247.453C175.541 247.587 175.552 247.737 175.5 247.902C175.459 248.067 175.34 248.206 175.144 248.319C174.804 248.515 174.438 248.696 174.046 248.861C173.654 249.026 173.257 249.139 172.855 249.201C172.453 249.263 172.056 249.258 171.664 249.186C171.272 249.124 170.895 248.969 170.534 248.722C170.101 248.422 169.771 248.02 169.544 247.515C169.317 246.999 169.199 246.468 169.188 245.922C169.178 245.365 169.276 244.834 169.482 244.328C169.699 243.813 170.034 243.4 170.488 243.091C170.962 242.771 171.478 242.534 172.035 242.379C172.592 242.214 173.154 242.193 173.721 242.317C174 242.379 174.252 242.513 174.479 242.719C174.706 242.915 174.886 243.147 175.021 243.415C175.165 243.673 175.242 243.952 175.253 244.251C175.263 244.54 175.191 244.813 175.036 245.071C174.861 245.359 174.608 245.607 174.278 245.813C173.948 246.009 173.587 246.179 173.195 246.324C172.814 246.458 172.427 246.571 172.035 246.664C171.653 246.757 171.318 246.845 171.029 246.927C170.906 246.958 170.787 246.963 170.674 246.943C170.828 247.273 171.055 247.546 171.354 247.762C171.664 247.969 172.045 248.056 172.499 248.025C172.86 248.005 173.221 247.907 173.582 247.731C173.953 247.546 174.288 247.365 174.587 247.19ZM171.571 243.895C171.189 244.091 170.906 244.369 170.72 244.73C170.534 245.081 170.442 245.452 170.442 245.844C170.514 245.793 170.591 245.751 170.674 245.72C170.859 245.669 171.045 245.617 171.23 245.566C171.426 245.504 171.622 245.447 171.818 245.396C171.942 245.365 172.107 245.318 172.313 245.256C172.53 245.194 172.752 245.122 172.979 245.04C173.205 244.957 173.412 244.864 173.597 244.761C173.783 244.648 173.907 244.524 173.969 244.39C173.989 244.05 173.907 243.818 173.721 243.694C173.535 243.57 173.314 243.508 173.056 243.508C172.798 243.508 172.53 243.555 172.251 243.648C171.973 243.73 171.746 243.813 171.571 243.895ZM178.708 243.385C178.708 243.663 178.615 243.895 178.429 244.081C178.254 244.256 178.038 244.344 177.78 244.344C177.522 244.344 177.3 244.256 177.115 244.081C176.929 243.895 176.836 243.663 176.836 243.385C176.836 243.127 176.929 242.905 177.115 242.719C177.3 242.534 177.522 242.441 177.78 242.441C178.038 242.441 178.254 242.534 178.429 242.719C178.615 242.905 178.708 243.127 178.708 243.385ZM178.739 248.149C178.739 248.397 178.651 248.613 178.476 248.799C178.311 248.974 178.099 249.062 177.842 249.062C177.594 249.062 177.378 248.974 177.192 248.799C177.017 248.613 176.929 248.397 176.929 248.149C176.929 247.881 177.017 247.659 177.192 247.484C177.378 247.309 177.594 247.221 177.842 247.221C178.099 247.221 178.311 247.309 178.476 247.484C178.651 247.659 178.739 247.881 178.739 248.149ZM187.009 243.555C186.782 243.524 186.612 243.446 186.499 243.323C186.396 243.199 186.344 243.065 186.344 242.92C186.344 242.776 186.401 242.637 186.514 242.503C186.638 242.358 186.819 242.286 187.056 242.286H187.922V239.842C187.974 239.636 188.056 239.481 188.17 239.378C188.283 239.275 188.412 239.223 188.556 239.223C188.69 239.223 188.814 239.27 188.928 239.362C189.051 239.455 189.139 239.6 189.191 239.796V242.286H190.676C190.872 242.338 191.016 242.425 191.109 242.549C191.202 242.663 191.248 242.786 191.248 242.92C191.248 243.065 191.196 243.194 191.093 243.307C190.99 243.421 190.835 243.503 190.629 243.555H189.191C189.18 244.349 189.18 245.169 189.191 246.014C189.201 246.85 189.206 247.664 189.206 248.459C189.206 248.696 189.134 248.876 188.989 249C188.855 249.113 188.716 249.17 188.572 249.17C188.427 249.17 188.293 249.113 188.17 249C188.046 248.897 187.968 248.732 187.937 248.505C187.937 247.701 187.932 246.876 187.922 246.03C187.922 245.184 187.922 244.359 187.922 243.555H187.009ZM191.617 245.21C191.73 244.88 191.87 244.56 192.035 244.251C192.2 243.931 192.395 243.642 192.622 243.385C192.849 243.127 193.107 242.905 193.396 242.719C193.695 242.534 194.025 242.4 194.386 242.317C194.984 242.183 195.505 242.229 195.948 242.456C196.402 242.683 196.763 243.008 197.031 243.431C197.299 243.854 197.475 244.338 197.557 244.885C197.65 245.421 197.629 245.937 197.495 246.432C197.341 247.041 197.067 247.608 196.675 248.134C196.283 248.66 195.788 249.041 195.19 249.278C194.747 249.454 194.319 249.516 193.906 249.464C193.504 249.423 193.138 249.294 192.808 249.077C192.488 248.861 192.215 248.577 191.988 248.227C191.761 247.876 191.607 247.479 191.524 247.035C191.472 246.757 191.452 246.484 191.462 246.215C191.483 245.947 191.519 245.679 191.57 245.411L191.617 245.21ZM192.823 245.566C192.782 245.782 192.751 245.983 192.731 246.169C192.72 246.344 192.731 246.545 192.762 246.772C192.793 247.051 192.88 247.303 193.025 247.53C193.169 247.747 193.344 247.917 193.551 248.041C193.757 248.154 193.984 248.211 194.231 248.211C194.489 248.201 194.747 248.118 195.005 247.964C195.345 247.757 195.613 247.489 195.809 247.159C196.015 246.829 196.17 246.473 196.273 246.092C196.356 245.782 196.371 245.452 196.32 245.102C196.278 244.751 196.175 244.442 196.01 244.173C195.845 243.905 195.623 243.715 195.345 243.601C195.067 243.477 194.737 243.493 194.355 243.648C193.942 243.823 193.618 244.086 193.38 244.436C193.143 244.787 192.958 245.164 192.823 245.566ZM204.845 247.902C204.979 248.087 205.03 248.268 204.999 248.443C204.979 248.608 204.912 248.742 204.798 248.845C204.695 248.938 204.556 248.985 204.381 248.985C204.216 248.974 204.051 248.887 203.886 248.722C203.834 248.67 203.788 248.618 203.746 248.567C203.705 248.505 203.674 248.448 203.653 248.397C203.344 248.665 202.983 248.871 202.571 249.015C202.168 249.17 201.756 249.248 201.333 249.248C200.921 249.248 200.523 249.165 200.142 249C199.76 248.825 199.441 248.557 199.183 248.196C198.987 247.917 198.842 247.608 198.75 247.267C198.667 246.917 198.626 246.566 198.626 246.215C198.626 245.855 198.667 245.504 198.75 245.164C198.842 244.813 198.956 244.488 199.09 244.189C199.214 243.921 199.389 243.678 199.616 243.462C199.853 243.245 200.101 243.07 200.358 242.936C200.596 242.802 200.859 242.694 201.147 242.611C201.446 242.518 201.73 242.467 201.998 242.456C202.246 242.456 202.493 242.462 202.741 242.472C202.988 242.482 203.231 242.523 203.468 242.596C203.458 241.853 203.447 241.229 203.437 240.724C203.437 240.208 203.437 239.863 203.437 239.687C203.478 239.491 203.556 239.342 203.669 239.239C203.793 239.136 203.916 239.084 204.04 239.084C204.174 239.074 204.303 239.115 204.427 239.208C204.551 239.301 204.644 239.445 204.705 239.641V247.731C204.726 247.762 204.747 247.793 204.767 247.824C204.798 247.845 204.824 247.871 204.845 247.902ZM203.483 246.788V246.571C203.483 246.19 203.483 245.772 203.483 245.318C203.483 244.854 203.478 244.416 203.468 244.003L203.375 243.957C203.344 243.936 203.313 243.916 203.282 243.895C203.262 243.874 203.236 243.854 203.205 243.833C202.895 243.74 202.571 243.699 202.23 243.709C201.89 243.72 201.57 243.787 201.271 243.91C200.972 244.024 200.704 244.194 200.467 244.421C200.24 244.648 200.08 244.937 199.987 245.287C199.905 245.607 199.874 245.885 199.894 246.123C199.915 246.36 199.946 246.638 199.987 246.958C200.028 247.041 200.065 247.123 200.095 247.206C200.137 247.288 200.178 247.371 200.219 247.453L200.529 247.762C200.652 247.804 200.771 247.855 200.884 247.917C201.297 247.958 201.673 247.938 202.014 247.855C202.364 247.773 202.7 247.592 203.019 247.314C203.03 247.293 203.05 247.267 203.081 247.236C203.122 247.195 203.164 247.154 203.205 247.113C203.246 247.071 203.282 247.035 203.313 247.004C203.354 246.963 203.38 246.937 203.391 246.927L203.483 246.788ZM212.686 248.335C212.686 248.345 212.681 248.35 212.67 248.35C212.732 248.495 212.748 248.629 212.717 248.752C212.686 248.876 212.624 248.974 212.531 249.046C212.449 249.129 212.335 249.18 212.191 249.201C212.057 249.222 211.907 249.191 211.742 249.108C211.649 249.015 211.562 248.917 211.479 248.814C211.397 248.701 211.324 248.587 211.263 248.474C211.056 248.649 210.835 248.814 210.597 248.969C210.36 249.113 210.123 249.191 209.886 249.201C209.473 249.222 209.066 249.227 208.664 249.217C208.261 249.206 207.88 249.072 207.519 248.814C207.22 248.598 206.988 248.34 206.823 248.041C206.668 247.742 206.565 247.427 206.513 247.097C206.472 246.757 206.477 246.411 206.529 246.061C206.58 245.71 206.668 245.375 206.792 245.055C206.843 244.911 206.91 244.772 206.993 244.638C207.075 244.503 207.158 244.364 207.24 244.22C207.354 244.014 207.483 243.823 207.627 243.648C207.772 243.462 207.937 243.302 208.122 243.168C208.256 243.075 208.385 242.982 208.509 242.89C208.643 242.797 208.777 242.709 208.911 242.627C209.004 242.565 209.143 242.503 209.329 242.441C209.525 242.369 209.731 242.312 209.948 242.271C210.175 242.219 210.396 242.193 210.613 242.193C210.84 242.193 211.031 242.224 211.185 242.286C211.33 242.266 211.469 242.302 211.603 242.394C211.747 242.487 211.856 242.637 211.928 242.843C211.928 243.544 211.923 244.251 211.912 244.962C211.902 245.674 211.948 246.38 212.052 247.082C212.062 247.175 212.098 247.288 212.16 247.422C212.232 247.546 212.304 247.67 212.376 247.793C212.459 247.917 212.531 248.031 212.593 248.134C212.655 248.237 212.686 248.304 212.686 248.335ZM210.721 247.267C210.742 247.257 210.757 247.247 210.768 247.236C210.778 247.226 210.793 247.216 210.814 247.206C210.68 246.587 210.613 245.947 210.613 245.287C210.623 244.617 210.633 244.003 210.644 243.446C210.551 243.446 210.448 243.457 210.334 243.477C210.221 243.498 210.108 243.529 209.994 243.57C209.891 243.601 209.793 243.632 209.7 243.663C209.618 243.694 209.556 243.72 209.515 243.74C209.205 243.885 208.942 244.076 208.726 244.313C208.509 244.54 208.329 244.797 208.184 245.086C208.05 245.365 207.947 245.664 207.875 245.983C207.803 246.293 207.766 246.607 207.766 246.927C207.787 247.01 207.813 247.092 207.844 247.175C207.875 247.257 207.901 247.34 207.921 247.422C207.973 247.474 208.024 247.53 208.076 247.592C208.138 247.654 208.2 247.711 208.261 247.762C208.354 247.804 208.447 247.84 208.54 247.871C208.633 247.902 208.726 247.933 208.818 247.964C208.994 247.964 209.164 247.969 209.329 247.979C209.494 247.989 209.659 247.969 209.824 247.917C209.979 247.814 210.128 247.711 210.273 247.608C210.427 247.505 210.577 247.391 210.721 247.267ZM219.122 242.379C219.205 242.235 219.298 242.131 219.401 242.07C219.504 242.008 219.612 241.977 219.726 241.977C219.901 241.977 220.045 242.044 220.159 242.178C220.272 242.312 220.329 242.498 220.329 242.735C220.112 243.57 219.839 244.38 219.509 245.164C219.179 245.947 218.818 246.716 218.426 247.469C218.034 248.221 217.622 248.964 217.189 249.696C216.756 250.439 216.333 251.186 215.92 251.939C215.838 252.053 215.745 252.13 215.642 252.171C215.539 252.223 215.441 252.249 215.348 252.249C215.193 252.249 215.059 252.192 214.946 252.078C214.832 251.965 214.775 251.805 214.775 251.599C214.775 251.568 214.775 251.532 214.775 251.491C214.775 251.46 214.781 251.424 214.791 251.382C215.131 250.753 215.482 250.134 215.843 249.526C216.204 248.917 216.554 248.304 216.895 247.685C216.482 247.355 216.111 247.02 215.781 246.68C215.451 246.329 215.152 245.963 214.884 245.581C214.626 245.189 214.399 244.772 214.203 244.328C214.007 243.874 213.837 243.385 213.693 242.859C213.693 242.59 213.744 242.389 213.847 242.255C213.961 242.111 214.11 242.039 214.296 242.039C214.43 242.039 214.554 242.085 214.667 242.178C214.791 242.26 214.879 242.4 214.93 242.596C215.044 243.029 215.178 243.431 215.332 243.802C215.497 244.163 215.683 244.503 215.889 244.823C216.106 245.133 216.343 245.432 216.601 245.72C216.869 245.999 217.163 246.272 217.483 246.54C217.823 245.87 218.132 245.194 218.411 244.514C218.7 243.833 218.937 243.122 219.122 242.379Z" fill="#111111"/>
<circle cx="343" cy="230" r="10" fill="#C4C4C4"/>
<path d="M343.867 233.824C344.063 233.876 344.208 233.964 344.301 234.087C344.393 234.201 344.44 234.324 344.44 234.459C344.44 234.603 344.388 234.732 344.285 234.845C344.182 234.959 344.027 235.041 343.821 235.093H341.439C341.212 235.072 341.042 235 340.928 234.876C340.825 234.742 340.773 234.603 340.773 234.459C340.773 234.314 340.83 234.175 340.944 234.041C341.067 233.897 341.248 233.824 341.485 233.824H341.934V227.435C341.789 227.538 341.635 227.59 341.47 227.59C341.294 227.59 341.15 227.533 341.036 227.42C340.933 227.296 340.882 227.157 340.882 227.002C340.882 226.909 340.902 226.811 340.944 226.708C340.995 226.605 341.073 226.512 341.176 226.43L342.243 225.734C342.377 225.682 342.491 225.656 342.583 225.656C342.903 225.656 343.109 225.837 343.202 226.198V233.824H343.867Z" fill="black"/>
<defs>
<clipPath id="clip0">
<rect width="57" height="24" fill="white" transform="translate(106 209)"/>
</clipPath>
</defs>
</svg>
