<?xml version="1.0" encoding="utf-8"?>
<svg version="1.1" xmlns:xlink="http://www.w3.org/1999/xlink" width="59px" height="27px" xmlns="http://www.w3.org/2000/svg">
  <g transform="matrix(1 0 0 1 -98 -1961 )">
    <path d="M 46.1682511951694 18.4983558935669  C 46.1682511951694 18.4983558935669  48.7692970484932 18.4983558935669  48.7692970484932 18.4983558935669  C 55.0606139065349 18.4983558935669  58.7806451612887 15.3055617195539  58.7806451612887 9.95787859837424  C 58.7806451612887 4.00524500211827  55.1657667900035 1.27110609025431  47.4697661301652 1.27110609025431  C 47.4697661301652 1.27110609025431  39.4146584532027 1.27110609025431  39 1.27110609025431  L 39 20.3527465655325  L 32.3793353442124 1.26517520324387  L 25.4035327352976 1.26517520324387  C 25.4035327352976 1.26517520324387  19.3979142776188 17.2232151862986  19.3979142776188 17.2232151862986  C 18.7550928767996 13.2000968308084  14.5886578714744 11.8102923080028  11.2951902005989 10.7684331564826  C 9.12467596448914 10.0745193762482  6.82123261154629 9.05242984809684  6.8509928615822 7.92160739141832  C 6.86884901160738 6.99638901777257  8.08703524649536 6.14234128825319  10.4976154995784 6.26491295313804  C 12.1185571183159 6.34992233362254  13.5470491201413 6.48040184785464  16.3921290237777 7.8464828226181  C 16.3921290237777 7.8464828226181  19.1895925273529 2.99304028565098  19.1895925273529 2.99304028565098  C 16.5845786406899 1.67836033164554  13.0014445361121 0.846059187831543  10.0591478156857 0.842105263157919  C 6.63076701130558 0.842105263157919  3.75592685762604 1.94920417179401  1.98618398869803 3.77394040870672  C 0.760695393462811 5.02750564436246  0.0702212515971041 6.70539363676949  0.0597038029045507 8.45538722236802  C 0.0140714195113105 10.9167053317465  0.920767037336191 12.666316999859  2.82542303977243 14.050190635654  C 4.43247654182414 15.224506263743  6.48791781111868 15.9856367634304  8.30130904677208 16.5451171047589  C 10.5372958329608 17.2350769603197  12.3625911686286 17.8360735107221  12.3407669852677 19.1151681426641  C 12.3281588020072 19.5867032554413  12.1392331245297 20.0365385053919  11.8110345345885 20.3764701135747  C 11.253525850545 20.9497891912611  10.396430649449 21.1672550483147  9.21395671460414 21.187024671683  C 6.93432156169001 21.2344717677677  5.24592337619833 20.8786185471345  2.54567668941309 19.2911177906437  C 2.54567668941309 19.2911177906437  0.0597038029045507 24.2157309717377  0.0597038029045507 24.2157309717377  C 2.84271940594772 25.7897344406445  5.98613687363468 26.6218210161685  9.18618048123608 26.6315789473686  C 9.18618048123608 26.6315789473686  9.60480799843572 26.6315789473686  9.60480799843572 26.6315789473686  C 12.4300477353827 26.5821548889473  14.7116669049647 25.7795081801862  16.5329942072931 24.3165560509169  C 16.6381470907581 24.235500595106  16.7313958742125 24.1504912146215  16.8286126910025 24.0635048718002  C 16.8286126910025 24.0635048718002  16.0111978232926 26.2085090072826  16.0111978232926 26.2085090072826  L 23.3183312159636 26.2085090072826  C 23.3183312159636 26.2085090072826  24.5464375342017 22.4878658893306  24.5464375342017 22.4878658893306  C 25.9334545149723 22.9463690994482  27.3864664241337 23.1754332338205  28.8477856730315 23.1659639708703  C 30.2723657677961 23.1729191745135  31.6891433880228 22.9560876293715  33.045964945064 22.5234512113939  C 33.045964945064 22.5234512113939  34.236374946584 26.2085090072826  34.236374946584 26  L 46.1682511951694 26  L 46.1682511951694 18.4983558935669  Z M 28.8299295230099 9.13348530390704  C 28.8299295230099 9.13348530390704  31.3833589762762 17.181698977224  31.3833589762762 17.181698977224  C 30.5709737669167 17.4649195939933  29.7163940284408 17.6092939280115  28.8557217397101 17.6087228419838  C 27.9757930998639 17.6140198934115  27.1021023107278 17.4613327989373  26.2765000697473 17.1579754291818  C 26.2765000697473 17.1579754291818  28.8299295230099 9.13348530390704  28.8299295230099 9.13348530390704  Z M 52.1956938362055 9.71075830626819  C 52.1956938362055 12.2017308506993  50.3088939837944 12.9865848984289  47.9419620974368 12.9865848984289  L 46.1682511951694 12.9964697101132  L 46.1682511951694 6.51994109459201  C 46.1682511951694 6.51994109459201  47.9419620974368 6.51994109459201  47.9419620974368 6.51994109459201  C 50.3088939837944 6.51994109459201  52.1956938362055 7.31072602933205  52.1956938362055 9.71075830626819  Z " fill-rule="nonzero" fill="#ffffff" stroke="none" transform="matrix(1 0 0 1 98 1961 )" />
  </g>
</svg>