<svg xmlns="http://www.w3.org/2000/svg" width="155" height="108" viewBox="0 0 155 108">
    <path fill="#2ED3E9" fill-opacity=".25" fill-rule="evenodd" d="M155 65.345v15.538a4.5 4.5 0 0 1-1.97 3.721l-33.273 22.623a4.5 4.5 0 0 1-7.03-3.721V75.183a4.5 4.5 0 0 1 1.97-3.722l8.996-6.116H89.045a4.5 4.5 0 0 1-4.5-4.5V4.5a4.5 4.5 0 0 1 4.5-4.5H150.5a4.5 4.5 0 0 1 4.5 4.5v60.845zm-84.545 0v15.538a4.5 4.5 0 0 1-1.97 3.721l-33.273 22.623a4.5 4.5 0 0 1-7.03-3.721V75.183a4.5 4.5 0 0 1 1.97-3.722l8.996-6.116H4.5a4.5 4.5 0 0 1-4.5-4.5V4.5A4.5 4.5 0 0 1 4.5 0h61.455a4.5 4.5 0 0 1 4.5 4.5v60.845z"/>
</svg>
