<svg width="620" height="360" viewBox="0 0 620 360" fill="none" xmlns="http://www.w3.org/2000/svg">
<rect width="620" height="360" fill="#C9C9C9" fill-opacity="0.16"/>
<path d="M132.511 216.749C129.898 217.596 127.137 218.094 124.278 218.094C109.783 218.094 98 206.19 98 191.547C98 176.904 109.783 165 124.278 165C127.137 165 129.898 165.498 132.511 166.345C129.947 167.889 127.63 169.781 125.658 171.973C125.412 171.973 125.214 171.923 124.968 171.923C124.771 171.923 124.524 171.923 124.327 171.923C123.982 171.923 123.637 171.923 123.292 171.923C113.037 172.471 104.902 181.038 104.902 191.497C104.902 201.956 113.086 210.573 123.292 211.071C123.637 211.071 123.982 211.071 124.327 211.071C124.524 211.071 124.771 211.071 124.968 211.071C125.214 211.071 125.412 211.021 125.658 211.021V211.021C127.63 213.312 129.898 215.205 132.511 216.749Z" fill="#FFC7C8"/>
<path fill-rule="evenodd" clip-rule="evenodd" d="M129.02 172.471C133.724 167.839 140.094 165 147.149 165C161.554 165 173.265 176.904 173.216 191.547C173.216 206.19 161.505 218.094 147.1 218.094C140.045 218.094 133.675 215.255 128.971 210.623C131.372 210.025 133.626 208.979 135.586 207.535C135.684 207.485 135.831 207.336 135.831 207.336C140.633 203.75 143.719 197.972 143.719 191.497C143.719 184.972 140.584 179.245 135.782 175.659H135.831C133.822 174.164 131.519 173.069 129.02 172.471ZM142.593 210.623C144.062 210.971 145.581 211.171 147.149 211.171C157.782 211.171 166.454 202.355 166.454 191.597C166.454 180.789 157.782 171.973 147.149 171.973C145.581 171.973 144.062 172.172 142.593 172.521C147.492 177.352 150.53 184.076 150.53 191.547C150.53 199.018 147.492 205.791 142.593 210.623Z" fill="#BCBFC1"/>
<path d="M264.009 210.866H246.136V169.665L250.314 168.469V167.792H235.032V168.469L239.209 169.665V210.606L235.032 211.646V212.166H268.028V204.415H267.023L264.009 210.866Z" fill="#4A4A4A"/>
<path fill-rule="evenodd" clip-rule="evenodd" d="M225.285 179.971C225.285 185.596 221.195 189.346 214.954 190.544C222.296 191.742 227.068 195.7 227.068 201.742C227.068 208.929 220.041 213.304 209.972 213.304H189.521V212.783L193.664 211.794V170.44L189.521 169.503V168.93H209.972C218.94 168.93 225.285 173.045 225.285 179.971ZM200.533 212.002H208.661C215.321 212.002 220.041 208.512 220.041 201.638C220.041 194.659 215.321 191.221 208.661 191.221H203.47V189.971H208.661C214.22 189.971 218.258 186.69 218.258 180.076C218.258 173.565 214.22 170.18 208.661 170.18H200.533V178.149V189.971V191.221V199.658V212.002Z" fill="#4A4A4A"/>
<path d="M481.785 167.792H463.729V168.365L467.887 169.303V210.343L463.729 211.541V212.166H481.206V211.541L474.784 210.343V198.573V193.156V191.906V177.063V169.094H480.996C487.418 169.094 491.946 172.896 491.946 180.5C491.946 188.104 487.418 191.906 480.996 191.906H477.732V193.156H481.838C491.946 193.156 499 188.417 499 180.5C499 172.584 491.946 167.792 481.785 167.792Z" fill="#4A4A4A"/>
<path d="M393.082 168.469L397.153 169.665V188.913H374.425V169.665L378.548 168.469V167.792H363.603V168.469L367.674 169.665V210.293L363.603 211.49V212.166H378.548V211.49L374.425 210.293V190.213H397.153V210.293L393.082 211.49V212.166H407.976V211.49L403.853 210.293V169.665L407.976 168.469V167.792H393.082V168.469Z" fill="#4A4A4A"/>
<path d="M448.256 168.786L452.105 169.937V178.307H452.158V200.017V200.017C451.998 204.725 449.378 208.805 445.476 211.055C450.661 208.334 453.923 203.208 454.137 196.25V169.937L458.039 168.786V168.211H448.256V168.786V168.786Z" fill="#4A4A4A"/>
<path d="M425.106 200.017V200.017V197.663C425.053 197.192 425.053 196.721 425.053 196.251V170.094L429.277 168.891V168.264H413.772V168.891L417.996 170.094V196.251C417.996 206.713 425.374 213.2 435.959 213.2C437.67 213.2 439.274 213.043 440.771 212.677C440.076 212.781 439.328 212.834 438.632 212.834C431.308 212.886 425.32 207.132 425.106 200.017Z" fill="#4A4A4A"/>
<path d="M338.523 186.48C332.327 184.59 328.162 183.278 328.162 177.714C328.162 172.412 332.067 168.737 338.315 168.737C342.116 168.737 348.312 170.312 350.134 178.606H351.28V169.577L350.655 168.947L347.999 170.784C345.084 168.842 341.647 167.792 337.378 167.792C327.328 167.792 322.799 173.409 322.799 180.443C322.799 189.21 329.828 191.152 336.961 193.252C343.99 195.299 348.051 196.611 348.051 202.595C348.051 208.737 343.834 212.307 336.857 212.307C332.535 212.307 325.766 210.837 323.788 202.49H322.642V211.572L323.267 212.202L325.975 210.312C329.203 212.307 332.9 213.304 337.43 213.304C348.572 213.304 353.362 207.635 353.362 200.338C353.414 191.414 345.969 188.842 338.523 186.48Z" fill="#4A4A4A"/>
<path d="M282.746 200.017V200.017V197.663C282.693 197.192 282.693 196.721 282.693 196.25V170.094L286.867 168.891V168.263H271.547V168.891L275.72 170.094V196.25C275.72 206.713 283.01 213.2 293.47 213.2C295.16 213.2 296.745 213.043 298.224 212.676C297.538 212.781 296.798 212.833 296.111 212.833C288.874 212.886 282.958 207.131 282.746 200.017Z" fill="#4A4A4A"/>
<path d="M305.673 168.786L309.476 169.937V178.307H309.529V200.017V200.017C309.371 204.725 306.782 208.805 302.926 211.055C308.05 208.334 311.272 203.208 311.484 196.25V169.937L315.34 168.786V168.211H305.673V168.786Z" fill="#4A4A4A"/>
</svg>
