<svg width="400" height="300" viewBox="0 0 400 300" fill="none" xmlns="http://www.w3.org/2000/svg">
<rect width="400" height="300" fill="white"/>
<g clip-path="url(#clip0)">
<path d="M65.7715 165.105C65.6502 165.103 65.5332 165.151 65.4474 165.236C65.3616 165.322 65.3144 165.439 65.3165 165.56C65.3165 165.812 65.5202 166.015 65.7715 166.015C65.7715 166.015 97.6455 166.147 123.142 167.126C139.021 167.735 168.072 169.239 178.808 169.239C186.982 169.239 204.003 169.872 204.003 165.46C204.003 161.049 186.982 161.689 178.792 161.689C168.057 161.689 139.005 163.185 123.126 163.802C97.6455 164.782 65.7715 165.105 65.7715 165.105Z" fill="#F69320"/>
<path d="M170.547 167.072C169.895 167.072 169.307 166.678 169.058 166.075C168.809 165.472 168.948 164.778 169.41 164.318C169.873 163.857 170.568 163.721 171.17 163.973C171.772 164.225 172.162 164.815 172.159 165.468C172.151 166.353 171.433 167.068 170.547 167.072Z" fill="white"/>
<path d="M165.219 166.91C164.632 166.91 164.103 166.556 163.879 166.013C163.655 165.47 163.781 164.846 164.197 164.432C164.613 164.018 165.238 163.896 165.78 164.123C166.321 164.35 166.672 164.881 166.669 165.468C166.661 166.264 166.015 166.906 165.219 166.91Z" fill="white"/>
<path d="M159.882 166.756C159.357 166.756 158.884 166.439 158.684 165.954C158.484 165.469 158.596 164.911 158.968 164.541C159.34 164.171 159.899 164.062 160.383 164.265C160.867 164.468 161.18 164.943 161.177 165.468C161.173 166.18 160.594 166.756 159.882 166.756Z" fill="white"/>
<path d="M154.553 166.594C154.127 166.629 153.718 166.422 153.494 166.058C153.27 165.694 153.27 165.235 153.494 164.87C153.718 164.506 154.127 164.299 154.553 164.334C155.141 164.383 155.594 164.874 155.594 165.464C155.594 166.054 155.141 166.545 154.553 166.594Z" fill="white"/>
<path d="M149.216 166.432C149.753 166.432 150.188 165.997 150.188 165.46C150.188 164.924 149.753 164.488 149.216 164.488C148.679 164.488 148.244 164.924 148.244 165.46C148.244 165.997 148.679 166.432 149.216 166.432Z" fill="white"/>
<path d="M143.887 166.239C143.467 166.218 143.141 165.864 143.155 165.443C143.169 165.023 143.517 164.691 143.938 164.698C144.358 164.704 144.696 165.047 144.697 165.468C144.697 165.679 144.61 165.882 144.457 166.027C144.304 166.173 144.098 166.25 143.887 166.239Z" fill="white"/>
<path d="M139.205 165.468C139.209 165.734 139.05 165.976 138.804 166.08C138.559 166.183 138.275 166.128 138.087 165.939C137.898 165.751 137.842 165.467 137.946 165.221C138.049 164.976 138.291 164.817 138.558 164.82C138.914 164.824 139.201 165.112 139.205 165.468Z" fill="white"/>
<path d="M174.111 165.468C174.108 166.187 174.539 166.836 175.203 167.113C175.866 167.389 176.631 167.238 177.139 166.73C177.648 166.222 177.799 165.457 177.522 164.793C177.246 164.13 176.596 163.699 175.877 163.702C174.902 163.702 174.111 164.493 174.111 165.468Z" fill="white"/>
<path d="M181.49 167.111C182.158 167.111 182.761 166.708 183.016 166.09C183.271 165.472 183.128 164.762 182.654 164.29C182.181 163.819 181.47 163.68 180.853 163.938C180.237 164.196 179.837 164.8 179.84 165.468C179.844 166.376 180.582 167.111 181.49 167.111Z" fill="white"/>
<path d="M187.097 167.01C187.949 167.01 188.64 166.32 188.64 165.468C188.64 164.616 187.949 163.926 187.097 163.926C186.245 163.926 185.555 164.616 185.555 165.468C185.555 166.32 186.245 167.01 187.097 167.01Z" fill="white"/>
<path d="M192.674 166.856C193.242 166.869 193.76 166.536 193.986 166.014C194.211 165.493 194.098 164.887 193.7 164.482C193.301 164.077 192.697 163.953 192.172 164.17C191.647 164.387 191.306 164.9 191.309 165.468C191.309 166.226 191.916 166.843 192.674 166.856Z" fill="white"/>
<path d="M197.047 165.468C197.044 165.984 197.353 166.451 197.829 166.65C198.305 166.849 198.854 166.74 199.219 166.375C199.584 166.01 199.693 165.461 199.494 164.985C199.295 164.509 198.828 164.2 198.312 164.203C197.613 164.203 197.047 164.769 197.047 165.468Z" fill="white"/>
<path d="M211.028 135.568H210.256V160.725L207.295 161.442V169.478C232.899 171.483 290.986 190.224 328.128 165.345C305.832 150.869 273.372 151.995 234.688 156.09C227.747 156.815 223.12 156.491 220.22 150.692C217.907 145.979 214.19 138.792 212.832 136.231C212.423 135.391 211.729 135.568 211.028 135.568Z" fill="url(#paint0_linear)"/>
<path d="M208.977 162.275C211.529 162.105 214.375 161.789 217.552 161.373C244.182 157.871 290.246 147.591 322.845 163.478C283.653 159.283 233.023 163.586 208.984 164.095" fill="url(#paint1_linear)"/>
<path d="M274.831 171.915L277.414 166.239L250.214 165.537L247.9 170.604C235.923 169.779 225.011 168.761 216.188 168.121C214.985 167.982 214.869 166.224 215.185 165.26C216.18 162.229 218.031 161.404 218.988 161.157L221.918 155.219L210.35 155.272V160.671L207.381 161.388V169.478C231.419 171.36 284.062 187.987 321.15 169.478C306.412 171.753 290.386 172.255 274.831 171.915Z" fill="url(#paint2_linear)"/>
<path d="M326.261 164.442C325.918 164.41 325.586 164.576 325.404 164.869C325.222 165.163 325.222 165.534 325.404 165.827C325.586 166.121 325.918 166.286 326.261 166.254L343.953 165.684C344.137 165.68 344.285 165.529 344.285 165.344C344.285 165.257 344.25 165.172 344.187 165.11C344.125 165.048 344.041 165.013 343.953 165.013L326.261 164.442Z" fill="url(#paint3_linear)"/>
<path d="M316.151 159.36C310.973 157.449 305.622 156.047 300.172 155.172L301.012 159.653C301.012 159.653 308.802 160.763 311.771 161.134C313.398 161.334 315.017 160.324 316.151 159.36Z" fill="black"/>
<path d="M250.137 165.56C270.589 163.455 277.337 160.995 277.337 166.262C277.337 169.509 259.245 168.19 250.137 166.74V165.56Z" fill="url(#paint4_linear)"/>
<path d="M210.266 154.625C219.019 153.437 221.911 152.049 221.911 155.026C221.911 156.861 214.199 156.113 210.266 155.296V154.625Z" fill="url(#paint5_linear)"/>
<path d="M250.137 165.969V166.74C259.245 168.19 277.337 169.509 277.337 166.262C277.35 166.07 277.35 165.876 277.337 165.684C276.574 168.676 259.052 167.388 250.137 165.969Z" fill="#DD6026"/>
<path d="M210.266 154.717V155.296C214.168 156.113 221.911 156.838 221.911 155.026C221.911 154.879 221.911 154.748 221.911 154.625C221.394 156.213 214.037 155.512 210.266 154.717Z" fill="#DD6026"/>
<path d="M313.853 160.841C314.238 160.681 314.609 160.491 314.963 160.27C310.231 158.645 305.371 157.419 300.434 156.607L300.642 157.756C305.113 158.468 309.528 159.499 313.853 160.841Z" fill="#756653"/>
<path d="M244.546 164.635C244.529 167.136 242.489 169.151 239.988 169.139C237.487 169.126 235.468 167.09 235.477 164.589C235.485 162.087 237.517 160.065 240.019 160.069C241.226 160.069 242.384 160.552 243.234 161.409C244.084 162.266 244.556 163.428 244.546 164.635Z" fill="black"/>
<path d="M240.018 161.08L240.813 163.54H243.396L241.306 165.059L242.108 167.512L240.018 165.992L237.928 167.512L238.723 165.059L236.633 163.54H239.216L240.018 161.08Z" fill="white"/>
<path d="M85.3518 147.206L86.7014 149.928L89.6937 150.36L87.5266 152.473L88.0433 155.465L85.3595 154.054L82.6757 155.465L83.1847 152.473L81.0176 150.36L84.0176 149.928L85.3518 147.206Z" fill="#9AD9E7"/>
<path d="M157.477 146.82L158.819 149.542L161.811 149.974L159.644 152.087L160.16 155.08L157.477 153.668L154.793 155.08L155.31 152.087L153.135 149.974L156.135 149.542L157.477 146.82Z" fill="#9AD9E7"/>
<path d="M107.933 171.051L108.974 173.157L111.295 173.496L109.614 175.139L110.015 177.452L107.933 176.365L105.851 177.452L106.252 175.139L104.57 173.496L106.892 173.157L107.933 171.051Z" fill="#9AD9E7"/>
<path d="M69.1028 103C79.9923 103 88.2134 111.283 88.2134 121.848C88.2134 132.73 79.9923 141.221 69.1028 141.221C58.2134 141.221 50 132.73 50 121.848C50 111.283 58.2211 103 69.1028 103ZM69.1028 134.866C75.7738 134.866 81.1337 129.244 81.1337 121.848C81.1337 114.769 75.7738 109.355 69.1028 109.355C62.4319 109.355 57.0797 114.753 57.0797 121.848C57.0797 129.244 62.4781 134.866 69.1028 134.866Z" fill="#343433"/>
<path d="M90.8741 110.396C90.9168 110.084 90.8128 109.77 90.5926 109.546C90.3724 109.321 90.0607 109.211 89.7482 109.247H87.6582V103.625H93.959C96.4114 103.625 97.5065 104.72 97.5065 107.165V114.877C97.5091 115.626 97.4731 116.375 97.3986 117.121H97.5065C97.5065 117.121 99.8201 113.419 105.465 113.419C112.653 113.419 117.234 119.095 117.234 127.301C117.234 135.738 112.082 141.183 105.057 141.183C101.97 141.31 99.0149 139.925 97.1363 137.473H97.0438C97.1115 138.062 97.1424 138.654 97.1363 139.247V140.604H90.8741V110.396ZM103.908 135.645C107.501 135.645 110.571 132.684 110.571 127.424C110.571 122.373 107.864 119.087 103.962 119.087C100.522 119.087 97.2983 121.586 97.2983 127.47C97.2983 131.589 99.4808 135.645 103.908 135.645Z" fill="#343433"/>
<path d="M115.622 145.748C117.504 145.748 120.936 145.177 120.936 140.851V120.8C120.977 120.486 120.87 120.171 120.646 119.948C120.423 119.724 120.108 119.617 119.794 119.658H117.712V114.028H124.036C126.535 114.028 127.576 115.123 127.576 117.568V141.375C127.576 150.275 120.126 151.401 116.486 151.401C115.822 151.408 115.159 151.357 114.504 151.247V145.64C114.88 145.715 115.262 145.751 115.645 145.748H115.622ZM121.198 103.625H126.974V109.717H121.198V103.625Z" fill="#343433"/>
<path d="M143.594 113.411C151.198 113.411 155.363 118.987 155.363 126.013C155.363 126.784 155.201 128.465 155.201 128.465H136.877C137.393 133.147 140.833 135.599 144.843 135.599C147.59 135.486 150.215 134.438 152.285 132.63L155.046 137.211C152.095 139.802 148.3 141.228 144.373 141.221C135.573 141.221 130.105 134.866 130.105 127.339C130.105 119.165 135.627 113.458 143.594 113.458V113.411ZM148.591 123.923C148.483 120.753 146.278 118.563 143.594 118.563C140.208 118.563 137.81 120.591 137.085 123.961L148.591 123.923Z" fill="#343433"/>
<path d="M171.026 113.411C174.457 113.411 180.658 114.823 180.658 119.404V122.527H174.828V121.069C174.828 119.612 172.637 118.987 171.026 118.987C166.445 118.987 163.159 122.473 163.159 127.262C163.159 132.661 167.17 135.437 171.442 135.437C175.969 135.437 179.301 131.843 179.301 131.843L182.062 136.47C179.163 139.558 175.106 141.294 170.871 141.26C162.118 141.26 156.496 135.09 156.496 127.378C156.496 119.882 161.895 113.496 171.026 113.496" fill="#343433"/>
<path d="M184.699 119.296H181.26V114.036H184.854V106.802H191.309V114.036H197.347V119.296H191.309V129.992C191.309 134.365 194.748 134.99 196.568 134.99C196.972 134.995 197.374 134.961 197.771 134.889V140.666C197.098 140.773 196.417 140.824 195.735 140.82C192.041 140.82 184.699 139.733 184.699 130.794V119.296Z" fill="#343433"/>
<path d="M205.785 108.306H212.664C216.52 108.306 218.834 110.704 218.834 114.823C218.834 118.933 216.52 121.486 212.533 121.486H205.785V108.306ZM197.193 103.833V108.306H200.579V140.596H205.785V125.943H210.574C212.61 125.943 213.281 126.206 214.222 127.925L219.219 137.82C220.422 140.211 221.463 140.581 224.325 140.581H226.877V136.116H226.199C224.949 136.116 224.116 136.008 223.592 134.92L219.157 126.136C218.817 125.442 218.281 124.863 217.615 124.47V124.362C220.222 123.792 224.224 120.769 224.224 114.63C224.224 107.913 219.697 103.833 213.242 103.833H197.201H197.193Z" fill="url(#paint6_linear)"/>
<path d="M231.234 127.37C231.234 121.902 235.298 118 240.241 118C245.239 118 249.303 121.902 249.303 127.37C249.303 132.884 245.239 136.848 240.241 136.848C235.298 136.848 231.234 132.884 231.234 127.37ZM226.082 127.37C226.082 135.391 232.383 141.252 240.241 141.252C248.108 141.252 254.455 135.422 254.455 127.37C254.455 119.404 248.108 113.62 240.241 113.62C232.383 113.62 226.082 119.404 226.082 127.37Z" fill="url(#paint7_linear)"/>
<path d="M255.559 127.424C255.559 135.337 261.343 141.221 269.618 141.221C273.672 141.275 277.565 139.63 280.353 136.686L278.163 133.077C276.017 135.311 273.083 136.617 269.988 136.717C265.091 136.717 260.733 133.332 260.733 127.347C260.733 121.779 264.589 117.923 269.741 117.923C271.669 117.923 274.638 118.756 274.638 120.63V122.087H279.219V119.404C279.219 114.923 272.918 113.62 269.741 113.62C261.258 113.62 255.574 119.666 255.574 127.424" fill="url(#paint8_linear)"/>
<path d="M279.318 103.833V108.152H281.462C281.777 108.11 282.094 108.218 282.318 108.444C282.542 108.669 282.647 108.986 282.604 109.301V140.596H287.655V128.203H289.629C290.47 128.203 291.665 128.303 292.236 129.298L297.025 138.144C298.175 140.18 298.953 140.596 301.398 140.596H305.046V136.27H303.434C302.131 136.27 301.606 136.062 301.19 135.229L297.288 128.095C296.401 126.429 295.522 126.121 295.522 126.121V126.013C296.315 125.505 296.988 124.832 297.496 124.039L304.63 114.244H298.845L292.753 122.789C292.058 123.571 291.044 123.992 290 123.931H287.686V106.856C287.686 104.542 286.699 103.841 284.354 103.841H279.349L279.318 103.833Z" fill="url(#paint9_linear)"/>
<path d="M317.455 117.653C320.733 117.653 323.494 119.967 323.625 124.37H309.666C310.476 119.967 313.599 117.653 317.455 117.653ZM304.283 127.447C304.283 135.252 309.951 141.244 318.288 141.244C322.027 141.231 325.633 139.861 328.437 137.388L326.255 133.794C324.128 135.7 321.397 136.792 318.543 136.879C313.854 136.879 309.79 133.702 309.481 128.072H328.692C328.692 128.072 328.846 126.668 328.846 125.99C328.846 119.172 324.89 113.65 317.502 113.65C309.998 113.65 304.275 119.049 304.275 127.455" fill="url(#paint10_linear)"/>
<path d="M332.579 107.01V114.244H329.031V118.308H332.471V130.964C332.471 139.763 339.188 140.805 342.497 140.805C343.087 140.811 343.677 140.775 344.263 140.697V136.224C343.868 136.296 343.468 136.329 343.067 136.324C341.139 136.324 337.499 135.645 337.499 130.386V118.308H343.831V114.244H337.53V107.01H332.579Z" fill="url(#paint11_linear)"/>
<path d="M193.814 188.604L193.444 187.594C194.384 187.138 195.415 186.903 196.46 186.907C198.727 186.907 199.992 188.057 199.992 190.247V195.314H198.843V194.064C198.131 194.996 197.014 195.527 195.843 195.491C194.3 195.491 192.758 194.627 192.758 192.892C192.758 191.157 194.2 190.193 196.305 190.193C197.169 190.186 198.029 190.305 198.858 190.548V190.262C198.858 188.766 197.94 187.995 196.382 187.995C195.491 187.995 194.611 188.204 193.814 188.604ZM193.953 192.846C193.953 193.902 194.917 194.512 196.043 194.512C197.586 194.512 198.819 193.578 198.819 192.267V191.496C198.028 191.262 197.208 191.142 196.382 191.141C194.825 191.087 193.953 191.758 193.953 192.823V192.846Z" fill="#343433"/>
<path d="M280.752 195.422C278.79 195.396 277.098 194.038 276.649 192.128C276.2 190.218 277.109 188.248 278.853 187.35C280.598 186.453 282.729 186.859 284.022 188.334L283.251 189.19C282.643 188.436 281.736 187.985 280.767 187.956C279.954 187.98 279.185 188.331 278.634 188.929C278.082 189.527 277.795 190.321 277.837 191.134C277.806 191.959 278.106 192.761 278.671 193.363C279.237 193.964 280.019 194.314 280.844 194.334C281.813 194.305 282.723 193.861 283.343 193.116L284.114 193.841C283.301 194.862 282.058 195.447 280.752 195.422Z" fill="black"/>
<path d="M289.437 195.422C287.08 195.417 285.172 193.506 285.172 191.149C285.172 188.793 287.08 186.881 289.437 186.877C291.793 186.872 293.708 188.777 293.717 191.134C293.727 192.273 293.28 193.368 292.475 194.174C291.67 194.981 290.576 195.43 289.437 195.422ZM289.437 187.956C288.611 187.959 287.823 188.301 287.258 188.902C286.692 189.503 286.398 190.31 286.444 191.134C286.413 191.961 286.716 192.766 287.284 193.368C287.853 193.97 288.64 194.318 289.467 194.334C290.292 194.331 291.079 193.991 291.646 193.392C292.213 192.793 292.509 191.988 292.467 191.165C292.501 190.335 292.198 189.526 291.627 188.922C291.057 188.318 290.267 187.97 289.437 187.956Z" fill="black"/>
<path d="M304.721 186.884C306.603 186.884 307.76 188.149 307.76 190.17V195.229H306.541V190.455C306.541 188.874 305.77 187.987 304.421 187.987C303.777 187.999 303.168 188.279 302.739 188.759C302.31 189.239 302.101 189.876 302.161 190.517V195.229H300.958V190.424C300.958 188.882 300.187 187.987 298.86 187.987C298.204 188 297.582 188.284 297.144 188.772C296.705 189.261 296.489 189.909 296.547 190.563V195.19H295.328V187.062H296.547V188.442C297.077 187.48 298.093 186.888 299.192 186.9C300.315 186.86 301.351 187.503 301.814 188.527C302.408 187.487 303.524 186.857 304.721 186.884Z" fill="black"/>
<path d="M313.799 195.406C312.524 195.406 311.34 194.747 310.668 193.663V197.766H309.449V187.062H310.668V188.704C311.321 187.592 312.509 186.904 313.799 186.892C315.922 187.179 317.506 188.991 317.506 191.134C317.506 193.276 315.922 195.088 313.799 195.375V195.406ZM313.575 187.972C311.927 188.113 310.661 189.491 310.661 191.145C310.661 192.799 311.927 194.178 313.575 194.319C315.156 194.319 316.459 193.147 316.459 191.149C316.521 190.34 316.247 189.541 315.701 188.94C315.156 188.339 314.387 187.989 313.575 187.972Z" fill="black"/>
<path d="M320.108 188.604L319.746 187.609C320.671 187.16 321.687 186.928 322.715 186.931C324.944 186.931 326.201 188.064 326.201 190.216V195.213H325.029V194.003C324.325 194.92 323.223 195.442 322.067 195.406C320.525 195.406 318.982 194.55 318.982 192.846C318.982 191.141 320.409 190.185 322.484 190.185C323.334 190.18 324.181 190.297 324.998 190.532V190.247C324.998 188.782 324.096 188.018 322.561 188.018C321.71 188.028 320.872 188.228 320.108 188.604ZM320.247 192.784C320.247 193.825 321.196 194.427 322.306 194.427C323.849 194.427 325.044 193.509 325.044 192.213V191.442C324.262 191.215 323.452 191.098 322.638 191.095C321.103 191.087 320.247 191.751 320.247 192.8V192.784Z" fill="black"/>
<path d="M329.052 195.229H327.834V187.062H329.052V188.489C329.611 187.473 330.693 186.856 331.852 186.892C333.834 186.892 334.991 188.219 334.991 190.162V195.237H333.803V190.455C333.803 188.913 332.978 187.987 331.536 187.987C330.862 187.973 330.213 188.242 329.747 188.728C329.281 189.215 329.04 189.875 329.083 190.548L329.052 195.229Z" fill="black"/>
<path d="M340.853 195.499C340.159 197.195 339.365 197.812 338.131 197.812C337.527 197.817 336.932 197.674 336.396 197.396L336.805 196.432C337.197 196.643 337.639 196.747 338.085 196.733C338.817 196.733 339.272 196.355 339.766 195.19L336.049 187.062H337.391L340.368 193.879L342.99 187.062H344.285L340.853 195.499Z" fill="black"/>
<path d="M271.552 194.064C271.516 194.376 271.617 194.688 271.828 194.92C272.039 195.152 272.341 195.282 272.654 195.275C273.353 195.26 273.931 194.728 274.004 194.033C274.042 193.722 273.943 193.41 273.733 193.178C273.523 192.945 273.222 192.816 272.909 192.823C272.208 192.834 271.625 193.367 271.552 194.064ZM271.359 194.064C271.44 193.269 272.102 192.661 272.901 192.645C273.269 192.639 273.622 192.79 273.87 193.062C274.118 193.334 274.237 193.699 274.197 194.064C274.112 194.857 273.452 195.465 272.654 195.483C272.28 195.497 271.918 195.346 271.664 195.07C271.41 194.794 271.29 194.421 271.336 194.049L271.359 194.064ZM272.469 193.224H273.025H273.179C273.35 193.273 273.468 193.431 273.464 193.609C273.468 193.643 273.468 193.676 273.464 193.709C273.428 193.946 273.251 194.136 273.017 194.188L273.248 194.859H273.001L272.786 194.218H272.485L272.361 194.859H272.153L272.277 194.218L272.377 193.717L272.469 193.224ZM272.793 193.424H272.639L272.577 193.74L272.523 194.049H272.878H272.994C273.132 194.013 273.239 193.903 273.271 193.763C273.29 193.704 273.283 193.64 273.253 193.585C273.222 193.531 273.17 193.492 273.109 193.478C273.071 193.47 273.032 193.47 272.994 193.478H272.809L272.793 193.424Z" fill="#343433"/>
<path d="M211.799 186.869C211.948 186.853 212.098 186.853 212.247 186.869L211.784 189.229C211.656 189.213 211.526 189.213 211.398 189.229C209.748 189.229 209.085 190.841 208.853 192.183L208.259 195.321H205.838L207.38 187.039H209.509L209.401 187.602C209.348 187.955 209.222 188.294 209.031 188.596C209.008 188.673 209.044 188.755 209.116 188.789C209.15 188.808 209.191 188.812 209.229 188.801C209.267 188.789 209.298 188.763 209.316 188.728C209.396 188.386 209.557 188.068 209.786 187.802C210.288 187.21 211.024 186.869 211.799 186.869Z" fill="#343433"/>
<path fill-rule="evenodd" clip-rule="evenodd" d="M238.391 186.884C239.113 186.856 239.832 186.998 240.489 187.301L240.142 189.113C239.564 188.816 238.925 188.66 238.275 188.658C237.651 188.658 237.242 188.92 237.242 189.368C237.242 189.684 237.55 189.969 238.221 190.293C239.085 190.725 240.064 191.365 240.064 192.53C240.081 193.237 239.801 193.919 239.293 194.411C238.456 195.135 237.366 195.498 236.262 195.422C235.387 195.437 234.524 195.216 233.764 194.782L234.111 192.954C234.836 193.372 235.65 193.613 236.486 193.656C237.095 193.656 237.496 193.378 237.496 192.931C237.496 192.483 237.211 192.244 236.486 191.89C235.329 191.311 234.751 190.578 234.751 189.715C234.774 188.026 236.224 186.884 238.391 186.884Z" fill="#343433"/>
<path d="M228.103 184.17H230.502L229.252 190.748L232.476 187.031H235.121L231.79 190.787L233.826 195.206H231.234L229.252 190.918L228.42 195.291H225.99L228.096 184.224L228.103 184.17Z" fill="#343433"/>
<path fill-rule="evenodd" clip-rule="evenodd" d="M224.865 186.9C225.436 186.892 226.003 186.989 226.539 187.185L226.168 189.136C225.757 188.921 225.298 188.815 224.834 188.828C224.072 188.85 223.35 189.176 222.83 189.734C222.309 190.292 222.034 191.035 222.065 191.797C222.027 192.238 222.181 192.674 222.486 192.994C222.792 193.314 223.22 193.488 223.662 193.47C224.368 193.469 225.062 193.291 225.682 192.954L225.305 194.959C224.573 195.267 223.784 195.416 222.991 195.399C222.069 195.476 221.158 195.15 220.494 194.505C219.83 193.861 219.478 192.96 219.528 192.036C219.534 190.64 220.104 189.307 221.11 188.339C222.115 187.371 223.47 186.852 224.865 186.9Z" fill="#343433"/>
<path fill-rule="evenodd" clip-rule="evenodd" d="M267.011 190.324H267.049C267.691 190.378 268.331 190.215 268.869 189.861C269.003 189.73 269.076 189.548 269.07 189.36C269.07 188.936 268.715 188.674 268.191 188.674C267.476 188.688 266.828 189.098 266.509 189.738V189.784C266.278 190.216 266.209 190.262 266 190.393C265.973 190.421 265.957 190.458 265.957 190.497C265.957 190.537 265.973 190.574 266 190.602C266.046 190.667 266.135 190.684 266.201 190.64C266.34 190.424 266.378 190.347 267.011 190.324ZM268.491 186.884C270.211 186.884 271.353 187.879 271.353 189.352C271.377 189.979 271.136 190.586 270.689 191.026C269.918 191.743 268.622 192.105 266.625 192.121C266.323 192.156 266.038 191.976 265.939 191.689C265.911 191.661 265.874 191.646 265.835 191.646C265.795 191.646 265.758 191.661 265.73 191.689C265.665 191.734 265.648 191.823 265.692 191.89C265.889 192.023 266.027 192.227 266.077 192.46C266.117 192.622 266.185 192.776 266.278 192.915C266.673 193.343 267.239 193.57 267.82 193.532C268.819 193.54 269.801 193.274 270.658 192.761L270.273 194.782C269.307 195.228 268.252 195.452 267.188 195.437C264.921 195.437 263.625 194.18 263.625 191.974C263.628 190.699 264.078 189.466 264.897 188.488C265.79 187.437 267.112 186.847 268.491 186.884Z" fill="#343433"/>
<path d="M244.089 193.609C245.37 193.609 246.303 191.797 246.303 190.193C246.303 189.807 246.218 188.866 245.323 188.866C244.429 188.866 243.65 189.9 243.349 191.465C243.249 192.005 242.964 193.609 244.089 193.609ZM243.92 187.015L243.843 187.393C243.805 187.744 243.665 188.077 243.442 188.35C243.423 188.383 243.419 188.423 243.431 188.459C243.442 188.496 243.469 188.526 243.503 188.542C243.565 188.542 243.673 188.581 243.712 188.542C243.808 188.205 243.991 187.899 244.244 187.656C244.776 187.175 245.463 186.901 246.179 186.884C247.799 186.884 248.84 188.103 248.84 189.969C248.905 191.987 247.88 193.884 246.156 194.936C245.202 195.564 243.974 195.597 242.987 195.021C242.84 194.905 242.809 194.612 242.786 194.496C242.756 194.422 242.674 194.384 242.597 194.408C242.521 194.432 242.476 194.511 242.493 194.589C242.608 194.736 242.665 194.919 242.655 195.105L242.138 197.859H239.717L241.784 186.969H243.928L243.92 187.015Z" fill="#343433"/>
<path fill-rule="evenodd" clip-rule="evenodd" d="M262.476 186.9C263.047 186.893 263.614 186.99 264.15 187.185L263.78 189.136C263.369 188.92 262.909 188.814 262.445 188.828C261.683 188.85 260.961 189.176 260.441 189.734C259.921 190.292 259.645 191.035 259.677 191.797C259.639 192.238 259.792 192.674 260.097 192.994C260.403 193.314 260.831 193.488 261.273 193.47C261.979 193.469 262.674 193.291 263.294 192.954L262.916 194.959C262.184 195.267 261.396 195.416 260.602 195.399C259.68 195.476 258.77 195.15 258.106 194.505C257.442 193.861 257.089 192.96 257.139 192.036C257.145 190.64 257.716 189.307 258.721 188.339C259.727 187.371 261.081 186.852 262.476 186.9Z" fill="#343433"/>
<path d="M252.612 189.221C251.902 190.009 251.495 191.023 251.463 192.082C251.463 192.938 251.786 193.478 252.342 193.478C253.229 193.478 253.992 192.553 254.254 191.165C254.316 190.856 254.37 190.548 254.416 190.278C254.455 190.051 254.476 189.821 254.478 189.591C254.501 189.352 254.418 189.114 254.25 188.942C254.082 188.769 253.847 188.68 253.607 188.697C253.218 188.732 252.86 188.921 252.612 189.221ZM253.514 195.26L253.583 194.897C253.677 194.564 253.825 194.248 254.023 193.964C254.047 193.885 254.011 193.801 253.938 193.764C253.861 193.729 253.771 193.759 253.73 193.833C253.656 194.189 253.476 194.514 253.213 194.766C252.698 195.22 252.033 195.467 251.347 195.46C249.727 195.46 249.033 194.026 249.033 192.584C249.027 190.974 249.643 189.423 250.753 188.257C251.64 187.36 252.854 186.865 254.116 186.884C254.931 186.816 255.733 187.126 256.29 187.725C256.855 188.6 257.02 189.674 256.745 190.679L255.874 195.306H253.56L253.514 195.26Z" fill="#343433"/>
<path d="M215.038 189.221C214.328 190.009 213.921 191.023 213.889 192.082C213.889 192.938 214.212 193.478 214.76 193.478C215.647 193.478 216.41 192.553 216.68 191.165C216.734 190.856 216.796 190.548 216.842 190.278C216.881 190.051 216.902 189.821 216.904 189.591C216.925 189.351 216.84 189.114 216.67 188.942C216.501 188.769 216.265 188.68 216.025 188.697C215.639 188.733 215.284 188.922 215.038 189.221ZM215.94 195.26L216.009 194.897C216.104 194.566 216.25 194.251 216.441 193.964C216.465 193.913 216.459 193.853 216.427 193.808C216.394 193.762 216.34 193.737 216.284 193.742C216.228 193.747 216.179 193.782 216.156 193.833C216.082 194.189 215.902 194.514 215.639 194.766C215.124 195.22 214.459 195.467 213.773 195.46C212.153 195.46 211.459 194.026 211.459 192.584C211.445 190.972 212.063 189.419 213.179 188.257C214.066 187.36 215.28 186.865 216.542 186.884C217.357 186.816 218.159 187.126 218.716 187.725C219.281 188.6 219.446 189.674 219.171 190.679L218.292 195.306H215.979L215.94 195.26Z" fill="#343433"/>
<path d="M346.736 137.265H347.785C348.066 137.242 348.344 137.334 348.556 137.519C348.689 137.658 348.759 137.845 348.749 138.036C348.761 138.341 348.574 138.619 348.286 138.722L348.826 139.494H348.109L347.646 138.807H347.369V139.494H346.744L346.736 137.265ZM347.777 138.352C347.993 138.352 348.117 138.252 348.117 138.09C348.117 137.913 347.978 137.82 347.77 137.82H347.361V138.368L347.777 138.352Z" fill="url(#paint12_linear)"/>
<path d="M347.688 136.224C346.453 136.224 345.451 137.225 345.451 138.46C345.46 139.688 346.46 140.678 347.688 140.674C348.916 140.669 349.909 139.673 349.909 138.445C349.909 137.217 348.916 136.22 347.688 136.216V136.224ZM347.688 140.357C347.185 140.366 346.7 140.171 346.342 139.816C345.985 139.462 345.786 138.979 345.791 138.476C345.791 137.436 346.633 136.594 347.672 136.594C348.712 136.594 349.554 137.436 349.554 138.476C349.556 138.973 349.361 139.45 349.011 139.803C348.661 140.156 348.185 140.355 347.688 140.357Z" fill="url(#paint13_linear)"/>
</g>
<defs>
<linearGradient id="paint0_linear" x1="267.719" y1="153.452" x2="267.719" y2="171.761" gradientUnits="userSpaceOnUse">
<stop stop-color="#F27D21"/>
<stop offset="1" stop-color="#EF3D25"/>
</linearGradient>
<linearGradient id="paint1_linear" x1="265.915" y1="155.373" x2="265.915" y2="161.735" gradientUnits="userSpaceOnUse">
<stop stop-color="white"/>
<stop offset="1" stop-color="#F69320"/>
</linearGradient>
<linearGradient id="paint2_linear" x1="263.463" y1="168.746" x2="263.363" y2="179.018" gradientUnits="userSpaceOnUse">
<stop stop-color="#2E1414"/>
<stop offset="0.41" stop-color="#79211E"/>
<stop offset="0.73" stop-color="#AF2A24"/>
<stop offset="0.89" stop-color="#C42D27"/>
</linearGradient>
<linearGradient id="paint3_linear" x1="334.814" y1="153.445" x2="334.814" y2="171.761" gradientUnits="userSpaceOnUse">
<stop stop-color="#F27D21"/>
<stop offset="1" stop-color="#EF3D25"/>
</linearGradient>
<linearGradient id="paint4_linear" x1="263.741" y1="163.216" x2="263.741" y2="167.203" gradientUnits="userSpaceOnUse">
<stop stop-color="white"/>
<stop offset="1" stop-color="#F69320"/>
</linearGradient>
<linearGradient id="paint5_linear" x1="216.088" y1="153.321" x2="216.088" y2="155.889" gradientUnits="userSpaceOnUse">
<stop stop-color="white"/>
<stop offset="1" stop-color="#F69320"/>
</linearGradient>
<linearGradient id="paint6_linear" x1="212.024" y1="103.833" x2="212.024" y2="140.596" gradientUnits="userSpaceOnUse">
<stop stop-color="#F27D21"/>
<stop offset="1" stop-color="#EF3D25"/>
</linearGradient>
<linearGradient id="paint7_linear" x1="240.272" y1="103.833" x2="240.272" y2="140.589" gradientUnits="userSpaceOnUse">
<stop stop-color="#F27D21"/>
<stop offset="1" stop-color="#EF3D25"/>
</linearGradient>
<linearGradient id="paint8_linear" x1="267.952" y1="103.833" x2="267.952" y2="140.589" gradientUnits="userSpaceOnUse">
<stop stop-color="#F27D21"/>
<stop offset="1" stop-color="#EF3D25"/>
</linearGradient>
<linearGradient id="paint9_linear" x1="292.182" y1="103.833" x2="292.182" y2="140.596" gradientUnits="userSpaceOnUse">
<stop stop-color="#F27D21"/>
<stop offset="1" stop-color="#EF3D25"/>
</linearGradient>
<linearGradient id="paint10_linear" x1="316.568" y1="103.833" x2="316.568" y2="140.589" gradientUnits="userSpaceOnUse">
<stop stop-color="#F27D21"/>
<stop offset="1" stop-color="#EF3D25"/>
</linearGradient>
<linearGradient id="paint11_linear" x1="336.658" y1="103.833" x2="336.658" y2="140.589" gradientUnits="userSpaceOnUse">
<stop stop-color="#F27D21"/>
<stop offset="1" stop-color="#EF3D25"/>
</linearGradient>
<linearGradient id="paint12_linear" x1="347.777" y1="137.265" x2="347.777" y2="139.524" gradientUnits="userSpaceOnUse">
<stop stop-color="#F27D21"/>
<stop offset="1" stop-color="#EF3D25"/>
</linearGradient>
<linearGradient id="paint13_linear" x1="347.672" y1="136.224" x2="347.672" y2="140.697" gradientUnits="userSpaceOnUse">
<stop stop-color="#F27D21"/>
<stop offset="1" stop-color="#EF3D25"/>
</linearGradient>
<clipPath id="clip0">
<rect width="300" height="94.8587" fill="white" transform="translate(50 103)"/>
</clipPath>
</defs>
</svg>
