<?xml version="1.0" encoding="UTF-8"?>
<svg width="430px" height="300px" viewBox="0 0 430 300" version="1.1" xmlns="http://www.w3.org/2000/svg" xmlns:xlink="http://www.w3.org/1999/xlink">
    <title>Artboard</title>
    <defs>
        <radialGradient cx="104.029991%" cy="50%" fx="104.029991%" fy="50%" r="99.4404561%" gradientTransform="translate(1.040300,0.500000),scale(0.697674,1.000000),rotate(90.000000),scale(1.000000,2.385610),translate(-1.040300,-0.500000)" id="radialGradient-1">
            <stop stop-color="#464A50" offset="0%"></stop>
            <stop stop-color="#151515" offset="100%"></stop>
        </radialGradient>
        <rect id="path-2" x="-10" y="-7" width="450" height="313.953488"></rect>
        <linearGradient x1="50%" y1="0%" x2="50%" y2="100%" id="linearGradient-4">
            <stop stop-color="#00B8F1" offset="0%"></stop>
            <stop stop-color="#01B6F0" offset="2%"></stop>
            <stop stop-color="#0D90D9" offset="31%"></stop>
            <stop stop-color="#1775C8" offset="58%"></stop>
            <stop stop-color="#1C65BF" offset="82%"></stop>
            <stop stop-color="#1E5FBB" offset="100%"></stop>
        </linearGradient>
    </defs>
    <g id="Artboard" stroke="none" stroke-width="1" fill="none" fill-rule="evenodd">
        <mask id="mask-3" fill="white">
            <use xlink:href="#path-2"></use>
        </mask>
        <use id="Mask" fill="url(#radialGradient-1)" xlink:href="#path-2"></use>
        <g id="SAP-Logo" mask="url(#mask-3)">
            <g transform="translate(140.000000, 113.000000)" id="SAP_R_grad_scrn">
                <g>
                    <polyline id="Shape" fill="url(#linearGradient-4)" points="0 73.1707317 75.8075076 73.1707317 150 0 0 0 0 73.1707317"></polyline>
                    <path d="M88.6642063,13.3008038 L73.9292533,13.3008038 L73.9292533,48.2062437 L61.0597598,13.2899546 L48.2991452,13.2899546 L37.3132578,42.4814912 C36.137365,35.1221283 28.5158376,32.579803 22.4912016,30.6739631 C18.5207487,29.4046086 14.3071328,27.5349326 14.3615723,25.466355 C14.394236,23.7738823 16.6226255,22.2115999 21.0322235,22.4358164 C23.9973606,22.5913213 26.6104557,22.8300034 31.8148702,25.328932 L36.9321815,16.4506834 C32.1669121,14.0457811 25.6123985,12.523279 20.2301484,12.5160462 L20.1974848,12.5160462 C13.9260565,12.5160462 8.6998662,14.5412271 5.46253169,17.8791593 C3.22078426,20.1722664 1.9577218,23.2415737 1.93848257,26.4427815 C1.85500869,30.9451927 3.51359824,34.1457018 6.99772507,36.677178 C9.93745709,38.8253163 13.6974106,40.2176282 17.0145897,41.2410679 C21.1048095,42.5031896 24.4437643,43.6025735 24.403842,45.9423807 C24.3807783,46.804945 24.0351825,47.6278143 23.4348193,48.2496405 C22.4149863,49.2983949 20.8471292,49.6961983 18.6840672,49.7323622 C14.5140029,49.8191557 11.4254696,49.1682047 6.48599394,46.2642399 L1.93848257,55.2726786 C7.02936477,58.1519532 12.7795187,59.6740628 18.633257,59.6919127 L19.399039,59.6919127 C24.5671605,59.6015028 28.7408541,58.1332467 32.0725504,55.4571147 C32.2649032,55.3088426 32.4354839,55.1533376 32.6133159,54.9942162 L31.1180448,58.9180043 L44.4847522,58.9180043 L46.7312882,52.1119498 C49.2685144,52.9506752 51.926463,53.3696949 54.5996079,53.3523731 C57.2055471,53.3650961 59.7972135,52.968453 62.2792042,52.1770449 L64.4567834,58.9180043 L86.2833863,58.9180043 L86.2833863,44.8140657 L91.041397,44.8140657 C102.549903,44.8140657 109.354839,38.9735885 109.354839,29.1912413 C109.354839,18.3022774 102.742256,13.3008038 88.6642063,13.3008038 Z M54.6141251,43.1866881 C53.0044996,43.1963779 51.4062847,42.9170722 49.8960367,42.3621502 L54.5669442,27.6832048 L54.6467888,27.6832048 L59.2378518,42.4055469 C57.7517813,42.9236334 56.1885257,43.1877328 54.6141251,43.1866881 L54.6141251,43.1866881 Z M89.5279794,34.7496397 L86.2833863,34.7496397 L86.2833863,22.9023313 L89.5279794,22.9023313 C93.8577329,22.9023313 97.309196,24.3488891 97.309196,28.739192 C97.309196,33.2958491 93.8577329,34.7315577 89.5279794,34.7315577 L89.5279794,34.7496397 Z" id="Shape" fill="#FFFFFF"></path>
                </g>
            </g>
        </g>
    </g>
</svg>