<svg width="100" height="158" viewBox="0 0 100 158" fill="none" xmlns="http://www.w3.org/2000/svg">
<path d="M15.5173 84.4828C15.5173 88.2914 18.6053 91.3793 22.4139 91.3793C26.2225 91.3793 29.3104 88.2914 29.3104 84.4828V56.8966C29.3104 53.0879 26.2225 50 22.4139 50C18.6053 50 15.5173 53.0879 15.5173 56.8966V84.4828Z" fill="#00F2A9"/>
<path d="M56.8966 84.4827V70.6896C56.8966 66.881 53.8087 63.7931 50.0001 63.7931C46.1914 63.7931 43.1035 66.881 43.1035 70.6896V84.4827C43.1035 88.2914 46.1914 91.3793 50.0001 91.3793C53.8087 91.3793 56.8966 88.2914 56.8966 84.4827Z" fill="#00F2A9"/>
<path d="M84.4828 84.4827V49.9999C84.4828 46.1913 81.3949 43.1034 77.5863 43.1034C73.7776 43.1034 70.6897 46.1913 70.6897 49.9999V84.4827C70.6897 88.2913 73.7776 91.3793 77.5863 91.3793C81.3949 91.3793 84.4828 88.2913 84.4828 84.4827Z" fill="#00F2A9"/>
<path d="M13.7932 77.5863C13.7932 82.3397 17.6605 86.207 22.4139 86.207C27.1674 86.207 31.0346 82.3397 31.0346 77.5863V50.0001C31.0346 45.2466 27.1674 41.3794 22.4139 41.3794C17.6605 41.3794 13.7932 45.2466 13.7932 50.0001V77.5863ZM17.2415 50.0001C17.2415 47.1484 19.5622 44.8277 22.4139 44.8277C25.2656 44.8277 27.5863 47.1484 27.5863 50.0001V77.5863C27.5863 80.438 25.2656 82.7587 22.4139 82.7587C19.5622 82.7587 17.2415 80.438 17.2415 77.5863V50.0001Z" fill="#322153"/>
<path d="M50.0001 55.1725C45.2466 55.1725 41.3794 59.0397 41.3794 63.7932V77.5863C41.3794 82.3397 45.2466 86.207 50.0001 86.207C54.7535 86.207 58.6208 82.3397 58.6208 77.5863V63.7932C58.6208 59.0397 54.7535 55.1725 50.0001 55.1725ZM55.1725 77.5863C55.1725 80.438 52.8518 82.7587 50.0001 82.7587C47.1484 82.7587 44.8277 80.438 44.8277 77.5863V63.7932C44.8277 60.9415 47.1484 58.6208 50.0001 58.6208C52.8518 58.6208 55.1725 60.9415 55.1725 63.7932V77.5863Z" fill="#322153"/>
<path d="M77.5863 34.5931C72.8932 34.5931 68.9656 38.4104 68.9656 43.1035V77.5862C68.9656 82.2794 72.8932 86.0966 77.5863 86.0966C82.2794 86.0966 86.207 82.2794 86.207 77.5862V43.1035C86.207 38.4104 82.2794 34.5931 77.5863 34.5931ZM82.7587 77.5862C82.7587 80.4983 80.4983 82.869 77.5863 82.869C74.6742 82.869 72.4139 80.4983 72.4139 77.5862V43.1035C72.4139 40.1914 74.6742 37.8207 77.5863 37.8207C80.4983 37.8207 82.7587 40.1914 82.7587 43.1035V77.5862Z" fill="#322153"/>
<path d="M98.2759 89.6553H1.72414C0.77069 89.6553 0 90.426 0 91.3794C0 92.3329 0.77069 93.1035 1.72414 93.1035H98.2759C99.2293 93.1035 100 92.3329 100 91.3794C100 90.426 99.2293 89.6553 98.2759 89.6553Z" fill="#322153"/>
<path d="M16.3191 35.4052C17.9449 37.0328 20.1105 37.9311 22.4139 37.9311C24.2605 37.9311 26.0018 37.3311 27.4639 36.2639L41.4863 44.1708C42.0208 48.4173 45.6122 51.7242 50.0001 51.7242C54.5363 51.7242 58.226 48.1897 58.557 43.7345L73.1001 22.8501C74.4398 23.6742 75.9725 24.138 77.5863 24.138C79.8898 24.138 82.0553 23.2397 83.6811 21.6121C85.3087 19.9863 86.207 17.8207 86.207 15.5173C86.207 13.2138 85.3087 11.0501 83.6811 9.42247C82.0536 7.79488 79.8898 6.89661 77.5863 6.89661C75.2829 6.89661 73.1173 7.79488 71.4915 9.42247C69.8639 11.0483 68.9656 13.2138 68.9656 15.5173C68.9656 17.3225 69.5329 19.0311 70.5536 20.4742L57.5863 39.0966C56.138 36.3673 53.3001 34.4828 50.0001 34.4828C46.1898 34.4828 42.9863 36.9845 41.8501 40.4173L29.8311 33.6397C30.5949 32.3363 31.0346 30.8621 31.0346 29.3104C31.0346 27.007 30.1363 24.8414 28.5087 23.2156C26.8829 21.588 24.7173 20.6897 22.4139 20.6897C20.1105 20.6897 17.9449 21.588 16.3191 23.2156C14.6915 24.8414 13.7932 27.007 13.7932 29.3104C13.7932 31.6139 14.6915 33.7794 16.3191 35.4052ZM73.9294 11.8604C74.9053 10.8845 76.2036 10.3449 77.5863 10.3449C78.9691 10.3449 80.2673 10.8845 81.2432 11.8604C82.2191 12.8363 82.7587 14.1345 82.7587 15.5173C82.7587 16.9001 82.2191 18.1983 81.2432 19.1742C79.2898 21.1276 75.8829 21.1276 73.9294 19.1742C72.9518 18.1983 72.4139 16.9001 72.4139 15.5173C72.4139 14.1345 72.9518 12.8363 73.9294 11.8604ZM50.0001 37.9311C52.8518 37.9311 55.1725 40.2518 55.1725 43.1035C55.1725 45.9552 52.8518 48.2759 50.0001 48.2759C47.1484 48.2759 44.8277 45.9552 44.8277 43.1035C44.8277 40.2518 47.1484 37.9311 50.0001 37.9311ZM18.757 25.6535C19.7329 24.6776 21.0311 24.138 22.4139 24.138C23.7967 24.138 25.0949 24.6776 26.0708 25.6535C27.0467 26.6294 27.5863 27.9276 27.5863 29.3104C27.5863 30.6932 27.0467 31.9914 26.0708 32.9673C24.1174 34.9208 20.7105 34.9208 18.757 32.9673C17.7794 31.9914 17.2415 30.6932 17.2415 29.3104C17.2415 27.9276 17.7794 26.6294 18.757 25.6535Z" fill="#322153"/>
<path d="M22.4138 79.3104C23.3673 79.3104 24.138 78.5397 24.138 77.5863V56.8966C24.138 55.9432 23.3673 55.1725 22.4138 55.1725C21.4604 55.1725 20.6897 55.9432 20.6897 56.8966V77.5863C20.6897 78.5397 21.4604 79.3104 22.4138 79.3104Z" fill="#322153"/>
<path d="M50 62.069C49.0466 62.069 48.2759 62.8397 48.2759 63.7931V77.5862C48.2759 78.5397 49.0466 79.3104 50 79.3104C50.9535 79.3104 51.7242 78.5397 51.7242 77.5862V63.7931C51.7242 62.8397 50.9535 62.069 50 62.069Z" fill="#322153"/>
<path d="M77.5862 41.3794C76.6328 41.3794 75.8621 42.1501 75.8621 43.1035V70.6897C75.8621 71.6432 76.6328 72.4139 77.5862 72.4139C78.5397 72.4139 79.3103 71.6432 79.3103 70.6897V43.1035C79.3103 42.1501 78.5397 41.3794 77.5862 41.3794Z" fill="#322153"/>
<path d="M23.5729 121L27.4929 111.06H29.0609L32.9669 121H30.9229L30.0129 118.522H26.5269L25.6169 121H23.5729ZM28.2769 113.146L26.8489 117.164H29.6629L28.2769 113.146ZM40.6502 121H38.7742V116.884C38.7742 116.296 38.6715 115.867 38.4662 115.596C38.2609 115.325 37.9762 115.19 37.6122 115.19C37.4255 115.19 37.2342 115.227 37.0382 115.302C36.8422 115.377 36.6555 115.484 36.4782 115.624C36.3102 115.755 36.1562 115.913 36.0162 116.1C35.8762 116.287 35.7735 116.492 35.7082 116.716V121H33.8322V113.664H35.5262V115.022C35.7969 114.555 36.1889 114.191 36.7022 113.93C37.2155 113.669 37.7942 113.538 38.4382 113.538C38.8955 113.538 39.2689 113.622 39.5582 113.79C39.8475 113.958 40.0715 114.177 40.2302 114.448C40.3889 114.719 40.4962 115.027 40.5522 115.372C40.6175 115.717 40.6502 116.067 40.6502 116.422V121ZM44.2701 121.14C43.9154 121.14 43.5841 121.084 43.2761 120.972C42.9681 120.851 42.7021 120.687 42.4781 120.482C42.2541 120.267 42.0767 120.02 41.9461 119.74C41.8247 119.46 41.7641 119.152 41.7641 118.816C41.7641 118.471 41.8387 118.153 41.9881 117.864C42.1467 117.565 42.3614 117.313 42.6321 117.108C42.9121 116.903 43.2434 116.744 43.6261 116.632C44.0087 116.511 44.4287 116.45 44.8861 116.45C45.2127 116.45 45.5301 116.478 45.8381 116.534C46.1554 116.59 46.4354 116.669 46.6781 116.772V116.352C46.6781 115.867 46.5381 115.493 46.2581 115.232C45.9874 114.971 45.5814 114.84 45.0401 114.84C44.6481 114.84 44.2654 114.91 43.8921 115.05C43.5187 115.19 43.1361 115.395 42.7441 115.666L42.1701 114.476C43.1127 113.851 44.1301 113.538 45.2221 113.538C46.2767 113.538 47.0934 113.799 47.6721 114.322C48.2601 114.835 48.5541 115.582 48.5541 116.562V118.844C48.5541 119.04 48.5914 119.18 48.6661 119.264C48.7407 119.348 48.8714 119.395 49.0581 119.404V121C48.8807 121.037 48.7127 121.061 48.5541 121.07C48.4047 121.089 48.2741 121.098 48.1621 121.098C47.8074 121.089 47.5367 121.009 47.3501 120.86C47.1634 120.701 47.0467 120.491 47.0001 120.23L46.9581 119.824C46.6314 120.253 46.2347 120.58 45.7681 120.804C45.3014 121.028 44.8021 121.14 44.2701 121.14ZM44.8021 119.768C45.1194 119.768 45.4181 119.712 45.6981 119.6C45.9874 119.488 46.2114 119.339 46.3701 119.152C46.5754 118.993 46.6781 118.816 46.6781 118.62V117.78C46.4541 117.696 46.2114 117.631 45.9501 117.584C45.6887 117.528 45.4367 117.5 45.1941 117.5C44.7087 117.5 44.3121 117.612 44.0041 117.836C43.6961 118.051 43.5421 118.326 43.5421 118.662C43.5421 118.979 43.6634 119.245 43.9061 119.46C44.1487 119.665 44.4474 119.768 44.8021 119.768ZM50.3338 110.78H52.2098V118.564C52.2098 119.133 52.4665 119.418 52.9798 119.418C53.0825 119.418 53.1991 119.399 53.3298 119.362C53.4698 119.325 53.6005 119.283 53.7218 119.236L53.9738 120.734C53.7218 120.855 53.4278 120.949 53.0918 121.014C52.7558 121.079 52.4525 121.112 52.1818 121.112C51.5938 121.112 51.1365 120.958 50.8098 120.65C50.4925 120.333 50.3338 119.885 50.3338 119.306V110.78ZM54.52 122.428C54.688 122.475 54.842 122.507 54.982 122.526C55.122 122.545 55.2434 122.554 55.346 122.554C55.4674 122.554 55.5747 122.531 55.668 122.484C55.7614 122.447 55.85 122.372 55.934 122.26C56.0274 122.148 56.116 121.989 56.2 121.784C56.2934 121.588 56.3914 121.327 56.494 121L53.582 113.664H55.514L57.516 119.376L59.28 113.664H61.044L57.95 122.456C57.754 123.016 57.4414 123.445 57.012 123.744C56.5827 124.052 56.0834 124.206 55.514 124.206C55.1874 124.206 54.856 124.155 54.52 124.052V122.428ZM61.5473 119.852L65.6213 114.98H61.7013V113.664H67.5953V114.812L63.5353 119.684H67.6653V121H61.5473V119.852ZM72.3165 121.14C71.7285 121.14 71.1965 121.042 70.7205 120.846C70.2445 120.641 69.8385 120.365 69.5025 120.02C69.1665 119.675 68.9052 119.273 68.7185 118.816C68.5412 118.359 68.4525 117.878 68.4525 117.374C68.4525 116.851 68.5412 116.361 68.7185 115.904C68.8959 115.437 69.1525 115.031 69.4885 114.686C69.8245 114.331 70.2305 114.051 70.7065 113.846C71.1919 113.641 71.7332 113.538 72.3305 113.538C72.9279 113.538 73.4599 113.641 73.9265 113.846C74.4025 114.051 74.8039 114.327 75.1305 114.672C75.4665 115.017 75.7185 115.419 75.8865 115.876C76.0639 116.333 76.1525 116.809 76.1525 117.304C76.1525 117.425 76.1479 117.542 76.1385 117.654C76.1385 117.766 76.1292 117.859 76.1105 117.934H70.4405C70.4685 118.223 70.5385 118.48 70.6505 118.704C70.7625 118.928 70.9072 119.119 71.0845 119.278C71.2619 119.437 71.4625 119.558 71.6865 119.642C71.9105 119.726 72.1439 119.768 72.3865 119.768C72.7599 119.768 73.1099 119.679 73.4365 119.502C73.7725 119.315 74.0012 119.073 74.1225 118.774L75.7325 119.222C75.4619 119.782 75.0279 120.244 74.4305 120.608C73.8425 120.963 73.1379 121.14 72.3165 121.14ZM74.2205 116.716C74.1739 116.165 73.9685 115.727 73.6045 115.4C73.2499 115.064 72.8159 114.896 72.3025 114.896C72.0505 114.896 71.8125 114.943 71.5885 115.036C71.3739 115.12 71.1825 115.241 71.0145 115.4C70.8465 115.559 70.7065 115.75 70.5945 115.974C70.4919 116.198 70.4312 116.445 70.4125 116.716H74.2205ZM25.8524 137V127.06H30.2484C30.7057 127.06 31.1257 127.158 31.5084 127.354C31.9004 127.541 32.2364 127.793 32.5164 128.11C32.7964 128.418 33.0157 128.773 33.1744 129.174C33.3331 129.566 33.4124 129.963 33.4124 130.364C33.4124 131.008 33.2491 131.596 32.9224 132.128C32.6051 132.651 32.1711 133.029 31.6204 133.262L33.9584 137H31.7744L29.6884 133.668H27.7844V137H25.8524ZM27.7844 131.974H30.2064C30.3837 131.974 30.5471 131.932 30.6964 131.848C30.8551 131.764 30.9904 131.652 31.1024 131.512C31.2144 131.363 31.3031 131.19 31.3684 130.994C31.4337 130.798 31.4664 130.588 31.4664 130.364C31.4664 130.131 31.4291 129.916 31.3544 129.72C31.2797 129.524 31.1771 129.356 31.0464 129.216C30.9251 129.067 30.7804 128.955 30.6124 128.88C30.4537 128.796 30.2904 128.754 30.1224 128.754H27.7844V131.974ZM38.506 137.14C37.918 137.14 37.386 137.042 36.91 136.846C36.434 136.641 36.028 136.365 35.692 136.02C35.356 135.675 35.0947 135.273 34.908 134.816C34.7307 134.359 34.642 133.878 34.642 133.374C34.642 132.851 34.7307 132.361 34.908 131.904C35.0853 131.437 35.342 131.031 35.678 130.686C36.014 130.331 36.42 130.051 36.896 129.846C37.3813 129.641 37.9227 129.538 38.52 129.538C39.1173 129.538 39.6493 129.641 40.116 129.846C40.592 130.051 40.9933 130.327 41.32 130.672C41.656 131.017 41.908 131.419 42.076 131.876C42.2533 132.333 42.342 132.809 42.342 133.304C42.342 133.425 42.3373 133.542 42.328 133.654C42.328 133.766 42.3187 133.859 42.3 133.934H36.63C36.658 134.223 36.728 134.48 36.84 134.704C36.952 134.928 37.0967 135.119 37.274 135.278C37.4513 135.437 37.652 135.558 37.876 135.642C38.1 135.726 38.3333 135.768 38.576 135.768C38.9493 135.768 39.2993 135.679 39.626 135.502C39.962 135.315 40.1907 135.073 40.312 134.774L41.922 135.222C41.6513 135.782 41.2173 136.244 40.62 136.608C40.032 136.963 39.3273 137.14 38.506 137.14ZM40.41 132.716C40.3633 132.165 40.158 131.727 39.794 131.4C39.4393 131.064 39.0053 130.896 38.492 130.896C38.24 130.896 38.002 130.943 37.778 131.036C37.5633 131.12 37.372 131.241 37.204 131.4C37.036 131.559 36.896 131.75 36.784 131.974C36.6813 132.198 36.6207 132.445 36.602 132.716H40.41ZM46.3825 137.14C46.0839 137.14 45.7712 137.117 45.4445 137.07C45.1272 137.023 44.8145 136.958 44.5065 136.874C44.1985 136.79 43.9045 136.687 43.6245 136.566C43.3445 136.445 43.0972 136.309 42.8825 136.16L43.6385 134.886C44.5719 135.493 45.4725 135.796 46.3405 135.796C46.7325 135.796 47.0405 135.726 47.2645 135.586C47.4885 135.446 47.6005 135.245 47.6005 134.984C47.6005 134.723 47.4652 134.531 47.1945 134.41C46.9332 134.279 46.4899 134.139 45.8645 133.99C45.3885 133.878 44.9825 133.761 44.6465 133.64C44.3105 133.519 44.0399 133.379 43.8345 133.22C43.6292 133.061 43.4799 132.879 43.3865 132.674C43.2932 132.469 43.2465 132.226 43.2465 131.946C43.2465 131.573 43.3212 131.237 43.4705 130.938C43.6199 130.639 43.8252 130.387 44.0865 130.182C44.3572 129.967 44.6699 129.804 45.0245 129.692C45.3885 129.58 45.7805 129.524 46.2005 129.524C46.7232 129.524 47.2412 129.608 47.7545 129.776C48.2772 129.935 48.7625 130.154 49.2105 130.434L48.4405 131.596C48.0299 131.335 47.6425 131.148 47.2785 131.036C46.9145 130.915 46.5505 130.854 46.1865 130.854C45.8505 130.854 45.5659 130.919 45.3325 131.05C45.1085 131.181 44.9965 131.391 44.9965 131.68C44.9965 131.932 45.1039 132.114 45.3185 132.226C45.5425 132.338 45.9345 132.464 46.4945 132.604C47.0172 132.735 47.4605 132.865 47.8245 132.996C48.1979 133.127 48.5012 133.276 48.7345 133.444C48.9772 133.612 49.1499 133.808 49.2525 134.032C49.3645 134.247 49.4205 134.508 49.4205 134.816C49.4205 135.171 49.3459 135.493 49.1965 135.782C49.0565 136.071 48.8559 136.319 48.5945 136.524C48.3332 136.72 48.0112 136.874 47.6285 136.986C47.2552 137.089 46.8399 137.14 46.3825 137.14ZM52.8339 137.14C52.0779 137.14 51.5039 136.897 51.1119 136.412C50.7199 135.927 50.5239 135.208 50.5239 134.256V129.664H52.3999V133.85C52.3999 134.979 52.8059 135.544 53.6179 135.544C53.9912 135.544 54.3459 135.437 54.6819 135.222C55.0272 134.998 55.3072 134.662 55.5219 134.214V129.664H57.3979V134.844C57.3979 135.04 57.4352 135.18 57.5099 135.264C57.5846 135.348 57.7152 135.395 57.9019 135.404V137C57.7059 137.037 57.5332 137.061 57.3839 137.07C57.2346 137.089 57.1039 137.098 56.9919 137.098C56.6559 137.098 56.3899 137.023 56.1939 136.874C56.0072 136.715 55.8906 136.501 55.8439 136.23L55.8019 135.628C55.4659 136.132 55.0412 136.51 54.5279 136.762C54.0239 137.014 53.4592 137.14 52.8339 137.14ZM59.2889 126.78H61.1649V134.564C61.1649 135.133 61.4216 135.418 61.9349 135.418C62.0376 135.418 62.1542 135.399 62.2849 135.362C62.4249 135.325 62.5556 135.283 62.6769 135.236L62.9289 136.734C62.6769 136.855 62.3829 136.949 62.0469 137.014C61.7109 137.079 61.4076 137.112 61.1369 137.112C60.5489 137.112 60.0916 136.958 59.7649 136.65C59.4476 136.333 59.2889 135.885 59.2889 135.306V126.78ZM67.9785 136.622C67.7265 136.734 67.4138 136.846 67.0405 136.958C66.6765 137.07 66.2938 137.126 65.8925 137.126C65.6312 137.126 65.3838 137.093 65.1505 137.028C64.9265 136.963 64.7258 136.86 64.5485 136.72C64.3805 136.571 64.2452 136.384 64.1425 136.16C64.0398 135.927 63.9885 135.647 63.9885 135.32V131.106H63.0365V129.664H63.9885V127.284H65.8645V129.664H67.4185V131.106H65.8645V134.69C65.8645 134.951 65.9345 135.138 66.0745 135.25C66.2145 135.353 66.3825 135.404 66.5785 135.404C66.7745 135.404 66.9658 135.371 67.1525 135.306C67.3392 135.241 67.4885 135.185 67.6005 135.138L67.9785 136.622ZM71.8122 137.14C71.5136 137.14 71.2009 137.117 70.8742 137.07C70.5569 137.023 70.2442 136.958 69.9362 136.874C69.6282 136.79 69.3342 136.687 69.0542 136.566C68.7742 136.445 68.5269 136.309 68.3122 136.16L69.0682 134.886C70.0016 135.493 70.9022 135.796 71.7702 135.796C72.1622 135.796 72.4702 135.726 72.6942 135.586C72.9182 135.446 73.0302 135.245 73.0302 134.984C73.0302 134.723 72.8949 134.531 72.6242 134.41C72.3629 134.279 71.9196 134.139 71.2942 133.99C70.8182 133.878 70.4122 133.761 70.0762 133.64C69.7402 133.519 69.4696 133.379 69.2642 133.22C69.0589 133.061 68.9096 132.879 68.8162 132.674C68.7229 132.469 68.6762 132.226 68.6762 131.946C68.6762 131.573 68.7509 131.237 68.9002 130.938C69.0496 130.639 69.2549 130.387 69.5162 130.182C69.7869 129.967 70.0996 129.804 70.4542 129.692C70.8182 129.58 71.2102 129.524 71.6302 129.524C72.1529 129.524 72.6709 129.608 73.1842 129.776C73.7069 129.935 74.1922 130.154 74.6402 130.434L73.8702 131.596C73.4596 131.335 73.0722 131.148 72.7082 131.036C72.3442 130.915 71.9802 130.854 71.6162 130.854C71.2802 130.854 70.9956 130.919 70.7622 131.05C70.5382 131.181 70.4262 131.391 70.4262 131.68C70.4262 131.932 70.5336 132.114 70.7482 132.226C70.9722 132.338 71.3642 132.464 71.9242 132.604C72.4469 132.735 72.8902 132.865 73.2542 132.996C73.6276 133.127 73.9309 133.276 74.1642 133.444C74.4069 133.612 74.5796 133.808 74.6822 134.032C74.7942 134.247 74.8502 134.508 74.8502 134.816C74.8502 135.171 74.7756 135.493 74.6262 135.782C74.4862 136.071 74.2856 136.319 74.0242 136.524C73.7629 136.72 73.4409 136.874 73.0582 136.986C72.6849 137.089 72.2696 137.14 71.8122 137.14Z" fill="#322153"/>
</svg>
