<svg width="100" height="160" viewBox="0 0 100 160" fill="none" xmlns="http://www.w3.org/2000/svg">
<path d="M50 25C55.1777 25 59.375 20.8027 59.375 15.625C59.375 10.4473 55.1777 6.25 50 6.25C44.8223 6.25 40.625 10.4473 40.625 15.625C40.625 20.8027 44.8223 25 50 25Z" fill="#54FEBD"/>
<path d="M50 93.75C55.1777 93.75 59.375 89.5527 59.375 84.375C59.375 79.1973 55.1777 75 50 75C44.8223 75 40.625 79.1973 40.625 84.375C40.625 89.5527 44.8223 93.75 50 93.75Z" fill="#54FEBD"/>
<path d="M84.375 59.375C89.5527 59.375 93.75 55.1777 93.75 50C93.75 44.8223 89.5527 40.625 84.375 40.625C79.1973 40.625 75 44.8223 75 50C75 55.1777 79.1973 59.375 84.375 59.375Z" fill="#54FEBD"/>
<path d="M15.625 59.375C20.8027 59.375 25 55.1777 25 50C25 44.8223 20.8027 40.625 15.625 40.625C10.4473 40.625 6.25 44.8223 6.25 50C6.25 55.1777 10.4473 59.375 15.625 59.375Z" fill="#54FEBD"/>
<path d="M50 21.875C43.9688 21.875 39.0625 16.9672 39.0625 10.9375C39.0625 4.90781 43.9688 0 50 0C56.0312 0 60.9375 4.90781 60.9375 10.9375C60.9375 16.9672 56.0312 21.875 50 21.875ZM50 3.125C45.6922 3.125 42.1875 6.62969 42.1875 10.9375C42.1875 15.2453 45.6922 18.75 50 18.75C54.3078 18.75 57.8125 15.2453 57.8125 10.9375C57.8125 6.62969 54.3078 3.125 50 3.125Z" fill="#1D1B4C"/>
<path d="M50 100C43.9688 100 39.0625 95.0922 39.0625 89.0625C39.0625 83.0328 43.9688 78.125 50 78.125C56.0312 78.125 60.9375 83.0328 60.9375 89.0625C60.9375 95.0922 56.0312 100 50 100ZM50 81.25C45.6922 81.25 42.1875 84.7547 42.1875 89.0625C42.1875 93.3703 45.6922 96.875 50 96.875C54.3078 96.875 57.8125 93.3703 57.8125 89.0625C57.8125 84.7547 54.3078 81.25 50 81.25Z" fill="#1D1B4C"/>
<path d="M89.0625 60.9375C83.0313 60.9375 78.125 56.0297 78.125 50C78.125 43.9703 83.0313 39.0625 89.0625 39.0625C95.0937 39.0625 100 43.9703 100 50C100 56.0297 95.0937 60.9375 89.0625 60.9375ZM89.0625 42.1875C84.7547 42.1875 81.25 45.6922 81.25 50C81.25 54.3078 84.7547 57.8125 89.0625 57.8125C93.3703 57.8125 96.875 54.3078 96.875 50C96.875 45.6922 93.3703 42.1875 89.0625 42.1875Z" fill="#1D1B4C"/>
<path d="M10.9375 60.9375C4.90625 60.9375 0 56.0297 0 50C0 43.9703 4.90625 39.0625 10.9375 39.0625C16.9687 39.0625 21.875 43.9703 21.875 50C21.875 56.0297 16.9687 60.9375 10.9375 60.9375ZM10.9375 42.1875C6.62969 42.1875 3.125 45.6922 3.125 50C3.125 54.3078 6.62969 57.8125 10.9375 57.8125C15.2453 57.8125 18.75 54.3078 18.75 50C18.75 45.6922 15.2453 42.1875 10.9375 42.1875Z" fill="#1D1B4C"/>
<path d="M12.064 42.2656C11.9406 42.2656 11.8171 42.2515 11.6921 42.2219C10.8531 42.0172 10.339 41.1719 10.5437 40.3344C14.1421 25.5594 25.5562 14.1437 40.3312 10.5453C41.1718 10.3406 42.0156 10.8547 42.2187 11.6937C42.4234 12.5312 41.9093 13.3765 41.0703 13.5812C27.4375 16.9015 16.9015 27.4375 13.5812 41.0719C13.4078 41.7859 12.7671 42.2656 12.064 42.2656Z" fill="#1D1B4C"/>
<path d="M59.2953 89.5C58.5921 89.5 57.9531 89.0203 57.7781 88.3062C57.5734 87.4687 58.0875 86.6234 58.9265 86.4187C72.5625 83.0968 83.0968 72.5625 86.4187 58.9265C86.6218 58.0875 87.4734 57.5734 88.3062 57.7781C89.1453 57.9828 89.6593 58.8281 89.4546 59.6656C85.8562 74.4406 74.4421 85.8562 59.6671 89.4547C59.5421 89.4859 59.4187 89.5 59.2953 89.5Z" fill="#1D1B4C"/>
<path d="M40.7048 89.5C40.5814 89.5 40.4579 89.4859 40.3329 89.4562C25.5579 85.8562 14.1439 74.4422 10.5454 59.6672C10.3407 58.8297 10.8548 57.9844 11.6939 57.7797C12.5314 57.575 13.3782 58.089 13.5814 58.9281C16.9017 72.564 27.4376 83.0984 41.0735 86.4203C41.9126 86.625 42.4267 87.4703 42.222 88.3078C42.047 89.0219 41.4079 89.5 40.7048 89.5Z" fill="#1D1B4C"/>
<path d="M87.9359 42.2656C87.2328 42.2656 86.5937 41.7859 86.4187 41.0718C83.0984 27.4375 72.5625 16.9015 58.9265 13.5796C58.0875 13.375 57.5734 12.5296 57.7781 11.6921C57.9828 10.8531 58.8312 10.339 59.6656 10.5437C74.4406 14.1437 85.8546 25.5578 89.4531 40.3328C89.6578 41.1703 89.1437 42.0156 88.3046 42.2203C88.1828 42.2515 88.0578 42.2656 87.9359 42.2656Z" fill="#1D1B4C"/>
<path d="M54.6875 67.1875H45.3125C44.45 67.1875 43.75 66.4891 43.75 65.625V62.5938C38.9703 60.2281 35.9375 55.3953 35.9375 50C35.9375 42.2453 42.2469 35.9375 50 35.9375C57.7531 35.9375 64.0625 42.2453 64.0625 50C64.0625 55.3937 61.0297 60.2281 56.25 62.5938V65.625C56.25 66.4891 55.55 67.1875 54.6875 67.1875ZM46.875 64.0625H53.125V61.5828C53.125 60.9469 53.5109 60.375 54.1016 60.1344C58.2547 58.4516 60.9375 54.4734 60.9375 50C60.9375 43.9703 56.0312 39.0625 50 39.0625C43.9688 39.0625 39.0625 43.9703 39.0625 50C39.0625 54.4734 41.7453 58.4516 45.8984 60.1344C46.4891 60.375 46.875 60.9469 46.875 61.5828V64.0625Z" fill="#1D1B4C"/>
<path d="M54.6875 73.4375H45.3125C44.45 73.4375 43.75 72.7391 43.75 71.875C43.75 71.0109 44.45 70.3125 45.3125 70.3125H54.6875C55.55 70.3125 56.25 71.0109 56.25 71.875C56.25 72.7391 55.55 73.4375 54.6875 73.4375Z" fill="#1D1B4C"/>
<path d="M50 67.1875C49.1375 67.1875 48.4375 66.4891 48.4375 65.625V54.6875C48.4375 53.8234 49.1375 53.125 50 53.125C50.8625 53.125 51.5625 53.8234 51.5625 54.6875V65.625C51.5625 66.4891 50.8625 67.1875 50 67.1875Z" fill="#1D1B4C"/>
<path d="M50 56.25C49.6985 56.25 49.3954 56.1626 49.1329 55.9876L44.4454 52.8625C43.7282 52.3829 43.5344 51.4141 44.0125 50.6954C44.4907 49.9766 45.4594 49.7829 46.1797 50.2625L50 52.8094L53.8204 50.2625C54.536 49.7829 55.5079 49.9766 55.9876 50.6954C56.4657 51.4141 56.2719 52.3829 55.5547 52.8625L50.8672 55.9876C50.6047 56.1626 50.3016 56.25 50 56.25Z" fill="#1D1B4C"/>
<path d="M27.8485 123V113.06H31.4605C32.2725 113.06 32.9818 113.191 33.5885 113.452C34.2045 113.713 34.7178 114.068 35.1285 114.516C35.5392 114.964 35.8472 115.491 36.0525 116.098C36.2578 116.695 36.3605 117.335 36.3605 118.016C36.3605 118.772 36.2438 119.458 36.0105 120.074C35.7865 120.681 35.4598 121.203 35.0305 121.642C34.6012 122.071 34.0832 122.407 33.4765 122.65C32.8792 122.883 32.2072 123 31.4605 123H27.8485ZM34.4145 118.016C34.4145 117.54 34.3492 117.101 34.2185 116.7C34.0878 116.299 33.8965 115.953 33.6445 115.664C33.3925 115.375 33.0798 115.151 32.7065 114.992C32.3425 114.833 31.9272 114.754 31.4605 114.754H29.7805V121.306H31.4605C31.9365 121.306 32.3565 121.222 32.7205 121.054C33.0938 120.886 33.4018 120.657 33.6445 120.368C33.8965 120.069 34.0878 119.719 34.2185 119.318C34.3492 118.917 34.4145 118.483 34.4145 118.016ZM41.1173 123.14C40.5293 123.14 39.9973 123.042 39.5213 122.846C39.0453 122.641 38.6393 122.365 38.3033 122.02C37.9673 121.675 37.706 121.273 37.5193 120.816C37.342 120.359 37.2533 119.878 37.2533 119.374C37.2533 118.851 37.342 118.361 37.5193 117.904C37.6967 117.437 37.9533 117.031 38.2893 116.686C38.6253 116.331 39.0313 116.051 39.5073 115.846C39.9927 115.641 40.534 115.538 41.1313 115.538C41.7287 115.538 42.2607 115.641 42.7273 115.846C43.2033 116.051 43.6047 116.327 43.9313 116.672C44.2673 117.017 44.5193 117.419 44.6873 117.876C44.8647 118.333 44.9533 118.809 44.9533 119.304C44.9533 119.425 44.9487 119.542 44.9393 119.654C44.9393 119.766 44.93 119.859 44.9113 119.934H39.2413C39.2693 120.223 39.3393 120.48 39.4513 120.704C39.5633 120.928 39.708 121.119 39.8853 121.278C40.0627 121.437 40.2633 121.558 40.4873 121.642C40.7113 121.726 40.9447 121.768 41.1873 121.768C41.5607 121.768 41.9107 121.679 42.2373 121.502C42.5733 121.315 42.802 121.073 42.9233 120.774L44.5333 121.222C44.2627 121.782 43.8287 122.244 43.2313 122.608C42.6433 122.963 41.9387 123.14 41.1173 123.14ZM43.0213 118.716C42.9747 118.165 42.7693 117.727 42.4053 117.4C42.0507 117.064 41.6167 116.896 41.1033 116.896C40.8513 116.896 40.6133 116.943 40.3893 117.036C40.1747 117.12 39.9833 117.241 39.8153 117.4C39.6473 117.559 39.5073 117.75 39.3953 117.974C39.2927 118.198 39.232 118.445 39.2133 118.716H43.0213ZM48.9939 123.14C48.6952 123.14 48.3825 123.117 48.0559 123.07C47.7385 123.023 47.4259 122.958 47.1179 122.874C46.8099 122.79 46.5159 122.687 46.2359 122.566C45.9559 122.445 45.7085 122.309 45.4939 122.16L46.2499 120.886C47.1832 121.493 48.0839 121.796 48.9519 121.796C49.3439 121.796 49.6519 121.726 49.8759 121.586C50.0999 121.446 50.2119 121.245 50.2119 120.984C50.2119 120.723 50.0765 120.531 49.8059 120.41C49.5445 120.279 49.1012 120.139 48.4759 119.99C47.9999 119.878 47.5939 119.761 47.2579 119.64C46.9219 119.519 46.6512 119.379 46.4459 119.22C46.2405 119.061 46.0912 118.879 45.9979 118.674C45.9045 118.469 45.8579 118.226 45.8579 117.946C45.8579 117.573 45.9325 117.237 46.0819 116.938C46.2312 116.639 46.4365 116.387 46.6979 116.182C46.9685 115.967 47.2812 115.804 47.6359 115.692C47.9999 115.58 48.3919 115.524 48.8119 115.524C49.3345 115.524 49.8525 115.608 50.3659 115.776C50.8885 115.935 51.3739 116.154 51.8219 116.434L51.0519 117.596C50.6412 117.335 50.2539 117.148 49.8899 117.036C49.5259 116.915 49.1619 116.854 48.7979 116.854C48.4619 116.854 48.1772 116.919 47.9439 117.05C47.7199 117.181 47.6079 117.391 47.6079 117.68C47.6079 117.932 47.7152 118.114 47.9299 118.226C48.1539 118.338 48.5459 118.464 49.1059 118.604C49.6285 118.735 50.0719 118.865 50.4359 118.996C50.8092 119.127 51.1125 119.276 51.3459 119.444C51.5885 119.612 51.7612 119.808 51.8639 120.032C51.9759 120.247 52.0319 120.508 52.0319 120.816C52.0319 121.171 51.9572 121.493 51.8079 121.782C51.6679 122.071 51.4672 122.319 51.2059 122.524C50.9445 122.72 50.6225 122.874 50.2399 122.986C49.8665 123.089 49.4512 123.14 48.9939 123.14ZM53.2052 123V115.664H55.0812V123H53.2052ZM53.2052 114.642V112.78H55.0812V114.642H53.2052ZM59.6163 123.042C59.1309 123.042 58.6829 122.944 58.2723 122.748C57.8709 122.552 57.5256 122.286 57.2363 121.95C56.9469 121.605 56.7229 121.208 56.5643 120.76C56.4056 120.312 56.3263 119.836 56.3263 119.332C56.3263 118.8 56.4103 118.305 56.5783 117.848C56.7462 117.391 56.9796 116.989 57.2783 116.644C57.5769 116.299 57.9316 116.028 58.3423 115.832C58.7623 115.636 59.2243 115.538 59.7283 115.538C60.3069 115.538 60.8109 115.669 61.2403 115.93C61.6696 116.182 62.0196 116.523 62.2903 116.952V115.664H63.9283V122.65C63.9283 123.191 63.8256 123.677 63.6202 124.106C63.4243 124.535 63.1443 124.899 62.7803 125.198C62.4163 125.497 61.9869 125.725 61.4923 125.884C60.9976 126.043 60.4563 126.122 59.8683 126.122C59.0563 126.122 58.3749 125.987 57.8243 125.716C57.2829 125.455 56.8163 125.081 56.4243 124.596L57.4463 123.602C57.7263 123.947 58.0763 124.218 58.4963 124.414C58.9256 124.61 59.3829 124.708 59.8683 124.708C60.1576 124.708 60.4329 124.666 60.6943 124.582C60.9649 124.507 61.1983 124.386 61.3943 124.218C61.5996 124.05 61.7583 123.835 61.8703 123.574C61.9916 123.313 62.0523 123.005 62.0523 122.65V121.726C61.8096 122.146 61.4689 122.473 61.0303 122.706C60.5916 122.93 60.1203 123.042 59.6163 123.042ZM60.2603 121.544C60.4656 121.544 60.6616 121.511 60.8483 121.446C61.0349 121.381 61.2029 121.292 61.3523 121.18C61.5109 121.068 61.6509 120.937 61.7723 120.788C61.8936 120.639 61.9869 120.48 62.0523 120.312V118.562C61.8843 118.133 61.6229 117.787 61.2683 117.526C60.9136 117.265 60.5403 117.134 60.1483 117.134C59.8589 117.134 59.5929 117.199 59.3503 117.33C59.1169 117.451 58.9163 117.619 58.7483 117.834C58.5803 118.039 58.4496 118.277 58.3563 118.548C58.2723 118.819 58.2303 119.099 58.2303 119.388C58.2303 119.687 58.2816 119.967 58.3843 120.228C58.4869 120.489 58.6269 120.718 58.8043 120.914C58.9909 121.11 59.2056 121.264 59.4483 121.376C59.7003 121.488 59.9709 121.544 60.2603 121.544ZM72.4236 123H70.5476V118.884C70.5476 118.296 70.445 117.867 70.2396 117.596C70.0343 117.325 69.7496 117.19 69.3856 117.19C69.199 117.19 69.0076 117.227 68.8116 117.302C68.6156 117.377 68.429 117.484 68.2516 117.624C68.0836 117.755 67.9296 117.913 67.7896 118.1C67.6496 118.287 67.547 118.492 67.4816 118.716V123H65.6056V115.664H67.2996V117.022C67.5703 116.555 67.9623 116.191 68.4756 115.93C68.989 115.669 69.5676 115.538 70.2116 115.538C70.669 115.538 71.0423 115.622 71.3316 115.79C71.621 115.958 71.845 116.177 72.0036 116.448C72.1623 116.719 72.2696 117.027 72.3256 117.372C72.391 117.717 72.4236 118.067 72.4236 118.422V123ZM25.431 131.664C25.3657 131.599 25.2443 131.51 25.067 131.398C24.899 131.286 24.689 131.179 24.437 131.076C24.1943 130.964 23.9283 130.871 23.639 130.796C23.3497 130.721 23.0557 130.684 22.757 130.684C22.225 130.684 21.8283 130.782 21.567 130.978C21.3057 131.174 21.175 131.449 21.175 131.804C21.175 132.009 21.2217 132.182 21.315 132.322C21.4177 132.453 21.5623 132.569 21.749 132.672C21.9357 132.775 22.169 132.868 22.449 132.952C22.7383 133.036 23.0697 133.125 23.443 133.218C23.9283 133.349 24.367 133.489 24.759 133.638C25.1603 133.787 25.4963 133.974 25.767 134.198C26.047 134.422 26.2617 134.693 26.411 135.01C26.5603 135.318 26.635 135.701 26.635 136.158C26.635 136.69 26.5323 137.147 26.327 137.53C26.131 137.903 25.865 138.207 25.529 138.44C25.193 138.673 24.801 138.846 24.353 138.958C23.905 139.061 23.4383 139.112 22.953 139.112C22.2063 139.112 21.469 139 20.741 138.776C20.013 138.552 19.3597 138.235 18.781 137.824L19.635 136.158C19.719 136.242 19.8683 136.354 20.083 136.494C20.307 136.625 20.5683 136.76 20.867 136.9C21.1657 137.031 21.497 137.143 21.861 137.236C22.225 137.329 22.5983 137.376 22.981 137.376C24.045 137.376 24.577 137.035 24.577 136.354C24.577 136.13 24.5163 135.943 24.395 135.794C24.2737 135.645 24.101 135.514 23.877 135.402C23.653 135.29 23.3823 135.187 23.065 135.094C22.7477 135.001 22.393 134.903 22.001 134.8C21.525 134.669 21.1097 134.529 20.755 134.38C20.4097 134.221 20.1203 134.039 19.887 133.834C19.6537 133.629 19.4763 133.386 19.355 133.106C19.243 132.826 19.187 132.495 19.187 132.112C19.187 131.608 19.2803 131.16 19.467 130.768C19.6537 130.376 19.9103 130.049 20.237 129.788C20.573 129.527 20.9603 129.331 21.399 129.2C21.8377 129.06 22.309 128.99 22.813 128.99C23.513 128.99 24.157 129.102 24.745 129.326C25.333 129.541 25.8463 129.797 26.285 130.096L25.431 131.664ZM31.3143 139.14C30.7169 139.14 30.1803 139.037 29.7043 138.832C29.2283 138.627 28.8223 138.351 28.4863 138.006C28.1596 137.651 27.9076 137.245 27.7303 136.788C27.5529 136.331 27.4643 135.85 27.4643 135.346C27.4643 134.833 27.5529 134.347 27.7303 133.89C27.9076 133.433 28.1596 133.031 28.4863 132.686C28.8223 132.331 29.2283 132.051 29.7043 131.846C30.1803 131.641 30.7169 131.538 31.3143 131.538C31.9116 131.538 32.4436 131.641 32.9103 131.846C33.3863 132.051 33.7876 132.331 34.1143 132.686C34.4503 133.031 34.7069 133.433 34.8843 133.89C35.0616 134.347 35.1503 134.833 35.1503 135.346C35.1503 135.85 35.0616 136.331 34.8843 136.788C34.7069 137.245 34.4549 137.651 34.1283 138.006C33.8016 138.351 33.4003 138.627 32.9243 138.832C32.4483 139.037 31.9116 139.14 31.3143 139.14ZM29.3963 135.346C29.3963 135.673 29.4429 135.971 29.5363 136.242C29.6389 136.503 29.7743 136.732 29.9423 136.928C30.1196 137.124 30.3249 137.278 30.5583 137.39C30.7916 137.493 31.0436 137.544 31.3143 137.544C31.5849 137.544 31.8369 137.493 32.0703 137.39C32.3036 137.278 32.5043 137.124 32.6723 136.928C32.8496 136.732 32.9849 136.499 33.0783 136.228C33.1809 135.957 33.2323 135.659 33.2323 135.332C33.2323 135.015 33.1809 134.721 33.0783 134.45C32.9849 134.179 32.8496 133.946 32.6723 133.75C32.5043 133.554 32.3036 133.405 32.0703 133.302C31.8369 133.19 31.5849 133.134 31.3143 133.134C31.0436 133.134 30.7916 133.19 30.5583 133.302C30.3249 133.414 30.1196 133.568 29.9423 133.764C29.7743 133.96 29.6389 134.193 29.5363 134.464C29.4429 134.735 29.3963 135.029 29.3963 135.346ZM36.3748 128.78H38.2508V136.564C38.2508 137.133 38.5075 137.418 39.0208 137.418C39.1235 137.418 39.2402 137.399 39.3708 137.362C39.5108 137.325 39.6415 137.283 39.7628 137.236L40.0148 138.734C39.7628 138.855 39.4688 138.949 39.1328 139.014C38.7968 139.079 38.4935 139.112 38.2228 139.112C37.6348 139.112 37.1775 138.958 36.8508 138.65C36.5335 138.333 36.3748 137.885 36.3748 137.306V128.78ZM43.0722 139.14C42.3162 139.14 41.7422 138.897 41.3502 138.412C40.9582 137.927 40.7622 137.208 40.7622 136.256V131.664H42.6382V135.85C42.6382 136.979 43.0442 137.544 43.8562 137.544C44.2295 137.544 44.5842 137.437 44.9202 137.222C45.2655 136.998 45.5455 136.662 45.7602 136.214V131.664H47.6362V136.844C47.6362 137.04 47.6735 137.18 47.7482 137.264C47.8229 137.348 47.9535 137.395 48.1402 137.404V139C47.9442 139.037 47.7715 139.061 47.6222 139.07C47.4729 139.089 47.3422 139.098 47.2302 139.098C46.8942 139.098 46.6282 139.023 46.4322 138.874C46.2455 138.715 46.1289 138.501 46.0822 138.23L46.0402 137.628C45.7042 138.132 45.2795 138.51 44.7662 138.762C44.2622 139.014 43.6975 139.14 43.0722 139.14ZM53.8965 138.622C53.6445 138.734 53.3318 138.846 52.9585 138.958C52.5945 139.07 52.2118 139.126 51.8105 139.126C51.5492 139.126 51.3018 139.093 51.0685 139.028C50.8445 138.963 50.6438 138.86 50.4665 138.72C50.2985 138.571 50.1632 138.384 50.0605 138.16C49.9578 137.927 49.9065 137.647 49.9065 137.32V133.106H48.9545V131.664H49.9065V129.284H51.7825V131.664H53.3365V133.106H51.7825V136.69C51.7825 136.951 51.8525 137.138 51.9925 137.25C52.1325 137.353 52.3005 137.404 52.4965 137.404C52.6925 137.404 52.8838 137.371 53.0705 137.306C53.2572 137.241 53.4065 137.185 53.5185 137.138L53.8965 138.622ZM54.8322 139V131.664H56.7082V139H54.8322ZM54.8322 130.642V128.78H56.7082V130.642H54.8322ZM61.7752 139.14C61.1779 139.14 60.6412 139.037 60.1652 138.832C59.6892 138.627 59.2832 138.351 58.9472 138.006C58.6205 137.651 58.3685 137.245 58.1912 136.788C58.0139 136.331 57.9252 135.85 57.9252 135.346C57.9252 134.833 58.0139 134.347 58.1912 133.89C58.3685 133.433 58.6205 133.031 58.9472 132.686C59.2832 132.331 59.6892 132.051 60.1652 131.846C60.6412 131.641 61.1779 131.538 61.7752 131.538C62.3725 131.538 62.9045 131.641 63.3712 131.846C63.8472 132.051 64.2485 132.331 64.5752 132.686C64.9112 133.031 65.1679 133.433 65.3452 133.89C65.5225 134.347 65.6112 134.833 65.6112 135.346C65.6112 135.85 65.5225 136.331 65.3452 136.788C65.1679 137.245 64.9159 137.651 64.5892 138.006C64.2625 138.351 63.8612 138.627 63.3852 138.832C62.9092 139.037 62.3725 139.14 61.7752 139.14ZM59.8572 135.346C59.8572 135.673 59.9039 135.971 59.9972 136.242C60.0999 136.503 60.2352 136.732 60.4032 136.928C60.5805 137.124 60.7859 137.278 61.0192 137.39C61.2525 137.493 61.5045 137.544 61.7752 137.544C62.0459 137.544 62.2979 137.493 62.5312 137.39C62.7645 137.278 62.9652 137.124 63.1332 136.928C63.3105 136.732 63.4459 136.499 63.5392 136.228C63.6419 135.957 63.6932 135.659 63.6932 135.332C63.6932 135.015 63.6419 134.721 63.5392 134.45C63.4459 134.179 63.3105 133.946 63.1332 133.75C62.9652 133.554 62.7645 133.405 62.5312 133.302C62.2979 133.19 62.0459 133.134 61.7752 133.134C61.5045 133.134 61.2525 133.19 61.0192 133.302C60.7859 133.414 60.5805 133.568 60.4032 133.764C60.2352 133.96 60.0999 134.193 59.9972 134.464C59.9039 134.735 59.8572 135.029 59.8572 135.346ZM73.6678 139H71.7918V134.884C71.7918 134.296 71.6891 133.867 71.4838 133.596C71.2784 133.325 70.9938 133.19 70.6298 133.19C70.4431 133.19 70.2518 133.227 70.0558 133.302C69.8598 133.377 69.6731 133.484 69.4958 133.624C69.3278 133.755 69.1738 133.913 69.0338 134.1C68.8938 134.287 68.7911 134.492 68.7258 134.716V139H66.8498V131.664H68.5438V133.022C68.8144 132.555 69.2064 132.191 69.7198 131.93C70.2331 131.669 70.8118 131.538 71.4558 131.538C71.9131 131.538 72.2864 131.622 72.5758 131.79C72.8651 131.958 73.0891 132.177 73.2478 132.448C73.4064 132.719 73.5138 133.027 73.5698 133.372C73.6351 133.717 73.6678 134.067 73.6678 134.422V139ZM78.1696 139.14C77.871 139.14 77.5583 139.117 77.2316 139.07C76.9143 139.023 76.6016 138.958 76.2936 138.874C75.9856 138.79 75.6916 138.687 75.4116 138.566C75.1316 138.445 74.8843 138.309 74.6696 138.16L75.4256 136.886C76.359 137.493 77.2596 137.796 78.1276 137.796C78.5196 137.796 78.8276 137.726 79.0516 137.586C79.2756 137.446 79.3876 137.245 79.3876 136.984C79.3876 136.723 79.2523 136.531 78.9816 136.41C78.7203 136.279 78.277 136.139 77.6516 135.99C77.1756 135.878 76.7696 135.761 76.4336 135.64C76.0976 135.519 75.827 135.379 75.6216 135.22C75.4163 135.061 75.267 134.879 75.1736 134.674C75.0803 134.469 75.0336 134.226 75.0336 133.946C75.0336 133.573 75.1083 133.237 75.2576 132.938C75.407 132.639 75.6123 132.387 75.8736 132.182C76.1443 131.967 76.457 131.804 76.8116 131.692C77.1756 131.58 77.5676 131.524 77.9876 131.524C78.5103 131.524 79.0283 131.608 79.5416 131.776C80.0643 131.935 80.5496 132.154 80.9976 132.434L80.2276 133.596C79.817 133.335 79.4296 133.148 79.0656 133.036C78.7016 132.915 78.3376 132.854 77.9736 132.854C77.6376 132.854 77.353 132.919 77.1196 133.05C76.8956 133.181 76.7836 133.391 76.7836 133.68C76.7836 133.932 76.891 134.114 77.1056 134.226C77.3296 134.338 77.7216 134.464 78.2816 134.604C78.8043 134.735 79.2476 134.865 79.6116 134.996C79.985 135.127 80.2883 135.276 80.5216 135.444C80.7643 135.612 80.937 135.808 81.0396 136.032C81.1516 136.247 81.2076 136.508 81.2076 136.816C81.2076 137.171 81.133 137.493 80.9836 137.782C80.8436 138.071 80.643 138.319 80.3816 138.524C80.1203 138.72 79.7983 138.874 79.4156 138.986C79.0423 139.089 78.627 139.14 78.1696 139.14Z" fill="#322153"/>
</svg>
