<?xml version="1.0" encoding="UTF-8"?>
<svg width="375px" height="812px" viewBox="0 0 375 812" version="1.1" xmlns="http://www.w3.org/2000/svg" xmlns:xlink="http://www.w3.org/1999/xlink">
    <!-- Generator: Sketch 51.3 (57544) - http://www.bohemiancoding.com/sketch -->
    <title>Game</title>
    <desc>Created with Sketch.</desc>
    <defs>
        <linearGradient x1="49.997205%" y1="100%" x2="49.997205%" y2="50.0005607%" id="linearGradient-1">
            <stop stop-color="#E09322" offset="0%"></stop>
            <stop stop-color="#862A09" offset="100%"></stop>
        </linearGradient>
        <linearGradient x1="49.997205%" y1="100%" x2="49.997205%" y2="0.000934492104%" id="linearGradient-2">
            <stop stop-color="#5B9F01" offset="0%"></stop>
            <stop stop-color="#183900" offset="100%"></stop>
        </linearGradient>
        <text id="text-3" font-family="AvenirNext-Regular, Avenir Next" font-size="64" font-weight="normal" letter-spacing="-1.33333302" fill="#FFFFFF">
            <tspan x="257" y="117">74°</tspan>
        </text>
        <filter x="-7.3%" y="-5.7%" width="114.6%" height="116.1%" filterUnits="objectBoundingBox" id="filter-4">
            <feOffset dx="0" dy="2" in="SourceAlpha" result="shadowOffsetOuter1"></feOffset>
            <feGaussianBlur stdDeviation="2" in="shadowOffsetOuter1" result="shadowBlurOuter1"></feGaussianBlur>
            <feColorMatrix values="0 0 0 0 0.847   0 0 0 0 0.847   0 0 0 0 0.847  0 0 0 1 0" type="matrix" in="shadowBlurOuter1"></feColorMatrix>
        </filter>
    </defs>
    <g id="Game" stroke="none" stroke-width="1" fill="none" fill-rule="evenodd">
        <rect fill="#246432" opacity="0.465664629" x="0" y="0" width="375" height="812"></rect>
        <g id="Group-2" transform="translate(-1.000000, 0.000000)">
            <rect id="Rectangle-2" fill="#F9F9F9" x="1" y="729" width="375" height="83"></rect>
            <g id="iPhone-X/iPhone-X-Frame" transform="translate(1.000000, 0.000000)" fill="#000000">
                <path d="M-7.10542736e-15,0 L375,0 L375,812 L-7.10542736e-15,812 L-7.10542736e-15,0 Z M40,0 L335,7.10542736e-15 C357.09139,3.04730485e-15 375,17.90861 375,40 L375,772 C375,794.09139 357.09139,812 335,812 L40,812 C17.90861,812 2.705415e-15,794.09139 -1.51461294e-28,772 L-1.51461294e-28,40 C-2.705415e-15,17.90861 17.90861,1.11635499e-14 40,7.10542736e-15 Z M106.039054,31 L268.960946,31 C281.663495,31 291.960946,20.7025492 291.960946,8 C291.960946,7.99147462 291.95879,6.71458263 291.954479,4.16932405 L291.954478,4.16932405 C291.954323,4.07746778 291.970341,3.98630146 292.001801,3.9000001 C292.001801,3.9000001 292.001801,3.9000001 292.001801,3.9000001 C292.667785,2.07301174 294.211271,0.676168263 296.108167,0.216238031 L297,0 L78,0 L78.8918331,0.216238031 C80.7796201,0.673959707 82.3332983,2.08608489 83.0043945,3.9000001 C83.0192652,3.94019419 83.0330484,3.98600042 83.0457442,4.03741878 L83.0390876,7.96097867 C83.0390545,20.7025492 93.3365052,31 106.039054,31 Z" id="iPhone-X-Frame"></path>
            </g>
            <g id="iPhone-X/Status-Bars/Status-Bar-(Black)" transform="translate(2.000000, 0.000000)">
                <g>
                    <rect id="Rectangle" x="0" y="0" width="375" height="44"></rect>
                    <g id="Battery" transform="translate(336.000000, 17.000000)">
                        <rect id="Border" stroke="#000000" opacity="0.35" x="0.5" y="0.833333333" width="21" height="10.3333333" rx="2.66666675"></rect>
                        <path d="M23,4 L23,8 C23.8047311,7.66122348 24.328038,6.87313328 24.328038,6 C24.328038,5.12686672 23.8047311,4.33877652 23,4" id="Cap" fill="#000000" fill-rule="nonzero" opacity="0.4"></path>
                        <rect id="Capacity" fill="#000000" fill-rule="nonzero" x="2" y="2.33333333" width="18" height="7.33333333" rx="1.33333337"></rect>
                    </g>
                    <path d="M323.330333,19.608 C325.546226,19.6080971 327.677386,20.4595347 329.283333,21.9863333 C329.404265,22.1042079 329.597562,22.102721 329.716667,21.983 L330.872667,20.8163333 C330.932975,20.7556112 330.966599,20.6733595 330.966098,20.5877792 C330.965598,20.5021988 330.931014,20.420346 330.87,20.3603333 C326.654902,16.3207858 320.005098,16.3207858 315.79,20.3603333 C315.728941,20.4203015 315.694297,20.5021294 315.693734,20.5877099 C315.693171,20.6732903 315.726736,20.755567 315.787,20.8163333 L316.943333,21.983 C317.062362,22.1029017 317.255808,22.1043897 317.376667,21.9863333 C318.982819,20.4594344 321.114223,19.6079944 323.330333,19.608 Z M323.330333,23.4036667 C324.547823,23.4035921 325.721865,23.8561245 326.624333,24.6733333 C326.746397,24.7893139 326.938678,24.7867994 327.057667,24.6676667 L328.212333,23.501 C328.273141,23.439805 328.30688,23.3567887 328.306003,23.2705239 C328.305126,23.1842592 328.269706,23.101946 328.207667,23.042 C325.459468,20.4856177 321.203532,20.4856177 318.455333,23.042 C318.393256,23.1019453 318.357837,23.1842997 318.357023,23.2705923 C318.356208,23.356885 318.390065,23.4398934 318.451,23.501 L319.605333,24.6676667 C319.724322,24.7867994 319.916603,24.7893139 320.038667,24.6733333 C320.940539,23.8566645 322.113649,23.4041708 323.330333,23.4036667 Z M325.549333,26.188 C325.611087,26.127394 325.645095,26.0439919 325.643328,25.957485 C325.641561,25.8709782 325.604176,25.7890342 325.54,25.731 C324.264428,24.6521162 322.396238,24.6521162 321.120667,25.731 C321.056446,25.7889875 321.019,25.8709057 321.01717,25.957413 C321.01534,26.0439203 321.049289,26.1273487 321.111,26.188 L323.108667,28.2036667 C323.167217,28.2629057 323.247042,28.2962443 323.330333,28.2962443 C323.413624,28.2962443 323.49345,28.2629057 323.552,28.2036667 L325.549333,26.188 Z" id="Wifi" fill="#000000" fill-rule="nonzero"></path>
                    <path d="M294.666667,24.3333333 L295.666667,24.3333333 C296.218951,24.3333333 296.666667,24.7810486 296.666667,25.3333333 L296.666667,27.3333333 C296.666667,27.8856181 296.218951,28.3333333 295.666667,28.3333333 L294.666667,28.3333333 C294.114382,28.3333333 293.666667,27.8856181 293.666667,27.3333333 L293.666667,25.3333333 C293.666667,24.7810486 294.114382,24.3333333 294.666667,24.3333333 Z M299.333333,22.3333333 L300.333333,22.3333333 C300.885618,22.3333333 301.333333,22.7810486 301.333333,23.3333333 L301.333333,27.3333333 C301.333333,27.8856181 300.885618,28.3333333 300.333333,28.3333333 L299.333333,28.3333333 C298.781049,28.3333333 298.333333,27.8856181 298.333333,27.3333333 L298.333333,23.3333333 C298.333333,22.7810486 298.781049,22.3333333 299.333333,22.3333333 Z M304,20 L305,20 C305.552285,20 306,20.4477153 306,21 L306,27.3333333 C306,27.8856181 305.552285,28.3333333 305,28.3333333 L304,28.3333333 C303.447715,28.3333333 303,27.8856181 303,27.3333333 L303,21 C303,20.4477153 303.447715,20 304,20 Z M308.666667,17.6666667 L309.666667,17.6666667 C310.218951,17.6666667 310.666667,18.1143819 310.666667,18.6666667 L310.666667,27.3333333 C310.666667,27.8856181 310.218951,28.3333333 309.666667,28.3333333 L308.666667,28.3333333 C308.114382,28.3333333 307.666667,27.8856181 307.666667,27.3333333 L307.666667,18.6666667 C307.666667,18.1143819 308.114382,17.6666667 308.666667,17.6666667 Z" id="Cellular-Connection" fill="#000000" fill-rule="nonzero"></path>
                    <g id="iPhone-X/Overrides/Time-Black" transform="translate(21.000000, 13.000000)" fill="#000000" font-family="Helvetica" font-size="14" font-weight="normal" letter-spacing="-0.280000001">
                        <text id="↳-Time">
                            <tspan x="13.7959766" y="16.5">9:4</tspan>
                            <tspan x="32.4178906" y="16.5">1</tspan>
                        </text>
                    </g>
                </g>
            </g>
            <g id="iPhone-X/Home-Indicator/Home-Indicator---On-Light" transform="translate(2.000000, 783.000000)" fill="#000000">
                <rect id="Rectangle-24" x="121" y="20" width="134" height="5" rx="2.5"></rect>
            </g>
            <path d="M0.5,728.5 L377.5,728.5" id="Line-4" stroke="#979797" stroke-linecap="square"></path>
            <g id="naviagtion" transform="translate(22.000000, 744.000000)"></g>
            <circle id="Oval-4" fill="#2F2727" cx="162" cy="786" r="3"></circle>
            <g id="shopping-cart-(1)" opacity="0.34" transform="translate(325.000000, 745.000000)" fill="#000000" fill-rule="nonzero">
                <path d="M27.7894737,31.1666667 C28.1768092,31.1666667 28.4912281,30.8493001 28.4912281,30.4583333 C28.4912281,30.0673666 28.1768092,29.75 27.7894737,29.75 C27.4021382,29.75 27.0877193,30.0673666 27.0877193,30.4583333 C27.0877193,30.8493001 27.4021382,31.1666667 27.7894737,31.1666667 Z" id="Shape"></path>
                <path d="M16.1403509,31.1666667 C16.5276864,31.1666667 16.8421053,30.8493001 16.8421053,30.4583333 C16.8421053,30.0673666 16.5276864,29.75 16.1403509,29.75 C15.7530154,29.75 15.4385965,30.0673666 15.4385965,30.4583333 C15.4385965,30.8493001 15.7530154,31.1666667 16.1403509,31.1666667 Z" id="Shape"></path>
                <path d="M35.78125,8.7725423 C35.6483004,8.60043947 35.4440789,8.5 35.2280702,8.5 L9.96463818,8.5 L8.36513158,1.63802083 C8.13980267,0.673470017 7.29687502,0 6.31578947,0 L2.10526316,0 C0.944353053,0 0,0.953206363 0,2.125 C0,3.29679364 0.944353053,4.25 2.10526316,4.25 L4.64830042,4.25 L9.88048246,26.6953125 C10.1058114,27.6598633 10.948739,28.3333333 11.9298246,28.3333333 L13.3352522,28.3333333 C12.8936404,28.9257324 12.6315789,29.661735 12.6315789,30.4583333 C12.6315789,32.4112304 14.2055921,34 16.1403509,34 C18.0751096,34 19.6491228,32.4112304 19.6491228,30.4583333 C19.6491228,29.661735 19.3870614,28.9257324 18.9454495,28.3333333 L24.984375,28.3333333 C24.5427632,28.9257324 24.2807018,29.661735 24.2807018,30.4583333 C24.2807018,32.4112304 25.8547149,34 27.7894737,34 C29.7242324,34 31.2982456,32.4112304 31.2982456,30.4583333 C31.2982456,29.661735 31.0361842,28.9257324 30.5945724,28.3333333 L30.5964912,28.3333333 C31.7574013,28.3333333 32.7017544,27.380127 32.7017544,26.2083333 C32.7017544,25.0365397 31.7574013,24.0833333 30.5964912,24.0833333 L13.5973136,24.0833333 L12.9366776,21.25 L17.0504386,21.25 L17.0518092,21.25 L17.0529057,21.25 L27.2979715,21.25 L27.2993421,21.25 L27.3007127,21.25 L31.3251096,21.25 C32.2924891,21.25 33.1326754,20.588151 33.3678728,19.6402019 L35.9089912,9.38015949 C35.9613487,9.16848958 35.9141996,8.94436853 35.78125,8.7725423 Z M33.2765899,14.1666667 L28.7949561,14.1666667 L29.3212719,9.91666667 L34.3292215,9.91666667 L33.2765899,14.1666667 Z M24.9824561,15.5833333 L27.2050439,15.5833333 L26.6787281,19.8333333 L22.877193,19.8333333 L22.877193,17.7083333 C22.877193,17.3170898 22.5630483,17 22.1754386,17 C21.7878289,17 21.4736842,17.3170898 21.4736842,17.7083333 L21.4736842,19.8333333 L17.6721491,19.8333333 L17.1458333,15.5833333 L19.3684211,15.5833333 C19.7560307,15.5833333 20.0701754,15.2662435 20.0701754,14.875 C20.0701754,14.4837565 19.7560307,14.1666667 19.3684211,14.1666667 L16.9703947,14.1666667 L16.4440789,9.91666667 L21.4736842,9.91666667 L21.4736842,12.0416667 C21.4736842,12.4329102 21.7878289,12.75 22.1754386,12.75 C22.5630483,12.75 22.877193,12.4329102 22.877193,12.0416667 L22.877193,9.91666667 L27.9067982,9.91666667 L27.3804825,14.1666667 L24.9824561,14.1666667 C24.5948465,14.1666667 24.2807018,14.4837565 24.2807018,14.875 C24.2807018,15.2662435 24.5948465,15.5833333 24.9824561,15.5833333 Z M12.6063596,19.8333333 L11.6156799,15.5833333 L15.7313596,15.5833333 L16.2576754,19.8333333 L12.6063596,19.8333333 Z M15.0296053,9.91666667 L15.5559211,14.1666667 L11.2853618,14.1666667 L10.2949561,9.91666667 L15.0296053,9.91666667 Z M18.245614,30.4583333 C18.245614,31.630127 17.301261,32.5833333 16.1403509,32.5833333 C14.9794408,32.5833333 14.0350877,31.630127 14.0350877,30.4583333 C14.0350877,29.2865397 14.9794408,28.3333333 16.1403509,28.3333333 C17.301261,28.3333333 18.245614,29.2865397 18.245614,30.4583333 Z M29.8947368,30.4583333 C29.8947368,31.630127 28.9503838,32.5833333 27.7894737,32.5833333 C26.6285636,32.5833333 25.6842105,31.630127 25.6842105,30.4583333 C25.6842105,29.2865397 26.6285636,28.3333333 27.7894737,28.3333333 C28.9503838,28.3333333 29.8947368,29.2865397 29.8947368,30.4583333 Z M30.5964912,25.5 C30.9835526,25.5 31.2982456,25.8176432 31.2982456,26.2083333 C31.2982456,26.5990234 30.9835526,26.9166667 30.5964912,26.9166667 L11.9298246,26.9166667 C11.6027961,26.9166667 11.3218202,26.6919922 11.2467105,26.3704752 L5.75986842,2.83333333 L2.10526316,2.83333333 C1.71820175,2.83333333 1.40350877,2.5156901 1.40350877,2.125 C1.40350877,1.7343099 1.71820175,1.41666667 2.10526316,1.41666667 L6.31578947,1.41666667 C6.64281796,1.41666667 6.92379382,1.64134115 6.99890351,1.96285811 L11.3629386,20.68361 C11.3632127,20.6847168 11.3634869,20.6858235 11.363761,20.6872071 L12.4857456,25.5 L30.5964912,25.5 Z M32.0063048,19.2962728 C31.9279057,19.6125325 31.6477522,19.8333333 31.3248355,19.8333333 L28.0932018,19.8333333 L28.6195175,15.5833333 L32.9259868,15.5833333 L32.0063048,19.2962728 Z" id="Shape"></path>
                <path d="M22.1754386,14.1666667 C21.7881031,14.1666667 21.4736842,14.4840332 21.4736842,14.875 C21.4736842,15.2659668 21.7881031,15.5833333 22.1754386,15.5833333 C22.5627741,15.5833333 22.877193,15.2659668 22.877193,14.875 C22.877193,14.4840332 22.5627741,14.1666667 22.1754386,14.1666667 Z" id="Shape"></path>
            </g>
            <g id="email-(1)" opacity="0.34" transform="translate(264.000000, 749.000000)" fill="#000000" fill-rule="nonzero">
                <path d="M38.4962183,0.0555945419 L13.117271,0.0555945419 C12.7798051,0.0555945419 12.5061988,0.329122807 12.5061988,0.666666667 C12.5061988,1.00413255 12.7798051,1.27773879 13.117271,1.27773879 L38.4962963,1.27773879 C38.6067057,1.27773879 38.699961,1.37091618 38.699961,1.48140351 L38.699961,24.0247953 C38.699961,24.1352047 38.6067057,24.22846 38.4962963,24.22846 L36.179883,24.22846 L36.179883,5.29302144 C36.179883,4.50690058 35.5403509,3.86721248 34.7540741,3.86721248 L4.9642885,3.86721248 L4.9642885,1.48132554 C4.9642885,1.37083821 5.05754386,1.27766082 5.16795322,1.27766082 L10.428538,1.27766082 C10.7660039,1.27766082 11.0396101,1.00405458 11.0396101,0.666588694 C11.0396101,0.329044834 10.7660039,0.0555165692 10.428538,0.0555165692 L5.16795322,0.0555165692 C4.38183236,0.0555165692 3.74214425,0.695126706 3.74214425,1.48132554 L3.74214425,3.86721248 L1.42580897,3.86721248 C0.639610136,3.86721248 0,4.50682261 0,5.29302144 L0,27.8364133 C0,28.6225341 0.639610136,29.2622222 1.42580897,29.2622222 L25.908616,29.2622222 C26.2460819,29.2622222 26.5196881,28.988694 26.5196881,28.6511501 C26.5196881,28.3136062 26.2460819,28.040078 25.908616,28.040078 L1.42580897,28.040078 C1.31539961,28.040078 1.22214425,27.9468226 1.22214425,27.8364133 L1.22214425,5.95345029 L17.0817934,21.8130994 C17.3504873,22.0817934 17.70846,22.2297856 18.0900585,22.2297856 C18.4716569,22.2297856 18.8296296,22.0817934 19.0982456,21.8131774 L26.4221442,14.4892788 C26.6607407,14.2505263 26.6607407,13.8637037 26.4221442,13.6251072 C26.1835478,13.3865887 25.7965692,13.3865887 25.5580507,13.6251072 L18.2340741,20.9491618 C18.1830799,21.0001559 18.1219493,21.0077973 18.0900585,21.0077973 C18.0581676,21.0077973 17.997115,21.0001559 17.9460429,20.9490838 L2.08631579,5.08927875 L34.0935673,5.08927875 L27.2374269,11.9454191 C26.9988304,12.1841715 26.9988304,12.5709942 27.2374269,12.8095906 C27.3567251,12.9288889 27.5131384,12.988538 27.6694737,12.988538 C27.825809,12.988538 27.9822222,12.9288889 28.1015205,12.8095906 L34.9576608,5.95337232 L34.9576608,27.8363353 C34.9576608,27.9467446 34.8644055,28.04 34.7539961,28.04 L28.43423,28.04 C28.0967641,28.04 27.8231579,28.3135283 27.8231579,28.6510721 C27.8231579,28.988616 28.0967641,29.2621442 28.43423,29.2621442 L34.7540741,29.2621442 C35.5402729,29.2621442 36.179883,28.6225341 36.179883,27.8363353 L36.179883,25.4504483 L38.4962963,25.4504483 C39.2824172,25.4504483 39.9221053,24.8107602 39.9221053,24.0246394 L39.9221053,1.48132554 C39.9220273,0.695126706 39.2824172,0.0555945419 38.4962183,0.0555945419 Z" id="Shape"></path>
                <path d="M9.61387914,24.7208577 L3.99220273,24.7208577 C3.65473684,24.7208577 3.3811306,24.994386 3.3811306,25.3319298 C3.3811306,25.6694737 3.65473684,25.9430019 3.99220273,25.9430019 L9.61387914,25.9430019 C9.95134503,25.9430019 10.2249513,25.6694737 10.2249513,25.3319298 C10.2249513,24.994386 9.95134503,24.7208577 9.61387914,24.7208577 Z" id="Shape"></path>
                <path d="M9.61387914,22.4396101 L3.99220273,22.4396101 C3.65473684,22.4396101 3.3811306,22.7131384 3.3811306,23.0506823 C3.3811306,23.3882261 3.65473684,23.6617544 3.99220273,23.6617544 L9.61387914,23.6617544 C9.95134503,23.6617544 10.2249513,23.3882261 10.2249513,23.0506823 C10.2249513,22.7130604 9.95134503,22.4396101 9.61387914,22.4396101 Z" id="Shape"></path>
                <path d="M7.16966862,20.1583626 L3.99220273,20.1583626 C3.65473684,20.1583626 3.3811306,20.4318908 3.3811306,20.7694347 C3.3811306,21.1069786 3.65473684,21.3805068 3.99220273,21.3805068 L7.16966862,21.3805068 C7.5071345,21.3805068 7.78074074,21.1069786 7.78074074,20.7694347 C7.78074074,20.4318129 7.5071345,20.1583626 7.16966862,20.1583626 Z" id="Shape"></path>
                <path d="M30.5525926,20.3212476 C29.002729,20.3212476 27.7417544,21.5822222 27.7417544,23.1320858 C27.7417544,24.6819493 29.002729,25.942924 30.5525926,25.942924 C32.1024561,25.942924 33.3634308,24.6819493 33.3634308,23.1320858 C33.3634308,21.5822222 32.1024561,20.3212476 30.5525926,20.3212476 Z M30.5525926,24.7208577 C29.6765692,24.7208577 28.9638986,24.0081092 28.9638986,23.1320858 C28.9638986,22.2560624 29.6766472,21.5433918 30.5525926,21.5433918 C31.428538,21.5433918 32.1412865,22.2561404 32.1412865,23.1320858 C32.1412865,24.0081092 31.428538,24.7208577 30.5525926,24.7208577 Z" id="Shape"></path>
            </g>
            <g id="recipe-book-(1)" opacity="0.34" transform="translate(200.000000, 749.000000)" fill="#000000" fill-rule="nonzero">
                <path d="M41.3028655,7.8865848 C41.6426316,7.8865848 41.9181287,7.61108772 41.9181287,7.27132164 L41.9181287,3.25176608 C41.9181287,2.912 41.6426316,2.63650292 41.3028655,2.63650292 L21.5149708,2.63650292 C21.2266199,1.14308772 19.9103743,0.0114619883 18.3340234,0.0114619883 L3.24022222,0.0114619883 C2.90045614,0.0114619883 2.62495906,0.286959064 2.62495906,0.626725146 L2.62495906,2.63650292 L0.615263158,2.63650292 C0.275497076,2.63650292 0,2.912 0,3.25176608 L0,29.501848 C0,29.841614 0.275497076,30.1171111 0.615263158,30.1171111 L41.3029474,30.1171111 C41.6427135,30.1171111 41.9182105,29.841614 41.9182105,29.501848 L41.9182105,10.1151228 C41.9182105,9.77535673 41.6427135,9.49985965 41.3029474,9.49985965 C40.9631813,9.49985965 40.6876842,9.77535673 40.6876842,10.1151228 L40.6876842,28.8866667 L21.5743275,28.8866667 L21.5743275,3.86702924 L31.5001637,3.86702924 L31.5001637,9.81432749 C31.5001637,10.2958129 32.0550877,10.594152 32.4566667,10.3261871 L34.0841871,9.2411462 L35.7117076,10.3261871 C36.1136959,10.5942339 36.6682105,10.2952398 36.6682105,9.81432749 L36.6682105,3.86702924 L40.6877661,3.86702924 L40.6877661,7.27132164 C40.6876842,7.61108772 40.9630994,7.8865848 41.3028655,7.8865848 Z M1.23044444,28.8866667 L1.23044444,3.86702924 L2.62495906,3.86702924 L2.62495906,26.8768889 C2.62495906,27.216655 2.90045614,27.492152 3.24022222,27.492152 L18.3340234,27.492152 C19.2276491,27.492152 19.9865146,28.0785965 20.2471111,28.8866667 L1.23044444,28.8866667 Z M20.3438012,26.9619532 C19.7910877,26.5236959 19.0925614,26.2616257 18.3340234,26.2616257 L3.85548538,26.2616257 L3.85548538,1.2419883 L18.3340234,1.2419883 C19.442152,1.2419883 20.3438012,2.14363743 20.3438012,3.25176608 L20.3438012,26.9619532 Z M35.4376023,8.66469006 L34.425345,7.98982456 C34.3219415,7.92088889 34.2030643,7.88650292 34.0841053,7.88650292 C33.9651462,7.88650292 33.8461871,7.92097076 33.7428655,7.98982456 L32.7306082,8.66469006 L32.7306082,3.86702924 L35.4376842,3.86702924 L35.4376842,8.66469006 L35.4376023,8.66469006 Z" id="Shape"></path>
                <path d="M18.6508655,11.1560351 C18.1462105,10.6512982 17.398807,10.4272982 16.600807,10.5412632 C15.8563509,10.647614 15.1218012,11.0307719 14.5325731,11.6200819 C13.457193,12.695462 13.1469825,14.1937076 13.699614,15.2372398 L12.2726784,16.6641754 L10.6667719,15.058269 C11.2690994,14.0644327 11.1420351,12.7493333 10.2845146,11.891731 L8.42840936,10.0356257 C8.18811696,9.79533333 7.7985731,9.79533333 7.55836257,10.0356257 C7.31807018,10.2759181 7.31807018,10.665462 7.55836257,10.9056725 L8.97948538,12.3267953 L8.45747368,12.848807 L7.03635088,11.4276842 C6.79605848,11.1873918 6.40651462,11.1873918 6.16630409,11.4276842 C5.9260117,11.6679766 5.9260117,12.0575205 6.16630409,12.297731 L7.5874269,13.7188538 L7.0654152,14.2408655 L5.64421053,12.8197427 C5.40391813,12.5794503 5.01437427,12.5794503 4.77416374,12.8197427 C4.53387135,13.0600351 4.53387135,13.4495789 4.77416374,13.6897895 L6.63026901,15.5458947 C7.13402339,16.0496491 7.7957076,16.3014854 8.45747368,16.3014854 C8.92225731,16.3014854 9.38679532,16.1767135 9.79680702,15.928152 L11.4027135,17.5340585 L8.03608187,20.9006901 C7.81208187,21.1246082 7.79718129,21.4946667 8.00333333,21.7354503 C8.23339181,22.0040702 8.65584795,22.0210175 8.90604678,21.7707368 L12.2726784,18.4041053 L15.9110409,22.0424678 C16.1613216,22.2927485 16.5836959,22.275883 16.8138363,22.0071813 C17.0200702,21.7663977 17.0051696,21.3963392 16.7810877,21.1724211 L13.1427251,17.5340585 L14.5694971,16.1072865 C14.9072982,16.2872398 15.2984795,16.3822105 15.7141404,16.3822105 C15.8467719,16.3822105 15.9818596,16.3726316 16.1185029,16.3530643 C16.8629591,16.2467135 17.5974269,15.8635556 18.1867368,15.2742456 C18.7760468,14.6849357 19.1591228,13.950386 19.2655556,13.2060117 C19.3796023,12.4079298 19.1556023,11.6606901 18.6508655,11.1560351 Z M9.41446784,14.6759298 C9.04334503,15.0470526 8.50905263,15.1560234 8.04091228,15.0053801 L8.89196491,14.1543275 C8.89212865,14.1541637 8.89221053,14.1540819 8.89237427,14.1539181 C8.89253801,14.1537544 8.89261988,14.1536725 8.89278363,14.1535088 L9.74375439,13.302538 C9.89447953,13.7705965 9.7854269,14.3048889 9.41446784,14.6759298 Z M18.0309357,13.1291345 C17.9353918,13.6133216 17.662924,14.0581287 17.3166901,14.4042807 C16.970538,14.7504327 16.5256491,15.0229006 16.0415439,15.1185263 C15.662152,15.1934386 15.2250409,15.1547953 14.9385731,14.8684094 C14.4198363,14.3495088 14.6322924,13.2603743 15.4026199,12.4900468 C15.7291228,12.1635439 16.141345,11.9049123 16.592538,11.7947135 C16.9936257,11.6967953 17.4724912,11.7175906 17.7808187,12.0260819 C18.0672865,12.3125497 18.1059298,12.7497427 18.0309357,13.1291345 Z" id="Shape"></path>
                <path d="M30.1811345,13.1365848 L24.8965848,13.1365848 C24.5568187,13.1365848 24.2813216,13.4120819 24.2813216,13.751848 C24.2813216,14.091614 24.5568187,14.3671111 24.8965848,14.3671111 L30.1811345,14.3671111 C30.5209006,14.3671111 30.7963977,14.091614 30.7963977,13.751848 C30.7963977,13.4120819 30.5209006,13.1365848 30.1811345,13.1365848 Z" id="Shape"></path>
                <path d="M36.0528655,13.1365848 L32.5298596,13.1365848 C32.1900936,13.1365848 31.9145965,13.4120819 31.9145965,13.751848 C31.9145965,14.091614 32.1900936,14.3671111 32.5298596,14.3671111 L36.0528655,14.3671111 C36.3926316,14.3671111 36.6681287,14.091614 36.6681287,13.751848 C36.6681287,13.4120819 36.3926316,13.1365848 36.0528655,13.1365848 Z" id="Shape"></path>
                <path d="M34.740386,16.4178246 L24.8965848,16.4178246 C24.5568187,16.4178246 24.2813216,16.6933216 24.2813216,17.0330877 C24.2813216,17.3728538 24.5568187,17.6483509 24.8965848,17.6483509 L34.740386,17.6483509 C35.080152,17.6483509 35.3556491,17.3728538 35.3556491,17.0330877 C35.3555673,16.6933216 35.080152,16.4178246 34.740386,16.4178246 Z" id="Shape"></path>
                <path d="M27.8324912,19.6991462 L24.8965848,19.6991462 C24.5568187,19.6991462 24.2813216,19.9746433 24.2813216,20.3144094 C24.2813216,20.6541754 24.5568187,20.9296725 24.8965848,20.9296725 L27.8324912,20.9296725 C28.1722573,20.9296725 28.4477544,20.6541754 28.4477544,20.3144094 C28.4477544,19.9746433 28.1722573,19.6991462 27.8324912,19.6991462 Z" id="Shape"></path>
                <path d="M36.0528655,19.6991462 L30.1811345,19.6991462 C29.8413684,19.6991462 29.5658713,19.9746433 29.5658713,20.3144094 C29.5658713,20.6541754 29.8413684,20.9296725 30.1811345,20.9296725 L36.0528655,20.9296725 C36.3926316,20.9296725 36.6681287,20.6541754 36.6681287,20.3144094 C36.6681287,19.9746433 36.3926316,19.6991462 36.0528655,19.6991462 Z" id="Shape"></path>
                <path d="M31.3554971,22.980386 L24.8965848,22.980386 C24.5568187,22.980386 24.2813216,23.255883 24.2813216,23.5956491 C24.2813216,23.9354152 24.5568187,24.2109123 24.8965848,24.2109123 L31.3554971,24.2109123 C31.6952632,24.2109123 31.9707602,23.9354152 31.9707602,23.5956491 C31.9707602,23.2558012 31.6952632,22.980386 31.3554971,22.980386 Z" id="Shape"></path>
                <path d="M36.0528655,22.980386 L33.7042222,22.980386 C33.3644561,22.980386 33.0889591,23.255883 33.0889591,23.5956491 C33.0889591,23.9354152 33.3644561,24.2109123 33.7042222,24.2109123 L36.0528655,24.2109123 C36.3926316,24.2109123 36.6681287,23.9354152 36.6681287,23.5956491 C36.6681287,23.2558012 36.3926316,22.980386 36.0528655,22.980386 Z" id="Shape"></path>
                <path d="M16.3652632,3.94906433 L7.17774269,3.94906433 C6.83797661,3.94906433 6.56247953,4.2245614 6.56247953,4.56432749 C6.56247953,4.90409357 6.83797661,5.17959064 7.17774269,5.17959064 L16.3652632,5.17959064 C16.7050292,5.17959064 16.9805263,4.90409357 16.9805263,4.56432749 C16.9805263,4.2245614 16.7051111,3.94906433 16.3652632,3.94906433 Z" id="Shape"></path>
                <path d="M10.4590643,6.57402339 L7.17774269,6.57402339 C6.83797661,6.57402339 6.56247953,6.84952047 6.56247953,7.18928655 C6.56247953,7.52905263 6.83797661,7.80454971 7.17774269,7.80454971 L10.4589825,7.80454971 C10.7987485,7.80454971 11.0742456,7.52905263 11.0742456,7.18928655 C11.0742456,6.84952047 10.7988304,6.57402339 10.4590643,6.57402339 Z" id="Shape"></path>
                <path d="M16.3652632,6.57402339 L13.0840234,6.57402339 C12.7442573,6.57402339 12.4687602,6.84952047 12.4687602,7.18928655 C12.4687602,7.52905263 12.7442573,7.80454971 13.0840234,7.80454971 L16.3652632,7.80454971 C16.7050292,7.80454971 16.9805263,7.52905263 16.9805263,7.18928655 C16.9805263,6.84952047 16.7051111,6.57402339 16.3652632,6.57402339 Z" id="Shape"></path>
            </g>
            <g id="shop-(1)" opacity="0.34" transform="translate(22.000000, 745.000000)" fill="#000000" fill-rule="nonzero">
                <path d="M38.1615625,31.3205469 L37.495,31.3205469 L37.495,13.9375 C39.0001563,12.9689844 40,11.2801562 40,9.36109375 C40,9.25914062 39.9733594,9.15890625 39.9228125,9.07039062 L35.2733594,0.933828125 C34.9467969,0.3625 34.3351562,0.0075 33.6771094,0.0075 L6.32289063,0.0075 C5.66484375,0.0075 5.05320313,0.362421875 4.72664062,0.933828125 L0.0771875,9.07039062 C0.026640625,9.15890625 0,9.25921875 0,9.36109375 C0,11.2801562 0.99984375,12.9689844 2.505,13.9375 L2.505,31.3205469 L1.8384375,31.3205469 C1.51484375,31.3205469 1.2525,31.5828906 1.2525,31.9064844 C1.2525,32.2300781 1.51484375,32.4924219 1.8384375,32.4924219 L38.1615625,32.4924219 C38.4852344,32.4924219 38.7475,32.2300781 38.7475,31.9064844 C38.7475,31.5828906 38.4851563,31.3205469 38.1615625,31.3205469 Z M1.21226563,9.94703125 L3.09070313,9.94703125 C3.41429688,9.94703125 3.67664063,9.6846875 3.67664063,9.36109375 C3.67664063,9.0375 3.41429688,8.77515625 3.09070313,8.77515625 L1.595625,8.77515625 L5.74414063,1.51523438 C5.86257813,1.30804688 6.08429688,1.179375 6.32289063,1.179375 L33.6771094,1.179375 C33.9157031,1.179375 34.1375,1.30804688 34.2558594,1.51523438 L38.4042969,8.77515625 L36.9089063,8.77515625 C36.5852344,8.77515625 36.3229687,9.0375 36.3229687,9.36109375 C36.3229687,9.6846875 36.5852344,9.94703125 36.9089063,9.94703125 L38.7876562,9.94703125 C38.5011719,12.0239063 36.7148438,13.6286719 34.5604687,13.6286719 C32.4061719,13.6286719 30.6207031,12.02375 30.3341406,9.94703125 L34.4041406,9.94703125 C34.7278125,9.94703125 34.9900781,9.6846875 34.9900781,9.36109375 C34.9900781,9.0375 34.7278125,8.77515625 34.4041406,8.77515625 L5.59617188,8.77515625 C5.27257813,8.77515625 5.01023438,9.0375 5.01023438,9.36109375 C5.01023438,9.6846875 5.27257813,9.94703125 5.59617188,9.94703125 L9.66578125,9.94703125 C9.37921875,12.02375 7.59367188,13.6286719 5.43945312,13.6286719 C3.28507813,13.6286719 1.49875,12.0239063 1.21226563,9.94703125 Z M29.0798438,9.94703125 C28.7932813,12.02375 27.0077344,13.6286719 24.8535156,13.6286719 C22.6992188,13.6286719 20.91375,12.02375 20.6271875,9.94703125 L29.0798438,9.94703125 Z M19.3728125,9.94703125 C19.08625,12.02375 17.3007031,13.6286719 15.1464844,13.6286719 C12.9922656,13.6286719 11.2067188,12.02375 10.9201562,9.94703125 L19.3728125,9.94703125 Z M33.1917187,31.320625 L26.8485156,31.320625 L26.8485156,29.3611719 L33.1917187,29.3611719 L33.1917187,31.320625 Z M33.1917187,28.1892969 L26.8485156,28.1892969 L26.8485156,17.4621875 L33.1917187,17.4621875 L33.1917187,28.1892969 Z M36.323125,31.320625 L34.3636719,31.320625 L34.3636719,16.87625 C34.3636719,16.5526563 34.1014062,16.2903125 33.7777344,16.2903125 L26.2626562,16.2903125 C25.9389844,16.2903125 25.6767187,16.5526563 25.6767187,16.87625 L25.6767187,31.3205469 L3.676875,31.320625 L3.676875,14.5057813 C4.23007812,14.6958594 4.82257812,14.8005469 5.43945312,14.8005469 C7.55625,14.8005469 9.39445313,13.5852344 10.2929688,11.815625 C11.1914844,13.5851563 13.0296875,14.8005469 15.1464844,14.8005469 C17.2632813,14.8005469 19.1014844,13.5852344 20,11.815625 C20.8985156,13.5851563 22.7367188,14.8005469 24.8535156,14.8005469 C26.9703125,14.8005469 28.8085156,13.5852344 29.7070313,11.815625 C30.6055469,13.5851563 32.44375,14.8005469 34.5605469,14.8005469 C35.1774219,14.8005469 35.7699219,14.6958594 36.323125,14.5058594 L36.323125,31.320625 Z" id="Shape"></path>
                <path d="M23.1313281,16.2903125 L6.22226562,16.2903125 C5.89867187,16.2903125 5.63632812,16.5526562 5.63632812,16.87625 L5.63632812,28.7752344 C5.63632812,29.0988281 5.89867187,29.3611719 6.22226562,29.3611719 L23.1313281,29.3611719 C23.455,29.3611719 23.7172656,29.0988281 23.7172656,28.7752344 L23.7172656,16.87625 C23.7172656,16.5525781 23.455,16.2903125 23.1313281,16.2903125 Z M22.5453906,28.1892969 L6.80820312,28.1892969 L6.80820312,17.4621875 L22.5453906,17.4621875 L22.5453906,28.1892969 Z" id="Shape"></path>
            </g>
            <g id="appointment-(1)" opacity="0.34" transform="translate(84.000000, 744.000000)" fill="#000000" fill-rule="nonzero">
                <path d="M31.5820312,3.0078125 L28.3235449,3.0078125 L28.3235449,2.05078125 C28.3235449,0.919980469 27.4035645,0 26.2727637,0 C25.1419629,0 24.2219824,0.919980469 24.2219824,2.05078125 L24.2219824,3.0078125 L12.7376074,3.0078125 L12.7376074,2.05078125 C12.7376074,0.919980469 11.817627,0 10.6868262,0 C9.55602539,0 8.63604492,0.919980469 8.63604492,2.05078125 L8.63604492,3.03310547 C8.57793945,3.01704102 8.51703125,3.0078125 8.45379883,3.0078125 L5.73008789,3.0078125 C3.84541992,3.0078125 2.31211914,4.54111328 2.31211914,6.42578125 L2.31211914,18.0696387 C2.31211914,18.4471875 2.61823242,18.7532324 2.99571289,18.7532324 C3.37319336,18.7532324 3.67930664,18.4471875 3.67930664,18.0696387 L3.67930664,10.0488281 L28.3235449,10.0488281 C28.7010254,10.0488281 29.0071387,9.7427832 29.0071387,9.36523438 C29.0071387,8.98768555 28.7010254,8.68164062 28.3235449,8.68164062 L3.67930664,8.68164062 L3.67930664,6.42578125 C3.67930664,5.29498047 4.59928711,4.375 5.73008789,4.375 L8.45379883,4.375 C8.51703125,4.375 8.57793945,4.36570312 8.63604492,4.34970703 L8.63604492,5.22949219 C8.63604492,6.36029297 9.55602539,7.28027344 10.6868262,7.28027344 C11.817627,7.28027344 12.7376074,6.36029297 12.7376074,5.22949219 L12.7376074,4.375 L24.2219824,4.375 L24.2219824,5.22949219 C24.2219824,6.36029297 25.1419629,7.28027344 26.2727637,7.28027344 C27.4035645,7.28027344 28.3235449,6.36029297 28.3235449,5.22949219 L28.3235449,4.375 L31.5820312,4.375 C32.712832,4.375 33.6328125,5.29498047 33.6328125,6.42578125 L33.6328125,32.4019336 C33.6328125,33.0806055 33.0806738,33.6328125 32.4019336,33.6328125 C31.7231934,33.6328125 31.1710547,33.0806055 31.1710547,32.4019336 L31.1710547,30.6335449 C31.1710547,30.2559961 30.8649414,29.9499512 30.4874609,29.9499512 L22.5358301,29.9499512 C22.1583496,29.9499512 21.8522363,30.2559961 21.8522363,30.6335449 C21.8522363,31.0110938 22.1583496,31.3171387 22.5358301,31.3171387 L29.8038672,31.3171387 L29.8038672,32.4019336 C29.8038672,32.8470215 29.9165234,33.2662012 30.1145605,33.6328125 L2.59765625,33.6328125 C1.91918945,33.6328125 1.3671875,33.0808105 1.3671875,32.4023438 L1.3671875,31.3171387 L16.6677246,31.3171387 C17.0452051,31.3171387 17.3513184,31.0110938 17.3513184,30.6335449 C17.3513184,30.2559961 17.0452051,29.9499512 16.6677246,29.9499512 L9.8375293,29.9499512 C11.032041,28.9212109 11.7905566,27.3995313 11.7905566,25.703125 C11.7905566,22.6122559 9.27595703,20.0976562 6.18508789,20.0976562 C3.09421875,20.0976562 0.579619141,22.6122559 0.579619141,25.703125 C0.579619141,27.3995312 1.33813477,28.9212109 2.53264648,29.9499512 L0.68359375,29.9499512 C0.306113281,29.9499512 0,30.2559961 0,30.6335449 L0,32.4023438 C0,33.8346777 1.16532227,35 2.59765625,35 L32.4019336,35 C33.8344727,35 35,33.834541 35,32.4019336 L35,6.42578125 C35,4.54111328 33.4666992,3.0078125 31.5820312,3.0078125 Z M11.3704199,5.22949219 C11.3704199,5.60642578 11.0637598,5.91308594 10.6868262,5.91308594 C10.3098926,5.91308594 10.0032324,5.60642578 10.0032324,5.22949219 L10.0032324,2.05078125 C10.0032324,1.67384766 10.3098926,1.3671875 10.6868262,1.3671875 C11.0637598,1.3671875 11.3704199,1.67384766 11.3704199,2.05078125 L11.3704199,5.22949219 Z M26.9563574,5.22949219 C26.9563574,5.60642578 26.6496973,5.91308594 26.2727637,5.91308594 C25.8958301,5.91308594 25.5891699,5.60642578 25.5891699,5.22949219 L25.5891699,2.05078125 C25.5891699,1.67384766 25.8958301,1.3671875 26.2727637,1.3671875 C26.6496973,1.3671875 26.9563574,1.67384766 26.9563574,2.05078125 L26.9563574,5.22949219 Z M1.94680664,25.703125 C1.94680664,23.366123 3.84808594,21.4648438 6.18508789,21.4648438 C8.52208984,21.4648438 10.4233691,23.366123 10.4233691,25.703125 C10.4233691,28.040127 8.52208984,29.9414062 6.18508789,29.9414062 C3.84808594,29.9414062 1.94680664,28.040127 1.94680664,25.703125 Z" id="Shape"></path>
                <path d="M32.0133105,8.88193359 C31.8862305,8.75478516 31.7098633,8.68164062 31.5300781,8.68164062 C31.3502246,8.68164062 31.1739258,8.75478516 31.0467773,8.88193359 C30.9196289,9.00908203 30.8464844,9.18544922 30.8464844,9.36523438 C30.8464844,9.54501953 30.9195605,9.72138672 31.0467773,9.84853516 C31.1739941,9.97568359 31.3502246,10.0488281 31.5300781,10.0488281 C31.7098633,10.0488281 31.8862305,9.97568359 32.0133105,9.84853516 C32.140459,9.72138672 32.2136719,9.54501953 32.2136719,9.36523438 C32.2136719,9.18544922 32.1405273,9.00908203 32.0133105,8.88193359 Z" id="Shape"></path>
                <path d="M20.415459,30.1499023 C20.2883789,30.0227539 20.1120117,29.950293 19.9322266,29.950293 C19.7524414,29.950293 19.5760742,30.0227539 19.4489258,30.1499023 C19.3217773,30.2777344 19.2486328,30.453418 19.2486328,30.6332031 C19.2486328,30.8136719 19.321709,30.9893555 19.4489258,31.1171875 C19.5760742,31.2443359 19.7524414,31.3167969 19.9322266,31.3167969 C20.1120117,31.3167969 20.2883789,31.2443359 20.415459,31.1171875 C20.5426074,30.9893555 20.6158203,30.8129883 20.6158203,30.6332031 C20.6158203,30.453418 20.5426758,30.2777344 20.415459,30.1499023 Z" id="Shape"></path>
                <path d="M15.4659668,20.78125 C14.0336328,20.78125 12.8683105,21.9465723 12.8683105,23.3789062 C12.8683105,24.8112402 14.0336328,25.9765625 15.4659668,25.9765625 C16.8983008,25.9765625 18.063623,24.8112402 18.063623,23.3789062 C18.063623,21.9465723 16.8983008,20.78125 15.4659668,20.78125 Z M15.4659668,24.609375 C14.7875,24.609375 14.235498,24.057373 14.235498,23.3789062 C14.235498,22.7004395 14.7875,22.1484375 15.4659668,22.1484375 C16.1444336,22.1484375 16.6964355,22.7004395 16.6964355,23.3789062 C16.6964355,24.057373 16.1444336,24.609375 15.4659668,24.609375 Z" id="Shape"></path>
                <path d="M21.8461523,20.78125 C20.4138184,20.78125 19.2484961,21.9465723 19.2484961,23.3789062 C19.2484961,24.8112402 20.4138184,25.9765625 21.8461523,25.9765625 C23.2784863,25.9765625 24.4438086,24.8112402 24.4438086,23.3789062 C24.4438086,21.9465723 23.2784863,20.78125 21.8461523,20.78125 Z M21.8461523,24.609375 C21.1676855,24.609375 20.6156836,24.057373 20.6156836,23.3789062 C20.6156836,22.7004395 21.1676855,22.1484375 21.8461523,22.1484375 C22.5246191,22.1484375 23.0766211,22.7004395 23.0766211,23.3789062 C23.0766211,24.057373 22.5246191,24.609375 21.8461523,24.609375 Z" id="Shape"></path>
                <path d="M28.2264063,20.78125 C26.7940723,20.78125 25.62875,21.9465723 25.62875,23.3789062 C25.62875,24.8112402 26.7940723,25.9765625 28.2264063,25.9765625 C29.6587402,25.9765625 30.8240625,24.8112402 30.8240625,23.3789062 C30.8240625,21.9465723 29.6587402,20.78125 28.2264063,20.78125 Z M28.2264063,24.609375 C27.5479395,24.609375 26.9959375,24.057373 26.9959375,23.3789062 C26.9959375,22.7004395 27.5479395,22.1484375 28.2264063,22.1484375 C28.904873,22.1484375 29.456875,22.7004395 29.456875,23.3789062 C29.456875,24.057373 28.904873,24.609375 28.2264063,24.609375 Z" id="Shape"></path>
                <path d="M9.08578125,13.671875 C7.65344727,13.671875 6.488125,14.8371973 6.488125,16.2695312 C6.488125,17.7018652 7.65344727,18.8671875 9.08578125,18.8671875 C10.5181152,18.8671875 11.6834375,17.7018652 11.6834375,16.2695312 C11.6834375,14.8371973 10.5181152,13.671875 9.08578125,13.671875 Z M9.08578125,17.5 C8.40731445,17.5 7.8553125,16.947998 7.8553125,16.2695312 C7.8553125,15.5910645 8.40731445,15.0390625 9.08578125,15.0390625 C9.76424805,15.0390625 10.31625,15.5910645 10.31625,16.2695312 C10.31625,16.947998 9.76424805,17.5 9.08578125,17.5 Z" id="Shape"></path>
                <path d="M21.8461523,13.671875 C20.4138184,13.671875 19.2484961,14.8371973 19.2484961,16.2695312 C19.2484961,17.7018652 20.4138184,18.8671875 21.8461523,18.8671875 C23.2784863,18.8671875 24.4438086,17.7018652 24.4438086,16.2695312 C24.4438086,14.8371973 23.2784863,13.671875 21.8461523,13.671875 Z M21.8461523,17.5 C21.1676855,17.5 20.6156836,16.947998 20.6156836,16.2695312 C20.6156836,15.5910645 21.1676855,15.0390625 21.8461523,15.0390625 C22.5246191,15.0390625 23.0766211,15.5910645 23.0766211,16.2695312 C23.0766211,16.947998 22.5246191,17.5 21.8461523,17.5 Z" id="Shape"></path>
                <path d="M28.2264063,13.671875 C26.7940723,13.671875 25.62875,14.8371973 25.62875,16.2695312 C25.62875,17.7018652 26.7940723,18.8671875 28.2264063,18.8671875 C29.6587402,18.8671875 30.8240625,17.7018652 30.8240625,16.2695312 C30.8240625,14.8371973 29.6587402,13.671875 28.2264063,13.671875 Z M28.2264063,17.5 C27.5479395,17.5 26.9959375,16.947998 26.9959375,16.2695312 C26.9959375,15.5910645 27.5479395,15.0390625 28.2264063,15.0390625 C28.904873,15.0390625 29.456875,15.5910645 29.456875,16.2695312 C29.456875,16.947998 28.904873,17.5 28.2264063,17.5 Z" id="Shape"></path>
                <path d="M15.4659668,13.671875 C14.0336328,13.671875 12.8683105,14.8371973 12.8683105,16.2695312 C12.8683105,17.7018652 14.0336328,18.8671875 15.4659668,18.8671875 C16.8983008,18.8671875 18.063623,17.7018652 18.063623,16.2695312 C18.063623,14.8371973 16.8983008,13.671875 15.4659668,13.671875 Z M15.4659668,17.5 C14.7875,17.5 14.235498,16.947998 14.235498,16.2695312 C14.235498,15.5910645 14.7875,15.0390625 15.4659668,15.0390625 C16.1444336,15.0390625 16.6964355,15.5910645 16.6964355,16.2695312 C16.6964355,16.947998 16.1444336,17.5 15.4659668,17.5 Z" id="Shape"></path>
                <path d="M8.62039062,24.0371387 C8.35337891,23.7701953 7.92066406,23.7701953 7.65358398,24.0371387 L5.42739258,26.2633984 L4.66662109,25.502627 C4.39960937,25.2356836 3.96689453,25.2356836 3.69981445,25.502627 C3.43287109,25.7695703 3.43287109,26.2024219 3.69981445,26.4694336 L4.94402344,27.7135059 C5.07226562,27.8416797 5.24610352,27.9137305 5.42739258,27.9137305 C5.60868164,27.9137305 5.78251953,27.8416797 5.91076172,27.7135059 L8.62039062,25.003877 C8.88733398,24.7369336 8.88733398,24.304082 8.62039062,24.0371387 Z" id="Shape"></path>
            </g>
            <g id="sprout-(2)" transform="translate(140.000000, 745.000000)" fill-rule="nonzero">
                <rect id="Rectangle-path" fill="#30995B" x="0.78125" y="17.2937788" width="4.21875" height="14.1013825"></rect>
                <path d="M38.5989844,22.0605161 C37.8349219,21.294341 36.6341406,21.1846636 35.7446094,21.7997972 L28.8532031,27.6591567 C29.4815625,27.016447 29.5135938,25.7188848 28.7763281,24.9795806 C28.4833594,24.6857235 28.0858594,24.520659 27.6714844,24.520659 L20.3803906,24.520659 C19.75875,24.520659 19.1626563,24.273023 18.723125,23.8322765 L14.568125,19.6462811 C13.8355469,18.9116774 12.8419531,18.498977 11.8060156,18.498977 L5,18.498977 L5,29.6389124 L8.23875,31.6058986 C9.88914063,32.6082719 11.781875,33.1382488 13.7114063,33.1382488 L26.065,33.1382488 C28.109375,33.1382488 30.0917188,32.4341982 31.6803125,31.1439217 L38.4742188,25.176765 C39.4150781,24.3736912 39.4725781,22.9366037 38.5989844,22.0605161 Z" id="Shape" fill="#F9BD95"></path>
                <path d="M15.1620313,20.1425714 C17.1749219,18.8924055 19.5483594,18.1706498 22.0898438,18.1706498 C26.635,18.1706498 30.6422656,20.4787327 33.0120312,23.9898986 L29.6082031,27.2705069 C29.6082031,27.2705069 29.6092969,24.3646037 26.0155469,24.3646037 C22.4217969,24.3646037 19.5292969,24.3646037 19.5292969,24.3646037 L15.1620313,20.1425714 Z" id="Shape" fill="#30995B"></path>
                <g id="Group" transform="translate(12.656250, 0.861751)" fill="#ACD670">
                    <path d="M5.51773438,2.84612903 C9.75007813,4.26284793 9.44507813,10.308424 9.44507813,10.3880968 L9.44585938,10.3889585 L9.44625,10.3894286 L9.445625,10.3886452 C9.42445313,10.3891935 4.44851563,10.5462673 1.92195313,7.71353456 C-0.603046875,4.88103687 0.18890625,0.0222488479 0.19390625,0.00148847926 L0.192578125,0 C0.192578125,0 1.55070313,1.51824885 5.51773438,2.84612903 Z" id="Shape"></path>
                    <path d="M18.7020313,0 L18.7007813,0.00141013825 C18.7058594,0.0222488479 19.4977344,4.88095853 16.9727344,7.71345622 C14.4461719,10.5461889 9.47023438,10.3891935 9.4490625,10.3885668 L9.4484375,10.3893502 L9.44882813,10.3888802 L9.44960938,10.3880184 C9.44960938,10.3083456 9.14460938,4.26276959 13.3769531,2.84605069 C17.3439063,1.51824885 18.7020313,0 18.7020313,0 Z" id="Shape"></path>
                </g>
                <path d="M5,23.5711659 C4.56859375,23.5711659 4.21875,23.9218986 4.21875,24.354576 L4.21875,24.364682 C4.21875,24.7973594 4.56859375,25.1480922 5,25.1480922 C5.43140625,25.1480922 5.78125,24.7973594 5.78125,24.364682 L5.78125,24.354576 C5.78125,23.9218986 5.43140625,23.5711659 5,23.5711659 Z" id="Shape" fill="#000000"></path>
                <path d="M39.1514063,21.5066452 C38.120625,20.4727788 36.50125,20.325106 35.3010937,21.154894 C35.2798437,21.1696221 35.2592188,21.1855253 35.2394531,21.2022903 L33.21125,22.9267327 C30.7350781,19.6564654 26.9663281,17.6434931 22.8857813,17.4108203 L22.8857813,12.0176682 C24.4880469,11.934 28.0910937,11.4746866 30.2114844,9.09735023 C32.7292188,6.27307834 32.2611719,1.71535484 32.1388281,0.827672811 C32.1300781,0.62437788 32.0427344,0.424686636 31.8796875,0.27818894 C31.5585937,-0.0103410138 31.0648438,0.0166082949 30.7767969,0.338589862 C30.7646094,0.352221198 29.4541406,1.73689862 25.7858594,2.96473733 C24.1142187,3.52424885 22.8558594,4.78851613 22.1036719,6.64715668 C21.3514844,4.78851613 20.093125,3.52432719 18.4214844,2.96473733 C14.75375,1.7370553 13.4390625,0.347599078 13.4305469,0.338589862 C13.1425,0.0166082949 12.6494531,-0.0096359447 12.3283594,0.278894009 C12.16875,0.422258065 12.081875,0.616857143 12.0700781,0.815843318 C11.9503906,1.67399078 11.4667187,6.26023041 13.9958594,9.09742857 C16.1172656,11.4759401 19.7228906,11.9343917 21.3233594,12.0177465 L21.3233594,17.4101935 C19.1759375,17.5278618 17.0905469,18.1374332 15.2241406,19.1965253 L15.1207031,19.0923318 C14.2353125,18.2045714 13.0582031,17.7156452 11.8060937,17.7156452 L5.78125,17.7156452 L5.78125,17.2937788 C5.78125,16.8611014 5.43140625,16.5103687 5,16.5103687 L0.78125,16.5103687 C0.34984375,16.5103687 0,16.8611014 0,17.2937788 L0,31.3951613 C0,31.8278387 0.34984375,32.1785714 0.78125,32.1785714 L5,32.1785714 C5.43140625,32.1785714 5.78125,31.8278387 5.78125,31.3951613 L5.78125,31.0293871 L7.83398438,32.2760276 C9.6065625,33.3525899 11.6389844,33.921659 13.7114062,33.921659 L26.065,33.921659 C28.2810938,33.921659 30.45,33.1513318 32.1720313,31.7526313 C32.1798438,31.7462857 32.1875,31.7397834 32.1950781,31.7332028 L38.9853906,25.7692581 C39.5965625,25.2453134 39.9653906,24.4832903 39.9976562,23.6774747 C40.03,22.8695438 39.7215625,22.0782995 39.1514063,21.5066452 Z M26.2804688,4.45102304 C28.3899219,3.74493548 29.8075781,2.97515668 30.6967969,2.38321198 C30.7317969,3.91900922 30.5226562,6.39724885 29.0466406,8.05298618 C27.3538281,9.95103226 24.3150781,10.3603641 22.8957812,10.4461475 C22.9734375,8.85175115 23.4710938,5.39135023 26.2804688,4.45102304 Z M15.1605469,8.05314286 C13.6845313,6.39732719 13.4753125,3.91900922 13.5103125,2.38321198 C14.3995313,2.97515668 15.8171875,3.74493548 17.9266406,4.45102304 C20.7360156,5.39142857 21.2336719,8.85182949 21.3113281,10.4462258 C19.8934375,10.3605207 16.85375,9.9515023 15.1605469,8.05314286 Z M22.0898438,18.9540599 C26.0105469,18.9540599 29.6775,20.8083917 32.0172656,23.9417972 L30.0132812,25.6457143 C29.8930469,25.1855392 29.6611719,24.7590507 29.3286719,24.4256313 C28.8859375,23.9817512 28.2974219,23.7372488 27.6714063,23.7372488 L20.3803125,23.7372488 C19.9629688,23.7372488 19.570625,23.5742995 19.2767969,23.279659 L16.3725781,20.3537005 C18.1305469,19.4361705 20.0889062,18.9540599 22.0898438,18.9540599 Z M37.9678906,24.5801198 C37.9650781,24.58247 37.9622656,24.5848986 37.9595313,24.5873272 L31.1771875,30.5442995 C29.7342969,31.7119724 27.919375,32.3548387 26.065,32.3548387 L13.7114063,32.3548387 C11.924375,32.3548387 10.171875,31.8641889 8.64351563,30.9358479 L5.78125,29.1975392 L5.78125,26.9969401 C5.78125,26.5642627 5.43140625,26.21353 5,26.21353 C4.56859375,26.21353 4.21875,26.5642627 4.21875,26.9969401 L4.21875,30.6116728 L1.5625,30.6116728 L1.5625,18.0771106 L4.21875,18.0771106 L4.21875,21.5550599 C4.21875,21.9877373 4.56859375,22.33847 5,22.33847 C5.43140625,22.33847 5.78125,21.9877373 5.78125,21.5550599 L5.78125,19.2823871 L11.8059375,19.2823871 C12.6407031,19.2823871 13.4253906,19.6083641 14.014375,20.1988986 L18.170625,24.3862258 C18.7608594,24.9780922 19.545625,25.3039908 20.3803125,25.3039908 L27.6714063,25.3039908 C27.8800781,25.3039908 28.07625,25.3854654 28.22375,25.5334516 C28.5819531,25.8925668 28.6108594,26.4842765 28.45625,26.8586682 C28.4167188,26.9544793 28.3710938,27.026788 28.3235156,27.0822535 C28.3235156,27.0822535 28.1633594,27.2592258 27.9321875,27.2592258 L17.5585938,27.2592258 C17.01875,27.2592258 16.4942188,27.1031705 16.0416406,26.8080599 L13.5246875,25.1665023 C13.1632031,24.9303041 12.6792188,25.0328525 12.4436719,25.3954147 C12.2082031,25.757977 12.3104688,26.2432995 12.6720313,26.4794194 L15.1897656,28.121447 C15.8964844,28.5824055 16.715625,28.8260461 17.5585938,28.8260461 L27.9321875,28.8260461 C28.5005469,28.8260461 29.0083594,28.6108433 29.3924219,28.2275991 L36.2170313,22.4251152 C36.793125,22.0464147 37.5571875,22.123659 38.0464844,22.6143871 C38.3130469,22.8816083 38.4515625,23.2368065 38.4363281,23.6144885 C38.42125,23.9923272 38.2549219,24.3351475 37.9678906,24.5801198 Z" id="Shape" fill="#000000"></path>
            </g>
            <g id="Tree_21" transform="translate(59.000000, 300.000000)"></g>
            <g id="Tile_01" transform="translate(59.000000, 300.000000)">
                <g id="Group" transform="translate(0.515925, 14.881119)" fill="url(#linearGradient-1)">
                    <polygon id="Shape" points="0.500042499 92.0816949 0.500042499 66.1733898 132.040634 0.230338983 263.595933 66.1733898 263.595933 92.0816949 132.040634 158.024746"></polygon>
                </g>
                <g id="Group" transform="translate(0.515925, 1.794254)" fill="url(#linearGradient-2)">
                    <polygon id="Shape" points="0.500042499 92.0816949 0.500042499 66.1733898 132.040634 0.230338983 263.595933 66.1733898 263.595933 92.0816949 132.040634 158.024746"></polygon>
                </g>
                <g id="Group" transform="translate(0.990094, 0.996224)" fill="#7EBE1E">
                    <polygon id="Shape" points="0.500042499 66.739322 132.040634 0.781525424 263.595933 66.739322 132.040634 132.682373"></polygon>
                </g>
            </g>
            <g id="icon" transform="translate(31.000000, 66.000000)"></g>
            <path d="M57.9811321,107.509434 C66.004892,107.509434 72.509434,101.004892 72.509434,92.9811321 C72.509434,84.9573721 66.004892,78.4528302 57.9811321,78.4528302 C49.9573721,78.4528302 43.4528302,84.9573721 43.4528302,92.9811321 C43.4528302,101.004892 49.9573721,107.509434 57.9811321,107.509434 Z" id="Oval-16" stroke="#F8E71C" stroke-width="2"></path>
            <path d="M58.0493152,66 L58.9506848,66 C59.4940085,66 59.9458305,66.4500356 59.9458305,67.0051827 L59.9458305,72.22397 C59.9458305,72.7769369 59.5002886,73.2291527 58.9506848,73.2291527 L58.0493152,73.2291527 C57.5059915,73.2291527 57.0541695,72.7791171 57.0541695,72.22397 L57.0541695,67.0051827 C57.0541695,66.4522159 57.4997114,66 58.0493152,66 Z M71.8596955,69.458959 L72.6403045,69.9096438 C73.1108366,70.1813056 73.2771082,70.796959 72.9995346,71.2777304 L70.390141,75.7973328 C70.1136576,76.2762161 69.501699,76.4450756 69.0257282,76.1702737 L68.2451191,75.7195889 C67.774587,75.4479271 67.6083155,74.8322738 67.885889,74.3515023 L70.4952827,69.8318999 C70.7717661,69.3530166 71.3837246,69.1841571 71.8596955,69.458959 Z M82.0903562,79.3596955 L82.541041,80.1403045 C82.8127029,80.6108366 82.6488716,81.2271438 82.1681001,81.5047173 L77.6484977,84.114111 C77.1696144,84.3905944 76.555213,84.2308517 76.2804111,83.7548809 L75.8297263,82.9742718 C75.5580644,82.5037398 75.7218957,81.8874326 76.2026672,81.609859 L80.7222696,79.0004654 C81.2011529,78.723982 81.8155543,78.8837246 82.0903562,79.3596955 Z M86,93.0493152 L86,93.9506848 C86,94.4940085 85.5499644,94.9458305 84.9948173,94.9458305 L79.77603,94.9458305 C79.2230631,94.9458305 78.7708473,94.5002886 78.7708473,93.9506848 L78.7708473,93.0493152 C78.7708473,92.5059915 79.2208829,92.0541695 79.77603,92.0541695 L84.9948173,92.0541695 C85.5477841,92.0541695 86,92.4997114 86,93.0493152 Z M82.541041,106.859695 L82.0903562,107.640305 C81.8186944,108.110837 81.203041,108.277108 80.7222696,107.999535 L76.2026672,105.390141 C75.7237839,105.113658 75.5549244,104.501699 75.8297263,104.025728 L76.2804111,103.245119 C76.5520729,102.774587 77.1677262,102.608315 77.6484977,102.885889 L82.1681001,105.495283 C82.6469834,105.771766 82.8158429,106.383725 82.541041,106.859695 Z M72.6403045,117.090356 L71.8596955,117.541041 C71.3891634,117.812703 70.7728562,117.648872 70.4952827,117.1681 L67.885889,112.648498 C67.6094056,112.169614 67.7691483,111.555213 68.2451191,111.280411 L69.0257282,110.829726 C69.4962602,110.558064 70.1125674,110.721896 70.390141,111.202667 L72.9995346,115.72227 C73.276018,116.201153 73.1162754,116.815554 72.6403045,117.090356 Z M58.9506848,121 L58.0493152,121 C57.5059915,121 57.0541695,120.549964 57.0541695,119.994817 L57.0541695,114.77603 C57.0541695,114.223063 57.4997114,113.770847 58.0493152,113.770847 L58.9506848,113.770847 C59.4940085,113.770847 59.9458305,114.220883 59.9458305,114.77603 L59.9458305,119.994817 C59.9458305,120.547784 59.5002886,121 58.9506848,121 Z M45.1403045,117.541041 L44.3596955,117.090356 C43.8891634,116.818694 43.7228918,116.203041 44.0004654,115.72227 L46.609859,111.202667 C46.8863424,110.723784 47.498301,110.554924 47.9742718,110.829726 L48.7548809,111.280411 C49.225413,111.552073 49.3916845,112.167726 49.114111,112.648498 L46.5047173,117.1681 C46.2282339,117.646983 45.6162754,117.815843 45.1403045,117.541041 Z M34.9096438,107.640305 L34.458959,106.859695 C34.1872971,106.389163 34.3511284,105.772856 34.8318999,105.495283 L39.3515023,102.885889 C39.8303856,102.609406 40.444787,102.769148 40.7195889,103.245119 L41.1702737,104.025728 C41.4419356,104.49626 41.2781043,105.112567 40.7973328,105.390141 L36.2777304,107.999535 C35.7988471,108.276018 35.1844457,108.116275 34.9096438,107.640305 Z M31,93.9506848 L31,93.0493152 C31,92.5059915 31.4500356,92.0541695 32.0051827,92.0541695 L37.22397,92.0541695 C37.7769369,92.0541695 38.2291527,92.4997114 38.2291527,93.0493152 L38.2291527,93.9506848 C38.2291527,94.4940085 37.7791171,94.9458305 37.22397,94.9458305 L32.0051827,94.9458305 C31.4522159,94.9458305 31,94.5002886 31,93.9506848 Z M34.458959,80.1403045 L34.9096438,79.3596955 C35.1813056,78.8891634 35.796959,78.7228918 36.2777304,79.0004654 L40.7973328,81.609859 C41.2762161,81.8863424 41.4450756,82.498301 41.1702737,82.9742718 L40.7195889,83.7548809 C40.4479271,84.225413 39.8322738,84.3916845 39.3515023,84.114111 L34.8318999,81.5047173 C34.3530166,81.2282339 34.1841571,80.6162754 34.458959,80.1403045 Z M44.3596955,69.9096438 L45.1403045,69.458959 C45.6108366,69.1872971 46.2271438,69.3511284 46.5047173,69.8318999 L49.114111,74.3515023 C49.3905944,74.8303856 49.2308517,75.444787 48.7548809,75.7195889 L47.9742718,76.1702737 C47.5037398,76.4419356 46.8874326,76.2781043 46.609859,75.7973328 L44.0004654,71.2777304 C43.723982,70.7988471 43.8837246,70.1844457 44.3596955,69.9096438 Z" id="Aura" fill="#F8E71C"></path>
            <path d="M97.5,67.5 L97.5,118.58992" id="line" stroke="#FFFFFF" stroke-width="2" opacity="0.65" stroke-linecap="square"></path>
            <text id="Ottawa-" font-family="AvenirNext-Regular, Avenir Next" font-size="24" font-weight="normal" line-spacing="18" fill="#FFFFFF">
                <tspan x="109" y="90">Hsinchu City</tspan>
                <tspan x="111.364" y="115" font-size="18">Jan 11, 2019</tspan>
            </text>
            <text id="Sow-&amp;-Grow" font-family="AvenirNext-Regular, Avenir Next" font-size="24" font-weight="normal" line-spacing="18" fill="#FFFFFF">
                <tspan x="124" y="665">Sow &amp; Grow</tspan>
            </text>
            <g id="74°" fill="#FFFFFF" fill-opacity="1">
                <use filter="url(#filter-4)" xlink:href="#text-3"></use>
                <use xlink:href="#text-3"></use>
            </g>
            <rect id="Rectangle-8" stroke="#FFFFFF" stroke-width="2" x="110" y="632" width="160" height="48"></rect>
        </g>
    </g>
</svg>