<svg width="100" height="157" viewBox="0 0 100 157" fill="none" xmlns="http://www.w3.org/2000/svg">
<path d="M62.5 88.2715L71.875 69.5215L81.25 88.2715L71.875 83.584L62.5 88.2715Z" fill="#54FEBD"/>
<path d="M6.25 42.959C8.83883 42.959 10.9375 40.8603 10.9375 38.2715C10.9375 35.6826 8.83883 33.584 6.25 33.584C3.66117 33.584 1.5625 35.6826 1.5625 38.2715C1.5625 40.8603 3.66117 42.959 6.25 42.959Z" fill="#54FEBD"/>
<path d="M46.875 41.3965C49.4638 41.3965 51.5625 39.2978 51.5625 36.709C51.5625 34.1201 49.4638 32.0215 46.875 32.0215C44.2862 32.0215 42.1875 34.1201 42.1875 36.709C42.1875 39.2978 44.2862 41.3965 46.875 41.3965Z" fill="#54FEBD"/>
<path d="M93.75 33.584C96.3388 33.584 98.4375 31.4853 98.4375 28.8965C98.4375 26.3077 96.3388 24.209 93.75 24.209C91.1612 24.209 89.0625 26.3077 89.0625 28.8965C89.0625 31.4853 91.1612 33.584 93.75 33.584Z" fill="#54FEBD"/>
<path d="M6.25 39.834C2.80312 39.834 0 37.0309 0 33.584C0 30.1371 2.80312 27.334 6.25 27.334C9.69688 27.334 12.5 30.1371 12.5 33.584C12.5 37.0309 9.69688 39.834 6.25 39.834ZM6.25 30.459C4.52656 30.459 3.125 31.8605 3.125 33.584C3.125 35.3074 4.52656 36.709 6.25 36.709C7.97344 36.709 9.375 35.3074 9.375 33.584C9.375 31.8605 7.97344 30.459 6.25 30.459Z" fill="#1D1B4C"/>
<path d="M50 39.834C46.5531 39.834 43.75 37.0309 43.75 33.584C43.75 30.1371 46.5531 27.334 50 27.334C53.4469 27.334 56.25 30.1371 56.25 33.584C56.25 37.0309 53.4469 39.834 50 39.834ZM50 30.459C48.2766 30.459 46.875 31.8605 46.875 33.584C46.875 35.3074 48.2766 36.709 50 36.709C51.7234 36.709 53.125 35.3074 53.125 33.584C53.125 31.8605 51.7234 30.459 50 30.459Z" fill="#1D1B4C"/>
<path d="M93.75 39.834C90.3031 39.834 87.5 37.0309 87.5 33.584C87.5 30.1371 90.3031 27.334 93.75 27.334C97.1969 27.334 100 30.1371 100 33.584C100 37.0309 97.1969 39.834 93.75 39.834ZM93.75 30.459C92.0266 30.459 90.625 31.8605 90.625 33.584C90.625 35.3074 92.0266 36.709 93.75 36.709C95.4734 36.709 96.875 35.3074 96.875 33.584C96.875 31.8605 95.4734 30.459 93.75 30.459Z" fill="#1D1B4C"/>
<path d="M49.4983 30.4902C48.7796 30.4902 48.1312 29.9918 47.9733 29.259C45.9593 19.9949 37.6108 13.2715 28.1249 13.2715C18.639 13.2715 10.2905 19.9949 8.27647 29.259C8.09366 30.1027 7.25928 30.6371 6.41866 30.4543C5.57491 30.2715 5.04053 29.4387 5.22334 28.5965C7.54834 17.9059 17.1796 10.1465 28.1249 10.1465C39.0702 10.1465 48.7015 17.9059 51.0265 28.5965C51.2108 29.4402 50.6749 30.2715 49.8312 30.4543C49.7202 30.4777 49.6093 30.4902 49.4983 30.4902Z" fill="#1D1B4C"/>
<path d="M71.8749 57.0215C60.9296 57.0215 51.2983 49.2621 48.9733 38.5715C48.7889 37.7277 49.3249 36.8965 50.1686 36.7137C51.0108 36.5309 51.8452 37.0652 52.0264 37.909C54.0421 47.1731 62.3889 53.8965 71.8749 53.8965C81.3608 53.8965 89.7093 47.1731 91.7233 37.909C91.9061 37.0652 92.7436 36.5293 93.5811 36.7137C94.4249 36.8965 94.9593 37.7293 94.7764 38.5715C92.4514 49.2621 82.8202 57.0215 71.8749 57.0215Z" fill="#1D1B4C"/>
<path d="M81.2501 82.0215C81.0142 82.0215 80.7736 81.9668 80.5517 81.8575L71.8751 77.5184L63.1986 81.8559C62.5954 82.1575 61.8689 82.0387 61.3954 81.5621C60.9204 81.0871 60.8017 80.3606 61.1017 79.759L70.4767 61.009C71.0064 59.9496 72.7423 59.9496 73.272 61.009L82.647 79.759C82.947 80.3606 82.8298 81.0871 82.3533 81.5621C82.0548 81.8637 81.6548 82.0215 81.2501 82.0215ZM71.8751 74.209C72.1142 74.209 72.3548 74.2637 72.5736 74.3731L77.7564 76.9653L71.8751 65.2028L65.9939 76.9653L71.1767 74.3731C71.3954 74.2637 71.6361 74.209 71.8751 74.209Z" fill="#1D1B4C"/>
<path d="M24.2333 120V110.074H26.1653V120H24.2333ZM30.9718 120.14C30.4678 120.14 30.0011 120.042 29.5718 119.846C29.1517 119.65 28.7878 119.379 28.4798 119.034C28.1718 118.689 27.9291 118.287 27.7518 117.83C27.5838 117.363 27.4998 116.864 27.4998 116.332C27.4998 115.8 27.5791 115.305 27.7378 114.848C27.9058 114.391 28.1344 113.989 28.4238 113.644C28.7131 113.299 29.0584 113.028 29.4598 112.832C29.8611 112.636 30.2998 112.538 30.7758 112.538C31.3078 112.538 31.7884 112.669 32.2178 112.93C32.6564 113.191 32.9971 113.532 33.2398 113.952V109.78H35.1158V117.844C35.1158 118.04 35.1531 118.18 35.2278 118.264C35.3024 118.348 35.4331 118.395 35.6198 118.404V120C35.2651 120.065 34.9664 120.098 34.7238 120.098C34.3784 120.089 34.1078 120.009 33.9118 119.86C33.7251 119.711 33.6084 119.501 33.5618 119.23L33.5198 118.726C33.2491 119.193 32.8851 119.547 32.4278 119.79C31.9704 120.023 31.4851 120.14 30.9718 120.14ZM31.4618 118.544C31.6391 118.544 31.8211 118.516 32.0078 118.46C32.1944 118.395 32.3671 118.306 32.5258 118.194C32.6844 118.082 32.8291 117.951 32.9598 117.802C33.0904 117.653 33.1884 117.489 33.2538 117.312V115.562C33.0951 115.151 32.8338 114.811 32.4698 114.54C32.1151 114.269 31.7418 114.134 31.3498 114.134C31.0698 114.134 30.8084 114.195 30.5658 114.316C30.3324 114.437 30.1318 114.605 29.9638 114.82C29.7958 115.025 29.6651 115.263 29.5718 115.534C29.4784 115.805 29.4318 116.085 29.4318 116.374C29.4318 116.682 29.4831 116.967 29.5858 117.228C29.6884 117.489 29.8284 117.718 30.0058 117.914C30.1924 118.11 30.4071 118.264 30.6498 118.376C30.9018 118.488 31.1724 118.544 31.4618 118.544ZM40.4415 120.14C39.8535 120.14 39.3215 120.042 38.8455 119.846C38.3695 119.641 37.9635 119.365 37.6275 119.02C37.2915 118.675 37.0302 118.273 36.8435 117.816C36.6662 117.359 36.5775 116.878 36.5775 116.374C36.5775 115.851 36.6662 115.361 36.8435 114.904C37.0209 114.437 37.2775 114.031 37.6135 113.686C37.9495 113.331 38.3555 113.051 38.8315 112.846C39.3169 112.641 39.8582 112.538 40.4555 112.538C41.0529 112.538 41.5849 112.641 42.0515 112.846C42.5275 113.051 42.9289 113.327 43.2555 113.672C43.5915 114.017 43.8435 114.419 44.0115 114.876C44.1889 115.333 44.2775 115.809 44.2775 116.304C44.2775 116.425 44.2729 116.542 44.2635 116.654C44.2635 116.766 44.2542 116.859 44.2355 116.934H38.5655C38.5935 117.223 38.6635 117.48 38.7755 117.704C38.8875 117.928 39.0322 118.119 39.2095 118.278C39.3869 118.437 39.5875 118.558 39.8115 118.642C40.0355 118.726 40.2689 118.768 40.5115 118.768C40.8849 118.768 41.2349 118.679 41.5615 118.502C41.8975 118.315 42.1262 118.073 42.2475 117.774L43.8575 118.222C43.5869 118.782 43.1529 119.244 42.5555 119.608C41.9675 119.963 41.2629 120.14 40.4415 120.14ZM42.3455 115.716C42.2989 115.165 42.0935 114.727 41.7295 114.4C41.3749 114.064 40.9409 113.896 40.4275 113.896C40.1755 113.896 39.9375 113.943 39.7135 114.036C39.4989 114.12 39.3075 114.241 39.1395 114.4C38.9715 114.559 38.8315 114.75 38.7195 114.974C38.6169 115.198 38.5562 115.445 38.5375 115.716H42.3455ZM52.2381 120H50.3621V115.884C50.3621 115.296 50.2594 114.867 50.0541 114.596C49.8487 114.325 49.5641 114.19 49.2001 114.19C49.0134 114.19 48.8221 114.227 48.6261 114.302C48.4301 114.377 48.2434 114.484 48.0661 114.624C47.8981 114.755 47.7441 114.913 47.6041 115.1C47.4641 115.287 47.3614 115.492 47.2961 115.716V120H45.4201V112.664H47.1141V114.022C47.3847 113.555 47.7767 113.191 48.2901 112.93C48.8034 112.669 49.3821 112.538 50.0261 112.538C50.4834 112.538 50.8567 112.622 51.1461 112.79C51.4354 112.958 51.6594 113.177 51.8181 113.448C51.9767 113.719 52.0841 114.027 52.1401 114.372C52.2054 114.717 52.2381 115.067 52.2381 115.422V120ZM58.2246 119.622C57.9726 119.734 57.6599 119.846 57.2866 119.958C56.9226 120.07 56.5399 120.126 56.1386 120.126C55.8773 120.126 55.6299 120.093 55.3966 120.028C55.1726 119.963 54.9719 119.86 54.7946 119.72C54.6266 119.571 54.4913 119.384 54.3886 119.16C54.2859 118.927 54.2346 118.647 54.2346 118.32V114.106H53.2826V112.664H54.2346V110.284H56.1106V112.664H57.6646V114.106H56.1106V117.69C56.1106 117.951 56.1806 118.138 56.3206 118.25C56.4606 118.353 56.6286 118.404 56.8246 118.404C57.0206 118.404 57.2119 118.371 57.3986 118.306C57.5853 118.241 57.7346 118.185 57.8466 118.138L58.2246 119.622ZM59.1603 120V112.664H61.0363V120H59.1603ZM59.1603 111.642V109.78H61.0363V111.642H59.1603ZM63.1773 120V114.96H62.2253V113.518H63.1773V112.608C63.1773 111.693 63.3967 110.97 63.8353 110.438C64.2833 109.906 64.8807 109.64 65.6273 109.64C66.2247 109.64 66.8267 109.785 67.4333 110.074L67.0553 111.488C66.9153 111.413 66.7473 111.353 66.5513 111.306C66.3647 111.25 66.192 111.222 66.0333 111.222C65.38 111.222 65.0533 111.661 65.0533 112.538V113.518H66.8453V114.96H65.0533V120H63.1773ZM68.1314 121.428C68.2994 121.475 68.4534 121.507 68.5934 121.526C68.7334 121.545 68.8547 121.554 68.9574 121.554C69.0787 121.554 69.186 121.531 69.2794 121.484C69.3727 121.447 69.4614 121.372 69.5454 121.26C69.6387 121.148 69.7274 120.989 69.8114 120.784C69.9047 120.588 70.0027 120.327 70.1054 120L67.1934 112.664H69.1254L71.1274 118.376L72.8914 112.664H74.6554L71.5614 121.456C71.3654 122.016 71.0527 122.445 70.6234 122.744C70.194 123.052 69.6947 123.206 69.1254 123.206C68.7987 123.206 68.4674 123.155 68.1314 123.052V121.428ZM41.2127 134.88C40.4474 135.673 39.5654 136.07 38.5667 136.07C37.932 136.07 37.3347 135.93 36.7747 135.65C36.2147 135.37 35.7247 134.997 35.3047 134.53C34.894 134.054 34.5674 133.508 34.3247 132.892C34.0914 132.276 33.9747 131.637 33.9747 130.974C33.9747 130.293 34.0914 129.653 34.3247 129.056C34.5674 128.449 34.8987 127.922 35.3187 127.474C35.748 127.017 36.2474 126.657 36.8167 126.396C37.3954 126.125 38.0207 125.99 38.6927 125.99C39.598 125.99 40.3727 126.186 41.0167 126.578C41.6607 126.97 42.146 127.497 42.4727 128.16L41.0307 129.224C40.788 128.729 40.452 128.351 40.0227 128.09C39.6027 127.829 39.136 127.698 38.6227 127.698C38.212 127.698 37.8387 127.787 37.5027 127.964C37.176 128.141 36.896 128.384 36.6627 128.692C36.4294 129 36.2474 129.355 36.1167 129.756C35.986 130.157 35.9207 130.582 35.9207 131.03C35.9207 131.497 35.9907 131.935 36.1307 132.346C36.2707 132.747 36.4667 133.097 36.7187 133.396C36.9707 133.695 37.2647 133.933 37.6007 134.11C37.946 134.278 38.324 134.362 38.7347 134.362C39.6494 134.362 40.4754 133.909 41.2127 133.004V132.304H39.2107V130.89H42.8087V136H41.2127V134.88ZM46.2945 136.14C45.9398 136.14 45.6085 136.084 45.3005 135.972C44.9925 135.851 44.7265 135.687 44.5025 135.482C44.2785 135.267 44.1011 135.02 43.9705 134.74C43.8491 134.46 43.7885 134.152 43.7885 133.816C43.7885 133.471 43.8631 133.153 44.0125 132.864C44.1711 132.565 44.3858 132.313 44.6565 132.108C44.9365 131.903 45.2678 131.744 45.6505 131.632C46.0331 131.511 46.4531 131.45 46.9105 131.45C47.2371 131.45 47.5545 131.478 47.8625 131.534C48.1798 131.59 48.4598 131.669 48.7025 131.772V131.352C48.7025 130.867 48.5625 130.493 48.2825 130.232C48.0118 129.971 47.6058 129.84 47.0645 129.84C46.6725 129.84 46.2898 129.91 45.9165 130.05C45.5431 130.19 45.1605 130.395 44.7685 130.666L44.1945 129.476C45.1371 128.851 46.1545 128.538 47.2465 128.538C48.3011 128.538 49.1178 128.799 49.6965 129.322C50.2845 129.835 50.5785 130.582 50.5785 131.562V133.844C50.5785 134.04 50.6158 134.18 50.6905 134.264C50.7651 134.348 50.8958 134.395 51.0825 134.404V136C50.9051 136.037 50.7371 136.061 50.5785 136.07C50.4291 136.089 50.2985 136.098 50.1865 136.098C49.8318 136.089 49.5611 136.009 49.3745 135.86C49.1878 135.701 49.0711 135.491 49.0245 135.23L48.9825 134.824C48.6558 135.253 48.2591 135.58 47.7925 135.804C47.3258 136.028 46.8265 136.14 46.2945 136.14ZM46.8265 134.768C47.1438 134.768 47.4425 134.712 47.7225 134.6C48.0118 134.488 48.2358 134.339 48.3945 134.152C48.5998 133.993 48.7025 133.816 48.7025 133.62V132.78C48.4785 132.696 48.2358 132.631 47.9745 132.584C47.7131 132.528 47.4611 132.5 47.2185 132.5C46.7331 132.5 46.3365 132.612 46.0285 132.836C45.7205 133.051 45.5665 133.326 45.5665 133.662C45.5665 133.979 45.6878 134.245 45.9305 134.46C46.1731 134.665 46.4718 134.768 46.8265 134.768ZM56.7542 136.14C56.1849 136.14 55.6856 136.014 55.2562 135.762C54.8269 135.501 54.4909 135.151 54.2482 134.712V138.982H52.3722V128.664H54.0102V129.924C54.2809 129.495 54.6309 129.159 55.0602 128.916C55.4896 128.664 55.9842 128.538 56.5442 128.538C57.0389 128.538 57.4962 128.641 57.9162 128.846C58.3362 129.042 58.6956 129.313 58.9942 129.658C59.3022 129.994 59.5402 130.395 59.7082 130.862C59.8856 131.319 59.9742 131.805 59.9742 132.318C59.9742 132.85 59.8949 133.349 59.7362 133.816C59.5776 134.283 59.3536 134.689 59.0642 135.034C58.7842 135.379 58.4436 135.65 58.0422 135.846C57.6502 136.042 57.2209 136.14 56.7542 136.14ZM56.1382 134.544C56.4182 134.544 56.6749 134.483 56.9082 134.362C57.1509 134.241 57.3562 134.077 57.5242 133.872C57.6922 133.667 57.8229 133.429 57.9162 133.158C58.0096 132.887 58.0562 132.607 58.0562 132.318C58.0562 132.01 58.0049 131.725 57.9022 131.464C57.7996 131.193 57.6549 130.96 57.4682 130.764C57.2909 130.568 57.0762 130.414 56.8242 130.302C56.5816 130.19 56.3156 130.134 56.0262 130.134C55.8489 130.134 55.6669 130.167 55.4802 130.232C55.2936 130.288 55.1209 130.372 54.9622 130.484C54.8036 130.596 54.6589 130.727 54.5282 130.876C54.4069 131.025 54.3136 131.189 54.2482 131.366V133.088C54.4162 133.508 54.6729 133.858 55.0182 134.138C55.3636 134.409 55.7369 134.544 56.1382 134.544ZM64.1159 136.14C63.8173 136.14 63.5046 136.117 63.1779 136.07C62.8606 136.023 62.5479 135.958 62.2399 135.874C61.9319 135.79 61.6379 135.687 61.3579 135.566C61.0779 135.445 60.8306 135.309 60.6159 135.16L61.3719 133.886C62.3053 134.493 63.2059 134.796 64.0739 134.796C64.4659 134.796 64.7739 134.726 64.9979 134.586C65.2219 134.446 65.3339 134.245 65.3339 133.984C65.3339 133.723 65.1986 133.531 64.9279 133.41C64.6666 133.279 64.2233 133.139 63.5979 132.99C63.1219 132.878 62.7159 132.761 62.3799 132.64C62.0439 132.519 61.7733 132.379 61.5679 132.22C61.3626 132.061 61.2133 131.879 61.1199 131.674C61.0266 131.469 60.9799 131.226 60.9799 130.946C60.9799 130.573 61.0546 130.237 61.2039 129.938C61.3533 129.639 61.5586 129.387 61.8199 129.182C62.0906 128.967 62.4033 128.804 62.7579 128.692C63.1219 128.58 63.5139 128.524 63.9339 128.524C64.4566 128.524 64.9746 128.608 65.4879 128.776C66.0106 128.935 66.4959 129.154 66.9439 129.434L66.1739 130.596C65.7633 130.335 65.3759 130.148 65.0119 130.036C64.6479 129.915 64.2839 129.854 63.9199 129.854C63.5839 129.854 63.2993 129.919 63.0659 130.05C62.8419 130.181 62.7299 130.391 62.7299 130.68C62.7299 130.932 62.8373 131.114 63.0519 131.226C63.2759 131.338 63.6679 131.464 64.2279 131.604C64.7506 131.735 65.1939 131.865 65.5579 131.996C65.9313 132.127 66.2346 132.276 66.4679 132.444C66.7106 132.612 66.8833 132.808 66.9859 133.032C67.0979 133.247 67.1539 133.508 67.1539 133.816C67.1539 134.171 67.0793 134.493 66.9299 134.782C66.7899 135.071 66.5893 135.319 66.3279 135.524C66.0666 135.72 65.7446 135.874 65.3619 135.986C64.9886 136.089 64.5733 136.14 64.1159 136.14Z" fill="#322153"/>
</svg>
