<svg height="475.312pt" viewBox="0 0 475.312 475.312" width="475.312pt" xmlns="http://www.w3.org/2000/svg"><path d="m120 275.3125c0 8.835938-7.164062 16-16 16s-16-7.164062-16-16 7.164062-16 16-16 16 7.164062 16 16zm0 0" fill="#ffcd00"/><path d="m200 339.3125c0 8.835938-7.164062 16-16 16s-16-7.164062-16-16 7.164062-16 16-16 16 7.164062 16 16zm0 0" fill="#ab2300"/><path d="m280 179.3125c0 8.835938-7.164062 16-16 16s-16-7.164062-16-16 7.164062-16 16-16 16 7.164062 16 16zm0 0" fill="#5eac24"/><path d="m360 243.3125c0 8.835938-7.164062 16-16 16s-16-7.164062-16-16 7.164062-16 16-16 16 7.164062 16 16zm0 0" fill="#ff5023"/><path d="m440 115.3125c0 8.835938-7.164062 16-16 16s-16-7.164062-16-16 7.164062-16 16-16 16 7.164062 16 16zm0 0" fill="#1a6fb0"/><path d="m435.710938 395.710938-11.3125 11.3125 20.289062 20.289062h-396.6875v-396.6875l20.289062 20.285156 11.3125-11.308594-39.601562-39.601562-39.601562 39.601562 11.3125 11.308594 20.289062-20.285156v396.6875h-32v16h32v32h16v-32h396.6875l-20.289062 20.289062 11.3125 11.308594 39.601562-39.597656zm0 0" fill="#003f8a"/><path d="m424 91.3125c-13.253906 0-24 10.746094-24 24 .019531 5.410156 1.890625 10.652344 5.296875 14.855469l-56.121094 89.734375c-1.699219-.382813-3.433593-.582032-5.175781-.589844-4.460938.011719-8.828125 1.28125-12.601562 3.664062l-44.796876-35.832031c.90625-2.511719 1.378907-5.160156 1.398438-7.832031.027344-10.824219-7.191406-20.328125-17.625-23.203125-10.4375-2.875-21.503906 1.589844-27.023438 10.90625-5.515624 9.3125-4.117187 21.164063 3.417969 28.9375l-59.898437 119.648437c-.949219-.15625-1.910156-.25-2.871094-.289062-4.460938.011719-8.828125 1.28125-12.601562 3.664062l-44.796876-35.832031c.90625-2.511719 1.378907-5.160156 1.398438-7.832031 0-13.253906-10.746094-24-24-24s-24 10.746094-24 24 10.746094 24 24 24c4.460938-.011719 8.828125-1.285156 12.601562-3.664062l44.796876 35.832031c-.90625 2.511719-1.378907 5.160156-1.398438 7.832031-.027344 10.824219 7.191406 20.328125 17.625 23.203125 10.4375 2.875 21.503906-1.59375 27.023438-10.90625 5.515624-9.3125 4.117187-21.164063-3.417969-28.9375l59.898437-119.648437c.949219.152343 1.910156.25 2.871094.289062 4.460938-.011719 8.828125-1.285156 12.601562-3.664062l44.796876 35.832031c-.90625 2.511719-1.378907 5.160156-1.398438 7.832031 0 13.253906 10.746094 24 24 24s24-10.746094 24-24c-.019531-5.410156-1.890625-10.652344-5.296875-14.855469l56.121094-89.738281c9 2.039062 18.371093-1.265625 24.105469-8.5 5.730468-7.230469 6.808593-17.109375 2.773437-25.40625-4.039063-8.296875-12.476563-13.546875-21.703125-13.5zm-320 192c-4.417969 0-8-3.582031-8-8s3.582031-8 8-8 8 3.582031 8 8-3.582031 8-8 8zm80 64c-4.417969 0-8-3.582031-8-8s3.582031-8 8-8 8 3.582031 8 8-3.582031 8-8 8zm80-160c-4.417969 0-8-3.582031-8-8s3.582031-8 8-8 8 3.582031 8 8-3.582031 8-8 8zm80 64c-4.417969 0-8-3.582031-8-8s3.582031-8 8-8 8 3.582031 8 8-3.582031 8-8 8zm80-128c-4.417969 0-8-3.582031-8-8s3.582031-8 8-8 8 3.582031 8 8-3.582031 8-8 8zm0 0" fill="#c6c5ca"/></svg>