<svg width="100" height="160" viewBox="0 0 100 160" fill="none" xmlns="http://www.w3.org/2000/svg">
<path d="M43.1034 91.3793C65.9569 91.3793 84.4827 72.8535 84.4827 50C84.4827 27.1466 65.9569 8.62073 43.1034 8.62073C20.25 8.62073 1.72412 27.1466 1.72412 50C1.72412 72.8535 20.25 91.3793 43.1034 91.3793ZM43.1034 15.5173C62.1483 15.5173 77.5862 30.9552 77.5862 50C77.5862 69.0449 62.1483 84.4828 43.1034 84.4828C24.0586 84.4828 8.62067 69.0449 8.62067 50C8.62067 30.9552 24.0586 15.5173 43.1034 15.5173Z" fill="#00F2A9"/>
<path d="M43.1034 6.89661C23.1396 6.89661 6.89648 23.138 6.89648 43.1035C6.89648 63.0673 23.1396 79.3104 43.1034 79.3104C63.0672 79.3104 79.3103 63.0673 79.3103 43.1035C79.3103 23.138 63.0672 6.89661 43.1034 6.89661ZM43.1034 75.8621C25.0396 75.8621 10.3448 61.1673 10.3448 43.1035C10.3448 25.0397 25.0396 10.3449 43.1034 10.3449C61.1672 10.3449 75.862 25.0397 75.862 43.1035C75.862 61.1673 61.1672 75.8621 43.1034 75.8621Z" fill="#322153"/>
<path d="M22.4138 37.931C22.8552 37.931 23.2965 37.7621 23.6327 37.4258L37.4258 23.6327C38.1 22.9586 38.1 21.869 37.4258 21.1948C36.7517 20.5207 35.662 20.5207 34.9879 21.1948L21.1948 34.9879C20.5207 35.662 20.5207 36.7517 21.1948 37.4258C21.531 37.7621 21.9724 37.931 22.4138 37.931Z" fill="#322153"/>
<path d="M48.781 21.1948L21.1948 48.781C20.5207 49.4552 20.5207 50.5448 21.1948 51.219C21.531 51.5552 21.9724 51.7241 22.4138 51.7241C22.8552 51.7241 23.2965 51.5552 23.6327 51.219L51.219 23.6327C51.8931 22.9586 51.8931 21.869 51.219 21.1948C50.5448 20.5207 49.4552 20.5207 48.781 21.1948Z" fill="#322153"/>
<path d="M97.4741 81.2431L80.5828 64.3517C84.1552 58.0759 86.2069 50.8276 86.2069 43.1034C86.2069 19.3362 66.8707 0 43.1034 0C19.3362 0 0 19.3362 0 43.1034C0 66.8707 19.3362 86.2069 43.1034 86.2069C50.8276 86.2069 58.0759 84.1552 64.3517 80.5828L81.2431 97.4741C82.8707 99.1017 85.0362 100 87.3397 100H91.3793C96.1328 100 100 96.1328 100 91.3793V87.3397C100 85.0362 99.1017 82.8707 97.4741 81.2431ZM3.44828 43.1034C3.44828 21.2379 21.2362 3.44828 43.1034 3.44828C64.9707 3.44828 82.7586 21.2379 82.7586 43.1034C82.7586 64.9707 64.9707 82.7586 43.1034 82.7586C21.2362 82.7586 3.44828 64.9707 3.44828 43.1034ZM96.5517 91.3793C96.5517 94.231 94.231 96.5517 91.3793 96.5517H87.3397C85.9569 96.5517 84.6569 96.0121 83.681 95.0362L67.3586 78.7138C71.8138 75.669 75.669 71.8138 78.7138 67.3586L95.0362 83.681C96.0121 84.6603 96.5517 85.9569 96.5517 87.3397V91.3793V91.3793Z" fill="#322153"/>
<path d="M18.2372 123V113.06H22.4512C22.9085 113.06 23.3285 113.158 23.7112 113.354C24.1032 113.541 24.4392 113.793 24.7192 114.11C24.9992 114.418 25.2185 114.773 25.3772 115.174C25.5358 115.566 25.6152 115.963 25.6152 116.364C25.6152 116.784 25.5405 117.195 25.3912 117.596C25.2418 117.988 25.0318 118.338 24.7612 118.646C24.4905 118.954 24.1638 119.201 23.7812 119.388C23.3985 119.575 22.9785 119.668 22.5212 119.668H20.1692V123H18.2372ZM20.1692 117.974H22.4092C22.7638 117.974 23.0578 117.829 23.2912 117.54C23.5338 117.251 23.6552 116.859 23.6552 116.364C23.6552 116.112 23.6178 115.888 23.5432 115.692C23.4685 115.487 23.3705 115.314 23.2492 115.174C23.1278 115.034 22.9832 114.931 22.8152 114.866C22.6565 114.791 22.4932 114.754 22.3252 114.754H20.1692V117.974ZM26.7225 112.78H28.5985V120.564C28.5985 121.133 28.8552 121.418 29.3685 121.418C29.4712 121.418 29.5878 121.399 29.7185 121.362C29.8585 121.325 29.9892 121.283 30.1105 121.236L30.3625 122.734C30.1105 122.855 29.8165 122.949 29.4805 123.014C29.1445 123.079 28.8412 123.112 28.5705 123.112C27.9825 123.112 27.5252 122.958 27.1985 122.65C26.8812 122.333 26.7225 121.885 26.7225 121.306V112.78ZM33.1958 123.14C32.8412 123.14 32.5098 123.084 32.2018 122.972C31.8938 122.851 31.6278 122.687 31.4038 122.482C31.1798 122.267 31.0025 122.02 30.8718 121.74C30.7505 121.46 30.6898 121.152 30.6898 120.816C30.6898 120.471 30.7645 120.153 30.9138 119.864C31.0725 119.565 31.2872 119.313 31.5578 119.108C31.8378 118.903 32.1692 118.744 32.5518 118.632C32.9345 118.511 33.3545 118.45 33.8118 118.45C34.1385 118.45 34.4558 118.478 34.7638 118.534C35.0812 118.59 35.3612 118.669 35.6038 118.772V118.352C35.6038 117.867 35.4638 117.493 35.1838 117.232C34.9132 116.971 34.5072 116.84 33.9658 116.84C33.5738 116.84 33.1912 116.91 32.8178 117.05C32.4445 117.19 32.0618 117.395 31.6698 117.666L31.0958 116.476C32.0385 115.851 33.0558 115.538 34.1478 115.538C35.2025 115.538 36.0192 115.799 36.5978 116.322C37.1858 116.835 37.4798 117.582 37.4798 118.562V120.844C37.4798 121.04 37.5172 121.18 37.5918 121.264C37.6665 121.348 37.7972 121.395 37.9838 121.404V123C37.8065 123.037 37.6385 123.061 37.4798 123.07C37.3305 123.089 37.1998 123.098 37.0878 123.098C36.7332 123.089 36.4625 123.009 36.2758 122.86C36.0892 122.701 35.9725 122.491 35.9258 122.23L35.8838 121.824C35.5572 122.253 35.1605 122.58 34.6938 122.804C34.2272 123.028 33.7278 123.14 33.1958 123.14ZM33.7278 121.768C34.0452 121.768 34.3438 121.712 34.6238 121.6C34.9132 121.488 35.1372 121.339 35.2958 121.152C35.5012 120.993 35.6038 120.816 35.6038 120.62V119.78C35.3798 119.696 35.1372 119.631 34.8758 119.584C34.6145 119.528 34.3625 119.5 34.1198 119.5C33.6345 119.5 33.2378 119.612 32.9298 119.836C32.6218 120.051 32.4678 120.326 32.4678 120.662C32.4678 120.979 32.5892 121.245 32.8318 121.46C33.0745 121.665 33.3732 121.768 33.7278 121.768ZM43.5605 122.622C43.3085 122.734 42.9959 122.846 42.6225 122.958C42.2585 123.07 41.8759 123.126 41.4745 123.126C41.2132 123.126 40.9659 123.093 40.7325 123.028C40.5085 122.963 40.3079 122.86 40.1305 122.72C39.9625 122.571 39.8272 122.384 39.7245 122.16C39.6219 121.927 39.5705 121.647 39.5705 121.32V117.106H38.6185V115.664H39.5705V113.284H41.4465V115.664H43.0005V117.106H41.4465V120.69C41.4465 120.951 41.5165 121.138 41.6565 121.25C41.7965 121.353 41.9645 121.404 42.1605 121.404C42.3565 121.404 42.5479 121.371 42.7345 121.306C42.9212 121.241 43.0705 121.185 43.1825 121.138L43.5605 122.622ZM44.9312 123V117.96H43.9792V116.518H44.9312V115.608C44.9312 114.693 45.1506 113.97 45.5892 113.438C46.0372 112.906 46.6346 112.64 47.3812 112.64C47.9786 112.64 48.5806 112.785 49.1872 113.074L48.8092 114.488C48.6692 114.413 48.5012 114.353 48.3052 114.306C48.1186 114.25 47.9459 114.222 47.7872 114.222C47.1339 114.222 46.8072 114.661 46.8072 115.538V116.518H48.5992V117.96H46.8072V123H44.9312ZM53.1483 123.14C52.5509 123.14 52.0143 123.037 51.5383 122.832C51.0623 122.627 50.6563 122.351 50.3203 122.006C49.9936 121.651 49.7416 121.245 49.5643 120.788C49.3869 120.331 49.2983 119.85 49.2983 119.346C49.2983 118.833 49.3869 118.347 49.5643 117.89C49.7416 117.433 49.9936 117.031 50.3203 116.686C50.6563 116.331 51.0623 116.051 51.5383 115.846C52.0143 115.641 52.5509 115.538 53.1483 115.538C53.7456 115.538 54.2776 115.641 54.7443 115.846C55.2203 116.051 55.6216 116.331 55.9483 116.686C56.2843 117.031 56.5409 117.433 56.7183 117.89C56.8956 118.347 56.9843 118.833 56.9843 119.346C56.9843 119.85 56.8956 120.331 56.7183 120.788C56.5409 121.245 56.2889 121.651 55.9623 122.006C55.6356 122.351 55.2343 122.627 54.7583 122.832C54.2823 123.037 53.7456 123.14 53.1483 123.14ZM51.2303 119.346C51.2303 119.673 51.2769 119.971 51.3703 120.242C51.4729 120.503 51.6083 120.732 51.7763 120.928C51.9536 121.124 52.1589 121.278 52.3923 121.39C52.6256 121.493 52.8776 121.544 53.1483 121.544C53.4189 121.544 53.6709 121.493 53.9043 121.39C54.1376 121.278 54.3383 121.124 54.5063 120.928C54.6836 120.732 54.8189 120.499 54.9123 120.228C55.0149 119.957 55.0663 119.659 55.0663 119.332C55.0663 119.015 55.0149 118.721 54.9123 118.45C54.8189 118.179 54.6836 117.946 54.5063 117.75C54.3383 117.554 54.1376 117.405 53.9043 117.302C53.6709 117.19 53.4189 117.134 53.1483 117.134C52.8776 117.134 52.6256 117.19 52.3923 117.302C52.1589 117.414 51.9536 117.568 51.7763 117.764C51.6083 117.96 51.4729 118.193 51.3703 118.464C51.2769 118.735 51.2303 119.029 51.2303 119.346ZM62.5908 117.288C62.0215 117.297 61.5128 117.409 61.0648 117.624C60.6168 117.829 60.2948 118.142 60.0988 118.562V123H58.2228V115.664H59.9448V117.232C60.1968 116.728 60.5235 116.322 60.9248 116.014C61.3355 115.706 61.7648 115.552 62.2128 115.552C62.3155 115.552 62.3901 115.557 62.4368 115.566C62.4928 115.566 62.5441 115.571 62.5908 115.58V117.288ZM75.0329 123H73.1569V118.884C73.1569 118.296 73.0542 117.867 72.8489 117.596C72.6435 117.325 72.3635 117.19 72.0089 117.19C71.6449 117.19 71.2995 117.335 70.9729 117.624C70.6462 117.904 70.4129 118.273 70.2729 118.73V123H68.3969V118.884C68.3969 118.296 68.2942 117.867 68.0889 117.596C67.8929 117.325 67.6175 117.19 67.2629 117.19C66.8989 117.19 66.5489 117.33 66.2129 117.61C65.8862 117.89 65.6529 118.259 65.5129 118.716V123H63.6369V115.664H65.3309V117.022C65.6015 116.546 65.9702 116.182 66.4369 115.93C66.9129 115.669 67.4542 115.538 68.0609 115.538C68.6769 115.538 69.1482 115.687 69.4749 115.986C69.8109 116.285 70.0302 116.653 70.1329 117.092C70.4315 116.588 70.8095 116.205 71.2669 115.944C71.7242 115.673 72.2469 115.538 72.8349 115.538C73.2829 115.538 73.6515 115.622 73.9409 115.79C74.2302 115.958 74.4542 116.177 74.6129 116.448C74.7715 116.719 74.8789 117.027 74.9349 117.372C75.0002 117.717 75.0329 118.067 75.0329 118.422V123ZM28.5358 139L32.4558 129.06H34.0238L37.9298 139H35.8858L34.9758 136.522H31.4898L30.5798 139H28.5358ZM33.2398 131.146L31.8118 135.164H34.6258L33.2398 131.146ZM40.8847 139.14C40.1287 139.14 39.5547 138.897 39.1627 138.412C38.7707 137.927 38.5747 137.208 38.5747 136.256V131.664H40.4507V135.85C40.4507 136.979 40.8567 137.544 41.6687 137.544C42.042 137.544 42.3967 137.437 42.7327 137.222C43.078 136.998 43.358 136.662 43.5727 136.214V131.664H45.4487V136.844C45.4487 137.04 45.486 137.18 45.5607 137.264C45.6354 137.348 45.766 137.395 45.9527 137.404V139C45.7567 139.037 45.584 139.061 45.4347 139.07C45.2854 139.089 45.1547 139.098 45.0427 139.098C44.7067 139.098 44.4407 139.023 44.2447 138.874C44.058 138.715 43.9414 138.501 43.8947 138.23L43.8527 137.628C43.5167 138.132 43.092 138.51 42.5787 138.762C42.0747 139.014 41.51 139.14 40.8847 139.14ZM50.3917 139.14C49.8877 139.14 49.421 139.042 48.9917 138.846C48.5717 138.65 48.2077 138.379 47.8997 138.034C47.5917 137.689 47.349 137.287 47.1717 136.83C47.0037 136.363 46.9197 135.864 46.9197 135.332C46.9197 134.8 46.999 134.305 47.1577 133.848C47.3257 133.391 47.5543 132.989 47.8437 132.644C48.133 132.299 48.4783 132.028 48.8797 131.832C49.281 131.636 49.7197 131.538 50.1957 131.538C50.7277 131.538 51.2083 131.669 51.6377 131.93C52.0763 132.191 52.417 132.532 52.6597 132.952V128.78H54.5357V136.844C54.5357 137.04 54.573 137.18 54.6477 137.264C54.7223 137.348 54.853 137.395 55.0397 137.404V139C54.685 139.065 54.3863 139.098 54.1437 139.098C53.7983 139.089 53.5277 139.009 53.3317 138.86C53.145 138.711 53.0283 138.501 52.9817 138.23L52.9397 137.726C52.669 138.193 52.305 138.547 51.8477 138.79C51.3903 139.023 50.905 139.14 50.3917 139.14ZM50.8817 137.544C51.059 137.544 51.241 137.516 51.4277 137.46C51.6143 137.395 51.787 137.306 51.9457 137.194C52.1043 137.082 52.249 136.951 52.3797 136.802C52.5103 136.653 52.6083 136.489 52.6737 136.312V134.562C52.515 134.151 52.2537 133.811 51.8897 133.54C51.535 133.269 51.1617 133.134 50.7697 133.134C50.4897 133.134 50.2283 133.195 49.9857 133.316C49.7523 133.437 49.5517 133.605 49.3837 133.82C49.2157 134.025 49.085 134.263 48.9917 134.534C48.8983 134.805 48.8517 135.085 48.8517 135.374C48.8517 135.682 48.903 135.967 49.0057 136.228C49.1083 136.489 49.2483 136.718 49.4257 136.914C49.6123 137.11 49.827 137.264 50.0697 137.376C50.3217 137.488 50.5923 137.544 50.8817 137.544ZM56.4455 139V131.664H58.3215V139H56.4455ZM56.4455 130.642V128.78H58.3215V130.642H56.4455ZM64.3965 138.622C64.1445 138.734 63.8318 138.846 63.4585 138.958C63.0945 139.07 62.7118 139.126 62.3105 139.126C62.0492 139.126 61.8018 139.093 61.5685 139.028C61.3445 138.963 61.1438 138.86 60.9665 138.72C60.7985 138.571 60.6632 138.384 60.5605 138.16C60.4578 137.927 60.4065 137.647 60.4065 137.32V133.106H59.4545V131.664H60.4065V129.284H62.2825V131.664H63.8365V133.106H62.2825V136.69C62.2825 136.951 62.3525 137.138 62.4925 137.25C62.6325 137.353 62.8005 137.404 62.9965 137.404C63.1925 137.404 63.3838 137.371 63.5705 137.306C63.7572 137.241 63.9065 137.185 64.0185 137.138L64.3965 138.622Z" fill="#322153"/>
</svg>
