<?xml version="1.0" encoding="UTF-8"?>
<svg width="222px" height="216px" viewBox="0 0 222 216" version="1.1" xmlns="http://www.w3.org/2000/svg" xmlns:xlink="http://www.w3.org/1999/xlink">
    <!-- Generator: Sketch 54.1 (76490) - https://sketchapp.com -->
    <title>Group 11</title>
    <desc>Created with Sketch.</desc>
    <g id="Page-1" stroke="none" stroke-width="1" fill="none" fill-rule="evenodd">
        <g id="Artboard" transform="translate(-50.000000, -297.000000)">
            <g id="Group-22" transform="translate(50.000000, 43.000000)">
                <g id="Group-21" transform="translate(0.000000, 254.000000)">
                    <g id="Group-13">
                        <g id="Group-11">
                            <g id="appointment" transform="translate(49.046512, 46.465116)" fill-rule="nonzero">
                                <path d="M94.0557243,95.3152383 L94.0557243,100.780709 C94.0557243,104.048498 96.6931599,106.697674 99.9464668,106.697674 L99.9464668,106.697674 C103.199774,106.697674 105.837209,104.048498 105.837209,100.780709 L105.837209,20.4975083 C105.837209,15.8302341 102.070256,12.0465116 97.4236658,12.0465116 L81.0172559,12.0465116 L24.1572667,12.0465116 L17.8786598,12.0465116 C13.2320701,12.0465116 9.46511628,15.8302341 9.46511628,20.4975083 L9.46511628,95.3152383 L94.0557243,95.3152383 Z" id="Shape" fill="#FFFFFF"></path>
                                <path d="M94.7562039,100.436842 L94.7562039,94.6563056 L94.753667,94.6511628 L2.58139535,94.6511628 L2.58139535,100.436842 C2.58139535,103.89461 5.23163251,106.697674 8.50087847,106.697674 L100.674419,106.697674 L100.674419,106.697674 C97.4058069,106.697004 94.7562039,103.894163 94.7562039,100.436842 Z" id="Shape" fill="#FCFCFA"></path>
                                <path d="M105.837209,29.255814 L9.46511628,29.255814 L9.46511628,20.3401513 C9.46511628,15.7597815 13.2417636,12.0465116 17.9003104,12.0465116 L97.4020152,12.0465116 C102.060562,12.0465116 105.837209,15.7597815 105.837209,20.3401513 L105.837209,29.255814 Z" id="Shape" fill="#7FC24D"></path>
                                <g id="Group" transform="translate(41.302326, 67.116279)" fill="#FCF9F0">
                                    <path d="M5.99494651,12.0465116 L5.99494651,12.0465116 C2.71274248,12.0465116 0.0520007752,9.34981395 0.0520007752,6.02325581 L0.0520007752,6.02325581 C0.0520007752,2.69669767 2.71274248,0 5.99494651,0 L5.99494651,0 C9.27715054,0 11.9378922,2.69669767 11.9378922,6.02325581 L11.9378922,6.02325581 C11.9378922,9.34981395 9.27715054,12.0465116 5.99494651,12.0465116 Z" id="Shape"></path>
                                    <path d="M25.8046949,12.0465116 L25.8046949,12.0465116 C22.5224909,12.0465116 19.8617491,9.34981395 19.8617491,6.02325581 L19.8617491,6.02325581 C19.8617491,2.69669767 22.5224909,0 25.8046949,0 L25.8046949,0 C29.0868989,0 31.7476406,2.69669767 31.7476406,6.02325581 L31.7476406,6.02325581 C31.7476406,9.34981395 29.0868989,12.0465116 25.8046949,12.0465116 Z" id="Shape"></path>
                                </g>
                                <path d="M87.7674419,79.1627907 L87.7674419,79.1627907 C84.4408837,79.1627907 81.744186,76.466093 81.744186,73.1395349 L81.744186,73.1395349 C81.744186,69.8129767 84.4408837,67.1162791 87.7674419,67.1162791 L87.7674419,67.1162791 C91.094,67.1162791 93.7906977,69.8129767 93.7906977,73.1395349 L93.7906977,73.1395349 C93.7906977,76.466093 91.094,79.1627907 87.7674419,79.1627907 Z" id="Shape" fill="#FFF6D8"></path>
                                <g id="Group" transform="translate(21.511628, 43.883721)" fill="#FCF9F0">
                                    <path d="M6.21944186,12.0465116 L6.21944186,12.0465116 C2.89288372,12.0465116 0.196186047,9.34981395 0.196186047,6.02325581 L0.196186047,6.02325581 C0.196186047,2.69669767 2.89288372,0 6.21944186,0 L6.21944186,0 C9.546,0 12.2426977,2.69669767 12.2426977,6.02325581 L12.2426977,6.02325581 C12.2426977,9.34981395 9.546,12.0465116 6.21944186,12.0465116 Z" id="Shape"></path>
                                    <path d="M46.3743372,12.0465116 L46.3743372,12.0465116 C43.0477791,12.0465116 40.3510814,9.34981395 40.3510814,6.02325581 L40.3510814,6.02325581 C40.3510814,2.69669767 43.0477791,0 46.3743372,0 L46.3743372,0 C49.7008953,0 52.397593,2.69669767 52.397593,6.02325581 L52.397593,6.02325581 C52.397593,9.34981395 49.7008953,12.0465116 46.3743372,12.0465116 Z" id="Shape"></path>
                                    <path d="M26.2968895,12.0465116 L26.2968895,12.0465116 C22.9703314,12.0465116 20.2736337,9.34981395 20.2736337,6.02325581 L20.2736337,6.02325581 C20.2736337,2.69669767 22.9703314,0 26.2968895,0 L26.2968895,0 C29.6234477,0 32.3201453,2.69669767 32.3201453,6.02325581 L32.3201453,6.02325581 C32.3201453,9.34981395 29.6234477,12.0465116 26.2968895,12.0465116 Z" id="Shape"></path>
                                </g>
                                <g id="Group" transform="translate(4.302326, 43.883721)" fill="#FFF6D8">
                                    <path d="M83.5461749,11.9452804 L83.5461749,11.9452804 C80.2746662,11.9452804 77.6225948,9.27124409 77.6225948,5.97264022 L77.6225948,5.97264022 C77.6225948,2.67403635 80.2746662,0 83.5461749,0 L83.5461749,0 C86.8176837,0 89.4697551,2.67403635 89.4697551,5.97264022 L89.4697551,5.97264022 C89.4697551,9.27124409 86.8176837,11.9452804 83.5461749,11.9452804 Z" id="Shape"></path>
                                    <ellipse id="Oval" cx="15.3336104" cy="35.4092242" rx="15.2320633" ry="15.3582177"></ellipse>
                                </g>
                                <g id="Group" transform="translate(29.255814, 2.581395)" fill="#FFFFFF">
                                    <path d="M4.35769923,18.8214381 C1.99035817,18.8214381 0.0713674246,16.8731473 0.0713674246,14.4696605 L0.0713674246,4.3517776 C0.0713674246,1.94829083 1.99035817,0 4.35769923,0 C6.72504029,0 8.64403104,1.94829083 8.64403104,4.3517776 L8.64403104,14.4696605 C8.64403104,16.8731473 6.72504029,18.8214381 4.35769923,18.8214381 Z" id="Shape"></path>
                                    <path d="M53.2218818,18.8214381 C50.8545408,18.8214381 48.93555,16.8731473 48.93555,14.4696605 L48.93555,4.3517776 C48.93555,1.94829083 50.8545408,0 53.2218818,0 C55.5892229,0 57.5082136,1.94829083 57.5082136,4.3517776 L57.5082136,14.4696605 C57.5082136,16.8731473 55.5892229,18.8214381 53.2218818,18.8214381 Z" id="Shape"></path>
                                </g>
                                <path d="M97.8308503,9.31722384 L87.7371205,9.31722384 L87.7371205,6.35265262 C87.7371205,2.84979996 84.8873206,0 81.3844679,0 C77.8816153,0 75.0318153,2.84979996 75.0318153,6.35265262 L75.0318153,9.31722384 L39.4569607,9.31722384 L39.4569607,6.35265262 C39.4569607,2.84979996 36.6071607,0 33.104308,0 C29.6014554,0 26.7516554,2.84979996 26.7516554,6.35265262 L26.7516554,9.39557322 C26.5716636,9.34581077 26.3829898,9.31722384 26.1871164,9.31722384 L17.7499467,9.31722384 C11.9118589,9.31722384 7.16219231,14.0668904 7.16219231,19.9049782 L7.16219231,55.9738575 C7.16219231,57.1433808 8.1104316,58.0914083 9.27974319,58.0914083 C10.4490548,58.0914083 11.3972941,57.1433808 11.3972941,55.9738575 L11.3972941,31.1279978 L87.7371205,31.1279978 C88.9064321,31.1279978 89.8546714,30.1799703 89.8546714,29.0104469 C89.8546714,27.8409236 88.9064321,26.8928961 87.7371205,26.8928961 L11.3972941,26.8928961 L11.3972941,19.9049782 C11.3972941,16.4021255 14.247094,13.5523256 17.7499467,13.5523256 L26.1871164,13.5523256 C26.3829898,13.5523256 26.5716636,13.5235269 26.7516554,13.4739762 L26.7516554,16.1992642 C26.7516554,19.7021168 29.6014554,22.5519168 33.104308,22.5519168 C36.6071607,22.5519168 39.4569607,19.7021168 39.4569607,16.1992642 L39.4569607,13.5523256 L75.0318153,13.5523256 L75.0318153,16.1992642 C75.0318153,19.7021168 77.8816153,22.5519168 81.3844679,22.5519168 C84.8873206,22.5519168 87.7371205,19.7021168 87.7371205,16.1992642 L87.7371205,13.5523256 L97.8308503,13.5523256 C101.333703,13.5523256 104.183503,16.4021255 104.183503,19.9049782 L104.183503,100.370641 C104.183503,102.472945 102.473157,104.183503 100.370641,104.183503 C98.2681245,104.183503 96.5577787,102.472945 96.5577787,100.370641 L96.5577787,94.8927485 C96.5577787,93.7232251 95.6095394,92.7751976 94.4402278,92.7751976 L69.8086643,92.7751976 C68.6393527,92.7751976 67.6911135,93.7232251 67.6911135,94.8927485 C67.6911135,96.0622718 68.6393527,97.0102993 69.8086643,97.0102993 L92.322677,97.0102993 L92.322677,100.370641 C92.322677,101.749378 92.6716493,103.04786 93.2851038,104.183503 L8.04669331,104.183503 C5.94502407,104.183503 4.23510174,102.473581 4.23510174,100.371911 L4.23510174,97.0102993 L51.6311841,97.0102993 C52.8004957,97.0102993 53.748735,96.0622718 53.748735,94.8927485 C53.748735,93.7232251 52.8004957,92.7751976 51.6311841,92.7751976 L30.4734628,92.7751976 C34.1736712,89.5884953 36.5233057,84.874827 36.5233057,79.6199128 C36.5233057,70.0454065 28.7338948,62.2559956 19.1593885,62.2559956 C9.58488227,62.2559956 1.79547138,70.0454065 1.79547138,79.6199128 C1.79547138,84.874827 4.14510583,89.5884953 7.84531423,92.7751976 L2.11755087,92.7751976 C0.948239281,92.7751976 0,93.7232251 0,94.8927485 L0,100.371911 C0,104.808816 3.60978897,108.418605 8.04669331,108.418605 L100.370641,108.418605 C104.80818,108.418605 108.418605,104.808392 108.418605,100.370641 L108.418605,19.9049782 C108.418605,14.0668904 103.668938,9.31722384 97.8308503,9.31722384 Z M35.2218589,16.1992642 C35.2218589,17.3668817 34.2719256,18.316815 33.104308,18.316815 C31.9366905,18.316815 30.9867572,17.3668817 30.9867572,16.1992642 L30.9867572,6.35265262 C30.9867572,5.18503507 31.9366905,4.23510174 33.104308,4.23510174 C34.2719256,4.23510174 35.2218589,5.18503507 35.2218589,6.35265262 L35.2218589,16.1992642 Z M83.5020188,16.1992642 C83.5020188,17.3668817 82.5520855,18.316815 81.3844679,18.316815 C80.2168504,18.316815 79.2669171,17.3668817 79.2669171,16.1992642 L79.2669171,6.35265262 C79.2669171,5.18503507 80.2168504,4.23510174 81.3844679,4.23510174 C82.5520855,4.23510174 83.5020188,5.18503507 83.5020188,6.35265262 L83.5020188,16.1992642 Z M6.03057313,79.6199128 C6.03057313,72.3806416 11.9201174,66.4910974 19.1593885,66.4910974 C26.3986597,66.4910974 32.2882039,72.3806416 32.2882039,79.6199128 C32.2882039,86.859184 26.3986597,92.7487282 19.1593885,92.7487282 C11.9201174,92.7487282 6.03057313,86.859184 6.03057313,79.6199128 Z" id="Shape" fill="#000000"></path>
                                <path d="M96.8023256,30.9767442 C97.3680814,30.9767442 97.9230814,30.7465698 98.3229826,30.3464535 C98.7230988,29.9463372 98.9534884,29.3913372 98.9534884,28.8255814 C98.9534884,28.2598256 98.723314,27.7048256 98.3229826,27.3047093 C97.9230814,26.904593 97.3680814,26.6744186 96.8023256,26.6744186 C96.2363547,26.6744186 95.6815698,26.904593 95.2814535,27.3047093 C94.8813372,27.7048256 94.6511628,28.2598256 94.6511628,28.8255814 C94.6511628,29.3913372 94.8811221,29.9463372 95.2814535,30.3464535 C95.6817849,30.7465698 96.2363547,30.9767442 96.8023256,30.9767442 Z" id="Shape" fill="#000000"></path>
                                <path d="M60.8628488,92.6982212 C60.4627326,93.1006899 60.2325581,93.6538153 60.2325581,94.2198541 C60.2325581,94.7880452 60.4625174,95.3411706 60.8628488,95.7436393 C61.2629651,96.1439557 61.8179651,96.372093 62.3837209,96.372093 C62.9494767,96.372093 63.5044767,96.1439557 63.9043779,95.7436393 C64.3044942,95.3411706 64.5348837,94.7858929 64.5348837,94.2198541 C64.5348837,93.6538153 64.3047093,93.1006899 63.9043779,92.6982212 C63.5044767,92.2979048 62.9494767,92.0697674 62.3837209,92.0697674 C61.8179651,92.0697674 61.2629651,92.2979048 60.8628488,92.6982212 Z" id="Shape" fill="#000000"></path>
                                <path d="M48.6162791,80.8837209 C53.1236105,80.8837209 56.7906977,77.2166337 56.7906977,72.7093023 C56.7906977,68.2019709 53.1236105,64.5348837 48.6162791,64.5348837 C44.1089477,64.5348837 40.4418605,68.2019709 40.4418605,72.7093023 C40.4418605,77.2166337 44.1089477,80.8837209 48.6162791,80.8837209 Z M48.6162791,68.8372093 C50.7513081,68.8372093 52.4883721,70.5742733 52.4883721,72.7093023 C52.4883721,74.8443314 50.7513081,76.5813953 48.6162791,76.5813953 C46.48125,76.5813953 44.744186,74.8443314 44.744186,72.7093023 C44.744186,70.5742733 46.48125,68.8372093 48.6162791,68.8372093 Z" id="Shape" fill="#000000"></path>
                                <path d="M68.4069767,80.8837209 C72.9143081,80.8837209 76.5813953,77.2166337 76.5813953,72.7093023 C76.5813953,68.2019709 72.9143081,64.5348837 68.4069767,64.5348837 C63.8996453,64.5348837 60.2325581,68.2019709 60.2325581,72.7093023 C60.2325581,77.2166337 63.8996453,80.8837209 68.4069767,80.8837209 Z M68.4069767,68.8372093 C70.5420058,68.8372093 72.2790698,70.5742733 72.2790698,72.7093023 C72.2790698,74.8443314 70.5420058,76.5813953 68.4069767,76.5813953 C66.2719477,76.5813953 64.5348837,74.8443314 64.5348837,72.7093023 C64.5348837,70.5742733 66.2719477,68.8372093 68.4069767,68.8372093 Z" id="Shape" fill="#000000"></path>
                                <path d="M87.3372093,80.8837209 C91.8445407,80.8837209 95.5116279,77.2166337 95.5116279,72.7093023 C95.5116279,68.2019709 91.8445407,64.5348837 87.3372093,64.5348837 C82.8298779,64.5348837 79.1627907,68.2019709 79.1627907,72.7093023 C79.1627907,77.2166337 82.8298779,80.8837209 87.3372093,80.8837209 Z M87.3372093,68.8372093 C89.4722384,68.8372093 91.2093023,70.5742733 91.2093023,72.7093023 C91.2093023,74.8443314 89.4722384,76.5813953 87.3372093,76.5813953 C85.2021802,76.5813953 83.4651163,74.8443314 83.4651163,72.7093023 C83.4651163,70.5742733 85.2021802,68.8372093 87.3372093,68.8372093 Z" id="Shape" fill="#000000"></path>
                                <path d="M36.1395349,51.1976744 C36.1395349,46.690343 32.4724477,43.0232558 27.9651163,43.0232558 C23.4577849,43.0232558 19.7906977,46.690343 19.7906977,51.1976744 C19.7906977,55.7050058 23.4577849,59.372093 27.9651163,59.372093 C32.4724477,59.372093 36.1395349,55.7050058 36.1395349,51.1976744 Z M24.0930233,51.1976744 C24.0930233,49.0626453 25.8300872,47.3255814 27.9651163,47.3255814 C30.1001453,47.3255814 31.8372093,49.0626453 31.8372093,51.1976744 C31.8372093,53.3327035 30.1001453,55.0697674 27.9651163,55.0697674 C25.8300872,55.0697674 24.0930233,53.3327035 24.0930233,51.1976744 Z" id="Shape" fill="#000000"></path>
                                <path d="M68.4069767,59.372093 C72.9143081,59.372093 76.5813953,55.7050058 76.5813953,51.1976744 C76.5813953,46.690343 72.9143081,43.0232558 68.4069767,43.0232558 C63.8996453,43.0232558 60.2325581,46.690343 60.2325581,51.1976744 C60.2325581,55.7050058 63.8996453,59.372093 68.4069767,59.372093 Z M68.4069767,47.3255814 C70.5420058,47.3255814 72.2790698,49.0626453 72.2790698,51.1976744 C72.2790698,53.3327035 70.5420058,55.0697674 68.4069767,55.0697674 C66.2719477,55.0697674 64.5348837,53.3327035 64.5348837,51.1976744 C64.5348837,49.0626453 66.2719477,47.3255814 68.4069767,47.3255814 Z" id="Shape" fill="#000000"></path>
                                <path d="M87.3372093,59.372093 C91.8445407,59.372093 95.5116279,55.7050058 95.5116279,51.1976744 C95.5116279,46.690343 91.8445407,43.0232558 87.3372093,43.0232558 C82.8298779,43.0232558 79.1627907,46.690343 79.1627907,51.1976744 C79.1627907,55.7050058 82.8298779,59.372093 87.3372093,59.372093 Z M87.3372093,47.3255814 C89.4722384,47.3255814 91.2093023,49.0626453 91.2093023,51.1976744 C91.2093023,53.3327035 89.4722384,55.0697674 87.3372093,55.0697674 C85.2021802,55.0697674 83.4651163,53.3327035 83.4651163,51.1976744 C83.4651163,49.0626453 85.2021802,47.3255814 87.3372093,47.3255814 Z" id="Shape" fill="#000000"></path>
                                <path d="M48.6162791,59.372093 C53.1236105,59.372093 56.7906977,55.7050058 56.7906977,51.1976744 C56.7906977,46.690343 53.1236105,43.0232558 48.6162791,43.0232558 C44.1089477,43.0232558 40.4418605,46.690343 40.4418605,51.1976744 C40.4418605,55.7050058 44.1089477,59.372093 48.6162791,59.372093 Z M48.6162791,47.3255814 C50.7513081,47.3255814 52.4883721,49.0626453 52.4883721,51.1976744 C52.4883721,53.3327035 50.7513081,55.0697674 48.6162791,55.0697674 C46.48125,55.0697674 44.744186,53.3327035 44.744186,51.1976744 C44.744186,49.0626453 46.48125,47.3255814 48.6162791,47.3255814 Z" id="Shape" fill="#000000"></path>
                                <path d="M14.763576,85.454869 C15.1576023,85.8336092 15.6917222,86.0465116 16.248736,86.0465116 C16.8057498,86.0465116 17.3398697,85.8336092 17.733896,85.454869 L26.0592776,77.4482017 C26.8794656,76.6594122 26.8794656,75.3803815 26.0592776,74.5915921 C25.2388794,73.8028026 23.9093556,73.8028026 23.0887475,74.5915921 L16.248736,81.1699547 L13.9112525,78.9219553 C13.0908544,78.1331658 11.7613306,78.1331658 10.9407224,78.9219553 C10.1205344,79.7107447 10.1205344,80.9897754 10.9407224,81.7787668 L14.763576,85.454869 Z" id="Shape" fill="#000000"></path>
                            </g>
                            <g id="spinner-circle-(1)" fill="#FC9494" fill-rule="nonzero">
                                <path d="M222,111.141929 C221.714298,96.1626592 218.468036,81.2307033 212.47302,67.5770931 C206.497767,53.9114393 197.825316,41.5323037 187.178298,31.3029568 C176.537725,21.0658677 163.918719,12.9729755 150.260875,7.63420445 C136.610335,2.27478716 121.932556,-0.285345394 107.432644,0.0252083199 C92.9305825,0.312535025 78.4929654,3.46925761 65.2900966,9.28977404 C52.0773463,15.0913648 40.1075071,23.5090049 30.2187812,33.8377117 C20.3231814,44.161257 12.5056876,56.3988799 7.3531704,69.6369847 C2.18131998,82.8677773 -0.283450405,97.0839973 0.0258810706,111.141929 C0.313731194,125.202012 3.37396467,139.17865 9.00637529,151.960817 C14.620312,164.752017 22.7626038,176.341004 32.7501438,185.911392 C42.7320987,195.489523 54.5605906,203.050344 67.3471509,208.027376 C80.128126,213.023764 93.8508436,215.39808 107.432644,215.089677 C121.017451,214.80106 134.499577,211.829293 146.832451,206.371806 C159.173059,200.932385 170.353243,193.046815 179.583351,183.376637 C188.821621,173.712051 196.107237,162.265867 200.897579,149.900926 C203.814746,142.405054 205.793608,134.577982 206.836743,126.647248 C207.115571,126.663163 207.396117,126.674347 207.678812,126.674347 C215.587816,126.674347 221.99957,120.25552 221.99957,112.33683 C221.99957,111.934229 221.978519,111.536358 221.946297,111.14236 L222,111.141929 L222,111.141929 Z M199.244803,149.214438 C193.992183,161.133335 186.381769,171.930453 177.052418,180.842743 C167.728222,189.760194 156.689814,196.790235 144.775827,201.405958 C132.864846,206.038456 120.09676,208.227386 107.433073,207.920704 C94.7672381,207.629506 82.2380244,204.843555 70.7760044,199.749528 C59.3083992,194.671416 48.917869,187.318347 40.3455204,178.307988 C31.7667275,169.30193 25.0117014,158.646325 20.5822465,147.154977 C16.1360362,135.66535 14.0420339,123.359766 14.3474988,111.141069 C14.6387859,98.9197912 17.3295401,86.8537901 22.235881,75.8140787 C27.1267554,64.7696359 34.2065795,54.762236 42.8773126,46.5093356 C51.5437495,38.2499832 61.7920731,31.7528726 72.8334883,27.4997492 C83.8736146,23.2294205 95.6874992,21.2254458 107.433073,21.530838 C119.180366,21.8233262 130.755807,24.4247512 141.347403,29.1553188 C151.942865,33.8708317 161.543311,40.6931205 169.457471,49.0449508 C177.378075,57.3916195 183.601653,67.2570765 187.669791,77.8744005 C191.752967,88.4917244 193.662229,99.8419895 193.358483,111.141499 L193.412186,111.141499 C193.379535,111.535498 193.358483,111.933368 193.358483,112.33597 C193.358483,119.731191 198.951368,125.816238 206.132155,126.589181 C204.739304,134.390875 202.433495,142.006753 199.244803,149.214438 Z" id="Shape"></path>
                            </g>
                            <text id="Events" font-family="Raleway-Bold, Raleway" font-size="24" font-weight="bold" letter-spacing="2.423077" fill="#000000">
                                <tspan x="61" y="182">Events</tspan>
                            </text>
                        </g>
                    </g>
                </g>
            </g>
        </g>
    </g>
</svg>