<?xml version="1.0" encoding="UTF-8"?>
<svg width="222px" height="216px" viewBox="0 0 222 216" version="1.1" xmlns="http://www.w3.org/2000/svg" xmlns:xlink="http://www.w3.org/1999/xlink">
    <!-- Generator: Sketch 54.1 (76490) - https://sketchapp.com -->
    <title>Group 3</title>
    <desc>Created with Sketch.</desc>
    <g id="Page-1" stroke="none" stroke-width="1" fill="none" fill-rule="evenodd">
        <g id="Artboard" transform="translate(-50.000000, -552.000000)">
            <g id="Group-22" transform="translate(50.000000, 43.000000)">
                <g id="Group-20" transform="translate(0.000000, 509.000000)">
                    <g id="Group-14">
                        <g id="Group-3">
                            <g id="spinner-circle-(1)" fill="#FC9494" fill-rule="nonzero">
                                <path d="M222,111.141929 C221.714298,96.1626592 218.468036,81.2307033 212.47302,67.5770931 C206.497767,53.9114393 197.825316,41.5323037 187.178298,31.3029568 C176.537725,21.0658677 163.918719,12.9729755 150.260875,7.63420445 C136.610335,2.27478716 121.932556,-0.285345394 107.432644,0.0252083199 C92.9305825,0.312535025 78.4929654,3.46925761 65.2900966,9.28977404 C52.0773463,15.0913648 40.1075071,23.5090049 30.2187812,33.8377117 C20.3231814,44.161257 12.5056876,56.3988799 7.3531704,69.6369847 C2.18131998,82.8677773 -0.283450405,97.0839973 0.0258810706,111.141929 C0.313731194,125.202012 3.37396467,139.17865 9.00637529,151.960817 C14.620312,164.752017 22.7626038,176.341004 32.7501438,185.911392 C42.7320987,195.489523 54.5605906,203.050344 67.3471509,208.027376 C80.128126,213.023764 93.8508436,215.39808 107.432644,215.089677 C121.017451,214.80106 134.499577,211.829293 146.832451,206.371806 C159.173059,200.932385 170.353243,193.046815 179.583351,183.376637 C188.821621,173.712051 196.107237,162.265867 200.897579,149.900926 C203.814746,142.405054 205.793608,134.577982 206.836743,126.647248 C207.115571,126.663163 207.396117,126.674347 207.678812,126.674347 C215.587816,126.674347 221.99957,120.25552 221.99957,112.33683 C221.99957,111.934229 221.978519,111.536358 221.946297,111.14236 L222,111.141929 L222,111.141929 Z M199.244803,149.214438 C193.992183,161.133335 186.381769,171.930453 177.052418,180.842743 C167.728222,189.760194 156.689814,196.790235 144.775827,201.405958 C132.864846,206.038456 120.09676,208.227386 107.433073,207.920704 C94.7672381,207.629506 82.2380244,204.843555 70.7760044,199.749528 C59.3083992,194.671416 48.917869,187.318347 40.3455204,178.307988 C31.7667275,169.30193 25.0117014,158.646325 20.5822465,147.154977 C16.1360362,135.66535 14.0420339,123.359766 14.3474988,111.141069 C14.6387859,98.9197912 17.3295401,86.8537901 22.235881,75.8140787 C27.1267554,64.7696359 34.2065795,54.762236 42.8773126,46.5093356 C51.5437495,38.2499832 61.7920731,31.7528726 72.8334883,27.4997492 C83.8736146,23.2294205 95.6874992,21.2254458 107.433073,21.530838 C119.180366,21.8233262 130.755807,24.4247512 141.347403,29.1553188 C151.942865,33.8708317 161.543311,40.6931205 169.457471,49.0449508 C177.378075,57.3916195 183.601653,67.2570765 187.669791,77.8744005 C191.752967,88.4917244 193.662229,99.8419895 193.358483,111.141499 L193.412186,111.141499 C193.379535,111.535498 193.358483,111.933368 193.358483,112.33597 C193.358483,119.731191 198.951368,125.816238 206.132155,126.589181 C204.739304,134.390875 202.433495,142.006753 199.244803,149.214438 Z" id="Shape"></path>
                            </g>
                            <g id="sprout-(2)" transform="translate(51.627907, 58.511628)" fill-rule="nonzero">
                                <rect id="Rectangle-path" fill="#30995B" x="2.11755087" y="46.7449355" width="11.4347747" height="38.1159157"></rect>
                                <path d="M104.621201,59.6293855 C102.550236,57.5584208 99.2955602,57.2619637 96.8845168,58.9246646 L78.2056006,74.7624628 C79.9087467,73.0252241 79.9955663,69.5179246 77.9972336,67.5195918 L77.9972336,67.5195918 C77.203152,66.7252985 76.1257421,66.2791305 75.0025931,66.2791305 L55.2403378,66.2791305 C53.5554026,66.2791305 51.9397113,65.6097727 50.7483772,64.4184386 L39.4863946,53.103729 C37.5007672,51.1181016 34.807666,50.0025758 31.9997935,50.0025758 L13.5523256,50.0025758 L13.5523256,80.1137257 L22.3308445,85.4304724 C26.8041707,88.1398787 31.9343612,89.5724019 37.1642883,89.5724019 L70.6482733,89.5724019 C76.1894804,89.5724019 81.562554,87.6693589 85.8683819,84.1817526 L104.283028,68.0525794 C106.833194,65.881878 106.989046,61.9974427 104.621201,59.6293855 Z" id="Shape" fill="#F9BD95"></path>
                                <path d="M41.0961568,54.4451975 C46.5520266,51.0660098 52.9851462,49.1151102 59.8737509,49.1151102 C72.1932384,49.1151102 83.0547921,55.3538386 89.4779591,64.8444898 L80.2520017,73.7119459 C80.2520017,73.7119459 80.2549663,65.8573144 70.5142323,65.8573144 C60.7734983,65.8573144 52.9334779,65.8573144 52.9334779,65.8573144 L41.0961568,54.4451975 Z" id="Shape" fill="#30995B"></path>
                                <g id="Group" transform="translate(34.304324, 2.329306)" fill="#ACD670">
                                    <path d="M14.9556265,7.69306232 C26.4272466,11.5224413 25.6005548,27.8635814 25.6005548,28.0789363 L25.6026723,28.0812656 L25.6037311,28.0825362 L25.6037311,28.0825362 L25.6020371,28.0804186 C25.5446514,28.0819009 12.0575464,28.5064698 5.2093869,20.8496176 C-1.63453752,13.1934007 0.512023801,0.0601384448 0.525576126,0.00402334666 L0.52197629,0 C0.52197629,0 4.20312673,4.10381359 14.9556265,7.69306232 Z" id="Shape"></path>
                                    <path d="M50.6912033,0 L50.6878152,0.00381159157 C50.7015793,0.0601384448 52.8479289,13.193189 46.0040045,20.8494059 C39.1558449,28.5062581 25.6687399,28.0819009 25.6113543,28.0802068 L25.6096602,28.0823244 L25.6096602,28.0823244 L25.610719,28.0810539 L25.6128366,28.0787246 C25.6128366,27.8633696 24.7861447,11.5222296 36.2577648,7.69285056 C47.0100529,4.10381359 50.6912033,0 50.6912033,0 Z" id="Shape"></path>
                                </g>
                                <path d="M13.5523256,63.7126589 C12.383014,63.7126589 11.4347747,64.6606864 11.4347747,65.8302098 L11.4347747,65.8575262 C11.4347747,67.0270495 12.383014,67.975077 13.5523256,67.975077 C14.7216372,67.975077 15.6698765,67.0270495 15.6698765,65.8575262 L15.6698765,65.8302098 C15.6698765,64.6606864 14.7216372,63.7126589 13.5523256,63.7126589 Z" id="Shape" fill="#000000"></path>
                                <path d="M106.118521,58.1322771 C103.324624,55.3377452 98.9353648,54.9385868 95.6823832,57.1814967 C95.6247858,57.2213067 95.5688824,57.264293 95.5153084,57.3096086 L90.0179346,61.9707615 C83.3063571,53.1312572 73.0912917,47.6902102 62.0311117,47.0612976 L62.0311117,32.4836539 C66.3739968,32.2574995 76.1399297,31.0159794 81.8871745,24.5900595 C88.7114057,16.9560769 87.442781,4.63658939 87.1111725,2.2371925 C87.0874559,1.68768805 86.8507138,1.14792433 86.4087809,0.751942315 C85.5384675,-0.0279516715 84.2001753,0.0448920785 83.4194343,0.915205487 C83.3864005,0.952050872 79.8344207,4.69482204 69.8916723,8.01365952 C65.3607487,9.52601435 61.9500095,12.943318 59.9112316,17.9672074 C57.8724536,12.943318 54.4617144,9.52622611 49.9307908,8.01365952 C39.9895247,4.69524555 36.4261101,0.939557322 36.4030288,0.915205487 C35.6222878,0.0448920785 34.2859014,-0.0260458757 33.415588,0.75384811 C32.9829724,1.14135992 32.7475007,1.66735956 32.7155257,2.20521748 C32.3911169,4.5247827 31.0801412,16.921349 37.9352886,24.5902713 C43.6852862,31.0193675 53.458207,32.2585582 57.7962217,32.4838656 L57.7962217,47.0596036 C51.9757097,47.3776597 46.3233311,49.025326 41.2645021,51.8880431 L40.9841384,51.6064088 C38.584318,49.2068001 35.3938041,47.8852366 32.0000053,47.8852366 L15.6698765,47.8852366 L15.6698765,46.7449355 C15.6698765,45.5754122 14.7216372,44.6273846 13.5523256,44.6273846 L2.11755087,44.6273846 C0.948239281,44.6273846 0,45.5754122 0,46.7449355 L0,84.8608512 C0,86.0303745 0.948239281,86.9784021 2.11755087,86.9784021 L13.5523256,86.9784021 C14.7216372,86.9784021 15.6698765,86.0303745 15.6698765,84.8608512 L15.6698765,83.8721667 L21.2337414,87.2418254 C26.0382525,90.1517638 31.5470611,91.6899528 37.1642883,91.6899528 L70.6482733,91.6899528 C76.6549181,91.6899528 82.5336628,89.607765 87.2011684,85.8270897 C87.2223439,85.8099375 87.2430959,85.7923618 87.2636362,85.7745744 L105.668541,69.6540831 C107.325101,68.2378651 108.324797,66.1781234 108.412252,64.0000105 C108.499919,61.8161803 107.66391,59.6774539 106.118521,58.1322771 Z M71.2322938,12.031077 C76.9498929,10.1225284 80.7924007,8.04182295 83.2025971,6.44180151 C83.2974634,10.5930482 82.730595,17.2917087 78.7299062,21.7671524 C74.1415969,26.8975547 65.9051711,28.003975 62.0582164,28.2358468 C62.2687009,23.9262073 63.6175809,14.5727733 71.2322938,12.031077 Z M41.0921334,21.7675759 C37.0914446,17.2919204 36.5243645,10.5930482 36.6192307,6.44180151 C39.0294271,8.04182295 42.871935,10.1225284 48.5895341,12.031077 C56.204247,14.5729851 57.5531269,23.9264191 57.7636115,28.2360586 C53.9204684,28.0043985 45.6815015,26.8988252 41.0921334,21.7675759 Z M59.8737509,51.2326611 C70.50068,51.2326611 80.4398285,56.244904 86.7816816,64.7144722 L81.3499519,69.3201453 C81.0240608,68.076296 80.3955717,66.9235013 79.494342,66.0222716 C78.2943259,64.8224673 76.6991749,64.1615797 75.0023814,64.1615797 L55.2401261,64.1615797 C54.1089304,64.1615797 53.0454964,63.7211291 52.2490855,62.9247182 L44.3773019,55.0158775 C49.1422148,52.5358019 54.4502796,51.2326611 59.8737509,51.2326611 Z M102.910643,66.4398527 C102.90302,66.4462053 102.895397,66.4527697 102.887985,66.4593341 L84.5046791,82.5609792 C80.5937744,85.7171888 75.674492,87.454851 70.6482733,87.454851 L37.1642883,87.454851 C32.3206025,87.454851 27.5705124,86.1286289 23.4279476,83.6193311 L15.6698765,78.9206975 L15.6698765,72.9724971 C15.6698765,71.8029737 14.7216372,70.8549462 13.5523256,70.8549462 C12.383014,70.8549462 11.4347747,71.8029737 11.4347747,72.9724971 L11.4347747,82.7430886 L4.23510174,82.7430886 L4.23510174,48.8622746 L11.4347747,48.8622746 L11.4347747,58.2631417 C11.4347747,59.4326651 12.383014,60.3806926 13.5523256,60.3806926 C14.7216372,60.3806926 15.6698765,59.4326651 15.6698765,58.2631417 L15.6698765,52.1201266 L31.9995818,52.1201266 C34.2621849,52.1201266 36.389053,53.0012396 37.9854746,54.5974494 L49.2508452,65.9157588 C50.8506549,67.5155685 52.9777347,68.3964697 55.2401261,68.3964697 L75.0023814,68.3964697 C75.5679792,68.3964697 76.0996962,68.6166949 76.4994898,69.0167003 C77.4703869,69.9873856 77.5487363,71.5867718 77.129673,72.5987494 C77.0225249,72.8577258 76.8988599,73.0531758 76.7699011,73.2030984 C76.7699011,73.2030984 76.3358031,73.6814531 75.7092198,73.6814531 L47.5919559,73.6814531 C46.1287282,73.6814531 44.7070045,73.259637 43.4803073,72.4619556 L36.6581937,68.0248395 C35.6784029,67.3863979 34.3665801,67.6635853 33.7281385,68.6435878 C33.0899087,69.6235904 33.3670961,70.9354132 34.3470987,71.573643 L41.1713299,76.0120296 C43.0868664,77.2579965 45.3071185,77.9165549 47.5919559,77.9165549 L75.7092198,77.9165549 C77.2497381,77.9165549 78.6261462,77.3348636 79.6671342,76.2989578 L98.1649998,60.6148937 C99.7264818,59.5912696 101.797447,59.8000601 103.123669,61.126494 C103.846177,61.8487906 104.221619,62.8088882 104.180327,63.8297594 C104.139458,64.8510542 103.688631,65.7776945 102.910643,66.4398527 Z" id="Shape" fill="#000000"></path>
                            </g>
                            <text id="Game" font-family="Raleway-Bold, Raleway" font-size="24" font-weight="bold" letter-spacing="2.423077" fill="#000000">
                                <tspan x="68" y="182">Game</tspan>
                            </text>
                        </g>
                    </g>
                </g>
            </g>
        </g>
    </g>
</svg>