<?xml version="1.0" encoding="UTF-8"?>
<svg width="222px" height="215px" viewBox="0 0 222 215" version="1.1" xmlns="http://www.w3.org/2000/svg" xmlns:xlink="http://www.w3.org/1999/xlink">
    <!-- Generator: Sketch 54.1 (76490) - https://sketchapp.com -->
    <title>Group 10</title>
    <desc>Created with Sketch.</desc>
    <g id="Page-1" stroke="none" stroke-width="1" fill="none" fill-rule="evenodd">
        <g id="Artboard" transform="translate(-50.000000, -43.000000)">
            <g id="Group-22" transform="translate(50.000000, 43.000000)">
                <g id="Group-12">
                    <g id="Group-10">
                        <g id="Group-5" fill-rule="nonzero">
                            <g id="shop" transform="translate(42.000000, 58.000000)">
                                <polygon id="Rectangle-path" fill="#FFEDB1" points="9.48275862 32.5254237 115.517241 32.5254237 115.517241 98.4322034 9.48275862 98.4322034"></polygon>
                                <path d="M9.48275862,48.2975863 C11.7794743,49.1535063 14.2537837,49.6440678 16.8461623,49.6440678 C22.6545797,49.6440678 28.1396541,47.2271372 32.0641082,43.1745134 C35.9888073,47.2271372 41.4736367,49.6440678 47.2820541,49.6440678 C53.0904715,49.6440678 58.5755459,47.2271372 62.5,43.1745134 C66.4246991,47.2271372 71.9095285,49.6440678 77.7179459,49.6440678 C83.5263633,49.6440678 89.0114377,47.2271372 92.9358918,43.1745134 C96.8605909,47.2271372 102.34542,49.6440678 108.153838,49.6440678 C110.746461,49.6440678 113.220526,49.1535063 115.517241,48.2975863 L115.517241,32.5254237 L9.48275862,32.5254237 L9.48275862,48.2975863 Z" id="Shape" fill="#7FC24D"></path>
                                <path d="M123.275862,28.7081795 C123.275862,36.9617977 116.473327,43.6525424 108.081805,43.6525424 C102.006872,43.6525424 96.7647085,40.1459995 94.3334148,35.0785073 C93.740816,33.843267 92.0349238,33.843267 91.442325,35.0785073 C89.0110313,40.1459995 83.768623,43.6525424 77.6939349,43.6525424 C71.6192469,43.6525424 66.3768386,40.1459995 63.9455449,35.0785073 C63.3529461,33.843267 61.6470539,33.843267 61.0544551,35.0785073 C58.6231614,40.1459995 53.3807531,43.6525424 47.3060651,43.6525424 C41.231377,43.6525424 35.9889687,40.1459995 33.557675,35.0785073 C32.9650762,33.843267 31.259184,33.843267 30.6665852,35.0785073 C28.2352915,40.1459995 22.9928832,43.6525424 16.9181952,43.6525424 C8.52667327,43.6525424 1.72413793,36.9617977 1.72413793,28.7081795 L16.2786385,3.65505255 C16.976648,2.45348969 18.2760608,1.71186441 19.6830856,1.71186441 L105.316181,1.71186441 C106.723205,1.71186441 108.022374,2.45348969 108.720628,3.65505255 L123.275862,28.7081795 Z" id="Shape" fill="#7FC24D"></path>
                                <path d="M105.316289,1.71186441 L19.6837109,1.71186441 C18.2766947,1.71186441 16.9775342,2.46430009 16.2792843,3.6833777 L1.72413793,29.1016949 L123.275862,29.1016949 L108.720716,3.6833777 C108.022466,2.46430009 106.723305,1.71186441 105.316289,1.71186441 Z" id="Shape" fill="#7FC24D"></path>
                                <g id="Group" transform="translate(18.965517, 52.211864)" fill="#7FC24D">
                                    <polygon id="Rectangle-path" points="62.6241964 0.00487837007 86.0486071 0.00487837007 86.0486071 46.9323593 62.6241964 46.9323593"></polygon>
                                    <polygon id="Rectangle-path" points="0.155854276 0.00487837007 52.8638223 0.00487837007 52.8638223 37.1561056 0.155854276 37.1561056"></polygon>
                                </g>
                                <g id="Group" transform="translate(25.000000, 58.203390)" fill="#FFF6D8">
                                    <polygon id="Shape" points="22.1193627 0.0158958838 0.170098039 0.0158958838 0.170098039 21.9160218"></polygon>
                                    <polygon id="Shape" points="3.50710784 25.5001768 9.99362745 25.5001768 35.5352941 0.0158958838 29.0487745 0.0158958838"></polygon>
                                    <polygon id="Shape" points="41.4294118 5.89663923 21.7821078 25.5001768 41.4294118 25.5001768"></polygon>
                                    <polygon id="Shape" points="74.829902 3.46065617 74.829902 0.0158958838 63.0416667 0.0158958838 63.0416667 15.222632"></polygon>
                                    <polygon id="Shape" points="63.0416667 23.540092 63.0416667 25.5001768 74.829902 25.5001768 74.829902 11.7778717"></polygon>
                                </g>
                                <path d="M119.254883,97.3562398 L117.171875,97.3562398 L117.171875,43.3102473 C121.875488,40.2990017 125,35.0482075 125,29.0815835 C125,28.7645975 124.916748,28.4529553 124.758789,28.1777483 L110.229248,2.88007898 C109.20874,1.10374284 107.297363,0 105.240967,0 L19.7590332,0 C17.7026367,0 15.7912598,1.10349994 14.770752,2.88007898 L0.241210938,28.1777483 C0.0832519531,28.4527124 0,28.7645975 0,29.0815835 C0,35.0482075 3.12451172,40.2990017 7.828125,43.3102473 L7.828125,97.3564827 L5.74511719,97.3564827 C4.73388672,97.3564827 3.9140625,98.1721448 3.9140625,99.1782413 C3.9140625,100.184338 4.73388672,101 5.74511719,101 L119.254883,101 C120.266357,101 121.085937,100.184338 121.085937,99.1782413 C121.085937,98.1721448 120.266113,97.3562398 119.254883,97.3562398 Z M3.78833008,30.9033422 L9.65844727,30.9033422 C10.6696777,30.9033422 11.489502,30.0876801 11.489502,29.0815835 C11.489502,28.0754869 10.6696777,27.2598249 9.65844727,27.2598249 L4.98632813,27.2598249 L17.9504395,4.68774936 C18.3205566,4.0435755 19.0134277,3.6435173 19.7590332,3.6435173 L105.240967,3.6435173 C105.986572,3.6435173 106.679688,4.0435755 107.049561,4.68774936 L120.013428,27.2598249 L115.340332,27.2598249 C114.328857,27.2598249 113.509277,28.0754869 113.509277,29.0815835 C113.509277,30.0876801 114.328857,30.9033422 115.340332,30.9033422 L121.211426,30.9033422 C120.316162,37.3606264 114.733887,42.350059 108.001465,42.350059 C101.269287,42.350059 95.6896973,37.3601406 94.7941895,30.9033422 L107.512939,30.9033422 C108.524414,30.9033422 109.343994,30.0876801 109.343994,29.0815835 C109.343994,28.0754869 108.524414,27.2598249 107.512939,27.2598249 L17.4880371,27.2598249 C16.4768066,27.2598249 15.6569824,28.0754869 15.6569824,29.0815835 C15.6569824,30.0876801 16.4768066,30.9033422 17.4880371,30.9033422 L30.2055664,30.9033422 C29.3100586,37.3601406 23.7302246,42.350059 16.998291,42.350059 C10.2658691,42.350059 4.68359375,37.3603835 3.78833008,30.9033422 Z M90.8745117,30.9033422 C89.9790039,37.3601406 84.3991699,42.350059 77.6672363,42.350059 C70.9350586,42.350059 65.3554688,37.3601406 64.4599609,30.9033422 L90.8745117,30.9033422 Z M60.5400391,30.9033422 C59.6445313,37.3601406 54.0646973,42.350059 47.3327637,42.350059 C40.6008301,42.350059 35.0209961,37.3601406 34.1254883,30.9033422 L60.5400391,30.9033422 Z M11.4902344,45.0768674 C13.2189941,45.6678459 15.0705566,45.9933334 16.998291,45.9933334 C23.6132813,45.9933334 29.357666,42.2147631 32.1655273,36.7128091 C34.9733887,42.2145202 40.7177734,45.9933334 47.3327637,45.9933334 C53.9477539,45.9933334 59.6921387,42.2147631 62.5,36.7128091 C65.3078613,42.2145202 71.0522461,45.9933334 77.6672363,45.9933334 C84.2822266,45.9933334 90.0266113,42.2147631 92.8344727,36.7128091 C95.642334,42.2145202 101.386719,45.9933334 108.001709,45.9933334 C109.929443,45.9933334 111.781006,45.6678459 113.509766,45.0771103 L113.509766,97.3562398 L107.386475,97.3562398 L107.386475,52.4469742 C107.386475,51.4408776 106.566895,50.6252155 105.55542,50.6252155 L82.0708008,50.6252155 C81.0593262,50.6252155 80.2397461,51.4408776 80.2397461,52.4469742 L80.2397461,97.3562398 L11.4902344,97.3562398 L11.4902344,45.0768674 Z M103.724121,87.6207616 L83.9016113,87.6207616 L83.9016113,54.2687328 L103.724121,54.2687328 L103.724121,87.6207616 Z M83.9016113,91.2642789 L103.724121,91.2642789 L103.724121,97.3564827 L83.9016113,97.3564827 L83.9016113,91.2642789 Z" id="Shape" fill="#000000"></path>
                                <path d="M72.2941205,50.5 L19.0851899,50.5 C18.0669148,50.5 17.2413793,51.307428 17.2413793,52.3033681 L17.2413793,88.9254455 C17.2413793,89.9213856 18.0669148,90.7288136 19.0851899,90.7288136 L72.2941205,90.7288136 C73.3126414,90.7288136 74.137931,89.9213856 74.137931,88.9254455 L74.137931,52.3033681 C74.137931,51.307428 73.3126414,50.5 72.2941205,50.5 Z M70.4503099,87.1220774 L20.9290004,87.1220774 L20.9290004,54.1067361 L70.4503099,54.1067361 L70.4503099,87.1220774 Z" id="Shape" fill="#000000"></path>
                            </g>
                            <g id="spinner-circle-(1)" fill="#FC9494">
                                <path d="M222,111.081853 C221.714298,96.1106794 218.468036,81.1867948 212.47302,67.540565 C206.497767,53.882298 197.825316,41.5098538 187.178298,31.2860363 C176.537725,21.0544807 163.918719,12.9659631 150.260875,7.63007785 C136.610335,2.27355755 121.932556,-0.285191154 107.432644,0.0251946938 C92.9305825,0.312366087 78.4929654,3.46738234 65.2900966,9.28475254 C52.0773463,15.0832073 40.1075071,23.4962973 30.2187812,33.8194211 C20.3231814,44.1373861 12.5056876,56.368394 7.3531704,69.5993431 C2.18131998,82.8229839 -0.283450405,97.0315194 0.0258810706,111.081853 C0.313731194,125.134336 3.37396467,139.103418 9.00637529,151.878676 C14.620312,164.662962 22.7626038,176.245685 32.7501438,185.8109 C42.7320987,195.383853 54.5605906,202.940587 67.3471509,207.914929 C80.128126,212.908616 93.8508436,215.281649 107.432644,214.973413 C121.017451,214.684951 134.499577,211.714791 146.832451,206.260254 C159.173059,200.823773 170.353243,192.942466 179.583351,183.277515 C188.821621,173.618153 196.107237,162.178156 200.897579,149.819898 C203.814746,142.328078 205.793608,134.505237 206.836743,126.57879 C207.115571,126.594697 207.396117,126.605874 207.678812,126.605874 C215.587816,126.605874 221.99957,120.190517 221.99957,112.276107 C221.99957,111.873724 221.978519,111.476069 221.946297,111.082283 L222,111.081853 L222,111.081853 Z M199.244803,149.133782 C193.992183,161.046236 186.381769,171.837518 177.052418,180.74499 C167.728222,189.657621 156.689814,196.683862 144.775827,201.29709 C132.864846,205.927084 120.09676,208.114831 107.433073,207.808314 C94.7672381,207.517274 82.2380244,204.732829 70.7760044,199.641555 C59.3083992,194.566188 48.917869,187.217094 40.3455204,178.211605 C31.7667275,169.210416 25.0117014,158.56057 20.5822465,147.075434 C16.1360362,135.592017 14.0420339,123.293085 14.3474988,111.080993 C14.6387859,98.8663211 17.3295401,86.8068421 22.235881,75.7730982 C27.1267554,64.7346253 34.2065795,54.7326348 42.8773126,46.4841954 C51.5437495,38.2293075 61.7920731,31.7357089 72.8334883,27.4848844 C83.8736146,23.2168641 95.6874992,21.2139726 107.433073,21.5191997 C119.180366,21.8115298 130.755807,24.4115487 141.347403,29.1395591 C151.942865,33.8525232 161.543311,40.6711242 169.457471,49.01844 C177.378075,57.360597 183.601653,67.2207214 187.669791,77.8323062 C191.752967,88.443891 193.662229,99.7880209 193.358483,111.081423 L193.412186,111.081423 C193.379535,111.475209 193.358483,111.872864 193.358483,112.275248 C193.358483,119.666472 198.951368,125.748229 206.132155,126.520754 C204.739304,134.318231 202.433495,141.929993 199.244803,149.133782 Z" id="Shape"></path>
                            </g>
                        </g>
                        <text id="Items" font-family="Raleway-Bold, Raleway" font-size="24" font-weight="bold" letter-spacing="1.938462" fill="#000000">
                            <tspan x="73" y="182">Items</tspan>
                        </text>
                    </g>
                </g>
            </g>
        </g>
    </g>
</svg>