<?xml version="1.0" encoding="UTF-8"?>
<svg width="222px" height="216px" viewBox="0 0 222 216" version="1.1" xmlns="http://www.w3.org/2000/svg" xmlns:xlink="http://www.w3.org/1999/xlink">
    <!-- Generator: Sketch 54.1 (76490) - https://sketchapp.com -->
    <title>Group 6</title>
    <desc>Created with Sketch.</desc>
    <g id="Page-1" stroke="none" stroke-width="1" fill="none" fill-rule="evenodd">
        <g id="Artboard" transform="translate(-50.000000, -1062.000000)">
            <g id="Group-22" transform="translate(50.000000, 43.000000)">
                <g id="Group-19" transform="translate(0.000000, 1019.000000)">
                    <g id="Group-16">
                        <g id="Group-6">
                            <g id="email" transform="translate(49.906977, 61.093023)" fill-rule="nonzero">
                                <path d="M104.54663,1.65929973 L14.0345648,1.65929973 C12.8178001,1.65929973 11.8218895,2.65521017 11.8218895,3.8719748 L11.8218895,12.011311 L94.3840399,12.011311 C95.6008045,12.011311 96.5967152,13.0063945 96.5967152,14.2239862 L96.5967152,67.3075126 L104.54663,67.3075126 C105.763394,67.3075126 106.759305,66.3116019 106.759305,65.0948373 L106.759305,3.8719748 C106.759305,2.65521017 105.763394,1.65929973 104.54663,1.65929973 Z" id="Shape" fill="#FFEDB1"></path>
                                <path d="M96.5967152,75.4460214 C96.5967152,76.662786 95.6008045,77.6586967 94.3840399,77.6586967 L3.8719748,77.6586967 C2.65521017,77.6586967 1.65929973,76.662786 1.65929973,75.4460214 L1.65929973,14.2239862 C1.65929973,13.0063945 2.65521017,12.011311 3.8719748,12.011311 L94.3840399,12.011311 C95.6008045,12.011311 96.5967152,13.0063945 96.5967152,14.2239862 L96.5967152,75.4460214 Z" id="Shape" fill="#7FC24D"></path>
                                <path d="M47.5638322,57.9150164 C48.4240873,58.7752714 49.8319276,58.7752714 50.6930098,57.9150164 L95.0317127,13.5754863 C95.6611878,12.9460113 95.6719411,12.4017344 95.1574423,12.1535839 C94.9159092,12.0625955 94.6561782,12.011311 94.3840399,12.011311 L3.8719748,12.011311 C3.26400604,12.011311 2.7106305,12.2602888 2.30945392,12.6614654 L47.5638322,57.9150164 Z" id="Shape" fill="#7FC24D"></path>
                                <path d="M9.51409,75.4460214 L9.51409,19.8661012 L2.31193548,12.6631196 C1.90993157,13.0634691 1.65929973,13.6151904 1.65929973,14.2239862 L1.65929973,75.4460214 C1.65929973,76.662786 2.65521017,77.6586967 3.8719748,77.6586967 L11.7267651,77.6586967 C10.5100004,77.6586967 9.51409,76.662786 9.51409,75.4460214 L9.51409,75.4460214 Z" id="Shape" fill="#83D461"></path>
                                <path d="M47.5638322,57.9150164 C48.4240873,58.7752714 49.8319276,58.7752714 50.6930098,57.9150164 L53.7378165,54.8702099 L12.4430929,13.5754863 C11.5820106,12.7152313 11.8740011,12.011311 13.0907656,12.011311 L3.8719748,12.011311 C3.26400604,12.011311 2.7106305,12.2602888 2.30945392,12.6614654 L47.5638322,57.9150164 Z" id="Shape" fill="#83D461"></path>
                                <path d="M88.9478898,62.6704069 C88.9478898,65.9699812 86.2728276,68.6442165 82.9732532,68.6442165 C79.6736787,68.6442165 76.9994436,65.9699812 76.9994436,62.6704069 C76.9994436,59.3708326 79.6736787,56.6965975 82.9732532,56.6965975 C86.2728276,56.6965975 88.9478898,59.3708326 88.9478898,62.6704069 Z" id="Shape" fill="#FFEDB1"></path>
                                <path d="M104.54663,-2.24032679e-14 L35.6236576,-2.24032679e-14 C34.7071551,-2.24032679e-14 33.9635308,0.742797036 33.9635308,1.65929973 C33.9635308,2.57580201 34.7071551,3.31859926 35.6236576,3.31859926 L104.54663,3.31859926 C104.846065,3.31859926 105.100005,3.57171287 105.100005,3.8719748 L105.100005,65.0948373 C105.100005,65.3942721 104.846065,65.6473857 104.54663,65.6473857 L98.2560147,65.6473857 L98.2560147,14.2239862 C98.2560147,12.0890649 96.5189615,10.3511841 94.3840399,10.3511841 L13.4820163,10.3511841 L13.4820163,3.8719748 C13.4820163,3.57171287 13.7351297,3.31859926 14.0345648,3.31859926 L28.3214158,3.31859926 C29.2379183,3.31859926 29.9807153,2.57580201 29.9807153,1.65929973 C29.9807153,0.742797036 29.2379183,-2.24032679e-14 28.3214158,-2.24032679e-14 L14.0345648,-2.24032679e-14 C11.8996432,-2.24032679e-14 10.16259,1.73705345 10.16259,3.8719748 L10.16259,10.3511841 L3.8719748,10.3511841 C1.73705345,10.3511841 0,12.0890649 0,14.2239862 L0,75.4460214 C0,77.580943 1.73705345,79.3179964 3.8719748,79.3179964 L70.361418,79.3179964 C71.2779204,79.3179964 72.0207175,78.5751992 72.0207175,77.6586967 C72.0207175,76.7421942 71.2779204,75.9993972 70.361418,75.9993972 L3.8719748,75.9993972 C3.57253998,75.9993972 3.31859926,75.7462835 3.31859926,75.4460214 L3.31859926,16.0172871 L46.3900803,59.0879409 C47.1196427,59.8175035 48.0915655,60.2195072 49.1280073,60.2195072 C50.1644494,60.2195072 51.136372,59.8175035 51.8659346,59.0887682 L71.7560236,39.198679 C72.4036965,38.550179 72.4036965,37.4996754 71.7560236,36.8511754 C71.1075237,36.2035026 70.05702,36.2035026 69.4093472,36.8511754 L49.5192579,56.7420918 C49.3802936,56.8802287 49.21486,56.9009081 49.1280073,56.9009081 C49.0411547,56.9009081 48.8757211,56.8802287 48.7367568,56.7412645 L5.66610281,13.6706107 L92.5899119,13.6706107 L73.9703531,32.2901692 C73.3218532,32.9386692 73.3218532,33.9891731 73.9703531,34.6368457 C74.293776,34.9610957 74.7189406,35.1232209 75.1432779,35.1232209 C75.5684425,35.1232209 75.9927798,34.9610957 76.3170298,34.6368457 L94.9365883,16.0172871 L94.9365883,75.4460214 C94.9365883,75.7462835 94.6834749,75.9993972 94.3832128,75.9993972 L77.2202976,75.9993972 C76.3037951,75.9993972 75.5609978,76.7421942 75.5609978,77.6586967 C75.5609978,78.5751992 76.3037951,79.3179964 77.2202976,79.3179964 L94.3840399,79.3179964 C96.5189615,79.3179964 98.2560147,77.580943 98.2560147,75.4460214 L98.2560147,68.9668121 L104.54663,68.9668121 C106.681551,68.9668121 108.418605,67.2297586 108.418605,65.0948373 L108.418605,3.8719748 C108.418605,1.73705345 106.681551,-2.84217094e-14 104.54663,-2.24032679e-14 Z" id="Shape" fill="#141313"></path>
                                <g id="Group" transform="translate(9.105469, 54.421057)" fill="#000000">
                                    <path d="M17.0032718,12.5638594 L1.73622633,12.5638594 C0.819723848,12.5638594 0.0769265998,13.3066566 0.0769265998,14.2231591 C0.0769265998,15.1404887 0.819723848,15.8832858 1.73622633,15.8832858 L17.0032718,15.8832858 C17.9197743,15.8832858 18.6625713,15.1404887 18.6625713,14.2231591 C18.6625713,13.3066566 17.9197743,12.5638594 17.0032718,12.5638594 Z" id="Shape"></path>
                                    <path d="M17.0032718,6.36836887 L1.73622633,6.36836887 C0.819723848,6.36836887 0.0769265998,7.1111659 0.0769265998,8.02766839 C0.0769265998,8.9449982 0.819723848,9.68779524 1.73622633,9.68779524 L17.0032718,9.68779524 C17.9197743,9.68779524 18.6625713,8.9449982 18.6625713,8.02766839 C18.6625713,7.1111659 17.9197743,6.36836887 17.0032718,6.36836887 Z" id="Shape"></path>
                                    <path d="M1.73622633,3.49230471 L10.3652461,3.49230471 C11.2817486,3.49230471 12.0253728,2.74950746 12.0253728,1.83300497 C12.0253728,0.915675371 11.2817486,0.172878124 10.3652461,0.172878124 L1.73622633,0.172878124 C0.819723848,0.172878124 0.0769265998,0.915675371 0.0769265998,1.83300497 C0.0769265998,2.74950746 0.819723848,3.49230471 1.73622633,3.49230471 Z" id="Shape"></path>
                                </g>
                            </g>
                            <g id="spinner-circle-(1)" fill="#FC9494" fill-rule="nonzero">
                                <path d="M222,111.141929 C221.714298,96.1626592 218.468036,81.2307033 212.47302,67.5770931 C206.497767,53.9114393 197.825316,41.5323037 187.178298,31.3029568 C176.537725,21.0658677 163.918719,12.9729755 150.260875,7.63420445 C136.610335,2.27478716 121.932556,-0.285345394 107.432644,0.0252083199 C92.9305825,0.312535025 78.4929654,3.46925761 65.2900966,9.28977404 C52.0773463,15.0913648 40.1075071,23.5090049 30.2187812,33.8377117 C20.3231814,44.161257 12.5056876,56.3988799 7.3531704,69.6369847 C2.18131998,82.8677773 -0.283450405,97.0839973 0.0258810706,111.141929 C0.313731194,125.202012 3.37396467,139.17865 9.00637529,151.960817 C14.620312,164.752017 22.7626038,176.341004 32.7501438,185.911392 C42.7320987,195.489523 54.5605906,203.050344 67.3471509,208.027376 C80.128126,213.023764 93.8508436,215.39808 107.432644,215.089677 C121.017451,214.80106 134.499577,211.829293 146.832451,206.371806 C159.173059,200.932385 170.353243,193.046815 179.583351,183.376637 C188.821621,173.712051 196.107237,162.265867 200.897579,149.900926 C203.814746,142.405054 205.793608,134.577982 206.836743,126.647248 C207.115571,126.663163 207.396117,126.674347 207.678812,126.674347 C215.587816,126.674347 221.99957,120.25552 221.99957,112.33683 C221.99957,111.934229 221.978519,111.536358 221.946297,111.14236 L222,111.141929 L222,111.141929 Z M199.244803,149.214438 C193.992183,161.133335 186.381769,171.930453 177.052418,180.842743 C167.728222,189.760194 156.689814,196.790235 144.775827,201.405958 C132.864846,206.038456 120.09676,208.227386 107.433073,207.920704 C94.7672381,207.629506 82.2380244,204.843555 70.7760044,199.749528 C59.3083992,194.671416 48.917869,187.318347 40.3455204,178.307988 C31.7667275,169.30193 25.0117014,158.646325 20.5822465,147.154977 C16.1360362,135.66535 14.0420339,123.359766 14.3474988,111.141069 C14.6387859,98.9197912 17.3295401,86.8537901 22.235881,75.8140787 C27.1267554,64.7696359 34.2065795,54.762236 42.8773126,46.5093356 C51.5437495,38.2499832 61.7920731,31.7528726 72.8334883,27.4997492 C83.8736146,23.2294205 95.6874992,21.2254458 107.433073,21.530838 C119.180366,21.8233262 130.755807,24.4247512 141.347403,29.1553188 C151.942865,33.8708317 161.543311,40.6931205 169.457471,49.0449508 C177.378075,57.3916195 183.601653,67.2570765 187.669791,77.8744005 C191.752967,88.4917244 193.662229,99.8419895 193.358483,111.141499 L193.412186,111.141499 C193.379535,111.535498 193.358483,111.933368 193.358483,112.33597 C193.358483,119.731191 198.951368,125.816238 206.132155,126.589181 C204.739304,134.390875 202.433495,142.006753 199.244803,149.214438 Z" id="Shape"></path>
                            </g>
                            <text id="Messages" font-family="Raleway-Bold, Raleway" font-size="24" font-weight="bold" letter-spacing="3.028846" fill="#000000">
                                <tspan x="39" y="171">Messages</tspan>
                            </text>
                        </g>
                    </g>
                </g>
            </g>
        </g>
    </g>
</svg>