<?xml version="1.0" encoding="UTF-8"?>
<svg width="222px" height="216px" viewBox="0 0 222 216" version="1.1" xmlns="http://www.w3.org/2000/svg" xmlns:xlink="http://www.w3.org/1999/xlink">
    <!-- Generator: Sketch 54.1 (76490) - https://sketchapp.com -->
    <title>Group 2</title>
    <desc>Created with Sketch.</desc>
    <g id="Page-1" stroke="none" stroke-width="1" fill="none" fill-rule="evenodd">
        <g id="Artboard" transform="translate(-50.000000, -807.000000)">
            <g id="Group-22" transform="translate(50.000000, 43.000000)">
                <g id="Group-4" transform="translate(0.000000, 764.000000)">
                    <g id="Group-15">
                        <g id="Group-2">
                            <g id="recipe-book" transform="translate(49.046512, 65.395349)" fill-rule="nonzero">
                                <rect id="Rectangle-path" fill="#7FC24D" x="54.1036312" y="8.39409384" width="52.5153937" height="67.7618392"></rect>
                                <g id="Group" transform="translate(1.479396, 8.242350)" fill="#7FC24D">
                                    <polygon id="Rectangle-path" points="52.624235 0.151743778 59.4005035 0.151743778 59.4005035 67.913583 52.624235 67.913583"></polygon>
                                    <rect id="Rectangle-path" x="0.108841289" y="0.151743778" width="52.5153937" height="67.7618392"></rect>
                                </g>
                                <path d="M47.3273627,1.61803672 L8.36429457,1.61803672 L8.36429457,69.379876 L47.3273627,69.379876 C51.0698123,69.379876 54.1036312,72.4136948 54.1036312,76.1561444 L54.1036312,8.39409384 C54.1036312,4.65185557 51.0698123,1.61803672 47.3273627,1.61803672 Z" id="Shape" fill="#FFEDB1"></path>
                                <polygon id="Shape" fill="#FFEDB1" points="93.0666993 25.3346593 87.9845508 21.9464194 82.9024023 25.3346593 82.9024023 8.39409384 93.0666993 8.39409384"></polygon>
                                <path d="M106.619025,20.3583933 C107.496095,20.3583933 108.207262,19.6472264 108.207262,18.7701559 L108.207262,8.39409384 C108.207262,7.51702326 107.496095,6.80585639 106.619025,6.80585639 L55.5386455,6.80585639 C54.7942978,2.95076132 51.3965475,0.0295879233 47.3273627,0.0295879233 L8.36429457,0.0295879233 C7.48722399,0.0295879233 6.77605712,0.740754794 6.77605712,1.61782538 L6.77605712,6.80585639 L1.58823745,6.80585639 C0.711166871,6.80585639 0,7.51702326 0,8.39409384 L0,76.1559331 C0,77.0330037 0.711166871,77.7441705 1.58823745,77.7441705 L106.619236,77.7441705 C107.496307,77.7441705 108.207474,77.0330037 108.207474,76.1559331 L108.207474,26.111131 C108.207474,25.2340604 107.496307,24.5228935 106.619236,24.5228935 C105.742166,24.5228935 105.030999,25.2340604 105.030999,26.111131 L105.030999,74.567907 L55.6918686,74.567907 L55.6918686,9.98233129 L81.3143762,9.98233129 L81.3143762,25.3346593 C81.3143762,26.5775634 82.7468543,27.3476948 83.7834884,26.6559714 L87.9847621,23.8550518 L92.1860359,26.6559714 C93.2237266,27.3479062 94.6551481,26.576084 94.6551481,25.3346593 L94.6551481,9.98233129 L105.03121,9.98233129 L105.03121,18.7701559 C105.030999,19.6472264 105.741954,20.3583933 106.619025,20.3583933 Z M9.95253203,3.20606283 L47.3273627,3.20606283 C50.1878809,3.20606283 52.5153937,5.53357568 52.5153937,8.39409384 L52.5153937,69.5994606 C51.0886218,68.4681452 49.2854492,67.7916385 47.3273627,67.7916385 L9.95253203,67.7916385 L9.95253203,3.20606283 Z M3.17626357,9.98233129 L6.77605712,9.98233129 L6.77605712,69.379876 C6.77605712,70.2569466 7.48722399,70.9681134 8.36429457,70.9681134 L47.3273627,70.9681134 C49.634164,70.9681134 51.5930959,72.4819584 52.2657984,74.567907 L3.17626357,74.567907 L3.17626357,9.98233129 Z M91.4784619,22.3669906 L88.8654255,20.624896 C88.5987115,20.4469457 88.2916312,20.358182 87.9845508,20.358182 C87.6774704,20.358182 87.37039,20.4471571 87.1036761,20.624896 L84.4906397,22.3669906 L84.4906397,9.98233129 L91.4786732,9.98233129 L91.4786732,22.3669906 L91.4784619,22.3669906 Z" id="Shape" fill="#000000"></path>
                                <path d="M40.5646202,42.2889621 C40.9069947,42.2889621 41.2557095,42.264235 41.6084398,42.2137242 C43.5301754,41.9391905 45.4261273,40.9501085 46.9473692,39.4288666 C48.4686112,37.9076246 49.4574818,36.0114614 49.7322268,34.0899372 C50.0266267,32.029561 49.4481828,30.1006397 48.1452574,28.7979257 C46.8425435,27.4950004 44.9131995,26.9167678 42.853246,27.2109563 C40.9315104,27.48549 39.0353472,28.474572 37.5143166,29.995814 C34.7383354,32.7717952 33.9375594,36.6393594 35.36412,39.3331285 L31.6806348,43.0166136 L27.5351554,38.8711342 C29.0900008,36.3056499 28.7619976,32.9108584 26.5483982,30.6970477 L21.7570567,25.9057062 C21.136767,25.2854166 20.1312003,25.2854166 19.511122,25.9057062 C18.8908323,26.5259959 18.8908323,27.5315626 19.511122,28.151641 L23.1796018,31.8201208 L21.8320832,33.1676393 L18.1636034,29.4991595 C17.5433137,28.8788698 16.537747,28.8788698 15.9176687,29.4991595 C15.297379,30.1194492 15.297379,31.1250159 15.9176687,31.7450942 L19.5861485,35.4135741 L18.2386299,36.7610926 L14.5699388,33.0928242 C13.9496491,32.4725345 12.9440824,32.4725345 12.3240041,33.0928242 C11.7037144,33.7131138 11.7037144,34.7186805 12.3240041,35.3387589 L17.1153456,40.1301004 C18.4157348,41.4304896 20.1238033,42.0805785 21.8320832,42.0805785 C23.0318735,42.0805785 24.2310298,41.7584929 25.2894321,41.1168576 L29.4349115,45.262337 L20.7443044,53.9529441 C20.1660718,54.5309653 20.1276075,55.4862326 20.6597674,56.1077903 C21.2536393,56.8012044 22.3441656,56.8449523 22.9902391,56.1988788 L31.6808462,47.5082717 L41.0728984,56.9003239 C41.7189718,57.5463974 42.8092868,57.5028609 43.4033701,56.8092354 C43.9357413,56.1876777 43.897277,55.2324104 43.3188331,54.6543892 L33.9267809,45.262337 L37.6098433,41.5792746 C38.4818417,42.0440163 39.4916353,42.2889621 40.5646202,42.2889621 Z M20.7567736,38.7348184 L22.9536769,36.5379151 C22.9540996,36.5374925 22.9543109,36.5372811 22.9547336,36.5368584 C22.9551563,36.5364357 22.9553676,36.5362244 22.9557903,36.5358017 L25.1524823,34.3391098 C25.5415634,35.5475651 25.2600555,36.926785 24.3022521,37.8845883 C23.3444488,38.8423917 21.9652289,39.1236883 20.7567736,38.7348184 Z M39.76004,32.24196 C40.6028731,31.3991269 41.6669816,30.7314965 42.8316891,30.4470298 C43.8670551,30.1942644 45.1031962,30.2479453 45.8991114,31.0442831 C46.6385981,31.7837699 46.7383517,32.9121265 46.5447621,33.8914867 C46.2981257,35.1413652 45.5947785,36.2895879 44.7010118,37.1831432 C43.8074565,38.0766985 42.6590224,38.7800457 41.4093554,39.0268935 C40.4299951,39.2202717 39.3016385,39.1205182 38.5621518,38.3812428 C37.2230869,37.0417552 37.7715202,34.2302685 39.76004,32.24196 Z" id="Shape" fill="#000000"></path>
                                <path d="M64.2679282,37.0869825 L77.9094402,37.0869825 C78.7865108,37.0869825 79.4976777,36.3758156 79.4976777,35.498745 C79.4976777,34.6216744 78.7865108,33.9105075 77.9094402,33.9105075 L64.2679282,33.9105075 C63.3908576,33.9105075 62.6796907,34.6216744 62.6796907,35.498745 C62.6796907,36.3758156 63.3908576,37.0869825 64.2679282,37.0869825 Z" id="Shape" fill="#000000"></path>
                                <path d="M93.0666993,33.9107189 L83.9724284,33.9107189 C83.0953578,33.9107189 82.3841909,34.6218858 82.3841909,35.4989563 C82.3841909,36.3760269 83.0953578,37.0871938 83.9724284,37.0871938 L93.0666993,37.0871938 C93.9437699,37.0871938 94.6549368,36.3760269 94.6549368,35.4989563 C94.6549368,34.6218858 93.9437699,33.9107189 93.0666993,33.9107189 Z" id="Shape" fill="#000000"></path>
                                <path d="M64.2679282,45.5573709 L89.6786707,45.5573709 C90.5557413,45.5573709 91.2669082,44.846204 91.2669082,43.9691334 C91.2669082,43.0920628 90.5557413,42.380896 89.6786707,42.380896 L64.2679282,42.380896 C63.3908576,42.380896 62.6796907,43.0920628 62.6796907,43.9691334 C62.6796907,44.846204 63.3908576,45.5573709 64.2679282,45.5573709 Z" id="Shape" fill="#000000"></path>
                                <path d="M64.2679282,54.0275479 L71.8466634,54.0275479 C72.723734,54.0275479 73.4349009,53.3163811 73.4349009,52.4393105 C73.4349009,51.5622399 72.723734,50.851073 71.8466634,50.851073 L64.2679282,50.851073 C63.3908576,50.851073 62.6796907,51.5622399 62.6796907,52.4393105 C62.6796907,53.3163811 63.3908576,54.0275479 64.2679282,54.0275479 Z" id="Shape" fill="#000000"></path>
                                <path d="M93.0666993,50.8512844 L77.9094402,50.8512844 C77.0323696,50.8512844 76.3212028,51.5624512 76.3212028,52.4395218 C76.3212028,53.3165924 77.0323696,54.0277593 77.9094402,54.0277593 L93.0666993,54.0277593 C93.9437699,54.0277593 94.6549368,53.3165924 94.6549368,52.4395218 C94.6549368,51.5624512 93.9437699,50.8512844 93.0666993,50.8512844 Z" id="Shape" fill="#000000"></path>
                                <path d="M64.2679282,62.497725 L80.9409343,62.497725 C81.8180049,62.497725 82.5291718,61.7865581 82.5291718,60.9094876 C82.5291718,60.032417 81.8180049,59.3212501 80.9409343,59.3212501 L64.2679282,59.3212501 C63.3908576,59.3212501 62.6796907,60.032417 62.6796907,60.9094876 C62.6796907,61.7865581 63.3908576,62.497725 64.2679282,62.497725 Z" id="Shape" fill="#000000"></path>
                                <path d="M93.0666993,59.3214614 L87.0039225,59.3214614 C86.1268519,59.3214614 85.415685,60.0326283 85.415685,60.9096989 C85.415685,61.7867695 86.1268519,62.4979364 87.0039225,62.4979364 L93.0666993,62.4979364 C93.9437699,62.4979364 94.6549368,61.7867695 94.6549368,60.9096989 C94.6549368,60.0326283 93.9437699,59.3214614 93.0666993,59.3214614 Z" id="Shape" fill="#000000"></path>
                                <path d="M18.5285916,13.3703599 L42.2452142,13.3703599 C43.1222848,13.3703599 43.8334517,12.659193 43.8334517,11.7821224 C43.8334517,10.9050518 43.1222848,10.1938849 42.2452142,10.1938849 L18.5285916,10.1938849 C17.651521,10.1938849 16.9403541,10.9050518 16.9403541,11.7821224 C16.9405655,12.6594043 17.651521,13.3703599 18.5285916,13.3703599 Z" id="Shape" fill="#000000"></path>
                                <path d="M18.5285916,20.1466283 L26.9987687,20.1466283 C27.8758392,20.1466283 28.5870061,19.4354614 28.5870061,18.5583909 C28.5870061,17.6813203 27.8758392,16.9701534 26.9987687,16.9701534 L18.5285916,16.9701534 C17.651521,16.9701534 16.9403541,17.6813203 16.9403541,18.5583909 C16.9403541,19.4354614 17.651521,20.1466283 18.5285916,20.1466283 Z" id="Shape" fill="#000000"></path>
                                <path d="M42.2452142,16.9701534 L33.7750371,16.9701534 C32.8979665,16.9701534 32.1867997,17.6813203 32.1867997,18.5583909 C32.1867997,19.4354614 32.8979665,20.1466283 33.7750371,20.1466283 L42.2452142,20.1466283 C43.1222848,20.1466283 43.8334517,19.4354614 43.8334517,18.5583909 C43.8334517,17.6813203 43.1224961,16.9701534 42.2452142,16.9701534 Z" id="Shape" fill="#000000"></path>
                            </g>
                            <g id="spinner-circle-(1)" fill="#FC9494" fill-rule="nonzero">
                                <path d="M222,111.141929 C221.714298,96.1626592 218.468036,81.2307033 212.47302,67.5770931 C206.497767,53.9114393 197.825316,41.5323037 187.178298,31.3029568 C176.537725,21.0658677 163.918719,12.9729755 150.260875,7.63420445 C136.610335,2.27478716 121.932556,-0.285345394 107.432644,0.0252083199 C92.9305825,0.312535025 78.4929654,3.46925761 65.2900966,9.28977404 C52.0773463,15.0913648 40.1075071,23.5090049 30.2187812,33.8377117 C20.3231814,44.161257 12.5056876,56.3988799 7.3531704,69.6369847 C2.18131998,82.8677773 -0.283450405,97.0839973 0.0258810706,111.141929 C0.313731194,125.202012 3.37396467,139.17865 9.00637529,151.960817 C14.620312,164.752017 22.7626038,176.341004 32.7501438,185.911392 C42.7320987,195.489523 54.5605906,203.050344 67.3471509,208.027376 C80.128126,213.023764 93.8508436,215.39808 107.432644,215.089677 C121.017451,214.80106 134.499577,211.829293 146.832451,206.371806 C159.173059,200.932385 170.353243,193.046815 179.583351,183.376637 C188.821621,173.712051 196.107237,162.265867 200.897579,149.900926 C203.814746,142.405054 205.793608,134.577982 206.836743,126.647248 C207.115571,126.663163 207.396117,126.674347 207.678812,126.674347 C215.587816,126.674347 221.99957,120.25552 221.99957,112.33683 C221.99957,111.934229 221.978519,111.536358 221.946297,111.14236 L222,111.141929 L222,111.141929 Z M199.244803,149.214438 C193.992183,161.133335 186.381769,171.930453 177.052418,180.842743 C167.728222,189.760194 156.689814,196.790235 144.775827,201.405958 C132.864846,206.038456 120.09676,208.227386 107.433073,207.920704 C94.7672381,207.629506 82.2380244,204.843555 70.7760044,199.749528 C59.3083992,194.671416 48.917869,187.318347 40.3455204,178.307988 C31.7667275,169.30193 25.0117014,158.646325 20.5822465,147.154977 C16.1360362,135.66535 14.0420339,123.359766 14.3474988,111.141069 C14.6387859,98.9197912 17.3295401,86.8537901 22.235881,75.8140787 C27.1267554,64.7696359 34.2065795,54.762236 42.8773126,46.5093356 C51.5437495,38.2499832 61.7920731,31.7528726 72.8334883,27.4997492 C83.8736146,23.2294205 95.6874992,21.2254458 107.433073,21.530838 C119.180366,21.8233262 130.755807,24.4247512 141.347403,29.1553188 C151.942865,33.8708317 161.543311,40.6931205 169.457471,49.0449508 C177.378075,57.3916195 183.601653,67.2570765 187.669791,77.8744005 C191.752967,88.4917244 193.662229,99.8419895 193.358483,111.141499 L193.412186,111.141499 C193.379535,111.535498 193.358483,111.933368 193.358483,112.33597 C193.358483,119.731191 198.951368,125.816238 206.132155,126.589181 C204.739304,134.390875 202.433495,142.006753 199.244803,149.214438 Z" id="Shape"></path>
                            </g>
                            <text id="Recipes" font-family="Raleway-Bold, Raleway" font-size="24" font-weight="bold" letter-spacing="3.028846" fill="#000000">
                                <tspan x="53" y="177">Recipes</tspan>
                            </text>
                        </g>
                    </g>
                </g>
            </g>
        </g>
    </g>
</svg>