<svg width="22" height="22" viewBox="0 0 22 22" fill="none" xmlns="http://www.w3.org/2000/svg">
<circle cx="11" cy="11" r="11" fill="#3D8FCE"/>
<path d="M15.29 14.9697V17H6.63281V15.2861L10.8076 10.8477C11.2646 10.3496 11.6074 9.95703 11.8359 9.66992C12.0703 9.37695 12.252 9.08984 12.3809 8.80859C12.5098 8.52148 12.5742 8.22266 12.5742 7.91211C12.5742 7.50781 12.4336 7.18555 12.1523 6.94531C11.8711 6.69922 11.4756 6.57617 10.9658 6.57617C10.4795 6.57617 10.0342 6.70801 9.62988 6.97168C9.22559 7.22949 8.78906 7.63965 8.32031 8.20215L6.7207 6.64648C7.25391 5.95508 7.87793 5.41309 8.59277 5.02051C9.30762 4.62793 10.1221 4.43164 11.0361 4.43164C12.3311 4.43164 13.3271 4.73633 14.0244 5.3457C14.7217 5.94922 15.0703 6.80469 15.0703 7.91211C15.0703 8.41602 14.9707 8.89062 14.7715 9.33594C14.5723 9.77539 14.3174 10.1826 14.0068 10.5576C13.7021 10.9268 13.2715 11.4014 12.7148 11.9814L12.3896 12.3242L9.84961 14.9697H15.29Z" fill="white"/>
</svg>
