<svg width="22" height="22" viewBox="0 0 22 22" fill="none" xmlns="http://www.w3.org/2000/svg">
<circle cx="11" cy="11" r="11" fill="#3D8FCE"/>
<path d="M11.6338 8.79102C12.4248 8.79102 13.1104 8.96387 13.6904 9.30957C14.2764 9.64941 14.7246 10.127 15.0352 10.7422C15.3457 11.3574 15.501 12.0693 15.501 12.8779C15.501 13.7158 15.3223 14.46 14.9648 15.1104C14.6133 15.7549 14.0918 16.2617 13.4004 16.6309C12.7148 16.9941 11.8857 17.1758 10.9131 17.1758C9.83496 17.1758 8.94727 16.9619 8.25 16.5342C7.55273 16.1064 7.03125 15.5176 6.68555 14.7676L8.75098 13.7041C8.9209 13.9971 9.09375 14.2432 9.26953 14.4424C9.45117 14.6416 9.67676 14.8027 9.94629 14.9258C10.2217 15.0488 10.5557 15.1104 10.9482 15.1104C11.5693 15.1104 12.0615 14.9199 12.4248 14.5391C12.7881 14.1582 12.9697 13.6221 12.9697 12.9307C12.9697 12.2979 12.7939 11.7998 12.4424 11.4365C12.0967 11.0674 11.6162 10.8828 11.001 10.8828C10.6084 10.8828 10.2744 10.959 9.99902 11.1113C9.72949 11.2578 9.46582 11.4863 9.20801 11.7969L6.97559 10.7686L7.35352 4.61621H14.7803V6.62891H9.56836L9.38379 9.56445C9.64746 9.33594 9.97266 9.15137 10.3594 9.01074C10.7461 8.86426 11.1709 8.79102 11.6338 8.79102Z" fill="white"/>
</svg>
