<svg width="22" height="22" viewBox="0 0 22 22" fill="none" xmlns="http://www.w3.org/2000/svg">
<circle cx="11" cy="11" r="11" fill="#3D8FCE"/>
<path d="M10.9482 17.2021C8.70996 17.2021 7.22168 16.2881 6.4834 14.46L8.52246 13.458C8.81543 13.9971 9.14648 14.4072 9.51562 14.6885C9.89062 14.9697 10.3623 15.1104 10.9307 15.1104C11.5342 15.1104 12 14.9668 12.3281 14.6797C12.6562 14.3926 12.8203 13.9707 12.8203 13.4141C12.8203 12.7754 12.5859 12.3389 12.1172 12.1045C11.6543 11.8643 11.1035 11.7441 10.4648 11.7441H9.60352V9.66992H10.4121C11.0098 9.66992 11.5107 9.5498 11.915 9.30957C12.3252 9.06348 12.5303 8.63867 12.5303 8.03516C12.5303 7.55469 12.3867 7.17676 12.0996 6.90137C11.8184 6.62598 11.4111 6.48828 10.8779 6.48828C9.92871 6.48828 9.20215 6.98633 8.69824 7.98242L6.73828 6.9541C7.05469 6.12793 7.58496 5.50098 8.3291 5.07324C9.07324 4.64551 9.93457 4.43164 10.9131 4.43164C11.8447 4.43164 12.6182 4.57813 13.2334 4.87109C13.8486 5.1582 14.3027 5.55078 14.5957 6.04883C14.8887 6.54102 15.0352 7.10059 15.0352 7.72754C15.0352 8.4541 14.8301 9.06934 14.4199 9.57324C14.0156 10.0771 13.4004 10.4287 12.5742 10.6279V10.6631C13.4941 10.8037 14.1885 11.1377 14.6572 11.665C15.126 12.1865 15.3604 12.8193 15.3604 13.5635C15.3604 14.3193 15.1934 14.9697 14.8594 15.5146C14.5312 16.0596 14.0361 16.4785 13.374 16.7715C12.7178 17.0586 11.9092 17.2021 10.9482 17.2021Z" fill="white"/>
</svg>
