<svg width="1000" height="286" viewBox="0 0 1000 286" fill="none" xmlns="http://www.w3.org/2000/svg">
<circle cx="142.857" cy="142.857" r="142.357" fill="white" stroke="url(#paint0_linear)" stroke-dasharray="5 10"/>
<circle cx="321.428" cy="142.857" r="142.357" fill="white" stroke="url(#paint1_linear)" stroke-dasharray="5 10"/>
<circle cx="500" cy="142.857" r="142.357" fill="white" stroke="url(#paint2_linear)" stroke-dasharray="5 10"/>
<circle cx="678.572" cy="142.857" r="142.357" fill="white" stroke="url(#paint3_linear)" stroke-dasharray="5 10"/>
<circle cx="857.143" cy="142.857" r="142.357" fill="white" stroke="url(#paint4_linear)" stroke-dasharray="5 10"/>
<circle cx="142.857" cy="142.857" r="102.643" fill="white" stroke="url(#paint5_linear)" stroke-width="9"/>
<circle cx="321.428" cy="142.857" r="102.643" fill="white" stroke="url(#paint6_linear)" stroke-width="9"/>
<circle cx="500" cy="142.857" r="102.643" fill="white" stroke="url(#paint7_linear)" stroke-width="9"/>
<circle cx="678.572" cy="142.857" r="102.643" fill="white" stroke="url(#paint8_linear)" stroke-width="9"/>
<circle cx="857.143" cy="142.857" r="102.643" fill="white" stroke="url(#paint9_linear)" stroke-width="9"/>
<path d="M84.4727 151.234C83.0586 151.234 81.8242 151.008 80.7695 150.555C79.7227 150.102 78.9062 149.398 78.3203 148.445C77.7344 147.484 77.4414 146.273 77.4414 144.812V134.488H80.8984V144.543C80.8984 145.809 81.2188 146.75 81.8594 147.367C82.5078 147.984 83.4102 148.293 84.5664 148.293C85.7461 148.293 86.6797 147.969 87.3672 147.32C88.0625 146.672 88.4102 145.707 88.4102 144.426V134.488H91.8672V144.637C91.8672 146.105 91.5547 147.332 90.9297 148.316C90.3125 149.301 89.4492 150.035 88.3398 150.52C87.2305 150.996 85.9414 151.234 84.4727 151.234ZM95.0195 141.156C95.0195 140.617 95.0078 140.062 94.9844 139.492C94.9688 138.922 94.9492 138.535 94.9258 138.332H98.0664C98.0977 138.504 98.1289 138.852 98.1602 139.375C98.1992 139.891 98.2188 140.301 98.2188 140.605H98.2656C98.7109 139.738 99.2695 139.098 99.9414 138.684C100.613 138.27 101.414 138.062 102.344 138.062C103.789 138.062 104.844 138.508 105.508 139.398C106.18 140.281 106.516 141.469 106.516 142.961V151H103.234V143.898C103.234 142.945 103.074 142.207 102.754 141.684C102.434 141.16 101.883 140.898 101.102 140.898C100.57 140.898 100.094 141.039 99.6719 141.32C99.25 141.594 98.918 141.984 98.6758 142.492C98.4336 142.992 98.3125 143.562 98.3125 144.203V151H95.0195V141.156ZM114.016 151.234C112.938 151.234 112.02 150.957 111.262 150.402C110.512 149.84 109.945 149.062 109.562 148.07C109.188 147.078 109 145.941 109 144.66C109 143.371 109.199 142.234 109.598 141.25C109.996 140.258 110.59 139.484 111.379 138.93C112.168 138.367 113.125 138.086 114.25 138.086C115 138.086 115.699 138.25 116.348 138.578C116.996 138.906 117.492 139.406 117.836 140.078H117.859C117.859 139.875 117.855 139.691 117.848 139.527L117.836 138.227V133.598H121.117V148.234C121.117 148.773 121.125 149.281 121.141 149.758C121.164 150.227 121.18 150.512 121.188 150.613C121.203 150.816 121.211 150.945 121.211 151H118.023C117.984 150.891 117.945 150.633 117.906 150.227C117.875 149.812 117.859 149.461 117.859 149.172H117.812C117.453 149.875 116.945 150.395 116.289 150.73C115.633 151.066 114.875 151.234 114.016 151.234ZM115.047 148.621C115.531 148.621 115.988 148.492 116.418 148.234C116.848 147.977 117.199 147.547 117.473 146.945C117.746 146.344 117.883 145.559 117.883 144.59C117.883 143.184 117.609 142.18 117.062 141.578C116.523 140.977 115.859 140.676 115.07 140.676C114.273 140.676 113.633 141.004 113.148 141.66C112.672 142.316 112.434 143.316 112.434 144.66C112.434 145.941 112.668 146.922 113.137 147.602C113.605 148.281 114.242 148.621 115.047 148.621ZM129.906 151.234C127.961 151.234 126.445 150.684 125.359 149.582C124.281 148.48 123.742 146.832 123.742 144.637C123.742 143.168 124.008 141.945 124.539 140.969C125.078 139.984 125.797 139.258 126.695 138.789C127.602 138.32 128.609 138.086 129.719 138.086C131.008 138.086 132.07 138.363 132.906 138.918C133.75 139.473 134.363 140.211 134.746 141.133C135.137 142.047 135.332 143.07 135.332 144.203C135.332 144.648 135.309 145.09 135.262 145.527H127.199C127.199 146.512 127.43 147.293 127.891 147.871C128.359 148.449 129.09 148.738 130.082 148.738C130.527 148.738 130.93 148.691 131.289 148.598C131.648 148.496 132 148.352 132.344 148.164C132.688 147.977 133.109 147.707 133.609 147.355L134.945 149.488C134.203 150.051 133.453 150.484 132.695 150.789C131.938 151.086 131.008 151.234 129.906 151.234ZM132.145 143.277C132.113 142.324 131.891 141.621 131.477 141.168C131.062 140.715 130.469 140.488 129.695 140.488C128.961 140.488 128.371 140.719 127.926 141.18C127.488 141.633 127.254 142.332 127.223 143.277H132.145ZM137.84 141.309C137.84 140.762 137.828 140.18 137.805 139.562C137.789 138.938 137.77 138.527 137.746 138.332H140.887C140.918 138.473 140.949 138.809 140.98 139.34C141.02 139.871 141.039 140.27 141.039 140.535H141.086C141.336 139.941 141.574 139.477 141.801 139.141C142.027 138.805 142.32 138.543 142.68 138.355C143.039 138.16 143.508 138.062 144.086 138.062C144.297 138.062 144.5 138.082 144.695 138.121C144.898 138.16 145.047 138.207 145.141 138.262L145.047 141.109C144.938 141.094 144.855 141.078 144.801 141.062C144.379 140.984 144.02 140.945 143.723 140.945C142.91 140.945 142.273 141.277 141.812 141.941C141.359 142.598 141.133 143.547 141.133 144.789V151H137.84V141.309ZM151.469 151.234C150.375 151.234 149.398 151.09 148.539 150.801C147.688 150.512 146.871 150.051 146.09 149.418L147.578 147.156C148.281 147.695 148.934 148.102 149.535 148.375C150.137 148.641 150.781 148.773 151.469 148.773C152.164 148.773 152.703 148.688 153.086 148.516C153.477 148.336 153.672 148.02 153.672 147.566C153.672 147.238 153.57 146.977 153.367 146.781C153.164 146.586 152.902 146.438 152.582 146.336C152.27 146.227 151.824 146.105 151.246 145.973L150.625 145.82C149.773 145.602 149.062 145.359 148.492 145.094C147.93 144.82 147.469 144.43 147.109 143.922C146.75 143.414 146.57 142.75 146.57 141.93C146.57 141.133 146.762 140.449 147.145 139.879C147.527 139.301 148.09 138.859 148.832 138.555C149.574 138.242 150.469 138.086 151.516 138.086C152.516 138.086 153.426 138.238 154.246 138.543C155.074 138.848 155.781 139.305 156.367 139.914L154.68 141.859C153.781 140.977 152.734 140.535 151.539 140.535C150.242 140.535 149.594 140.91 149.594 141.66C149.594 141.949 149.676 142.18 149.84 142.352C150.012 142.516 150.234 142.645 150.508 142.738C150.781 142.832 151.176 142.938 151.691 143.055L152.289 143.195C153.227 143.43 153.996 143.684 154.598 143.957C155.207 144.223 155.707 144.625 156.098 145.164C156.496 145.703 156.695 146.418 156.695 147.309C156.695 148.113 156.488 148.812 156.074 149.406C155.668 149.992 155.07 150.445 154.281 150.766C153.5 151.078 152.562 151.234 151.469 151.234ZM162.602 151.211C161.547 151.211 160.738 150.926 160.176 150.355C159.621 149.777 159.344 148.922 159.344 147.789V140.781H157.738V138.332H159.508L159.672 135.473L162.602 135.227V138.332H165.121V140.781H162.602V146.898C162.602 147.445 162.699 147.848 162.895 148.105C163.09 148.355 163.402 148.48 163.832 148.48C164.176 148.48 164.574 148.434 165.027 148.34L165.273 150.836C164.375 151.086 163.484 151.211 162.602 151.211ZM170.254 151.234C169.473 151.234 168.785 151.086 168.191 150.789C167.605 150.492 167.148 150.059 166.82 149.488C166.492 148.91 166.328 148.223 166.328 147.426C166.328 146.02 166.781 145 167.688 144.367C168.602 143.727 169.82 143.395 171.344 143.371L174.074 143.324V142.715C174.074 141.941 173.887 141.402 173.512 141.098C173.145 140.785 172.637 140.629 171.988 140.629C170.871 140.629 169.734 141.141 168.578 142.164L167.02 140.102C168.535 138.758 170.254 138.086 172.176 138.086C173.824 138.086 175.102 138.477 176.008 139.258C176.914 140.039 177.367 141.16 177.367 142.621V147.262C177.367 148.652 177.398 149.898 177.461 151H174.344C174.289 150.445 174.262 149.852 174.262 149.219H174.191C173.777 149.867 173.238 150.367 172.574 150.719C171.918 151.062 171.145 151.234 170.254 151.234ZM171.285 148.738C171.824 148.738 172.305 148.609 172.727 148.352C173.156 148.094 173.488 147.758 173.723 147.344C173.957 146.922 174.074 146.477 174.074 146.008V145.363L172.375 145.387C171.797 145.418 171.328 145.477 170.969 145.562C170.609 145.641 170.316 145.805 170.09 146.055C169.863 146.297 169.75 146.664 169.75 147.156C169.75 147.672 169.887 148.066 170.16 148.34C170.441 148.605 170.816 148.738 171.285 148.738ZM180.59 141.156C180.59 140.617 180.578 140.062 180.555 139.492C180.539 138.922 180.52 138.535 180.496 138.332H183.637C183.668 138.504 183.699 138.852 183.73 139.375C183.77 139.891 183.789 140.301 183.789 140.605H183.836C184.281 139.738 184.84 139.098 185.512 138.684C186.184 138.27 186.984 138.062 187.914 138.062C189.359 138.062 190.414 138.508 191.078 139.398C191.75 140.281 192.086 141.469 192.086 142.961V151H188.805V143.898C188.805 142.945 188.645 142.207 188.324 141.684C188.004 141.16 187.453 140.898 186.672 140.898C186.141 140.898 185.664 141.039 185.242 141.32C184.82 141.594 184.488 141.984 184.246 142.492C184.004 142.992 183.883 143.562 183.883 144.203V151H180.59V141.156ZM199.586 151.234C198.508 151.234 197.59 150.957 196.832 150.402C196.082 149.84 195.516 149.062 195.133 148.07C194.758 147.078 194.57 145.941 194.57 144.66C194.57 143.371 194.77 142.234 195.168 141.25C195.566 140.258 196.16 139.484 196.949 138.93C197.738 138.367 198.695 138.086 199.82 138.086C200.57 138.086 201.27 138.25 201.918 138.578C202.566 138.906 203.062 139.406 203.406 140.078H203.43C203.43 139.875 203.426 139.691 203.418 139.527L203.406 138.227V133.598H206.688V148.234C206.688 148.773 206.695 149.281 206.711 149.758C206.734 150.227 206.75 150.512 206.758 150.613C206.773 150.816 206.781 150.945 206.781 151H203.594C203.555 150.891 203.516 150.633 203.477 150.227C203.445 149.812 203.43 149.461 203.43 149.172H203.383C203.023 149.875 202.516 150.395 201.859 150.73C201.203 151.066 200.445 151.234 199.586 151.234ZM200.617 148.621C201.102 148.621 201.559 148.492 201.988 148.234C202.418 147.977 202.77 147.547 203.043 146.945C203.316 146.344 203.453 145.559 203.453 144.59C203.453 143.184 203.18 142.18 202.633 141.578C202.094 140.977 201.43 140.676 200.641 140.676C199.844 140.676 199.203 141.004 198.719 141.66C198.242 142.316 198.004 143.316 198.004 144.66C198.004 145.941 198.238 146.922 198.707 147.602C199.176 148.281 199.812 148.621 200.617 148.621Z" fill="black"/>
<path d="M285.605 134.488H291.582C293.332 134.488 294.859 134.781 296.164 135.367C297.469 135.953 298.488 136.852 299.223 138.062C299.957 139.273 300.324 140.793 300.324 142.621C300.324 144.402 299.973 145.922 299.27 147.18C298.574 148.438 297.621 149.391 296.41 150.039C295.199 150.68 293.824 151 292.285 151H285.605V134.488ZM291.992 148.094C292.93 148.094 293.762 147.883 294.488 147.461C295.223 147.039 295.797 146.418 296.211 145.598C296.633 144.77 296.844 143.777 296.844 142.621C296.844 140.855 296.367 139.543 295.414 138.684C294.461 137.824 293.16 137.395 291.512 137.395H289.062V148.094H291.992ZM308.445 151.234C306.5 151.234 304.984 150.684 303.898 149.582C302.82 148.48 302.281 146.832 302.281 144.637C302.281 143.168 302.547 141.945 303.078 140.969C303.617 139.984 304.336 139.258 305.234 138.789C306.141 138.32 307.148 138.086 308.258 138.086C309.547 138.086 310.609 138.363 311.445 138.918C312.289 139.473 312.902 140.211 313.285 141.133C313.676 142.047 313.871 143.07 313.871 144.203C313.871 144.648 313.848 145.09 313.801 145.527H305.738C305.738 146.512 305.969 147.293 306.43 147.871C306.898 148.449 307.629 148.738 308.621 148.738C309.066 148.738 309.469 148.691 309.828 148.598C310.188 148.496 310.539 148.352 310.883 148.164C311.227 147.977 311.648 147.707 312.148 147.355L313.484 149.488C312.742 150.051 311.992 150.484 311.234 150.789C310.477 151.086 309.547 151.234 308.445 151.234ZM310.684 143.277C310.652 142.324 310.43 141.621 310.016 141.168C309.602 140.715 309.008 140.488 308.234 140.488C307.5 140.488 306.91 140.719 306.465 141.18C306.027 141.633 305.793 142.332 305.762 143.277H310.684ZM316.965 140.781H315.113V138.332H316.965V137.242C316.965 136.102 317.262 135.211 317.855 134.57C318.449 133.922 319.461 133.598 320.891 133.598C321.508 133.598 322.164 133.664 322.859 133.797L322.625 136.164C322.297 136.086 321.922 136.047 321.5 136.047C321.039 136.047 320.715 136.168 320.527 136.41C320.34 136.652 320.246 137.035 320.246 137.559V138.332H322.859V140.781H320.246V151H316.965V140.781ZM326.152 136.645C325.574 136.645 325.121 136.48 324.793 136.152C324.465 135.816 324.301 135.367 324.301 134.805C324.301 134.234 324.465 133.785 324.793 133.457C325.121 133.121 325.574 132.953 326.152 132.953C326.707 132.953 327.148 133.121 327.477 133.457C327.805 133.785 327.969 134.234 327.969 134.805C327.969 135.359 327.801 135.805 327.465 136.141C327.137 136.477 326.699 136.645 326.152 136.645ZM324.488 138.332H327.781V151H324.488V138.332ZM331.168 141.156C331.168 140.617 331.156 140.062 331.133 139.492C331.117 138.922 331.098 138.535 331.074 138.332H334.215C334.246 138.504 334.277 138.852 334.309 139.375C334.348 139.891 334.367 140.301 334.367 140.605H334.414C334.859 139.738 335.418 139.098 336.09 138.684C336.762 138.27 337.562 138.062 338.492 138.062C339.938 138.062 340.992 138.508 341.656 139.398C342.328 140.281 342.664 141.469 342.664 142.961V151H339.383V143.898C339.383 142.945 339.223 142.207 338.902 141.684C338.582 141.16 338.031 140.898 337.25 140.898C336.719 140.898 336.242 141.039 335.82 141.32C335.398 141.594 335.066 141.984 334.824 142.492C334.582 142.992 334.461 143.562 334.461 144.203V151H331.168V141.156ZM351.266 151.234C349.32 151.234 347.805 150.684 346.719 149.582C345.641 148.48 345.102 146.832 345.102 144.637C345.102 143.168 345.367 141.945 345.898 140.969C346.438 139.984 347.156 139.258 348.055 138.789C348.961 138.32 349.969 138.086 351.078 138.086C352.367 138.086 353.43 138.363 354.266 138.918C355.109 139.473 355.723 140.211 356.105 141.133C356.496 142.047 356.691 143.07 356.691 144.203C356.691 144.648 356.668 145.09 356.621 145.527H348.559C348.559 146.512 348.789 147.293 349.25 147.871C349.719 148.449 350.449 148.738 351.441 148.738C351.887 148.738 352.289 148.691 352.648 148.598C353.008 148.496 353.359 148.352 353.703 148.164C354.047 147.977 354.469 147.707 354.969 147.355L356.305 149.488C355.562 150.051 354.812 150.484 354.055 150.789C353.297 151.086 352.367 151.234 351.266 151.234ZM353.504 143.277C353.473 142.324 353.25 141.621 352.836 141.168C352.422 140.715 351.828 140.488 351.055 140.488C350.32 140.488 349.73 140.719 349.285 141.18C348.848 141.633 348.613 142.332 348.582 143.277H353.504Z" fill="black"/>
<path d="M466.605 134.488H470.062V151H466.605V134.488ZM477.68 151.234C476.602 151.234 475.684 150.957 474.926 150.402C474.176 149.84 473.609 149.062 473.227 148.07C472.852 147.078 472.664 145.941 472.664 144.66C472.664 143.371 472.863 142.234 473.262 141.25C473.66 140.258 474.254 139.484 475.043 138.93C475.832 138.367 476.789 138.086 477.914 138.086C478.664 138.086 479.363 138.25 480.012 138.578C480.66 138.906 481.156 139.406 481.5 140.078H481.523C481.523 139.875 481.52 139.691 481.512 139.527L481.5 138.227V133.598H484.781V148.234C484.781 148.773 484.789 149.281 484.805 149.758C484.828 150.227 484.844 150.512 484.852 150.613C484.867 150.816 484.875 150.945 484.875 151H481.688C481.648 150.891 481.609 150.633 481.57 150.227C481.539 149.812 481.523 149.461 481.523 149.172H481.477C481.117 149.875 480.609 150.395 479.953 150.73C479.297 151.066 478.539 151.234 477.68 151.234ZM478.711 148.621C479.195 148.621 479.652 148.492 480.082 148.234C480.512 147.977 480.863 147.547 481.137 146.945C481.41 146.344 481.547 145.559 481.547 144.59C481.547 143.184 481.273 142.18 480.727 141.578C480.188 140.977 479.523 140.676 478.734 140.676C477.938 140.676 477.297 141.004 476.812 141.66C476.336 142.316 476.098 143.316 476.098 144.66C476.098 145.941 476.332 146.922 476.801 147.602C477.27 148.281 477.906 148.621 478.711 148.621ZM493.57 151.234C491.625 151.234 490.109 150.684 489.023 149.582C487.945 148.48 487.406 146.832 487.406 144.637C487.406 143.168 487.672 141.945 488.203 140.969C488.742 139.984 489.461 139.258 490.359 138.789C491.266 138.32 492.273 138.086 493.383 138.086C494.672 138.086 495.734 138.363 496.57 138.918C497.414 139.473 498.027 140.211 498.41 141.133C498.801 142.047 498.996 143.07 498.996 144.203C498.996 144.648 498.973 145.09 498.926 145.527H490.863C490.863 146.512 491.094 147.293 491.555 147.871C492.023 148.449 492.754 148.738 493.746 148.738C494.191 148.738 494.594 148.691 494.953 148.598C495.312 148.496 495.664 148.352 496.008 148.164C496.352 147.977 496.773 147.707 497.273 147.355L498.609 149.488C497.867 150.051 497.117 150.484 496.359 150.789C495.602 151.086 494.672 151.234 493.57 151.234ZM495.809 143.277C495.777 142.324 495.555 141.621 495.141 141.168C494.727 140.715 494.133 140.488 493.359 140.488C492.625 140.488 492.035 140.719 491.59 141.18C491.152 141.633 490.918 142.332 490.887 143.277H495.809ZM504.527 151.234C503.746 151.234 503.059 151.086 502.465 150.789C501.879 150.492 501.422 150.059 501.094 149.488C500.766 148.91 500.602 148.223 500.602 147.426C500.602 146.02 501.055 145 501.961 144.367C502.875 143.727 504.094 143.395 505.617 143.371L508.348 143.324V142.715C508.348 141.941 508.16 141.402 507.785 141.098C507.418 140.785 506.91 140.629 506.262 140.629C505.145 140.629 504.008 141.141 502.852 142.164L501.293 140.102C502.809 138.758 504.527 138.086 506.449 138.086C508.098 138.086 509.375 138.477 510.281 139.258C511.188 140.039 511.641 141.16 511.641 142.621V147.262C511.641 148.652 511.672 149.898 511.734 151H508.617C508.562 150.445 508.535 149.852 508.535 149.219H508.465C508.051 149.867 507.512 150.367 506.848 150.719C506.191 151.062 505.418 151.234 504.527 151.234ZM505.559 148.738C506.098 148.738 506.578 148.609 507 148.352C507.43 148.094 507.762 147.758 507.996 147.344C508.23 146.922 508.348 146.477 508.348 146.008V145.363L506.648 145.387C506.07 145.418 505.602 145.477 505.242 145.562C504.883 145.641 504.59 145.805 504.363 146.055C504.137 146.297 504.023 146.664 504.023 147.156C504.023 147.672 504.16 148.066 504.434 148.34C504.715 148.605 505.09 148.738 505.559 148.738ZM518.344 151.211C517.289 151.211 516.48 150.926 515.918 150.355C515.363 149.777 515.086 148.922 515.086 147.789V140.781H513.48V138.332H515.25L515.414 135.473L518.344 135.227V138.332H520.863V140.781H518.344V146.898C518.344 147.445 518.441 147.848 518.637 148.105C518.832 148.355 519.145 148.48 519.574 148.48C519.918 148.48 520.316 148.434 520.77 148.34L521.016 150.836C520.117 151.086 519.227 151.211 518.344 151.211ZM528.398 151.234C526.453 151.234 524.938 150.684 523.852 149.582C522.773 148.48 522.234 146.832 522.234 144.637C522.234 143.168 522.5 141.945 523.031 140.969C523.57 139.984 524.289 139.258 525.188 138.789C526.094 138.32 527.102 138.086 528.211 138.086C529.5 138.086 530.562 138.363 531.398 138.918C532.242 139.473 532.855 140.211 533.238 141.133C533.629 142.047 533.824 143.07 533.824 144.203C533.824 144.648 533.801 145.09 533.754 145.527H525.691C525.691 146.512 525.922 147.293 526.383 147.871C526.852 148.449 527.582 148.738 528.574 148.738C529.02 148.738 529.422 148.691 529.781 148.598C530.141 148.496 530.492 148.352 530.836 148.164C531.18 147.977 531.602 147.707 532.102 147.355L533.438 149.488C532.695 150.051 531.945 150.484 531.188 150.789C530.43 151.086 529.5 151.234 528.398 151.234ZM530.637 143.277C530.605 142.324 530.383 141.621 529.969 141.168C529.555 140.715 528.961 140.488 528.188 140.488C527.453 140.488 526.863 140.719 526.418 141.18C525.98 141.633 525.746 142.332 525.715 143.277H530.637Z" fill="black"/>
<path d="M620.023 134.488H623.527L625.59 143.676C625.988 145.449 626.277 146.801 626.457 147.73L626.609 146.969C626.703 146.547 626.832 145.938 626.996 145.141C627.16 144.344 627.293 143.723 627.395 143.277L629.363 134.488H633.371L635.387 143.277C635.574 144.145 635.805 145.371 636.078 146.957L636.219 147.73L636.289 147.391C636.625 145.805 636.906 144.566 637.133 143.676L639.125 134.488H642.629L638.434 151H634.18L632.023 141.449C631.914 140.965 631.797 140.414 631.672 139.797C631.555 139.172 631.477 138.75 631.438 138.531L631.332 137.945L631.18 138.73C630.891 140.129 630.699 141.035 630.605 141.449L628.449 151H624.195L620.023 134.488ZM645.793 136.645C645.215 136.645 644.762 136.48 644.434 136.152C644.105 135.816 643.941 135.367 643.941 134.805C643.941 134.234 644.105 133.785 644.434 133.457C644.762 133.121 645.215 132.953 645.793 132.953C646.348 132.953 646.789 133.121 647.117 133.457C647.445 133.785 647.609 134.234 647.609 134.805C647.609 135.359 647.441 135.805 647.105 136.141C646.777 136.477 646.34 136.645 645.793 136.645ZM644.129 138.332H647.422V151H644.129V138.332ZM650.809 141.309C650.809 140.762 650.797 140.18 650.773 139.562C650.758 138.938 650.738 138.527 650.715 138.332H653.855C653.887 138.473 653.918 138.809 653.949 139.34C653.988 139.871 654.008 140.27 654.008 140.535H654.055C654.305 139.941 654.543 139.477 654.77 139.141C654.996 138.805 655.289 138.543 655.648 138.355C656.008 138.16 656.477 138.062 657.055 138.062C657.266 138.062 657.469 138.082 657.664 138.121C657.867 138.16 658.016 138.207 658.109 138.262L658.016 141.109C657.906 141.094 657.824 141.078 657.77 141.062C657.348 140.984 656.988 140.945 656.691 140.945C655.879 140.945 655.242 141.277 654.781 141.941C654.328 142.598 654.102 143.547 654.102 144.789V151H650.809V141.309ZM665.352 151.234C663.406 151.234 661.891 150.684 660.805 149.582C659.727 148.48 659.188 146.832 659.188 144.637C659.188 143.168 659.453 141.945 659.984 140.969C660.523 139.984 661.242 139.258 662.141 138.789C663.047 138.32 664.055 138.086 665.164 138.086C666.453 138.086 667.516 138.363 668.352 138.918C669.195 139.473 669.809 140.211 670.191 141.133C670.582 142.047 670.777 143.07 670.777 144.203C670.777 144.648 670.754 145.09 670.707 145.527H662.645C662.645 146.512 662.875 147.293 663.336 147.871C663.805 148.449 664.535 148.738 665.527 148.738C665.973 148.738 666.375 148.691 666.734 148.598C667.094 148.496 667.445 148.352 667.789 148.164C668.133 147.977 668.555 147.707 669.055 147.355L670.391 149.488C669.648 150.051 668.898 150.484 668.141 150.789C667.383 151.086 666.453 151.234 665.352 151.234ZM667.59 143.277C667.559 142.324 667.336 141.621 666.922 141.168C666.508 140.715 665.914 140.488 665.141 140.488C664.406 140.488 663.816 140.719 663.371 141.18C662.934 141.633 662.699 142.332 662.668 143.277H667.59ZM673.871 140.781H672.02V138.332H673.871V137.242C673.871 136.102 674.168 135.211 674.762 134.57C675.355 133.922 676.367 133.598 677.797 133.598C678.414 133.598 679.07 133.664 679.766 133.797L679.531 136.164C679.203 136.086 678.828 136.047 678.406 136.047C677.945 136.047 677.621 136.168 677.434 136.41C677.246 136.652 677.152 137.035 677.152 137.559V138.332H679.766V140.781H677.152V151H673.871V140.781ZM681.395 141.309C681.395 140.762 681.383 140.18 681.359 139.562C681.344 138.938 681.324 138.527 681.301 138.332H684.441C684.473 138.473 684.504 138.809 684.535 139.34C684.574 139.871 684.594 140.27 684.594 140.535H684.641C684.891 139.941 685.129 139.477 685.355 139.141C685.582 138.805 685.875 138.543 686.234 138.355C686.594 138.16 687.062 138.062 687.641 138.062C687.852 138.062 688.055 138.082 688.25 138.121C688.453 138.16 688.602 138.207 688.695 138.262L688.602 141.109C688.492 141.094 688.41 141.078 688.355 141.062C687.934 140.984 687.574 140.945 687.277 140.945C686.465 140.945 685.828 141.277 685.367 141.941C684.914 142.598 684.688 143.547 684.688 144.789V151H681.395V141.309ZM693.535 151.234C692.754 151.234 692.066 151.086 691.473 150.789C690.887 150.492 690.43 150.059 690.102 149.488C689.773 148.91 689.609 148.223 689.609 147.426C689.609 146.02 690.062 145 690.969 144.367C691.883 143.727 693.102 143.395 694.625 143.371L697.355 143.324V142.715C697.355 141.941 697.168 141.402 696.793 141.098C696.426 140.785 695.918 140.629 695.27 140.629C694.152 140.629 693.016 141.141 691.859 142.164L690.301 140.102C691.816 138.758 693.535 138.086 695.457 138.086C697.105 138.086 698.383 138.477 699.289 139.258C700.195 140.039 700.648 141.16 700.648 142.621V147.262C700.648 148.652 700.68 149.898 700.742 151H697.625C697.57 150.445 697.543 149.852 697.543 149.219H697.473C697.059 149.867 696.52 150.367 695.855 150.719C695.199 151.062 694.426 151.234 693.535 151.234ZM694.566 148.738C695.105 148.738 695.586 148.609 696.008 148.352C696.438 148.094 696.77 147.758 697.004 147.344C697.238 146.922 697.355 146.477 697.355 146.008V145.363L695.656 145.387C695.078 145.418 694.609 145.477 694.25 145.562C693.891 145.641 693.598 145.805 693.371 146.055C693.145 146.297 693.031 146.664 693.031 147.156C693.031 147.672 693.168 148.066 693.441 148.34C693.723 148.605 694.098 148.738 694.566 148.738ZM703.871 141.156C703.871 140.617 703.859 140.062 703.836 139.492C703.82 138.922 703.801 138.535 703.777 138.332H706.918C706.949 138.504 706.98 138.852 707.012 139.375C707.051 139.891 707.07 140.301 707.07 140.605H707.117C707.516 139.738 708.02 139.098 708.629 138.684C709.238 138.27 709.965 138.062 710.809 138.062C711.762 138.062 712.535 138.281 713.129 138.719C713.73 139.148 714.133 139.777 714.336 140.605H714.406C714.836 139.676 715.355 139.02 715.965 138.637C716.582 138.254 717.344 138.062 718.25 138.062C719.562 138.062 720.523 138.508 721.133 139.398C721.742 140.289 722.047 141.477 722.047 142.961V151H718.777V143.898C718.777 142.945 718.641 142.211 718.367 141.695C718.094 141.18 717.625 140.922 716.961 140.922C716.523 140.922 716.129 141.055 715.777 141.32C715.426 141.578 715.145 141.945 714.934 142.422C714.73 142.891 714.621 143.43 714.605 144.039V151H711.336V143.898C711.336 142.945 711.199 142.211 710.926 141.695C710.652 141.18 710.184 140.922 709.52 140.922C709.074 140.922 708.672 141.062 708.312 141.344C707.953 141.617 707.672 142.004 707.469 142.504C707.266 143.004 707.164 143.57 707.164 144.203V151H703.871V141.156ZM730.648 151.234C728.703 151.234 727.188 150.684 726.102 149.582C725.023 148.48 724.484 146.832 724.484 144.637C724.484 143.168 724.75 141.945 725.281 140.969C725.82 139.984 726.539 139.258 727.438 138.789C728.344 138.32 729.352 138.086 730.461 138.086C731.75 138.086 732.812 138.363 733.648 138.918C734.492 139.473 735.105 140.211 735.488 141.133C735.879 142.047 736.074 143.07 736.074 144.203C736.074 144.648 736.051 145.09 736.004 145.527H727.941C727.941 146.512 728.172 147.293 728.633 147.871C729.102 148.449 729.832 148.738 730.824 148.738C731.27 148.738 731.672 148.691 732.031 148.598C732.391 148.496 732.742 148.352 733.086 148.164C733.43 147.977 733.852 147.707 734.352 147.355L735.688 149.488C734.945 150.051 734.195 150.484 733.438 150.789C732.68 151.086 731.75 151.234 730.648 151.234ZM732.887 143.277C732.855 142.324 732.633 141.621 732.219 141.168C731.805 140.715 731.211 140.488 730.438 140.488C729.703 140.488 729.113 140.719 728.668 141.18C728.23 141.633 727.996 142.332 727.965 143.277H732.887Z" fill="black"/>
<path d="M801.605 134.488H809.023C810.398 134.488 811.543 134.711 812.457 135.156C813.379 135.602 814.062 136.227 814.508 137.031C814.961 137.836 815.188 138.781 815.188 139.867C815.188 140.875 814.965 141.801 814.52 142.645C814.082 143.488 813.41 144.164 812.504 144.672C811.605 145.18 810.492 145.434 809.164 145.434H805.062V151H801.605V134.488ZM808.73 142.527C809.723 142.527 810.465 142.297 810.957 141.836C811.457 141.367 811.707 140.727 811.707 139.914C811.707 139.094 811.449 138.473 810.934 138.051C810.418 137.629 809.652 137.418 808.637 137.418H805.062V142.527H808.73ZM817.684 141.309C817.684 140.762 817.672 140.18 817.648 139.562C817.633 138.938 817.613 138.527 817.59 138.332H820.73C820.762 138.473 820.793 138.809 820.824 139.34C820.863 139.871 820.883 140.27 820.883 140.535H820.93C821.18 139.941 821.418 139.477 821.645 139.141C821.871 138.805 822.164 138.543 822.523 138.355C822.883 138.16 823.352 138.062 823.93 138.062C824.141 138.062 824.344 138.082 824.539 138.121C824.742 138.16 824.891 138.207 824.984 138.262L824.891 141.109C824.781 141.094 824.699 141.078 824.645 141.062C824.223 140.984 823.863 140.945 823.566 140.945C822.754 140.945 822.117 141.277 821.656 141.941C821.203 142.598 820.977 143.547 820.977 144.789V151H817.684V141.309ZM832.402 151.234C831.074 151.234 829.93 150.945 828.969 150.367C828.016 149.789 827.293 149 826.801 148C826.309 147 826.062 145.879 826.062 144.637C826.062 143.426 826.301 142.324 826.777 141.332C827.262 140.34 827.984 139.551 828.945 138.965C829.906 138.379 831.082 138.086 832.473 138.086C833.934 138.086 835.137 138.379 836.082 138.965C837.035 139.543 837.734 140.324 838.18 141.309C838.625 142.285 838.848 143.395 838.848 144.637C838.848 145.879 838.602 147 838.109 148C837.625 148.992 836.898 149.781 835.93 150.367C834.961 150.945 833.785 151.234 832.402 151.234ZM832.367 148.621C833.344 148.621 834.094 148.277 834.617 147.59C835.141 146.902 835.402 145.918 835.402 144.637C835.402 143.371 835.156 142.398 834.664 141.719C834.172 141.039 833.457 140.699 832.52 140.699C831.551 140.699 830.809 141.043 830.293 141.73C829.777 142.41 829.52 143.379 829.52 144.637C829.52 145.473 829.637 146.191 829.871 146.793C830.113 147.387 830.445 147.84 830.867 148.152C831.297 148.465 831.797 148.621 832.367 148.621ZM844.953 151.211C843.898 151.211 843.09 150.926 842.527 150.355C841.973 149.777 841.695 148.922 841.695 147.789V140.781H840.09V138.332H841.859L842.023 135.473L844.953 135.227V138.332H847.473V140.781H844.953V146.898C844.953 147.445 845.051 147.848 845.246 148.105C845.441 148.355 845.754 148.48 846.184 148.48C846.527 148.48 846.926 148.434 847.379 148.34L847.625 150.836C846.727 151.086 845.836 151.211 844.953 151.211ZM855.184 151.234C853.855 151.234 852.711 150.945 851.75 150.367C850.797 149.789 850.074 149 849.582 148C849.09 147 848.844 145.879 848.844 144.637C848.844 143.426 849.082 142.324 849.559 141.332C850.043 140.34 850.766 139.551 851.727 138.965C852.688 138.379 853.863 138.086 855.254 138.086C856.715 138.086 857.918 138.379 858.863 138.965C859.816 139.543 860.516 140.324 860.961 141.309C861.406 142.285 861.629 143.395 861.629 144.637C861.629 145.879 861.383 147 860.891 148C860.406 148.992 859.68 149.781 858.711 150.367C857.742 150.945 856.566 151.234 855.184 151.234ZM855.148 148.621C856.125 148.621 856.875 148.277 857.398 147.59C857.922 146.902 858.184 145.918 858.184 144.637C858.184 143.371 857.938 142.398 857.445 141.719C856.953 141.039 856.238 140.699 855.301 140.699C854.332 140.699 853.59 141.043 853.074 141.73C852.559 142.41 852.301 143.379 852.301 144.637C852.301 145.473 852.418 146.191 852.652 146.793C852.895 147.387 853.227 147.84 853.648 148.152C854.078 148.465 854.578 148.621 855.148 148.621ZM867.734 151.211C866.68 151.211 865.871 150.926 865.309 150.355C864.754 149.777 864.477 148.922 864.477 147.789V140.781H862.871V138.332H864.641L864.805 135.473L867.734 135.227V138.332H870.254V140.781H867.734V146.898C867.734 147.445 867.832 147.848 868.027 148.105C868.223 148.355 868.535 148.48 868.965 148.48C869.309 148.48 869.707 148.434 870.16 148.34L870.406 150.836C869.508 151.086 868.617 151.211 867.734 151.211ZM874.004 155.992C873.184 155.992 872.492 155.93 871.93 155.805L872.176 153.227C872.559 153.297 872.855 153.332 873.066 153.332C873.496 153.332 873.863 153.273 874.168 153.156C874.473 153.039 874.742 152.844 874.977 152.57C875.219 152.297 875.453 151.918 875.68 151.434L875.891 150.883L870.875 138.332H874.379L876.371 144.203C876.527 144.695 876.746 145.383 877.027 146.266C877.309 147.148 877.477 147.703 877.531 147.93C877.594 147.648 877.758 147.035 878.023 146.09C878.289 145.137 878.469 144.527 878.562 144.262L880.426 138.332H883.906L878.891 151.668C878.469 152.699 878.043 153.523 877.613 154.141C877.184 154.766 876.68 155.23 876.102 155.535C875.523 155.84 874.824 155.992 874.004 155.992ZM885.723 141.227C885.723 140.031 885.691 139.066 885.629 138.332H888.828C888.859 138.41 888.891 138.656 888.922 139.07C888.953 139.477 888.969 139.836 888.969 140.148H889.016C889.852 138.758 891.195 138.062 893.047 138.062C894.07 138.062 894.941 138.344 895.66 138.906C896.379 139.461 896.922 140.23 897.289 141.215C897.664 142.191 897.852 143.316 897.852 144.59C897.852 145.887 897.652 147.039 897.254 148.047C896.855 149.047 896.27 149.828 895.496 150.391C894.73 150.953 893.816 151.234 892.754 151.234C891.973 151.234 891.246 151.074 890.574 150.754C889.91 150.434 889.391 149.922 889.016 149.219H888.945C888.961 149.305 888.977 149.562 888.992 149.992C889.008 150.414 889.016 150.789 889.016 151.117V155.992H885.723V141.227ZM891.77 148.621C892.574 148.621 893.215 148.289 893.691 147.625C894.176 146.961 894.418 145.949 894.418 144.59C894.418 143.309 894.184 142.34 893.715 141.684C893.246 141.027 892.609 140.699 891.805 140.699C891.312 140.699 890.852 140.824 890.422 141.074C890 141.324 889.652 141.746 889.379 142.34C889.105 142.934 888.969 143.715 888.969 144.684C888.969 145.637 889.102 146.406 889.367 146.992C889.641 147.578 889.988 147.996 890.41 148.246C890.832 148.496 891.285 148.621 891.77 148.621ZM905.938 151.234C903.992 151.234 902.477 150.684 901.391 149.582C900.312 148.48 899.773 146.832 899.773 144.637C899.773 143.168 900.039 141.945 900.57 140.969C901.109 139.984 901.828 139.258 902.727 138.789C903.633 138.32 904.641 138.086 905.75 138.086C907.039 138.086 908.102 138.363 908.938 138.918C909.781 139.473 910.395 140.211 910.777 141.133C911.168 142.047 911.363 143.07 911.363 144.203C911.363 144.648 911.34 145.09 911.293 145.527H903.23C903.23 146.512 903.461 147.293 903.922 147.871C904.391 148.449 905.121 148.738 906.113 148.738C906.559 148.738 906.961 148.691 907.32 148.598C907.68 148.496 908.031 148.352 908.375 148.164C908.719 147.977 909.141 147.707 909.641 147.355L910.977 149.488C910.234 150.051 909.484 150.484 908.727 150.789C907.969 151.086 907.039 151.234 905.938 151.234ZM908.176 143.277C908.145 142.324 907.922 141.621 907.508 141.168C907.094 140.715 906.5 140.488 905.727 140.488C904.992 140.488 904.402 140.719 903.957 141.18C903.52 141.633 903.285 142.332 903.254 143.277H908.176Z" fill="black"/>
<defs>
<linearGradient id="paint0_linear" x1="142.857" y1="0" x2="142.857" y2="285.714" gradientUnits="userSpaceOnUse">
<stop stop-color="#2CB2E7"/>
<stop offset="1" stop-color="#3259A5"/>
</linearGradient>
<linearGradient id="paint1_linear" x1="321.428" y1="0" x2="321.428" y2="285.714" gradientUnits="userSpaceOnUse">
<stop stop-color="#2CB2E7"/>
<stop offset="1" stop-color="#3259A5"/>
</linearGradient>
<linearGradient id="paint2_linear" x1="500" y1="0" x2="500" y2="285.714" gradientUnits="userSpaceOnUse">
<stop stop-color="#2CB2E7"/>
<stop offset="1" stop-color="#3259A5"/>
</linearGradient>
<linearGradient id="paint3_linear" x1="678.572" y1="0" x2="678.572" y2="285.714" gradientUnits="userSpaceOnUse">
<stop stop-color="#2CB2E7"/>
<stop offset="1" stop-color="#3259A5"/>
</linearGradient>
<linearGradient id="paint4_linear" x1="857.143" y1="0" x2="857.143" y2="285.714" gradientUnits="userSpaceOnUse">
<stop stop-color="#2CB2E7"/>
<stop offset="1" stop-color="#3259A5"/>
</linearGradient>
<linearGradient id="paint5_linear" x1="142.857" y1="35.7143" x2="142.857" y2="250" gradientUnits="userSpaceOnUse">
<stop stop-color="#2CB2E7"/>
<stop offset="1" stop-color="#3259A5"/>
</linearGradient>
<linearGradient id="paint6_linear" x1="321.429" y1="35.7143" x2="321.429" y2="250" gradientUnits="userSpaceOnUse">
<stop stop-color="#2CB2E7"/>
<stop offset="1" stop-color="#3259A5"/>
</linearGradient>
<linearGradient id="paint7_linear" x1="500" y1="35.7143" x2="500" y2="250" gradientUnits="userSpaceOnUse">
<stop stop-color="#2CB2E7"/>
<stop offset="1" stop-color="#3259A5"/>
</linearGradient>
<linearGradient id="paint8_linear" x1="678.572" y1="35.7143" x2="678.572" y2="250" gradientUnits="userSpaceOnUse">
<stop stop-color="#2CB2E7"/>
<stop offset="1" stop-color="#3259A5"/>
</linearGradient>
<linearGradient id="paint9_linear" x1="857.143" y1="35.7143" x2="857.143" y2="250" gradientUnits="userSpaceOnUse">
<stop stop-color="#2CB2E7"/>
<stop offset="1" stop-color="#3259A5"/>
</linearGradient>
</defs>
</svg>
