<?xml version="1.0" encoding="UTF-8"?>
<svg width="1000px" height="650px" viewBox="0 0 1000 650" version="1.1" xmlns="http://www.w3.org/2000/svg" xmlns:xlink="http://www.w3.org/1999/xlink">
    <title>Artboard</title>
    <g id="Artboard" stroke="none" stroke-width="1" fill="none" fill-rule="evenodd">
        <g id="Group" transform="translate(81.000000, 114.000000)">
            <rect id="Rectangle" stroke="#979797" stroke-width="2" x="106" y="0" width="300" height="40" rx="3"></rect>
            <rect id="Rectangle" stroke="#979797" stroke-width="2" fill="#D8D8D8" x="0" y="0" width="100" height="40" rx="3"></rect>
            <g id="hand-drawn" transform="translate(414.000000, 0.000000)" fill="#979797" fill-rule="nonzero">
                <path d="M13.2443292,4.40602494 C8.47241895,4.40602494 4.59052369,8.2882394 4.59052369,13.0597506 C4.59052369,17.8312618 8.47281796,21.7134763 13.2443292,21.7134763 C18.0156808,21.7134763 21.8981347,17.8312618 21.8981347,13.0597506 C21.8981347,8.2882394 18.016,4.40602494 13.2443292,4.40602494 Z M13.2443292,19.2242594 C9.84554613,19.2242594 7.08021945,16.4590125 7.08021945,13.0601496 C7.08021945,9.66136658 9.84546633,6.8961197 13.2443292,6.8961197 C16.643192,6.8961197 19.4084389,9.66136658 19.4084389,13.0601496 C19.4084389,16.4590125 16.643591,19.2242594 13.2443292,19.2242594 Z" id="Shape"></path>
                <path d="M22.8958005,22.1771172 C25.1496858,19.7947531 26.5359002,16.5833416 26.5359002,13.0526484 C26.5359002,10.8520698 25.6197107,8.40674314 25.2258155,7.45751621 C23.288419,2.78799002 18.8540648,0 13.3638703,0 C11.3640698,0 9.28367082,0.381685786 7.34707232,1.1038005 C2.10649377,3.05819451 -0.107650873,8.85171072 0.0226633416,13.7265636 C0.205566085,20.5676209 6.25947132,26.3465337 13.2416958,26.3465337 C14.9057756,26.3465337 16.4981147,26.0365087 17.9674015,25.4757506 C19.2520299,28.2061247 20.61598,30.9048978 22.0245387,33.5712718 C22.7158504,34.8801596 23.2483591,36.448798 24.1038204,37.6547431 C25.4949825,39.615202 29.9633317,36.7774963 31.2009576,35.7457556 C31.2074214,35.7400898 31.2110923,35.7340249 31.2175561,35.7286783 C31.7711322,35.547212 32.1754813,34.9612369 31.7504638,34.3509227 C28.8825137,30.2297057 25.6456459,26.3785337 22.8958005,22.1771172 Z M2.5115611,13.6596908 C2.40502743,9.66982544 4.1274414,4.96151621 8.21673815,3.43668828 C9.87770574,2.81703741 11.6574963,2.48961596 13.3638703,2.48961596 C17.8794613,2.48961596 21.3648279,4.64821945 22.9262045,8.41137157 C23.6276509,10.1013865 24.0462045,11.8359302 24.0462045,13.0522494 C24.0462045,19.009197 19.1997606,23.8563591 13.2420948,23.8563591 C7.57362594,23.8563591 2.65967082,19.1865935 2.5115611,13.6596908 Z M19.748788,24.6380848 C20.3334863,24.3081895 20.8903342,23.9357606 21.4162993,23.5240698 C22.5655062,25.2564589 23.7909227,26.9333067 25.0390025,28.5946733 C24.1828229,29.1211172 23.3613566,29.6980748 22.5663042,30.3120599 C21.6047082,28.4321995 20.6545237,26.5462743 19.748788,24.6380848 Z M25.5913017,36.2538454 C24.9028628,34.8696259 24.1986234,33.4930673 23.4922294,32.1173067 C24.3719501,31.4211272 25.2865436,30.776419 26.2494165,30.1981845 C27.3471521,31.6488778 28.4440898,33.1003691 29.4996908,34.5822643 C28.3492868,35.4571172 27.0132668,36.0147631 25.5913017,36.2538454 Z" id="Shape"></path>
            </g>
            <path d="M79.2906716,30.5248225 L86.3874614,21.8151259 C86.7741548,21.3405477 86.7741548,20.6595767 86.3874614,20.1849985 L79.2906716,11.4753018 C78.8405243,10.9228484 78.0277559,10.8399129 77.4753025,11.2900601 C76.922849,11.7402073 76.8399135,12.5529758 77.2900607,13.1054292 L84.3868506,21.8151259 L84.3868506,20.1849985 L77.2900607,28.8946952 C76.8399135,29.4471486 76.922849,30.259917 77.4753025,30.7100643 C78.0277559,31.1602115 78.8405243,31.077276 79.2906716,30.5248225 L79.2906716,30.5248225 Z" id="chevron" fill="#979797" fill-rule="nonzero" transform="translate(81.838741, 21.000062) rotate(90.000000) translate(-81.838741, -21.000062) "></path>
            <text id="xxx" font-family="ComicSansMS, Comic Sans MS" font-size="24" font-weight="normal" fill="#979797">
                <tspan x="15" y="27">xxx</tspan>
            </text>
        </g>
        <g id="Group" transform="translate(580.000000, 82.000000)">
            <rect id="Rectangle" stroke="#979797" stroke-width="2" fill="#FFFFFF" x="0" y="33" width="300" height="40" rx="3"></rect>
            <rect id="Rectangle" stroke="#979797" stroke-width="2" fill="#D8D8D8" x="0" y="2" width="50" height="20" rx="3"></rect>
            <g id="hand-drawn" transform="translate(308.000000, 32.000000)" fill="#979797" fill-rule="nonzero">
                <path d="M13.2443292,4.40602494 C8.47241895,4.40602494 4.59052369,8.2882394 4.59052369,13.0597506 C4.59052369,17.8312618 8.47281796,21.7134763 13.2443292,21.7134763 C18.0156808,21.7134763 21.8981347,17.8312618 21.8981347,13.0597506 C21.8981347,8.2882394 18.016,4.40602494 13.2443292,4.40602494 Z M13.2443292,19.2242594 C9.84554613,19.2242594 7.08021945,16.4590125 7.08021945,13.0601496 C7.08021945,9.66136658 9.84546633,6.8961197 13.2443292,6.8961197 C16.643192,6.8961197 19.4084389,9.66136658 19.4084389,13.0601496 C19.4084389,16.4590125 16.643591,19.2242594 13.2443292,19.2242594 Z" id="Shape"></path>
                <path d="M22.8958005,22.1771172 C25.1496858,19.7947531 26.5359002,16.5833416 26.5359002,13.0526484 C26.5359002,10.8520698 25.6197107,8.40674314 25.2258155,7.45751621 C23.288419,2.78799002 18.8540648,0 13.3638703,0 C11.3640698,0 9.28367082,0.381685786 7.34707232,1.1038005 C2.10649377,3.05819451 -0.107650873,8.85171072 0.0226633416,13.7265636 C0.205566085,20.5676209 6.25947132,26.3465337 13.2416958,26.3465337 C14.9057756,26.3465337 16.4981147,26.0365087 17.9674015,25.4757506 C19.2520299,28.2061247 20.61598,30.9048978 22.0245387,33.5712718 C22.7158504,34.8801596 23.2483591,36.448798 24.1038204,37.6547431 C25.4949825,39.615202 29.9633317,36.7774963 31.2009576,35.7457556 C31.2074214,35.7400898 31.2110923,35.7340249 31.2175561,35.7286783 C31.7711322,35.547212 32.1754813,34.9612369 31.7504638,34.3509227 C28.8825137,30.2297057 25.6456459,26.3785337 22.8958005,22.1771172 Z M2.5115611,13.6596908 C2.40502743,9.66982544 4.1274414,4.96151621 8.21673815,3.43668828 C9.87770574,2.81703741 11.6574963,2.48961596 13.3638703,2.48961596 C17.8794613,2.48961596 21.3648279,4.64821945 22.9262045,8.41137157 C23.6276509,10.1013865 24.0462045,11.8359302 24.0462045,13.0522494 C24.0462045,19.009197 19.1997606,23.8563591 13.2420948,23.8563591 C7.57362594,23.8563591 2.65967082,19.1865935 2.5115611,13.6596908 Z M19.748788,24.6380848 C20.3334863,24.3081895 20.8903342,23.9357606 21.4162993,23.5240698 C22.5655062,25.2564589 23.7909227,26.9333067 25.0390025,28.5946733 C24.1828229,29.1211172 23.3613566,29.6980748 22.5663042,30.3120599 C21.6047082,28.4321995 20.6545237,26.5462743 19.748788,24.6380848 Z M25.5913017,36.2538454 C24.9028628,34.8696259 24.1986234,33.4930673 23.4922294,32.1173067 C24.3719501,31.4211272 25.2865436,30.776419 26.2494165,30.1981845 C27.3471521,31.6488778 28.4440898,33.1003691 29.4996908,34.5822643 C28.3492868,35.4571172 27.0132668,36.0147631 25.5913017,36.2538454 Z" id="Shape"></path>
            </g>
            <text id="xxx" font-family="ComicSansMS, Comic Sans MS" font-size="14" font-weight="normal" fill="#979797">
                <tspan x="13" y="15">xxx</tspan>
            </text>
            <rect id="Rectangle" stroke="#979797" stroke-width="2" fill="#D8D8D8" x="60" y="2" width="50" height="20" rx="3"></rect>
            <text id="xxx" font-family="ComicSansMS, Comic Sans MS" font-size="14" font-weight="normal" fill="#979797">
                <tspan x="73" y="15">xxx</tspan>
            </text>
            <rect id="Rectangle" stroke="#979797" stroke-width="2" fill="#D8D8D8" x="120" y="2" width="50" height="20" rx="3"></rect>
            <text id="xxx" font-family="ComicSansMS, Comic Sans MS" font-size="14" font-weight="normal" fill="#979797">
                <tspan x="133" y="15">xxx</tspan>
            </text>
        </g>
        <g id="Group-3" transform="translate(82.000000, 228.000000)">
            <g id="Group-2">
                <rect id="Rectangle" stroke="#979797" stroke-width="2" fill="#D8D8D8" x="0" y="30" width="300" height="99" rx="3"></rect>
                <g id="Group">
                    <g id="hand-drawn" transform="translate(308.000000, 0.000000)" fill="#979797" fill-rule="nonzero">
                        <path d="M13.2443292,4.40602494 C8.47241895,4.40602494 4.59052369,8.2882394 4.59052369,13.0597506 C4.59052369,17.8312618 8.47281796,21.7134763 13.2443292,21.7134763 C18.0156808,21.7134763 21.8981347,17.8312618 21.8981347,13.0597506 C21.8981347,8.2882394 18.016,4.40602494 13.2443292,4.40602494 Z M13.2443292,19.2242594 C9.84554613,19.2242594 7.08021945,16.4590125 7.08021945,13.0601496 C7.08021945,9.66136658 9.84546633,6.8961197 13.2443292,6.8961197 C16.643192,6.8961197 19.4084389,9.66136658 19.4084389,13.0601496 C19.4084389,16.4590125 16.643591,19.2242594 13.2443292,19.2242594 Z" id="Shape"></path>
                        <path d="M22.8958005,22.1771172 C25.1496858,19.7947531 26.5359002,16.5833416 26.5359002,13.0526484 C26.5359002,10.8520698 25.6197107,8.40674314 25.2258155,7.45751621 C23.288419,2.78799002 18.8540648,0 13.3638703,0 C11.3640698,0 9.28367082,0.381685786 7.34707232,1.1038005 C2.10649377,3.05819451 -0.107650873,8.85171072 0.0226633416,13.7265636 C0.205566085,20.5676209 6.25947132,26.3465337 13.2416958,26.3465337 C14.9057756,26.3465337 16.4981147,26.0365087 17.9674015,25.4757506 C19.2520299,28.2061247 20.61598,30.9048978 22.0245387,33.5712718 C22.7158504,34.8801596 23.2483591,36.448798 24.1038204,37.6547431 C25.4949825,39.615202 29.9633317,36.7774963 31.2009576,35.7457556 C31.2074214,35.7400898 31.2110923,35.7340249 31.2175561,35.7286783 C31.7711322,35.547212 32.1754813,34.9612369 31.7504638,34.3509227 C28.8825137,30.2297057 25.6456459,26.3785337 22.8958005,22.1771172 Z M2.5115611,13.6596908 C2.40502743,9.66982544 4.1274414,4.96151621 8.21673815,3.43668828 C9.87770574,2.81703741 11.6574963,2.48961596 13.3638703,2.48961596 C17.8794613,2.48961596 21.3648279,4.64821945 22.9262045,8.41137157 C23.6276509,10.1013865 24.0462045,11.8359302 24.0462045,13.0522494 C24.0462045,19.009197 19.1997606,23.8563591 13.2420948,23.8563591 C7.57362594,23.8563591 2.65967082,19.1865935 2.5115611,13.6596908 Z M19.748788,24.6380848 C20.3334863,24.3081895 20.8903342,23.9357606 21.4162993,23.5240698 C22.5655062,25.2564589 23.7909227,26.9333067 25.0390025,28.5946733 C24.1828229,29.1211172 23.3613566,29.6980748 22.5663042,30.3120599 C21.6047082,28.4321995 20.6545237,26.5462743 19.748788,24.6380848 Z M25.5913017,36.2538454 C24.9028628,34.8696259 24.1986234,33.4930673 23.4922294,32.1173067 C24.3719501,31.4211272 25.2865436,30.776419 26.2494165,30.1981845 C27.3471521,31.6488778 28.4440898,33.1003691 29.4996908,34.5822643 C28.3492868,35.4571172 27.0132668,36.0147631 25.5913017,36.2538454 Z" id="Shape"></path>
                    </g>
                    <text id="xxx" font-family="ComicSansMS, Comic Sans MS" font-size="24" font-weight="normal" fill="#979797">
                        <tspan x="13" y="63">xxx</tspan>
                    </text>
                    <text id="xxx" font-family="ComicSansMS, Comic Sans MS" font-size="24" font-weight="normal" fill="#979797">
                        <tspan x="13" y="89">xxx</tspan>
                    </text>
                    <text id="xxx" font-family="ComicSansMS, Comic Sans MS" font-size="24" font-weight="normal" fill="#979797">
                        <tspan x="13" y="116">xxx</tspan>
                    </text>
                    <rect id="Rectangle" stroke="#979797" stroke-width="2" fill="#FFFFFF" x="0" y="0" width="300" height="40" rx="3"></rect>
                </g>
            </g>
        </g>
        <g id="Group" transform="translate(577.000000, 231.000000)">
            <rect id="Rectangle" stroke="#979797" stroke-width="2" fill="#FFFFFF" x="0" y="0" width="300" height="40" rx="3"></rect>
            <g id="hand-drawn" transform="translate(308.000000, 0.000000)" fill="#979797" fill-rule="nonzero">
                <path d="M13.2443292,4.40602494 C8.47241895,4.40602494 4.59052369,8.2882394 4.59052369,13.0597506 C4.59052369,17.8312618 8.47281796,21.7134763 13.2443292,21.7134763 C18.0156808,21.7134763 21.8981347,17.8312618 21.8981347,13.0597506 C21.8981347,8.2882394 18.016,4.40602494 13.2443292,4.40602494 Z M13.2443292,19.2242594 C9.84554613,19.2242594 7.08021945,16.4590125 7.08021945,13.0601496 C7.08021945,9.66136658 9.84546633,6.8961197 13.2443292,6.8961197 C16.643192,6.8961197 19.4084389,9.66136658 19.4084389,13.0601496 C19.4084389,16.4590125 16.643591,19.2242594 13.2443292,19.2242594 Z" id="Shape"></path>
                <path d="M22.8958005,22.1771172 C25.1496858,19.7947531 26.5359002,16.5833416 26.5359002,13.0526484 C26.5359002,10.8520698 25.6197107,8.40674314 25.2258155,7.45751621 C23.288419,2.78799002 18.8540648,0 13.3638703,0 C11.3640698,0 9.28367082,0.381685786 7.34707232,1.1038005 C2.10649377,3.05819451 -0.107650873,8.85171072 0.0226633416,13.7265636 C0.205566085,20.5676209 6.25947132,26.3465337 13.2416958,26.3465337 C14.9057756,26.3465337 16.4981147,26.0365087 17.9674015,25.4757506 C19.2520299,28.2061247 20.61598,30.9048978 22.0245387,33.5712718 C22.7158504,34.8801596 23.2483591,36.448798 24.1038204,37.6547431 C25.4949825,39.615202 29.9633317,36.7774963 31.2009576,35.7457556 C31.2074214,35.7400898 31.2110923,35.7340249 31.2175561,35.7286783 C31.7711322,35.547212 32.1754813,34.9612369 31.7504638,34.3509227 C28.8825137,30.2297057 25.6456459,26.3785337 22.8958005,22.1771172 Z M2.5115611,13.6596908 C2.40502743,9.66982544 4.1274414,4.96151621 8.21673815,3.43668828 C9.87770574,2.81703741 11.6574963,2.48961596 13.3638703,2.48961596 C17.8794613,2.48961596 21.3648279,4.64821945 22.9262045,8.41137157 C23.6276509,10.1013865 24.0462045,11.8359302 24.0462045,13.0522494 C24.0462045,19.009197 19.1997606,23.8563591 13.2420948,23.8563591 C7.57362594,23.8563591 2.65967082,19.1865935 2.5115611,13.6596908 Z M19.748788,24.6380848 C20.3334863,24.3081895 20.8903342,23.9357606 21.4162993,23.5240698 C22.5655062,25.2564589 23.7909227,26.9333067 25.0390025,28.5946733 C24.1828229,29.1211172 23.3613566,29.6980748 22.5663042,30.3120599 C21.6047082,28.4321995 20.6545237,26.5462743 19.748788,24.6380848 Z M25.5913017,36.2538454 C24.9028628,34.8696259 24.1986234,33.4930673 23.4922294,32.1173067 C24.3719501,31.4211272 25.2865436,30.776419 26.2494165,30.1981845 C27.3471521,31.6488778 28.4440898,33.1003691 29.4996908,34.5822643 C28.3492868,35.4571172 27.0132668,36.0147631 25.5913017,36.2538454 Z" id="Shape"></path>
            </g>
            <text id="Are-you-looking-for" font-family="ComicSansMS, Comic Sans MS" font-size="14" font-weight="normal" fill="#979797">
                <tspan x="0" y="62">Are you looking for xxx</tspan>
            </text>
        </g>
        <text id="Question" font-family="ComicSansMS, Comic Sans MS" font-size="14" font-weight="normal" fill="#979797">
            <tspan x="587" y="257">Question</tspan>
        </text>
        <text id="Chips" font-family="ComicSansMS, Comic Sans MS" font-size="14" font-weight="normal" fill="#979797">
            <tspan x="590" y="139">Chips</tspan>
        </text>
        <g id="Group-6" transform="translate(740.000000, 419.000000)">
            <g id="Group-2">
                <rect id="Rectangle" stroke="#979797" stroke-width="2" fill="#D8D8D8" x="0" y="0" width="200" height="150" rx="3"></rect>
                <text id="A" font-family="ComicSansMS, Comic Sans MS" font-size="24" font-weight="normal" fill="#979797">
                    <tspan x="50" y="55">A</tspan>
                </text>
                <text id="B" font-family="ComicSansMS, Comic Sans MS" font-size="24" font-weight="normal" fill="#979797">
                    <tspan x="134" y="55">B</tspan>
                </text>
                <g id="Group" transform="translate(85.000000, 102.000000)" fill="#979797" fill-rule="nonzero">
                    <g id="hand-drawn">
                        <path d="M13.2443292,4.40602494 C8.47241895,4.40602494 4.59052369,8.2882394 4.59052369,13.0597506 C4.59052369,17.8312618 8.47281796,21.7134763 13.2443292,21.7134763 C18.0156808,21.7134763 21.8981347,17.8312618 21.8981347,13.0597506 C21.8981347,8.2882394 18.016,4.40602494 13.2443292,4.40602494 Z M13.2443292,19.2242594 C9.84554613,19.2242594 7.08021945,16.4590125 7.08021945,13.0601496 C7.08021945,9.66136658 9.84546633,6.8961197 13.2443292,6.8961197 C16.643192,6.8961197 19.4084389,9.66136658 19.4084389,13.0601496 C19.4084389,16.4590125 16.643591,19.2242594 13.2443292,19.2242594 Z" id="Shape"></path>
                        <path d="M22.8958005,22.1771172 C25.1496858,19.7947531 26.5359002,16.5833416 26.5359002,13.0526484 C26.5359002,10.8520698 25.6197107,8.40674314 25.2258155,7.45751621 C23.288419,2.78799002 18.8540648,0 13.3638703,0 C11.3640698,0 9.28367082,0.381685786 7.34707232,1.1038005 C2.10649377,3.05819451 -0.107650873,8.85171072 0.0226633416,13.7265636 C0.205566085,20.5676209 6.25947132,26.3465337 13.2416958,26.3465337 C14.9057756,26.3465337 16.4981147,26.0365087 17.9674015,25.4757506 C19.2520299,28.2061247 20.61598,30.9048978 22.0245387,33.5712718 C22.7158504,34.8801596 23.2483591,36.448798 24.1038204,37.6547431 C25.4949825,39.615202 29.9633317,36.7774963 31.2009576,35.7457556 C31.2074214,35.7400898 31.2110923,35.7340249 31.2175561,35.7286783 C31.7711322,35.547212 32.1754813,34.9612369 31.7504638,34.3509227 C28.8825137,30.2297057 25.6456459,26.3785337 22.8958005,22.1771172 Z M2.5115611,13.6596908 C2.40502743,9.66982544 4.1274414,4.96151621 8.21673815,3.43668828 C9.87770574,2.81703741 11.6574963,2.48961596 13.3638703,2.48961596 C17.8794613,2.48961596 21.3648279,4.64821945 22.9262045,8.41137157 C23.6276509,10.1013865 24.0462045,11.8359302 24.0462045,13.0522494 C24.0462045,19.009197 19.1997606,23.8563591 13.2420948,23.8563591 C7.57362594,23.8563591 2.65967082,19.1865935 2.5115611,13.6596908 Z M19.748788,24.6380848 C20.3334863,24.3081895 20.8903342,23.9357606 21.4162993,23.5240698 C22.5655062,25.2564589 23.7909227,26.9333067 25.0390025,28.5946733 C24.1828229,29.1211172 23.3613566,29.6980748 22.5663042,30.3120599 C21.6047082,28.4321995 20.6545237,26.5462743 19.748788,24.6380848 Z M25.5913017,36.2538454 C24.9028628,34.8696259 24.1986234,33.4930673 23.4922294,32.1173067 C24.3719501,31.4211272 25.2865436,30.776419 26.2494165,30.1981845 C27.3471521,31.6488778 28.4440898,33.1003691 29.4996908,34.5822643 C28.3492868,35.4571172 27.0132668,36.0147631 25.5913017,36.2538454 Z" id="Shape"></path>
                    </g>
                </g>
            </g>
            <text id="Modal" font-family="ComicSansMS, Comic Sans MS" font-size="14" font-weight="normal" fill="#979797">
                <tspan x="11" y="25">Modal</tspan>
            </text>
        </g>
        <g id="Group-5" transform="translate(400.000000, 419.000000)">
            <rect id="Rectangle" stroke="#979797" stroke-width="2" fill="#D8D8D8" x="0" y="0" width="200" height="150" rx="3"></rect>
            <text id="Login" font-family="ComicSansMS, Comic Sans MS" font-size="14" font-weight="normal" fill="#979797">
                <tspan x="10" y="26">Login</tspan>
            </text>
            <text id="account" font-family="ComicSansMS, Comic Sans MS" font-size="24" font-weight="normal" fill="#979797">
                <tspan x="57" y="55">account</tspan>
            </text>
            <text id="pwd" font-family="ComicSansMS, Comic Sans MS" font-size="24" font-weight="normal" fill="#979797">
                <tspan x="78" y="105">pwd</tspan>
            </text>
        </g>
        <g id="Group-4" transform="translate(60.000000, 419.000000)">
            <rect id="Rectangle" stroke="#979797" stroke-width="2" fill="#D8D8D8" x="0" y="0" width="200" height="150" rx="3"></rect>
            <text id="Tell-me…" font-family="ComicSansMS, Comic Sans MS" font-size="24" font-weight="normal" fill="#979797">
                <tspan x="51" y="85">Tell me…</tspan>
            </text>
            <text id="Chatbot" font-family="ComicSansMS, Comic Sans MS" font-size="14" font-weight="normal" fill="#979797">
                <tspan x="10" y="26">Chatbot</tspan>
            </text>
        </g>
        <text id="Dropdown" font-family="ComicSansMS, Comic Sans MS" font-size="14" font-weight="normal" fill="#979797">
            <tspan x="197" y="140">Dropdown</tspan>
        </text>
        <text id="Suggestion" font-family="ComicSansMS, Comic Sans MS" font-size="14" font-weight="normal" fill="#979797">
            <tspan x="92" y="254">Suggestion</tspan>
        </text>
    </g>
</svg>