<?xml version="1.0" encoding="iso-8859-1"?>
<!-- Generator: Adobe Illustrator 21.0.0, SVG Export Plug-In . SVG Version: 6.00 Build 0)  -->
<svg version="1.1" id="Capa_1" xmlns="http://www.w3.org/2000/svg" xmlns:xlink="http://www.w3.org/1999/xlink" x="0px" y="0px"
	 viewBox="0 0 587.697 587.697" style="enable-background:new 0 0 587.697 587.697;" xml:space="preserve">
<g>
	<g>
		<g id="flat_30_">
			<path style="fill:#4398D1;" d="M476.237,141.858H70.929c-22.383,0-40.531,18.148-40.531,40.531v314.114h486.37V182.389
				C516.768,160.005,498.62,141.858,476.237,141.858z"/>
			<rect x="70.929" y="182.389" style="fill:#87CED9;" width="405.308" height="334.379"/>
			<path style="fill:#71C4D1;" d="M476.237,182.389H273.836c0,1.692-0.253,3.354-0.253,5.066
				c0.01,86.736,70.331,157.047,157.067,157.047c15.442,0,30.803-2.28,45.587-6.769V182.389z"/>
			<polygon style="fill:#71C4D1;" points="117.995,516.768 476.237,516.768 476.237,182.389 426.566,182.389 			"/>
			<rect x="101.327" y="212.787" style="fill:#5EB3D1;" width="20.265" height="20.265"/>
			<rect x="141.858" y="212.787" style="fill:#5EB3D1;" width="20.265" height="20.265"/>
			<rect x="182.389" y="212.787" style="fill:#5EB3D1;" width="20.265" height="20.265"/>
			<rect x="111.46" y="445.839" style="fill:#5EB3D1;" width="50.663" height="20.265"/>
			<rect x="202.654" y="445.839" style="fill:#5EB3D1;" width="50.663" height="20.265"/>
			<rect x="293.848" y="445.839" style="fill:#5EB3D1;" width="50.663" height="20.265"/>
			<rect x="385.043" y="445.839" style="fill:#5EB3D1;" width="50.663" height="20.265"/>
			<rect x="111.46" y="263.45" style="fill:#5EB3D1;" width="324.246" height="60.796"/>
			<rect x="202.654" y="364.777" style="fill:#5EB3D1;" width="50.663" height="50.663"/>
			<rect x="111.46" y="364.777" style="fill:#5EB3D1;" width="50.663" height="50.663"/>
			<rect x="385.043" y="364.777" style="fill:#5EB3D1;" width="50.663" height="50.663"/>
			<rect x="293.848" y="364.777" style="fill:#5EB3D1;" width="50.663" height="50.663"/>
			<circle style="fill:#E34B87;" cx="445.839" cy="172.256" r="141.858"/>
			<path style="fill:#BF3D75;" d="M445.839,101.327c4.489,0.051,8.967,0.527,13.375,1.419l-14.976,9.423l10.801,17.155
				l34.198-21.532c4.732-2.979,6.151-9.241,3.172-13.973c-0.122-0.193-0.253-0.385-0.385-0.567l-24.906-34.198L450.733,70.98
				l8.106,11.065c-49.61-7.387-95.815,26.842-103.202,76.451c-0.679,4.56-1.013,9.16-0.993,13.76
				c-0.041,18.735,5.725,37.035,16.516,52.356l16.587-11.642c-22.484-32.08-14.713-76.309,17.367-98.794
				C417.052,105.816,431.268,101.327,445.839,101.327z"/>
			<path style="fill:#BF3D75;" d="M520.091,118.725l-16.587,11.642c22.484,32.08,14.713,76.309-17.367,98.794
				c-11.936,8.359-26.152,12.848-40.723,12.848c-4.489-0.051-8.967-0.527-13.365-1.419l14.966-9.434l-10.791-17.145l-34.198,21.532
				c-4.732,2.979-6.161,9.231-3.182,13.973c0.122,0.193,0.253,0.385,0.385,0.567l24.906,34.198l16.385-11.936l-8.106-11.065
				c49.853,7.133,96.058-27.5,103.191-77.353c3.283-22.92-2.28-46.225-15.554-65.204L520.091,118.725z"/>
			<path style="fill:#DADDDF;" d="M516.768,557.298H30.398C13.608,557.298,0,543.69,0,526.9l0,0v-30.398h211.591
				c6.941,0,13.294,3.921,16.395,10.133l0,0c3.101,6.211,9.454,10.133,16.395,10.133h58.405c6.941,0,13.294-3.921,16.395-10.133l0,0
				c3.101-6.211,9.454-10.133,16.395-10.133h211.591V526.9C547.166,543.69,533.558,557.298,516.768,557.298L516.768,557.298z"/>
			<path style="fill:#D0D4D6;" d="M496.502,496.502V526.9c0,16.79-13.608,30.398-30.398,30.398l0,0h50.663
				c16.79,0,30.398-13.608,30.398-30.398l0,0v-30.398H496.502z"/>
		</g>
	</g>
</g>
<g>
</g>
<g>
</g>
<g>
</g>
<g>
</g>
<g>
</g>
<g>
</g>
<g>
</g>
<g>
</g>
<g>
</g>
<g>
</g>
<g>
</g>
<g>
</g>
<g>
</g>
<g>
</g>
<g>
</g>
</svg>
