<?xml version="1.0" encoding="utf-8"?>
<!-- Generator: Adobe Illustrator 22.1.0, SVG Export Plug-In . SVG Version: 6.00 Build 0)  -->
<svg version="1.1" id="_x31_084a417-9858-42b6-ae26-d97e116abc6c"
	 xmlns="http://www.w3.org/2000/svg" xmlns:xlink="http://www.w3.org/1999/xlink" x="0px" y="0px" viewBox="0 0 1244.8 818.7"
	 style="enable-background:new 0 0 1244.8 818.7;" xml:space="preserve">
<style type="text/css">
	.st0{opacity:0.1;fill:#ADB7DE;enable-background:new    ;}
	.st1{fill:none;}
	.st2{opacity:0.1;}
	.st3{fill:#3A3768;}
	.st4{fill:#ADB7DE;}
	.st5{fill:#E6E8EC;}
	.st6{fill:url(#SVGID_1_);}
	.st7{fill:url(#SVGID_2_);}
	.st8{fill:#FEC2BE;}
	.st9{opacity:0.1;enable-background:new    ;}
	.st10{fill:#4C4981;}
	.st11{opacity:5.000000e-02;enable-background:new    ;}
	.st12{fill:#CA8496;}
	.st13{fill:#CEDDF9;}
	.st14{fill:#FFFFFF;}
	.st15{fill:#FF718D;}
</style>
<title>product teardown</title>
<ellipse class="st0" cx="953" cy="709.9" rx="95.2" ry="16.8"/>
<ellipse class="st0" cx="664.8" cy="693.5" rx="141" ry="10.3"/>
<path class="st0" d="M579.8,115.1c25.2-23.1,64.9-27.8,100.9-26c113.3,5.8,215.5,62,304,125.6c32,23.1,63.5,47.8,84.3,79.5
	c42.3,64.5,29.8,154-29.1,207.1c-20,18.1-44.3,32-69.2,44.3c-44.3,21.9-92.1,39.4-142.4,44.4c-35.8,3.6-72.1,0.7-107.8-4.3
	c-99.6-13.9-197.3-44.6-279.2-97.1c-35.9-23.1-69.8-51.7-84.6-88.9c-14.8-37.3-5.3-84.5,31.4-106.6c15.2-9.1,33.3-13.2,51.1-17.1
	c26.1-5.7,52.7-11.3,76.3-22.9c24.4-12,53.2-35.1,48.4-61.6C558.8,163.2,554.6,138.2,579.8,115.1z"/>
<line class="st1" x1="480.8" y1="234.5" x2="474.8" y2="234.5"/>
<g class="st2">
	<path d="M675.1,621c3.1,5.4,7.9,8.8,13.3,8.8c9.3,0,16.8-10.1,16.8-22.6c0-12.5-7.6-22.5-16.8-22.5c-4.4,0-8.3,2.2-11.3,5.9
		c-1.1,1.4-2.1,3-2.9,4.6l-0.2,1c0,0-3.6,3.1-8.5,0.3v-73.1h-69.5c-1.1-1.5-1.5-3.6-0.8-5.4c0.5-1.7,1.6-3.1,3.1-3.9
		c5.2-3.2,8.6-8.1,8.6-13.7c0-9.5-9.8-17.3-22-17.3c-12.1,0-22,7.7-22,17.3c0,4.5,2.2,8.6,5.8,11.7c1.4,1.2,2.9,2.1,4.5,2.9l0.1,0.2
		c2.2,2.1,2.7,5.5,1.3,8.2h-31.3v135.4c0,17.7,14,32.1,31.2,32.1l0,0h90.9v-71.9c1.5-1.5,3.7-2,5.7-1.2
		C673,618.4,674.3,619.5,675.1,621z"/>
	<path d="M558.2,520.6h10.9c-5.4-4.2-8.5-10.8-8.6-17.7c0-12.8,10.9-23.2,24.3-23.2c13.4,0,24.3,10.4,24.3,23.2
		c-0.1,6.9-3.2,13.5-8.6,17.7h65.2v-72.2c1.5-1.5,3.7-1.9,5.7-1.2c1.6,0.5,3,1.7,3.8,3.2c3.1,5.4,7.9,8.8,13.3,8.8
		c9.3,0,16.8-10.1,16.8-22.6c0-12.5-7.5-22.6-16.8-22.6c-4.4,0-8.4,2.2-11.3,5.9c-1.1,1.4-2.1,3-2.9,4.6l-0.2,0.1
		c-2.2,2.4-5.7,2.9-8.5,1.2v-73.1h-66.9c-1.1-1.5-1.5-3.6-0.8-5.4c0.5-1.7,1.6-3.1,3.1-3.9c5.2-3.2,8.6-8.1,8.6-13.7
		c0-9.5-9.8-17.3-22-17.3c-12.1,0-22,7.7-22,17.3c0,4.5,2.2,8.6,5.8,11.7c1.4,1.2,2.9,2.1,4.5,2.9l0.1,0.2c2.2,2.1,2.7,5.5,1.3,8.2
		h-19.4V349h14.3c-5.3-4.2-8.5-10.7-8.6-17.7c0-12.8,10.9-23.2,24.3-23.2s24.3,10.4,24.3,23.2c-0.1,6.9-3.2,13.5-8.6,17.7h61.8v-73
		c1.5-1.5,3.7-1.9,5.7-1.2c1.6,0.5,3,1.7,3.8,3.2c3.1,5.4,7.9,8.8,13.3,8.8c9.3,0,16.8-10.1,16.8-22.6c0-12.5-7.5-22.6-16.8-22.6
		c-4.4,0-8.4,2.2-11.3,5.9c-1.1,1.4-2.1,3-2.9,4.6l-0.2,1c0,0-3.6,3.1-8.5,0.3v-68.1h-90.9c-17.3,0-31.2,14.4-31.2,32.1v34.8h-0.5
		c-1,0-1.8,0.8-1.8,1.9l0,0v16.5c0,1,0.8,1.9,1.8,1.9h0.5v16.8H543c-1,0-1.8,0.8-1.8,1.9v31.4c0,1,0.8,1.9,1.8,1.9h0.6v12.4h-0.5
		c-1,0-1.8,0.8-1.8,1.9c0,0,0,0,0,0v10.1h-0.4v21.3c0,1,0.8,1.9,1.8,1.9c0,0,0,0,0,0h0.5v148.5H558.2z"/>
	<path d="M795.9,301.9c0-1-0.8-1.9-1.8-1.9H793V298h-0.6v-82.1c0-17-13.4-30.9-30-30.9c0,0,0,0,0,0h-90.1v62.6
		c4.2-5.7,10.7-9.1,17.6-9.1c12.6,0,22.8,11.2,22.8,25c0,13.8-10.2,25-22.8,25c-6.9,0-13.4-3.4-17.6-9.1v69.4h72.9
		c-5.4-4.2-8.5-10.8-8.6-17.7c0-12.9,10.9-23.3,24.3-23.3c6,0,11.7,2.1,16.3,6c9.2,7.6,10.7,21.4,3.4,30.9c-1,1.3-2.1,2.4-3.4,3.5
		v0.6H793v-0.1h2.9L795.9,301.9z"/>
	<path d="M771.7,516.9v-8.2l0,0c0.3-0.5,0.6-1,0.9-1.5c1.1-2,1.6-4.3,1.6-6.5c0-1.5-0.3-3-0.8-4.5c-0.4-1.3-1-2.5-1.8-3.6l0,0
		c-3.7-5.5-11-9.2-19.4-9.2c-12.1,0-22,7.7-22,17.3c0,4.5,2.2,8.6,5.8,11.7c1.4,1.2,2.9,2.1,4.5,2.9l0.1,0.2
		c2.2,2.1,2.7,5.5,1.3,8.2h-70.7v67.5c4.1-5.7,10.6-9,17.4-9.1c12.5,0,22.6,11.2,22.6,25s-10.1,25-22.6,25c-6.9,0-13.3-3.4-17.4-9.1
		v54.5h81.1c10.6,0,19.2-8.8,19.3-19.8V523.6l0,0v134.1c0,10.9-8.6,19.8-19.3,19.8h-81.1v13.2h84.1c17.3,0,31.2-14.4,31.2-32.1l0,0
		V523.6l0,0V520h-15V516.9z"/>
</g>
<path class="st3" d="M578.6,674.4c-10.6,0-19.3-8.9-19.3-19.8V520.1h-15v135.4c0,17.7,14,32.1,31.2,32.1l0,0h90.9v-13.2L578.6,674.4
	z"/>
<path class="st4" d="M672.1,614.5c1.6,0.5,3,1.7,3.8,3.2c3.1,5.4,7.9,8.8,13.3,8.8c9.3,0,16.8-10.1,16.8-22.6s-7.5-22.5-16.8-22.5
	c-4.4,0-8.3,2.2-11.3,5.9c-1.1,1.4-2.1,3-2.9,4.6l-0.2,1c0,0-3.6,3.1-8.5,0.3v-73.1H597c-1.1-1.5-1.5-3.6-0.8-5.4
	c0.5-1.7,1.6-3.1,3.1-3.9c5.2-3.2,8.6-8.1,8.6-13.7c0-9.5-9.8-17.3-22-17.3s-22,7.7-22,17.3c0,4.5,2.2,8.6,5.8,11.7
	c1.4,1.2,2.9,2.1,4.5,2.9l0.1,0.2c2.2,2.1,2.7,5.5,1.3,8.2h-16.3v134.5c0,10.9,8.6,19.8,19.3,19.8h87.9v-58.7
	C668,614.3,670.1,613.8,672.1,614.5z"/>
<rect x="541.7" y="345.5" class="st3" width="2.4" height="4"/>
<rect x="546" y="345.5" class="st3" width="13" height="4"/>
<rect x="544.1" y="345.5" class="st3" width="2" height="4"/>
<path class="st4" d="M671.4,521.6"/>
<path class="st3" d="M543.5,368.7h0.5v-19.3h-2.4v17.4C541.7,367.8,542.5,368.7,543.5,368.7C543.5,368.7,543.5,368.7,543.5,368.7z"
	/>
<path class="st3" d="M559,349.4h-13v17.4c0,1-0.8,1.9-1.8,1.9c0,0,0,0,0,0h-0.1v148.6h15V349.4z"/>
<path class="st3" d="M544.1,368.7h0.1c1,0,1.8-0.8,1.8-1.9c0,0,0,0,0,0v-17.4h-2V368.7z"/>
<path class="st4" d="M561.3,499.5c0-12.8,10.9-23.2,24.3-23.2c13.4,0,24.3,10.4,24.3,23.2c0,7-3.2,13.5-8.6,17.7h65.2v-72.2
	c1.5-1.5,3.7-1.9,5.7-1.2c1.6,0.5,3,1.7,3.8,3.2c3.1,5.4,7.9,8.8,13.3,8.8c9.3,0,16.8-10.1,16.8-22.6s-7.5-22.6-16.8-22.6
	c-4.4,0-8.4,2.2-11.3,5.9c-1.1,1.4-2.1,3-2.9,4.6l-0.2,0.1c-2.2,2.4-5.7,2.9-8.5,1.2v-73.1h-66.9c-1.1-1.5-1.5-3.6-0.8-5.4
	c0.5-1.7,1.6-3.1,3.1-3.9c5.2-3.2,8.6-8.1,8.6-13.7c0-9.5-9.8-17.3-22-17.3c-12.1,0-22,7.7-22,17.3c0,4.5,2.2,8.6,5.8,11.7
	c1.4,1.2,2.9,2.1,4.5,2.9l0.1,0.2c2.2,2.1,2.7,5.5,1.3,8.2H559v167.8h10.9C564.6,513,561.4,506.5,561.3,499.5z"/>
<path class="st3" d="M546.4,335.1c0-1-0.8-1.9-1.8-1.9c0,0,0,0,0,0h-0.1v12.3h2L546.4,335.1z"/>
<path class="st3" d="M544.4,248.9H544c-1,0-1.8,0.8-1.8,1.9l0,0v16.5c0,1,0.8,1.9,1.8,1.9h0.5L544.4,248.9L544.4,248.9z"/>
<path class="st3" d="M543.8,285.9c-1,0-1.8,0.8-1.8,1.9v31.4c0,1,0.8,1.9,1.8,1.9h0.6v-35.2H543.8z"/>
<path class="st3" d="M544.5,333.5h-0.5c-1,0-1.8,0.8-1.8,1.9c0,0,0,0,0,0v10.4h2.4L544.5,333.5z"/>
<path class="st3" d="M544.5,214.1v34.8c1,0,1.8,0.9,1.8,1.9v16.5c0,1-0.8,1.8-1.8,1.9v16.8h0.3c1,0,1.8,0.8,1.8,1.9c0,0,0,0,0,0
	v31.4c0,1-0.8,1.9-1.8,1.9c0,0,0,0,0,0h-0.3v12.4h0.1c1,0,1.8,0.8,1.8,1.9v10.4h13V215.1c0-10.9,8.6-19.8,19.3-19.8h26.1v3.4
	c0,9,7.1,16.3,15.9,16.3h45.9v-10.8h-21.2c-1.7,0-3.1-1.4-3.1-3.2v-0.7c0-1.8,1.4-3.2,3.1-3.2h21.1V182h-90.9
	C558.4,182,544.5,196.4,544.5,214.1z"/>
<path class="st3" d="M546.2,267.2v-16.5c0-1-0.8-1.8-1.8-1.9v20.2C545.4,269.1,546.2,268.2,546.2,267.2z"/>
<path class="st3" d="M546.6,319.2v-31.4c0-1-0.8-1.9-1.8-1.9c0,0,0,0,0,0h-0.3v35.2h0.3C545.8,321.1,546.6,320.3,546.6,319.2
	C546.6,319.3,546.6,319.3,546.6,319.2z"/>
<path class="st4" d="M564.8,328c0-12.8,10.9-23.2,24.3-23.2c13.4,0,24.3,10.4,24.3,23.2c-0.1,6.9-3.2,13.5-8.6,17.7h61.8v-73
	c1.5-1.5,3.7-1.9,5.7-1.2c1.6,0.5,3,1.7,3.8,3.2c3.1,5.4,7.9,8.8,13.3,8.8c9.3,0,16.8-10.1,16.8-22.6s-7.5-22.6-16.8-22.6
	c-4.4,0-8.4,2.2-11.3,5.9c-1.1,1.4-2.1,3-2.9,4.6l-0.2,1c0,0-3.6,3.1-8.5,0.3V215h-45.9c-8.7,0-15.8-7.3-15.8-16.3v-3.4h-26.1
	c-10.6,0-19.3,8.9-19.3,19.8c0,0,0,0,0,0v130.7h13.9C568,341.5,564.8,335,564.8,328z"/>
<path class="st5" d="M645.5,197.2c-1.7,0-3.1,1.4-3.1,3.2v0.7c0,1.8,1.4,3.2,3.1,3.2h21.1v-7.1L645.5,197.2z"/>
<path class="st3" d="M788.4,296.6v48.9h5.4v-50.8h-2.9C789.5,294.7,788.4,295.6,788.4,296.6z"/>
<rect x="673" y="181.7" class="st3" width="6.4" height="14.8"/>
<rect x="673" y="203.9" class="st3" width="6.4" height="10.7"/>
<rect x="673" y="196.5" class="st5" width="6.4" height="7.4"/>
<path class="st3" d="M794.9,296.7h-1.5v48.7h3.3v-46.8C796.7,297.6,795.9,296.7,794.9,296.7z"/>
<path class="st3" d="M679.4,196.5c1.7,0.4,3.2,3.6,3.2,3.6v0.7c0,0-1.5,3.2-3.2,3.1l0,0v10.7h36.2c8.8,0,15.9-7.3,15.9-16.3v-3.4
	h27.2c10.6,0,19.2,8.9,19.2,19.8v95.9c9.2,7.6,10.7,21.4,3.4,30.9c-1,1.3-2.1,2.4-3.4,3.5v0.6h11.2v-48.3c0-0.1,0.1-0.2,0.2-0.2
	c0,0,0,0,0,0h3.8v-84.4c0-17-13.4-30.9-30-30.9c0,0,0,0,0,0h-84.5v14.8H679.4z M691.6,196.4c2.2,0,3.9,1.8,3.9,4c0,2.2-1.7,4-3.9,4
	c-2.2,0-3.9-1.8-3.9-4c0,0,0,0,0,0C687.7,198.2,689.4,196.4,691.6,196.4z"/>
<path class="st4" d="M690.6,235.1c12.6,0,22.8,11.2,22.8,25c0,13.8-10.2,25-22.8,25c-6.9,0-13.4-3.4-17.6-9.1v69.4h72.9
	c-5.4-4.2-8.5-10.8-8.6-17.7c0-12.9,10.9-23.3,24.3-23.3c6,0,11.8,2.1,16.4,6.1v-95.9c0-10.9-8.6-19.8-19.2-19.8h-27.2v3.4
	c0,9-7.1,16.3-15.9,16.3H673v29.6C677.2,238.6,683.7,235.2,690.6,235.1z"/>
<path class="st5" d="M679.4,203.9c1.7,0,3.1-1.4,3.2-3.1v-0.7c-0.2-1.8-1.5-3.2-3.2-3.6h-0.8v7.4H679.4z"/>
<ellipse class="st5" cx="691.6" cy="200.4" rx="3.9" ry="4"/>
<path class="st3" d="M772.5,513.6v-8.2c3.4-4.8,3.4-11.4,0-16.2V513.6z"/>
<rect x="772.5" y="516.7" class="st3" width="15" height="3.5"/>
<path class="st4" d="M766.5,511c-1.5,0.8-2.6,2.3-3.1,3.9c-0.6,1.8-0.3,3.9,0.8,5.4h8.3v-3.5h-3.2c1.2-1,2.2-2,3.2-3.2v-8.2
	C770.9,507.6,768.8,509.6,766.5,511z"/>
<path class="st4" d="M769.3,516.7h3.2v-3.2C771.5,514.7,770.4,515.8,769.3,516.7z"/>
<path class="st3" d="M775.1,497.3c0-2.9-0.9-5.7-2.6-8.1v16.2C774.1,503,775,500.2,775.1,497.3z"/>
<path class="st3" d="M787.5,520.3v135c0,17.7-14,32.1-31.2,32.1l0,0h-84.1v-13.2h81.1c10.6,0,19.3-8.9,19.3-19.8V520.3H787.5z"/>
<path class="st4" d="M763.3,514.9c0.5-1.7,1.6-3.1,3.1-3.9c2.4-1.4,4.5-3.3,6-5.6v-16.2c-3.7-5.5-11-9.2-19.4-9.2
	c-12.1,0-22,7.7-22,17.3c0,4.5,2.2,8.6,5.8,11.7c1.4,1.2,2.9,2.1,4.5,2.9l0.1,0.2c2.2,2.1,2.7,5.5,1.3,8.2h-70.7v67.5
	c4.1-5.7,10.6-9,17.4-9.1c12.5,0,22.6,11.2,22.6,25s-10.1,25-22.6,25c-6.9,0-13.3-3.4-17.4-9.1v54.5h81.1c10.6,0,19.2-8.8,19.3-19.8
	V520.3h-8.3C763,518.7,762.7,516.7,763.3,514.9z"/>
<linearGradient id="SVGID_1_" gradientUnits="userSpaceOnUse" x1="1055.9385" y1="466.9291" x2="1055.9385" y2="493.2382" gradientTransform="matrix(1 0 0 -1 -135.16 777.34)">
	<stop  offset="0" style="stop-color:#808080;stop-opacity:0.25"/>
	<stop  offset="0.54" style="stop-color:#808080;stop-opacity:0.12"/>
	<stop  offset="1" style="stop-color:#808080;stop-opacity:0.1"/>
</linearGradient>
<path class="st6" d="M915.7,310.4c4.5-2.1,7.8-5.6,8.9-10c0.1-0.5,0.2-1.1,0.3-1.6c0.2-0.5,0.4-1,0.5-1.6c1.1-4.5-0.1-9.1-3.1-13.1
	l-5.9,23.1l0,0L915.7,310.4z"/>
<linearGradient id="SVGID_2_" gradientUnits="userSpaceOnUse" x1="1048.3639" y1="57.1457" x2="1048.3639" y2="580.4214" gradientTransform="matrix(1 0 0 -1 -135.16 777.34)">
	<stop  offset="0" style="stop-color:#808080;stop-opacity:0.25"/>
	<stop  offset="0.54" style="stop-color:#808080;stop-opacity:0.12"/>
	<stop  offset="1" style="stop-color:#808080;stop-opacity:0.1"/>
</linearGradient>
<path class="st7" d="M1050.9,301.8c-0.9-5.5-17.8-17.4-17.8-17.4s-7.5-4.1-11.4-8.9c-2.5-3-3.3-3-3.6-2.6c-0.2-0.1-0.4-0.2-0.5-0.2
	c-0.2-0.1-0.3-0.2-0.5-0.3l0,0c0-0.5-0.2-0.9-0.6-1.1c-0.2-0.1-0.4-0.3-0.6-0.4c-1.3-2.2-1.7-5.4-1.9-8.1c-0.2-3.5-4-2.6-5.3-2.2
	c-0.9-1.7-1.8-3.5-2.6-5.3c0.4-0.6,0.7-1.2,0.9-1.9c2.4-5.3,1.8-11.3,2.9-16.9c0.7-4,2.3-8.2,2-12.2c0-0.1,0-0.2,0-0.3
	c0,0,0,0,0,0.1c-0.1-1-0.3-1.9-0.6-2.9c-0.7-1.8-1.9-3.3-2.4-5.1c-0.9-2.7-0.3-5.6-1-8.3c-0.9-3.4-3.7-6-6.9-7.6
	c-3.2-1.5-6.7-2-10.2-2.5c-8.7-1.1-17.9-1.8-25.9,2c-0.7,0.4-1.6,0.7-2.4,0.7c-0.8-0.2-1.5-0.6-2.2-1c-2.1-1.1-4.8-0.4-6.7,1.1
	c-1.9,1.4-3.2,3.5-4.5,5.6c-1.3,2-2.6,4.1-4.6,5.4c-2.3,1.6-5.4,2.1-7.2,4.3c-0.8,1-1.3,2.2-1.5,3.6c0,0,0,0,0-0.1
	c0,0.2,0,0.3,0,0.5c0,0.1,0,0.3,0,0.4c0,0.1,0,0.2,0,0.3c0,0.4,0,0.7,0,1c0.3,2,0.8,4,1.5,5.8c0.4,1.4,1.1,2.7,2.1,3.7
	c2.8,2.3,7.2,0.1,10.6,1.4c0.3,0.1,0.6,0.2,0.9,0.4c0,0.1-0.1,0.3-0.1,0.4c-0.7,2.5-1.1,5.1-1.1,7.7c0,15.5,12.5,28,27.9,28
	c0.6,0,1.1,0,1.7-0.1c0.1,0.3,0.2,0.6,0.2,0.9c0.9,3.4,1.1,7,0.8,10.5l-0.2-1.5c-0.4-0.2-0.8-0.3-1.2-0.5c-1.1-0.4-2.3-0.6-3.5-0.5
	c-3.8,0-9.5,1.5-15.6,9.1c0,0-7.8,4.4-10.1,5.5c-0.2,0.1-0.3,0.3-0.4,0.5l0,0c0,0-10.4,16.1-11.5,22.3c-1.1,6.1-2.4,13.2-2.4,13.2
	s-2.6,8-4.3,11.5c-1.7,3.5-3.2,6.9-3.3,8.4s0.6,4.9-2.6,7c-3.2,2.1-4,8-4,8s-1.6,1.5-3.9,3.5h-0.1l8.4-33l1.5,0.4
	c0.7,0.2,1.5-0.1,2-0.7c0.2-0.2,0.3-0.4,0.3-0.7l1.7-6.7l0.7-2.7l0.1-0.5l1-3.9l-3.3-0.8l-3.9-1l-11-2.9l1-3.8l0,0l0.8-3.2l0,0
	l5-19.9l0,0l0.8-3.2c-3.2-4.3-8.3-7.7-14.6-9.3c-12.1-3.1-23.8,1.9-26.2,11.2c-0.1,0.5-0.2,1.1-0.3,1.6c-0.2,0.5-0.4,1-0.5,1.6
	c-0.4,1.6-0.5,3.3-0.3,4.9c0,0.3,0.1,0.5,0.1,0.8c0.5,2.6,1.5,5,3.1,7.1c1.1,1.5,2.3,2.8,3.7,4l0.1,0.2c0.6,1,1,2.1,1,3.3
	c0,0.2,0,0.3,0,0.5c-0.3,0.5-0.6,1-1,1.4l-73.9-18.9l-0.8,3.2l0,0l-16.6,65.8l0,0c2.2-1.7,4.6-3,7.2-3.9c1-0.3,2.1-0.6,3.1-0.8
	l0.4-0.1c3-0.5,6-0.4,9,0.4c9.3,2.4,15.8,10.6,17,20.2c0.2,1.2,0.2,2.4,0.2,3.7c0,1.6-0.2,3.1-0.5,4.7c-4,12.5-16.3,20.1-28.3,17
	c-6.8-1.8-12.4-6.7-15.1-13.3l-0.8,3.2l0,0l-17.2,67.5l65.4,16.7l0,0l0.7-3.2h0.1c-3.9-5-5.6-11.5-4.5-17.8c0-0.1,0.1-0.2,0.1-0.3
	c0.1-0.2,0.2-0.5,0.3-0.7c0.4-1.1,1-2.2,1.6-3.3c0.3-0.5,0.7-1.1,1-1.6c0.2-0.3,0.5-0.6,0.7-0.9c1.2-1.4,2.5-2.7,3.9-3.8l0.5-0.3
	c0.5-0.4,1.1-0.8,1.6-1.1c0.3-0.2,0.7-0.4,1-0.6c3.9-2.1,8.2-3.2,12.6-3.1c2.1,0,4.2,0.3,6.2,0.8c6.3,1.6,11.8,5.5,15.4,11
	c0.5,0.7,0.9,1.5,1.3,2.3c1.2,2.4,1.9,4.9,2.3,7.5c0.3,2.1,0.2,4.2-0.2,6.3c-1.6,4.6-4.5,8.6-8.5,11.3l-0.8,3.1h0.1l-0.1,0.1
	l-0.8,3.1l14.9,3.8l21.2-83.2c5.7-0.7,8.6-3.3,8.6-3.7s6.9-4.3,10.7-5.4c1.9-0.5,4.1-0.9,5.8-1.3c-2.1,10.5-4,20.6-3.8,21.2
	c0.1,0.2,0.4-0.1,1-0.9c-0.1,0.3-0.1,0.6-0.1,0.9c0,0.2,0.2,0,0.5-0.3l0,0.2c0,0-11.9,23.6-12.8,26.4c-0.9,2.7,0.2,9.6,3.9,11.9
	c0.7,0.5,1.3,1,1.9,1.7l-0.4,0.9c-1.4,2.8-2.6,6-2.4,8c0.3,2.5-0.3,5-1.6,7.1c0,0-10.3,32.7-10.1,42.1c0.2,9.4-3.7,30.1-3.7,30.1
	s-4.2,13.3-1.7,17.1c2.5,3.8,5.4,20.3,5.4,20.3s1.9,3.8,1.8,7c-0.1,3.2,1.8,9.1,1.8,9.1l6.4,23.7c0,0-0.7,6.3,1.7,10.8
	c2.4,4.5,2.2,3.1,1,10.9c-1.1,7.8,1.4,15,5.5,17.3c1.6,0.9,1.7,2.2,1.2,3.6l0,0c-1-0.4-1.9,1.8-2.4,3.6l-0.5,0.5l0.4,0.1
	c-0.2,0.8-0.4,1.5-0.4,1.5s-10.7,9.2-11.4,12.5c-0.7,3.3-8.2,5-8.2,5s-11.4,3.2-14.4,4.8c-1.7,0.8-2.9,2.5-3.2,4.5
	c-0.1,1.5,0,3,0.4,4.5c1.1,4.7,17.1,5.2,24.8,3.9c7.7-1.3,23.5-5.9,23.5-5.9s16.7-1.6,21.6-3.7s1-7.3,1-7.3s0-0.2,0-0.5
	c0.1-1.9,0.5-8.9-0.7-10.7c-0.9-1.4-0.9-4.9-0.7-7.2c3.3-6.2-3.8-24.7-3.8-24.7s1.4-18.1,0.5-20.8c-0.9-2.7-4.8-25.1-4.8-25.1
	s-2.4-10.2-1.5-11.9c0.9-1.7-0.6-6.7-0.6-6.7s-3.9-5.5-3.6-7.2c0.4-1.7-1.1-4.8-1.1-4.8s11.7-17.9,10.6-21.2c-1-3.3,0.5-8.7,0.5-8.7
	s1.5-2.5,3.2-5.6c2.2-3.7,4.8-8.2,5.7-9.6c1.1-1.8,3.8-9.3,5.3-13.6c0.6-1.8,1.1-3.1,1.1-3.1s1.8,33.8,3.4,37.2
	c1.6,3.4,4,30.6,4,30.6c0.9,2.4,1.3,5,1.1,7.6c-0.2,4.2,3.7,22.7,3.7,22.7s1.7,13.1,0.6,16.5c-1.1,3.4-0.2,28.8-0.2,28.8
	s-6.3,4.9-7.9,8.7c-1.6,3.8,0.2,14.1,0.2,14.1l0.7,0.4c-0.6,1.4-1,2.9-1.3,4.5c-0.2,2.2-3.7,12.1-3.3,13.4c0.3,1.4-1.5,5.6-1.7,7.8
	c-0.2,2.2-3.1,5.4-3.3,6.5c-0.4,1-0.8,2-1.3,3c-0.6,1.5-1.1,3.1-1.5,4.7c-1.1,4.8,12.5,5.6,12.5,5.6c20.1,3.8,23.8-11.7,23.8-11.7
	s2.5-13.8,3.4-14.8c0.2-0.4,0.3-0.9,0.2-1.3l0,0c-0.5-2.3-1.5-4.5-2.9-6.5c-0.6-0.8-0.7-2.7-0.6-4.5c0.6-0.1,1.2-0.2,1.7-0.3
	c8.1-2.4,4.8-16.3,4.8-16.3s5.5-9.2,5.5-12.7c0-3.6,1.9-14.5,1.9-14.5c7-12.9,4.2-44.1,5.4-46.6c1.1-2.5-2.4-11.9-5.3-16.2
	c-2.9-4.2-1.7-15.7,0-19c1.7-3.3-1.7-14.8-1.7-14.8s3.3-22.2,3.2-25.7c-0.1-3.5,2.9-13.7,2.9-13.7s3-5.3,2.3-6.9
	c-0.7-1.6,2.3-5.8,1.5-7.6c-0.8-1.8,0.7-7.5,2.2-10.8c0.8-1.7,1.7-6.4,2.4-10.6c0.1-0.5,0.2-0.9,0.2-1.4c3.3,2.2,6.4,3.8,7.5,3.3
	c2-0.8-1.2-11.5-3.4-18.2c0.4-0.3,0.5-0.5,0.4-0.6c-1.4-0.9,0.2-5.1,0.2-5.1c8.1-4.9,5.3-8.6,2.7-10.7c-2.6-2.1-0.9-8.2-1.7-10.7
	c-0.8-2.5,0.9-13.6,2.3-21.7c0.3-1.8,0.3-3.6,0-5.3c1.5-2.3,3-4.7,4.3-6.9c4.6-7.6,14.3-44.1,14.3-44.1l-0.1-0.2
	c1-1.9,1.7-3.5,2.1-4.6C1057.3,331.2,1051.8,307.3,1050.9,301.8z M979.8,280.8l0.2-0.1c0,0.1,0,0.1,0,0.2L979.8,280.8z M834.2,472.7
	L834.2,472.7L834.2,472.7z M935.5,671.4c-0.5,0-1-0.1-1.4-0.3L935.5,671.4z"/>
<path class="st8" d="M850.8,406c6.6,2.6,21.9,2.8,28.7,2.8c2.1,0,3.3,0,3.3,0l4.4-9.1l-4.4-7.6c0,0-4-1.1-9.3-2.1
	c-7.8-1.4-18.6-2.6-23.7,0.7C841.3,396.1,842.2,402.7,850.8,406z"/>
<path class="st9" d="M879.5,408.9c2.1,0,3.3,0,3.3,0l4.4-9.1l-4.4-7.6c0,0-4-1.1-9.3-2.1C877.9,393.2,888.3,400.3,879.5,408.9z"/>
<path class="st10" d="M951.8,296.7l-1.9-2.3c0,0-9.9,16.1-11,22.2c-1,6.1-2.4,13.1-2.4,13.1s-2.5,7.9-4.1,11.4
	c-1.6,3.5-3.1,6.9-3.3,8.4c-0.1,1.5,0.6,4.9-2.5,7c-3.1,2.1-3.8,7.9-3.8,7.9s-11.3,11.3-17.2,11.5c-5.9,0.3-23,3.4-22.4,6.4
	c0.6,3-7.1,4.9-10.2,5.6c-3.1,0.8,20,9.9,6.5,21.6c0,0,8.6,1.8,9.5,4s9.9-1.2,9.9-1.2s1.9-4.7,8.6-5c6.7-0.3,10.1-3.4,10.1-3.8
	s6.7-4.3,10.4-5.3c3.7-1.1,8.6-1.5,8.7-2.6c0.2-1.1,22.2-99,22.2-99L951.8,296.7z"/>
<path class="st11" d="M951.8,296.7l-1.9-2.3c0,0-9.9,16.1-11,22.2c-1,6.1-2.4,13.1-2.4,13.1s-2.5,7.9-4.1,11.4
	c-1.6,3.5-3.1,6.9-3.3,8.4c-0.1,1.5,0.6,4.9-2.5,7c-3.1,2.1-3.8,7.9-3.8,7.9s-11.3,11.3-17.2,11.5c-5.9,0.3-23,3.4-22.4,6.4
	c0.6,3-7.1,4.9-10.2,5.6c-3.1,0.8,20,9.9,6.5,21.6c0,0,8.6,1.8,9.5,4s9.9-1.2,9.9-1.2s1.9-4.7,8.6-5c6.7-0.3,10.1-3.4,10.1-3.8
	s6.7-4.3,10.4-5.3c3.7-1.1,8.6-1.5,8.7-2.6c0.2-1.1,22.2-99,22.2-99L951.8,296.7z"/>
<path class="st12" d="M974.9,719.2c19.6,3.8,23.1-11.7,23.1-11.7s2.4-13.7,3.3-14.7c0.2-0.4,0.3-0.9,0.2-1.3l0,0
	c-0.5-2.3-1.5-4.5-2.8-6.5c-1.2-1.5-0.2-7.6-0.2-7.6l-22.7-5.9c0,0-2,4.7-2.2,6.9s-3.6,12-3.2,13.4c0.4,1.4-1.4,5.6-1.7,7.8
	c-0.2,2.2-3,5.4-3.2,6.5c-0.3,1-0.8,2-1.2,3c-0.6,1.5-1.1,3.1-1.4,4.6C961.7,718.4,974.9,719.2,974.9,719.2z"/>
<path class="st9" d="M974.9,719.2c19.6,3.8,23.1-11.7,23.1-11.7s2.4-13.7,3.3-14.7c0.2-0.4,0.3-0.9,0.2-1.3l-4.7,13.9
	c0,0-3.9,8.3-18.3,7.1c-8.2-0.7-12.3-2.3-14.2-3.5c-0.6,1.5-1.1,3.1-1.4,4.6C961.7,718.4,974.9,719.2,974.9,719.2z"/>
<path class="st9" d="M990.1,697.5c0,0-4.9,0.1-5.2-4L990.1,697.5z"/>
<polygon class="st4" points="838.1,473.4 841.2,474.2 840.5,477.4 837.7,476.7 "/>
<polygon class="st9" points="838.1,473.4 841.2,474.2 840.5,477.4 837.7,476.7 "/>
<polygon class="st3" points="929.2,326.6 930.1,322.7 933.4,323.6 932.4,327.4 "/>
<polygon class="st3" points="914.6,322.8 915.6,318.9 926.3,321.7 925.4,325.6 "/>
<polygon class="st3" points="925.4,325.6 926.3,321.7 930.1,322.7 929.2,326.6 "/>
<path class="st4" d="M915.8,318.4c-0.3,0.1-0.5,0.3-0.8,0.4l0.6,0.2l-1,3.9l-4.7-1.2c-0.7-1.8-0.5-3.8,0.5-5.4c0.9-1.5,2.3-2.6,4-3
	c1-0.3,2-0.7,3-1.1L915.8,318.4z"/>
<path class="st3" d="M927.1,335.1l1.4,0.4c1,0.3,2-0.3,2.2-1.4c0,0,0,0,0,0l1.6-6.7l-3.2-0.8L927.1,335.1z"/>
<path class="st3" d="M926,302c-1.1,4.4-4.3,7.9-8.7,10l5.7-23C925.9,293,927.1,297.6,926,302z"/>
<path class="st3" d="M925.1,334.6c-1-0.3-1.6-1.3-1.3-2.3l1.6-6.7l-10.7-2.8L881.9,455c4.9,9.9,1.9,21.9-7,28.2l-0.8,3.1l14.5,3.8
	l38.4-155L925.1,334.6z"/>
<path class="st3" d="M923.7,332.3c-0.2,1,0.3,2,1.3,2.3l2,0.5l2.1-8.5l-3.8-1L923.7,332.3z"/>
<path class="st4" d="M910.4,316.1c0.9-1.5,2.3-2.6,4-3c1-0.3,2-0.7,3-1.1l5.7-23c-3.6-4.7-8.6-7.9-14.2-9.3
	c-11.7-3.1-23.1,1.9-25.4,11.2c-1.1,4.4,0.1,8.9,2.8,12.8c1,1.5,2.3,2.8,3.6,4l0.1,0.2c1.6,2.6,1.3,6-0.7,8.3l-71.8-18.8l-16.2,65.4
	c5.3-4.4,12.4-6.1,19-4.4c12.1,3.2,19.2,16.6,15.9,30c-3.3,13.4-15.8,21.7-27.9,18.5c-6.6-1.8-12.1-6.7-14.7-13.2l-16.6,67.2
	l63.6,16.6c-4.2-5.5-5.7-12.6-4.1-19.3c3.1-12.4,16.1-19.8,29.2-16.4c7,1.8,13,6.6,16.3,13.2l32.7-132.2l-4.7-1.2
	C909.2,319.8,909.4,317.8,910.4,316.1z"/>
<path class="st4" d="M915.6,318.9l0.1-0.5c-0.2,0.1-0.5,0.3-0.8,0.4L915.6,318.9z"/>
<g class="st2">
	<path d="M930.1,322.7l-3.8-1l-10.7-2.8l0,0l0.1-0.5l0,0l1.6-6.4c-1,0.5-2,0.8-3,1.1c-1.7,0.4-3.1,1.5-4,3c-0.2,0.4-0.4,0.8-0.6,1.3
		c0.2-0.5,0.4-0.9,0.6-1.3c0.9-1.5,2.3-2.6,4-3c1-0.3,2-0.7,3-1.1l5.7-23c-3.6-4.7-8.6-7.9-14.2-9.3c-11.7-3.1-23.1,1.9-25.4,11.2
		c-1.1,4.4,0.1,8.9,2.8,12.8c1,1.5,2.3,2.8,3.6,4l0.1,0.2c1.6,2.6,1.3,6-0.7,8.3l-71.8-18.8l-16.2,65.4c5.3-4.4,12.4-6.1,19-4.4
		c12.1,3.2,19.2,16.6,15.9,30c-3.3,13.4-15.8,21.7-27.9,18.5c-6.6-1.8-12.1-6.7-14.7-13.2l-16.6,67.2l63.6,16.6
		c-4.2-5.5-5.7-12.6-4.1-19.3c3.1-12.4,16.1-19.8,29.2-16.4c7,1.8,13,6.6,16.3,13.2c4.9,9.9,1.9,21.9-7,28.2l-0.8,3.1l14.5,3.8
		l38.4-155l1.4,0.4c1,0.3,2-0.3,2.2-1.4c0,0,0,0,0,0l1.6-6.7l1-3.9L930.1,322.7z M915.4,318.6c-0.1,0.1-0.2,0.1-0.4,0.2l0,0
		L915.4,318.6z M909.9,321.6L909.9,321.6l4.7,1.2l0,0L909.9,321.6z"/>
	<path d="M926,302c1.1-4.4-0.1-9.1-3-13l-5.7,23C921.7,309.9,924.9,306.5,926,302z"/>
</g>
<polygon class="st3" points="929.9,323.4 930.9,319.5 934.1,320.4 933.2,324.2 "/>
<polygon class="st3" points="915.4,319.6 916.4,315.7 927.1,318.5 926.1,322.4 "/>
<polygon class="st3" points="926.1,322.4 927.1,318.5 930.9,319.5 929.9,323.4 "/>
<path class="st4" d="M916.5,315.2l-0.8,0.4l0.6,0.2l-1,3.9l-4.7-1.2c-0.7-1.8-0.6-3.8,0.5-5.4c0.9-1.5,2.3-2.6,4-3
	c1-0.3,2-0.7,3-1.1L916.5,315.2z"/>
<path class="st3" d="M927.9,331.9l1.5,0.4c1,0.3,2-0.3,2.2-1.3c0,0,0,0,0,0l1.6-6.7l-3.2-0.8L927.9,331.9z"/>
<path class="st3" d="M926.8,298.8c-1.1,4.4-4.3,7.9-8.7,10l5.7-23C926.7,289.8,927.9,294.4,926.8,298.8z"/>
<path class="st3" d="M925.9,331.4c-1-0.3-1.6-1.3-1.3-2.3c0,0,0,0,0,0l1.6-6.7l-10.7-2.8l-32.7,132.2c4.9,9.9,1.9,21.9-7,28.2
	l-0.8,3.1l14.5,3.8l38.4-155L925.9,331.4z"/>
<path class="st3" d="M924.5,329.1c-0.3,1,0.3,2,1.3,2.3c0,0,0,0,0,0l2,0.5l2.1-8.5l-3.8-1L924.5,329.1z"/>
<path class="st4" d="M911.2,312.9c0.9-1.5,2.3-2.6,4-3c1-0.3,2-0.7,3-1.1l5.7-23c-3.6-4.7-8.6-7.9-14.2-9.3
	c-11.8-3.1-23.1,1.9-25.4,11.2c-1.1,4.3,0.1,8.9,2.8,12.8c1,1.5,2.3,2.8,3.6,4l0.1,0.2c1.6,2.6,1.3,6-0.7,8.3l-71.8-18.8L802,359.6
	c5.3-4.4,12.4-6.1,19.1-4.4c12.1,3.2,19.2,16.6,15.9,30c-3.3,13.4-15.8,21.7-27.9,18.5c-6.6-1.8-12.1-6.7-14.7-13.2l-16.6,67.2
	l63.6,16.7c-4.2-5.5-5.7-12.6-4.1-19.3c3.1-12.4,16.1-19.8,29.2-16.4c7,1.8,13,6.6,16.3,13.2l32.7-132.2l-4.7-1.2
	C910,316.6,910.1,314.6,911.2,312.9z"/>
<path class="st4" d="M916.4,315.8l0.1-0.5c-0.2,0.1-0.5,0.3-0.7,0.4L916.4,315.8z"/>
<path class="st13" d="M905.2,562.6c2.4,3.8,5.2,20.2,5.2,20.2s1.9,3.8,1.8,7c-0.1,3.2,1.8,9.1,1.8,9.1l6.2,23.6
	c0,0-0.7,6.3,1.7,10.7c2.3,4.4,2.1,3.1,1,10.8c-1.1,7.8,1.3,15,5.3,17.3c4,2.3-1.8,7.6-1.8,7.6s25.5,7.1,30.9,2.7
	s-2.8-25.8-2.8-25.8s1.3-18,0.4-20.7c-0.9-2.6-4.7-25-4.7-25s-2.3-10.2-1.4-11.9c0.9-1.7-0.6-6.6-0.6-6.6s-3.8-5.5-3.4-7.2
	s-1.1-4.8-1.1-4.8s11.3-17.9,10.3-21.2c-1-3.4,0.4-8.7,0.4-8.7l3.2-5.6c2.1-3.7,4.7-8.1,5.5-9.5c1.1-1.8,3.7-9.3,5.2-13.6l1-3.1
	c0,0,1.8,33.6,3.3,37c1.6,3.4,3.9,30.5,3.9,30.5c0.9,2.4,1.2,5,1.1,7.5c-0.2,4.2,3.6,22.6,3.6,22.6s1.7,13,0.6,16.5
	c-1.1,3.5-0.2,28.7-0.2,28.7s-6.1,4.9-7.7,8.7c-1.6,3.7,0.2,14,0.2,14s17.8,9.1,25.6,6.7c7.9-2.4,4.7-16.2,4.7-16.2
	s5.3-9.1,5.3-12.7s1.9-14.4,1.9-14.4c6.8-12.8,4.1-43.8,5.2-46.4c1.1-2.5-2.3-11.9-5.1-16.1c-2.8-4.2-1.7-15.6,0-18.9
	c1.7-3.3-1.7-14.7-1.7-14.7s3.2-22.2,3.1-25.6c-0.1-3.4,2.8-13.6,2.8-13.6s2.9-5.3,2.2-6.9c-0.7-1.6,2.2-5.7,1.4-7.5
	c-0.8-1.8,0.7-7.4,2.1-10.7c0.7-1.7,1.7-6.4,2.4-10.5c0.7-3.9,1.2-7.4,1.2-7.4l-18.3-15.2l-45.8-12.4l-17.2-5.7l-16.8,27.2
	c-1.2,2-2.3,4-3.3,6.1c-1.3,2.8-2.5,6-2.3,7.9c0.3,2.5-0.3,5-1.6,7.1c0,0-10,32.5-9.8,41.9c0.2,9.4-3.6,29.9-3.6,29.9
	S902.7,558.8,905.2,562.6z"/>
<path class="st8" d="M972.8,297.8c0.7-0.3,49-20.8,42.4-24.9c-3.9-2.4-8.8-12.7-12.1-20.7c-2.3-5.6-3.9-10.1-3.9-10.1
	s-38.8-7.1-24.9,17.4c2.2,3.7,3.8,7.8,4.9,12C983.1,288.1,973.1,297.5,972.8,297.8z"/>
<path class="st9" d="M974.2,259.4c2.2,3.7,3.8,7.8,4.9,12c10-0.7,18.8-7.1,22.9-16.5c0.4-0.9,0.7-1.8,1-2.7
	c-2.3-5.6-3.9-10.1-3.9-10.1S960.3,235,974.2,259.4z"/>
<path class="st8" d="M950.1,242.8c0,15.4,12.1,27.9,27.1,27.8c15,0,27.1-12.5,27.1-27.9s-12.1-27.9-27.1-27.8
	c-12.1,0-22.7,8.2-26,20.2C950.5,237.6,950.1,240.2,950.1,242.8z"/>
<path class="st9" d="M924,458.7c2.8,2.7,3.9,7.7,3.9,7.7s13.3,9.4,12.4,3.4c-0.9-5.9,6.9-29.9,6.9-29.9l-0.9,32.7
	c0,0,42.6-2.1,45.8-5.3c3.1-3.2,21.3-9.3,21.3-9.3s5.6,4.6,10.7,8.1c0.7-3.9,1.2-7.4,1.2-7.4l-18.3-15.2l-45.8-12.4l-17.2-5.7
	l-16.8,27.2C926,454.6,925,456.6,924,458.7z"/>
<path class="st14" d="M922.6,456.1c3.6,2.3,4.9,8.4,4.9,8.4s13.3,9.4,12.4,3.4c-0.9-5.9,6.9-29.9,6.9-29.9l-0.9,32.7
	c0,0,42.7-2,45.8-5.3c3.1-3.2,21.3-9.4,21.3-9.4s15.8,13,18.7,11.9c2.9-1.1-5.1-23.3-5.1-23.3l-8.2-129.7c0,0,2.2-38.6-1.1-40
	c-0.5-0.2-1-0.5-1.4-0.9c-2.2-2-2.9-6.1-3-9.6c-0.2-4.1-5.6-2.1-5.6-2.1l3.1,4.1l-27.5,17.2l-0.2,0.1c-1.1-0.6-2.2-1.1-3.3-1.5
	c-2.4-1-5.7-1.9-7.8-1c-1.2,0.6-2.2,1.6-2.9,2.7c-1.6,2.4-2.8,5-3.7,7.8l-10,17.3c0,0-5.1,23.1-5.1,24c0,0.9-1.6,21.9-3.3,24.2
	c-1.8,2.3-3.6,13.7-2.9,17.1c0.7,3.4-1.1,16.2-1.1,16.2c-7.3,6.2-11.1,27.2-11.1,27.2s-11.6,23.6-12.5,26.3
	C917.9,446.9,919,453.9,922.6,456.1z"/>
<path class="st9" d="M982.8,284.6c2.7,4.1,10.5,9.9,10.5,9.9l22.5-19.6c-2.2-2-2.9-6.1-3-9.6c-0.2-4.1-5.6-2.1-5.6-2.1l0.6,0.8
	c1.2,1.6,0.9,3.9-0.6,5.2c-0.1,0.1-0.2,0.2-0.3,0.2L982.8,284.6z"/>
<path class="st14" d="M982.8,283.7c2.7,4.1,10.5,9.9,10.5,9.9l22.5-19.6c-2.2-2-2.9-6.1-3-9.6c-0.2-4.1-5.6-2.1-5.6-2.1l0.6,0.8
	c1.2,1.6,0.9,3.9-0.6,5.2c-0.1,0.1-0.2,0.2-0.3,0.2L982.8,283.7z"/>
<path class="st9" d="M972.4,286.8c2.9,3.6,7,7.6,6.8,5.6c-0.2-2,2.5-6.5,4.1-8.5c-2.6-0.9-5.5-0.8-8.1,0.2
	C974.1,284.7,973.1,285.7,972.4,286.8z"/>
<path class="st14" d="M971.9,285.4c2.9,3.6,7,7.6,6.8,5.6s2.2-5.3,3.9-7.3c-2.4-1-5.7-1.9-7.8-1
	C973.7,283.4,972.7,284.3,971.9,285.4z"/>
<ellipse class="st15" cx="979.2" cy="302.6" rx="1.8" ry="1.8"/>
<ellipse class="st15" cx="965.7" cy="351.9" rx="1.8" ry="1.8"/>
<ellipse class="st15" cx="950.5" cy="401.9" rx="1.8" ry="1.8"/>
<ellipse class="st15" cx="950" cy="456.3" rx="1.8" ry="1.8"/>
<ellipse class="st15" cx="971.4" cy="325.9" rx="1.8" ry="1.8"/>
<ellipse class="st15" cx="959.4" cy="376.6" rx="1.8" ry="1.8"/>
<ellipse class="st15" cx="947.7" cy="426.4" rx="1.8" ry="1.8"/>
<ellipse class="st15" cx="950.3" cy="462.3" rx="1.8" ry="1.8"/>
<path class="st9" d="M1015.8,275.2c0,0-0.3-2.7,3.5,2c3.8,4.7,11.1,8.8,11.1,8.8s16.4,11.9,17.3,17.4c0.9,5.5,6.2,29.2,3.4,37.2
	c-2.8,7.9-24.3,45.8-24.3,45.8s5.6,6.9,4.3,14.9c-1.3,8.1-3,19.2-2.2,21.6s-0.9,8.5,1.6,10.7s5.2,5.8-2.7,10.7c0,0-1.5,4.1-0.2,5
	c1.3,0.9-19.7,10.4-28,5.3c-8.3-5-23.2-45.2-23.5-54.2c-0.3-9,4.6-38.7,7.3-45.7c2.7-7,10.7-34.3,14.1-40.3
	C1000.9,308.2,1015.8,275.2,1015.8,275.2z"/>
<path class="st10" d="M1016.7,275.2c0,0-0.3-2.7,3.6,2c3.9,4.7,11.1,8.8,11.1,8.8s16.4,11.9,17.3,17.4c0.9,5.5,6.2,29.2,3.4,37.2
	c-2.8,7.9-24.3,45.8-24.3,45.8s5.6,6.9,4.3,14.9c-1.3,8.1-3,19.2-2.2,21.6s-0.9,8.5,1.6,10.7s5.2,5.8-2.7,10.7c0,0-1.5,4.1-0.2,5
	c1.3,0.9-19.7,10.4-28,5.3c-8.3-5-23.2-45.2-23.5-54.2c-0.3-9,4.6-38.7,7.3-45.7c2.7-7,10.7-34.3,14.1-40.3
	C1001.8,308.2,1016.7,275.2,1016.7,275.2z"/>
<path class="st9" d="M1022.6,301.1c0,0-12.7,14.5-12.3,24.1C1010.3,325.2,1010.2,309.6,1022.6,301.1z"/>
<path class="st9" d="M1005,324.8c0,0.5-8.6,33.3-8.1,37.5c0.4,4.1-2.5,16.3-2.5,16.3l-4-1.1c0,0,3.1-16.9,3.7-23.1
	S1005,324.8,1005,324.8z"/>
<path class="st9" d="M1001.6,418.6c0.3,0.5,20.3,23.7,14.7,25.4C1010.6,445.8,1001.6,418.6,1001.6,418.6z"/>
<path class="st9" d="M1018,412.7c0.4,0.3,8,16.7,8.9,12.4c0.9-4.4-6.5,12-7.7-0.1L1018,412.7z"/>
<path class="st9" d="M979.6,280.4c0,0-8.3-5.2-18.6,8.1c0,0-7.6,4.4-9.8,5.5c-2.2,1.1-4.7,29.4-4.7,29.4s-4.9,12.2-3.6,19.2
	c1.3,7-3.8,31.1-3.8,31.1s-8.6,43.2-8.3,44.5s8.7-13.6,8.6-20.9c-0.1-7.3,7.1-30.1,8.1-31.5c1-1.4,8.1-40.5,8.1-40.5
	s5.8-16.6,9.5-22.1c3.7-5.5,8.3-15.8,10.2-17.7c1.4-1.2,2.9-2.3,4.6-3L979.6,280.4z"/>
<path class="st10" d="M979.7,280.4c0,0-9.3-5.2-19.6,8.1c0,0-7.6,4.4-9.8,5.5c-2.2,1.1-4.7,29.4-4.7,29.4s-4.9,12.2-3.6,19.2
	c1.3,7-3.8,31.1-3.8,31.1s-8.6,43.2-8.3,44.5c0.3,1.2,8.7-13.6,8.6-20.9c-0.1-7.3,7.1-30.1,8.1-31.5c1-1.4,8.2-40.5,8.2-40.5
	s5.8-16.6,9.5-22.1c3.7-5.5,8.3-15.8,10.2-17.7c1.9-1.8,5.5-3,5.5-3L979.7,280.4z"/>
<path class="st8" d="M939.1,375.5c0,0-17.6-11.9-26.1-6c-8.5,5.9-22.4,14.2-8.7,20.2c13.7,6,32.7,4.9,32.7,4.9L939.1,375.5z"/>
<path class="st9" d="M951.3,490.1c2.6,5.8,4.8,34.9,6.3,44.1c2.1-3.7,4.7-8.1,5.5-9.5c1.1-1.8,3.7-9.3,5.2-13.6
	c-1.7-4.2-6.3-16.2-6.3-20.6c0-5.4-8.4-12.1-8.4-12.1S948.2,483.3,951.3,490.1z"/>
<path class="st9" d="M1008,579.6c0,0-19.6-8.6-25.3-2.5S1008,579.6,1008,579.6z"/>
<path class="st9" d="M997,583c0,0,19.8,11.4,13,13.3S997,583,997,583z"/>
<path class="st9" d="M937.9,573c0,0,8.4,0.6,5.2,2.3C939.9,577,937.9,573,937.9,573z"/>
<path class="st9" d="M927.3,575.7c0.1,0.6,24.5,8.7,19.8,12.4C942.3,591.7,927.3,575.7,927.3,575.7z"/>
<path class="st9" d="M1005.1,645.6c-3.7-0.6-24.1-10.3-16.1-3.3C997,649.3,1005.1,645.6,1005.1,645.6z"/>
<path class="st9" d="M995,653.2c0,0-1.8,7.1-8.6,6.2C979.7,658.5,995,653.2,995,653.2z"/>
<path class="st9" d="M1000.7,667.6c-1.2-0.3-15.8-7.2-16.1-4c-0.3,3.2,13.9,8.8,15,7.1C1000.2,669.8,1000.6,668.7,1000.7,667.6z"/>
<path class="st9" d="M953.6,659.4c-1.8-0.1-18.4-5.6-21.8-0.7L953.6,659.4z"/>
<path class="st9" d="M938.5,662.6c0,0-2.9-2.6-5.8-1.3C929.8,662.7,938.5,662.6,938.5,662.6z"/>
<path class="st9" d="M975.3,690.9c-0.4,2-1.9,3.5-3.8,4L975.3,690.9z"/>
<path class="st12" d="M890.6,701.6c1.1,4.7,16.7,5.1,24.1,3.9c7.4-1.3,22.9-5.8,22.9-5.8s16.2-1.6,21-3.6c4.8-2.1,1-7.3,1-7.3
	s0-0.2,0-0.5c0.1-1.9,0.4-8.8-0.7-10.7c-1.3-2.2-0.6-9.3-0.6-9.3s-23,4.6-23.4,2.4c-0.4-2.2-4-5.3-5.7-5.9s-2.9,5.7-2.9,5.7
	s-10.4,9.1-11.1,12.5c-0.7,3.3-8,5-8,5s-11.1,3.2-14,4.8c-1.7,0.8-2.9,2.5-3.1,4.4C890,698.7,890.2,700.2,890.6,701.6z"/>
<path class="st9" d="M890.6,701.6c1.1,4.7,16.7,5.1,24.1,3.9c7.4-1.3,22.9-5.8,22.9-5.8s16.2-1.6,21-3.6c4.8-2.1,1-7.3,1-7.3
	s0-0.2,0-0.5l-23.2,5.3c0,0-11.4,5-18.8,5c-6.4,0-20.7,2.7-27.4-1.4C890,698.7,890.2,700.2,890.6,701.6z"/>
<path class="st9" d="M922,683.6c0,0,1.1,7.5,5.6,10L922,683.6z"/>
<path class="st9" d="M951.2,235c0.4,0.2,0.9,0.4,1.3,0.6c2.1,0.6,4.1-0.9,6-2c1.9-1.2,4.4-2,6-0.5c2.1,2,0.6,6.1,2.7,8
	c1.4,1.2,3.5,0.8,5,1.8s2,3.1,2.4,5s1.2,4,2.9,4.5c1.8,0.5,3.4-0.7,5.1-0.6c0.4,0,0.8,0.1,1-0.2c0.2-0.2,0.2-0.5,0.2-0.8
	c-0.2-2.2,0-4.4,0.6-6.6c0.7-2.1,2.4-4,4.5-4.3c3.1-0.5,5.7,2.3,7.6,4.9c1.9,2.8,3.7,5.7,5.3,8.7c0.1,0.2,0.2,0.4,0.3,0.6
	c6.1-14.1-0.1-30.5-13.8-36.8c-13.7-6.2-29.7,0.1-35.8,14.2C951.9,232.6,951.5,233.9,951.2,235L951.2,235z"/>
<path d="M996.5,244.3c-1.8-2.7-4.5-5.5-7.6-4.9c-2.1,0.3-3.8,2.2-4.5,4.3c-0.6,2.1-0.8,4.4-0.6,6.6c0,0.3,0,0.6-0.2,0.8
	c-0.2,0.3-0.7,0.2-1,0.2c-1.7-0.1-3.5,1.1-5.1,0.6s-2.5-2.7-2.9-4.5s-0.8-4-2.4-5c-1.6-1-3.7-0.6-5-1.8c-2.2-1.9-0.6-6.1-2.7-8
	c-1.6-1.5-4.2-0.6-6,0.5c-1.9,1.2-3.9,2.6-6,2c-0.7-0.2-1.3-0.6-2-0.9c-3.3-1.3-7.6,0.9-10.3-1.4c-1-1-1.7-2.3-2.1-3.6
	c-0.7-1.9-1.2-3.8-1.5-5.8c-0.2-2,0.3-4.1,1.5-5.7c1.8-2.1,4.7-2.7,7-4.2c1.9-1.4,3.2-3.4,4.5-5.4s2.5-4.1,4.3-5.5s4.4-2.1,6.5-1.1
	c0.7,0.5,1.4,0.8,2.1,1c0.8,0,1.7-0.2,2.4-0.7c7.7-3.7,16.7-3.1,25.1-2c3.4,0.4,6.8,1,9.9,2.5s5.8,4.1,6.7,7.5
	c0.7,2.7,0.2,5.6,1,8.2c0.6,1.8,1.7,3.3,2.4,5.1c1.8,4.8-0.4,10.1-1.3,15.2c-1,5.5-0.5,11.5-2.8,16.8c-0.4,1-1,2.8-2.1,2.2
	c-0.8-0.5-1.6-3.4-2.1-4.3C1000.2,249.9,998.4,247,996.5,244.3z"/>
<path class="st9" d="M1045.3,333.5l4,11.7c0,0-9.5,36.2-13.9,43.8s-11,17.4-11,17.4s-11,5.6-23.7,3c-12.7-2.6-49.9-9.4-49.9-9.4
	s-3.1,0.6-4.7-1.8c-1.6-2.4-10.1-3.7-10.1-3.7s-9.8-14.6,2.2-20.7c0,0,1.5,3.4,7.8,1.1c6.4-2.3,8.3,1.8,8.3,1.8s10.4,2.1,16.1,1.4
	c5.7-0.8,20.1-1.1,21.6-2.3c0.8-0.7,2-0.6,2.7,0.2c0,0,3.5-1.4,4.7-2.7c1.2-1.4,2.8,1.5,2.8,1.5s2.1-1.2,1.5-2.7s1.9-7.3,1.9-7.3
	s1.2-3.8,0.4-6.9c-0.7-3,3.7-14,3.7-14c0.1-1.8-0.1-3.7-0.6-5.5c-0.7-2.7,5.6-8.2,5.6-8.2s6.2-31.1,19.4-20.9
	C1047.5,319.5,1045.3,333.5,1045.3,333.5z"/>
<path class="st10" d="M1046.2,333.5l4,11.7c0,0-9.5,36.2-13.9,43.8c-4.4,7.6-10.9,17.4-10.9,17.4s-11,5.6-23.7,3
	c-12.7-2.6-49.9-9.4-49.9-9.4s-3.1,0.6-4.7-1.8c-1.6-2.4-10.1-3.7-10.1-3.7s-9.8-14.6,2.2-20.7c0,0,1.5,3.4,7.8,1.1
	c6.4-2.3,8.3,1.8,8.3,1.8s10.4,2.1,16.1,1.4c5.7-0.8,20.1-1.1,21.6-2.3c0.8-0.7,2-0.6,2.7,0.2c0,0,3.5-1.4,4.7-2.7
	c1.2-1.4,2.8,1.5,2.8,1.5s2.1-1.2,1.5-2.7s1.9-7.3,1.9-7.3s1.2-3.8,0.4-6.9c-0.7-3,3.7-14,3.7-14c0.1-1.8-0.1-3.7-0.6-5.5
	c-0.7-2.7,5.6-8.2,5.6-8.2s6.2-31.1,19.4-20.9C1048.4,319.5,1046.2,333.5,1046.2,333.5z"/>
<path class="st9" d="M949.9,382.6c0.1,1.1,3.4,5.3,2.2,6.1c-1.2,0.8-3.1,0.3-1.3,2.7c1.8,2.4,1.6,6.1,0.4,5.6s-3.1-5.9-3.1-8.1
	S949.9,382.6,949.9,382.6z"/>
<path class="st9" d="M993.9,380.1c0,0,0.9,10.7,8.2,13.7C1009.4,396.9,993.9,380.1,993.9,380.1z"/>
<path class="st9" d="M1009,376.5c0.4,0.2,10.4,5.6,5.9,8.8S1009,376.5,1009,376.5z"/>
<path class="st9" d="M1009.6,368.9c0,0,14.5,3,9.6,5.6S1009.6,368.9,1009.6,368.9z"/>
<g class="st2">
	<path d="M984.4,241.1c0.7-2.1,2.4-4,4.5-4.3c3.1-0.5,5.7,2.3,7.6,4.9c1.9,2.8,3.7,5.7,5.3,8.7c0.5,0.9,1.3,3.8,2.1,4.3
		c1.1,0.7,1.6-1.1,2.1-2.1c2.3-5.2,1.8-11.2,2.8-16.8c0.6-3.2,1.7-6.6,1.9-9.8c0.3,4-1.2,8.2-1.9,12.2c-1,5.5-0.5,11.5-2.8,16.8
		c-0.4,1-1,2.8-2.1,2.1c-0.8-0.5-1.6-3.4-2.1-4.3c-1.6-3-3.3-5.9-5.3-8.7c-1.8-2.6-4.5-5.5-7.6-4.9c-2.1,0.3-3.8,2.2-4.5,4.3
		c-0.4,1.1-0.6,2.3-0.6,3.4C983.7,244.9,983.9,243,984.4,241.1z"/>
	<path d="M938.1,226.6c0.4,1.4,1.1,2.6,2.1,3.7c2.7,2.3,7,0.1,10.3,1.4c0.7,0.3,1.3,0.7,2,0.9c2.1,0.6,4.1-0.9,6-2
		c1.8-1.2,4.4-2,6-0.5c2.1,2,0.6,6.1,2.7,8c1.4,1.2,3.5,0.8,5,1.8s2,3.1,2.4,4.9s1.1,4,2.9,4.5s3.4-0.6,5.1-0.6c0.4,0,0.8,0.1,1-0.2
		c0.1-0.1,0.1-0.1,0.1-0.2c0,0.6,0,1.2,0.1,1.8c0,0.3,0,0.6-0.2,0.8c-0.2,0.3-0.7,0.2-1,0.2c-1.7-0.1-3.5,1.1-5.1,0.6
		c-1.7-0.5-2.5-2.7-2.9-4.5c-0.4-1.9-0.8-4-2.4-4.9c-1.6-1-3.7-0.6-5-1.8c-2.2-1.9-0.6-6.1-2.7-8c-1.6-1.5-4.2-0.6-6,0.5
		s-3.9,2.6-6,2c-0.7-0.2-1.3-0.6-2-0.9c-3.3-1.3-7.6,0.9-10.3-1.4c-1-1-1.7-2.3-2.1-3.7c-0.7-1.9-1.2-3.8-1.5-5.8
		c-0.1-0.7,0-1.4,0-2C937,223,937.5,224.8,938.1,226.6z"/>
</g>
</svg>
