<svg width="1118" height="240" viewBox="0 0 1118 240" fill="none" xmlns="http://www.w3.org/2000/svg">
<line x1="63.9956" y1="27.25" x2="1014" y2="27.25" stroke="#16906D" stroke-width="1.5"/>
<rect y="115" width="6" height="50" fill="#DBDBDB"/>
<path d="M15.2373 132H16.7686V122.136H15.2373V132ZM19.0723 132H20.5557V127.646C20.5557 126.449 21.2324 125.704 22.3193 125.704C23.4062 125.704 23.9189 126.312 23.9189 127.543V132H25.3955V127.194C25.3955 125.424 24.4795 124.433 22.8184 124.433C21.7383 124.433 21.0273 124.911 20.665 125.704H20.5557V124.576H19.0723V132ZM28.2393 123.25C28.7451 123.25 29.1689 122.833 29.1689 122.327C29.1689 121.814 28.7451 121.397 28.2393 121.397C27.7266 121.397 27.3096 121.814 27.3096 122.327C27.3096 122.833 27.7266 123.25 28.2393 123.25ZM27.4941 132H28.9707V124.576H27.4941V132ZM33.9336 132.048C34.2207 132.048 34.4941 132.014 34.7334 131.973V130.79C34.5283 130.811 34.3984 130.817 34.1729 130.817C33.4414 130.817 33.1406 130.489 33.1406 129.689V125.745H34.7334V124.576H33.1406V122.703H31.6299V124.576H30.4678V125.745H31.6299V130.045C31.6299 131.474 32.2998 132.048 33.9336 132.048ZM37.2354 123.25C37.7412 123.25 38.165 122.833 38.165 122.327C38.165 121.814 37.7412 121.397 37.2354 121.397C36.7227 121.397 36.3057 121.814 36.3057 122.327C36.3057 122.833 36.7227 123.25 37.2354 123.25ZM36.4902 132H37.9668V124.576H36.4902V132ZM42.1641 132.123C43.1484 132.123 43.9277 131.699 44.3652 130.947H44.4814V132H45.9512V126.921C45.9512 125.362 44.8984 124.433 43.0322 124.433C41.3438 124.433 40.1748 125.246 39.9971 126.463L39.9902 126.511H41.4189L41.4258 126.483C41.6035 125.957 42.1436 125.656 42.9639 125.656C43.9688 125.656 44.4814 126.107 44.4814 126.921V127.577L42.4717 127.693C40.7012 127.803 39.7031 128.575 39.7031 129.901V129.915C39.7031 131.262 40.749 132.123 42.1641 132.123ZM41.1797 129.854V129.84C41.1797 129.17 41.6445 128.801 42.6699 128.739L44.4814 128.623V129.259C44.4814 130.216 43.668 130.94 42.5605 130.94C41.7607 130.94 41.1797 130.537 41.1797 129.854ZM48.1113 132H49.5947V121.664H48.1113V132ZM60.0059 132.239C60.6553 132.239 61.2568 132.137 61.7832 131.932L62.6172 133.066H64.1963L62.8975 131.296C63.9912 130.414 64.6064 128.944 64.6064 127.071V127.058C64.6064 123.893 62.8428 121.896 60.0059 121.896C57.1758 121.896 55.3984 123.886 55.3984 127.058V127.071C55.3984 130.236 57.1348 132.239 60.0059 132.239ZM60.0059 130.886C58.1055 130.886 56.9639 129.382 56.9639 127.071V127.058C56.9639 124.727 58.1396 123.25 60.0059 123.25C61.8721 123.25 63.041 124.727 63.041 127.058V127.071C63.041 128.377 62.6719 129.43 62.0088 130.093L61.2227 129.026H59.6436L60.915 130.749C60.6348 130.838 60.3271 130.886 60.0059 130.886ZM68.9883 132.144C70.0684 132.144 70.8203 131.679 71.1758 130.879H71.292V132H72.7686V124.576H71.292V128.931C71.292 130.127 70.6562 130.872 69.4668 130.872C68.3799 130.872 67.9287 130.264 67.9287 129.033V124.576H66.4453V129.382C66.4453 131.139 67.3135 132.144 68.9883 132.144ZM78.0254 132.144C79.9258 132.144 80.9512 131.05 81.1973 130.072L81.2109 130.011L79.7822 130.018L79.7549 130.072C79.5771 130.455 79.0098 130.927 78.0596 130.927C76.8359 130.927 76.0566 130.1 76.0293 128.678H81.293V128.158C81.293 125.93 80.0215 124.433 77.9502 124.433C75.8789 124.433 74.5391 125.984 74.5391 128.302V128.309C74.5391 130.66 75.8516 132.144 78.0254 132.144ZM77.957 125.649C78.9619 125.649 79.707 126.292 79.8232 127.618H76.0498C76.1797 126.34 76.9453 125.649 77.957 125.649ZM85.7568 132.144C87.5205 132.144 88.833 131.207 88.833 129.833V129.819C88.833 128.746 88.1494 128.138 86.7207 127.803L85.5449 127.536C84.7109 127.338 84.3691 127.051 84.3691 126.586V126.572C84.3691 125.978 84.957 125.574 85.7705 125.574C86.6045 125.574 87.1309 125.964 87.2744 126.483V126.497H88.6895V126.49C88.5596 125.28 87.4727 124.433 85.7773 124.433C84.0957 124.433 82.8926 125.362 82.8926 126.654V126.661C82.8926 127.748 83.542 128.384 84.9434 128.705L86.126 128.979C86.9873 129.177 87.3359 129.491 87.3359 129.956V129.97C87.3359 130.578 86.7002 130.995 85.7842 130.995C84.9023 130.995 84.3623 130.619 84.1777 130.059L84.1709 130.052H82.6875V130.059C82.8311 131.303 83.9658 132.144 85.7568 132.144ZM93.3516 132.048C93.6387 132.048 93.9121 132.014 94.1514 131.973V130.79C93.9463 130.811 93.8164 130.817 93.5908 130.817C92.8594 130.817 92.5586 130.489 92.5586 129.689V125.745H94.1514V124.576H92.5586V122.703H91.0479V124.576H89.8857V125.745H91.0479V130.045C91.0479 131.474 91.7178 132.048 93.3516 132.048ZM96.6533 123.25C97.1592 123.25 97.583 122.833 97.583 122.327C97.583 121.814 97.1592 121.397 96.6533 121.397C96.1406 121.397 95.7236 121.814 95.7236 122.327C95.7236 122.833 96.1406 123.25 96.6533 123.25ZM95.9082 132H97.3848V124.576H95.9082V132ZM102.689 132.144C104.863 132.144 106.196 130.688 106.196 128.295V128.281C106.196 125.889 104.856 124.433 102.689 124.433C100.516 124.433 99.1758 125.896 99.1758 128.281V128.295C99.1758 130.688 100.509 132.144 102.689 132.144ZM102.689 130.906C101.411 130.906 100.693 129.942 100.693 128.295V128.281C100.693 126.634 101.411 125.67 102.689 125.67C103.961 125.67 104.686 126.634 104.686 128.281V128.295C104.686 129.936 103.961 130.906 102.689 130.906ZM107.967 132H109.45V127.646C109.45 126.449 110.127 125.704 111.214 125.704C112.301 125.704 112.813 126.312 112.813 127.543V132H114.29V127.194C114.29 125.424 113.374 124.433 111.713 124.433C110.633 124.433 109.922 124.911 109.56 125.704H109.45V124.576H107.967V132ZM119.062 132.144C120.825 132.144 122.138 131.207 122.138 129.833V129.819C122.138 128.746 121.454 128.138 120.025 127.803L118.85 127.536C118.016 127.338 117.674 127.051 117.674 126.586V126.572C117.674 125.978 118.262 125.574 119.075 125.574C119.909 125.574 120.436 125.964 120.579 126.483V126.497H121.994V126.49C121.864 125.28 120.777 124.433 119.082 124.433C117.4 124.433 116.197 125.362 116.197 126.654V126.661C116.197 127.748 116.847 128.384 118.248 128.705L119.431 128.979C120.292 129.177 120.641 129.491 120.641 129.956V129.97C120.641 130.578 120.005 130.995 119.089 130.995C118.207 130.995 117.667 130.619 117.482 130.059L117.476 130.052H115.992V130.059C116.136 131.303 117.271 132.144 119.062 132.144ZM18.5732 157.239C20.8701 157.239 22.3398 156.063 22.3398 154.177V154.17C22.3398 152.707 21.4922 151.873 19.4209 151.429L18.3477 151.189C17.0693 150.916 16.5498 150.438 16.5498 149.706V149.699C16.5498 148.77 17.4043 148.229 18.5596 148.229C19.7559 148.223 20.5283 148.811 20.6582 149.617L20.6719 149.706H22.1553L22.1484 149.61C22.0391 148.079 20.6719 146.896 18.5801 146.896C16.4883 146.896 15.0117 148.072 15.0049 149.774V149.781C15.0049 151.237 15.8662 152.167 17.8691 152.591L18.9492 152.823C20.2549 153.104 20.7881 153.596 20.7881 154.354V154.361C20.7881 155.277 19.8926 155.906 18.6348 155.906C17.3154 155.906 16.3652 155.332 16.2832 154.437L16.2764 154.361H14.7725L14.7793 154.45C14.916 156.111 16.3447 157.239 18.5732 157.239ZM26.9883 157.048C27.2754 157.048 27.5488 157.014 27.7881 156.973V155.79C27.583 155.811 27.4531 155.817 27.2275 155.817C26.4961 155.817 26.1953 155.489 26.1953 154.689V150.745H27.7881V149.576H26.1953V147.703H24.6846V149.576H23.5225V150.745H24.6846V155.045C24.6846 156.474 25.3545 157.048 26.9883 157.048ZM31.5547 157.123C32.5391 157.123 33.3184 156.699 33.7559 155.947H33.8721V157H35.3418V151.921C35.3418 150.362 34.2891 149.433 32.4229 149.433C30.7344 149.433 29.5654 150.246 29.3877 151.463L29.3809 151.511H30.8096L30.8164 151.483C30.9941 150.957 31.5342 150.656 32.3545 150.656C33.3594 150.656 33.8721 151.107 33.8721 151.921V152.577L31.8623 152.693C30.0918 152.803 29.0938 153.575 29.0938 154.901V154.915C29.0938 156.262 30.1396 157.123 31.5547 157.123ZM30.5703 154.854V154.84C30.5703 154.17 31.0352 153.801 32.0605 153.739L33.8721 153.623V154.259C33.8721 155.216 33.0586 155.94 31.9512 155.94C31.1514 155.94 30.5703 155.537 30.5703 154.854ZM37.502 157H38.9854V154.3L39.6211 153.664L42.1777 157H43.9824L40.6807 152.707L43.7773 149.576H42.041L39.0947 152.707H38.9854V146.664H37.502V157ZM48.0703 157.144C49.9707 157.144 50.9961 156.05 51.2422 155.072L51.2559 155.011L49.8271 155.018L49.7998 155.072C49.6221 155.455 49.0547 155.927 48.1045 155.927C46.8809 155.927 46.1016 155.1 46.0742 153.678H51.3379V153.158C51.3379 150.93 50.0664 149.433 47.9951 149.433C45.9238 149.433 44.584 150.984 44.584 153.302V153.309C44.584 155.66 45.8965 157.144 48.0703 157.144ZM48.002 150.649C49.0068 150.649 49.752 151.292 49.8682 152.618H46.0947C46.2246 151.34 46.9902 150.649 48.002 150.649ZM53.1699 157H54.6533V152.646C54.6533 151.449 55.3301 150.704 56.417 150.704C57.5039 150.704 58.0166 151.312 58.0166 152.543V157H59.4932V152.194C59.4932 150.424 58.5771 149.433 56.916 149.433C55.8359 149.433 55.125 149.911 54.7627 150.704H54.6533V146.664H53.1699V157ZM64.709 157.144C66.8828 157.144 68.2158 155.688 68.2158 153.295V153.281C68.2158 150.889 66.876 149.433 64.709 149.433C62.5352 149.433 61.1953 150.896 61.1953 153.281V153.295C61.1953 155.688 62.5283 157.144 64.709 157.144ZM64.709 155.906C63.4307 155.906 62.7129 154.942 62.7129 153.295V153.281C62.7129 151.634 63.4307 150.67 64.709 150.67C65.9805 150.67 66.7051 151.634 66.7051 153.281V153.295C66.7051 154.936 65.9805 155.906 64.709 155.906ZM70.0547 157H71.5381V146.664H70.0547V157ZM76.4531 157.123C77.4922 157.123 78.3057 156.645 78.7363 155.831H78.8525V157H80.3291V146.664H78.8525V150.752H78.7363C78.3398 149.952 77.4717 149.446 76.4531 149.446C74.5664 149.446 73.377 150.93 73.377 153.281V153.295C73.377 155.626 74.5869 157.123 76.4531 157.123ZM76.877 155.858C75.6328 155.858 74.8877 154.888 74.8877 153.295V153.281C74.8877 151.688 75.6328 150.718 76.877 150.718C78.1074 150.718 78.873 151.695 78.873 153.281V153.295C78.873 154.881 78.1143 155.858 76.877 155.858ZM85.6543 157.144C87.5547 157.144 88.5801 156.05 88.8262 155.072L88.8398 155.011L87.4111 155.018L87.3838 155.072C87.2061 155.455 86.6387 155.927 85.6885 155.927C84.4648 155.927 83.6855 155.1 83.6582 153.678H88.9219V153.158C88.9219 150.93 87.6504 149.433 85.5791 149.433C83.5078 149.433 82.168 150.984 82.168 153.302V153.309C82.168 155.66 83.4805 157.144 85.6543 157.144ZM85.5859 150.649C86.5908 150.649 87.3359 151.292 87.4521 152.618H83.6787C83.8086 151.34 84.5742 150.649 85.5859 150.649ZM90.6855 157H92.1689V152.563C92.1689 151.49 92.9414 150.793 94.0762 150.793C94.3564 150.793 94.6094 150.827 94.876 150.882V149.515C94.7256 149.48 94.4658 149.446 94.2266 149.446C93.2354 149.446 92.5449 149.911 92.2783 150.697H92.1689V149.576H90.6855V157ZM100.29 157H101.685V149.761H101.794L104.686 157H105.82L108.719 149.761H108.821V157H110.216V147.136H108.452L105.308 155.004H105.198L102.054 147.136H100.29V157ZM115.637 157.144C117.537 157.144 118.562 156.05 118.809 155.072L118.822 155.011L117.394 155.018L117.366 155.072C117.188 155.455 116.621 155.927 115.671 155.927C114.447 155.927 113.668 155.1 113.641 153.678H118.904V153.158C118.904 150.93 117.633 149.433 115.562 149.433C113.49 149.433 112.15 150.984 112.15 153.302V153.309C112.15 155.66 113.463 157.144 115.637 157.144ZM115.568 150.649C116.573 150.649 117.318 151.292 117.435 152.618H113.661C113.791 151.34 114.557 150.649 115.568 150.649ZM123.785 157.144C125.686 157.144 126.711 156.05 126.957 155.072L126.971 155.011L125.542 155.018L125.515 155.072C125.337 155.455 124.77 155.927 123.819 155.927C122.596 155.927 121.816 155.1 121.789 153.678H127.053V153.158C127.053 150.93 125.781 149.433 123.71 149.433C121.639 149.433 120.299 150.984 120.299 153.302V153.309C120.299 155.66 121.611 157.144 123.785 157.144ZM123.717 150.649C124.722 150.649 125.467 151.292 125.583 152.618H121.81C121.939 151.34 122.705 150.649 123.717 150.649ZM131.619 157.048C131.906 157.048 132.18 157.014 132.419 156.973V155.79C132.214 155.811 132.084 155.817 131.858 155.817C131.127 155.817 130.826 155.489 130.826 154.689V150.745H132.419V149.576H130.826V147.703H129.315V149.576H128.153V150.745H129.315V155.045C129.315 156.474 129.985 157.048 131.619 157.048ZM134.921 148.25C135.427 148.25 135.851 147.833 135.851 147.327C135.851 146.814 135.427 146.397 134.921 146.397C134.408 146.397 133.991 146.814 133.991 147.327C133.991 147.833 134.408 148.25 134.921 148.25ZM134.176 157H135.652V149.576H134.176V157ZM137.812 157H139.296V152.646C139.296 151.449 139.973 150.704 141.06 150.704C142.146 150.704 142.659 151.312 142.659 152.543V157H144.136V152.194C144.136 150.424 143.22 149.433 141.559 149.433C140.479 149.433 139.768 149.911 139.405 150.704H139.296V149.576H137.812V157ZM149.345 159.618C151.45 159.618 152.783 158.538 152.783 156.85V149.576H151.307V150.793H151.218C150.787 149.959 149.98 149.446 148.941 149.446C147.014 149.446 145.831 150.943 145.831 153.062V153.076C145.831 155.168 147.007 156.638 148.914 156.638C149.933 156.638 150.753 156.187 151.204 155.38H151.313V156.843C151.313 157.854 150.589 158.429 149.365 158.429C148.36 158.429 147.759 158.066 147.636 157.554L147.629 157.54H146.132L146.118 157.554C146.296 158.791 147.458 159.618 149.345 159.618ZM149.324 155.414C148.06 155.414 147.349 154.45 147.349 153.069V153.056C147.349 151.675 148.06 150.704 149.324 150.704C150.575 150.704 151.341 151.675 151.341 153.056V153.069C151.341 154.457 150.582 155.414 149.324 155.414Z" fill="black"/>
<circle cx="776.5" cy="28.5" r="25.5" fill="#16906D" stroke="white" stroke-width="6"/>
<path d="M778.165 40H782.145V35.5366H785.271V32.1045H782.145V16.7485H776.263C773.105 21.5503 769.802 26.8999 766.789 32.1367V35.5366H778.165V40ZM770.656 32.2012V31.9595C772.912 28.0117 775.603 23.7095 777.987 20.0679H778.229V32.2012H770.656Z" fill="white"/>
<circle cx="300.5" cy="28.5" r="25.5" fill="#16906D" stroke="white" stroke-width="6"/>
<path d="M292.433 40H308.579V36.5518H298.057V36.2134L302.713 31.7017C306.951 27.625 308.224 25.5303 308.224 22.8877V22.8394C308.224 18.9238 304.969 16.1685 300.441 16.1685C295.591 16.1685 292.208 19.1978 292.208 23.5322L292.224 23.5806L296.091 23.5967L296.107 23.5322C296.107 21.1313 297.767 19.5039 300.232 19.5039C302.649 19.5039 304.115 21.0508 304.115 23.1938V23.2422C304.115 25.0308 303.229 26.207 300.071 29.3975L292.433 37.1963V40Z" fill="white"/>
<circle cx="545.5" cy="28.5" r="25.5" fill="#16906D" stroke="white" stroke-width="6"/>
<path d="M542.783 29.6553H545.699C548.567 29.6553 550.308 31.0732 550.308 33.3613C550.308 35.585 548.422 37.0835 545.748 37.0835C543.057 37.0835 541.236 35.7139 541.059 33.5708H537.079C537.272 37.8086 540.736 40.5801 545.796 40.5801C550.823 40.5801 554.562 37.6797 554.562 33.6675C554.562 30.5093 552.58 28.4629 549.421 27.9795V27.7056C551.887 27.061 553.643 25.1919 553.659 22.3882C553.675 19.0366 550.888 16.1685 545.941 16.1685C540.897 16.1685 537.739 19.0205 537.53 23.1294H541.429C541.606 20.8413 543.186 19.5522 545.715 19.5522C548.181 19.5522 549.647 21.0508 549.647 22.9521C549.647 25.0308 548.003 26.481 545.619 26.481H542.783V29.6553Z" fill="white"/>
<circle cx="1013.5" cy="28.5" r="25.5" fill="#16906D" stroke="white" stroke-width="6"/>
<path d="M1013.88 40.5801C1018.95 40.5801 1022.35 37.2446 1022.35 32.3623C1022.35 27.6895 1019.13 24.7085 1015.15 24.7085C1012.78 24.7085 1011.07 25.5303 1010.04 26.9644H1009.77L1010.41 20.2451H1021.11V16.7485H1007.17L1005.9 30.2837H1009.67C1010.46 28.7852 1011.99 27.8667 1013.97 27.8667C1016.54 27.8667 1018.34 29.7036 1018.34 32.4429C1018.34 35.2466 1016.54 37.1157 1013.86 37.1157C1011.49 37.1157 1009.7 35.7139 1009.45 33.5547H1005.56C1005.74 37.6475 1009.07 40.5801 1013.88 40.5801Z" fill="white"/>
<circle cx="63.5" cy="28.5" r="25.5" fill="#16906D" stroke="white" stroke-width="6"/>
<path d="M62.0405 40H66.1978V16.7485H62.0566L55.9819 21.0024V24.9985L61.7666 20.938H62.0405V40Z" fill="white"/>
<path d="M4.79395 72.499H2.02246V82.6611C2.02246 86.0449 4.47168 88.3867 8.39258 88.3867C12.3135 88.3867 14.7627 86.0449 14.7627 82.6611V72.499H11.9912V82.4033C11.9912 84.498 10.6914 85.9053 8.39258 85.9053C6.09375 85.9053 4.79395 84.498 4.79395 82.4033V72.499ZM18.2969 88H20.9609V81.1572C20.9609 79.4277 21.96 78.332 23.5498 78.332C25.1719 78.332 25.9238 79.2344 25.9238 81.0283V88H28.5879V80.3945C28.5879 77.5908 27.1592 76.0117 24.5381 76.0117C22.7871 76.0117 21.6055 76.8174 21.0469 78.1279H20.8643V76.248H18.2969V88ZM36 88.1934C37.6328 88.1934 38.9863 87.4307 39.6523 86.1416H39.835V88H42.4131V71.7041H39.749V78.1172H39.5664C38.9434 76.8281 37.6113 76.0547 36 76.0547C33.0352 76.0547 31.166 78.3965 31.166 82.1133C31.166 85.8516 33.0244 88.1934 36 88.1934ZM36.8271 78.3213C38.6533 78.3213 39.7812 79.7822 39.7812 82.124C39.7812 84.4873 38.6641 85.9268 36.8271 85.9268C35.001 85.9268 33.8945 84.498 33.8945 82.124C33.8945 79.7607 35.0117 78.3213 36.8271 78.3213ZM50.7061 78.1279C52.3066 78.1279 53.3594 79.2451 53.4131 80.9854H47.8809C47.999 79.2666 49.1162 78.1279 50.7061 78.1279ZM53.4346 84.7666C53.0479 85.6367 52.1348 86.1201 50.8135 86.1201C49.0625 86.1201 47.9346 84.8955 47.8701 82.9404V82.8008H56.0771V81.9414C56.0771 78.2354 54.0684 76.0117 50.7168 76.0117C47.3115 76.0117 45.1953 78.3857 45.1953 82.167C45.1953 85.9482 47.2793 88.2363 50.7383 88.2363C53.5098 88.2363 55.4756 86.9043 55.959 84.7666H53.4346ZM58.752 88H61.416V81.2109C61.416 79.5674 62.6191 78.4932 64.3486 78.4932C64.7998 78.4932 65.5088 78.5684 65.7129 78.6436V76.1729C65.4658 76.0977 64.9932 76.0547 64.6064 76.0547C63.0918 76.0547 61.8242 76.9141 61.502 78.0742H61.3193V76.248H58.752V88ZM67.3779 79.6104C67.3779 81.3828 68.4414 82.4248 70.6973 82.9404L72.7812 83.4238C73.8984 83.6709 74.4033 84.0898 74.4033 84.7559C74.4033 85.626 73.4688 86.2168 72.126 86.2168C70.7939 86.2168 69.9668 85.7012 69.709 84.8311H67.0771C67.2812 86.9688 69.1289 88.2363 72.0615 88.2363C74.9941 88.2363 77.0674 86.7324 77.0674 84.4766C77.0674 82.7471 76.0254 81.7803 73.7803 81.2754L71.707 80.8027C70.5254 80.5342 69.9668 80.126 69.9668 79.46C69.9668 78.6113 70.8799 78.0312 72.0938 78.0312C73.3398 78.0312 74.124 78.5576 74.3174 79.3848H76.8203C76.627 77.2471 74.876 76.0117 72.083 76.0117C69.3115 76.0117 67.3779 77.4834 67.3779 79.6104ZM80.5264 73.3691V76.3232H78.668V78.4502H80.5264V84.8633C80.5264 87.1406 81.6006 88.0537 84.2969 88.0537C84.8125 88.0537 85.3066 88 85.6934 87.9248V85.8408C85.3711 85.873 85.167 85.8945 84.791 85.8945C83.6738 85.8945 83.1797 85.3789 83.1797 84.2188V78.4502H85.6934V76.3232H83.1797V73.3691H80.5264ZM92.375 86.0986C91.1934 86.0986 90.3447 85.5078 90.3447 84.5195C90.3447 83.5635 91.043 83.0264 92.5361 82.9297L95.1895 82.7578V83.6924C95.1895 85.0566 93.9863 86.0986 92.375 86.0986ZM91.5908 88.1934C93.127 88.1934 94.416 87.5273 95.0713 86.3887H95.2539V88H97.8213V79.9756C97.8213 77.4834 96.124 76.0117 93.1055 76.0117C90.3125 76.0117 88.3682 77.333 88.1533 79.4062H90.667C90.9141 78.6113 91.752 78.1816 92.9766 78.1816C94.416 78.1816 95.1895 78.8262 95.1895 79.9756V80.9639L92.1602 81.1465C89.3027 81.3184 87.7021 82.543 87.7021 84.6699C87.7021 86.8184 89.3242 88.1934 91.5908 88.1934ZM101.033 88H103.697V81.1572C103.697 79.4277 104.696 78.332 106.286 78.332C107.908 78.332 108.66 79.2344 108.66 81.0283V88H111.324V80.3945C111.324 77.5908 109.896 76.0117 107.274 76.0117C105.523 76.0117 104.342 76.8174 103.783 78.1279H103.601V76.248H101.033V88ZM118.736 88.1934C120.369 88.1934 121.723 87.4307 122.389 86.1416H122.571V88H125.149V71.7041H122.485V78.1172H122.303C121.68 76.8281 120.348 76.0547 118.736 76.0547C115.771 76.0547 113.902 78.3965 113.902 82.1133C113.902 85.8516 115.761 88.1934 118.736 88.1934ZM119.563 78.3213C121.39 78.3213 122.518 79.7822 122.518 82.124C122.518 84.4873 121.4 85.9268 119.563 85.9268C117.737 85.9268 116.631 84.498 116.631 82.124C116.631 79.7607 117.748 78.3213 119.563 78.3213Z" fill="black"/>
<path d="M253.192 88H255.964V82.167H259.036L262.076 88H265.245L261.861 81.748C263.698 81.082 264.783 79.3848 264.783 77.333V77.3115C264.783 74.3574 262.785 72.499 259.455 72.499H253.192V88ZM255.964 80.04V74.7441H259.111C260.873 74.7441 261.937 75.7539 261.937 77.376V77.3975C261.937 79.0625 260.916 80.04 259.165 80.04H255.964ZM272.528 88.2363C275.719 88.2363 277.287 86.3994 277.663 84.8848L277.695 84.7881H275.149L275.117 84.8633C274.859 85.4004 274.032 86.1309 272.582 86.1309C270.767 86.1309 269.628 84.9062 269.596 82.8008H277.803V81.9199C277.803 78.375 275.74 76.0332 272.399 76.0332C269.059 76.0332 266.921 78.4502 266.921 82.1455V82.1562C266.921 85.8945 269.037 88.2363 272.528 88.2363ZM272.432 78.1279C273.925 78.1279 275.01 79.084 275.192 81.0068H269.617C269.821 79.1377 270.938 78.1279 272.432 78.1279ZM284.914 88.2363C287.804 88.2363 289.898 86.7432 289.898 84.5088V84.4873C289.898 82.7793 288.813 81.8018 286.515 81.2861L284.613 80.8672C283.346 80.5771 282.852 80.1582 282.852 79.4707V79.46C282.852 78.5791 283.711 77.999 284.903 77.999C286.16 77.999 286.934 78.6006 287.127 79.3418L287.138 79.374H289.651V79.3525C289.479 77.4512 287.771 76.0332 284.914 76.0332C282.143 76.0332 280.209 77.4941 280.209 79.6104V79.6211C280.209 81.3506 281.272 82.4033 283.507 82.8975L285.408 83.3271C286.697 83.6172 287.213 84.0684 287.213 84.7559V84.7773C287.213 85.6582 286.289 86.2598 284.957 86.2598C283.625 86.2598 282.841 85.6904 282.562 84.874L282.551 84.8525H279.897V84.874C280.123 86.8613 281.928 88.2363 284.914 88.2363ZM297.622 88.2363C300.812 88.2363 302.381 86.3994 302.757 84.8848L302.789 84.7881H300.243L300.211 84.8633C299.953 85.4004 299.126 86.1309 297.676 86.1309C295.86 86.1309 294.722 84.9062 294.689 82.8008H302.896V81.9199C302.896 78.375 300.834 76.0332 297.493 76.0332C294.152 76.0332 292.015 78.4502 292.015 82.1455V82.1562C292.015 85.8945 294.131 88.2363 297.622 88.2363ZM297.525 78.1279C299.019 78.1279 300.104 79.084 300.286 81.0068H294.711C294.915 79.1377 296.032 78.1279 297.525 78.1279ZM308.772 88.1934C310.319 88.1934 311.565 87.5273 312.21 86.3887H312.393V88H315.035V79.9756C315.035 77.4941 313.338 76.0332 310.319 76.0332C307.526 76.0332 305.636 77.3438 305.378 79.3203L305.367 79.417H307.892L307.902 79.374C308.171 78.6006 308.966 78.1602 310.19 78.1602C311.63 78.1602 312.393 78.8047 312.393 79.9756V80.9854L309.374 81.168C306.517 81.3398 304.916 82.5645 304.916 84.6592V84.6807C304.916 86.8184 306.538 88.1934 308.772 88.1934ZM307.559 84.5518V84.5303C307.559 83.5635 308.257 83.0156 309.75 82.9189L312.393 82.7471V83.6924C312.393 85.0889 311.2 86.1416 309.589 86.1416C308.407 86.1416 307.559 85.5508 307.559 84.5518ZM318.247 88H320.922V81.1787C320.922 79.5029 322.093 78.4395 323.876 78.4395C324.338 78.4395 324.778 78.5039 325.208 78.5898V76.1943C324.95 76.1191 324.531 76.0654 324.123 76.0654C322.576 76.0654 321.502 76.8066 321.104 78.0635H320.922V76.2588H318.247V88ZM332.137 88.2363C335.112 88.2363 336.842 86.6357 337.229 84.2295L337.25 84.1436L334.726 84.1543L334.704 84.1973C334.371 85.4326 333.522 86.0664 332.137 86.0664C330.321 86.0664 329.236 84.6055 329.236 82.1133V82.0918C329.236 79.6318 330.311 78.1924 332.137 78.1924C333.598 78.1924 334.468 79.0088 334.715 80.1475L334.726 80.1797H337.25V80.1367C336.949 77.709 335.145 76.0332 332.126 76.0332C328.592 76.0332 326.519 78.2998 326.519 82.0918V82.1133C326.519 85.9482 328.603 88.2363 332.137 88.2363ZM339.903 88H342.578V81.1572C342.578 79.3955 343.566 78.2783 345.156 78.2783C346.778 78.2783 347.52 79.2021 347.52 81.0283V88H350.194V80.4053C350.194 77.6123 348.766 76.0332 346.145 76.0332C344.447 76.0332 343.319 76.7959 342.761 78.0527H342.578V71.7148H339.903V88Z" fill="black"/>
<path d="M452.942 72.499V88H458.754C463.395 88 466.048 85.1533 466.048 80.1797C466.048 75.3135 463.362 72.499 458.754 72.499H452.942ZM455.714 74.8945H458.389C461.429 74.8945 463.223 76.8389 463.223 80.2227C463.223 83.6816 461.472 85.6045 458.389 85.6045H455.714V74.8945ZM473.879 78.1279C475.479 78.1279 476.532 79.2451 476.586 80.9854H471.054C471.172 79.2666 472.289 78.1279 473.879 78.1279ZM476.607 84.7666C476.221 85.6367 475.308 86.1201 473.986 86.1201C472.235 86.1201 471.107 84.8955 471.043 82.9404V82.8008H479.25V81.9414C479.25 78.2354 477.241 76.0117 473.89 76.0117C470.484 76.0117 468.368 78.3857 468.368 82.167C468.368 85.9482 470.452 88.2363 473.911 88.2363C476.683 88.2363 478.648 86.9043 479.132 84.7666H476.607ZM481.656 79.6104C481.656 81.3828 482.72 82.4248 484.976 82.9404L487.06 83.4238C488.177 83.6709 488.682 84.0898 488.682 84.7559C488.682 85.626 487.747 86.2168 486.404 86.2168C485.072 86.2168 484.245 85.7012 483.987 84.8311H481.355C481.56 86.9688 483.407 88.2363 486.34 88.2363C489.272 88.2363 491.346 86.7324 491.346 84.4766C491.346 82.7471 490.304 81.7803 488.059 81.2754L485.985 80.8027C484.804 80.5342 484.245 80.126 484.245 79.46C484.245 78.6113 485.158 78.0312 486.372 78.0312C487.618 78.0312 488.402 78.5576 488.596 79.3848H491.099C490.905 77.2471 489.154 76.0117 486.361 76.0117C483.59 76.0117 481.656 77.4834 481.656 79.6104ZM494.074 88H496.728V76.248H494.074V88ZM495.396 74.3037C496.276 74.3037 496.985 73.5947 496.985 72.7031C496.985 71.8115 496.276 71.0918 495.396 71.0918C494.525 71.0918 493.806 71.8115 493.806 72.7031C493.806 73.5947 494.525 74.3037 495.396 74.3037ZM505.085 85.6582C503.227 85.6582 502.174 84.2402 502.174 81.9951C502.174 79.75 503.227 78.3213 505.085 78.3213C506.933 78.3213 508.061 79.75 508.061 81.9951C508.061 84.2402 506.943 85.6582 505.085 85.6582ZM505.085 92.4688C508.512 92.4688 510.682 90.7607 510.682 88.043V76.248H508.114V78.1279H507.932C507.287 76.8496 505.891 76.0547 504.29 76.0547C501.293 76.0547 499.435 78.3965 499.435 81.9951C499.435 85.5293 501.282 87.8281 504.247 87.8281C505.88 87.8281 507.158 87.1406 507.835 85.8838H508.018V88.1074C508.018 89.5791 506.954 90.4385 505.128 90.4385C503.667 90.4385 502.722 89.9229 502.55 89.1172H499.875C500.09 91.1367 502.066 92.4688 505.085 92.4688ZM513.958 88H516.622V81.1572C516.622 79.4277 517.621 78.332 519.211 78.332C520.833 78.332 521.585 79.2344 521.585 81.0283V88H524.249V80.3945C524.249 77.5908 522.82 76.0117 520.199 76.0117C518.448 76.0117 517.267 76.8174 516.708 78.1279H516.525V76.248H513.958V88ZM544.348 88H547.463L544.659 85.0244C545.497 83.8213 545.959 82.1455 545.959 80.083V79.374H543.628V79.9541C543.628 81.4795 543.424 82.5107 543.016 83.2734L539.718 79.7822C541.963 78.5898 542.94 77.3438 542.94 75.7539C542.94 73.6699 541.189 72.209 538.74 72.209C536.302 72.209 534.497 73.7236 534.497 75.7861C534.497 76.9141 535.013 77.8916 536.431 79.3633C536.312 79.417 535.872 79.6748 535.775 79.7178C533.756 80.8027 532.821 82.124 532.821 83.918C532.821 86.5498 534.959 88.29 538.182 88.29C540.072 88.29 541.855 87.6777 543.069 86.6357L544.348 88ZM537.269 81.1143C537.397 81.0391 537.634 80.9209 537.752 80.8779L541.608 85.0137C540.91 85.7441 539.675 86.2061 538.45 86.2061C536.624 86.2061 535.389 85.1963 535.389 83.7031C535.389 82.6611 536.012 81.7803 537.269 81.1143ZM538.407 78.4287C537.29 77.3438 536.893 76.6885 536.893 75.9258C536.893 74.8838 537.666 74.1426 538.751 74.1426C539.857 74.1426 540.62 74.8623 540.62 75.9258C540.62 76.9033 539.997 77.623 538.407 78.4287ZM558.302 88V72.499H555.53V88H558.302ZM562.695 73.3691V76.3232H560.837V78.4502H562.695V84.8633C562.695 87.1406 563.77 88.0537 566.466 88.0537C566.981 88.0537 567.476 88 567.862 87.9248V85.8408C567.54 85.873 567.336 85.8945 566.96 85.8945C565.843 85.8945 565.349 85.3789 565.349 84.2188V78.4502H567.862V76.3232H565.349V73.3691H562.695ZM575.35 78.1279C576.95 78.1279 578.003 79.2451 578.057 80.9854H572.524C572.643 79.2666 573.76 78.1279 575.35 78.1279ZM578.078 84.7666C577.691 85.6367 576.778 86.1201 575.457 86.1201C573.706 86.1201 572.578 84.8955 572.514 82.9404V82.8008H580.721V81.9414C580.721 78.2354 578.712 76.0117 575.36 76.0117C571.955 76.0117 569.839 78.3857 569.839 82.167C569.839 85.9482 571.923 88.2363 575.382 88.2363C578.153 88.2363 580.119 86.9043 580.603 84.7666H578.078ZM583.396 88H586.06V81.2109C586.06 79.5674 587.263 78.4932 588.992 78.4932C589.443 78.4932 590.152 78.5684 590.356 78.6436V76.1729C590.109 76.0977 589.637 76.0547 589.25 76.0547C587.735 76.0547 586.468 76.9141 586.146 78.0742H585.963V76.248H583.396V88ZM596.415 86.0986C595.233 86.0986 594.385 85.5078 594.385 84.5195C594.385 83.5635 595.083 83.0264 596.576 82.9297L599.229 82.7578V83.6924C599.229 85.0566 598.026 86.0986 596.415 86.0986ZM595.631 88.1934C597.167 88.1934 598.456 87.5273 599.111 86.3887H599.294V88H601.861V79.9756C601.861 77.4834 600.164 76.0117 597.146 76.0117C594.353 76.0117 592.408 77.333 592.193 79.4062H594.707C594.954 78.6113 595.792 78.1816 597.017 78.1816C598.456 78.1816 599.229 78.8262 599.229 79.9756V80.9639L596.2 81.1465C593.343 81.3184 591.742 82.543 591.742 84.6699C591.742 86.8184 593.364 88.1934 595.631 88.1934ZM605.922 73.3691V76.3232H604.063V78.4502H605.922V84.8633C605.922 87.1406 606.996 88.0537 609.692 88.0537C610.208 88.0537 610.702 88 611.089 87.9248V85.8408C610.767 85.873 610.562 85.8945 610.187 85.8945C609.069 85.8945 608.575 85.3789 608.575 84.2188V78.4502H611.089V76.3232H608.575V73.3691H605.922ZM613.785 88H616.438V76.248H613.785V88ZM615.106 74.3037C615.987 74.3037 616.696 73.5947 616.696 72.7031C616.696 71.8115 615.987 71.0918 615.106 71.0918C614.236 71.0918 613.517 71.8115 613.517 72.7031C613.517 73.5947 614.236 74.3037 615.106 74.3037ZM624.817 88.2363C628.33 88.2363 630.468 85.9375 630.468 82.124C630.468 78.3213 628.319 76.0117 624.817 76.0117C621.326 76.0117 619.167 78.332 619.167 82.124C619.167 85.9375 621.294 88.2363 624.817 88.2363ZM624.817 86.002C622.959 86.002 621.896 84.584 621.896 82.124C621.896 79.6748 622.959 78.2461 624.817 78.2461C626.665 78.2461 627.729 79.6748 627.729 82.124C627.729 84.584 626.676 86.002 624.817 86.002ZM633.153 88H635.817V81.1572C635.817 79.4277 636.816 78.332 638.406 78.332C640.028 78.332 640.78 79.2344 640.78 81.0283V88H643.444V80.3945C643.444 77.5908 642.016 76.0117 639.395 76.0117C637.644 76.0117 636.462 76.8174 635.903 78.1279H635.721V76.248H633.153V88Z" fill="black"/>
<path d="M712.987 88H715.759V81.6729H722.258V79.417H715.759V74.8301H722.87V72.499H712.987V88ZM727.038 74.293C727.908 74.293 728.628 73.5947 728.628 72.7139C728.628 71.8438 727.908 71.1348 727.038 71.1348C726.157 71.1348 725.438 71.8438 725.438 72.7139C725.438 73.5947 726.157 74.293 727.038 74.293ZM725.695 88H728.37V76.2588H725.695V88ZM731.657 88H734.332V81.1572C734.332 79.3955 735.32 78.2783 736.91 78.2783C738.532 78.2783 739.273 79.2021 739.273 81.0283V88H741.948V80.4053C741.948 77.6123 740.52 76.0332 737.898 76.0332C736.201 76.0332 735.073 76.7959 734.515 78.0527H734.332V76.2588H731.657V88ZM748.308 88.1934C749.854 88.1934 751.101 87.5273 751.745 86.3887H751.928V88H754.57V79.9756C754.57 77.4941 752.873 76.0332 749.854 76.0332C747.062 76.0332 745.171 77.3438 744.913 79.3203L744.902 79.417H747.427L747.438 79.374C747.706 78.6006 748.501 78.1602 749.726 78.1602C751.165 78.1602 751.928 78.8047 751.928 79.9756V80.9854L748.909 81.168C746.052 81.3398 744.451 82.5645 744.451 84.6592V84.6807C744.451 86.8184 746.073 88.1934 748.308 88.1934ZM747.094 84.5518V84.5303C747.094 83.5635 747.792 83.0156 749.285 82.9189L751.928 82.7471V83.6924C751.928 85.0889 750.735 86.1416 749.124 86.1416C747.942 86.1416 747.094 85.5508 747.094 84.5518ZM757.89 88H760.564V71.7148H757.89V88ZM770.093 88H775.904C780.545 88 783.198 85.1533 783.198 80.1904V80.1689C783.198 75.3135 780.513 72.499 775.904 72.499H770.093V88ZM772.864 85.6689V74.8301H775.539C778.579 74.8301 780.373 76.8066 780.373 80.2119V80.2334C780.373 83.7139 778.622 85.6689 775.539 85.6689H772.864ZM791.126 88.2363C794.316 88.2363 795.885 86.3994 796.261 84.8848L796.293 84.7881H793.747L793.715 84.8633C793.457 85.4004 792.63 86.1309 791.18 86.1309C789.364 86.1309 788.226 84.9062 788.193 82.8008H796.4V81.9199C796.4 78.375 794.338 76.0332 790.997 76.0332C787.656 76.0332 785.519 78.4502 785.519 82.1455V82.1562C785.519 85.8945 787.635 88.2363 791.126 88.2363ZM791.029 78.1279C792.522 78.1279 793.607 79.084 793.79 81.0068H788.215C788.419 79.1377 789.536 78.1279 791.029 78.1279ZM803.512 88.2363C806.401 88.2363 808.496 86.7432 808.496 84.5088V84.4873C808.496 82.7793 807.411 81.8018 805.112 81.2861L803.211 80.8672C801.943 80.5771 801.449 80.1582 801.449 79.4707V79.46C801.449 78.5791 802.309 77.999 803.501 77.999C804.758 77.999 805.531 78.6006 805.725 79.3418L805.735 79.374H808.249V79.3525C808.077 77.4512 806.369 76.0332 803.512 76.0332C800.74 76.0332 798.807 77.4941 798.807 79.6104V79.6211C798.807 81.3506 799.87 82.4033 802.104 82.8975L804.006 83.3271C805.295 83.6172 805.811 84.0684 805.811 84.7559V84.7773C805.811 85.6582 804.887 86.2598 803.555 86.2598C802.223 86.2598 801.438 85.6904 801.159 84.874L801.148 84.8525H798.495V84.874C798.721 86.8613 800.525 88.2363 803.512 88.2363ZM812.567 74.293C813.438 74.293 814.157 73.5947 814.157 72.7139C814.157 71.8438 813.438 71.1348 812.567 71.1348C811.687 71.1348 810.967 71.8438 810.967 72.7139C810.967 73.5947 811.687 74.293 812.567 74.293ZM811.225 88H813.899V76.2588H811.225V88ZM822.235 92.125C825.662 92.125 827.832 90.417 827.832 87.71V76.2588H825.157V78.1924H825.018C824.352 76.8604 823.084 76.0654 821.462 76.0654C818.433 76.0654 816.585 78.4072 816.585 81.8018V81.8232C816.585 85.1533 818.433 87.4521 821.408 87.4521C823.03 87.4521 824.309 86.7646 824.985 85.5078H825.168V87.7529C825.168 89.2568 824.104 90.1055 822.278 90.1055C820.785 90.1055 819.894 89.5791 819.711 88.8271L819.7 88.7949H817.025L817.015 88.8271C817.283 90.8037 819.142 92.125 822.235 92.125ZM822.235 85.3252C820.377 85.3252 819.324 83.8965 819.324 81.8232V81.8018C819.324 79.7285 820.377 78.2891 822.235 78.2891C824.083 78.2891 825.211 79.7285 825.211 81.8018V81.8232C825.211 83.8965 824.094 85.3252 822.235 85.3252ZM831.108 88H833.783V81.1572C833.783 79.3955 834.771 78.2783 836.361 78.2783C837.983 78.2783 838.725 79.2021 838.725 81.0283V88H841.399V80.4053C841.399 77.6123 839.971 76.0332 837.35 76.0332C835.652 76.0332 834.524 76.7959 833.966 78.0527H833.783V76.2588H831.108V88Z" fill="black"/>
<path d="M919.258 85.6045H911.996V81.2646H918.86V79.0088H911.996V74.8945H919.258V72.499H909.225V88H919.258V85.6045ZM932.664 76.248H929.85L927.153 85.3359H926.971L924.253 76.248H921.396L925.574 88H928.507L932.664 76.248ZM938.529 86.0986C937.348 86.0986 936.499 85.5078 936.499 84.5195C936.499 83.5635 937.197 83.0264 938.69 82.9297L941.344 82.7578V83.6924C941.344 85.0566 940.141 86.0986 938.529 86.0986ZM937.745 88.1934C939.281 88.1934 940.57 87.5273 941.226 86.3887H941.408V88H943.976V79.9756C943.976 77.4834 942.278 76.0117 939.26 76.0117C936.467 76.0117 934.522 77.333 934.308 79.4062H936.821C937.068 78.6113 937.906 78.1816 939.131 78.1816C940.57 78.1816 941.344 78.8262 941.344 79.9756V80.9639L938.314 81.1465C935.457 81.3184 933.856 82.543 933.856 84.6699C933.856 86.8184 935.479 88.1934 937.745 88.1934ZM947.295 88H949.959V71.7041H947.295V88ZM963.559 76.248H960.895V83.0908C960.895 84.8311 959.949 85.8945 958.22 85.8945C956.63 85.8945 955.889 85.0137 955.889 83.2197V76.248H953.225V83.8857C953.225 86.6357 954.729 88.2363 957.296 88.2363C959.09 88.2363 960.239 87.4736 960.809 86.1309H960.991V88H963.559V76.248ZM970.842 86.0986C969.66 86.0986 968.812 85.5078 968.812 84.5195C968.812 83.5635 969.51 83.0264 971.003 82.9297L973.656 82.7578V83.6924C973.656 85.0566 972.453 86.0986 970.842 86.0986ZM970.058 88.1934C971.594 88.1934 972.883 87.5273 973.538 86.3887H973.721V88H976.288V79.9756C976.288 77.4834 974.591 76.0117 971.572 76.0117C968.779 76.0117 966.835 77.333 966.62 79.4062H969.134C969.381 78.6113 970.219 78.1816 971.443 78.1816C972.883 78.1816 973.656 78.8262 973.656 79.9756V80.9639L970.627 81.1465C967.77 81.3184 966.169 82.543 966.169 84.6699C966.169 86.8184 967.791 88.1934 970.058 88.1934ZM980.349 73.3691V76.3232H978.49V78.4502H980.349V84.8633C980.349 87.1406 981.423 88.0537 984.119 88.0537C984.635 88.0537 985.129 88 985.516 87.9248V85.8408C985.193 85.873 984.989 85.8945 984.613 85.8945C983.496 85.8945 983.002 85.3789 983.002 84.2188V78.4502H985.516V76.3232H983.002V73.3691H980.349ZM988.212 88H990.865V76.248H988.212V88ZM989.533 74.3037C990.414 74.3037 991.123 73.5947 991.123 72.7031C991.123 71.8115 990.414 71.0918 989.533 71.0918C988.663 71.0918 987.943 71.8115 987.943 72.7031C987.943 73.5947 988.663 74.3037 989.533 74.3037ZM999.244 88.2363C1002.76 88.2363 1004.89 85.9375 1004.89 82.124C1004.89 78.3213 1002.75 76.0117 999.244 76.0117C995.753 76.0117 993.594 78.332 993.594 82.124C993.594 85.9375 995.721 88.2363 999.244 88.2363ZM999.244 86.002C997.386 86.002 996.322 84.584 996.322 82.124C996.322 79.6748 997.386 78.2461 999.244 78.2461C1001.09 78.2461 1002.16 79.6748 1002.16 82.124C1002.16 84.584 1001.1 86.002 999.244 86.002ZM1007.58 88H1010.24V81.1572C1010.24 79.4277 1011.24 78.332 1012.83 78.332C1014.46 78.332 1015.21 79.2344 1015.21 81.0283V88H1017.87V80.3945C1017.87 77.5908 1016.44 76.0117 1013.82 76.0117C1012.07 76.0117 1010.89 76.8174 1010.33 78.1279H1010.15V76.248H1007.58V88ZM1037.97 88H1041.08L1038.28 85.0244C1039.12 83.8213 1039.58 82.1455 1039.58 80.083V79.374H1037.25V79.9541C1037.25 81.4795 1037.05 82.5107 1036.64 83.2734L1033.34 79.7822C1035.58 78.5898 1036.56 77.3438 1036.56 75.7539C1036.56 73.6699 1034.81 72.209 1032.36 72.209C1029.92 72.209 1028.12 73.7236 1028.12 75.7861C1028.12 76.9141 1028.63 77.8916 1030.05 79.3633C1029.93 79.417 1029.49 79.6748 1029.4 79.7178C1027.38 80.8027 1026.44 82.124 1026.44 83.918C1026.44 86.5498 1028.58 88.29 1031.8 88.29C1033.69 88.29 1035.48 87.6777 1036.69 86.6357L1037.97 88ZM1030.89 81.1143C1031.02 81.0391 1031.26 80.9209 1031.37 80.8779L1035.23 85.0137C1034.53 85.7441 1033.3 86.2061 1032.07 86.2061C1030.25 86.2061 1029.01 85.1963 1029.01 83.7031C1029.01 82.6611 1029.63 81.7803 1030.89 81.1143ZM1032.03 78.4287C1030.91 77.3438 1030.51 76.6885 1030.51 75.9258C1030.51 74.8838 1031.29 74.1426 1032.37 74.1426C1033.48 74.1426 1034.24 74.8623 1034.24 75.9258C1034.24 76.9033 1033.62 77.623 1032.03 78.4287ZM1051.92 88V81.7158H1058.42V79.4062H1051.92V74.8945H1059.04V72.499H1049.15V88H1051.92ZM1072.05 76.248H1069.39V83.0908C1069.39 84.8311 1068.45 85.8945 1066.72 85.8945C1065.13 85.8945 1064.38 85.0137 1064.38 83.2197V76.248H1061.72V83.8857C1061.72 86.6357 1063.22 88.2363 1065.79 88.2363C1067.59 88.2363 1068.74 87.4736 1069.3 86.1309H1069.49V88H1072.05V76.248ZM1076.17 73.3691V76.3232H1074.31V78.4502H1076.17V84.8633C1076.17 87.1406 1077.24 88.0537 1079.94 88.0537C1080.46 88.0537 1080.95 88 1081.34 87.9248V85.8408C1081.01 85.873 1080.81 85.8945 1080.43 85.8945C1079.32 85.8945 1078.82 85.3789 1078.82 84.2188V78.4502H1081.34V76.3232H1078.82V73.3691H1076.17ZM1094.23 76.248H1091.56V83.0908C1091.56 84.8311 1090.62 85.8945 1088.89 85.8945C1087.3 85.8945 1086.56 85.0137 1086.56 83.2197V76.248H1083.89V83.8857C1083.89 86.6357 1085.4 88.2363 1087.96 88.2363C1089.76 88.2363 1090.91 87.4736 1091.48 86.1309H1091.66V88H1094.23V76.248ZM1097.49 88H1100.16V81.2109C1100.16 79.5674 1101.36 78.4932 1103.09 78.4932C1103.54 78.4932 1104.25 78.5684 1104.45 78.6436V76.1729C1104.21 76.0977 1103.73 76.0547 1103.35 76.0547C1101.83 76.0547 1100.56 76.9141 1100.24 78.0742H1100.06V76.248H1097.49V88ZM1111.27 78.1279C1112.88 78.1279 1113.93 79.2451 1113.98 80.9854H1108.45C1108.57 79.2666 1109.68 78.1279 1111.27 78.1279ZM1114 84.7666C1113.62 85.6367 1112.7 86.1201 1111.38 86.1201C1109.63 86.1201 1108.5 84.8955 1108.44 82.9404V82.8008H1116.65V81.9414C1116.65 78.2354 1114.64 76.0117 1111.29 76.0117C1107.88 76.0117 1105.76 78.3857 1105.76 82.167C1105.76 85.9482 1107.85 88.2363 1111.31 88.2363C1114.08 88.2363 1116.04 86.9043 1116.53 84.7666H1114Z" fill="black"/>
<rect x="251" y="117" width="6" height="68" fill="#DBDBDB"/>
<path d="M274.358 132V122.136H272.834V126.278H267.769V122.136H266.237V132H267.769V127.673H272.834V132H274.358ZM279.718 125.663C280.805 125.663 281.516 126.422 281.55 127.591H277.79C277.872 126.429 278.631 125.663 279.718 125.663ZM281.543 129.99C281.27 130.571 280.661 130.893 279.772 130.893C278.597 130.893 277.838 130.065 277.79 128.76V128.678H283.047V128.165C283.047 125.827 281.796 124.412 279.725 124.412C277.626 124.412 276.293 125.923 276.293 128.302C276.293 130.681 277.599 132.144 279.731 132.144C281.434 132.144 282.637 131.316 282.958 129.99H281.543ZM291.086 124.556H289.616V128.91C289.616 130.079 288.967 130.783 287.777 130.783C286.697 130.783 286.212 130.209 286.212 129.006V124.556H284.742V129.389C284.742 131.139 285.658 132.144 287.306 132.144C288.434 132.144 289.192 131.665 289.555 130.817H289.671V132H291.086V124.556ZM293.219 132H294.688V127.604C294.688 126.559 295.475 125.854 296.589 125.854C296.849 125.854 297.286 125.902 297.409 125.943V124.494C297.252 124.453 296.972 124.433 296.753 124.433C295.782 124.433 294.955 124.966 294.743 125.697H294.634V124.556H293.219V132ZM298.852 132H300.314V124.556H298.852V132ZM299.583 123.264C300.096 123.264 300.513 122.833 300.513 122.307C300.513 121.773 300.096 121.343 299.583 121.343C299.07 121.343 298.653 121.773 298.653 122.307C298.653 122.833 299.07 123.264 299.583 123.264ZM302.304 126.661C302.304 127.769 302.96 128.404 304.375 128.739L305.674 129.04C306.419 129.218 306.768 129.505 306.768 129.949C306.768 130.544 306.118 130.954 305.202 130.954C304.313 130.954 303.767 130.599 303.582 130.024H302.112C302.242 131.344 303.397 132.144 305.168 132.144C306.945 132.144 308.251 131.207 308.251 129.806C308.251 128.712 307.588 128.104 306.173 127.775L304.936 127.488C304.129 127.304 303.753 127.023 303.753 126.579C303.753 125.998 304.375 125.608 305.195 125.608C306.029 125.608 306.562 125.957 306.699 126.504H308.107C307.964 125.191 306.87 124.412 305.195 124.412C303.514 124.412 302.304 125.342 302.304 126.661ZM310.486 122.703V124.59H309.304V125.827H310.486V130.031C310.486 131.467 311.136 132.041 312.77 132.041C313.057 132.041 313.33 132.007 313.569 131.966V130.742C313.364 130.763 313.234 130.776 313.009 130.776C312.277 130.776 311.956 130.435 311.956 129.655V125.827H313.569V124.59H311.956V122.703H310.486ZM315.326 132H316.789V124.556H315.326V132ZM316.058 123.264C316.57 123.264 316.987 122.833 316.987 122.307C316.987 121.773 316.57 121.343 316.058 121.343C315.545 121.343 315.128 121.773 315.128 122.307C315.128 122.833 315.545 123.264 316.058 123.264ZM325.252 126.989C325.061 125.499 323.933 124.412 322.066 124.412C319.899 124.412 318.58 125.868 318.58 128.254C318.58 130.681 319.906 132.144 322.073 132.144C323.912 132.144 325.061 131.104 325.252 129.607H323.823C323.632 130.407 322.996 130.831 322.066 130.831C320.843 130.831 320.084 129.867 320.084 128.254C320.084 126.668 320.836 125.725 322.066 125.725C323.051 125.725 323.652 126.265 323.823 126.989H325.252ZM337.194 130.605H332.464V127.646H336.941V126.319H332.464V123.53H337.194V122.136H330.933V132H337.194V130.605ZM345.541 124.556H343.982L342.137 130.428H342.021L340.168 124.556H338.596L341.282 132H342.861L345.541 124.556ZM349.205 130.886C348.405 130.886 347.824 130.496 347.824 129.826C347.824 129.17 348.289 128.821 349.314 128.753L351.133 128.637V129.259C351.133 130.182 350.312 130.886 349.205 130.886ZM348.829 132.123C349.807 132.123 350.62 131.699 351.064 130.954H351.181V132H352.596V126.914C352.596 125.342 351.543 124.412 349.677 124.412C347.988 124.412 346.785 125.232 346.635 126.511H348.057C348.221 125.984 348.788 125.684 349.608 125.684C350.613 125.684 351.133 126.128 351.133 126.914V127.557L349.116 127.673C347.346 127.782 346.348 128.555 346.348 129.895C346.348 131.255 347.394 132.123 348.829 132.123ZM354.756 132H356.226V121.65H354.756V132ZM364.709 124.556H363.239V128.91C363.239 130.079 362.59 130.783 361.4 130.783C360.32 130.783 359.835 130.209 359.835 129.006V124.556H358.365V129.389C358.365 131.139 359.281 132.144 360.929 132.144C362.057 132.144 362.815 131.665 363.178 130.817H363.294V132H364.709V124.556ZM369.275 130.886C368.476 130.886 367.895 130.496 367.895 129.826C367.895 129.17 368.359 128.821 369.385 128.753L371.203 128.637V129.259C371.203 130.182 370.383 130.886 369.275 130.886ZM368.899 132.123C369.877 132.123 370.69 131.699 371.135 130.954H371.251V132H372.666V126.914C372.666 125.342 371.613 124.412 369.747 124.412C368.059 124.412 366.855 125.232 366.705 126.511H368.127C368.291 125.984 368.858 125.684 369.679 125.684C370.684 125.684 371.203 126.128 371.203 126.914V127.557L369.187 127.673C367.416 127.782 366.418 128.555 366.418 129.895C366.418 131.255 367.464 132.123 368.899 132.123ZM375.277 122.703V124.59H374.095V125.827H375.277V130.031C375.277 131.467 375.927 132.041 377.561 132.041C377.848 132.041 378.121 132.007 378.36 131.966V130.742C378.155 130.763 378.025 130.776 377.8 130.776C377.068 130.776 376.747 130.435 376.747 129.655V125.827H378.36V124.59H376.747V122.703H375.277ZM380.117 132H381.58V124.556H380.117V132ZM380.849 123.264C381.361 123.264 381.778 122.833 381.778 122.307C381.778 121.773 381.361 121.343 380.849 121.343C380.336 121.343 379.919 121.773 379.919 122.307C379.919 122.833 380.336 123.264 380.849 123.264ZM386.885 132.144C389.059 132.144 390.392 130.688 390.392 128.274C390.392 125.875 389.052 124.412 386.885 124.412C384.711 124.412 383.371 125.875 383.371 128.274C383.371 130.688 384.704 132.144 386.885 132.144ZM386.885 130.838C385.606 130.838 384.889 129.901 384.889 128.274C384.889 126.661 385.606 125.718 386.885 125.718C388.156 125.718 388.881 126.661 388.881 128.274C388.881 129.895 388.156 130.838 386.885 130.838ZM392.162 132H393.632V127.646C393.632 126.483 394.322 125.759 395.409 125.759C396.496 125.759 397.016 126.354 397.016 127.55V132H398.485V127.181C398.485 125.41 397.569 124.412 395.908 124.412C394.787 124.412 394.049 124.911 393.687 125.738H393.577V124.556H392.162V132ZM270.284 157.239C272.485 157.239 274.105 155.94 274.379 153.992H272.854C272.581 155.106 271.59 155.811 270.284 155.811C268.507 155.811 267.399 154.368 267.399 152.071C267.399 149.768 268.507 148.325 270.277 148.325C271.576 148.325 272.567 149.104 272.854 150.314H274.379C274.133 148.305 272.451 146.896 270.277 146.896C267.536 146.896 265.834 148.872 265.834 152.071C265.834 155.264 267.543 157.239 270.284 157.239ZM279.369 157.144C281.543 157.144 282.876 155.688 282.876 153.274C282.876 150.875 281.536 149.412 279.369 149.412C277.195 149.412 275.855 150.875 275.855 153.274C275.855 155.688 277.188 157.144 279.369 157.144ZM279.369 155.838C278.091 155.838 277.373 154.901 277.373 153.274C277.373 151.661 278.091 150.718 279.369 150.718C280.641 150.718 281.365 151.661 281.365 153.274C281.365 154.895 280.641 155.838 279.369 155.838ZM284.646 157H286.116V152.447C286.116 151.49 286.793 150.759 287.688 150.759C288.563 150.759 289.124 151.271 289.124 152.112V157H290.566V152.317C290.566 151.442 291.188 150.759 292.139 150.759C293.103 150.759 293.581 151.251 293.581 152.256V157H295.051V151.873C295.051 150.321 294.176 149.412 292.672 149.412C291.64 149.412 290.785 149.938 290.409 150.752H290.293C289.965 149.938 289.261 149.412 288.242 149.412C287.251 149.412 286.499 149.911 286.171 150.752H286.062V149.556H284.646V157ZM300.978 149.433C299.966 149.433 299.091 149.938 298.64 150.786H298.53V149.556H297.115V159.475H298.585V155.872H298.701C299.091 156.658 299.932 157.123 300.991 157.123C302.871 157.123 304.067 155.64 304.067 153.274C304.067 150.909 302.871 149.433 300.978 149.433ZM300.561 155.804C299.33 155.804 298.558 154.833 298.558 153.281C298.558 151.723 299.33 150.752 300.567 150.752C301.812 150.752 302.557 151.702 302.557 153.274C302.557 154.854 301.812 155.804 300.561 155.804ZM308.894 150.663C309.98 150.663 310.691 151.422 310.726 152.591H306.966C307.048 151.429 307.807 150.663 308.894 150.663ZM310.719 154.99C310.445 155.571 309.837 155.893 308.948 155.893C307.772 155.893 307.014 155.065 306.966 153.76V153.678H312.223V153.165C312.223 150.827 310.972 149.412 308.9 149.412C306.802 149.412 305.469 150.923 305.469 153.302C305.469 155.681 306.774 157.144 308.907 157.144C310.609 157.144 311.812 156.316 312.134 154.99H310.719ZM314.506 147.703V149.59H313.323V150.827H314.506V155.031C314.506 156.467 315.155 157.041 316.789 157.041C317.076 157.041 317.35 157.007 317.589 156.966V155.742C317.384 155.763 317.254 155.776 317.028 155.776C316.297 155.776 315.976 155.435 315.976 154.655V150.827H317.589V149.59H315.976V147.703H314.506ZM319.346 157H320.809V149.556H319.346V157ZM320.077 148.264C320.59 148.264 321.007 147.833 321.007 147.307C321.007 146.773 320.59 146.343 320.077 146.343C319.564 146.343 319.147 146.773 319.147 147.307C319.147 147.833 319.564 148.264 320.077 148.264ZM323.488 147.703V149.59H322.306V150.827H323.488V155.031C323.488 156.467 324.138 157.041 325.771 157.041C326.059 157.041 326.332 157.007 326.571 156.966V155.742C326.366 155.763 326.236 155.776 326.011 155.776C325.279 155.776 324.958 155.435 324.958 154.655V150.827H326.571V149.59H324.958V147.703H323.488ZM328.328 157H329.791V149.556H328.328V157ZM329.06 148.264C329.572 148.264 329.989 147.833 329.989 147.307C329.989 146.773 329.572 146.343 329.06 146.343C328.547 146.343 328.13 146.773 328.13 147.307C328.13 147.833 328.547 148.264 329.06 148.264ZM338.254 149.556H336.695L334.85 155.428H334.733L332.881 149.556H331.309L333.995 157H335.574L338.254 149.556ZM342.513 150.663C343.6 150.663 344.311 151.422 344.345 152.591H340.585C340.667 151.429 341.426 150.663 342.513 150.663ZM344.338 154.99C344.064 155.571 343.456 155.893 342.567 155.893C341.392 155.893 340.633 155.065 340.585 153.76V153.678H345.842V153.165C345.842 150.827 344.591 149.412 342.52 149.412C340.421 149.412 339.088 150.923 339.088 153.302C339.088 155.681 340.394 157.144 342.526 157.144C344.229 157.144 345.432 156.316 345.753 154.99H344.338ZM357.989 157H359.616L356.055 147.136H354.407L350.846 157H352.418L353.327 154.382H357.087L357.989 157ZM355.152 148.927H355.269L356.697 153.097H353.717L355.152 148.927ZM361.168 157H362.638V152.646C362.638 151.483 363.328 150.759 364.415 150.759C365.502 150.759 366.021 151.354 366.021 152.55V157H367.491V152.181C367.491 150.41 366.575 149.412 364.914 149.412C363.793 149.412 363.055 149.911 362.692 150.738H362.583V149.556H361.168V157ZM371.996 155.886C371.196 155.886 370.615 155.496 370.615 154.826C370.615 154.17 371.08 153.821 372.105 153.753L373.924 153.637V154.259C373.924 155.182 373.104 155.886 371.996 155.886ZM371.62 157.123C372.598 157.123 373.411 156.699 373.855 155.954H373.972V157H375.387V151.914C375.387 150.342 374.334 149.412 372.468 149.412C370.779 149.412 369.576 150.232 369.426 151.511H370.848C371.012 150.984 371.579 150.684 372.399 150.684C373.404 150.684 373.924 151.128 373.924 151.914V152.557L371.907 152.673C370.137 152.782 369.139 153.555 369.139 154.895C369.139 156.255 370.185 157.123 371.62 157.123ZM377.547 157H379.017V146.65H377.547V157ZM381.963 159.7C383.48 159.7 384.185 159.119 384.82 157.308L387.596 149.556H386.037L384.178 155.469H384.062L382.195 149.556H380.596L383.289 157.027L383.18 157.39C382.927 158.142 382.53 158.429 381.833 158.429C381.696 158.429 381.471 158.422 381.354 158.401V159.666C381.491 159.687 381.84 159.7 381.963 159.7ZM388.724 151.661C388.724 152.769 389.38 153.404 390.795 153.739L392.094 154.04C392.839 154.218 393.188 154.505 393.188 154.949C393.188 155.544 392.538 155.954 391.622 155.954C390.733 155.954 390.187 155.599 390.002 155.024H388.532C388.662 156.344 389.817 157.144 391.588 157.144C393.365 157.144 394.671 156.207 394.671 154.806C394.671 153.712 394.008 153.104 392.593 152.775L391.355 152.488C390.549 152.304 390.173 152.023 390.173 151.579C390.173 150.998 390.795 150.608 391.615 150.608C392.449 150.608 392.982 150.957 393.119 151.504H394.527C394.384 150.191 393.29 149.412 391.615 149.412C389.934 149.412 388.724 150.342 388.724 151.661ZM396.469 157H397.932V149.556H396.469V157ZM397.2 148.264C397.713 148.264 398.13 147.833 398.13 147.307C398.13 146.773 397.713 146.343 397.2 146.343C396.688 146.343 396.271 146.773 396.271 147.307C396.271 147.833 396.688 148.264 397.2 148.264ZM399.921 151.661C399.921 152.769 400.577 153.404 401.992 153.739L403.291 154.04C404.036 154.218 404.385 154.505 404.385 154.949C404.385 155.544 403.735 155.954 402.819 155.954C401.931 155.954 401.384 155.599 401.199 155.024H399.729C399.859 156.344 401.015 157.144 402.785 157.144C404.562 157.144 405.868 156.207 405.868 154.806C405.868 153.712 405.205 153.104 403.79 152.775L402.553 152.488C401.746 152.304 401.37 152.023 401.37 151.579C401.37 150.998 401.992 150.608 402.812 150.608C403.646 150.608 404.18 150.957 404.316 151.504H405.725C405.581 150.191 404.487 149.412 402.812 149.412C401.131 149.412 399.921 150.342 399.921 151.661ZM267.755 172.136H266.224V178.603C266.224 180.742 267.748 182.239 270.216 182.239C272.697 182.239 274.215 180.742 274.215 178.603V172.136H272.684V178.466C272.684 179.847 271.788 180.804 270.216 180.804C268.65 180.804 267.755 179.847 267.755 178.466V172.136ZM276.341 176.661C276.341 177.769 276.997 178.404 278.412 178.739L279.711 179.04C280.456 179.218 280.805 179.505 280.805 179.949C280.805 180.544 280.155 180.954 279.239 180.954C278.351 180.954 277.804 180.599 277.619 180.024H276.149C276.279 181.344 277.435 182.144 279.205 182.144C280.982 182.144 282.288 181.207 282.288 179.806C282.288 178.712 281.625 178.104 280.21 177.775L278.973 177.488C278.166 177.304 277.79 177.023 277.79 176.579C277.79 175.998 278.412 175.608 279.232 175.608C280.066 175.608 280.6 175.957 280.736 176.504H282.145C282.001 175.191 280.907 174.412 279.232 174.412C277.551 174.412 276.341 175.342 276.341 176.661ZM287.114 175.663C288.201 175.663 288.912 176.422 288.946 177.591H285.187C285.269 176.429 286.027 175.663 287.114 175.663ZM288.939 179.99C288.666 180.571 288.058 180.893 287.169 180.893C285.993 180.893 285.234 180.065 285.187 178.76V178.678H290.443V178.165C290.443 175.827 289.192 174.412 287.121 174.412C285.022 174.412 283.689 175.923 283.689 178.302C283.689 180.681 284.995 182.144 287.128 182.144C288.83 182.144 290.033 181.316 290.354 179.99H288.939ZM292.207 182H293.677V177.604C293.677 176.559 294.463 175.854 295.577 175.854C295.837 175.854 296.274 175.902 296.397 175.943V174.494C296.24 174.453 295.96 174.433 295.741 174.433C294.771 174.433 293.943 174.966 293.731 175.697H293.622V174.556H292.207V182ZM305.845 182V173.53H308.941V172.136H301.21V173.53H304.313V182H305.845ZM312.366 175.663C313.453 175.663 314.164 176.422 314.198 177.591H310.438C310.521 176.429 311.279 175.663 312.366 175.663ZM314.191 179.99C313.918 180.571 313.31 180.893 312.421 180.893C311.245 180.893 310.486 180.065 310.438 178.76V178.678H315.695V178.165C315.695 175.827 314.444 174.412 312.373 174.412C310.274 174.412 308.941 175.923 308.941 178.302C308.941 180.681 310.247 182.144 312.38 182.144C314.082 182.144 315.285 181.316 315.606 179.99H314.191ZM317.288 176.661C317.288 177.769 317.944 178.404 319.359 178.739L320.658 179.04C321.403 179.218 321.752 179.505 321.752 179.949C321.752 180.544 321.103 180.954 320.187 180.954C319.298 180.954 318.751 180.599 318.566 180.024H317.097C317.227 181.344 318.382 182.144 320.152 182.144C321.93 182.144 323.235 181.207 323.235 179.806C323.235 178.712 322.572 178.104 321.157 177.775L319.92 177.488C319.113 177.304 318.737 177.023 318.737 176.579C318.737 175.998 319.359 175.608 320.18 175.608C321.014 175.608 321.547 175.957 321.684 176.504H323.092C322.948 175.191 321.854 174.412 320.18 174.412C318.498 174.412 317.288 175.342 317.288 176.661ZM325.471 172.703V174.59H324.288V175.827H325.471V180.031C325.471 181.467 326.12 182.041 327.754 182.041C328.041 182.041 328.314 182.007 328.554 181.966V180.742C328.349 180.763 328.219 180.776 327.993 180.776C327.262 180.776 326.94 180.435 326.94 179.655V175.827H328.554V174.59H326.94V172.703H325.471ZM330.311 182H331.773V174.556H330.311V182ZM331.042 173.264C331.555 173.264 331.972 172.833 331.972 172.307C331.972 171.773 331.555 171.343 331.042 171.343C330.529 171.343 330.112 171.773 330.112 172.307C330.112 172.833 330.529 173.264 331.042 173.264ZM333.934 182H335.403V177.646C335.403 176.483 336.094 175.759 337.181 175.759C338.268 175.759 338.787 176.354 338.787 177.55V182H340.257V177.181C340.257 175.41 339.341 174.412 337.68 174.412C336.559 174.412 335.82 174.911 335.458 175.738H335.349V174.556H333.934V182ZM345.445 180.619C344.181 180.619 343.47 179.669 343.47 178.186C343.47 176.702 344.181 175.752 345.445 175.752C346.696 175.752 347.462 176.702 347.462 178.186C347.462 179.676 346.703 180.619 345.445 180.619ZM345.466 184.844C347.571 184.844 348.904 183.764 348.904 182.062V174.556H347.496V175.745H347.38C346.963 174.938 346.067 174.433 345.042 174.433C343.142 174.433 341.952 175.923 341.952 178.192C341.952 180.421 343.128 181.891 345.028 181.891C346.054 181.891 346.874 181.446 347.325 180.64H347.435V182.068C347.435 183.053 346.71 183.634 345.486 183.634C344.495 183.634 343.873 183.285 343.75 182.745H342.246C342.403 184.01 343.606 184.844 345.466 184.844Z" fill="black"/>
<rect x="451" y="115" width="6" height="119" fill="#DBDBDB"/>
<path d="M466.237 122.136V132H469.799C472.738 132 474.44 130.188 474.44 127.037C474.44 123.934 472.725 122.136 469.799 122.136H466.237ZM467.769 123.53H469.628C471.672 123.53 472.882 124.829 472.882 127.058C472.882 129.32 471.692 130.605 469.628 130.605H467.769V123.53ZM479.403 125.663C480.49 125.663 481.201 126.422 481.235 127.591H477.476C477.558 126.429 478.316 125.663 479.403 125.663ZM481.229 129.99C480.955 130.571 480.347 130.893 479.458 130.893C478.282 130.893 477.523 130.065 477.476 128.76V128.678H482.732V128.165C482.732 125.827 481.481 124.412 479.41 124.412C477.312 124.412 475.979 125.923 475.979 128.302C475.979 130.681 477.284 132.144 479.417 132.144C481.119 132.144 482.322 131.316 482.644 129.99H481.229ZM484.325 126.661C484.325 127.769 484.981 128.404 486.396 128.739L487.695 129.04C488.44 129.218 488.789 129.505 488.789 129.949C488.789 130.544 488.14 130.954 487.224 130.954C486.335 130.954 485.788 130.599 485.604 130.024H484.134C484.264 131.344 485.419 132.144 487.189 132.144C488.967 132.144 490.272 131.207 490.272 129.806C490.272 128.712 489.609 128.104 488.194 127.775L486.957 127.488C486.15 127.304 485.774 127.023 485.774 126.579C485.774 125.998 486.396 125.608 487.217 125.608C488.051 125.608 488.584 125.957 488.721 126.504H490.129C489.985 125.191 488.892 124.412 487.217 124.412C485.535 124.412 484.325 125.342 484.325 126.661ZM492.07 132H493.533V124.556H492.07V132ZM492.802 123.264C493.314 123.264 493.731 122.833 493.731 122.307C493.731 121.773 493.314 121.343 492.802 121.343C492.289 121.343 491.872 121.773 491.872 122.307C491.872 122.833 492.289 123.264 492.802 123.264ZM498.811 130.619C497.546 130.619 496.835 129.669 496.835 128.186C496.835 126.702 497.546 125.752 498.811 125.752C500.062 125.752 500.827 126.702 500.827 128.186C500.827 129.676 500.068 130.619 498.811 130.619ZM498.831 134.844C500.937 134.844 502.27 133.764 502.27 132.062V124.556H500.861V125.745H500.745C500.328 124.938 499.433 124.433 498.407 124.433C496.507 124.433 495.317 125.923 495.317 128.192C495.317 130.421 496.493 131.891 498.394 131.891C499.419 131.891 500.239 131.446 500.69 130.64H500.8V132.068C500.8 133.053 500.075 133.634 498.852 133.634C497.86 133.634 497.238 133.285 497.115 132.745H495.611C495.769 134.01 496.972 134.844 498.831 134.844ZM504.402 132H505.872V127.646C505.872 126.483 506.562 125.759 507.649 125.759C508.736 125.759 509.256 126.354 509.256 127.55V132H510.726V127.181C510.726 125.41 509.81 124.412 508.148 124.412C507.027 124.412 506.289 124.911 505.927 125.738H505.817V124.556H504.402V132ZM523.181 132H524.808L521.246 122.136H519.599L516.037 132H517.609L518.519 129.382H522.278L523.181 132ZM520.344 123.927H520.46L521.889 128.097H518.908L520.344 123.927ZM532.252 126.989C532.061 125.499 530.933 124.412 529.066 124.412C526.899 124.412 525.58 125.868 525.58 128.254C525.58 130.681 526.906 132.144 529.073 132.144C530.912 132.144 532.061 131.104 532.252 129.607H530.823C530.632 130.407 529.996 130.831 529.066 130.831C527.843 130.831 527.084 129.867 527.084 128.254C527.084 126.668 527.836 125.725 529.066 125.725C530.051 125.725 530.652 126.265 530.823 126.989H532.252ZM534.562 122.703V124.59H533.38V125.827H534.562V130.031C534.562 131.467 535.212 132.041 536.846 132.041C537.133 132.041 537.406 132.007 537.646 131.966V130.742C537.44 130.763 537.311 130.776 537.085 130.776C536.354 130.776 536.032 130.435 536.032 129.655V125.827H537.646V124.59H536.032V122.703H534.562ZM539.402 132H540.865V124.556H539.402V132ZM540.134 123.264C540.646 123.264 541.063 122.833 541.063 122.307C541.063 121.773 540.646 121.343 540.134 121.343C539.621 121.343 539.204 121.773 539.204 122.307C539.204 122.833 539.621 123.264 540.134 123.264ZM546.17 132.144C548.344 132.144 549.677 130.688 549.677 128.274C549.677 125.875 548.337 124.412 546.17 124.412C543.996 124.412 542.656 125.875 542.656 128.274C542.656 130.688 543.989 132.144 546.17 132.144ZM546.17 130.838C544.892 130.838 544.174 129.901 544.174 128.274C544.174 126.661 544.892 125.718 546.17 125.718C547.441 125.718 548.166 126.661 548.166 128.274C548.166 129.895 547.441 130.838 546.17 130.838ZM551.447 132H552.917V127.646C552.917 126.483 553.607 125.759 554.694 125.759C555.781 125.759 556.301 126.354 556.301 127.55V132H557.771V127.181C557.771 125.41 556.854 124.412 555.193 124.412C554.072 124.412 553.334 124.911 552.972 125.738H552.862V124.556H551.447V132ZM559.671 126.661C559.671 127.769 560.327 128.404 561.742 128.739L563.041 129.04C563.786 129.218 564.135 129.505 564.135 129.949C564.135 130.544 563.485 130.954 562.569 130.954C561.681 130.954 561.134 130.599 560.949 130.024H559.479C559.609 131.344 560.765 132.144 562.535 132.144C564.312 132.144 565.618 131.207 565.618 129.806C565.618 128.712 564.955 128.104 563.54 127.775L562.303 127.488C561.496 127.304 561.12 127.023 561.12 126.579C561.12 125.998 561.742 125.608 562.562 125.608C563.396 125.608 563.93 125.957 564.066 126.504H565.475C565.331 125.191 564.237 124.412 562.562 124.412C560.881 124.412 559.671 125.342 559.671 126.661ZM467.769 157V147.136H466.237V157H467.769ZM472.793 157.123C473.818 157.123 474.687 156.638 475.131 155.824H475.247V157H476.655V146.65H475.186V150.738H475.076C474.673 149.918 473.812 149.433 472.793 149.433C470.913 149.433 469.703 150.923 469.703 153.274C469.703 155.633 470.899 157.123 472.793 157.123ZM473.21 150.752C474.44 150.752 475.213 151.729 475.213 153.281C475.213 154.84 474.447 155.804 473.21 155.804C471.966 155.804 471.221 154.854 471.221 153.274C471.221 151.709 471.973 150.752 473.21 150.752ZM481.919 150.663C483.006 150.663 483.717 151.422 483.751 152.591H479.991C480.073 151.429 480.832 150.663 481.919 150.663ZM483.744 154.99C483.471 155.571 482.862 155.893 481.974 155.893C480.798 155.893 480.039 155.065 479.991 153.76V153.678H485.248V153.165C485.248 150.827 483.997 149.412 481.926 149.412C479.827 149.412 478.494 150.923 478.494 153.302C478.494 155.681 479.8 157.144 481.933 157.144C483.635 157.144 484.838 156.316 485.159 154.99H483.744ZM489.445 155.886C488.646 155.886 488.064 155.496 488.064 154.826C488.064 154.17 488.529 153.821 489.555 153.753L491.373 153.637V154.259C491.373 155.182 490.553 155.886 489.445 155.886ZM489.069 157.123C490.047 157.123 490.86 156.699 491.305 155.954H491.421V157H492.836V151.914C492.836 150.342 491.783 149.412 489.917 149.412C488.229 149.412 487.025 150.232 486.875 151.511H488.297C488.461 150.984 489.028 150.684 489.849 150.684C490.854 150.684 491.373 151.128 491.373 151.914V152.557L489.356 152.673C487.586 152.782 486.588 153.555 486.588 154.895C486.588 156.255 487.634 157.123 489.069 157.123ZM495.447 147.703V149.59H494.265V150.827H495.447V155.031C495.447 156.467 496.097 157.041 497.73 157.041C498.018 157.041 498.291 157.007 498.53 156.966V155.742C498.325 155.763 498.195 155.776 497.97 155.776C497.238 155.776 496.917 155.435 496.917 154.655V150.827H498.53V149.59H496.917V147.703H495.447ZM500.287 157H501.75V149.556H500.287V157ZM501.019 148.264C501.531 148.264 501.948 147.833 501.948 147.307C501.948 146.773 501.531 146.343 501.019 146.343C500.506 146.343 500.089 146.773 500.089 147.307C500.089 147.833 500.506 148.264 501.019 148.264ZM507.055 157.144C509.229 157.144 510.562 155.688 510.562 153.274C510.562 150.875 509.222 149.412 507.055 149.412C504.881 149.412 503.541 150.875 503.541 153.274C503.541 155.688 504.874 157.144 507.055 157.144ZM507.055 155.838C505.776 155.838 505.059 154.901 505.059 153.274C505.059 151.661 505.776 150.718 507.055 150.718C508.326 150.718 509.051 151.661 509.051 153.274C509.051 154.895 508.326 155.838 507.055 155.838ZM512.332 157H513.802V152.646C513.802 151.483 514.492 150.759 515.579 150.759C516.666 150.759 517.186 151.354 517.186 152.55V157H518.655V152.181C518.655 150.41 517.739 149.412 516.078 149.412C514.957 149.412 514.219 149.911 513.856 150.738H513.747V149.556H512.332V157ZM471.829 174.761H471.925L474.044 182H475.486L478.152 172.136H476.56L474.755 179.689H474.659L472.588 172.136H471.166L469.108 179.689H469.013L467.201 172.136H465.608L468.268 182H469.717L471.829 174.761ZM479.861 182H481.324V174.556H479.861V182ZM480.593 173.264C481.105 173.264 481.522 172.833 481.522 172.307C481.522 171.773 481.105 171.343 480.593 171.343C480.08 171.343 479.663 171.773 479.663 172.307C479.663 172.833 480.08 173.264 480.593 173.264ZM483.484 182H484.954V177.604C484.954 176.559 485.74 175.854 486.854 175.854C487.114 175.854 487.552 175.902 487.675 175.943V174.494C487.518 174.453 487.237 174.433 487.019 174.433C486.048 174.433 485.221 174.966 485.009 175.697H484.899V174.556H483.484V182ZM491.954 175.663C493.041 175.663 493.752 176.422 493.786 177.591H490.026C490.108 176.429 490.867 175.663 491.954 175.663ZM493.779 179.99C493.506 180.571 492.897 180.893 492.009 180.893C490.833 180.893 490.074 180.065 490.026 178.76V178.678H495.283V178.165C495.283 175.827 494.032 174.412 491.961 174.412C489.862 174.412 488.529 175.923 488.529 178.302C488.529 180.681 489.835 182.144 491.968 182.144C493.67 182.144 494.873 181.316 495.194 179.99H493.779ZM497.573 182H499.043V175.827H500.684V174.59H499.022V173.879C499.022 173.141 499.357 172.771 500.178 172.771C500.41 172.771 500.608 172.785 500.745 172.812V171.657C500.492 171.609 500.205 171.582 499.87 171.582C498.325 171.582 497.573 172.307 497.573 173.79V174.59H496.35V175.827H497.573V182ZM502.352 182H503.821V177.604C503.821 176.559 504.607 175.854 505.722 175.854C505.981 175.854 506.419 175.902 506.542 175.943V174.494C506.385 174.453 506.104 174.433 505.886 174.433C504.915 174.433 504.088 174.966 503.876 175.697H503.767V174.556H502.352V182ZM510.336 180.886C509.536 180.886 508.955 180.496 508.955 179.826C508.955 179.17 509.42 178.821 510.445 178.753L512.264 178.637V179.259C512.264 180.182 511.443 180.886 510.336 180.886ZM509.96 182.123C510.938 182.123 511.751 181.699 512.195 180.954H512.312V182H513.727V176.914C513.727 175.342 512.674 174.412 510.808 174.412C509.119 174.412 507.916 175.232 507.766 176.511H509.188C509.352 175.984 509.919 175.684 510.739 175.684C511.744 175.684 512.264 176.128 512.264 176.914V177.557L510.247 177.673C508.477 177.782 507.479 178.555 507.479 179.895C507.479 181.255 508.524 182.123 509.96 182.123ZM515.818 182H517.288V177.447C517.288 176.49 517.965 175.759 518.86 175.759C519.735 175.759 520.296 176.271 520.296 177.112V182H521.738V177.317C521.738 176.442 522.36 175.759 523.311 175.759C524.274 175.759 524.753 176.251 524.753 177.256V182H526.223V176.873C526.223 175.321 525.348 174.412 523.844 174.412C522.812 174.412 521.957 174.938 521.581 175.752H521.465C521.137 174.938 520.433 174.412 519.414 174.412C518.423 174.412 517.671 174.911 517.343 175.752H517.233V174.556H515.818V182ZM531.343 175.663C532.43 175.663 533.141 176.422 533.175 177.591H529.415C529.497 176.429 530.256 175.663 531.343 175.663ZM533.168 179.99C532.895 180.571 532.286 180.893 531.397 180.893C530.222 180.893 529.463 180.065 529.415 178.76V178.678H534.672V178.165C534.672 175.827 533.421 174.412 531.35 174.412C529.251 174.412 527.918 175.923 527.918 178.302C527.918 180.681 529.224 182.144 531.356 182.144C533.059 182.144 534.262 181.316 534.583 179.99H533.168ZM544.885 182L548.392 172.136H546.765L544.119 180.086H544.003L541.344 172.136H539.676L543.203 182H544.885ZM551.625 180.886C550.825 180.886 550.244 180.496 550.244 179.826C550.244 179.17 550.709 178.821 551.734 178.753L553.553 178.637V179.259C553.553 180.182 552.732 180.886 551.625 180.886ZM551.249 182.123C552.227 182.123 553.04 181.699 553.484 180.954H553.601V182H555.016V176.914C555.016 175.342 553.963 174.412 552.097 174.412C550.408 174.412 549.205 175.232 549.055 176.511H550.477C550.641 175.984 551.208 175.684 552.028 175.684C553.033 175.684 553.553 176.128 553.553 176.914V177.557L551.536 177.673C549.766 177.782 548.768 178.555 548.768 179.895C548.768 181.255 549.813 182.123 551.249 182.123ZM557.176 182H558.646V171.65H557.176V182ZM560.881 182H562.344V174.556H560.881V182ZM561.612 173.264C562.125 173.264 562.542 172.833 562.542 172.307C562.542 171.773 562.125 171.343 561.612 171.343C561.1 171.343 560.683 171.773 560.683 172.307C560.683 172.833 561.1 173.264 561.612 173.264ZM567.225 182.123C568.25 182.123 569.118 181.638 569.562 180.824H569.679V182H571.087V171.65H569.617V175.738H569.508C569.104 174.918 568.243 174.433 567.225 174.433C565.345 174.433 564.135 175.923 564.135 178.274C564.135 180.633 565.331 182.123 567.225 182.123ZM567.642 175.752C568.872 175.752 569.645 176.729 569.645 178.281C569.645 179.84 568.879 180.804 567.642 180.804C566.397 180.804 565.652 179.854 565.652 178.274C565.652 176.709 566.404 175.752 567.642 175.752ZM575.729 180.886C574.929 180.886 574.348 180.496 574.348 179.826C574.348 179.17 574.812 178.821 575.838 178.753L577.656 178.637V179.259C577.656 180.182 576.836 180.886 575.729 180.886ZM575.353 182.123C576.33 182.123 577.144 181.699 577.588 180.954H577.704V182H579.119V176.914C579.119 175.342 578.066 174.412 576.2 174.412C574.512 174.412 573.309 175.232 573.158 176.511H574.58C574.744 175.984 575.312 175.684 576.132 175.684C577.137 175.684 577.656 176.128 577.656 176.914V177.557L575.64 177.673C573.869 177.782 572.871 178.555 572.871 179.895C572.871 181.255 573.917 182.123 575.353 182.123ZM581.73 172.703V174.59H580.548V175.827H581.73V180.031C581.73 181.467 582.38 182.041 584.014 182.041C584.301 182.041 584.574 182.007 584.813 181.966V180.742C584.608 180.763 584.479 180.776 584.253 180.776C583.521 180.776 583.2 180.435 583.2 179.655V175.827H584.813V174.59H583.2V172.703H581.73ZM586.57 182H588.033V174.556H586.57V182ZM587.302 173.264C587.814 173.264 588.231 172.833 588.231 172.307C588.231 171.773 587.814 171.343 587.302 171.343C586.789 171.343 586.372 171.773 586.372 172.307C586.372 172.833 586.789 173.264 587.302 173.264ZM593.338 182.144C595.512 182.144 596.845 180.688 596.845 178.274C596.845 175.875 595.505 174.412 593.338 174.412C591.164 174.412 589.824 175.875 589.824 178.274C589.824 180.688 591.157 182.144 593.338 182.144ZM593.338 180.838C592.06 180.838 591.342 179.901 591.342 178.274C591.342 176.661 592.06 175.718 593.338 175.718C594.609 175.718 595.334 176.661 595.334 178.274C595.334 179.895 594.609 180.838 593.338 180.838ZM598.615 182H600.085V177.646C600.085 176.483 600.775 175.759 601.862 175.759C602.949 175.759 603.469 176.354 603.469 177.55V182H604.938V177.181C604.938 175.41 604.022 174.412 602.361 174.412C601.24 174.412 600.502 174.911 600.14 175.738H600.03V174.556H598.615V182ZM466.237 197.136V207H467.769V203.678H470.052C471.986 203.678 473.354 202.352 473.354 200.424C473.354 198.469 472.027 197.136 470.1 197.136H466.237ZM467.769 198.489H469.696C471.043 198.489 471.788 199.173 471.788 200.424C471.788 201.647 471.016 202.331 469.696 202.331H467.769V198.489ZM475.158 207H476.628V202.604C476.628 201.559 477.414 200.854 478.528 200.854C478.788 200.854 479.226 200.902 479.349 200.943V199.494C479.191 199.453 478.911 199.433 478.692 199.433C477.722 199.433 476.895 199.966 476.683 200.697H476.573V199.556H475.158V207ZM483.717 207.144C485.891 207.144 487.224 205.688 487.224 203.274C487.224 200.875 485.884 199.412 483.717 199.412C481.543 199.412 480.203 200.875 480.203 203.274C480.203 205.688 481.536 207.144 483.717 207.144ZM483.717 205.838C482.438 205.838 481.721 204.901 481.721 203.274C481.721 201.661 482.438 200.718 483.717 200.718C484.988 200.718 485.713 201.661 485.713 203.274C485.713 204.895 484.988 205.838 483.717 205.838ZM489.514 197.703V199.59H488.331V200.827H489.514V205.031C489.514 206.467 490.163 207.041 491.797 207.041C492.084 207.041 492.357 207.007 492.597 206.966V205.742C492.392 205.763 492.262 205.776 492.036 205.776C491.305 205.776 490.983 205.435 490.983 204.655V200.827H492.597V199.59H490.983V197.703H489.514ZM497.389 207.144C499.562 207.144 500.896 205.688 500.896 203.274C500.896 200.875 499.556 199.412 497.389 199.412C495.215 199.412 493.875 200.875 493.875 203.274C493.875 205.688 495.208 207.144 497.389 207.144ZM497.389 205.838C496.11 205.838 495.393 204.901 495.393 203.274C495.393 201.661 496.11 200.718 497.389 200.718C498.66 200.718 499.385 201.661 499.385 203.274C499.385 204.895 498.66 205.838 497.389 205.838ZM503.186 197.703V199.59H502.003V200.827H503.186V205.031C503.186 206.467 503.835 207.041 505.469 207.041C505.756 207.041 506.029 207.007 506.269 206.966V205.742C506.063 205.763 505.934 205.776 505.708 205.776C504.977 205.776 504.655 205.435 504.655 204.655V200.827H506.269V199.59H504.655V197.703H503.186ZM508.736 209.7C510.254 209.7 510.958 209.119 511.594 207.308L514.369 199.556H512.811L510.951 205.469H510.835L508.969 199.556H507.369L510.062 207.027L509.953 207.39C509.7 208.142 509.304 208.429 508.606 208.429C508.47 208.429 508.244 208.422 508.128 208.401V209.666C508.265 209.687 508.613 209.7 508.736 209.7ZM519.735 199.433C518.724 199.433 517.849 199.938 517.397 200.786H517.288V199.556H515.873V209.475H517.343V205.872H517.459C517.849 206.658 518.689 207.123 519.749 207.123C521.629 207.123 522.825 205.64 522.825 203.274C522.825 200.909 521.629 199.433 519.735 199.433ZM519.318 205.804C518.088 205.804 517.315 204.833 517.315 203.281C517.315 201.723 518.088 200.752 519.325 200.752C520.569 200.752 521.314 201.702 521.314 203.274C521.314 204.854 520.569 205.804 519.318 205.804ZM527.651 200.663C528.738 200.663 529.449 201.422 529.483 202.591H525.724C525.806 201.429 526.564 200.663 527.651 200.663ZM529.477 204.99C529.203 205.571 528.595 205.893 527.706 205.893C526.53 205.893 525.771 205.065 525.724 203.76V203.678H530.98V203.165C530.98 200.827 529.729 199.412 527.658 199.412C525.56 199.412 524.227 200.923 524.227 203.302C524.227 205.681 525.532 207.144 527.665 207.144C529.367 207.144 530.57 206.316 530.892 204.99H529.477ZM466.237 222.136V232H467.769V228.678H470.052C471.986 228.678 473.354 227.352 473.354 225.424C473.354 223.469 472.027 222.136 470.1 222.136H466.237ZM467.769 223.489H469.696C471.043 223.489 471.788 224.173 471.788 225.424C471.788 226.647 471.016 227.331 469.696 227.331H467.769V223.489ZM475.158 232H476.628V227.604C476.628 226.559 477.414 225.854 478.528 225.854C478.788 225.854 479.226 225.902 479.349 225.943V224.494C479.191 224.453 478.911 224.433 478.692 224.433C477.722 224.433 476.895 224.966 476.683 225.697H476.573V224.556H475.158V232ZM483.717 232.144C485.891 232.144 487.224 230.688 487.224 228.274C487.224 225.875 485.884 224.412 483.717 224.412C481.543 224.412 480.203 225.875 480.203 228.274C480.203 230.688 481.536 232.144 483.717 232.144ZM483.717 230.838C482.438 230.838 481.721 229.901 481.721 228.274C481.721 226.661 482.438 225.718 483.717 225.718C484.988 225.718 485.713 226.661 485.713 228.274C485.713 229.895 484.988 230.838 483.717 230.838ZM489.514 222.703V224.59H488.331V225.827H489.514V230.031C489.514 231.467 490.163 232.041 491.797 232.041C492.084 232.041 492.357 232.007 492.597 231.966V230.742C492.392 230.763 492.262 230.776 492.036 230.776C491.305 230.776 490.983 230.435 490.983 229.655V225.827H492.597V224.59H490.983V222.703H489.514ZM497.389 232.144C499.562 232.144 500.896 230.688 500.896 228.274C500.896 225.875 499.556 224.412 497.389 224.412C495.215 224.412 493.875 225.875 493.875 228.274C493.875 230.688 495.208 232.144 497.389 232.144ZM497.389 230.838C496.11 230.838 495.393 229.901 495.393 228.274C495.393 226.661 496.11 225.718 497.389 225.718C498.66 225.718 499.385 226.661 499.385 228.274C499.385 229.895 498.66 230.838 497.389 230.838ZM503.186 222.703V224.59H502.003V225.827H503.186V230.031C503.186 231.467 503.835 232.041 505.469 232.041C505.756 232.041 506.029 232.007 506.269 231.966V230.742C506.063 230.763 505.934 230.776 505.708 230.776C504.977 230.776 504.655 230.435 504.655 229.655V225.827H506.269V224.59H504.655V222.703H503.186ZM508.736 234.7C510.254 234.7 510.958 234.119 511.594 232.308L514.369 224.556H512.811L510.951 230.469H510.835L508.969 224.556H507.369L510.062 232.027L509.953 232.39C509.7 233.142 509.304 233.429 508.606 233.429C508.47 233.429 508.244 233.422 508.128 233.401V234.666C508.265 234.687 508.613 234.7 508.736 234.7ZM519.735 224.433C518.724 224.433 517.849 224.938 517.397 225.786H517.288V224.556H515.873V234.475H517.343V230.872H517.459C517.849 231.658 518.689 232.123 519.749 232.123C521.629 232.123 522.825 230.64 522.825 228.274C522.825 225.909 521.629 224.433 519.735 224.433ZM519.318 230.804C518.088 230.804 517.315 229.833 517.315 228.281C517.315 226.723 518.088 225.752 519.325 225.752C520.569 225.752 521.314 226.702 521.314 228.274C521.314 229.854 520.569 230.804 519.318 230.804ZM527.651 225.663C528.738 225.663 529.449 226.422 529.483 227.591H525.724C525.806 226.429 526.564 225.663 527.651 225.663ZM529.477 229.99C529.203 230.571 528.595 230.893 527.706 230.893C526.53 230.893 525.771 230.065 525.724 228.76V228.678H530.98V228.165C530.98 225.827 529.729 224.412 527.658 224.412C525.56 224.412 524.227 225.923 524.227 228.302C524.227 230.681 525.532 232.144 527.665 232.144C529.367 232.144 530.57 231.316 530.892 229.99H529.477ZM540.776 232V223.53H543.873V222.136H536.142V223.53H539.245V232H540.776ZM547.298 225.663C548.385 225.663 549.096 226.422 549.13 227.591H545.37C545.452 226.429 546.211 225.663 547.298 225.663ZM549.123 229.99C548.85 230.571 548.241 230.893 547.353 230.893C546.177 230.893 545.418 230.065 545.37 228.76V228.678H550.627V228.165C550.627 225.827 549.376 224.412 547.305 224.412C545.206 224.412 543.873 225.923 543.873 228.302C543.873 230.681 545.179 232.144 547.312 232.144C549.014 232.144 550.217 231.316 550.538 229.99H549.123ZM552.22 226.661C552.22 227.769 552.876 228.404 554.291 228.739L555.59 229.04C556.335 229.218 556.684 229.505 556.684 229.949C556.684 230.544 556.034 230.954 555.118 230.954C554.229 230.954 553.683 230.599 553.498 230.024H552.028C552.158 231.344 553.313 232.144 555.084 232.144C556.861 232.144 558.167 231.207 558.167 229.806C558.167 228.712 557.504 228.104 556.089 227.775L554.852 227.488C554.045 227.304 553.669 227.023 553.669 226.579C553.669 225.998 554.291 225.608 555.111 225.608C555.945 225.608 556.479 225.957 556.615 226.504H558.023C557.88 225.191 556.786 224.412 555.111 224.412C553.43 224.412 552.22 225.342 552.22 226.661ZM560.402 222.703V224.59H559.22V225.827H560.402V230.031C560.402 231.467 561.052 232.041 562.686 232.041C562.973 232.041 563.246 232.007 563.485 231.966V230.742C563.28 230.763 563.15 230.776 562.925 230.776C562.193 230.776 561.872 230.435 561.872 229.655V225.827H563.485V224.59H561.872V222.703H560.402ZM565.242 232H566.705V224.556H565.242V232ZM565.974 223.264C566.486 223.264 566.903 222.833 566.903 222.307C566.903 221.773 566.486 221.343 565.974 221.343C565.461 221.343 565.044 221.773 565.044 222.307C565.044 222.833 565.461 223.264 565.974 223.264ZM568.865 232H570.335V227.646C570.335 226.483 571.025 225.759 572.112 225.759C573.199 225.759 573.719 226.354 573.719 227.55V232H575.188V227.181C575.188 225.41 574.272 224.412 572.611 224.412C571.49 224.412 570.752 224.911 570.39 225.738H570.28V224.556H568.865V232ZM580.377 230.619C579.112 230.619 578.401 229.669 578.401 228.186C578.401 226.702 579.112 225.752 580.377 225.752C581.628 225.752 582.394 226.702 582.394 228.186C582.394 229.676 581.635 230.619 580.377 230.619ZM580.397 234.844C582.503 234.844 583.836 233.764 583.836 232.062V224.556H582.428V225.745H582.312C581.895 224.938 580.999 224.433 579.974 224.433C578.073 224.433 576.884 225.923 576.884 228.192C576.884 230.421 578.06 231.891 579.96 231.891C580.985 231.891 581.806 231.446 582.257 230.64H582.366V232.068C582.366 233.053 581.642 233.634 580.418 233.634C579.427 233.634 578.805 233.285 578.682 232.745H577.178C577.335 234.01 578.538 234.844 580.397 234.844Z" fill="black"/>
<rect x="711" y="115" width="6" height="53" fill="#DBDBDB"/>
<path d="M736.218 132V122.136H734.427L731.282 129.683H731.166L728.028 122.136H726.237V132H727.659V124.877H727.755L730.646 131.768H731.809L734.7 124.877H734.796V132H736.218ZM741.666 132.144C743.84 132.144 745.173 130.688 745.173 128.274C745.173 125.875 743.833 124.412 741.666 124.412C739.492 124.412 738.152 125.875 738.152 128.274C738.152 130.688 739.485 132.144 741.666 132.144ZM741.666 130.838C740.388 130.838 739.67 129.901 739.67 128.274C739.67 126.661 740.388 125.718 741.666 125.718C742.938 125.718 743.662 126.661 743.662 128.274C743.662 129.895 742.938 130.838 741.666 130.838ZM753.246 126.989C753.055 125.499 751.927 124.412 750.061 124.412C747.894 124.412 746.574 125.868 746.574 128.254C746.574 130.681 747.9 132.144 750.067 132.144C751.906 132.144 753.055 131.104 753.246 129.607H751.817C751.626 130.407 750.99 130.831 750.061 130.831C748.837 130.831 748.078 129.867 748.078 128.254C748.078 126.668 748.83 125.725 750.061 125.725C751.045 125.725 751.646 126.265 751.817 126.989H753.246ZM756.582 127.659H756.466V121.65H754.996V132H756.466V129.334L757.115 128.719L759.672 132H761.477L758.209 127.748L761.271 124.556H759.535L756.582 127.659ZM769.105 124.556H767.636V128.91C767.636 130.079 766.986 130.783 765.797 130.783C764.717 130.783 764.231 130.209 764.231 129.006V124.556H762.762V129.389C762.762 131.139 763.678 132.144 765.325 132.144C766.453 132.144 767.212 131.665 767.574 130.817H767.69V132H769.105V124.556ZM775.101 124.433C774.089 124.433 773.214 124.938 772.763 125.786H772.653V124.556H771.238V134.475H772.708V130.872H772.824C773.214 131.658 774.055 132.123 775.114 132.123C776.994 132.123 778.19 130.64 778.19 128.274C778.19 125.909 776.994 124.433 775.101 124.433ZM774.684 130.804C773.453 130.804 772.681 129.833 772.681 128.281C772.681 126.723 773.453 125.752 774.69 125.752C775.935 125.752 776.68 126.702 776.68 128.274C776.68 129.854 775.935 130.804 774.684 130.804ZM779.79 126.661C779.79 127.769 780.446 128.404 781.861 128.739L783.16 129.04C783.905 129.218 784.254 129.505 784.254 129.949C784.254 130.544 783.604 130.954 782.688 130.954C781.8 130.954 781.253 130.599 781.068 130.024H779.599C779.729 131.344 780.884 132.144 782.654 132.144C784.432 132.144 785.737 131.207 785.737 129.806C785.737 128.712 785.074 128.104 783.659 127.775L782.422 127.488C781.615 127.304 781.239 127.023 781.239 126.579C781.239 125.998 781.861 125.608 782.682 125.608C783.516 125.608 784.049 125.957 784.186 126.504H785.594C785.45 125.191 784.356 124.412 782.682 124.412C781 124.412 779.79 125.342 779.79 126.661ZM725.772 154.348C725.882 156.111 727.352 157.239 729.539 157.239C731.877 157.239 733.34 156.057 733.34 154.17C733.34 152.687 732.506 151.866 730.482 151.395L729.396 151.128C728.11 150.827 727.591 150.424 727.591 149.72C727.591 148.831 728.397 148.25 729.607 148.25C730.756 148.25 731.549 148.817 731.692 149.727H733.183C733.094 148.065 731.631 146.896 729.628 146.896C727.475 146.896 726.039 148.065 726.039 149.822C726.039 151.271 726.853 152.133 728.637 152.55L729.908 152.857C731.214 153.165 731.788 153.616 731.788 154.368C731.788 155.243 730.886 155.879 729.655 155.879C728.336 155.879 727.42 155.284 727.29 154.348H725.772ZM741.488 151.989C741.297 150.499 740.169 149.412 738.303 149.412C736.136 149.412 734.816 150.868 734.816 153.254C734.816 155.681 736.143 157.144 738.31 157.144C740.148 157.144 741.297 156.104 741.488 154.607H740.06C739.868 155.407 739.232 155.831 738.303 155.831C737.079 155.831 736.32 154.867 736.32 153.254C736.32 151.668 737.072 150.725 738.303 150.725C739.287 150.725 739.889 151.265 740.06 151.989H741.488ZM746.226 150.663C747.312 150.663 748.023 151.422 748.058 152.591H744.298C744.38 151.429 745.139 150.663 746.226 150.663ZM748.051 154.99C747.777 155.571 747.169 155.893 746.28 155.893C745.104 155.893 744.346 155.065 744.298 153.76V153.678H749.555V153.165C749.555 150.827 748.304 149.412 746.232 149.412C744.134 149.412 742.801 150.923 742.801 153.302C742.801 155.681 744.106 157.144 746.239 157.144C747.941 157.144 749.145 156.316 749.466 154.99H748.051ZM751.318 157H752.788V152.646C752.788 151.483 753.479 150.759 754.565 150.759C755.652 150.759 756.172 151.354 756.172 152.55V157H757.642V152.181C757.642 150.41 756.726 149.412 755.064 149.412C753.943 149.412 753.205 149.911 752.843 150.738H752.733V149.556H751.318V157ZM762.146 155.886C761.347 155.886 760.766 155.496 760.766 154.826C760.766 154.17 761.23 153.821 762.256 153.753L764.074 153.637V154.259C764.074 155.182 763.254 155.886 762.146 155.886ZM761.771 157.123C762.748 157.123 763.562 156.699 764.006 155.954H764.122V157H765.537V151.914C765.537 150.342 764.484 149.412 762.618 149.412C760.93 149.412 759.727 150.232 759.576 151.511H760.998C761.162 150.984 761.729 150.684 762.55 150.684C763.555 150.684 764.074 151.128 764.074 151.914V152.557L762.058 152.673C760.287 152.782 759.289 153.555 759.289 154.895C759.289 156.255 760.335 157.123 761.771 157.123ZM767.629 157H769.099V152.604C769.099 151.559 769.885 150.854 770.999 150.854C771.259 150.854 771.696 150.902 771.819 150.943V149.494C771.662 149.453 771.382 149.433 771.163 149.433C770.192 149.433 769.365 149.966 769.153 150.697H769.044V149.556H767.629V157ZM773.262 157H774.725V149.556H773.262V157ZM773.993 148.264C774.506 148.264 774.923 147.833 774.923 147.307C774.923 146.773 774.506 146.343 773.993 146.343C773.48 146.343 773.063 146.773 773.063 147.307C773.063 147.833 773.48 148.264 773.993 148.264ZM780.029 157.144C782.203 157.144 783.536 155.688 783.536 153.274C783.536 150.875 782.196 149.412 780.029 149.412C777.855 149.412 776.516 150.875 776.516 153.274C776.516 155.688 777.849 157.144 780.029 157.144ZM780.029 155.838C778.751 155.838 778.033 154.901 778.033 153.274C778.033 151.661 778.751 150.718 780.029 150.718C781.301 150.718 782.025 151.661 782.025 153.274C782.025 154.895 781.301 155.838 780.029 155.838ZM785.136 151.661C785.136 152.769 785.792 153.404 787.207 153.739L788.506 154.04C789.251 154.218 789.6 154.505 789.6 154.949C789.6 155.544 788.95 155.954 788.034 155.954C787.146 155.954 786.599 155.599 786.414 155.024H784.944C785.074 156.344 786.229 157.144 788 157.144C789.777 157.144 791.083 156.207 791.083 154.806C791.083 153.712 790.42 153.104 789.005 152.775L787.768 152.488C786.961 152.304 786.585 152.023 786.585 151.579C786.585 150.998 787.207 150.608 788.027 150.608C788.861 150.608 789.395 150.957 789.531 151.504H790.939C790.796 150.191 789.702 149.412 788.027 149.412C786.346 149.412 785.136 150.342 785.136 151.661ZM802.444 149.761H802.54L804.659 157H806.102L808.768 147.136H807.175L805.37 154.689H805.274L803.203 147.136H801.781L799.724 154.689H799.628L797.816 147.136H796.224L798.883 157H800.332L802.444 149.761ZM812.131 155.886C811.331 155.886 810.75 155.496 810.75 154.826C810.75 154.17 811.215 153.821 812.24 153.753L814.059 153.637V154.259C814.059 155.182 813.238 155.886 812.131 155.886ZM811.755 157.123C812.732 157.123 813.546 156.699 813.99 155.954H814.106V157H815.521V151.914C815.521 150.342 814.469 149.412 812.603 149.412C810.914 149.412 809.711 150.232 809.561 151.511H810.982C811.146 150.984 811.714 150.684 812.534 150.684C813.539 150.684 814.059 151.128 814.059 151.914V152.557L812.042 152.673C810.271 152.782 809.273 153.555 809.273 154.895C809.273 156.255 810.319 157.123 811.755 157.123ZM817.682 157H819.151V146.65H817.682V157ZM823.014 152.659H822.897V146.65H821.428V157H822.897V154.334L823.547 153.719L826.104 157H827.908L824.641 152.748L827.703 149.556H825.967L823.014 152.659ZM829.727 147.703V149.59H828.544V150.827H829.727V155.031C829.727 156.467 830.376 157.041 832.01 157.041C832.297 157.041 832.57 157.007 832.81 156.966V155.742C832.604 155.763 832.475 155.776 832.249 155.776C831.518 155.776 831.196 155.435 831.196 154.655V150.827H832.81V149.59H831.196V147.703H829.727ZM834.607 157H836.077V152.652C836.077 151.524 836.747 150.766 837.95 150.766C838.989 150.766 839.543 151.367 839.543 152.557V157H841.013V152.194C841.013 150.424 840.035 149.419 838.449 149.419C837.328 149.419 836.542 149.918 836.18 150.752H836.063V146.65H834.607V157ZM843.084 157H844.554V152.604C844.554 151.559 845.34 150.854 846.454 150.854C846.714 150.854 847.151 150.902 847.274 150.943V149.494C847.117 149.453 846.837 149.433 846.618 149.433C845.647 149.433 844.82 149.966 844.608 150.697H844.499V149.556H843.084V157ZM851.643 157.144C853.816 157.144 855.149 155.688 855.149 153.274C855.149 150.875 853.81 149.412 851.643 149.412C849.469 149.412 848.129 150.875 848.129 153.274C848.129 155.688 849.462 157.144 851.643 157.144ZM851.643 155.838C850.364 155.838 849.646 154.901 849.646 153.274C849.646 151.661 850.364 150.718 851.643 150.718C852.914 150.718 853.639 151.661 853.639 153.274C853.639 154.895 852.914 155.838 851.643 155.838ZM863.195 149.556H861.726V153.91C861.726 155.079 861.076 155.783 859.887 155.783C858.807 155.783 858.321 155.209 858.321 154.006V149.556H856.852V154.389C856.852 156.139 857.768 157.144 859.415 157.144C860.543 157.144 861.302 156.665 861.664 155.817H861.78V157H863.195V149.556ZM868.445 155.619C867.181 155.619 866.47 154.669 866.47 153.186C866.47 151.702 867.181 150.752 868.445 150.752C869.696 150.752 870.462 151.702 870.462 153.186C870.462 154.676 869.703 155.619 868.445 155.619ZM868.466 159.844C870.571 159.844 871.904 158.764 871.904 157.062V149.556H870.496V150.745H870.38C869.963 149.938 869.067 149.433 868.042 149.433C866.142 149.433 864.952 150.923 864.952 153.192C864.952 155.421 866.128 156.891 868.028 156.891C869.054 156.891 869.874 156.446 870.325 155.64H870.435V157.068C870.435 158.053 869.71 158.634 868.486 158.634C867.495 158.634 866.873 158.285 866.75 157.745H865.246C865.403 159.01 866.606 159.844 868.466 159.844ZM874.105 157H875.575V152.652C875.575 151.524 876.245 150.766 877.448 150.766C878.487 150.766 879.041 151.367 879.041 152.557V157H880.511V152.194C880.511 150.424 879.533 149.419 877.947 149.419C876.826 149.419 876.04 149.918 875.678 150.752H875.562V146.65H874.105V157Z" fill="black"/>
<rect x="907" y="115" width="6" height="54" fill="#DBDBDB"/>
<path d="M926.271 135V126.53H929.367V125.136H921.636V126.53H924.739V135H926.271ZM932.792 128.663C933.879 128.663 934.59 129.422 934.624 130.591H930.864C930.946 129.429 931.705 128.663 932.792 128.663ZM934.617 132.99C934.344 133.571 933.735 133.893 932.847 133.893C931.671 133.893 930.912 133.065 930.864 131.76V131.678H936.121V131.165C936.121 128.827 934.87 127.412 932.799 127.412C930.7 127.412 929.367 128.923 929.367 131.302C929.367 133.681 930.673 135.144 932.806 135.144C934.508 135.144 935.711 134.316 936.032 132.99H934.617ZM937.714 129.661C937.714 130.769 938.37 131.404 939.785 131.739L941.084 132.04C941.829 132.218 942.178 132.505 942.178 132.949C942.178 133.544 941.528 133.954 940.612 133.954C939.724 133.954 939.177 133.599 938.992 133.024H937.522C937.652 134.344 938.808 135.144 940.578 135.144C942.355 135.144 943.661 134.207 943.661 132.806C943.661 131.712 942.998 131.104 941.583 130.775L940.346 130.488C939.539 130.304 939.163 130.023 939.163 129.579C939.163 128.998 939.785 128.608 940.605 128.608C941.439 128.608 941.973 128.957 942.109 129.504H943.518C943.374 128.191 942.28 127.412 940.605 127.412C938.924 127.412 937.714 128.342 937.714 129.661ZM945.896 125.703V127.59H944.714V128.827H945.896V133.031C945.896 134.467 946.546 135.041 948.18 135.041C948.467 135.041 948.74 135.007 948.979 134.966V133.742C948.774 133.763 948.645 133.776 948.419 133.776C947.688 133.776 947.366 133.435 947.366 132.655V128.827H948.979V127.59H947.366V125.703H945.896ZM950.736 135H952.199V127.556H950.736V135ZM951.468 126.264C951.98 126.264 952.397 125.833 952.397 125.307C952.397 124.773 951.98 124.343 951.468 124.343C950.955 124.343 950.538 124.773 950.538 125.307C950.538 125.833 950.955 126.264 951.468 126.264ZM954.359 135H955.829V130.646C955.829 129.483 956.52 128.759 957.606 128.759C958.693 128.759 959.213 129.354 959.213 130.55V135H960.683V130.181C960.683 128.41 959.767 127.412 958.105 127.412C956.984 127.412 956.246 127.911 955.884 128.738H955.774V127.556H954.359V135ZM965.871 133.619C964.606 133.619 963.896 132.669 963.896 131.186C963.896 129.702 964.606 128.752 965.871 128.752C967.122 128.752 967.888 129.702 967.888 131.186C967.888 132.676 967.129 133.619 965.871 133.619ZM965.892 137.844C967.997 137.844 969.33 136.764 969.33 135.062V127.556H967.922V128.745H967.806C967.389 127.938 966.493 127.433 965.468 127.433C963.567 127.433 962.378 128.923 962.378 131.192C962.378 133.421 963.554 134.891 965.454 134.891C966.479 134.891 967.3 134.446 967.751 133.64H967.86V135.068C967.86 136.053 967.136 136.634 965.912 136.634C964.921 136.634 964.299 136.285 964.176 135.745H962.672C962.829 137.01 964.032 137.844 965.892 137.844ZM975.462 125.136V135H979.023C981.963 135 983.665 133.188 983.665 130.037C983.665 126.934 981.949 125.136 979.023 125.136H975.462ZM976.993 126.53H978.853C980.896 126.53 982.106 127.829 982.106 130.058C982.106 132.32 980.917 133.605 978.853 133.605H976.993V126.53ZM987.979 133.886C987.179 133.886 986.598 133.496 986.598 132.826C986.598 132.17 987.062 131.821 988.088 131.753L989.906 131.637V132.259C989.906 133.182 989.086 133.886 987.979 133.886ZM987.603 135.123C988.58 135.123 989.394 134.699 989.838 133.954H989.954V135H991.369V129.914C991.369 128.342 990.316 127.412 988.45 127.412C986.762 127.412 985.559 128.232 985.408 129.511H986.83C986.994 128.984 987.562 128.684 988.382 128.684C989.387 128.684 989.906 129.128 989.906 129.914V130.557L987.89 130.673C986.119 130.782 985.121 131.555 985.121 132.895C985.121 134.255 986.167 135.123 987.603 135.123ZM993.98 125.703V127.59H992.798V128.827H993.98V133.031C993.98 134.467 994.63 135.041 996.264 135.041C996.551 135.041 996.824 135.007 997.063 134.966V133.742C996.858 133.763 996.729 133.776 996.503 133.776C995.771 133.776 995.45 133.435 995.45 132.655V128.827H997.063V127.59H995.45V125.703H993.98ZM1001.23 133.886C1000.43 133.886 999.846 133.496 999.846 132.826C999.846 132.17 1000.31 131.821 1001.34 131.753L1003.15 131.637V132.259C1003.15 133.182 1002.33 133.886 1001.23 133.886ZM1000.85 135.123C1001.83 135.123 1002.64 134.699 1003.09 133.954H1003.2V135H1004.62V129.914C1004.62 128.342 1003.56 127.412 1001.7 127.412C1000.01 127.412 998.807 128.232 998.656 129.511H1000.08C1000.24 128.984 1000.81 128.684 1001.63 128.684C1002.63 128.684 1003.15 129.128 1003.15 129.914V130.557L1001.14 130.673C999.367 130.782 998.369 131.555 998.369 132.895C998.369 134.255 999.415 135.123 1000.85 135.123ZM923.728 160V152.993H923.837L928.902 160H930.283V150.136H928.793V157.143H928.684L923.618 150.136H922.237V160H923.728ZM935.649 153.663C936.736 153.663 937.447 154.422 937.481 155.591H933.722C933.804 154.429 934.562 153.663 935.649 153.663ZM937.475 157.99C937.201 158.571 936.593 158.893 935.704 158.893C934.528 158.893 933.77 158.065 933.722 156.76V156.678H938.979V156.165C938.979 153.827 937.728 152.412 935.656 152.412C933.558 152.412 932.225 153.923 932.225 156.302C932.225 158.681 933.53 160.144 935.663 160.144C937.365 160.144 938.568 159.316 938.89 157.99H937.475ZM943.23 157.375L944.857 160.014H946.546L944.064 156.247L946.519 152.569H944.878L943.292 155.194H943.176L941.576 152.569H939.86L942.349 156.315L939.881 160.014H941.494L943.121 157.375H943.23ZM948.604 150.703V152.59H947.421V153.827H948.604V158.031C948.604 159.467 949.253 160.041 950.887 160.041C951.174 160.041 951.447 160.007 951.687 159.966V158.742C951.481 158.763 951.352 158.776 951.126 158.776C950.395 158.776 950.073 158.435 950.073 157.655V153.827H951.687V152.59H950.073V150.703H948.604ZM956.95 157.348C957.06 159.111 958.529 160.239 960.717 160.239C963.055 160.239 964.518 159.057 964.518 157.17C964.518 155.687 963.684 154.866 961.66 154.395L960.573 154.128C959.288 153.827 958.769 153.424 958.769 152.72C958.769 151.831 959.575 151.25 960.785 151.25C961.934 151.25 962.727 151.817 962.87 152.727H964.36C964.271 151.065 962.809 149.896 960.806 149.896C958.652 149.896 957.217 151.065 957.217 152.822C957.217 154.271 958.03 155.133 959.814 155.55L961.086 155.857C962.392 156.165 962.966 156.616 962.966 157.368C962.966 158.243 962.063 158.879 960.833 158.879C959.514 158.879 958.598 158.284 958.468 157.348H956.95ZM966.883 150.703V152.59H965.7V153.827H966.883V158.031C966.883 159.467 967.532 160.041 969.166 160.041C969.453 160.041 969.727 160.007 969.966 159.966V158.742C969.761 158.763 969.631 158.776 969.405 158.776C968.674 158.776 968.353 158.435 968.353 157.655V153.827H969.966V152.59H968.353V150.703H966.883ZM974.669 153.663C975.756 153.663 976.467 154.422 976.501 155.591H972.741C972.823 154.429 973.582 153.663 974.669 153.663ZM976.494 157.99C976.221 158.571 975.612 158.893 974.724 158.893C973.548 158.893 972.789 158.065 972.741 156.76V156.678H977.998V156.165C977.998 153.827 976.747 152.412 974.676 152.412C972.577 152.412 971.244 153.923 971.244 156.302C971.244 158.681 972.55 160.144 974.683 160.144C976.385 160.144 977.588 159.316 977.909 157.99H976.494ZM983.624 152.433C982.612 152.433 981.737 152.938 981.286 153.786H981.177V152.556H979.762V162.475H981.231V158.872H981.348C981.737 159.658 982.578 160.123 983.638 160.123C985.518 160.123 986.714 158.64 986.714 156.274C986.714 153.909 985.518 152.433 983.624 152.433ZM983.207 158.804C981.977 158.804 981.204 157.833 981.204 156.281C981.204 154.723 981.977 153.752 983.214 153.752C984.458 153.752 985.203 154.702 985.203 156.274C985.203 157.854 984.458 158.804 983.207 158.804ZM988.313 154.661C988.313 155.769 988.97 156.404 990.385 156.739L991.684 157.04C992.429 157.218 992.777 157.505 992.777 157.949C992.777 158.544 992.128 158.954 991.212 158.954C990.323 158.954 989.776 158.599 989.592 158.024H988.122C988.252 159.344 989.407 160.144 991.178 160.144C992.955 160.144 994.261 159.207 994.261 157.806C994.261 156.712 993.598 156.104 992.183 155.775L990.945 155.488C990.139 155.304 989.763 155.023 989.763 154.579C989.763 153.998 990.385 153.608 991.205 153.608C992.039 153.608 992.572 153.957 992.709 154.504H994.117C993.974 153.191 992.88 152.412 991.205 152.412C989.523 152.412 988.313 153.342 988.313 154.661Z" fill="black"/>
</svg>
